%TF.GenerationSoftware,KiCad,Pcbnew,(6.0.5)*%
%TF.CreationDate,2023-01-02T12:33:01-06:00*%
%TF.ProjectId,ISA rev6,49534120-7265-4763-962e-6b696361645f,rev?*%
%TF.SameCoordinates,Original*%
%TF.FileFunction,Paste,Top*%
%TF.FilePolarity,Positive*%
%FSLAX46Y46*%
G04 Gerber Fmt 4.6, Leading zero omitted, Abs format (unit mm)*
G04 Created by KiCad (PCBNEW (6.0.5)) date 2023-01-02 12:33:01*
%MOMM*%
%LPD*%
G01*
G04 APERTURE LIST*
G04 Aperture macros list*
%AMRoundRect*
0 Rectangle with rounded corners*
0 $1 Rounding radius*
0 $2 $3 $4 $5 $6 $7 $8 $9 X,Y pos of 4 corners*
0 Add a 4 corners polygon primitive as box body*
4,1,4,$2,$3,$4,$5,$6,$7,$8,$9,$2,$3,0*
0 Add four circle primitives for the rounded corners*
1,1,$1+$1,$2,$3*
1,1,$1+$1,$4,$5*
1,1,$1+$1,$6,$7*
1,1,$1+$1,$8,$9*
0 Add four rect primitives between the rounded corners*
20,1,$1+$1,$2,$3,$4,$5,0*
20,1,$1+$1,$4,$5,$6,$7,0*
20,1,$1+$1,$6,$7,$8,$9,0*
20,1,$1+$1,$8,$9,$2,$3,0*%
G04 Aperture macros list end*
%ADD10RoundRect,0.150000X0.150000X-0.837500X0.150000X0.837500X-0.150000X0.837500X-0.150000X-0.837500X0*%
%ADD11R,1.900000X0.800000*%
%ADD12RoundRect,0.250000X-0.400000X-0.625000X0.400000X-0.625000X0.400000X0.625000X-0.400000X0.625000X0*%
%ADD13RoundRect,0.250000X-0.625000X0.400000X-0.625000X-0.400000X0.625000X-0.400000X0.625000X0.400000X0*%
%ADD14R,2.000000X0.900000*%
%ADD15RoundRect,0.250000X0.400000X0.625000X-0.400000X0.625000X-0.400000X-0.625000X0.400000X-0.625000X0*%
%ADD16RoundRect,0.150000X0.825000X0.150000X-0.825000X0.150000X-0.825000X-0.150000X0.825000X-0.150000X0*%
G04 APERTURE END LIST*
D10*
%TO.C,U4*%
X102992000Y-102395500D03*
X104262000Y-102395500D03*
X105532000Y-102395500D03*
X106802000Y-102395500D03*
X108072000Y-102395500D03*
X109342000Y-102395500D03*
X110612000Y-102395500D03*
X111882000Y-102395500D03*
X113152000Y-102395500D03*
X114422000Y-102395500D03*
X114422000Y-95470500D03*
X113152000Y-95470500D03*
X111882000Y-95470500D03*
X110612000Y-95470500D03*
X109342000Y-95470500D03*
X108072000Y-95470500D03*
X106802000Y-95470500D03*
X105532000Y-95470500D03*
X104262000Y-95470500D03*
X102992000Y-95470500D03*
%TD*%
D11*
%TO.C,D3*%
X136247000Y-69657000D03*
X136247000Y-67757000D03*
X133247000Y-68707000D03*
%TD*%
D12*
%TO.C,R13*%
X133070000Y-71882000D03*
X136170000Y-71882000D03*
%TD*%
D13*
%TO.C,R6*%
X113279000Y-116814000D03*
X113279000Y-119914000D03*
%TD*%
%TO.C,R5*%
X116581000Y-109448000D03*
X116581000Y-112548000D03*
%TD*%
%TO.C,R4*%
X165765978Y-73608000D03*
X165765978Y-76708000D03*
%TD*%
D11*
%TO.C,D6*%
X138279000Y-114300000D03*
X135279000Y-113350000D03*
X135279000Y-115250000D03*
%TD*%
D14*
%TO.C,J2*%
X171042000Y-67572000D03*
X171042000Y-68842000D03*
X171042000Y-70112000D03*
X171042000Y-71382000D03*
X171042000Y-72652000D03*
X171042000Y-73922000D03*
X171042000Y-75192000D03*
%TD*%
D10*
%TO.C,U3*%
X165100000Y-119413500D03*
X166370000Y-119413500D03*
X167640000Y-119413500D03*
X168910000Y-119413500D03*
X170180000Y-119413500D03*
X171450000Y-119413500D03*
X172720000Y-119413500D03*
X173990000Y-119413500D03*
X175260000Y-119413500D03*
X176530000Y-119413500D03*
X176530000Y-112488500D03*
X175260000Y-112488500D03*
X173990000Y-112488500D03*
X172720000Y-112488500D03*
X171450000Y-112488500D03*
X170180000Y-112488500D03*
X168910000Y-112488500D03*
X167640000Y-112488500D03*
X166370000Y-112488500D03*
X165100000Y-112488500D03*
%TD*%
D15*
%TO.C,R9*%
X136170000Y-74422000D03*
X133070000Y-74422000D03*
%TD*%
%TO.C,R1*%
X152553000Y-74549000D03*
X149453000Y-74549000D03*
%TD*%
D11*
%TO.C,D1*%
X152503000Y-69657000D03*
X152503000Y-67757000D03*
X149503000Y-68707000D03*
%TD*%
D16*
%TO.C,U1*%
X152589000Y-119888000D03*
X152589000Y-118618000D03*
X152589000Y-117348000D03*
X152589000Y-116078000D03*
X152589000Y-114808000D03*
X152589000Y-113538000D03*
X152589000Y-112268000D03*
X147639000Y-112268000D03*
X147639000Y-113538000D03*
X147639000Y-114808000D03*
X147639000Y-116078000D03*
X147639000Y-117348000D03*
X147639000Y-118618000D03*
X147639000Y-119888000D03*
%TD*%
D13*
%TO.C,R7*%
X109723000Y-116814000D03*
X109723000Y-119914000D03*
%TD*%
%TO.C,R8*%
X106167000Y-116788000D03*
X106167000Y-119888000D03*
%TD*%
D12*
%TO.C,R2*%
X149453000Y-71882000D03*
X152553000Y-71882000D03*
%TD*%
%TO.C,R11*%
X141452000Y-71882000D03*
X144552000Y-71882000D03*
%TD*%
D13*
%TO.C,R3*%
X159415978Y-73481000D03*
X159415978Y-76581000D03*
%TD*%
D12*
%TO.C,R12*%
X140944000Y-114300000D03*
X144044000Y-114300000D03*
%TD*%
D16*
%TO.C,U2*%
X161098000Y-119888000D03*
X161098000Y-118618000D03*
X161098000Y-117348000D03*
X161098000Y-116078000D03*
X161098000Y-114808000D03*
X161098000Y-113538000D03*
X161098000Y-112268000D03*
X156148000Y-112268000D03*
X156148000Y-113538000D03*
X156148000Y-114808000D03*
X156148000Y-116078000D03*
X156148000Y-117348000D03*
X156148000Y-118618000D03*
X156148000Y-119888000D03*
%TD*%
D11*
%TO.C,D5*%
X144629000Y-69657000D03*
X144629000Y-67757000D03*
X141629000Y-68707000D03*
%TD*%
D15*
%TO.C,R10*%
X144552000Y-74549000D03*
X141452000Y-74549000D03*
%TD*%
D10*
%TO.C,U5*%
X102992000Y-114333500D03*
X104262000Y-114333500D03*
X105532000Y-114333500D03*
X106802000Y-114333500D03*
X108072000Y-114333500D03*
X109342000Y-114333500D03*
X110612000Y-114333500D03*
X111882000Y-114333500D03*
X113152000Y-114333500D03*
X114422000Y-114333500D03*
X114422000Y-107408500D03*
X113152000Y-107408500D03*
X111882000Y-107408500D03*
X110612000Y-107408500D03*
X109342000Y-107408500D03*
X108072000Y-107408500D03*
X106802000Y-107408500D03*
X105532000Y-107408500D03*
X104262000Y-107408500D03*
X102992000Y-107408500D03*
%TD*%
M02*
