%TF.GenerationSoftware,KiCad,Pcbnew,(6.0.5)*%
%TF.CreationDate,2023-01-02T12:33:02-06:00*%
%TF.ProjectId,ISA rev6,49534120-7265-4763-962e-6b696361645f,rev?*%
%TF.SameCoordinates,Original*%
%TF.FileFunction,Soldermask,Bot*%
%TF.FilePolarity,Negative*%
%FSLAX46Y46*%
G04 Gerber Fmt 4.6, Leading zero omitted, Abs format (unit mm)*
G04 Created by KiCad (PCBNEW (6.0.5)) date 2023-01-02 12:33:02*
%MOMM*%
%LPD*%
G01*
G04 APERTURE LIST*
G04 Aperture macros list*
%AMRoundRect*
0 Rectangle with rounded corners*
0 $1 Rounding radius*
0 $2 $3 $4 $5 $6 $7 $8 $9 X,Y pos of 4 corners*
0 Add a 4 corners polygon primitive as box body*
4,1,4,$2,$3,$4,$5,$6,$7,$8,$9,$2,$3,0*
0 Add four circle primitives for the rounded corners*
1,1,$1+$1,$2,$3*
1,1,$1+$1,$4,$5*
1,1,$1+$1,$6,$7*
1,1,$1+$1,$8,$9*
0 Add four rect primitives between the rounded corners*
20,1,$1+$1,$2,$3,$4,$5,0*
20,1,$1+$1,$4,$5,$6,$7,0*
20,1,$1+$1,$6,$7,$8,$9,0*
20,1,$1+$1,$8,$9,$2,$3,0*%
G04 Aperture macros list end*
%ADD10R,1.800000X1.800000*%
%ADD11C,1.800000*%
%ADD12R,2.300000X2.300000*%
%ADD13R,1.700000X1.700000*%
%ADD14O,1.700000X1.700000*%
%ADD15O,1.800000X1.800000*%
%ADD16O,1.500000X1.500000*%
%ADD17R,1.780000X7.620000*%
%ADD18R,1.550000X1.300000*%
%ADD19RoundRect,0.250000X0.650000X-0.412500X0.650000X0.412500X-0.650000X0.412500X-0.650000X-0.412500X0*%
%ADD20R,1.900000X0.800000*%
%ADD21RoundRect,0.250000X-0.650000X0.412500X-0.650000X-0.412500X0.650000X-0.412500X0.650000X0.412500X0*%
%ADD22RoundRect,0.250000X0.412500X0.650000X-0.412500X0.650000X-0.412500X-0.650000X0.412500X-0.650000X0*%
G04 APERTURE END LIST*
D10*
%TO.C,D2*%
X165770978Y-69956000D03*
D11*
X165770978Y-67416000D03*
%TD*%
D10*
%TO.C,D4*%
X159415978Y-67406000D03*
D11*
X159415978Y-69946000D03*
%TD*%
D12*
%TO.C,J2*%
X173402000Y-77752000D03*
X173402000Y-65012000D03*
%TD*%
D13*
%TO.C,J3*%
X179705000Y-118349000D03*
D14*
X179705000Y-115809000D03*
X179705000Y-113269000D03*
%TD*%
D15*
%TO.C,U6*%
X179702000Y-97594000D03*
D16*
X176672000Y-92444000D03*
X176672000Y-97294000D03*
D15*
X179702000Y-92144000D03*
D14*
X179832000Y-85979000D03*
X177292000Y-85979000D03*
D13*
X174752000Y-85979000D03*
D14*
X172212000Y-85979000D03*
X169672000Y-85979000D03*
X167132000Y-85979000D03*
X164592000Y-85979000D03*
D13*
X162052000Y-85979000D03*
D14*
X159512000Y-85979000D03*
X156972000Y-85979000D03*
X154432000Y-85979000D03*
X151892000Y-85979000D03*
D13*
X149352000Y-85979000D03*
D14*
X146812000Y-85979000D03*
X144272000Y-85979000D03*
X141732000Y-85979000D03*
X139192000Y-85979000D03*
D13*
X136652000Y-85979000D03*
D14*
X134112000Y-85979000D03*
X131572000Y-85979000D03*
X131572000Y-103759000D03*
X134112000Y-103759000D03*
D13*
X136652000Y-103759000D03*
D14*
X139192000Y-103759000D03*
X141732000Y-103759000D03*
X144272000Y-103759000D03*
X146812000Y-103759000D03*
D13*
X149352000Y-103759000D03*
D14*
X151892000Y-103759000D03*
X154432000Y-103759000D03*
X156972000Y-103759000D03*
X159512000Y-103759000D03*
D13*
X162052000Y-103759000D03*
D14*
X164592000Y-103759000D03*
X167132000Y-103759000D03*
X169672000Y-103759000D03*
X172212000Y-103759000D03*
D13*
X174752000Y-103759000D03*
D14*
X177292000Y-103759000D03*
X179832000Y-103759000D03*
X131802000Y-92329000D03*
D13*
X131802000Y-94869000D03*
D14*
X131802000Y-97409000D03*
%TD*%
D17*
%TO.C,J1*%
X179583000Y-126492000D03*
X177043000Y-126492000D03*
X174503000Y-126492000D03*
X171963000Y-126492000D03*
X169423000Y-126492000D03*
X166883000Y-126492000D03*
X164343000Y-126492000D03*
X161803000Y-126492000D03*
X159263000Y-126492000D03*
X156723000Y-126492000D03*
X154183000Y-126492000D03*
X151643000Y-126492000D03*
X149103000Y-126492000D03*
X146563000Y-126492000D03*
X144023000Y-126492000D03*
X141483000Y-126492000D03*
X138943000Y-126492000D03*
X136403000Y-126492000D03*
X133863000Y-126492000D03*
X131323000Y-126492000D03*
X128783000Y-126492000D03*
X126243000Y-126492000D03*
X123703000Y-126492000D03*
X121163000Y-126492000D03*
X118623000Y-126492000D03*
X116083000Y-126492000D03*
X113543000Y-126492000D03*
X111003000Y-126492000D03*
X108463000Y-126492000D03*
X105923000Y-126492000D03*
X103383000Y-126492000D03*
%TD*%
D18*
%TO.C,TP1*%
X179959000Y-94198000D03*
X179959000Y-89698000D03*
%TD*%
D19*
%TO.C,C3*%
X165608000Y-117513500D03*
X165608000Y-114388500D03*
%TD*%
D20*
%TO.C,D7*%
X172871000Y-116647000D03*
X172871000Y-114747000D03*
X175871000Y-115697000D03*
%TD*%
D19*
%TO.C,C4*%
X103373000Y-100622500D03*
X103373000Y-97497500D03*
%TD*%
D21*
%TO.C,C6*%
X158623000Y-114515500D03*
X158623000Y-117640500D03*
%TD*%
%TO.C,C1*%
X150241000Y-114388500D03*
X150241000Y-117513500D03*
%TD*%
D22*
%TO.C,C7*%
X146088500Y-100965000D03*
X142963500Y-100965000D03*
%TD*%
D21*
%TO.C,C5*%
X103373000Y-109181500D03*
X103373000Y-112306500D03*
%TD*%
M02*
