%TF.GenerationSoftware,KiCad,Pcbnew,(6.0.5)*%
%TF.CreationDate,2023-01-02T12:33:01-06:00*%
%TF.ProjectId,ISA rev6,49534120-7265-4763-962e-6b696361645f,rev?*%
%TF.SameCoordinates,Original*%
%TF.FileFunction,Legend,Bot*%
%TF.FilePolarity,Positive*%
%FSLAX46Y46*%
G04 Gerber Fmt 4.6, Leading zero omitted, Abs format (unit mm)*
G04 Created by KiCad (PCBNEW (6.0.5)) date 2023-01-02 12:33:01*
%MOMM*%
%LPD*%
G01*
G04 APERTURE LIST*
%ADD10C,0.152400*%
%ADD11C,0.150000*%
%ADD12C,0.120000*%
G04 APERTURE END LIST*
D10*
X178229380Y-90156695D02*
X178229380Y-89343895D01*
X177919742Y-89343895D01*
X177842333Y-89382600D01*
X177803628Y-89421304D01*
X177764923Y-89498714D01*
X177764923Y-89614828D01*
X177803628Y-89692238D01*
X177842333Y-89730942D01*
X177919742Y-89769647D01*
X178229380Y-89769647D01*
X177416580Y-90156695D02*
X177416580Y-89614828D01*
X177416580Y-89343895D02*
X177455285Y-89382600D01*
X177416580Y-89421304D01*
X177377876Y-89382600D01*
X177416580Y-89343895D01*
X177416580Y-89421304D01*
X176681190Y-90117990D02*
X176758599Y-90156695D01*
X176913419Y-90156695D01*
X176990828Y-90117990D01*
X177029533Y-90079285D01*
X177068238Y-90001876D01*
X177068238Y-89769647D01*
X177029533Y-89692238D01*
X176990828Y-89653533D01*
X176913419Y-89614828D01*
X176758599Y-89614828D01*
X176681190Y-89653533D01*
X176216733Y-90156695D02*
X176294142Y-90117990D01*
X176332847Y-90079285D01*
X176371552Y-90001876D01*
X176371552Y-89769647D01*
X176332847Y-89692238D01*
X176294142Y-89653533D01*
X176216733Y-89614828D01*
X176100619Y-89614828D01*
X176023209Y-89653533D01*
X175984504Y-89692238D01*
X175945799Y-89769647D01*
X175945799Y-90001876D01*
X175984504Y-90079285D01*
X176023209Y-90117990D01*
X176100619Y-90156695D01*
X176216733Y-90156695D01*
X174513723Y-90156695D02*
X174784657Y-89769647D01*
X174978180Y-90156695D02*
X174978180Y-89343895D01*
X174668542Y-89343895D01*
X174591133Y-89382600D01*
X174552428Y-89421304D01*
X174513723Y-89498714D01*
X174513723Y-89614828D01*
X174552428Y-89692238D01*
X174591133Y-89730942D01*
X174668542Y-89769647D01*
X174978180Y-89769647D01*
X173855742Y-90117990D02*
X173933152Y-90156695D01*
X174087971Y-90156695D01*
X174165380Y-90117990D01*
X174204085Y-90040580D01*
X174204085Y-89730942D01*
X174165380Y-89653533D01*
X174087971Y-89614828D01*
X173933152Y-89614828D01*
X173855742Y-89653533D01*
X173817038Y-89730942D01*
X173817038Y-89808352D01*
X174204085Y-89885761D01*
X173507399Y-90117990D02*
X173429990Y-90156695D01*
X173275171Y-90156695D01*
X173197761Y-90117990D01*
X173159057Y-90040580D01*
X173159057Y-90001876D01*
X173197761Y-89924466D01*
X173275171Y-89885761D01*
X173391285Y-89885761D01*
X173468695Y-89847057D01*
X173507399Y-89769647D01*
X173507399Y-89730942D01*
X173468695Y-89653533D01*
X173391285Y-89614828D01*
X173275171Y-89614828D01*
X173197761Y-89653533D01*
X172501076Y-90117990D02*
X172578485Y-90156695D01*
X172733304Y-90156695D01*
X172810714Y-90117990D01*
X172849419Y-90040580D01*
X172849419Y-89730942D01*
X172810714Y-89653533D01*
X172733304Y-89614828D01*
X172578485Y-89614828D01*
X172501076Y-89653533D01*
X172462371Y-89730942D01*
X172462371Y-89808352D01*
X172849419Y-89885761D01*
X172230142Y-89614828D02*
X171920504Y-89614828D01*
X172114028Y-89343895D02*
X172114028Y-90040580D01*
X172075323Y-90117990D01*
X171997914Y-90156695D01*
X171920504Y-90156695D01*
X180785104Y-78799266D02*
X180785104Y-78334809D01*
X179972304Y-78567038D02*
X180785104Y-78567038D01*
X179972304Y-78063876D02*
X180785104Y-78063876D01*
X179972304Y-77715533D02*
X180398057Y-77715533D01*
X180475466Y-77754238D01*
X180514171Y-77831647D01*
X180514171Y-77947761D01*
X180475466Y-78025171D01*
X180436761Y-78063876D01*
X179972304Y-77328485D02*
X180514171Y-77328485D01*
X180785104Y-77328485D02*
X180746400Y-77367190D01*
X180707695Y-77328485D01*
X180746400Y-77289780D01*
X180785104Y-77328485D01*
X180707695Y-77328485D01*
X180011009Y-76980142D02*
X179972304Y-76902733D01*
X179972304Y-76747914D01*
X180011009Y-76670504D01*
X180088419Y-76631800D01*
X180127123Y-76631800D01*
X180204533Y-76670504D01*
X180243238Y-76747914D01*
X180243238Y-76864028D01*
X180281942Y-76941438D01*
X180359352Y-76980142D01*
X180398057Y-76980142D01*
X180475466Y-76941438D01*
X180514171Y-76864028D01*
X180514171Y-76747914D01*
X180475466Y-76670504D01*
X180011009Y-75702885D02*
X179972304Y-75625476D01*
X179972304Y-75470657D01*
X180011009Y-75393247D01*
X180088419Y-75354542D01*
X180127123Y-75354542D01*
X180204533Y-75393247D01*
X180243238Y-75470657D01*
X180243238Y-75586771D01*
X180281942Y-75664180D01*
X180359352Y-75702885D01*
X180398057Y-75702885D01*
X180475466Y-75664180D01*
X180514171Y-75586771D01*
X180514171Y-75470657D01*
X180475466Y-75393247D01*
X179972304Y-75006200D02*
X180514171Y-75006200D01*
X180785104Y-75006200D02*
X180746400Y-75044904D01*
X180707695Y-75006200D01*
X180746400Y-74967495D01*
X180785104Y-75006200D01*
X180707695Y-75006200D01*
X179972304Y-74270809D02*
X180785104Y-74270809D01*
X180011009Y-74270809D02*
X179972304Y-74348219D01*
X179972304Y-74503038D01*
X180011009Y-74580447D01*
X180049714Y-74619152D01*
X180127123Y-74657857D01*
X180359352Y-74657857D01*
X180436761Y-74619152D01*
X180475466Y-74580447D01*
X180514171Y-74503038D01*
X180514171Y-74348219D01*
X180475466Y-74270809D01*
X180011009Y-73574123D02*
X179972304Y-73651533D01*
X179972304Y-73806352D01*
X180011009Y-73883761D01*
X180088419Y-73922466D01*
X180398057Y-73922466D01*
X180475466Y-73883761D01*
X180514171Y-73806352D01*
X180514171Y-73651533D01*
X180475466Y-73574123D01*
X180398057Y-73535419D01*
X180320647Y-73535419D01*
X180243238Y-73922466D01*
X180514171Y-72683914D02*
X180514171Y-72374276D01*
X180785104Y-72567800D02*
X180088419Y-72567800D01*
X180011009Y-72529095D01*
X179972304Y-72451685D01*
X179972304Y-72374276D01*
X179972304Y-71987228D02*
X180011009Y-72064638D01*
X180049714Y-72103342D01*
X180127123Y-72142047D01*
X180359352Y-72142047D01*
X180436761Y-72103342D01*
X180475466Y-72064638D01*
X180514171Y-71987228D01*
X180514171Y-71871114D01*
X180475466Y-71793704D01*
X180436761Y-71755000D01*
X180359352Y-71716295D01*
X180127123Y-71716295D01*
X180049714Y-71755000D01*
X180011009Y-71793704D01*
X179972304Y-71871114D01*
X179972304Y-71987228D01*
X180514171Y-71445361D02*
X179972304Y-71290542D01*
X180359352Y-71135723D01*
X179972304Y-70980904D01*
X180514171Y-70826085D01*
X179972304Y-70168104D02*
X180398057Y-70168104D01*
X180475466Y-70206809D01*
X180514171Y-70284219D01*
X180514171Y-70439038D01*
X180475466Y-70516447D01*
X180011009Y-70168104D02*
X179972304Y-70245514D01*
X179972304Y-70439038D01*
X180011009Y-70516447D01*
X180088419Y-70555152D01*
X180165828Y-70555152D01*
X180243238Y-70516447D01*
X180281942Y-70439038D01*
X180281942Y-70245514D01*
X180320647Y-70168104D01*
X179972304Y-69781057D02*
X180514171Y-69781057D01*
X180359352Y-69781057D02*
X180436761Y-69742352D01*
X180475466Y-69703647D01*
X180514171Y-69626238D01*
X180514171Y-69548828D01*
X179972304Y-68929552D02*
X180785104Y-68929552D01*
X180011009Y-68929552D02*
X179972304Y-69006961D01*
X179972304Y-69161780D01*
X180011009Y-69239190D01*
X180049714Y-69277895D01*
X180127123Y-69316600D01*
X180359352Y-69316600D01*
X180436761Y-69277895D01*
X180475466Y-69239190D01*
X180514171Y-69161780D01*
X180514171Y-69006961D01*
X180475466Y-68929552D01*
X180011009Y-68581209D02*
X179972304Y-68503800D01*
X179972304Y-68348980D01*
X180011009Y-68271571D01*
X180088419Y-68232866D01*
X180127123Y-68232866D01*
X180204533Y-68271571D01*
X180243238Y-68348980D01*
X180243238Y-68465095D01*
X180281942Y-68542504D01*
X180359352Y-68581209D01*
X180398057Y-68581209D01*
X180475466Y-68542504D01*
X180514171Y-68465095D01*
X180514171Y-68348980D01*
X180475466Y-68271571D01*
X179972304Y-67265247D02*
X180514171Y-67265247D01*
X180359352Y-67265247D02*
X180436761Y-67226542D01*
X180475466Y-67187838D01*
X180514171Y-67110428D01*
X180514171Y-67033019D01*
X180011009Y-66452447D02*
X179972304Y-66529857D01*
X179972304Y-66684676D01*
X180011009Y-66762085D01*
X180088419Y-66800790D01*
X180398057Y-66800790D01*
X180475466Y-66762085D01*
X180514171Y-66684676D01*
X180514171Y-66529857D01*
X180475466Y-66452447D01*
X180398057Y-66413742D01*
X180320647Y-66413742D01*
X180243238Y-66800790D01*
X179972304Y-65717057D02*
X180398057Y-65717057D01*
X180475466Y-65755761D01*
X180514171Y-65833171D01*
X180514171Y-65987990D01*
X180475466Y-66065400D01*
X180011009Y-65717057D02*
X179972304Y-65794466D01*
X179972304Y-65987990D01*
X180011009Y-66065400D01*
X180088419Y-66104104D01*
X180165828Y-66104104D01*
X180243238Y-66065400D01*
X180281942Y-65987990D01*
X180281942Y-65794466D01*
X180320647Y-65717057D01*
X179972304Y-65330009D02*
X180514171Y-65330009D01*
X180359352Y-65330009D02*
X180436761Y-65291304D01*
X180475466Y-65252600D01*
X180514171Y-65175190D01*
X180514171Y-65097780D01*
X180049714Y-64826847D02*
X180011009Y-64788142D01*
X179972304Y-64826847D01*
X180011009Y-64865552D01*
X180049714Y-64826847D01*
X179972304Y-64826847D01*
X180281942Y-64826847D02*
X180746400Y-64865552D01*
X180785104Y-64826847D01*
X180746400Y-64788142D01*
X180281942Y-64826847D01*
X180785104Y-64826847D01*
X124331790Y-120763695D02*
X124331790Y-119950895D01*
X124060857Y-120221828D02*
X123751219Y-120221828D01*
X123944742Y-119950895D02*
X123944742Y-120647580D01*
X123906038Y-120724990D01*
X123828628Y-120763695D01*
X123751219Y-120763695D01*
X123441580Y-119950895D02*
X123518990Y-120105714D01*
X123131942Y-120724990D02*
X123054533Y-120763695D01*
X122899714Y-120763695D01*
X122822304Y-120724990D01*
X122783600Y-120647580D01*
X122783600Y-120608876D01*
X122822304Y-120531466D01*
X122899714Y-120492761D01*
X123015828Y-120492761D01*
X123093238Y-120454057D01*
X123131942Y-120376647D01*
X123131942Y-120337942D01*
X123093238Y-120260533D01*
X123015828Y-120221828D01*
X122899714Y-120221828D01*
X122822304Y-120260533D01*
X121699866Y-120763695D02*
X121777276Y-120724990D01*
X121815980Y-120686285D01*
X121854685Y-120608876D01*
X121854685Y-120376647D01*
X121815980Y-120299238D01*
X121777276Y-120260533D01*
X121699866Y-120221828D01*
X121583752Y-120221828D01*
X121506342Y-120260533D01*
X121467638Y-120299238D01*
X121428933Y-120376647D01*
X121428933Y-120608876D01*
X121467638Y-120686285D01*
X121506342Y-120724990D01*
X121583752Y-120763695D01*
X121699866Y-120763695D01*
X121080590Y-120221828D02*
X121080590Y-120763695D01*
X121080590Y-120299238D02*
X121041885Y-120260533D01*
X120964476Y-120221828D01*
X120848361Y-120221828D01*
X120770952Y-120260533D01*
X120732247Y-120337942D01*
X120732247Y-120763695D01*
X120229085Y-120763695D02*
X120306495Y-120724990D01*
X120345200Y-120647580D01*
X120345200Y-119950895D01*
X119996857Y-120221828D02*
X119803333Y-120763695D01*
X119609809Y-120221828D02*
X119803333Y-120763695D01*
X119880742Y-120957219D01*
X119919447Y-120995923D01*
X119996857Y-121034628D01*
X118680895Y-120763695D02*
X118680895Y-119950895D01*
X118332552Y-120763695D02*
X118332552Y-120337942D01*
X118371257Y-120260533D01*
X118448666Y-120221828D01*
X118564780Y-120221828D01*
X118642190Y-120260533D01*
X118680895Y-120299238D01*
X117829390Y-120763695D02*
X117906800Y-120724990D01*
X117945504Y-120686285D01*
X117984209Y-120608876D01*
X117984209Y-120376647D01*
X117945504Y-120299238D01*
X117906800Y-120260533D01*
X117829390Y-120221828D01*
X117713276Y-120221828D01*
X117635866Y-120260533D01*
X117597161Y-120299238D01*
X117558457Y-120376647D01*
X117558457Y-120608876D01*
X117597161Y-120686285D01*
X117635866Y-120724990D01*
X117713276Y-120763695D01*
X117829390Y-120763695D01*
X116861771Y-120763695D02*
X116861771Y-120337942D01*
X116900476Y-120260533D01*
X116977885Y-120221828D01*
X117132704Y-120221828D01*
X117210114Y-120260533D01*
X116861771Y-120724990D02*
X116939180Y-120763695D01*
X117132704Y-120763695D01*
X117210114Y-120724990D01*
X117248819Y-120647580D01*
X117248819Y-120570171D01*
X117210114Y-120492761D01*
X117132704Y-120454057D01*
X116939180Y-120454057D01*
X116861771Y-120415352D01*
X116474723Y-120763695D02*
X116474723Y-120221828D01*
X116474723Y-120376647D02*
X116436019Y-120299238D01*
X116397314Y-120260533D01*
X116319904Y-120221828D01*
X116242495Y-120221828D01*
X115623219Y-120763695D02*
X115623219Y-119950895D01*
X115623219Y-120724990D02*
X115700628Y-120763695D01*
X115855447Y-120763695D01*
X115932857Y-120724990D01*
X115971561Y-120686285D01*
X116010266Y-120608876D01*
X116010266Y-120376647D01*
X115971561Y-120299238D01*
X115932857Y-120260533D01*
X115855447Y-120221828D01*
X115700628Y-120221828D01*
X115623219Y-120260533D01*
X115236171Y-120763695D02*
X115236171Y-120221828D01*
X115236171Y-119950895D02*
X115274876Y-119989600D01*
X115236171Y-120028304D01*
X115197466Y-119989600D01*
X115236171Y-119950895D01*
X115236171Y-120028304D01*
X114849123Y-120221828D02*
X114849123Y-120763695D01*
X114849123Y-120299238D02*
X114810419Y-120260533D01*
X114733009Y-120221828D01*
X114616895Y-120221828D01*
X114539485Y-120260533D01*
X114500780Y-120337942D01*
X114500780Y-120763695D01*
X113765390Y-120221828D02*
X113765390Y-120879809D01*
X113804095Y-120957219D01*
X113842800Y-120995923D01*
X113920209Y-121034628D01*
X114036323Y-121034628D01*
X114113733Y-120995923D01*
X113765390Y-120724990D02*
X113842800Y-120763695D01*
X113997619Y-120763695D01*
X114075028Y-120724990D01*
X114113733Y-120686285D01*
X114152438Y-120608876D01*
X114152438Y-120376647D01*
X114113733Y-120299238D01*
X114075028Y-120260533D01*
X113997619Y-120221828D01*
X113842800Y-120221828D01*
X113765390Y-120260533D01*
X112759066Y-120763695D02*
X112759066Y-120221828D01*
X112759066Y-119950895D02*
X112797771Y-119989600D01*
X112759066Y-120028304D01*
X112720361Y-119989600D01*
X112759066Y-119950895D01*
X112759066Y-120028304D01*
X112488133Y-120221828D02*
X112178495Y-120221828D01*
X112372019Y-120763695D02*
X112372019Y-120067009D01*
X112333314Y-119989600D01*
X112255904Y-119950895D01*
X112178495Y-119950895D01*
X111365695Y-120221828D02*
X111172171Y-120763695D01*
X110978647Y-120221828D02*
X111172171Y-120763695D01*
X111249580Y-120957219D01*
X111288285Y-120995923D01*
X111365695Y-121034628D01*
X110552895Y-120763695D02*
X110630304Y-120724990D01*
X110669009Y-120686285D01*
X110707714Y-120608876D01*
X110707714Y-120376647D01*
X110669009Y-120299238D01*
X110630304Y-120260533D01*
X110552895Y-120221828D01*
X110436780Y-120221828D01*
X110359371Y-120260533D01*
X110320666Y-120299238D01*
X110281961Y-120376647D01*
X110281961Y-120608876D01*
X110320666Y-120686285D01*
X110359371Y-120724990D01*
X110436780Y-120763695D01*
X110552895Y-120763695D01*
X109585276Y-120221828D02*
X109585276Y-120763695D01*
X109933619Y-120221828D02*
X109933619Y-120647580D01*
X109894914Y-120724990D01*
X109817504Y-120763695D01*
X109701390Y-120763695D01*
X109623980Y-120724990D01*
X109585276Y-120686285D01*
X108230609Y-120763695D02*
X108230609Y-119950895D01*
X108230609Y-120724990D02*
X108308019Y-120763695D01*
X108462838Y-120763695D01*
X108540247Y-120724990D01*
X108578952Y-120686285D01*
X108617657Y-120608876D01*
X108617657Y-120376647D01*
X108578952Y-120299238D01*
X108540247Y-120260533D01*
X108462838Y-120221828D01*
X108308019Y-120221828D01*
X108230609Y-120260533D01*
X107727447Y-120763695D02*
X107804857Y-120724990D01*
X107843561Y-120686285D01*
X107882266Y-120608876D01*
X107882266Y-120376647D01*
X107843561Y-120299238D01*
X107804857Y-120260533D01*
X107727447Y-120221828D01*
X107611333Y-120221828D01*
X107533923Y-120260533D01*
X107495219Y-120299238D01*
X107456514Y-120376647D01*
X107456514Y-120608876D01*
X107495219Y-120686285D01*
X107533923Y-120724990D01*
X107611333Y-120763695D01*
X107727447Y-120763695D01*
X107108171Y-120221828D02*
X107108171Y-120763695D01*
X107108171Y-120299238D02*
X107069466Y-120260533D01*
X106992057Y-120221828D01*
X106875942Y-120221828D01*
X106798533Y-120260533D01*
X106759828Y-120337942D01*
X106759828Y-120763695D01*
X106334076Y-119950895D02*
X106411485Y-120105714D01*
X106101847Y-120221828D02*
X105792209Y-120221828D01*
X105985733Y-119950895D02*
X105985733Y-120647580D01*
X105947028Y-120724990D01*
X105869619Y-120763695D01*
X105792209Y-120763695D01*
X104553657Y-120221828D02*
X104553657Y-120763695D01*
X104902000Y-120221828D02*
X104902000Y-120647580D01*
X104863295Y-120724990D01*
X104785885Y-120763695D01*
X104669771Y-120763695D01*
X104592361Y-120724990D01*
X104553657Y-120686285D01*
X104205314Y-120724990D02*
X104127904Y-120763695D01*
X103973085Y-120763695D01*
X103895676Y-120724990D01*
X103856971Y-120647580D01*
X103856971Y-120608876D01*
X103895676Y-120531466D01*
X103973085Y-120492761D01*
X104089200Y-120492761D01*
X104166609Y-120454057D01*
X104205314Y-120376647D01*
X104205314Y-120337942D01*
X104166609Y-120260533D01*
X104089200Y-120221828D01*
X103973085Y-120221828D01*
X103895676Y-120260533D01*
X103198990Y-120724990D02*
X103276400Y-120763695D01*
X103431219Y-120763695D01*
X103508628Y-120724990D01*
X103547333Y-120647580D01*
X103547333Y-120337942D01*
X103508628Y-120260533D01*
X103431219Y-120221828D01*
X103276400Y-120221828D01*
X103198990Y-120260533D01*
X103160285Y-120337942D01*
X103160285Y-120415352D01*
X103547333Y-120492761D01*
X102192666Y-120763695D02*
X102192666Y-120221828D01*
X102192666Y-119950895D02*
X102231371Y-119989600D01*
X102192666Y-120028304D01*
X102153961Y-119989600D01*
X102192666Y-119950895D01*
X102192666Y-120028304D01*
X101921733Y-120221828D02*
X101612095Y-120221828D01*
X101805619Y-119950895D02*
X101805619Y-120647580D01*
X101766914Y-120724990D01*
X101689504Y-120763695D01*
X101612095Y-120763695D01*
X118939612Y-63765514D02*
X118552564Y-63765514D01*
X119017021Y-63997743D02*
X118746088Y-63184943D01*
X118475155Y-63997743D01*
X117855879Y-63997743D02*
X117855879Y-63184943D01*
X117855879Y-63959038D02*
X117933288Y-63997743D01*
X118088107Y-63997743D01*
X118165517Y-63959038D01*
X118204221Y-63920333D01*
X118242926Y-63842924D01*
X118242926Y-63610695D01*
X118204221Y-63533286D01*
X118165517Y-63494581D01*
X118088107Y-63455876D01*
X117933288Y-63455876D01*
X117855879Y-63494581D01*
X117120488Y-63997743D02*
X117120488Y-63184943D01*
X117120488Y-63959038D02*
X117197898Y-63997743D01*
X117352717Y-63997743D01*
X117430126Y-63959038D01*
X117468831Y-63920333D01*
X117507536Y-63842924D01*
X117507536Y-63610695D01*
X117468831Y-63533286D01*
X117430126Y-63494581D01*
X117352717Y-63455876D01*
X117197898Y-63455876D01*
X117120488Y-63494581D01*
X116733440Y-63997743D02*
X116733440Y-63455876D01*
X116733440Y-63610695D02*
X116694736Y-63533286D01*
X116656031Y-63494581D01*
X116578621Y-63455876D01*
X116501212Y-63455876D01*
X115920640Y-63959038D02*
X115998050Y-63997743D01*
X116152869Y-63997743D01*
X116230279Y-63959038D01*
X116268983Y-63881628D01*
X116268983Y-63571990D01*
X116230279Y-63494581D01*
X116152869Y-63455876D01*
X115998050Y-63455876D01*
X115920640Y-63494581D01*
X115881936Y-63571990D01*
X115881936Y-63649400D01*
X116268983Y-63726809D01*
X115572298Y-63959038D02*
X115494888Y-63997743D01*
X115340069Y-63997743D01*
X115262660Y-63959038D01*
X115223955Y-63881628D01*
X115223955Y-63842924D01*
X115262660Y-63765514D01*
X115340069Y-63726809D01*
X115456183Y-63726809D01*
X115533593Y-63688105D01*
X115572298Y-63610695D01*
X115572298Y-63571990D01*
X115533593Y-63494581D01*
X115456183Y-63455876D01*
X115340069Y-63455876D01*
X115262660Y-63494581D01*
X114914317Y-63959038D02*
X114836907Y-63997743D01*
X114682088Y-63997743D01*
X114604679Y-63959038D01*
X114565974Y-63881628D01*
X114565974Y-63842924D01*
X114604679Y-63765514D01*
X114682088Y-63726809D01*
X114798202Y-63726809D01*
X114875612Y-63688105D01*
X114914317Y-63610695D01*
X114914317Y-63571990D01*
X114875612Y-63494581D01*
X114798202Y-63455876D01*
X114682088Y-63455876D01*
X114604679Y-63494581D01*
X113133898Y-63997743D02*
X113404831Y-63610695D01*
X113598355Y-63997743D02*
X113598355Y-63184943D01*
X113288717Y-63184943D01*
X113211307Y-63223648D01*
X113172602Y-63262352D01*
X113133898Y-63339762D01*
X113133898Y-63455876D01*
X113172602Y-63533286D01*
X113211307Y-63571990D01*
X113288717Y-63610695D01*
X113598355Y-63610695D01*
X112437212Y-63997743D02*
X112437212Y-63571990D01*
X112475917Y-63494581D01*
X112553326Y-63455876D01*
X112708145Y-63455876D01*
X112785555Y-63494581D01*
X112437212Y-63959038D02*
X112514621Y-63997743D01*
X112708145Y-63997743D01*
X112785555Y-63959038D01*
X112824260Y-63881628D01*
X112824260Y-63804219D01*
X112785555Y-63726809D01*
X112708145Y-63688105D01*
X112514621Y-63688105D01*
X112437212Y-63649400D01*
X112050164Y-63455876D02*
X112050164Y-63997743D01*
X112050164Y-63533286D02*
X112011460Y-63494581D01*
X111934050Y-63455876D01*
X111817936Y-63455876D01*
X111740526Y-63494581D01*
X111701821Y-63571990D01*
X111701821Y-63997743D01*
X110966431Y-63455876D02*
X110966431Y-64113857D01*
X111005136Y-64191267D01*
X111043840Y-64229971D01*
X111121250Y-64268676D01*
X111237364Y-64268676D01*
X111314774Y-64229971D01*
X110966431Y-63959038D02*
X111043840Y-63997743D01*
X111198660Y-63997743D01*
X111276069Y-63959038D01*
X111314774Y-63920333D01*
X111353479Y-63842924D01*
X111353479Y-63610695D01*
X111314774Y-63533286D01*
X111276069Y-63494581D01*
X111198660Y-63455876D01*
X111043840Y-63455876D01*
X110966431Y-63494581D01*
X110269745Y-63959038D02*
X110347155Y-63997743D01*
X110501974Y-63997743D01*
X110579383Y-63959038D01*
X110618088Y-63881628D01*
X110618088Y-63571990D01*
X110579383Y-63494581D01*
X110501974Y-63455876D01*
X110347155Y-63455876D01*
X110269745Y-63494581D01*
X110231040Y-63571990D01*
X110231040Y-63649400D01*
X110618088Y-63726809D01*
X109882698Y-63920333D02*
X109843993Y-63959038D01*
X109882698Y-63997743D01*
X109921402Y-63959038D01*
X109882698Y-63920333D01*
X109882698Y-63997743D01*
X109882698Y-63494581D02*
X109843993Y-63533286D01*
X109882698Y-63571990D01*
X109921402Y-63533286D01*
X109882698Y-63494581D01*
X109882698Y-63571990D01*
X108721555Y-63184943D02*
X108644145Y-63184943D01*
X108566736Y-63223648D01*
X108528031Y-63262352D01*
X108489326Y-63339762D01*
X108450621Y-63494581D01*
X108450621Y-63688105D01*
X108489326Y-63842924D01*
X108528031Y-63920333D01*
X108566736Y-63959038D01*
X108644145Y-63997743D01*
X108721555Y-63997743D01*
X108798964Y-63959038D01*
X108837669Y-63920333D01*
X108876374Y-63842924D01*
X108915079Y-63688105D01*
X108915079Y-63494581D01*
X108876374Y-63339762D01*
X108837669Y-63262352D01*
X108798964Y-63223648D01*
X108721555Y-63184943D01*
X107947460Y-63184943D02*
X107870050Y-63184943D01*
X107792640Y-63223648D01*
X107753936Y-63262352D01*
X107715231Y-63339762D01*
X107676526Y-63494581D01*
X107676526Y-63688105D01*
X107715231Y-63842924D01*
X107753936Y-63920333D01*
X107792640Y-63959038D01*
X107870050Y-63997743D01*
X107947460Y-63997743D01*
X108024869Y-63959038D01*
X108063574Y-63920333D01*
X108102279Y-63842924D01*
X108140983Y-63688105D01*
X108140983Y-63494581D01*
X108102279Y-63339762D01*
X108063574Y-63262352D01*
X108024869Y-63223648D01*
X107947460Y-63184943D01*
X107173364Y-63184943D02*
X107095955Y-63184943D01*
X107018545Y-63223648D01*
X106979840Y-63262352D01*
X106941136Y-63339762D01*
X106902431Y-63494581D01*
X106902431Y-63688105D01*
X106941136Y-63842924D01*
X106979840Y-63920333D01*
X107018545Y-63959038D01*
X107095955Y-63997743D01*
X107173364Y-63997743D01*
X107250774Y-63959038D01*
X107289479Y-63920333D01*
X107328183Y-63842924D01*
X107366888Y-63688105D01*
X107366888Y-63494581D01*
X107328183Y-63339762D01*
X107289479Y-63262352D01*
X107250774Y-63223648D01*
X107173364Y-63184943D01*
X106399269Y-63184943D02*
X106321860Y-63184943D01*
X106244450Y-63223648D01*
X106205745Y-63262352D01*
X106167040Y-63339762D01*
X106128336Y-63494581D01*
X106128336Y-63688105D01*
X106167040Y-63842924D01*
X106205745Y-63920333D01*
X106244450Y-63959038D01*
X106321860Y-63997743D01*
X106399269Y-63997743D01*
X106476679Y-63959038D01*
X106515383Y-63920333D01*
X106554088Y-63842924D01*
X106592793Y-63688105D01*
X106592793Y-63494581D01*
X106554088Y-63339762D01*
X106515383Y-63262352D01*
X106476679Y-63223648D01*
X106399269Y-63184943D01*
X105779993Y-63688105D02*
X105160717Y-63688105D01*
X104502736Y-63571990D02*
X104773669Y-63571990D01*
X104773669Y-63997743D02*
X104773669Y-63184943D01*
X104386621Y-63184943D01*
X103806050Y-63571990D02*
X104076983Y-63571990D01*
X104076983Y-63997743D02*
X104076983Y-63184943D01*
X103689936Y-63184943D01*
X103109364Y-63571990D02*
X103380298Y-63571990D01*
X103380298Y-63997743D02*
X103380298Y-63184943D01*
X102993250Y-63184943D01*
X102412679Y-63571990D02*
X102683612Y-63571990D01*
X102683612Y-63997743D02*
X102683612Y-63184943D01*
X102296564Y-63184943D01*
X101986926Y-63997743D02*
X101986926Y-63184943D01*
X101638583Y-63997743D02*
X101638583Y-63571990D01*
X101677288Y-63494581D01*
X101754698Y-63455876D01*
X101870812Y-63455876D01*
X101948221Y-63494581D01*
X101986926Y-63533286D01*
X130938088Y-64880598D02*
X130821974Y-64919303D01*
X130783269Y-64958008D01*
X130744564Y-65035417D01*
X130744564Y-65151532D01*
X130783269Y-65228941D01*
X130821974Y-65267646D01*
X130899383Y-65306351D01*
X131209021Y-65306351D01*
X131209021Y-64493551D01*
X130938088Y-64493551D01*
X130860679Y-64532256D01*
X130821974Y-64570960D01*
X130783269Y-64648370D01*
X130783269Y-64725779D01*
X130821974Y-64803189D01*
X130860679Y-64841894D01*
X130938088Y-64880598D01*
X131209021Y-64880598D01*
X130047879Y-64764484D02*
X130047879Y-65306351D01*
X130396221Y-64764484D02*
X130396221Y-65190236D01*
X130357517Y-65267646D01*
X130280107Y-65306351D01*
X130163993Y-65306351D01*
X130086583Y-65267646D01*
X130047879Y-65228941D01*
X129699536Y-65267646D02*
X129622126Y-65306351D01*
X129467307Y-65306351D01*
X129389898Y-65267646D01*
X129351193Y-65190236D01*
X129351193Y-65151532D01*
X129389898Y-65074122D01*
X129467307Y-65035417D01*
X129583421Y-65035417D01*
X129660831Y-64996713D01*
X129699536Y-64919303D01*
X129699536Y-64880598D01*
X129660831Y-64803189D01*
X129583421Y-64764484D01*
X129467307Y-64764484D01*
X129389898Y-64803189D01*
X127919117Y-65306351D02*
X128190050Y-64919303D01*
X128383574Y-65306351D02*
X128383574Y-64493551D01*
X128073936Y-64493551D01*
X127996526Y-64532256D01*
X127957821Y-64570960D01*
X127919117Y-64648370D01*
X127919117Y-64764484D01*
X127957821Y-64841894D01*
X127996526Y-64880598D01*
X128073936Y-64919303D01*
X128383574Y-64919303D01*
X127261136Y-65267646D02*
X127338545Y-65306351D01*
X127493364Y-65306351D01*
X127570774Y-65267646D01*
X127609479Y-65190236D01*
X127609479Y-64880598D01*
X127570774Y-64803189D01*
X127493364Y-64764484D01*
X127338545Y-64764484D01*
X127261136Y-64803189D01*
X127222431Y-64880598D01*
X127222431Y-64958008D01*
X127609479Y-65035417D01*
X126525745Y-65306351D02*
X126525745Y-64880598D01*
X126564450Y-64803189D01*
X126641860Y-64764484D01*
X126796679Y-64764484D01*
X126874088Y-64803189D01*
X126525745Y-65267646D02*
X126603155Y-65306351D01*
X126796679Y-65306351D01*
X126874088Y-65267646D01*
X126912793Y-65190236D01*
X126912793Y-65112827D01*
X126874088Y-65035417D01*
X126796679Y-64996713D01*
X126603155Y-64996713D01*
X126525745Y-64958008D01*
X125790355Y-65306351D02*
X125790355Y-64493551D01*
X125790355Y-65267646D02*
X125867764Y-65306351D01*
X126022583Y-65306351D01*
X126099993Y-65267646D01*
X126138698Y-65228941D01*
X126177402Y-65151532D01*
X126177402Y-64919303D01*
X126138698Y-64841894D01*
X126099993Y-64803189D01*
X126022583Y-64764484D01*
X125867764Y-64764484D01*
X125790355Y-64803189D01*
X125480717Y-64764484D02*
X125287193Y-65306351D01*
X125093669Y-64764484D02*
X125287193Y-65306351D01*
X125364602Y-65499875D01*
X125403307Y-65538579D01*
X125480717Y-65577284D01*
X124048640Y-65306351D02*
X124126050Y-65267646D01*
X124164755Y-65228941D01*
X124203460Y-65151532D01*
X124203460Y-64919303D01*
X124164755Y-64841894D01*
X124126050Y-64803189D01*
X124048640Y-64764484D01*
X123932526Y-64764484D01*
X123855117Y-64803189D01*
X123816412Y-64841894D01*
X123777707Y-64919303D01*
X123777707Y-65151532D01*
X123816412Y-65228941D01*
X123855117Y-65267646D01*
X123932526Y-65306351D01*
X124048640Y-65306351D01*
X123429364Y-64764484D02*
X123429364Y-65306351D01*
X123429364Y-64841894D02*
X123390660Y-64803189D01*
X123313250Y-64764484D01*
X123197136Y-64764484D01*
X123119726Y-64803189D01*
X123081021Y-64880598D01*
X123081021Y-65306351D01*
X122113402Y-65074122D02*
X121726355Y-65074122D01*
X122190812Y-65306351D02*
X121919879Y-64493551D01*
X121648945Y-65306351D01*
X121378012Y-64880598D02*
X121107079Y-64880598D01*
X120990964Y-65306351D02*
X121378012Y-65306351D01*
X121378012Y-64493551D01*
X120990964Y-64493551D01*
X120642621Y-65306351D02*
X120642621Y-64493551D01*
X120178164Y-65306351D01*
X120178164Y-64493551D01*
X119171840Y-64764484D02*
X119171840Y-65306351D01*
X119171840Y-64841894D02*
X119133136Y-64803189D01*
X119055726Y-64764484D01*
X118939612Y-64764484D01*
X118862202Y-64803189D01*
X118823498Y-64880598D01*
X118823498Y-65306351D01*
X118320336Y-65306351D02*
X118397745Y-65267646D01*
X118436450Y-65228941D01*
X118475155Y-65151532D01*
X118475155Y-64919303D01*
X118436450Y-64841894D01*
X118397745Y-64803189D01*
X118320336Y-64764484D01*
X118204221Y-64764484D01*
X118126812Y-64803189D01*
X118088107Y-64841894D01*
X118049402Y-64919303D01*
X118049402Y-65151532D01*
X118088107Y-65228941D01*
X118126812Y-65267646D01*
X118204221Y-65306351D01*
X118320336Y-65306351D01*
X117701060Y-65306351D02*
X117701060Y-64764484D01*
X117701060Y-64919303D02*
X117662355Y-64841894D01*
X117623650Y-64803189D01*
X117546240Y-64764484D01*
X117468831Y-64764484D01*
X116578621Y-65306351D02*
X116578621Y-64493551D01*
X116036755Y-64493551D02*
X115881936Y-64493551D01*
X115804526Y-64532256D01*
X115727117Y-64609665D01*
X115688412Y-64764484D01*
X115688412Y-65035417D01*
X115727117Y-65190236D01*
X115804526Y-65267646D01*
X115881936Y-65306351D01*
X116036755Y-65306351D01*
X116114164Y-65267646D01*
X116191574Y-65190236D01*
X116230279Y-65035417D01*
X116230279Y-64764484D01*
X116191574Y-64609665D01*
X116114164Y-64532256D01*
X116036755Y-64493551D01*
X115417479Y-64493551D02*
X115223955Y-65306351D01*
X115069136Y-64725779D01*
X114914317Y-65306351D01*
X114720793Y-64493551D01*
X113791879Y-64996713D02*
X113172602Y-64996713D01*
X113482240Y-65306351D02*
X113482240Y-64687075D01*
X111817936Y-65306351D02*
X111817936Y-64880598D01*
X111856640Y-64803189D01*
X111934050Y-64764484D01*
X112088869Y-64764484D01*
X112166279Y-64803189D01*
X111817936Y-65267646D02*
X111895345Y-65306351D01*
X112088869Y-65306351D01*
X112166279Y-65267646D01*
X112204983Y-65190236D01*
X112204983Y-65112827D01*
X112166279Y-65035417D01*
X112088869Y-64996713D01*
X111895345Y-64996713D01*
X111817936Y-64958008D01*
X111082545Y-65306351D02*
X111082545Y-64493551D01*
X111082545Y-65267646D02*
X111159955Y-65306351D01*
X111314774Y-65306351D01*
X111392183Y-65267646D01*
X111430888Y-65228941D01*
X111469593Y-65151532D01*
X111469593Y-64919303D01*
X111430888Y-64841894D01*
X111392183Y-64803189D01*
X111314774Y-64764484D01*
X111159955Y-64764484D01*
X111082545Y-64803189D01*
X110347155Y-65306351D02*
X110347155Y-64493551D01*
X110347155Y-65267646D02*
X110424564Y-65306351D01*
X110579383Y-65306351D01*
X110656793Y-65267646D01*
X110695498Y-65228941D01*
X110734202Y-65151532D01*
X110734202Y-64919303D01*
X110695498Y-64841894D01*
X110656793Y-64803189D01*
X110579383Y-64764484D01*
X110424564Y-64764484D01*
X110347155Y-64803189D01*
X109960107Y-65306351D02*
X109960107Y-64764484D01*
X109960107Y-64919303D02*
X109921402Y-64841894D01*
X109882698Y-64803189D01*
X109805288Y-64764484D01*
X109727879Y-64764484D01*
X108915079Y-64764484D02*
X108760260Y-65306351D01*
X108605440Y-64919303D01*
X108450621Y-65306351D01*
X108295802Y-64764484D01*
X107986164Y-65306351D02*
X107986164Y-64764484D01*
X107986164Y-64493551D02*
X108024869Y-64532256D01*
X107986164Y-64570960D01*
X107947460Y-64532256D01*
X107986164Y-64493551D01*
X107986164Y-64570960D01*
X107715231Y-64764484D02*
X107405593Y-64764484D01*
X107599117Y-64493551D02*
X107599117Y-65190236D01*
X107560412Y-65267646D01*
X107483002Y-65306351D01*
X107405593Y-65306351D01*
X107134660Y-65306351D02*
X107134660Y-64493551D01*
X106786317Y-65306351D02*
X106786317Y-64880598D01*
X106825021Y-64803189D01*
X106902431Y-64764484D01*
X107018545Y-64764484D01*
X107095955Y-64803189D01*
X107134660Y-64841894D01*
X106399269Y-65306351D02*
X106399269Y-64764484D01*
X106399269Y-64493551D02*
X106437974Y-64532256D01*
X106399269Y-64570960D01*
X106360564Y-64532256D01*
X106399269Y-64493551D01*
X106399269Y-64570960D01*
X106012221Y-64764484D02*
X106012221Y-65306351D01*
X106012221Y-64841894D02*
X105973517Y-64803189D01*
X105896107Y-64764484D01*
X105779993Y-64764484D01*
X105702583Y-64803189D01*
X105663879Y-64880598D01*
X105663879Y-65306351D01*
X104657555Y-65306351D02*
X104657555Y-64764484D01*
X104657555Y-64919303D02*
X104618850Y-64841894D01*
X104580145Y-64803189D01*
X104502736Y-64764484D01*
X104425326Y-64764484D01*
X103806050Y-65306351D02*
X103806050Y-64880598D01*
X103844755Y-64803189D01*
X103922164Y-64764484D01*
X104076983Y-64764484D01*
X104154393Y-64803189D01*
X103806050Y-65267646D02*
X103883460Y-65306351D01*
X104076983Y-65306351D01*
X104154393Y-65267646D01*
X104193098Y-65190236D01*
X104193098Y-65112827D01*
X104154393Y-65035417D01*
X104076983Y-64996713D01*
X103883460Y-64996713D01*
X103806050Y-64958008D01*
X103419002Y-64764484D02*
X103419002Y-65306351D01*
X103419002Y-64841894D02*
X103380298Y-64803189D01*
X103302888Y-64764484D01*
X103186774Y-64764484D01*
X103109364Y-64803189D01*
X103070660Y-64880598D01*
X103070660Y-65306351D01*
X102335269Y-64764484D02*
X102335269Y-65422465D01*
X102373974Y-65499875D01*
X102412679Y-65538579D01*
X102490088Y-65577284D01*
X102606202Y-65577284D01*
X102683612Y-65538579D01*
X102335269Y-65267646D02*
X102412679Y-65306351D01*
X102567498Y-65306351D01*
X102644907Y-65267646D01*
X102683612Y-65228941D01*
X102722317Y-65151532D01*
X102722317Y-64919303D01*
X102683612Y-64841894D01*
X102644907Y-64803189D01*
X102567498Y-64764484D01*
X102412679Y-64764484D01*
X102335269Y-64803189D01*
X101638583Y-65267646D02*
X101715993Y-65306351D01*
X101870812Y-65306351D01*
X101948221Y-65267646D01*
X101986926Y-65190236D01*
X101986926Y-64880598D01*
X101948221Y-64803189D01*
X101870812Y-64764484D01*
X101715993Y-64764484D01*
X101638583Y-64803189D01*
X101599879Y-64880598D01*
X101599879Y-64958008D01*
X101986926Y-65035417D01*
X114914317Y-67923567D02*
X115185250Y-67536519D01*
X115378774Y-67923567D02*
X115378774Y-67110767D01*
X115069136Y-67110767D01*
X114991726Y-67149472D01*
X114953021Y-67188176D01*
X114914317Y-67265586D01*
X114914317Y-67381700D01*
X114953021Y-67459110D01*
X114991726Y-67497814D01*
X115069136Y-67536519D01*
X115378774Y-67536519D01*
X114256336Y-67884862D02*
X114333745Y-67923567D01*
X114488564Y-67923567D01*
X114565974Y-67884862D01*
X114604679Y-67807452D01*
X114604679Y-67497814D01*
X114565974Y-67420405D01*
X114488564Y-67381700D01*
X114333745Y-67381700D01*
X114256336Y-67420405D01*
X114217631Y-67497814D01*
X114217631Y-67575224D01*
X114604679Y-67652633D01*
X113869288Y-67923567D02*
X113869288Y-67381700D01*
X113869288Y-67459110D02*
X113830583Y-67420405D01*
X113753174Y-67381700D01*
X113637060Y-67381700D01*
X113559650Y-67420405D01*
X113520945Y-67497814D01*
X113520945Y-67923567D01*
X113520945Y-67497814D02*
X113482240Y-67420405D01*
X113404831Y-67381700D01*
X113288717Y-67381700D01*
X113211307Y-67420405D01*
X113172602Y-67497814D01*
X113172602Y-67923567D01*
X112669440Y-67923567D02*
X112746850Y-67884862D01*
X112785555Y-67846157D01*
X112824260Y-67768748D01*
X112824260Y-67536519D01*
X112785555Y-67459110D01*
X112746850Y-67420405D01*
X112669440Y-67381700D01*
X112553326Y-67381700D01*
X112475917Y-67420405D01*
X112437212Y-67459110D01*
X112398507Y-67536519D01*
X112398507Y-67768748D01*
X112437212Y-67846157D01*
X112475917Y-67884862D01*
X112553326Y-67923567D01*
X112669440Y-67923567D01*
X112166279Y-67381700D02*
X111856640Y-67381700D01*
X112050164Y-67110767D02*
X112050164Y-67807452D01*
X112011460Y-67884862D01*
X111934050Y-67923567D01*
X111856640Y-67923567D01*
X111276069Y-67884862D02*
X111353479Y-67923567D01*
X111508298Y-67923567D01*
X111585707Y-67884862D01*
X111624412Y-67807452D01*
X111624412Y-67497814D01*
X111585707Y-67420405D01*
X111508298Y-67381700D01*
X111353479Y-67381700D01*
X111276069Y-67420405D01*
X111237364Y-67497814D01*
X111237364Y-67575224D01*
X111624412Y-67652633D01*
X110889021Y-67846157D02*
X110850317Y-67884862D01*
X110889021Y-67923567D01*
X110927726Y-67884862D01*
X110889021Y-67846157D01*
X110889021Y-67923567D01*
X110889021Y-67420405D02*
X110850317Y-67459110D01*
X110889021Y-67497814D01*
X110927726Y-67459110D01*
X110889021Y-67420405D01*
X110889021Y-67497814D01*
X109882698Y-67923567D02*
X109882698Y-67110767D01*
X109534355Y-67188176D02*
X109495650Y-67149472D01*
X109418240Y-67110767D01*
X109224717Y-67110767D01*
X109147307Y-67149472D01*
X109108602Y-67188176D01*
X109069898Y-67265586D01*
X109069898Y-67342995D01*
X109108602Y-67459110D01*
X109573060Y-67923567D01*
X109069898Y-67923567D01*
X108257098Y-67846157D02*
X108295802Y-67884862D01*
X108411917Y-67923567D01*
X108489326Y-67923567D01*
X108605440Y-67884862D01*
X108682850Y-67807452D01*
X108721555Y-67730043D01*
X108760260Y-67575224D01*
X108760260Y-67459110D01*
X108721555Y-67304291D01*
X108682850Y-67226881D01*
X108605440Y-67149472D01*
X108489326Y-67110767D01*
X108411917Y-67110767D01*
X108295802Y-67149472D01*
X108257098Y-67188176D01*
X107753936Y-67110767D02*
X107676526Y-67110767D01*
X107599117Y-67149472D01*
X107560412Y-67188176D01*
X107521707Y-67265586D01*
X107483002Y-67420405D01*
X107483002Y-67613929D01*
X107521707Y-67768748D01*
X107560412Y-67846157D01*
X107599117Y-67884862D01*
X107676526Y-67923567D01*
X107753936Y-67923567D01*
X107831345Y-67884862D01*
X107870050Y-67846157D01*
X107908755Y-67768748D01*
X107947460Y-67613929D01*
X107947460Y-67420405D01*
X107908755Y-67265586D01*
X107870050Y-67188176D01*
X107831345Y-67149472D01*
X107753936Y-67110767D01*
X106283155Y-68233205D02*
X106321860Y-68194500D01*
X106399269Y-68078386D01*
X106437974Y-68000976D01*
X106476679Y-67884862D01*
X106515383Y-67691338D01*
X106515383Y-67536519D01*
X106476679Y-67342995D01*
X106437974Y-67226881D01*
X106399269Y-67149472D01*
X106321860Y-67033357D01*
X106283155Y-66994652D01*
X105547764Y-67149472D02*
X105625174Y-67110767D01*
X105741288Y-67110767D01*
X105857402Y-67149472D01*
X105934812Y-67226881D01*
X105973517Y-67304291D01*
X106012221Y-67459110D01*
X106012221Y-67575224D01*
X105973517Y-67730043D01*
X105934812Y-67807452D01*
X105857402Y-67884862D01*
X105741288Y-67923567D01*
X105663879Y-67923567D01*
X105547764Y-67884862D01*
X105509060Y-67846157D01*
X105509060Y-67575224D01*
X105663879Y-67575224D01*
X105160717Y-67923567D02*
X105160717Y-67110767D01*
X104851079Y-67110767D01*
X104773669Y-67149472D01*
X104734964Y-67188176D01*
X104696260Y-67265586D01*
X104696260Y-67381700D01*
X104734964Y-67459110D01*
X104773669Y-67497814D01*
X104851079Y-67536519D01*
X105160717Y-67536519D01*
X104193098Y-67110767D02*
X104115688Y-67110767D01*
X104038279Y-67149472D01*
X103999574Y-67188176D01*
X103960869Y-67265586D01*
X103922164Y-67420405D01*
X103922164Y-67613929D01*
X103960869Y-67768748D01*
X103999574Y-67846157D01*
X104038279Y-67884862D01*
X104115688Y-67923567D01*
X104193098Y-67923567D01*
X104270507Y-67884862D01*
X104309212Y-67846157D01*
X104347917Y-67768748D01*
X104386621Y-67613929D01*
X104386621Y-67420405D01*
X104347917Y-67265586D01*
X104309212Y-67188176D01*
X104270507Y-67149472D01*
X104193098Y-67110767D01*
X103573821Y-67613929D02*
X102954545Y-67613929D01*
X102141745Y-67923567D02*
X102606202Y-67923567D01*
X102373974Y-67923567D02*
X102373974Y-67110767D01*
X102451383Y-67226881D01*
X102528793Y-67304291D01*
X102606202Y-67342995D01*
X101870812Y-68233205D02*
X101832107Y-68194500D01*
X101754698Y-68078386D01*
X101715993Y-68000976D01*
X101677288Y-67884862D01*
X101638583Y-67691338D01*
X101638583Y-67536519D01*
X101677288Y-67342995D01*
X101715993Y-67226881D01*
X101754698Y-67149472D01*
X101832107Y-67033357D01*
X101870812Y-66994652D01*
X112011460Y-69232175D02*
X112011460Y-68419375D01*
X111817936Y-68419375D01*
X111701821Y-68458080D01*
X111624412Y-68535489D01*
X111585707Y-68612899D01*
X111547002Y-68767718D01*
X111547002Y-68883832D01*
X111585707Y-69038651D01*
X111624412Y-69116060D01*
X111701821Y-69193470D01*
X111817936Y-69232175D01*
X112011460Y-69232175D01*
X110850317Y-69232175D02*
X110850317Y-68806422D01*
X110889021Y-68729013D01*
X110966431Y-68690308D01*
X111121250Y-68690308D01*
X111198660Y-68729013D01*
X110850317Y-69193470D02*
X110927726Y-69232175D01*
X111121250Y-69232175D01*
X111198660Y-69193470D01*
X111237364Y-69116060D01*
X111237364Y-69038651D01*
X111198660Y-68961241D01*
X111121250Y-68922537D01*
X110927726Y-68922537D01*
X110850317Y-68883832D01*
X110579383Y-68690308D02*
X110269745Y-68690308D01*
X110463269Y-68419375D02*
X110463269Y-69116060D01*
X110424564Y-69193470D01*
X110347155Y-69232175D01*
X110269745Y-69232175D01*
X109650469Y-69232175D02*
X109650469Y-68806422D01*
X109689174Y-68729013D01*
X109766583Y-68690308D01*
X109921402Y-68690308D01*
X109998812Y-68729013D01*
X109650469Y-69193470D02*
X109727879Y-69232175D01*
X109921402Y-69232175D01*
X109998812Y-69193470D01*
X110037517Y-69116060D01*
X110037517Y-69038651D01*
X109998812Y-68961241D01*
X109921402Y-68922537D01*
X109727879Y-68922537D01*
X109650469Y-68883832D01*
X108373212Y-68806422D02*
X108257098Y-68845127D01*
X108218393Y-68883832D01*
X108179688Y-68961241D01*
X108179688Y-69077356D01*
X108218393Y-69154765D01*
X108257098Y-69193470D01*
X108334507Y-69232175D01*
X108644145Y-69232175D01*
X108644145Y-68419375D01*
X108373212Y-68419375D01*
X108295802Y-68458080D01*
X108257098Y-68496784D01*
X108218393Y-68574194D01*
X108218393Y-68651603D01*
X108257098Y-68729013D01*
X108295802Y-68767718D01*
X108373212Y-68806422D01*
X108644145Y-68806422D01*
X107483002Y-68690308D02*
X107483002Y-69232175D01*
X107831345Y-68690308D02*
X107831345Y-69116060D01*
X107792640Y-69193470D01*
X107715231Y-69232175D01*
X107599117Y-69232175D01*
X107521707Y-69193470D01*
X107483002Y-69154765D01*
X107134660Y-69193470D02*
X107057250Y-69232175D01*
X106902431Y-69232175D01*
X106825021Y-69193470D01*
X106786317Y-69116060D01*
X106786317Y-69077356D01*
X106825021Y-68999946D01*
X106902431Y-68961241D01*
X107018545Y-68961241D01*
X107095955Y-68922537D01*
X107134660Y-68845127D01*
X107134660Y-68806422D01*
X107095955Y-68729013D01*
X107018545Y-68690308D01*
X106902431Y-68690308D01*
X106825021Y-68729013D01*
X106437974Y-69154765D02*
X106399269Y-69193470D01*
X106437974Y-69232175D01*
X106476679Y-69193470D01*
X106437974Y-69154765D01*
X106437974Y-69232175D01*
X106437974Y-68729013D02*
X106399269Y-68767718D01*
X106437974Y-68806422D01*
X106476679Y-68767718D01*
X106437974Y-68729013D01*
X106437974Y-68806422D01*
X105005898Y-68458080D02*
X105083307Y-68419375D01*
X105199421Y-68419375D01*
X105315536Y-68458080D01*
X105392945Y-68535489D01*
X105431650Y-68612899D01*
X105470355Y-68767718D01*
X105470355Y-68883832D01*
X105431650Y-69038651D01*
X105392945Y-69116060D01*
X105315536Y-69193470D01*
X105199421Y-69232175D01*
X105122012Y-69232175D01*
X105005898Y-69193470D01*
X104967193Y-69154765D01*
X104967193Y-68883832D01*
X105122012Y-68883832D01*
X104618850Y-69232175D02*
X104618850Y-68419375D01*
X104309212Y-68419375D01*
X104231802Y-68458080D01*
X104193098Y-68496784D01*
X104154393Y-68574194D01*
X104154393Y-68690308D01*
X104193098Y-68767718D01*
X104231802Y-68806422D01*
X104309212Y-68845127D01*
X104618850Y-68845127D01*
X103844755Y-68496784D02*
X103806050Y-68458080D01*
X103728640Y-68419375D01*
X103535117Y-68419375D01*
X103457707Y-68458080D01*
X103419002Y-68496784D01*
X103380298Y-68574194D01*
X103380298Y-68651603D01*
X103419002Y-68767718D01*
X103883460Y-69232175D01*
X103380298Y-69232175D01*
X103031955Y-68922537D02*
X102412679Y-68922537D01*
X101986926Y-69232175D02*
X101832107Y-69232175D01*
X101754698Y-69193470D01*
X101715993Y-69154765D01*
X101638583Y-69038651D01*
X101599879Y-68883832D01*
X101599879Y-68574194D01*
X101638583Y-68496784D01*
X101677288Y-68458080D01*
X101754698Y-68419375D01*
X101909517Y-68419375D01*
X101986926Y-68458080D01*
X102025631Y-68496784D01*
X102064336Y-68574194D01*
X102064336Y-68767718D01*
X102025631Y-68845127D01*
X101986926Y-68883832D01*
X101909517Y-68922537D01*
X101754698Y-68922537D01*
X101677288Y-68883832D01*
X101638583Y-68845127D01*
X101599879Y-68767718D01*
X113520945Y-70308554D02*
X113133898Y-70308554D01*
X113598355Y-70540783D02*
X113327421Y-69727983D01*
X113056488Y-70540783D01*
X112437212Y-70540783D02*
X112437212Y-69727983D01*
X112437212Y-70502078D02*
X112514621Y-70540783D01*
X112669440Y-70540783D01*
X112746850Y-70502078D01*
X112785555Y-70463373D01*
X112824260Y-70385964D01*
X112824260Y-70153735D01*
X112785555Y-70076326D01*
X112746850Y-70037621D01*
X112669440Y-69998916D01*
X112514621Y-69998916D01*
X112437212Y-70037621D01*
X111701821Y-70540783D02*
X111701821Y-69727983D01*
X111701821Y-70502078D02*
X111779231Y-70540783D01*
X111934050Y-70540783D01*
X112011460Y-70502078D01*
X112050164Y-70463373D01*
X112088869Y-70385964D01*
X112088869Y-70153735D01*
X112050164Y-70076326D01*
X112011460Y-70037621D01*
X111934050Y-69998916D01*
X111779231Y-69998916D01*
X111701821Y-70037621D01*
X111314774Y-70540783D02*
X111314774Y-69998916D01*
X111314774Y-70153735D02*
X111276069Y-70076326D01*
X111237364Y-70037621D01*
X111159955Y-69998916D01*
X111082545Y-69998916D01*
X109921402Y-70115030D02*
X109805288Y-70153735D01*
X109766583Y-70192440D01*
X109727879Y-70269849D01*
X109727879Y-70385964D01*
X109766583Y-70463373D01*
X109805288Y-70502078D01*
X109882698Y-70540783D01*
X110192336Y-70540783D01*
X110192336Y-69727983D01*
X109921402Y-69727983D01*
X109843993Y-69766688D01*
X109805288Y-69805392D01*
X109766583Y-69882802D01*
X109766583Y-69960211D01*
X109805288Y-70037621D01*
X109843993Y-70076326D01*
X109921402Y-70115030D01*
X110192336Y-70115030D01*
X109031193Y-69998916D02*
X109031193Y-70540783D01*
X109379536Y-69998916D02*
X109379536Y-70424668D01*
X109340831Y-70502078D01*
X109263421Y-70540783D01*
X109147307Y-70540783D01*
X109069898Y-70502078D01*
X109031193Y-70463373D01*
X108682850Y-70502078D02*
X108605440Y-70540783D01*
X108450621Y-70540783D01*
X108373212Y-70502078D01*
X108334507Y-70424668D01*
X108334507Y-70385964D01*
X108373212Y-70308554D01*
X108450621Y-70269849D01*
X108566736Y-70269849D01*
X108644145Y-70231145D01*
X108682850Y-70153735D01*
X108682850Y-70115030D01*
X108644145Y-70037621D01*
X108566736Y-69998916D01*
X108450621Y-69998916D01*
X108373212Y-70037621D01*
X107986164Y-70463373D02*
X107947460Y-70502078D01*
X107986164Y-70540783D01*
X108024869Y-70502078D01*
X107986164Y-70463373D01*
X107986164Y-70540783D01*
X107986164Y-70037621D02*
X107947460Y-70076326D01*
X107986164Y-70115030D01*
X108024869Y-70076326D01*
X107986164Y-70037621D01*
X107986164Y-70115030D01*
X106554088Y-69766688D02*
X106631498Y-69727983D01*
X106747612Y-69727983D01*
X106863726Y-69766688D01*
X106941136Y-69844097D01*
X106979840Y-69921507D01*
X107018545Y-70076326D01*
X107018545Y-70192440D01*
X106979840Y-70347259D01*
X106941136Y-70424668D01*
X106863726Y-70502078D01*
X106747612Y-70540783D01*
X106670202Y-70540783D01*
X106554088Y-70502078D01*
X106515383Y-70463373D01*
X106515383Y-70192440D01*
X106670202Y-70192440D01*
X106167040Y-70540783D02*
X106167040Y-69727983D01*
X105857402Y-69727983D01*
X105779993Y-69766688D01*
X105741288Y-69805392D01*
X105702583Y-69882802D01*
X105702583Y-69998916D01*
X105741288Y-70076326D01*
X105779993Y-70115030D01*
X105857402Y-70153735D01*
X106167040Y-70153735D01*
X104928488Y-70540783D02*
X105392945Y-70540783D01*
X105160717Y-70540783D02*
X105160717Y-69727983D01*
X105238126Y-69844097D01*
X105315536Y-69921507D01*
X105392945Y-69960211D01*
X104425326Y-69727983D02*
X104347917Y-69727983D01*
X104270507Y-69766688D01*
X104231802Y-69805392D01*
X104193098Y-69882802D01*
X104154393Y-70037621D01*
X104154393Y-70231145D01*
X104193098Y-70385964D01*
X104231802Y-70463373D01*
X104270507Y-70502078D01*
X104347917Y-70540783D01*
X104425326Y-70540783D01*
X104502736Y-70502078D01*
X104541440Y-70463373D01*
X104580145Y-70385964D01*
X104618850Y-70231145D01*
X104618850Y-70037621D01*
X104580145Y-69882802D01*
X104541440Y-69805392D01*
X104502736Y-69766688D01*
X104425326Y-69727983D01*
X103806050Y-70231145D02*
X103186774Y-70231145D01*
X102373974Y-70540783D02*
X102838431Y-70540783D01*
X102606202Y-70540783D02*
X102606202Y-69727983D01*
X102683612Y-69844097D01*
X102761021Y-69921507D01*
X102838431Y-69960211D01*
X102103040Y-69727983D02*
X101561174Y-69727983D01*
X101909517Y-70540783D01*
X111585707Y-71423638D02*
X111469593Y-71462343D01*
X111430888Y-71501048D01*
X111392183Y-71578457D01*
X111392183Y-71694572D01*
X111430888Y-71771981D01*
X111469593Y-71810686D01*
X111547002Y-71849391D01*
X111856640Y-71849391D01*
X111856640Y-71036591D01*
X111585707Y-71036591D01*
X111508298Y-71075296D01*
X111469593Y-71114000D01*
X111430888Y-71191410D01*
X111430888Y-71268819D01*
X111469593Y-71346229D01*
X111508298Y-71384934D01*
X111585707Y-71423638D01*
X111856640Y-71423638D01*
X110695498Y-71307524D02*
X110695498Y-71849391D01*
X111043840Y-71307524D02*
X111043840Y-71733276D01*
X111005136Y-71810686D01*
X110927726Y-71849391D01*
X110811612Y-71849391D01*
X110734202Y-71810686D01*
X110695498Y-71771981D01*
X110347155Y-71810686D02*
X110269745Y-71849391D01*
X110114926Y-71849391D01*
X110037517Y-71810686D01*
X109998812Y-71733276D01*
X109998812Y-71694572D01*
X110037517Y-71617162D01*
X110114926Y-71578457D01*
X110231040Y-71578457D01*
X110308450Y-71539753D01*
X110347155Y-71462343D01*
X110347155Y-71423638D01*
X110308450Y-71346229D01*
X110231040Y-71307524D01*
X110114926Y-71307524D01*
X110037517Y-71346229D01*
X108566736Y-71849391D02*
X108837669Y-71462343D01*
X109031193Y-71849391D02*
X109031193Y-71036591D01*
X108721555Y-71036591D01*
X108644145Y-71075296D01*
X108605440Y-71114000D01*
X108566736Y-71191410D01*
X108566736Y-71307524D01*
X108605440Y-71384934D01*
X108644145Y-71423638D01*
X108721555Y-71462343D01*
X109031193Y-71462343D01*
X107908755Y-71810686D02*
X107986164Y-71849391D01*
X108140983Y-71849391D01*
X108218393Y-71810686D01*
X108257098Y-71733276D01*
X108257098Y-71423638D01*
X108218393Y-71346229D01*
X108140983Y-71307524D01*
X107986164Y-71307524D01*
X107908755Y-71346229D01*
X107870050Y-71423638D01*
X107870050Y-71501048D01*
X108257098Y-71578457D01*
X107173364Y-71849391D02*
X107173364Y-71423638D01*
X107212069Y-71346229D01*
X107289479Y-71307524D01*
X107444298Y-71307524D01*
X107521707Y-71346229D01*
X107173364Y-71810686D02*
X107250774Y-71849391D01*
X107444298Y-71849391D01*
X107521707Y-71810686D01*
X107560412Y-71733276D01*
X107560412Y-71655867D01*
X107521707Y-71578457D01*
X107444298Y-71539753D01*
X107250774Y-71539753D01*
X107173364Y-71501048D01*
X106437974Y-71849391D02*
X106437974Y-71036591D01*
X106437974Y-71810686D02*
X106515383Y-71849391D01*
X106670202Y-71849391D01*
X106747612Y-71810686D01*
X106786317Y-71771981D01*
X106825021Y-71694572D01*
X106825021Y-71462343D01*
X106786317Y-71384934D01*
X106747612Y-71346229D01*
X106670202Y-71307524D01*
X106515383Y-71307524D01*
X106437974Y-71346229D01*
X106128336Y-71307524D02*
X105934812Y-71849391D01*
X105741288Y-71307524D02*
X105934812Y-71849391D01*
X106012221Y-72042915D01*
X106050926Y-72081619D01*
X106128336Y-72120324D01*
X105431650Y-71771981D02*
X105392945Y-71810686D01*
X105431650Y-71849391D01*
X105470355Y-71810686D01*
X105431650Y-71771981D01*
X105431650Y-71849391D01*
X105431650Y-71346229D02*
X105392945Y-71384934D01*
X105431650Y-71423638D01*
X105470355Y-71384934D01*
X105431650Y-71346229D01*
X105431650Y-71423638D01*
X103999574Y-71075296D02*
X104076983Y-71036591D01*
X104193098Y-71036591D01*
X104309212Y-71075296D01*
X104386621Y-71152705D01*
X104425326Y-71230115D01*
X104464031Y-71384934D01*
X104464031Y-71501048D01*
X104425326Y-71655867D01*
X104386621Y-71733276D01*
X104309212Y-71810686D01*
X104193098Y-71849391D01*
X104115688Y-71849391D01*
X103999574Y-71810686D01*
X103960869Y-71771981D01*
X103960869Y-71501048D01*
X104115688Y-71501048D01*
X103612526Y-71849391D02*
X103612526Y-71036591D01*
X103302888Y-71036591D01*
X103225479Y-71075296D01*
X103186774Y-71114000D01*
X103148069Y-71191410D01*
X103148069Y-71307524D01*
X103186774Y-71384934D01*
X103225479Y-71423638D01*
X103302888Y-71462343D01*
X103612526Y-71462343D01*
X102373974Y-71849391D02*
X102838431Y-71849391D01*
X102606202Y-71849391D02*
X102606202Y-71036591D01*
X102683612Y-71152705D01*
X102761021Y-71230115D01*
X102838431Y-71268819D01*
X101909517Y-71384934D02*
X101986926Y-71346229D01*
X102025631Y-71307524D01*
X102064336Y-71230115D01*
X102064336Y-71191410D01*
X102025631Y-71114000D01*
X101986926Y-71075296D01*
X101909517Y-71036591D01*
X101754698Y-71036591D01*
X101677288Y-71075296D01*
X101638583Y-71114000D01*
X101599879Y-71191410D01*
X101599879Y-71230115D01*
X101638583Y-71307524D01*
X101677288Y-71346229D01*
X101754698Y-71384934D01*
X101909517Y-71384934D01*
X101986926Y-71423638D01*
X102025631Y-71462343D01*
X102064336Y-71539753D01*
X102064336Y-71694572D01*
X102025631Y-71771981D01*
X101986926Y-71810686D01*
X101909517Y-71849391D01*
X101754698Y-71849391D01*
X101677288Y-71810686D01*
X101638583Y-71771981D01*
X101599879Y-71694572D01*
X101599879Y-71539753D01*
X101638583Y-71462343D01*
X101677288Y-71423638D01*
X101754698Y-71384934D01*
X111353479Y-72925770D02*
X110966431Y-72925770D01*
X111430888Y-73157999D02*
X111159955Y-72345199D01*
X110889021Y-73157999D01*
X110269745Y-73157999D02*
X110269745Y-72345199D01*
X110269745Y-73119294D02*
X110347155Y-73157999D01*
X110501974Y-73157999D01*
X110579383Y-73119294D01*
X110618088Y-73080589D01*
X110656793Y-73003180D01*
X110656793Y-72770951D01*
X110618088Y-72693542D01*
X110579383Y-72654837D01*
X110501974Y-72616132D01*
X110347155Y-72616132D01*
X110269745Y-72654837D01*
X109534355Y-73157999D02*
X109534355Y-72345199D01*
X109534355Y-73119294D02*
X109611764Y-73157999D01*
X109766583Y-73157999D01*
X109843993Y-73119294D01*
X109882698Y-73080589D01*
X109921402Y-73003180D01*
X109921402Y-72770951D01*
X109882698Y-72693542D01*
X109843993Y-72654837D01*
X109766583Y-72616132D01*
X109611764Y-72616132D01*
X109534355Y-72654837D01*
X109147307Y-73157999D02*
X109147307Y-72616132D01*
X109147307Y-72770951D02*
X109108602Y-72693542D01*
X109069898Y-72654837D01*
X108992488Y-72616132D01*
X108915079Y-72616132D01*
X107753936Y-72732246D02*
X107637821Y-72770951D01*
X107599117Y-72809656D01*
X107560412Y-72887065D01*
X107560412Y-73003180D01*
X107599117Y-73080589D01*
X107637821Y-73119294D01*
X107715231Y-73157999D01*
X108024869Y-73157999D01*
X108024869Y-72345199D01*
X107753936Y-72345199D01*
X107676526Y-72383904D01*
X107637821Y-72422608D01*
X107599117Y-72500018D01*
X107599117Y-72577427D01*
X107637821Y-72654837D01*
X107676526Y-72693542D01*
X107753936Y-72732246D01*
X108024869Y-72732246D01*
X107289479Y-72616132D02*
X107095955Y-73157999D01*
X106902431Y-72616132D02*
X107095955Y-73157999D01*
X107173364Y-73351523D01*
X107212069Y-73390227D01*
X107289479Y-73428932D01*
X106708907Y-72616132D02*
X106399269Y-72616132D01*
X106592793Y-72345199D02*
X106592793Y-73041884D01*
X106554088Y-73119294D01*
X106476679Y-73157999D01*
X106399269Y-73157999D01*
X105818698Y-73119294D02*
X105896107Y-73157999D01*
X106050926Y-73157999D01*
X106128336Y-73119294D01*
X106167040Y-73041884D01*
X106167040Y-72732246D01*
X106128336Y-72654837D01*
X106050926Y-72616132D01*
X105896107Y-72616132D01*
X105818698Y-72654837D01*
X105779993Y-72732246D01*
X105779993Y-72809656D01*
X106167040Y-72887065D01*
X105431650Y-73080589D02*
X105392945Y-73119294D01*
X105431650Y-73157999D01*
X105470355Y-73119294D01*
X105431650Y-73080589D01*
X105431650Y-73157999D01*
X105431650Y-72654837D02*
X105392945Y-72693542D01*
X105431650Y-72732246D01*
X105470355Y-72693542D01*
X105431650Y-72654837D01*
X105431650Y-72732246D01*
X103999574Y-72383904D02*
X104076983Y-72345199D01*
X104193098Y-72345199D01*
X104309212Y-72383904D01*
X104386621Y-72461313D01*
X104425326Y-72538723D01*
X104464031Y-72693542D01*
X104464031Y-72809656D01*
X104425326Y-72964475D01*
X104386621Y-73041884D01*
X104309212Y-73119294D01*
X104193098Y-73157999D01*
X104115688Y-73157999D01*
X103999574Y-73119294D01*
X103960869Y-73080589D01*
X103960869Y-72809656D01*
X104115688Y-72809656D01*
X103612526Y-73157999D02*
X103612526Y-72345199D01*
X103302888Y-72345199D01*
X103225479Y-72383904D01*
X103186774Y-72422608D01*
X103148069Y-72500018D01*
X103148069Y-72616132D01*
X103186774Y-72693542D01*
X103225479Y-72732246D01*
X103302888Y-72770951D01*
X103612526Y-72770951D01*
X102373974Y-73157999D02*
X102838431Y-73157999D01*
X102606202Y-73157999D02*
X102606202Y-72345199D01*
X102683612Y-72461313D01*
X102761021Y-72538723D01*
X102838431Y-72577427D01*
X101986926Y-73157999D02*
X101832107Y-73157999D01*
X101754698Y-73119294D01*
X101715993Y-73080589D01*
X101638583Y-72964475D01*
X101599879Y-72809656D01*
X101599879Y-72500018D01*
X101638583Y-72422608D01*
X101677288Y-72383904D01*
X101754698Y-72345199D01*
X101909517Y-72345199D01*
X101986926Y-72383904D01*
X102025631Y-72422608D01*
X102064336Y-72500018D01*
X102064336Y-72693542D01*
X102025631Y-72770951D01*
X101986926Y-72809656D01*
X101909517Y-72848361D01*
X101754698Y-72848361D01*
X101677288Y-72809656D01*
X101638583Y-72770951D01*
X101599879Y-72693542D01*
X111237364Y-74466607D02*
X111237364Y-73653807D01*
X110889021Y-74427902D02*
X110772907Y-74466607D01*
X110579383Y-74466607D01*
X110501974Y-74427902D01*
X110463269Y-74389197D01*
X110424564Y-74311788D01*
X110424564Y-74234378D01*
X110463269Y-74156969D01*
X110501974Y-74118264D01*
X110579383Y-74079559D01*
X110734202Y-74040854D01*
X110811612Y-74002150D01*
X110850317Y-73963445D01*
X110889021Y-73886035D01*
X110889021Y-73808626D01*
X110850317Y-73731216D01*
X110811612Y-73692512D01*
X110734202Y-73653807D01*
X110540679Y-73653807D01*
X110424564Y-73692512D01*
X110114926Y-74234378D02*
X109727879Y-74234378D01*
X110192336Y-74466607D02*
X109921402Y-73653807D01*
X109650469Y-74466607D01*
X108295802Y-74389197D02*
X108334507Y-74427902D01*
X108450621Y-74466607D01*
X108528031Y-74466607D01*
X108644145Y-74427902D01*
X108721555Y-74350492D01*
X108760260Y-74273083D01*
X108798964Y-74118264D01*
X108798964Y-74002150D01*
X108760260Y-73847331D01*
X108721555Y-73769921D01*
X108644145Y-73692512D01*
X108528031Y-73653807D01*
X108450621Y-73653807D01*
X108334507Y-73692512D01*
X108295802Y-73731216D01*
X107831345Y-74466607D02*
X107908755Y-74427902D01*
X107947460Y-74350492D01*
X107947460Y-73653807D01*
X107405593Y-74466607D02*
X107483002Y-74427902D01*
X107521707Y-74389197D01*
X107560412Y-74311788D01*
X107560412Y-74079559D01*
X107521707Y-74002150D01*
X107483002Y-73963445D01*
X107405593Y-73924740D01*
X107289479Y-73924740D01*
X107212069Y-73963445D01*
X107173364Y-74002150D01*
X107134660Y-74079559D01*
X107134660Y-74311788D01*
X107173364Y-74389197D01*
X107212069Y-74427902D01*
X107289479Y-74466607D01*
X107405593Y-74466607D01*
X106437974Y-74427902D02*
X106515383Y-74466607D01*
X106670202Y-74466607D01*
X106747612Y-74427902D01*
X106786317Y-74389197D01*
X106825021Y-74311788D01*
X106825021Y-74079559D01*
X106786317Y-74002150D01*
X106747612Y-73963445D01*
X106670202Y-73924740D01*
X106515383Y-73924740D01*
X106437974Y-73963445D01*
X106089631Y-74466607D02*
X106089631Y-73653807D01*
X106012221Y-74156969D02*
X105779993Y-74466607D01*
X105779993Y-73924740D02*
X106089631Y-74234378D01*
X105431650Y-74389197D02*
X105392945Y-74427902D01*
X105431650Y-74466607D01*
X105470355Y-74427902D01*
X105431650Y-74389197D01*
X105431650Y-74466607D01*
X105431650Y-73963445D02*
X105392945Y-74002150D01*
X105431650Y-74040854D01*
X105470355Y-74002150D01*
X105431650Y-73963445D01*
X105431650Y-74040854D01*
X103999574Y-73692512D02*
X104076983Y-73653807D01*
X104193098Y-73653807D01*
X104309212Y-73692512D01*
X104386621Y-73769921D01*
X104425326Y-73847331D01*
X104464031Y-74002150D01*
X104464031Y-74118264D01*
X104425326Y-74273083D01*
X104386621Y-74350492D01*
X104309212Y-74427902D01*
X104193098Y-74466607D01*
X104115688Y-74466607D01*
X103999574Y-74427902D01*
X103960869Y-74389197D01*
X103960869Y-74118264D01*
X104115688Y-74118264D01*
X103612526Y-74466607D02*
X103612526Y-73653807D01*
X103302888Y-73653807D01*
X103225479Y-73692512D01*
X103186774Y-73731216D01*
X103148069Y-73808626D01*
X103148069Y-73924740D01*
X103186774Y-74002150D01*
X103225479Y-74040854D01*
X103302888Y-74079559D01*
X103612526Y-74079559D01*
X102838431Y-73731216D02*
X102799726Y-73692512D01*
X102722317Y-73653807D01*
X102528793Y-73653807D01*
X102451383Y-73692512D01*
X102412679Y-73731216D01*
X102373974Y-73808626D01*
X102373974Y-73886035D01*
X102412679Y-74002150D01*
X102877136Y-74466607D01*
X102373974Y-74466607D01*
X101870812Y-73653807D02*
X101793402Y-73653807D01*
X101715993Y-73692512D01*
X101677288Y-73731216D01*
X101638583Y-73808626D01*
X101599879Y-73963445D01*
X101599879Y-74156969D01*
X101638583Y-74311788D01*
X101677288Y-74389197D01*
X101715993Y-74427902D01*
X101793402Y-74466607D01*
X101870812Y-74466607D01*
X101948221Y-74427902D01*
X101986926Y-74389197D01*
X102025631Y-74311788D01*
X102064336Y-74156969D01*
X102064336Y-73963445D01*
X102025631Y-73808626D01*
X101986926Y-73731216D01*
X101948221Y-73692512D01*
X101870812Y-73653807D01*
X112127574Y-75775215D02*
X112398507Y-75388167D01*
X112592031Y-75775215D02*
X112592031Y-74962415D01*
X112282393Y-74962415D01*
X112204983Y-75001120D01*
X112166279Y-75039824D01*
X112127574Y-75117234D01*
X112127574Y-75233348D01*
X112166279Y-75310758D01*
X112204983Y-75349462D01*
X112282393Y-75388167D01*
X112592031Y-75388167D01*
X111469593Y-75736510D02*
X111547002Y-75775215D01*
X111701821Y-75775215D01*
X111779231Y-75736510D01*
X111817936Y-75659100D01*
X111817936Y-75349462D01*
X111779231Y-75272053D01*
X111701821Y-75233348D01*
X111547002Y-75233348D01*
X111469593Y-75272053D01*
X111430888Y-75349462D01*
X111430888Y-75426872D01*
X111817936Y-75504281D01*
X111082545Y-75775215D02*
X111082545Y-75233348D01*
X111082545Y-75310758D02*
X111043840Y-75272053D01*
X110966431Y-75233348D01*
X110850317Y-75233348D01*
X110772907Y-75272053D01*
X110734202Y-75349462D01*
X110734202Y-75775215D01*
X110734202Y-75349462D02*
X110695498Y-75272053D01*
X110618088Y-75233348D01*
X110501974Y-75233348D01*
X110424564Y-75272053D01*
X110385860Y-75349462D01*
X110385860Y-75775215D01*
X109882698Y-75775215D02*
X109960107Y-75736510D01*
X109998812Y-75697805D01*
X110037517Y-75620396D01*
X110037517Y-75388167D01*
X109998812Y-75310758D01*
X109960107Y-75272053D01*
X109882698Y-75233348D01*
X109766583Y-75233348D01*
X109689174Y-75272053D01*
X109650469Y-75310758D01*
X109611764Y-75388167D01*
X109611764Y-75620396D01*
X109650469Y-75697805D01*
X109689174Y-75736510D01*
X109766583Y-75775215D01*
X109882698Y-75775215D01*
X109379536Y-75233348D02*
X109069898Y-75233348D01*
X109263421Y-74962415D02*
X109263421Y-75659100D01*
X109224717Y-75736510D01*
X109147307Y-75775215D01*
X109069898Y-75775215D01*
X108489326Y-75736510D02*
X108566736Y-75775215D01*
X108721555Y-75775215D01*
X108798964Y-75736510D01*
X108837669Y-75659100D01*
X108837669Y-75349462D01*
X108798964Y-75272053D01*
X108721555Y-75233348D01*
X108566736Y-75233348D01*
X108489326Y-75272053D01*
X108450621Y-75349462D01*
X108450621Y-75426872D01*
X108837669Y-75504281D01*
X107483002Y-75775215D02*
X107483002Y-74962415D01*
X106631498Y-75775215D02*
X106902431Y-75388167D01*
X107095955Y-75775215D02*
X107095955Y-74962415D01*
X106786317Y-74962415D01*
X106708907Y-75001120D01*
X106670202Y-75039824D01*
X106631498Y-75117234D01*
X106631498Y-75233348D01*
X106670202Y-75310758D01*
X106708907Y-75349462D01*
X106786317Y-75388167D01*
X107095955Y-75388167D01*
X105741288Y-75852624D02*
X105818698Y-75813920D01*
X105896107Y-75736510D01*
X106012221Y-75620396D01*
X106089631Y-75581691D01*
X106167040Y-75581691D01*
X106128336Y-75775215D02*
X106205745Y-75736510D01*
X106283155Y-75659100D01*
X106321860Y-75504281D01*
X106321860Y-75233348D01*
X106283155Y-75078529D01*
X106205745Y-75001120D01*
X106128336Y-74962415D01*
X105973517Y-74962415D01*
X105896107Y-75001120D01*
X105818698Y-75078529D01*
X105779993Y-75233348D01*
X105779993Y-75504281D01*
X105818698Y-75659100D01*
X105896107Y-75736510D01*
X105973517Y-75775215D01*
X106128336Y-75775215D01*
X105431650Y-75697805D02*
X105392945Y-75736510D01*
X105431650Y-75775215D01*
X105470355Y-75736510D01*
X105431650Y-75697805D01*
X105431650Y-75775215D01*
X105431650Y-75272053D02*
X105392945Y-75310758D01*
X105431650Y-75349462D01*
X105470355Y-75310758D01*
X105431650Y-75272053D01*
X105431650Y-75349462D01*
X103999574Y-75001120D02*
X104076983Y-74962415D01*
X104193098Y-74962415D01*
X104309212Y-75001120D01*
X104386621Y-75078529D01*
X104425326Y-75155939D01*
X104464031Y-75310758D01*
X104464031Y-75426872D01*
X104425326Y-75581691D01*
X104386621Y-75659100D01*
X104309212Y-75736510D01*
X104193098Y-75775215D01*
X104115688Y-75775215D01*
X103999574Y-75736510D01*
X103960869Y-75697805D01*
X103960869Y-75426872D01*
X104115688Y-75426872D01*
X103612526Y-75775215D02*
X103612526Y-74962415D01*
X103302888Y-74962415D01*
X103225479Y-75001120D01*
X103186774Y-75039824D01*
X103148069Y-75117234D01*
X103148069Y-75233348D01*
X103186774Y-75310758D01*
X103225479Y-75349462D01*
X103302888Y-75388167D01*
X103612526Y-75388167D01*
X102838431Y-75039824D02*
X102799726Y-75001120D01*
X102722317Y-74962415D01*
X102528793Y-74962415D01*
X102451383Y-75001120D01*
X102412679Y-75039824D01*
X102373974Y-75117234D01*
X102373974Y-75194643D01*
X102412679Y-75310758D01*
X102877136Y-75775215D01*
X102373974Y-75775215D01*
X101599879Y-75775215D02*
X102064336Y-75775215D01*
X101832107Y-75775215D02*
X101832107Y-74962415D01*
X101909517Y-75078529D01*
X101986926Y-75155939D01*
X102064336Y-75194643D01*
X108295802Y-77083823D02*
X108566736Y-76696775D01*
X108760260Y-77083823D02*
X108760260Y-76271023D01*
X108450621Y-76271023D01*
X108373212Y-76309728D01*
X108334507Y-76348432D01*
X108295802Y-76425842D01*
X108295802Y-76541956D01*
X108334507Y-76619366D01*
X108373212Y-76658070D01*
X108450621Y-76696775D01*
X108760260Y-76696775D01*
X107637821Y-77045118D02*
X107715231Y-77083823D01*
X107870050Y-77083823D01*
X107947460Y-77045118D01*
X107986164Y-76967708D01*
X107986164Y-76658070D01*
X107947460Y-76580661D01*
X107870050Y-76541956D01*
X107715231Y-76541956D01*
X107637821Y-76580661D01*
X107599117Y-76658070D01*
X107599117Y-76735480D01*
X107986164Y-76812889D01*
X107289479Y-77045118D02*
X107212069Y-77083823D01*
X107057250Y-77083823D01*
X106979840Y-77045118D01*
X106941136Y-76967708D01*
X106941136Y-76929004D01*
X106979840Y-76851594D01*
X107057250Y-76812889D01*
X107173364Y-76812889D01*
X107250774Y-76774185D01*
X107289479Y-76696775D01*
X107289479Y-76658070D01*
X107250774Y-76580661D01*
X107173364Y-76541956D01*
X107057250Y-76541956D01*
X106979840Y-76580661D01*
X106283155Y-77045118D02*
X106360564Y-77083823D01*
X106515383Y-77083823D01*
X106592793Y-77045118D01*
X106631498Y-76967708D01*
X106631498Y-76658070D01*
X106592793Y-76580661D01*
X106515383Y-76541956D01*
X106360564Y-76541956D01*
X106283155Y-76580661D01*
X106244450Y-76658070D01*
X106244450Y-76735480D01*
X106631498Y-76812889D01*
X106012221Y-76541956D02*
X105702583Y-76541956D01*
X105896107Y-76271023D02*
X105896107Y-76967708D01*
X105857402Y-77045118D01*
X105779993Y-77083823D01*
X105702583Y-77083823D01*
X105431650Y-77006413D02*
X105392945Y-77045118D01*
X105431650Y-77083823D01*
X105470355Y-77045118D01*
X105431650Y-77006413D01*
X105431650Y-77083823D01*
X105431650Y-76580661D02*
X105392945Y-76619366D01*
X105431650Y-76658070D01*
X105470355Y-76619366D01*
X105431650Y-76580661D01*
X105431650Y-76658070D01*
X103999574Y-76309728D02*
X104076983Y-76271023D01*
X104193098Y-76271023D01*
X104309212Y-76309728D01*
X104386621Y-76387137D01*
X104425326Y-76464547D01*
X104464031Y-76619366D01*
X104464031Y-76735480D01*
X104425326Y-76890299D01*
X104386621Y-76967708D01*
X104309212Y-77045118D01*
X104193098Y-77083823D01*
X104115688Y-77083823D01*
X103999574Y-77045118D01*
X103960869Y-77006413D01*
X103960869Y-76735480D01*
X104115688Y-76735480D01*
X103612526Y-77083823D02*
X103612526Y-76271023D01*
X103302888Y-76271023D01*
X103225479Y-76309728D01*
X103186774Y-76348432D01*
X103148069Y-76425842D01*
X103148069Y-76541956D01*
X103186774Y-76619366D01*
X103225479Y-76658070D01*
X103302888Y-76696775D01*
X103612526Y-76696775D01*
X102838431Y-76348432D02*
X102799726Y-76309728D01*
X102722317Y-76271023D01*
X102528793Y-76271023D01*
X102451383Y-76309728D01*
X102412679Y-76348432D01*
X102373974Y-76425842D01*
X102373974Y-76503251D01*
X102412679Y-76619366D01*
X102877136Y-77083823D01*
X102373974Y-77083823D01*
X102064336Y-76348432D02*
X102025631Y-76309728D01*
X101948221Y-76271023D01*
X101754698Y-76271023D01*
X101677288Y-76309728D01*
X101638583Y-76348432D01*
X101599879Y-76425842D01*
X101599879Y-76503251D01*
X101638583Y-76619366D01*
X102103040Y-77083823D01*
X101599879Y-77083823D01*
X113482240Y-78082793D02*
X112862964Y-78082793D01*
X112050164Y-78392431D02*
X112514621Y-78392431D01*
X112282393Y-78392431D02*
X112282393Y-77579631D01*
X112359802Y-77695745D01*
X112437212Y-77773155D01*
X112514621Y-77811859D01*
X111740526Y-77657040D02*
X111701821Y-77618336D01*
X111624412Y-77579631D01*
X111430888Y-77579631D01*
X111353479Y-77618336D01*
X111314774Y-77657040D01*
X111276069Y-77734450D01*
X111276069Y-77811859D01*
X111314774Y-77927974D01*
X111779231Y-78392431D01*
X111276069Y-78392431D01*
X111043840Y-77579631D02*
X110772907Y-78392431D01*
X110501974Y-77579631D01*
X110231040Y-78315021D02*
X110192336Y-78353726D01*
X110231040Y-78392431D01*
X110269745Y-78353726D01*
X110231040Y-78315021D01*
X110231040Y-78392431D01*
X110231040Y-77889269D02*
X110192336Y-77927974D01*
X110231040Y-77966678D01*
X110269745Y-77927974D01*
X110231040Y-77889269D01*
X110231040Y-77966678D01*
X109263421Y-78160202D02*
X108876374Y-78160202D01*
X109340831Y-78392431D02*
X109069898Y-77579631D01*
X108798964Y-78392431D01*
X108528031Y-78392431D02*
X108528031Y-77579631D01*
X108334507Y-77579631D01*
X108218393Y-77618336D01*
X108140983Y-77695745D01*
X108102279Y-77773155D01*
X108063574Y-77927974D01*
X108063574Y-78044088D01*
X108102279Y-78198907D01*
X108140983Y-78276316D01*
X108218393Y-78353726D01*
X108334507Y-78392431D01*
X108528031Y-78392431D01*
X107250774Y-78315021D02*
X107289479Y-78353726D01*
X107405593Y-78392431D01*
X107483002Y-78392431D01*
X107599117Y-78353726D01*
X107676526Y-78276316D01*
X107715231Y-78198907D01*
X107753936Y-78044088D01*
X107753936Y-77927974D01*
X107715231Y-77773155D01*
X107676526Y-77695745D01*
X107599117Y-77618336D01*
X107483002Y-77579631D01*
X107405593Y-77579631D01*
X107289479Y-77618336D01*
X107250774Y-77657040D01*
X106747612Y-77579631D02*
X106670202Y-77579631D01*
X106592793Y-77618336D01*
X106554088Y-77657040D01*
X106515383Y-77734450D01*
X106476679Y-77889269D01*
X106476679Y-78082793D01*
X106515383Y-78237612D01*
X106554088Y-78315021D01*
X106592793Y-78353726D01*
X106670202Y-78392431D01*
X106747612Y-78392431D01*
X106825021Y-78353726D01*
X106863726Y-78315021D01*
X106902431Y-78237612D01*
X106941136Y-78082793D01*
X106941136Y-77889269D01*
X106902431Y-77734450D01*
X106863726Y-77657040D01*
X106825021Y-77618336D01*
X106747612Y-77579631D01*
X105276831Y-78702069D02*
X105315536Y-78663364D01*
X105392945Y-78547250D01*
X105431650Y-78469840D01*
X105470355Y-78353726D01*
X105509060Y-78160202D01*
X105509060Y-78005383D01*
X105470355Y-77811859D01*
X105431650Y-77695745D01*
X105392945Y-77618336D01*
X105315536Y-77502221D01*
X105276831Y-77463516D01*
X104541440Y-77618336D02*
X104618850Y-77579631D01*
X104734964Y-77579631D01*
X104851079Y-77618336D01*
X104928488Y-77695745D01*
X104967193Y-77773155D01*
X105005898Y-77927974D01*
X105005898Y-78044088D01*
X104967193Y-78198907D01*
X104928488Y-78276316D01*
X104851079Y-78353726D01*
X104734964Y-78392431D01*
X104657555Y-78392431D01*
X104541440Y-78353726D01*
X104502736Y-78315021D01*
X104502736Y-78044088D01*
X104657555Y-78044088D01*
X104154393Y-78392431D02*
X104154393Y-77579631D01*
X103844755Y-77579631D01*
X103767345Y-77618336D01*
X103728640Y-77657040D01*
X103689936Y-77734450D01*
X103689936Y-77850564D01*
X103728640Y-77927974D01*
X103767345Y-77966678D01*
X103844755Y-78005383D01*
X104154393Y-78005383D01*
X103380298Y-77657040D02*
X103341593Y-77618336D01*
X103264183Y-77579631D01*
X103070660Y-77579631D01*
X102993250Y-77618336D01*
X102954545Y-77657040D01*
X102915840Y-77734450D01*
X102915840Y-77811859D01*
X102954545Y-77927974D01*
X103419002Y-78392431D01*
X102915840Y-78392431D01*
X102219155Y-77579631D02*
X102373974Y-77579631D01*
X102451383Y-77618336D01*
X102490088Y-77657040D01*
X102567498Y-77773155D01*
X102606202Y-77927974D01*
X102606202Y-78237612D01*
X102567498Y-78315021D01*
X102528793Y-78353726D01*
X102451383Y-78392431D01*
X102296564Y-78392431D01*
X102219155Y-78353726D01*
X102180450Y-78315021D01*
X102141745Y-78237612D01*
X102141745Y-78044088D01*
X102180450Y-77966678D01*
X102219155Y-77927974D01*
X102296564Y-77889269D01*
X102451383Y-77889269D01*
X102528793Y-77927974D01*
X102567498Y-77966678D01*
X102606202Y-78044088D01*
X101870812Y-78702069D02*
X101832107Y-78663364D01*
X101754698Y-78547250D01*
X101715993Y-78469840D01*
X101677288Y-78353726D01*
X101638583Y-78160202D01*
X101638583Y-78005383D01*
X101677288Y-77811859D01*
X101715993Y-77695745D01*
X101754698Y-77618336D01*
X101832107Y-77502221D01*
X101870812Y-77463516D01*
X111314774Y-78888239D02*
X111701821Y-78888239D01*
X111740526Y-79275286D01*
X111701821Y-79236582D01*
X111624412Y-79197877D01*
X111430888Y-79197877D01*
X111353479Y-79236582D01*
X111314774Y-79275286D01*
X111276069Y-79352696D01*
X111276069Y-79546220D01*
X111314774Y-79623629D01*
X111353479Y-79662334D01*
X111430888Y-79701039D01*
X111624412Y-79701039D01*
X111701821Y-79662334D01*
X111740526Y-79623629D01*
X111043840Y-78888239D02*
X110772907Y-79701039D01*
X110501974Y-78888239D01*
X110231040Y-79623629D02*
X110192336Y-79662334D01*
X110231040Y-79701039D01*
X110269745Y-79662334D01*
X110231040Y-79623629D01*
X110231040Y-79701039D01*
X110231040Y-79197877D02*
X110192336Y-79236582D01*
X110231040Y-79275286D01*
X110269745Y-79236582D01*
X110231040Y-79197877D01*
X110231040Y-79275286D01*
X109263421Y-79468810D02*
X108876374Y-79468810D01*
X109340831Y-79701039D02*
X109069898Y-78888239D01*
X108798964Y-79701039D01*
X108528031Y-79701039D02*
X108528031Y-78888239D01*
X108334507Y-78888239D01*
X108218393Y-78926944D01*
X108140983Y-79004353D01*
X108102279Y-79081763D01*
X108063574Y-79236582D01*
X108063574Y-79352696D01*
X108102279Y-79507515D01*
X108140983Y-79584924D01*
X108218393Y-79662334D01*
X108334507Y-79701039D01*
X108528031Y-79701039D01*
X107250774Y-79623629D02*
X107289479Y-79662334D01*
X107405593Y-79701039D01*
X107483002Y-79701039D01*
X107599117Y-79662334D01*
X107676526Y-79584924D01*
X107715231Y-79507515D01*
X107753936Y-79352696D01*
X107753936Y-79236582D01*
X107715231Y-79081763D01*
X107676526Y-79004353D01*
X107599117Y-78926944D01*
X107483002Y-78888239D01*
X107405593Y-78888239D01*
X107289479Y-78926944D01*
X107250774Y-78965648D01*
X106476679Y-79701039D02*
X106941136Y-79701039D01*
X106708907Y-79701039D02*
X106708907Y-78888239D01*
X106786317Y-79004353D01*
X106863726Y-79081763D01*
X106941136Y-79120467D01*
X105276831Y-80010677D02*
X105315536Y-79971972D01*
X105392945Y-79855858D01*
X105431650Y-79778448D01*
X105470355Y-79662334D01*
X105509060Y-79468810D01*
X105509060Y-79313991D01*
X105470355Y-79120467D01*
X105431650Y-79004353D01*
X105392945Y-78926944D01*
X105315536Y-78810829D01*
X105276831Y-78772124D01*
X104541440Y-78926944D02*
X104618850Y-78888239D01*
X104734964Y-78888239D01*
X104851079Y-78926944D01*
X104928488Y-79004353D01*
X104967193Y-79081763D01*
X105005898Y-79236582D01*
X105005898Y-79352696D01*
X104967193Y-79507515D01*
X104928488Y-79584924D01*
X104851079Y-79662334D01*
X104734964Y-79701039D01*
X104657555Y-79701039D01*
X104541440Y-79662334D01*
X104502736Y-79623629D01*
X104502736Y-79352696D01*
X104657555Y-79352696D01*
X104154393Y-79701039D02*
X104154393Y-78888239D01*
X103844755Y-78888239D01*
X103767345Y-78926944D01*
X103728640Y-78965648D01*
X103689936Y-79043058D01*
X103689936Y-79159172D01*
X103728640Y-79236582D01*
X103767345Y-79275286D01*
X103844755Y-79313991D01*
X104154393Y-79313991D01*
X103380298Y-78965648D02*
X103341593Y-78926944D01*
X103264183Y-78888239D01*
X103070660Y-78888239D01*
X102993250Y-78926944D01*
X102954545Y-78965648D01*
X102915840Y-79043058D01*
X102915840Y-79120467D01*
X102954545Y-79236582D01*
X103419002Y-79701039D01*
X102915840Y-79701039D01*
X102644907Y-78888239D02*
X102103040Y-78888239D01*
X102451383Y-79701039D01*
X101870812Y-80010677D02*
X101832107Y-79971972D01*
X101754698Y-79855858D01*
X101715993Y-79778448D01*
X101677288Y-79662334D01*
X101638583Y-79468810D01*
X101638583Y-79313991D01*
X101677288Y-79120467D01*
X101715993Y-79004353D01*
X101754698Y-78926944D01*
X101832107Y-78810829D01*
X101870812Y-78772124D01*
X112050164Y-81009647D02*
X112514621Y-81009647D01*
X112282393Y-81009647D02*
X112282393Y-80196847D01*
X112359802Y-80312961D01*
X112437212Y-80390371D01*
X112514621Y-80429075D01*
X111740526Y-80274256D02*
X111701821Y-80235552D01*
X111624412Y-80196847D01*
X111430888Y-80196847D01*
X111353479Y-80235552D01*
X111314774Y-80274256D01*
X111276069Y-80351666D01*
X111276069Y-80429075D01*
X111314774Y-80545190D01*
X111779231Y-81009647D01*
X111276069Y-81009647D01*
X111043840Y-80196847D02*
X110772907Y-81009647D01*
X110501974Y-80196847D01*
X110231040Y-80932237D02*
X110192336Y-80970942D01*
X110231040Y-81009647D01*
X110269745Y-80970942D01*
X110231040Y-80932237D01*
X110231040Y-81009647D01*
X110231040Y-80506485D02*
X110192336Y-80545190D01*
X110231040Y-80583894D01*
X110269745Y-80545190D01*
X110231040Y-80506485D01*
X110231040Y-80583894D01*
X109263421Y-80777418D02*
X108876374Y-80777418D01*
X109340831Y-81009647D02*
X109069898Y-80196847D01*
X108798964Y-81009647D01*
X108528031Y-81009647D02*
X108528031Y-80196847D01*
X108334507Y-80196847D01*
X108218393Y-80235552D01*
X108140983Y-80312961D01*
X108102279Y-80390371D01*
X108063574Y-80545190D01*
X108063574Y-80661304D01*
X108102279Y-80816123D01*
X108140983Y-80893532D01*
X108218393Y-80970942D01*
X108334507Y-81009647D01*
X108528031Y-81009647D01*
X107250774Y-80932237D02*
X107289479Y-80970942D01*
X107405593Y-81009647D01*
X107483002Y-81009647D01*
X107599117Y-80970942D01*
X107676526Y-80893532D01*
X107715231Y-80816123D01*
X107753936Y-80661304D01*
X107753936Y-80545190D01*
X107715231Y-80390371D01*
X107676526Y-80312961D01*
X107599117Y-80235552D01*
X107483002Y-80196847D01*
X107405593Y-80196847D01*
X107289479Y-80235552D01*
X107250774Y-80274256D01*
X106941136Y-80274256D02*
X106902431Y-80235552D01*
X106825021Y-80196847D01*
X106631498Y-80196847D01*
X106554088Y-80235552D01*
X106515383Y-80274256D01*
X106476679Y-80351666D01*
X106476679Y-80429075D01*
X106515383Y-80545190D01*
X106979840Y-81009647D01*
X106476679Y-81009647D01*
X105276831Y-81319285D02*
X105315536Y-81280580D01*
X105392945Y-81164466D01*
X105431650Y-81087056D01*
X105470355Y-80970942D01*
X105509060Y-80777418D01*
X105509060Y-80622599D01*
X105470355Y-80429075D01*
X105431650Y-80312961D01*
X105392945Y-80235552D01*
X105315536Y-80119437D01*
X105276831Y-80080732D01*
X104541440Y-80235552D02*
X104618850Y-80196847D01*
X104734964Y-80196847D01*
X104851079Y-80235552D01*
X104928488Y-80312961D01*
X104967193Y-80390371D01*
X105005898Y-80545190D01*
X105005898Y-80661304D01*
X104967193Y-80816123D01*
X104928488Y-80893532D01*
X104851079Y-80970942D01*
X104734964Y-81009647D01*
X104657555Y-81009647D01*
X104541440Y-80970942D01*
X104502736Y-80932237D01*
X104502736Y-80661304D01*
X104657555Y-80661304D01*
X104154393Y-81009647D02*
X104154393Y-80196847D01*
X103844755Y-80196847D01*
X103767345Y-80235552D01*
X103728640Y-80274256D01*
X103689936Y-80351666D01*
X103689936Y-80467780D01*
X103728640Y-80545190D01*
X103767345Y-80583894D01*
X103844755Y-80622599D01*
X104154393Y-80622599D01*
X103380298Y-80274256D02*
X103341593Y-80235552D01*
X103264183Y-80196847D01*
X103070660Y-80196847D01*
X102993250Y-80235552D01*
X102954545Y-80274256D01*
X102915840Y-80351666D01*
X102915840Y-80429075D01*
X102954545Y-80545190D01*
X103419002Y-81009647D01*
X102915840Y-81009647D01*
X102451383Y-80545190D02*
X102528793Y-80506485D01*
X102567498Y-80467780D01*
X102606202Y-80390371D01*
X102606202Y-80351666D01*
X102567498Y-80274256D01*
X102528793Y-80235552D01*
X102451383Y-80196847D01*
X102296564Y-80196847D01*
X102219155Y-80235552D01*
X102180450Y-80274256D01*
X102141745Y-80351666D01*
X102141745Y-80390371D01*
X102180450Y-80467780D01*
X102219155Y-80506485D01*
X102296564Y-80545190D01*
X102451383Y-80545190D01*
X102528793Y-80583894D01*
X102567498Y-80622599D01*
X102606202Y-80700009D01*
X102606202Y-80854828D01*
X102567498Y-80932237D01*
X102528793Y-80970942D01*
X102451383Y-81009647D01*
X102296564Y-81009647D01*
X102219155Y-80970942D01*
X102180450Y-80932237D01*
X102141745Y-80854828D01*
X102141745Y-80700009D01*
X102180450Y-80622599D01*
X102219155Y-80583894D01*
X102296564Y-80545190D01*
X101870812Y-81319285D02*
X101832107Y-81280580D01*
X101754698Y-81164466D01*
X101715993Y-81087056D01*
X101677288Y-80970942D01*
X101638583Y-80777418D01*
X101638583Y-80622599D01*
X101677288Y-80429075D01*
X101715993Y-80312961D01*
X101754698Y-80235552D01*
X101832107Y-80119437D01*
X101870812Y-80080732D01*
D11*
%TO.C,TP1*%
X178299904Y-94448380D02*
X177728476Y-94448380D01*
X178014190Y-95448380D02*
X178014190Y-94448380D01*
X177395142Y-95448380D02*
X177395142Y-94448380D01*
X177014190Y-94448380D01*
X176918952Y-94496000D01*
X176871333Y-94543619D01*
X176823714Y-94638857D01*
X176823714Y-94781714D01*
X176871333Y-94876952D01*
X176918952Y-94924571D01*
X177014190Y-94972190D01*
X177395142Y-94972190D01*
X175871333Y-95448380D02*
X176442761Y-95448380D01*
X176157047Y-95448380D02*
X176157047Y-94448380D01*
X176252285Y-94591238D01*
X176347523Y-94686476D01*
X176442761Y-94734095D01*
%TO.C,C3*%
X167815142Y-115784333D02*
X167862761Y-115736714D01*
X167910380Y-115593857D01*
X167910380Y-115498619D01*
X167862761Y-115355761D01*
X167767523Y-115260523D01*
X167672285Y-115212904D01*
X167481809Y-115165285D01*
X167338952Y-115165285D01*
X167148476Y-115212904D01*
X167053238Y-115260523D01*
X166958000Y-115355761D01*
X166910380Y-115498619D01*
X166910380Y-115593857D01*
X166958000Y-115736714D01*
X167005619Y-115784333D01*
X166910380Y-116117666D02*
X166910380Y-116736714D01*
X167291333Y-116403380D01*
X167291333Y-116546238D01*
X167338952Y-116641476D01*
X167386571Y-116689095D01*
X167481809Y-116736714D01*
X167719904Y-116736714D01*
X167815142Y-116689095D01*
X167862761Y-116641476D01*
X167910380Y-116546238D01*
X167910380Y-116260523D01*
X167862761Y-116165285D01*
X167815142Y-116117666D01*
%TO.C,D7*%
X175109095Y-118649380D02*
X175109095Y-117649380D01*
X174871000Y-117649380D01*
X174728142Y-117697000D01*
X174632904Y-117792238D01*
X174585285Y-117887476D01*
X174537666Y-118077952D01*
X174537666Y-118220809D01*
X174585285Y-118411285D01*
X174632904Y-118506523D01*
X174728142Y-118601761D01*
X174871000Y-118649380D01*
X175109095Y-118649380D01*
X174204333Y-117649380D02*
X173537666Y-117649380D01*
X173966238Y-118649380D01*
%TO.C,C4*%
X105830666Y-99417142D02*
X105878285Y-99464761D01*
X106021142Y-99512380D01*
X106116380Y-99512380D01*
X106259238Y-99464761D01*
X106354476Y-99369523D01*
X106402095Y-99274285D01*
X106449714Y-99083809D01*
X106449714Y-98940952D01*
X106402095Y-98750476D01*
X106354476Y-98655238D01*
X106259238Y-98560000D01*
X106116380Y-98512380D01*
X106021142Y-98512380D01*
X105878285Y-98560000D01*
X105830666Y-98607619D01*
X104973523Y-98845714D02*
X104973523Y-99512380D01*
X105211619Y-98464761D02*
X105449714Y-99179047D01*
X104830666Y-99179047D01*
%TO.C,C6*%
X158789666Y-113260142D02*
X158837285Y-113307761D01*
X158980142Y-113355380D01*
X159075380Y-113355380D01*
X159218238Y-113307761D01*
X159313476Y-113212523D01*
X159361095Y-113117285D01*
X159408714Y-112926809D01*
X159408714Y-112783952D01*
X159361095Y-112593476D01*
X159313476Y-112498238D01*
X159218238Y-112403000D01*
X159075380Y-112355380D01*
X158980142Y-112355380D01*
X158837285Y-112403000D01*
X158789666Y-112450619D01*
X157932523Y-112355380D02*
X158123000Y-112355380D01*
X158218238Y-112403000D01*
X158265857Y-112450619D01*
X158361095Y-112593476D01*
X158408714Y-112783952D01*
X158408714Y-113164904D01*
X158361095Y-113260142D01*
X158313476Y-113307761D01*
X158218238Y-113355380D01*
X158027761Y-113355380D01*
X157932523Y-113307761D01*
X157884904Y-113260142D01*
X157837285Y-113164904D01*
X157837285Y-112926809D01*
X157884904Y-112831571D01*
X157932523Y-112783952D01*
X158027761Y-112736333D01*
X158218238Y-112736333D01*
X158313476Y-112783952D01*
X158361095Y-112831571D01*
X158408714Y-112926809D01*
%TO.C,C1*%
X150407666Y-113133142D02*
X150455285Y-113180761D01*
X150598142Y-113228380D01*
X150693380Y-113228380D01*
X150836238Y-113180761D01*
X150931476Y-113085523D01*
X150979095Y-112990285D01*
X151026714Y-112799809D01*
X151026714Y-112656952D01*
X150979095Y-112466476D01*
X150931476Y-112371238D01*
X150836238Y-112276000D01*
X150693380Y-112228380D01*
X150598142Y-112228380D01*
X150455285Y-112276000D01*
X150407666Y-112323619D01*
X149455285Y-113228380D02*
X150026714Y-113228380D01*
X149741000Y-113228380D02*
X149741000Y-112228380D01*
X149836238Y-112371238D01*
X149931476Y-112466476D01*
X150026714Y-112514095D01*
%TO.C,C7*%
X144692666Y-99472142D02*
X144740285Y-99519761D01*
X144883142Y-99567380D01*
X144978380Y-99567380D01*
X145121238Y-99519761D01*
X145216476Y-99424523D01*
X145264095Y-99329285D01*
X145311714Y-99138809D01*
X145311714Y-98995952D01*
X145264095Y-98805476D01*
X145216476Y-98710238D01*
X145121238Y-98615000D01*
X144978380Y-98567380D01*
X144883142Y-98567380D01*
X144740285Y-98615000D01*
X144692666Y-98662619D01*
X144359333Y-98567380D02*
X143692666Y-98567380D01*
X144121238Y-99567380D01*
%TO.C,C5*%
X105830666Y-111355142D02*
X105878285Y-111402761D01*
X106021142Y-111450380D01*
X106116380Y-111450380D01*
X106259238Y-111402761D01*
X106354476Y-111307523D01*
X106402095Y-111212285D01*
X106449714Y-111021809D01*
X106449714Y-110878952D01*
X106402095Y-110688476D01*
X106354476Y-110593238D01*
X106259238Y-110498000D01*
X106116380Y-110450380D01*
X106021142Y-110450380D01*
X105878285Y-110498000D01*
X105830666Y-110545619D01*
X104925904Y-110450380D02*
X105402095Y-110450380D01*
X105449714Y-110926571D01*
X105402095Y-110878952D01*
X105306857Y-110831333D01*
X105068761Y-110831333D01*
X104973523Y-110878952D01*
X104925904Y-110926571D01*
X104878285Y-111021809D01*
X104878285Y-111259904D01*
X104925904Y-111355142D01*
X104973523Y-111402761D01*
X105068761Y-111450380D01*
X105306857Y-111450380D01*
X105402095Y-111402761D01*
X105449714Y-111355142D01*
D12*
%TO.C,TP1*%
X180704000Y-95148000D02*
X180704000Y-95178000D01*
X180704000Y-88718000D02*
X180704000Y-88748000D01*
X180704000Y-93248000D02*
X180704000Y-90648000D01*
%TO.C,C3*%
X166518000Y-116662252D02*
X166518000Y-115239748D01*
X164698000Y-116662252D02*
X164698000Y-115239748D01*
%TO.C,D7*%
X175131000Y-117277000D02*
X171971000Y-117277000D01*
X175131000Y-114117000D02*
X173671000Y-114117000D01*
X175131000Y-117277000D02*
X175131000Y-116347000D01*
X175131000Y-114117000D02*
X175131000Y-115047000D01*
%TO.C,C4*%
X102463000Y-99771252D02*
X102463000Y-98348748D01*
X104283000Y-99771252D02*
X104283000Y-98348748D01*
%TO.C,C6*%
X157713000Y-115366748D02*
X157713000Y-116789252D01*
X159533000Y-115366748D02*
X159533000Y-116789252D01*
%TO.C,C1*%
X151151000Y-115239748D02*
X151151000Y-116662252D01*
X149331000Y-115239748D02*
X149331000Y-116662252D01*
%TO.C,C7*%
X145237252Y-100055000D02*
X143814748Y-100055000D01*
X145237252Y-101875000D02*
X143814748Y-101875000D01*
%TO.C,C5*%
X104283000Y-110032748D02*
X104283000Y-111455252D01*
X102463000Y-110032748D02*
X102463000Y-111455252D01*
%TD*%
M02*
