%TF.GenerationSoftware,KiCad,Pcbnew,(6.0.5)*%
%TF.CreationDate,2023-03-31T09:48:09-05:00*%
%TF.ProjectId,ISA rev7,49534120-7265-4763-972e-6b696361645f,rev?*%
%TF.SameCoordinates,Original*%
%TF.FileFunction,Legend,Bot*%
%TF.FilePolarity,Positive*%
%FSLAX46Y46*%
G04 Gerber Fmt 4.6, Leading zero omitted, Abs format (unit mm)*
G04 Created by KiCad (PCBNEW (6.0.5)) date 2023-03-31 09:48:09*
%MOMM*%
%LPD*%
G01*
G04 APERTURE LIST*
%ADD10C,0.152400*%
%ADD11C,0.300000*%
%ADD12C,0.150000*%
%ADD13C,0.120000*%
G04 APERTURE END LIST*
D10*
X196390380Y-113651695D02*
X196390380Y-112838895D01*
X196080742Y-112838895D01*
X196003333Y-112877600D01*
X195964628Y-112916304D01*
X195925923Y-112993714D01*
X195925923Y-113109828D01*
X195964628Y-113187238D01*
X196003333Y-113225942D01*
X196080742Y-113264647D01*
X196390380Y-113264647D01*
X195577580Y-113651695D02*
X195577580Y-113109828D01*
X195577580Y-112838895D02*
X195616285Y-112877600D01*
X195577580Y-112916304D01*
X195538876Y-112877600D01*
X195577580Y-112838895D01*
X195577580Y-112916304D01*
X194842190Y-113612990D02*
X194919599Y-113651695D01*
X195074419Y-113651695D01*
X195151828Y-113612990D01*
X195190533Y-113574285D01*
X195229238Y-113496876D01*
X195229238Y-113264647D01*
X195190533Y-113187238D01*
X195151828Y-113148533D01*
X195074419Y-113109828D01*
X194919599Y-113109828D01*
X194842190Y-113148533D01*
X194377733Y-113651695D02*
X194455142Y-113612990D01*
X194493847Y-113574285D01*
X194532552Y-113496876D01*
X194532552Y-113264647D01*
X194493847Y-113187238D01*
X194455142Y-113148533D01*
X194377733Y-113109828D01*
X194261619Y-113109828D01*
X194184209Y-113148533D01*
X194145504Y-113187238D01*
X194106799Y-113264647D01*
X194106799Y-113496876D01*
X194145504Y-113574285D01*
X194184209Y-113612990D01*
X194261619Y-113651695D01*
X194377733Y-113651695D01*
X192674723Y-113651695D02*
X192945657Y-113264647D01*
X193139180Y-113651695D02*
X193139180Y-112838895D01*
X192829542Y-112838895D01*
X192752133Y-112877600D01*
X192713428Y-112916304D01*
X192674723Y-112993714D01*
X192674723Y-113109828D01*
X192713428Y-113187238D01*
X192752133Y-113225942D01*
X192829542Y-113264647D01*
X193139180Y-113264647D01*
X192016742Y-113612990D02*
X192094152Y-113651695D01*
X192248971Y-113651695D01*
X192326380Y-113612990D01*
X192365085Y-113535580D01*
X192365085Y-113225942D01*
X192326380Y-113148533D01*
X192248971Y-113109828D01*
X192094152Y-113109828D01*
X192016742Y-113148533D01*
X191978038Y-113225942D01*
X191978038Y-113303352D01*
X192365085Y-113380761D01*
X191668399Y-113612990D02*
X191590990Y-113651695D01*
X191436171Y-113651695D01*
X191358761Y-113612990D01*
X191320057Y-113535580D01*
X191320057Y-113496876D01*
X191358761Y-113419466D01*
X191436171Y-113380761D01*
X191552285Y-113380761D01*
X191629695Y-113342057D01*
X191668399Y-113264647D01*
X191668399Y-113225942D01*
X191629695Y-113148533D01*
X191552285Y-113109828D01*
X191436171Y-113109828D01*
X191358761Y-113148533D01*
X190662076Y-113612990D02*
X190739485Y-113651695D01*
X190894304Y-113651695D01*
X190971714Y-113612990D01*
X191010419Y-113535580D01*
X191010419Y-113225942D01*
X190971714Y-113148533D01*
X190894304Y-113109828D01*
X190739485Y-113109828D01*
X190662076Y-113148533D01*
X190623371Y-113225942D01*
X190623371Y-113303352D01*
X191010419Y-113380761D01*
X190391142Y-113109828D02*
X190081504Y-113109828D01*
X190275028Y-112838895D02*
X190275028Y-113535580D01*
X190236323Y-113612990D01*
X190158914Y-113651695D01*
X190081504Y-113651695D01*
X199073104Y-78672266D02*
X199073104Y-78207809D01*
X198260304Y-78440038D02*
X199073104Y-78440038D01*
X198260304Y-77936876D02*
X199073104Y-77936876D01*
X198260304Y-77588533D02*
X198686057Y-77588533D01*
X198763466Y-77627238D01*
X198802171Y-77704647D01*
X198802171Y-77820761D01*
X198763466Y-77898171D01*
X198724761Y-77936876D01*
X198260304Y-77201485D02*
X198802171Y-77201485D01*
X199073104Y-77201485D02*
X199034400Y-77240190D01*
X198995695Y-77201485D01*
X199034400Y-77162780D01*
X199073104Y-77201485D01*
X198995695Y-77201485D01*
X198299009Y-76853142D02*
X198260304Y-76775733D01*
X198260304Y-76620914D01*
X198299009Y-76543504D01*
X198376419Y-76504800D01*
X198415123Y-76504800D01*
X198492533Y-76543504D01*
X198531238Y-76620914D01*
X198531238Y-76737028D01*
X198569942Y-76814438D01*
X198647352Y-76853142D01*
X198686057Y-76853142D01*
X198763466Y-76814438D01*
X198802171Y-76737028D01*
X198802171Y-76620914D01*
X198763466Y-76543504D01*
X198299009Y-75575885D02*
X198260304Y-75498476D01*
X198260304Y-75343657D01*
X198299009Y-75266247D01*
X198376419Y-75227542D01*
X198415123Y-75227542D01*
X198492533Y-75266247D01*
X198531238Y-75343657D01*
X198531238Y-75459771D01*
X198569942Y-75537180D01*
X198647352Y-75575885D01*
X198686057Y-75575885D01*
X198763466Y-75537180D01*
X198802171Y-75459771D01*
X198802171Y-75343657D01*
X198763466Y-75266247D01*
X198260304Y-74879200D02*
X198802171Y-74879200D01*
X199073104Y-74879200D02*
X199034400Y-74917904D01*
X198995695Y-74879200D01*
X199034400Y-74840495D01*
X199073104Y-74879200D01*
X198995695Y-74879200D01*
X198260304Y-74143809D02*
X199073104Y-74143809D01*
X198299009Y-74143809D02*
X198260304Y-74221219D01*
X198260304Y-74376038D01*
X198299009Y-74453447D01*
X198337714Y-74492152D01*
X198415123Y-74530857D01*
X198647352Y-74530857D01*
X198724761Y-74492152D01*
X198763466Y-74453447D01*
X198802171Y-74376038D01*
X198802171Y-74221219D01*
X198763466Y-74143809D01*
X198299009Y-73447123D02*
X198260304Y-73524533D01*
X198260304Y-73679352D01*
X198299009Y-73756761D01*
X198376419Y-73795466D01*
X198686057Y-73795466D01*
X198763466Y-73756761D01*
X198802171Y-73679352D01*
X198802171Y-73524533D01*
X198763466Y-73447123D01*
X198686057Y-73408419D01*
X198608647Y-73408419D01*
X198531238Y-73795466D01*
X198802171Y-72556914D02*
X198802171Y-72247276D01*
X199073104Y-72440800D02*
X198376419Y-72440800D01*
X198299009Y-72402095D01*
X198260304Y-72324685D01*
X198260304Y-72247276D01*
X198260304Y-71860228D02*
X198299009Y-71937638D01*
X198337714Y-71976342D01*
X198415123Y-72015047D01*
X198647352Y-72015047D01*
X198724761Y-71976342D01*
X198763466Y-71937638D01*
X198802171Y-71860228D01*
X198802171Y-71744114D01*
X198763466Y-71666704D01*
X198724761Y-71628000D01*
X198647352Y-71589295D01*
X198415123Y-71589295D01*
X198337714Y-71628000D01*
X198299009Y-71666704D01*
X198260304Y-71744114D01*
X198260304Y-71860228D01*
X198802171Y-71318361D02*
X198260304Y-71163542D01*
X198647352Y-71008723D01*
X198260304Y-70853904D01*
X198802171Y-70699085D01*
X198260304Y-70041104D02*
X198686057Y-70041104D01*
X198763466Y-70079809D01*
X198802171Y-70157219D01*
X198802171Y-70312038D01*
X198763466Y-70389447D01*
X198299009Y-70041104D02*
X198260304Y-70118514D01*
X198260304Y-70312038D01*
X198299009Y-70389447D01*
X198376419Y-70428152D01*
X198453828Y-70428152D01*
X198531238Y-70389447D01*
X198569942Y-70312038D01*
X198569942Y-70118514D01*
X198608647Y-70041104D01*
X198260304Y-69654057D02*
X198802171Y-69654057D01*
X198647352Y-69654057D02*
X198724761Y-69615352D01*
X198763466Y-69576647D01*
X198802171Y-69499238D01*
X198802171Y-69421828D01*
X198260304Y-68802552D02*
X199073104Y-68802552D01*
X198299009Y-68802552D02*
X198260304Y-68879961D01*
X198260304Y-69034780D01*
X198299009Y-69112190D01*
X198337714Y-69150895D01*
X198415123Y-69189600D01*
X198647352Y-69189600D01*
X198724761Y-69150895D01*
X198763466Y-69112190D01*
X198802171Y-69034780D01*
X198802171Y-68879961D01*
X198763466Y-68802552D01*
X198299009Y-68454209D02*
X198260304Y-68376800D01*
X198260304Y-68221980D01*
X198299009Y-68144571D01*
X198376419Y-68105866D01*
X198415123Y-68105866D01*
X198492533Y-68144571D01*
X198531238Y-68221980D01*
X198531238Y-68338095D01*
X198569942Y-68415504D01*
X198647352Y-68454209D01*
X198686057Y-68454209D01*
X198763466Y-68415504D01*
X198802171Y-68338095D01*
X198802171Y-68221980D01*
X198763466Y-68144571D01*
X198260304Y-67138247D02*
X198802171Y-67138247D01*
X198647352Y-67138247D02*
X198724761Y-67099542D01*
X198763466Y-67060838D01*
X198802171Y-66983428D01*
X198802171Y-66906019D01*
X198299009Y-66325447D02*
X198260304Y-66402857D01*
X198260304Y-66557676D01*
X198299009Y-66635085D01*
X198376419Y-66673790D01*
X198686057Y-66673790D01*
X198763466Y-66635085D01*
X198802171Y-66557676D01*
X198802171Y-66402857D01*
X198763466Y-66325447D01*
X198686057Y-66286742D01*
X198608647Y-66286742D01*
X198531238Y-66673790D01*
X198260304Y-65590057D02*
X198686057Y-65590057D01*
X198763466Y-65628761D01*
X198802171Y-65706171D01*
X198802171Y-65860990D01*
X198763466Y-65938400D01*
X198299009Y-65590057D02*
X198260304Y-65667466D01*
X198260304Y-65860990D01*
X198299009Y-65938400D01*
X198376419Y-65977104D01*
X198453828Y-65977104D01*
X198531238Y-65938400D01*
X198569942Y-65860990D01*
X198569942Y-65667466D01*
X198608647Y-65590057D01*
X198260304Y-65203009D02*
X198802171Y-65203009D01*
X198647352Y-65203009D02*
X198724761Y-65164304D01*
X198763466Y-65125600D01*
X198802171Y-65048190D01*
X198802171Y-64970780D01*
X198337714Y-64699847D02*
X198299009Y-64661142D01*
X198260304Y-64699847D01*
X198299009Y-64738552D01*
X198337714Y-64699847D01*
X198260304Y-64699847D01*
X198569942Y-64699847D02*
X199034400Y-64738552D01*
X199073104Y-64699847D01*
X199034400Y-64661142D01*
X198569942Y-64699847D01*
X199073104Y-64699847D01*
X124331790Y-120763695D02*
X124331790Y-119950895D01*
X124060857Y-120221828D02*
X123751219Y-120221828D01*
X123944742Y-119950895D02*
X123944742Y-120647580D01*
X123906038Y-120724990D01*
X123828628Y-120763695D01*
X123751219Y-120763695D01*
X123441580Y-119950895D02*
X123518990Y-120105714D01*
X123131942Y-120724990D02*
X123054533Y-120763695D01*
X122899714Y-120763695D01*
X122822304Y-120724990D01*
X122783600Y-120647580D01*
X122783600Y-120608876D01*
X122822304Y-120531466D01*
X122899714Y-120492761D01*
X123015828Y-120492761D01*
X123093238Y-120454057D01*
X123131942Y-120376647D01*
X123131942Y-120337942D01*
X123093238Y-120260533D01*
X123015828Y-120221828D01*
X122899714Y-120221828D01*
X122822304Y-120260533D01*
X121699866Y-120763695D02*
X121777276Y-120724990D01*
X121815980Y-120686285D01*
X121854685Y-120608876D01*
X121854685Y-120376647D01*
X121815980Y-120299238D01*
X121777276Y-120260533D01*
X121699866Y-120221828D01*
X121583752Y-120221828D01*
X121506342Y-120260533D01*
X121467638Y-120299238D01*
X121428933Y-120376647D01*
X121428933Y-120608876D01*
X121467638Y-120686285D01*
X121506342Y-120724990D01*
X121583752Y-120763695D01*
X121699866Y-120763695D01*
X121080590Y-120221828D02*
X121080590Y-120763695D01*
X121080590Y-120299238D02*
X121041885Y-120260533D01*
X120964476Y-120221828D01*
X120848361Y-120221828D01*
X120770952Y-120260533D01*
X120732247Y-120337942D01*
X120732247Y-120763695D01*
X120229085Y-120763695D02*
X120306495Y-120724990D01*
X120345200Y-120647580D01*
X120345200Y-119950895D01*
X119996857Y-120221828D02*
X119803333Y-120763695D01*
X119609809Y-120221828D02*
X119803333Y-120763695D01*
X119880742Y-120957219D01*
X119919447Y-120995923D01*
X119996857Y-121034628D01*
X118680895Y-120763695D02*
X118680895Y-119950895D01*
X118332552Y-120763695D02*
X118332552Y-120337942D01*
X118371257Y-120260533D01*
X118448666Y-120221828D01*
X118564780Y-120221828D01*
X118642190Y-120260533D01*
X118680895Y-120299238D01*
X117829390Y-120763695D02*
X117906800Y-120724990D01*
X117945504Y-120686285D01*
X117984209Y-120608876D01*
X117984209Y-120376647D01*
X117945504Y-120299238D01*
X117906800Y-120260533D01*
X117829390Y-120221828D01*
X117713276Y-120221828D01*
X117635866Y-120260533D01*
X117597161Y-120299238D01*
X117558457Y-120376647D01*
X117558457Y-120608876D01*
X117597161Y-120686285D01*
X117635866Y-120724990D01*
X117713276Y-120763695D01*
X117829390Y-120763695D01*
X116861771Y-120763695D02*
X116861771Y-120337942D01*
X116900476Y-120260533D01*
X116977885Y-120221828D01*
X117132704Y-120221828D01*
X117210114Y-120260533D01*
X116861771Y-120724990D02*
X116939180Y-120763695D01*
X117132704Y-120763695D01*
X117210114Y-120724990D01*
X117248819Y-120647580D01*
X117248819Y-120570171D01*
X117210114Y-120492761D01*
X117132704Y-120454057D01*
X116939180Y-120454057D01*
X116861771Y-120415352D01*
X116474723Y-120763695D02*
X116474723Y-120221828D01*
X116474723Y-120376647D02*
X116436019Y-120299238D01*
X116397314Y-120260533D01*
X116319904Y-120221828D01*
X116242495Y-120221828D01*
X115623219Y-120763695D02*
X115623219Y-119950895D01*
X115623219Y-120724990D02*
X115700628Y-120763695D01*
X115855447Y-120763695D01*
X115932857Y-120724990D01*
X115971561Y-120686285D01*
X116010266Y-120608876D01*
X116010266Y-120376647D01*
X115971561Y-120299238D01*
X115932857Y-120260533D01*
X115855447Y-120221828D01*
X115700628Y-120221828D01*
X115623219Y-120260533D01*
X115236171Y-120763695D02*
X115236171Y-120221828D01*
X115236171Y-119950895D02*
X115274876Y-119989600D01*
X115236171Y-120028304D01*
X115197466Y-119989600D01*
X115236171Y-119950895D01*
X115236171Y-120028304D01*
X114849123Y-120221828D02*
X114849123Y-120763695D01*
X114849123Y-120299238D02*
X114810419Y-120260533D01*
X114733009Y-120221828D01*
X114616895Y-120221828D01*
X114539485Y-120260533D01*
X114500780Y-120337942D01*
X114500780Y-120763695D01*
X113765390Y-120221828D02*
X113765390Y-120879809D01*
X113804095Y-120957219D01*
X113842800Y-120995923D01*
X113920209Y-121034628D01*
X114036323Y-121034628D01*
X114113733Y-120995923D01*
X113765390Y-120724990D02*
X113842800Y-120763695D01*
X113997619Y-120763695D01*
X114075028Y-120724990D01*
X114113733Y-120686285D01*
X114152438Y-120608876D01*
X114152438Y-120376647D01*
X114113733Y-120299238D01*
X114075028Y-120260533D01*
X113997619Y-120221828D01*
X113842800Y-120221828D01*
X113765390Y-120260533D01*
X112759066Y-120763695D02*
X112759066Y-120221828D01*
X112759066Y-119950895D02*
X112797771Y-119989600D01*
X112759066Y-120028304D01*
X112720361Y-119989600D01*
X112759066Y-119950895D01*
X112759066Y-120028304D01*
X112488133Y-120221828D02*
X112178495Y-120221828D01*
X112372019Y-120763695D02*
X112372019Y-120067009D01*
X112333314Y-119989600D01*
X112255904Y-119950895D01*
X112178495Y-119950895D01*
X111365695Y-120221828D02*
X111172171Y-120763695D01*
X110978647Y-120221828D02*
X111172171Y-120763695D01*
X111249580Y-120957219D01*
X111288285Y-120995923D01*
X111365695Y-121034628D01*
X110552895Y-120763695D02*
X110630304Y-120724990D01*
X110669009Y-120686285D01*
X110707714Y-120608876D01*
X110707714Y-120376647D01*
X110669009Y-120299238D01*
X110630304Y-120260533D01*
X110552895Y-120221828D01*
X110436780Y-120221828D01*
X110359371Y-120260533D01*
X110320666Y-120299238D01*
X110281961Y-120376647D01*
X110281961Y-120608876D01*
X110320666Y-120686285D01*
X110359371Y-120724990D01*
X110436780Y-120763695D01*
X110552895Y-120763695D01*
X109585276Y-120221828D02*
X109585276Y-120763695D01*
X109933619Y-120221828D02*
X109933619Y-120647580D01*
X109894914Y-120724990D01*
X109817504Y-120763695D01*
X109701390Y-120763695D01*
X109623980Y-120724990D01*
X109585276Y-120686285D01*
X108230609Y-120763695D02*
X108230609Y-119950895D01*
X108230609Y-120724990D02*
X108308019Y-120763695D01*
X108462838Y-120763695D01*
X108540247Y-120724990D01*
X108578952Y-120686285D01*
X108617657Y-120608876D01*
X108617657Y-120376647D01*
X108578952Y-120299238D01*
X108540247Y-120260533D01*
X108462838Y-120221828D01*
X108308019Y-120221828D01*
X108230609Y-120260533D01*
X107727447Y-120763695D02*
X107804857Y-120724990D01*
X107843561Y-120686285D01*
X107882266Y-120608876D01*
X107882266Y-120376647D01*
X107843561Y-120299238D01*
X107804857Y-120260533D01*
X107727447Y-120221828D01*
X107611333Y-120221828D01*
X107533923Y-120260533D01*
X107495219Y-120299238D01*
X107456514Y-120376647D01*
X107456514Y-120608876D01*
X107495219Y-120686285D01*
X107533923Y-120724990D01*
X107611333Y-120763695D01*
X107727447Y-120763695D01*
X107108171Y-120221828D02*
X107108171Y-120763695D01*
X107108171Y-120299238D02*
X107069466Y-120260533D01*
X106992057Y-120221828D01*
X106875942Y-120221828D01*
X106798533Y-120260533D01*
X106759828Y-120337942D01*
X106759828Y-120763695D01*
X106334076Y-119950895D02*
X106411485Y-120105714D01*
X106101847Y-120221828D02*
X105792209Y-120221828D01*
X105985733Y-119950895D02*
X105985733Y-120647580D01*
X105947028Y-120724990D01*
X105869619Y-120763695D01*
X105792209Y-120763695D01*
X104553657Y-120221828D02*
X104553657Y-120763695D01*
X104902000Y-120221828D02*
X104902000Y-120647580D01*
X104863295Y-120724990D01*
X104785885Y-120763695D01*
X104669771Y-120763695D01*
X104592361Y-120724990D01*
X104553657Y-120686285D01*
X104205314Y-120724990D02*
X104127904Y-120763695D01*
X103973085Y-120763695D01*
X103895676Y-120724990D01*
X103856971Y-120647580D01*
X103856971Y-120608876D01*
X103895676Y-120531466D01*
X103973085Y-120492761D01*
X104089200Y-120492761D01*
X104166609Y-120454057D01*
X104205314Y-120376647D01*
X104205314Y-120337942D01*
X104166609Y-120260533D01*
X104089200Y-120221828D01*
X103973085Y-120221828D01*
X103895676Y-120260533D01*
X103198990Y-120724990D02*
X103276400Y-120763695D01*
X103431219Y-120763695D01*
X103508628Y-120724990D01*
X103547333Y-120647580D01*
X103547333Y-120337942D01*
X103508628Y-120260533D01*
X103431219Y-120221828D01*
X103276400Y-120221828D01*
X103198990Y-120260533D01*
X103160285Y-120337942D01*
X103160285Y-120415352D01*
X103547333Y-120492761D01*
X102192666Y-120763695D02*
X102192666Y-120221828D01*
X102192666Y-119950895D02*
X102231371Y-119989600D01*
X102192666Y-120028304D01*
X102153961Y-119989600D01*
X102192666Y-119950895D01*
X102192666Y-120028304D01*
X101921733Y-120221828D02*
X101612095Y-120221828D01*
X101805619Y-119950895D02*
X101805619Y-120647580D01*
X101766914Y-120724990D01*
X101689504Y-120763695D01*
X101612095Y-120763695D01*
X125035612Y-96734714D02*
X124648564Y-96734714D01*
X125113021Y-96966943D02*
X124842088Y-96154143D01*
X124571155Y-96966943D01*
X123951879Y-96966943D02*
X123951879Y-96154143D01*
X123951879Y-96928238D02*
X124029288Y-96966943D01*
X124184107Y-96966943D01*
X124261517Y-96928238D01*
X124300221Y-96889533D01*
X124338926Y-96812124D01*
X124338926Y-96579895D01*
X124300221Y-96502486D01*
X124261517Y-96463781D01*
X124184107Y-96425076D01*
X124029288Y-96425076D01*
X123951879Y-96463781D01*
X123216488Y-96966943D02*
X123216488Y-96154143D01*
X123216488Y-96928238D02*
X123293898Y-96966943D01*
X123448717Y-96966943D01*
X123526126Y-96928238D01*
X123564831Y-96889533D01*
X123603536Y-96812124D01*
X123603536Y-96579895D01*
X123564831Y-96502486D01*
X123526126Y-96463781D01*
X123448717Y-96425076D01*
X123293898Y-96425076D01*
X123216488Y-96463781D01*
X122829440Y-96966943D02*
X122829440Y-96425076D01*
X122829440Y-96579895D02*
X122790736Y-96502486D01*
X122752031Y-96463781D01*
X122674621Y-96425076D01*
X122597212Y-96425076D01*
X122016640Y-96928238D02*
X122094050Y-96966943D01*
X122248869Y-96966943D01*
X122326279Y-96928238D01*
X122364983Y-96850828D01*
X122364983Y-96541190D01*
X122326279Y-96463781D01*
X122248869Y-96425076D01*
X122094050Y-96425076D01*
X122016640Y-96463781D01*
X121977936Y-96541190D01*
X121977936Y-96618600D01*
X122364983Y-96696009D01*
X121668298Y-96928238D02*
X121590888Y-96966943D01*
X121436069Y-96966943D01*
X121358660Y-96928238D01*
X121319955Y-96850828D01*
X121319955Y-96812124D01*
X121358660Y-96734714D01*
X121436069Y-96696009D01*
X121552183Y-96696009D01*
X121629593Y-96657305D01*
X121668298Y-96579895D01*
X121668298Y-96541190D01*
X121629593Y-96463781D01*
X121552183Y-96425076D01*
X121436069Y-96425076D01*
X121358660Y-96463781D01*
X121010317Y-96928238D02*
X120932907Y-96966943D01*
X120778088Y-96966943D01*
X120700679Y-96928238D01*
X120661974Y-96850828D01*
X120661974Y-96812124D01*
X120700679Y-96734714D01*
X120778088Y-96696009D01*
X120894202Y-96696009D01*
X120971612Y-96657305D01*
X121010317Y-96579895D01*
X121010317Y-96541190D01*
X120971612Y-96463781D01*
X120894202Y-96425076D01*
X120778088Y-96425076D01*
X120700679Y-96463781D01*
X119229898Y-96966943D02*
X119500831Y-96579895D01*
X119694355Y-96966943D02*
X119694355Y-96154143D01*
X119384717Y-96154143D01*
X119307307Y-96192848D01*
X119268602Y-96231552D01*
X119229898Y-96308962D01*
X119229898Y-96425076D01*
X119268602Y-96502486D01*
X119307307Y-96541190D01*
X119384717Y-96579895D01*
X119694355Y-96579895D01*
X118533212Y-96966943D02*
X118533212Y-96541190D01*
X118571917Y-96463781D01*
X118649326Y-96425076D01*
X118804145Y-96425076D01*
X118881555Y-96463781D01*
X118533212Y-96928238D02*
X118610621Y-96966943D01*
X118804145Y-96966943D01*
X118881555Y-96928238D01*
X118920260Y-96850828D01*
X118920260Y-96773419D01*
X118881555Y-96696009D01*
X118804145Y-96657305D01*
X118610621Y-96657305D01*
X118533212Y-96618600D01*
X118146164Y-96425076D02*
X118146164Y-96966943D01*
X118146164Y-96502486D02*
X118107460Y-96463781D01*
X118030050Y-96425076D01*
X117913936Y-96425076D01*
X117836526Y-96463781D01*
X117797821Y-96541190D01*
X117797821Y-96966943D01*
X117062431Y-96425076D02*
X117062431Y-97083057D01*
X117101136Y-97160467D01*
X117139840Y-97199171D01*
X117217250Y-97237876D01*
X117333364Y-97237876D01*
X117410774Y-97199171D01*
X117062431Y-96928238D02*
X117139840Y-96966943D01*
X117294660Y-96966943D01*
X117372069Y-96928238D01*
X117410774Y-96889533D01*
X117449479Y-96812124D01*
X117449479Y-96579895D01*
X117410774Y-96502486D01*
X117372069Y-96463781D01*
X117294660Y-96425076D01*
X117139840Y-96425076D01*
X117062431Y-96463781D01*
X116365745Y-96928238D02*
X116443155Y-96966943D01*
X116597974Y-96966943D01*
X116675383Y-96928238D01*
X116714088Y-96850828D01*
X116714088Y-96541190D01*
X116675383Y-96463781D01*
X116597974Y-96425076D01*
X116443155Y-96425076D01*
X116365745Y-96463781D01*
X116327040Y-96541190D01*
X116327040Y-96618600D01*
X116714088Y-96696009D01*
X115978698Y-96889533D02*
X115939993Y-96928238D01*
X115978698Y-96966943D01*
X116017402Y-96928238D01*
X115978698Y-96889533D01*
X115978698Y-96966943D01*
X115978698Y-96463781D02*
X115939993Y-96502486D01*
X115978698Y-96541190D01*
X116017402Y-96502486D01*
X115978698Y-96463781D01*
X115978698Y-96541190D01*
X114817555Y-96154143D02*
X114740145Y-96154143D01*
X114662736Y-96192848D01*
X114624031Y-96231552D01*
X114585326Y-96308962D01*
X114546621Y-96463781D01*
X114546621Y-96657305D01*
X114585326Y-96812124D01*
X114624031Y-96889533D01*
X114662736Y-96928238D01*
X114740145Y-96966943D01*
X114817555Y-96966943D01*
X114894964Y-96928238D01*
X114933669Y-96889533D01*
X114972374Y-96812124D01*
X115011079Y-96657305D01*
X115011079Y-96463781D01*
X114972374Y-96308962D01*
X114933669Y-96231552D01*
X114894964Y-96192848D01*
X114817555Y-96154143D01*
X114043460Y-96154143D02*
X113966050Y-96154143D01*
X113888640Y-96192848D01*
X113849936Y-96231552D01*
X113811231Y-96308962D01*
X113772526Y-96463781D01*
X113772526Y-96657305D01*
X113811231Y-96812124D01*
X113849936Y-96889533D01*
X113888640Y-96928238D01*
X113966050Y-96966943D01*
X114043460Y-96966943D01*
X114120869Y-96928238D01*
X114159574Y-96889533D01*
X114198279Y-96812124D01*
X114236983Y-96657305D01*
X114236983Y-96463781D01*
X114198279Y-96308962D01*
X114159574Y-96231552D01*
X114120869Y-96192848D01*
X114043460Y-96154143D01*
X113269364Y-96154143D02*
X113191955Y-96154143D01*
X113114545Y-96192848D01*
X113075840Y-96231552D01*
X113037136Y-96308962D01*
X112998431Y-96463781D01*
X112998431Y-96657305D01*
X113037136Y-96812124D01*
X113075840Y-96889533D01*
X113114545Y-96928238D01*
X113191955Y-96966943D01*
X113269364Y-96966943D01*
X113346774Y-96928238D01*
X113385479Y-96889533D01*
X113424183Y-96812124D01*
X113462888Y-96657305D01*
X113462888Y-96463781D01*
X113424183Y-96308962D01*
X113385479Y-96231552D01*
X113346774Y-96192848D01*
X113269364Y-96154143D01*
X112495269Y-96154143D02*
X112417860Y-96154143D01*
X112340450Y-96192848D01*
X112301745Y-96231552D01*
X112263040Y-96308962D01*
X112224336Y-96463781D01*
X112224336Y-96657305D01*
X112263040Y-96812124D01*
X112301745Y-96889533D01*
X112340450Y-96928238D01*
X112417860Y-96966943D01*
X112495269Y-96966943D01*
X112572679Y-96928238D01*
X112611383Y-96889533D01*
X112650088Y-96812124D01*
X112688793Y-96657305D01*
X112688793Y-96463781D01*
X112650088Y-96308962D01*
X112611383Y-96231552D01*
X112572679Y-96192848D01*
X112495269Y-96154143D01*
X111875993Y-96657305D02*
X111256717Y-96657305D01*
X110598736Y-96541190D02*
X110869669Y-96541190D01*
X110869669Y-96966943D02*
X110869669Y-96154143D01*
X110482621Y-96154143D01*
X109902050Y-96541190D02*
X110172983Y-96541190D01*
X110172983Y-96966943D02*
X110172983Y-96154143D01*
X109785936Y-96154143D01*
X109205364Y-96541190D02*
X109476298Y-96541190D01*
X109476298Y-96966943D02*
X109476298Y-96154143D01*
X109089250Y-96154143D01*
X108508679Y-96541190D02*
X108779612Y-96541190D01*
X108779612Y-96966943D02*
X108779612Y-96154143D01*
X108392564Y-96154143D01*
X108082926Y-96966943D02*
X108082926Y-96154143D01*
X107734583Y-96966943D02*
X107734583Y-96541190D01*
X107773288Y-96463781D01*
X107850698Y-96425076D01*
X107966812Y-96425076D01*
X108044221Y-96463781D01*
X108082926Y-96502486D01*
X137034088Y-97849798D02*
X136917974Y-97888503D01*
X136879269Y-97927208D01*
X136840564Y-98004617D01*
X136840564Y-98120732D01*
X136879269Y-98198141D01*
X136917974Y-98236846D01*
X136995383Y-98275551D01*
X137305021Y-98275551D01*
X137305021Y-97462751D01*
X137034088Y-97462751D01*
X136956679Y-97501456D01*
X136917974Y-97540160D01*
X136879269Y-97617570D01*
X136879269Y-97694979D01*
X136917974Y-97772389D01*
X136956679Y-97811094D01*
X137034088Y-97849798D01*
X137305021Y-97849798D01*
X136143879Y-97733684D02*
X136143879Y-98275551D01*
X136492221Y-97733684D02*
X136492221Y-98159436D01*
X136453517Y-98236846D01*
X136376107Y-98275551D01*
X136259993Y-98275551D01*
X136182583Y-98236846D01*
X136143879Y-98198141D01*
X135795536Y-98236846D02*
X135718126Y-98275551D01*
X135563307Y-98275551D01*
X135485898Y-98236846D01*
X135447193Y-98159436D01*
X135447193Y-98120732D01*
X135485898Y-98043322D01*
X135563307Y-98004617D01*
X135679421Y-98004617D01*
X135756831Y-97965913D01*
X135795536Y-97888503D01*
X135795536Y-97849798D01*
X135756831Y-97772389D01*
X135679421Y-97733684D01*
X135563307Y-97733684D01*
X135485898Y-97772389D01*
X134015117Y-98275551D02*
X134286050Y-97888503D01*
X134479574Y-98275551D02*
X134479574Y-97462751D01*
X134169936Y-97462751D01*
X134092526Y-97501456D01*
X134053821Y-97540160D01*
X134015117Y-97617570D01*
X134015117Y-97733684D01*
X134053821Y-97811094D01*
X134092526Y-97849798D01*
X134169936Y-97888503D01*
X134479574Y-97888503D01*
X133357136Y-98236846D02*
X133434545Y-98275551D01*
X133589364Y-98275551D01*
X133666774Y-98236846D01*
X133705479Y-98159436D01*
X133705479Y-97849798D01*
X133666774Y-97772389D01*
X133589364Y-97733684D01*
X133434545Y-97733684D01*
X133357136Y-97772389D01*
X133318431Y-97849798D01*
X133318431Y-97927208D01*
X133705479Y-98004617D01*
X132621745Y-98275551D02*
X132621745Y-97849798D01*
X132660450Y-97772389D01*
X132737860Y-97733684D01*
X132892679Y-97733684D01*
X132970088Y-97772389D01*
X132621745Y-98236846D02*
X132699155Y-98275551D01*
X132892679Y-98275551D01*
X132970088Y-98236846D01*
X133008793Y-98159436D01*
X133008793Y-98082027D01*
X132970088Y-98004617D01*
X132892679Y-97965913D01*
X132699155Y-97965913D01*
X132621745Y-97927208D01*
X131886355Y-98275551D02*
X131886355Y-97462751D01*
X131886355Y-98236846D02*
X131963764Y-98275551D01*
X132118583Y-98275551D01*
X132195993Y-98236846D01*
X132234698Y-98198141D01*
X132273402Y-98120732D01*
X132273402Y-97888503D01*
X132234698Y-97811094D01*
X132195993Y-97772389D01*
X132118583Y-97733684D01*
X131963764Y-97733684D01*
X131886355Y-97772389D01*
X131576717Y-97733684D02*
X131383193Y-98275551D01*
X131189669Y-97733684D02*
X131383193Y-98275551D01*
X131460602Y-98469075D01*
X131499307Y-98507779D01*
X131576717Y-98546484D01*
X130144640Y-98275551D02*
X130222050Y-98236846D01*
X130260755Y-98198141D01*
X130299460Y-98120732D01*
X130299460Y-97888503D01*
X130260755Y-97811094D01*
X130222050Y-97772389D01*
X130144640Y-97733684D01*
X130028526Y-97733684D01*
X129951117Y-97772389D01*
X129912412Y-97811094D01*
X129873707Y-97888503D01*
X129873707Y-98120732D01*
X129912412Y-98198141D01*
X129951117Y-98236846D01*
X130028526Y-98275551D01*
X130144640Y-98275551D01*
X129525364Y-97733684D02*
X129525364Y-98275551D01*
X129525364Y-97811094D02*
X129486660Y-97772389D01*
X129409250Y-97733684D01*
X129293136Y-97733684D01*
X129215726Y-97772389D01*
X129177021Y-97849798D01*
X129177021Y-98275551D01*
X128209402Y-98043322D02*
X127822355Y-98043322D01*
X128286812Y-98275551D02*
X128015879Y-97462751D01*
X127744945Y-98275551D01*
X127474012Y-97849798D02*
X127203079Y-97849798D01*
X127086964Y-98275551D02*
X127474012Y-98275551D01*
X127474012Y-97462751D01*
X127086964Y-97462751D01*
X126738621Y-98275551D02*
X126738621Y-97462751D01*
X126274164Y-98275551D01*
X126274164Y-97462751D01*
X125267840Y-97733684D02*
X125267840Y-98275551D01*
X125267840Y-97811094D02*
X125229136Y-97772389D01*
X125151726Y-97733684D01*
X125035612Y-97733684D01*
X124958202Y-97772389D01*
X124919498Y-97849798D01*
X124919498Y-98275551D01*
X124416336Y-98275551D02*
X124493745Y-98236846D01*
X124532450Y-98198141D01*
X124571155Y-98120732D01*
X124571155Y-97888503D01*
X124532450Y-97811094D01*
X124493745Y-97772389D01*
X124416336Y-97733684D01*
X124300221Y-97733684D01*
X124222812Y-97772389D01*
X124184107Y-97811094D01*
X124145402Y-97888503D01*
X124145402Y-98120732D01*
X124184107Y-98198141D01*
X124222812Y-98236846D01*
X124300221Y-98275551D01*
X124416336Y-98275551D01*
X123797060Y-98275551D02*
X123797060Y-97733684D01*
X123797060Y-97888503D02*
X123758355Y-97811094D01*
X123719650Y-97772389D01*
X123642240Y-97733684D01*
X123564831Y-97733684D01*
X122674621Y-98275551D02*
X122674621Y-97462751D01*
X122132755Y-97462751D02*
X121977936Y-97462751D01*
X121900526Y-97501456D01*
X121823117Y-97578865D01*
X121784412Y-97733684D01*
X121784412Y-98004617D01*
X121823117Y-98159436D01*
X121900526Y-98236846D01*
X121977936Y-98275551D01*
X122132755Y-98275551D01*
X122210164Y-98236846D01*
X122287574Y-98159436D01*
X122326279Y-98004617D01*
X122326279Y-97733684D01*
X122287574Y-97578865D01*
X122210164Y-97501456D01*
X122132755Y-97462751D01*
X121513479Y-97462751D02*
X121319955Y-98275551D01*
X121165136Y-97694979D01*
X121010317Y-98275551D01*
X120816793Y-97462751D01*
X119887879Y-97965913D02*
X119268602Y-97965913D01*
X119578240Y-98275551D02*
X119578240Y-97656275D01*
X117913936Y-98275551D02*
X117913936Y-97849798D01*
X117952640Y-97772389D01*
X118030050Y-97733684D01*
X118184869Y-97733684D01*
X118262279Y-97772389D01*
X117913936Y-98236846D02*
X117991345Y-98275551D01*
X118184869Y-98275551D01*
X118262279Y-98236846D01*
X118300983Y-98159436D01*
X118300983Y-98082027D01*
X118262279Y-98004617D01*
X118184869Y-97965913D01*
X117991345Y-97965913D01*
X117913936Y-97927208D01*
X117178545Y-98275551D02*
X117178545Y-97462751D01*
X117178545Y-98236846D02*
X117255955Y-98275551D01*
X117410774Y-98275551D01*
X117488183Y-98236846D01*
X117526888Y-98198141D01*
X117565593Y-98120732D01*
X117565593Y-97888503D01*
X117526888Y-97811094D01*
X117488183Y-97772389D01*
X117410774Y-97733684D01*
X117255955Y-97733684D01*
X117178545Y-97772389D01*
X116443155Y-98275551D02*
X116443155Y-97462751D01*
X116443155Y-98236846D02*
X116520564Y-98275551D01*
X116675383Y-98275551D01*
X116752793Y-98236846D01*
X116791498Y-98198141D01*
X116830202Y-98120732D01*
X116830202Y-97888503D01*
X116791498Y-97811094D01*
X116752793Y-97772389D01*
X116675383Y-97733684D01*
X116520564Y-97733684D01*
X116443155Y-97772389D01*
X116056107Y-98275551D02*
X116056107Y-97733684D01*
X116056107Y-97888503D02*
X116017402Y-97811094D01*
X115978698Y-97772389D01*
X115901288Y-97733684D01*
X115823879Y-97733684D01*
X115011079Y-97733684D02*
X114856260Y-98275551D01*
X114701440Y-97888503D01*
X114546621Y-98275551D01*
X114391802Y-97733684D01*
X114082164Y-98275551D02*
X114082164Y-97733684D01*
X114082164Y-97462751D02*
X114120869Y-97501456D01*
X114082164Y-97540160D01*
X114043460Y-97501456D01*
X114082164Y-97462751D01*
X114082164Y-97540160D01*
X113811231Y-97733684D02*
X113501593Y-97733684D01*
X113695117Y-97462751D02*
X113695117Y-98159436D01*
X113656412Y-98236846D01*
X113579002Y-98275551D01*
X113501593Y-98275551D01*
X113230660Y-98275551D02*
X113230660Y-97462751D01*
X112882317Y-98275551D02*
X112882317Y-97849798D01*
X112921021Y-97772389D01*
X112998431Y-97733684D01*
X113114545Y-97733684D01*
X113191955Y-97772389D01*
X113230660Y-97811094D01*
X112495269Y-98275551D02*
X112495269Y-97733684D01*
X112495269Y-97462751D02*
X112533974Y-97501456D01*
X112495269Y-97540160D01*
X112456564Y-97501456D01*
X112495269Y-97462751D01*
X112495269Y-97540160D01*
X112108221Y-97733684D02*
X112108221Y-98275551D01*
X112108221Y-97811094D02*
X112069517Y-97772389D01*
X111992107Y-97733684D01*
X111875993Y-97733684D01*
X111798583Y-97772389D01*
X111759879Y-97849798D01*
X111759879Y-98275551D01*
X110753555Y-98275551D02*
X110753555Y-97733684D01*
X110753555Y-97888503D02*
X110714850Y-97811094D01*
X110676145Y-97772389D01*
X110598736Y-97733684D01*
X110521326Y-97733684D01*
X109902050Y-98275551D02*
X109902050Y-97849798D01*
X109940755Y-97772389D01*
X110018164Y-97733684D01*
X110172983Y-97733684D01*
X110250393Y-97772389D01*
X109902050Y-98236846D02*
X109979460Y-98275551D01*
X110172983Y-98275551D01*
X110250393Y-98236846D01*
X110289098Y-98159436D01*
X110289098Y-98082027D01*
X110250393Y-98004617D01*
X110172983Y-97965913D01*
X109979460Y-97965913D01*
X109902050Y-97927208D01*
X109515002Y-97733684D02*
X109515002Y-98275551D01*
X109515002Y-97811094D02*
X109476298Y-97772389D01*
X109398888Y-97733684D01*
X109282774Y-97733684D01*
X109205364Y-97772389D01*
X109166660Y-97849798D01*
X109166660Y-98275551D01*
X108431269Y-97733684D02*
X108431269Y-98391665D01*
X108469974Y-98469075D01*
X108508679Y-98507779D01*
X108586088Y-98546484D01*
X108702202Y-98546484D01*
X108779612Y-98507779D01*
X108431269Y-98236846D02*
X108508679Y-98275551D01*
X108663498Y-98275551D01*
X108740907Y-98236846D01*
X108779612Y-98198141D01*
X108818317Y-98120732D01*
X108818317Y-97888503D01*
X108779612Y-97811094D01*
X108740907Y-97772389D01*
X108663498Y-97733684D01*
X108508679Y-97733684D01*
X108431269Y-97772389D01*
X107734583Y-98236846D02*
X107811993Y-98275551D01*
X107966812Y-98275551D01*
X108044221Y-98236846D01*
X108082926Y-98159436D01*
X108082926Y-97849798D01*
X108044221Y-97772389D01*
X107966812Y-97733684D01*
X107811993Y-97733684D01*
X107734583Y-97772389D01*
X107695879Y-97849798D01*
X107695879Y-97927208D01*
X108082926Y-98004617D01*
X121010317Y-100892767D02*
X121281250Y-100505719D01*
X121474774Y-100892767D02*
X121474774Y-100079967D01*
X121165136Y-100079967D01*
X121087726Y-100118672D01*
X121049021Y-100157376D01*
X121010317Y-100234786D01*
X121010317Y-100350900D01*
X121049021Y-100428310D01*
X121087726Y-100467014D01*
X121165136Y-100505719D01*
X121474774Y-100505719D01*
X120352336Y-100854062D02*
X120429745Y-100892767D01*
X120584564Y-100892767D01*
X120661974Y-100854062D01*
X120700679Y-100776652D01*
X120700679Y-100467014D01*
X120661974Y-100389605D01*
X120584564Y-100350900D01*
X120429745Y-100350900D01*
X120352336Y-100389605D01*
X120313631Y-100467014D01*
X120313631Y-100544424D01*
X120700679Y-100621833D01*
X119965288Y-100892767D02*
X119965288Y-100350900D01*
X119965288Y-100428310D02*
X119926583Y-100389605D01*
X119849174Y-100350900D01*
X119733060Y-100350900D01*
X119655650Y-100389605D01*
X119616945Y-100467014D01*
X119616945Y-100892767D01*
X119616945Y-100467014D02*
X119578240Y-100389605D01*
X119500831Y-100350900D01*
X119384717Y-100350900D01*
X119307307Y-100389605D01*
X119268602Y-100467014D01*
X119268602Y-100892767D01*
X118765440Y-100892767D02*
X118842850Y-100854062D01*
X118881555Y-100815357D01*
X118920260Y-100737948D01*
X118920260Y-100505719D01*
X118881555Y-100428310D01*
X118842850Y-100389605D01*
X118765440Y-100350900D01*
X118649326Y-100350900D01*
X118571917Y-100389605D01*
X118533212Y-100428310D01*
X118494507Y-100505719D01*
X118494507Y-100737948D01*
X118533212Y-100815357D01*
X118571917Y-100854062D01*
X118649326Y-100892767D01*
X118765440Y-100892767D01*
X118262279Y-100350900D02*
X117952640Y-100350900D01*
X118146164Y-100079967D02*
X118146164Y-100776652D01*
X118107460Y-100854062D01*
X118030050Y-100892767D01*
X117952640Y-100892767D01*
X117372069Y-100854062D02*
X117449479Y-100892767D01*
X117604298Y-100892767D01*
X117681707Y-100854062D01*
X117720412Y-100776652D01*
X117720412Y-100467014D01*
X117681707Y-100389605D01*
X117604298Y-100350900D01*
X117449479Y-100350900D01*
X117372069Y-100389605D01*
X117333364Y-100467014D01*
X117333364Y-100544424D01*
X117720412Y-100621833D01*
X116985021Y-100815357D02*
X116946317Y-100854062D01*
X116985021Y-100892767D01*
X117023726Y-100854062D01*
X116985021Y-100815357D01*
X116985021Y-100892767D01*
X116985021Y-100389605D02*
X116946317Y-100428310D01*
X116985021Y-100467014D01*
X117023726Y-100428310D01*
X116985021Y-100389605D01*
X116985021Y-100467014D01*
X115978698Y-100892767D02*
X115978698Y-100079967D01*
X115630355Y-100157376D02*
X115591650Y-100118672D01*
X115514240Y-100079967D01*
X115320717Y-100079967D01*
X115243307Y-100118672D01*
X115204602Y-100157376D01*
X115165898Y-100234786D01*
X115165898Y-100312195D01*
X115204602Y-100428310D01*
X115669060Y-100892767D01*
X115165898Y-100892767D01*
X114353098Y-100815357D02*
X114391802Y-100854062D01*
X114507917Y-100892767D01*
X114585326Y-100892767D01*
X114701440Y-100854062D01*
X114778850Y-100776652D01*
X114817555Y-100699243D01*
X114856260Y-100544424D01*
X114856260Y-100428310D01*
X114817555Y-100273491D01*
X114778850Y-100196081D01*
X114701440Y-100118672D01*
X114585326Y-100079967D01*
X114507917Y-100079967D01*
X114391802Y-100118672D01*
X114353098Y-100157376D01*
X113849936Y-100079967D02*
X113772526Y-100079967D01*
X113695117Y-100118672D01*
X113656412Y-100157376D01*
X113617707Y-100234786D01*
X113579002Y-100389605D01*
X113579002Y-100583129D01*
X113617707Y-100737948D01*
X113656412Y-100815357D01*
X113695117Y-100854062D01*
X113772526Y-100892767D01*
X113849936Y-100892767D01*
X113927345Y-100854062D01*
X113966050Y-100815357D01*
X114004755Y-100737948D01*
X114043460Y-100583129D01*
X114043460Y-100389605D01*
X114004755Y-100234786D01*
X113966050Y-100157376D01*
X113927345Y-100118672D01*
X113849936Y-100079967D01*
X112379155Y-101202405D02*
X112417860Y-101163700D01*
X112495269Y-101047586D01*
X112533974Y-100970176D01*
X112572679Y-100854062D01*
X112611383Y-100660538D01*
X112611383Y-100505719D01*
X112572679Y-100312195D01*
X112533974Y-100196081D01*
X112495269Y-100118672D01*
X112417860Y-100002557D01*
X112379155Y-99963852D01*
X111643764Y-100118672D02*
X111721174Y-100079967D01*
X111837288Y-100079967D01*
X111953402Y-100118672D01*
X112030812Y-100196081D01*
X112069517Y-100273491D01*
X112108221Y-100428310D01*
X112108221Y-100544424D01*
X112069517Y-100699243D01*
X112030812Y-100776652D01*
X111953402Y-100854062D01*
X111837288Y-100892767D01*
X111759879Y-100892767D01*
X111643764Y-100854062D01*
X111605060Y-100815357D01*
X111605060Y-100544424D01*
X111759879Y-100544424D01*
X111256717Y-100892767D02*
X111256717Y-100079967D01*
X110947079Y-100079967D01*
X110869669Y-100118672D01*
X110830964Y-100157376D01*
X110792260Y-100234786D01*
X110792260Y-100350900D01*
X110830964Y-100428310D01*
X110869669Y-100467014D01*
X110947079Y-100505719D01*
X111256717Y-100505719D01*
X110289098Y-100079967D02*
X110211688Y-100079967D01*
X110134279Y-100118672D01*
X110095574Y-100157376D01*
X110056869Y-100234786D01*
X110018164Y-100389605D01*
X110018164Y-100583129D01*
X110056869Y-100737948D01*
X110095574Y-100815357D01*
X110134279Y-100854062D01*
X110211688Y-100892767D01*
X110289098Y-100892767D01*
X110366507Y-100854062D01*
X110405212Y-100815357D01*
X110443917Y-100737948D01*
X110482621Y-100583129D01*
X110482621Y-100389605D01*
X110443917Y-100234786D01*
X110405212Y-100157376D01*
X110366507Y-100118672D01*
X110289098Y-100079967D01*
X109669821Y-100583129D02*
X109050545Y-100583129D01*
X108237745Y-100892767D02*
X108702202Y-100892767D01*
X108469974Y-100892767D02*
X108469974Y-100079967D01*
X108547383Y-100196081D01*
X108624793Y-100273491D01*
X108702202Y-100312195D01*
X107966812Y-101202405D02*
X107928107Y-101163700D01*
X107850698Y-101047586D01*
X107811993Y-100970176D01*
X107773288Y-100854062D01*
X107734583Y-100660538D01*
X107734583Y-100505719D01*
X107773288Y-100312195D01*
X107811993Y-100196081D01*
X107850698Y-100118672D01*
X107928107Y-100002557D01*
X107966812Y-99963852D01*
X118107460Y-102201375D02*
X118107460Y-101388575D01*
X117913936Y-101388575D01*
X117797821Y-101427280D01*
X117720412Y-101504689D01*
X117681707Y-101582099D01*
X117643002Y-101736918D01*
X117643002Y-101853032D01*
X117681707Y-102007851D01*
X117720412Y-102085260D01*
X117797821Y-102162670D01*
X117913936Y-102201375D01*
X118107460Y-102201375D01*
X116946317Y-102201375D02*
X116946317Y-101775622D01*
X116985021Y-101698213D01*
X117062431Y-101659508D01*
X117217250Y-101659508D01*
X117294660Y-101698213D01*
X116946317Y-102162670D02*
X117023726Y-102201375D01*
X117217250Y-102201375D01*
X117294660Y-102162670D01*
X117333364Y-102085260D01*
X117333364Y-102007851D01*
X117294660Y-101930441D01*
X117217250Y-101891737D01*
X117023726Y-101891737D01*
X116946317Y-101853032D01*
X116675383Y-101659508D02*
X116365745Y-101659508D01*
X116559269Y-101388575D02*
X116559269Y-102085260D01*
X116520564Y-102162670D01*
X116443155Y-102201375D01*
X116365745Y-102201375D01*
X115746469Y-102201375D02*
X115746469Y-101775622D01*
X115785174Y-101698213D01*
X115862583Y-101659508D01*
X116017402Y-101659508D01*
X116094812Y-101698213D01*
X115746469Y-102162670D02*
X115823879Y-102201375D01*
X116017402Y-102201375D01*
X116094812Y-102162670D01*
X116133517Y-102085260D01*
X116133517Y-102007851D01*
X116094812Y-101930441D01*
X116017402Y-101891737D01*
X115823879Y-101891737D01*
X115746469Y-101853032D01*
X114469212Y-101775622D02*
X114353098Y-101814327D01*
X114314393Y-101853032D01*
X114275688Y-101930441D01*
X114275688Y-102046556D01*
X114314393Y-102123965D01*
X114353098Y-102162670D01*
X114430507Y-102201375D01*
X114740145Y-102201375D01*
X114740145Y-101388575D01*
X114469212Y-101388575D01*
X114391802Y-101427280D01*
X114353098Y-101465984D01*
X114314393Y-101543394D01*
X114314393Y-101620803D01*
X114353098Y-101698213D01*
X114391802Y-101736918D01*
X114469212Y-101775622D01*
X114740145Y-101775622D01*
X113579002Y-101659508D02*
X113579002Y-102201375D01*
X113927345Y-101659508D02*
X113927345Y-102085260D01*
X113888640Y-102162670D01*
X113811231Y-102201375D01*
X113695117Y-102201375D01*
X113617707Y-102162670D01*
X113579002Y-102123965D01*
X113230660Y-102162670D02*
X113153250Y-102201375D01*
X112998431Y-102201375D01*
X112921021Y-102162670D01*
X112882317Y-102085260D01*
X112882317Y-102046556D01*
X112921021Y-101969146D01*
X112998431Y-101930441D01*
X113114545Y-101930441D01*
X113191955Y-101891737D01*
X113230660Y-101814327D01*
X113230660Y-101775622D01*
X113191955Y-101698213D01*
X113114545Y-101659508D01*
X112998431Y-101659508D01*
X112921021Y-101698213D01*
X112533974Y-102123965D02*
X112495269Y-102162670D01*
X112533974Y-102201375D01*
X112572679Y-102162670D01*
X112533974Y-102123965D01*
X112533974Y-102201375D01*
X112533974Y-101698213D02*
X112495269Y-101736918D01*
X112533974Y-101775622D01*
X112572679Y-101736918D01*
X112533974Y-101698213D01*
X112533974Y-101775622D01*
X111101898Y-101427280D02*
X111179307Y-101388575D01*
X111295421Y-101388575D01*
X111411536Y-101427280D01*
X111488945Y-101504689D01*
X111527650Y-101582099D01*
X111566355Y-101736918D01*
X111566355Y-101853032D01*
X111527650Y-102007851D01*
X111488945Y-102085260D01*
X111411536Y-102162670D01*
X111295421Y-102201375D01*
X111218012Y-102201375D01*
X111101898Y-102162670D01*
X111063193Y-102123965D01*
X111063193Y-101853032D01*
X111218012Y-101853032D01*
X110714850Y-102201375D02*
X110714850Y-101388575D01*
X110405212Y-101388575D01*
X110327802Y-101427280D01*
X110289098Y-101465984D01*
X110250393Y-101543394D01*
X110250393Y-101659508D01*
X110289098Y-101736918D01*
X110327802Y-101775622D01*
X110405212Y-101814327D01*
X110714850Y-101814327D01*
X109940755Y-101465984D02*
X109902050Y-101427280D01*
X109824640Y-101388575D01*
X109631117Y-101388575D01*
X109553707Y-101427280D01*
X109515002Y-101465984D01*
X109476298Y-101543394D01*
X109476298Y-101620803D01*
X109515002Y-101736918D01*
X109979460Y-102201375D01*
X109476298Y-102201375D01*
X109127955Y-101891737D02*
X108508679Y-101891737D01*
X108082926Y-102201375D02*
X107928107Y-102201375D01*
X107850698Y-102162670D01*
X107811993Y-102123965D01*
X107734583Y-102007851D01*
X107695879Y-101853032D01*
X107695879Y-101543394D01*
X107734583Y-101465984D01*
X107773288Y-101427280D01*
X107850698Y-101388575D01*
X108005517Y-101388575D01*
X108082926Y-101427280D01*
X108121631Y-101465984D01*
X108160336Y-101543394D01*
X108160336Y-101736918D01*
X108121631Y-101814327D01*
X108082926Y-101853032D01*
X108005517Y-101891737D01*
X107850698Y-101891737D01*
X107773288Y-101853032D01*
X107734583Y-101814327D01*
X107695879Y-101736918D01*
X119616945Y-103277754D02*
X119229898Y-103277754D01*
X119694355Y-103509983D02*
X119423421Y-102697183D01*
X119152488Y-103509983D01*
X118533212Y-103509983D02*
X118533212Y-102697183D01*
X118533212Y-103471278D02*
X118610621Y-103509983D01*
X118765440Y-103509983D01*
X118842850Y-103471278D01*
X118881555Y-103432573D01*
X118920260Y-103355164D01*
X118920260Y-103122935D01*
X118881555Y-103045526D01*
X118842850Y-103006821D01*
X118765440Y-102968116D01*
X118610621Y-102968116D01*
X118533212Y-103006821D01*
X117797821Y-103509983D02*
X117797821Y-102697183D01*
X117797821Y-103471278D02*
X117875231Y-103509983D01*
X118030050Y-103509983D01*
X118107460Y-103471278D01*
X118146164Y-103432573D01*
X118184869Y-103355164D01*
X118184869Y-103122935D01*
X118146164Y-103045526D01*
X118107460Y-103006821D01*
X118030050Y-102968116D01*
X117875231Y-102968116D01*
X117797821Y-103006821D01*
X117410774Y-103509983D02*
X117410774Y-102968116D01*
X117410774Y-103122935D02*
X117372069Y-103045526D01*
X117333364Y-103006821D01*
X117255955Y-102968116D01*
X117178545Y-102968116D01*
X116017402Y-103084230D02*
X115901288Y-103122935D01*
X115862583Y-103161640D01*
X115823879Y-103239049D01*
X115823879Y-103355164D01*
X115862583Y-103432573D01*
X115901288Y-103471278D01*
X115978698Y-103509983D01*
X116288336Y-103509983D01*
X116288336Y-102697183D01*
X116017402Y-102697183D01*
X115939993Y-102735888D01*
X115901288Y-102774592D01*
X115862583Y-102852002D01*
X115862583Y-102929411D01*
X115901288Y-103006821D01*
X115939993Y-103045526D01*
X116017402Y-103084230D01*
X116288336Y-103084230D01*
X115127193Y-102968116D02*
X115127193Y-103509983D01*
X115475536Y-102968116D02*
X115475536Y-103393868D01*
X115436831Y-103471278D01*
X115359421Y-103509983D01*
X115243307Y-103509983D01*
X115165898Y-103471278D01*
X115127193Y-103432573D01*
X114778850Y-103471278D02*
X114701440Y-103509983D01*
X114546621Y-103509983D01*
X114469212Y-103471278D01*
X114430507Y-103393868D01*
X114430507Y-103355164D01*
X114469212Y-103277754D01*
X114546621Y-103239049D01*
X114662736Y-103239049D01*
X114740145Y-103200345D01*
X114778850Y-103122935D01*
X114778850Y-103084230D01*
X114740145Y-103006821D01*
X114662736Y-102968116D01*
X114546621Y-102968116D01*
X114469212Y-103006821D01*
X114082164Y-103432573D02*
X114043460Y-103471278D01*
X114082164Y-103509983D01*
X114120869Y-103471278D01*
X114082164Y-103432573D01*
X114082164Y-103509983D01*
X114082164Y-103006821D02*
X114043460Y-103045526D01*
X114082164Y-103084230D01*
X114120869Y-103045526D01*
X114082164Y-103006821D01*
X114082164Y-103084230D01*
X112650088Y-102735888D02*
X112727498Y-102697183D01*
X112843612Y-102697183D01*
X112959726Y-102735888D01*
X113037136Y-102813297D01*
X113075840Y-102890707D01*
X113114545Y-103045526D01*
X113114545Y-103161640D01*
X113075840Y-103316459D01*
X113037136Y-103393868D01*
X112959726Y-103471278D01*
X112843612Y-103509983D01*
X112766202Y-103509983D01*
X112650088Y-103471278D01*
X112611383Y-103432573D01*
X112611383Y-103161640D01*
X112766202Y-103161640D01*
X112263040Y-103509983D02*
X112263040Y-102697183D01*
X111953402Y-102697183D01*
X111875993Y-102735888D01*
X111837288Y-102774592D01*
X111798583Y-102852002D01*
X111798583Y-102968116D01*
X111837288Y-103045526D01*
X111875993Y-103084230D01*
X111953402Y-103122935D01*
X112263040Y-103122935D01*
X111024488Y-103509983D02*
X111488945Y-103509983D01*
X111256717Y-103509983D02*
X111256717Y-102697183D01*
X111334126Y-102813297D01*
X111411536Y-102890707D01*
X111488945Y-102929411D01*
X110521326Y-102697183D02*
X110443917Y-102697183D01*
X110366507Y-102735888D01*
X110327802Y-102774592D01*
X110289098Y-102852002D01*
X110250393Y-103006821D01*
X110250393Y-103200345D01*
X110289098Y-103355164D01*
X110327802Y-103432573D01*
X110366507Y-103471278D01*
X110443917Y-103509983D01*
X110521326Y-103509983D01*
X110598736Y-103471278D01*
X110637440Y-103432573D01*
X110676145Y-103355164D01*
X110714850Y-103200345D01*
X110714850Y-103006821D01*
X110676145Y-102852002D01*
X110637440Y-102774592D01*
X110598736Y-102735888D01*
X110521326Y-102697183D01*
X109902050Y-103200345D02*
X109282774Y-103200345D01*
X108469974Y-103509983D02*
X108934431Y-103509983D01*
X108702202Y-103509983D02*
X108702202Y-102697183D01*
X108779612Y-102813297D01*
X108857021Y-102890707D01*
X108934431Y-102929411D01*
X108199040Y-102697183D02*
X107657174Y-102697183D01*
X108005517Y-103509983D01*
X117681707Y-104392838D02*
X117565593Y-104431543D01*
X117526888Y-104470248D01*
X117488183Y-104547657D01*
X117488183Y-104663772D01*
X117526888Y-104741181D01*
X117565593Y-104779886D01*
X117643002Y-104818591D01*
X117952640Y-104818591D01*
X117952640Y-104005791D01*
X117681707Y-104005791D01*
X117604298Y-104044496D01*
X117565593Y-104083200D01*
X117526888Y-104160610D01*
X117526888Y-104238019D01*
X117565593Y-104315429D01*
X117604298Y-104354134D01*
X117681707Y-104392838D01*
X117952640Y-104392838D01*
X116791498Y-104276724D02*
X116791498Y-104818591D01*
X117139840Y-104276724D02*
X117139840Y-104702476D01*
X117101136Y-104779886D01*
X117023726Y-104818591D01*
X116907612Y-104818591D01*
X116830202Y-104779886D01*
X116791498Y-104741181D01*
X116443155Y-104779886D02*
X116365745Y-104818591D01*
X116210926Y-104818591D01*
X116133517Y-104779886D01*
X116094812Y-104702476D01*
X116094812Y-104663772D01*
X116133517Y-104586362D01*
X116210926Y-104547657D01*
X116327040Y-104547657D01*
X116404450Y-104508953D01*
X116443155Y-104431543D01*
X116443155Y-104392838D01*
X116404450Y-104315429D01*
X116327040Y-104276724D01*
X116210926Y-104276724D01*
X116133517Y-104315429D01*
X114662736Y-104818591D02*
X114933669Y-104431543D01*
X115127193Y-104818591D02*
X115127193Y-104005791D01*
X114817555Y-104005791D01*
X114740145Y-104044496D01*
X114701440Y-104083200D01*
X114662736Y-104160610D01*
X114662736Y-104276724D01*
X114701440Y-104354134D01*
X114740145Y-104392838D01*
X114817555Y-104431543D01*
X115127193Y-104431543D01*
X114004755Y-104779886D02*
X114082164Y-104818591D01*
X114236983Y-104818591D01*
X114314393Y-104779886D01*
X114353098Y-104702476D01*
X114353098Y-104392838D01*
X114314393Y-104315429D01*
X114236983Y-104276724D01*
X114082164Y-104276724D01*
X114004755Y-104315429D01*
X113966050Y-104392838D01*
X113966050Y-104470248D01*
X114353098Y-104547657D01*
X113269364Y-104818591D02*
X113269364Y-104392838D01*
X113308069Y-104315429D01*
X113385479Y-104276724D01*
X113540298Y-104276724D01*
X113617707Y-104315429D01*
X113269364Y-104779886D02*
X113346774Y-104818591D01*
X113540298Y-104818591D01*
X113617707Y-104779886D01*
X113656412Y-104702476D01*
X113656412Y-104625067D01*
X113617707Y-104547657D01*
X113540298Y-104508953D01*
X113346774Y-104508953D01*
X113269364Y-104470248D01*
X112533974Y-104818591D02*
X112533974Y-104005791D01*
X112533974Y-104779886D02*
X112611383Y-104818591D01*
X112766202Y-104818591D01*
X112843612Y-104779886D01*
X112882317Y-104741181D01*
X112921021Y-104663772D01*
X112921021Y-104431543D01*
X112882317Y-104354134D01*
X112843612Y-104315429D01*
X112766202Y-104276724D01*
X112611383Y-104276724D01*
X112533974Y-104315429D01*
X112224336Y-104276724D02*
X112030812Y-104818591D01*
X111837288Y-104276724D02*
X112030812Y-104818591D01*
X112108221Y-105012115D01*
X112146926Y-105050819D01*
X112224336Y-105089524D01*
X111527650Y-104741181D02*
X111488945Y-104779886D01*
X111527650Y-104818591D01*
X111566355Y-104779886D01*
X111527650Y-104741181D01*
X111527650Y-104818591D01*
X111527650Y-104315429D02*
X111488945Y-104354134D01*
X111527650Y-104392838D01*
X111566355Y-104354134D01*
X111527650Y-104315429D01*
X111527650Y-104392838D01*
X110095574Y-104044496D02*
X110172983Y-104005791D01*
X110289098Y-104005791D01*
X110405212Y-104044496D01*
X110482621Y-104121905D01*
X110521326Y-104199315D01*
X110560031Y-104354134D01*
X110560031Y-104470248D01*
X110521326Y-104625067D01*
X110482621Y-104702476D01*
X110405212Y-104779886D01*
X110289098Y-104818591D01*
X110211688Y-104818591D01*
X110095574Y-104779886D01*
X110056869Y-104741181D01*
X110056869Y-104470248D01*
X110211688Y-104470248D01*
X109708526Y-104818591D02*
X109708526Y-104005791D01*
X109398888Y-104005791D01*
X109321479Y-104044496D01*
X109282774Y-104083200D01*
X109244069Y-104160610D01*
X109244069Y-104276724D01*
X109282774Y-104354134D01*
X109321479Y-104392838D01*
X109398888Y-104431543D01*
X109708526Y-104431543D01*
X108469974Y-104818591D02*
X108934431Y-104818591D01*
X108702202Y-104818591D02*
X108702202Y-104005791D01*
X108779612Y-104121905D01*
X108857021Y-104199315D01*
X108934431Y-104238019D01*
X108005517Y-104354134D02*
X108082926Y-104315429D01*
X108121631Y-104276724D01*
X108160336Y-104199315D01*
X108160336Y-104160610D01*
X108121631Y-104083200D01*
X108082926Y-104044496D01*
X108005517Y-104005791D01*
X107850698Y-104005791D01*
X107773288Y-104044496D01*
X107734583Y-104083200D01*
X107695879Y-104160610D01*
X107695879Y-104199315D01*
X107734583Y-104276724D01*
X107773288Y-104315429D01*
X107850698Y-104354134D01*
X108005517Y-104354134D01*
X108082926Y-104392838D01*
X108121631Y-104431543D01*
X108160336Y-104508953D01*
X108160336Y-104663772D01*
X108121631Y-104741181D01*
X108082926Y-104779886D01*
X108005517Y-104818591D01*
X107850698Y-104818591D01*
X107773288Y-104779886D01*
X107734583Y-104741181D01*
X107695879Y-104663772D01*
X107695879Y-104508953D01*
X107734583Y-104431543D01*
X107773288Y-104392838D01*
X107850698Y-104354134D01*
X117449479Y-105894970D02*
X117062431Y-105894970D01*
X117526888Y-106127199D02*
X117255955Y-105314399D01*
X116985021Y-106127199D01*
X116365745Y-106127199D02*
X116365745Y-105314399D01*
X116365745Y-106088494D02*
X116443155Y-106127199D01*
X116597974Y-106127199D01*
X116675383Y-106088494D01*
X116714088Y-106049789D01*
X116752793Y-105972380D01*
X116752793Y-105740151D01*
X116714088Y-105662742D01*
X116675383Y-105624037D01*
X116597974Y-105585332D01*
X116443155Y-105585332D01*
X116365745Y-105624037D01*
X115630355Y-106127199D02*
X115630355Y-105314399D01*
X115630355Y-106088494D02*
X115707764Y-106127199D01*
X115862583Y-106127199D01*
X115939993Y-106088494D01*
X115978698Y-106049789D01*
X116017402Y-105972380D01*
X116017402Y-105740151D01*
X115978698Y-105662742D01*
X115939993Y-105624037D01*
X115862583Y-105585332D01*
X115707764Y-105585332D01*
X115630355Y-105624037D01*
X115243307Y-106127199D02*
X115243307Y-105585332D01*
X115243307Y-105740151D02*
X115204602Y-105662742D01*
X115165898Y-105624037D01*
X115088488Y-105585332D01*
X115011079Y-105585332D01*
X113849936Y-105701446D02*
X113733821Y-105740151D01*
X113695117Y-105778856D01*
X113656412Y-105856265D01*
X113656412Y-105972380D01*
X113695117Y-106049789D01*
X113733821Y-106088494D01*
X113811231Y-106127199D01*
X114120869Y-106127199D01*
X114120869Y-105314399D01*
X113849936Y-105314399D01*
X113772526Y-105353104D01*
X113733821Y-105391808D01*
X113695117Y-105469218D01*
X113695117Y-105546627D01*
X113733821Y-105624037D01*
X113772526Y-105662742D01*
X113849936Y-105701446D01*
X114120869Y-105701446D01*
X113385479Y-105585332D02*
X113191955Y-106127199D01*
X112998431Y-105585332D02*
X113191955Y-106127199D01*
X113269364Y-106320723D01*
X113308069Y-106359427D01*
X113385479Y-106398132D01*
X112804907Y-105585332D02*
X112495269Y-105585332D01*
X112688793Y-105314399D02*
X112688793Y-106011084D01*
X112650088Y-106088494D01*
X112572679Y-106127199D01*
X112495269Y-106127199D01*
X111914698Y-106088494D02*
X111992107Y-106127199D01*
X112146926Y-106127199D01*
X112224336Y-106088494D01*
X112263040Y-106011084D01*
X112263040Y-105701446D01*
X112224336Y-105624037D01*
X112146926Y-105585332D01*
X111992107Y-105585332D01*
X111914698Y-105624037D01*
X111875993Y-105701446D01*
X111875993Y-105778856D01*
X112263040Y-105856265D01*
X111527650Y-106049789D02*
X111488945Y-106088494D01*
X111527650Y-106127199D01*
X111566355Y-106088494D01*
X111527650Y-106049789D01*
X111527650Y-106127199D01*
X111527650Y-105624037D02*
X111488945Y-105662742D01*
X111527650Y-105701446D01*
X111566355Y-105662742D01*
X111527650Y-105624037D01*
X111527650Y-105701446D01*
X110095574Y-105353104D02*
X110172983Y-105314399D01*
X110289098Y-105314399D01*
X110405212Y-105353104D01*
X110482621Y-105430513D01*
X110521326Y-105507923D01*
X110560031Y-105662742D01*
X110560031Y-105778856D01*
X110521326Y-105933675D01*
X110482621Y-106011084D01*
X110405212Y-106088494D01*
X110289098Y-106127199D01*
X110211688Y-106127199D01*
X110095574Y-106088494D01*
X110056869Y-106049789D01*
X110056869Y-105778856D01*
X110211688Y-105778856D01*
X109708526Y-106127199D02*
X109708526Y-105314399D01*
X109398888Y-105314399D01*
X109321479Y-105353104D01*
X109282774Y-105391808D01*
X109244069Y-105469218D01*
X109244069Y-105585332D01*
X109282774Y-105662742D01*
X109321479Y-105701446D01*
X109398888Y-105740151D01*
X109708526Y-105740151D01*
X108469974Y-106127199D02*
X108934431Y-106127199D01*
X108702202Y-106127199D02*
X108702202Y-105314399D01*
X108779612Y-105430513D01*
X108857021Y-105507923D01*
X108934431Y-105546627D01*
X108082926Y-106127199D02*
X107928107Y-106127199D01*
X107850698Y-106088494D01*
X107811993Y-106049789D01*
X107734583Y-105933675D01*
X107695879Y-105778856D01*
X107695879Y-105469218D01*
X107734583Y-105391808D01*
X107773288Y-105353104D01*
X107850698Y-105314399D01*
X108005517Y-105314399D01*
X108082926Y-105353104D01*
X108121631Y-105391808D01*
X108160336Y-105469218D01*
X108160336Y-105662742D01*
X108121631Y-105740151D01*
X108082926Y-105778856D01*
X108005517Y-105817561D01*
X107850698Y-105817561D01*
X107773288Y-105778856D01*
X107734583Y-105740151D01*
X107695879Y-105662742D01*
X117333364Y-107435807D02*
X117333364Y-106623007D01*
X116985021Y-107397102D02*
X116868907Y-107435807D01*
X116675383Y-107435807D01*
X116597974Y-107397102D01*
X116559269Y-107358397D01*
X116520564Y-107280988D01*
X116520564Y-107203578D01*
X116559269Y-107126169D01*
X116597974Y-107087464D01*
X116675383Y-107048759D01*
X116830202Y-107010054D01*
X116907612Y-106971350D01*
X116946317Y-106932645D01*
X116985021Y-106855235D01*
X116985021Y-106777826D01*
X116946317Y-106700416D01*
X116907612Y-106661712D01*
X116830202Y-106623007D01*
X116636679Y-106623007D01*
X116520564Y-106661712D01*
X116210926Y-107203578D02*
X115823879Y-107203578D01*
X116288336Y-107435807D02*
X116017402Y-106623007D01*
X115746469Y-107435807D01*
X114391802Y-107358397D02*
X114430507Y-107397102D01*
X114546621Y-107435807D01*
X114624031Y-107435807D01*
X114740145Y-107397102D01*
X114817555Y-107319692D01*
X114856260Y-107242283D01*
X114894964Y-107087464D01*
X114894964Y-106971350D01*
X114856260Y-106816531D01*
X114817555Y-106739121D01*
X114740145Y-106661712D01*
X114624031Y-106623007D01*
X114546621Y-106623007D01*
X114430507Y-106661712D01*
X114391802Y-106700416D01*
X113927345Y-107435807D02*
X114004755Y-107397102D01*
X114043460Y-107319692D01*
X114043460Y-106623007D01*
X113501593Y-107435807D02*
X113579002Y-107397102D01*
X113617707Y-107358397D01*
X113656412Y-107280988D01*
X113656412Y-107048759D01*
X113617707Y-106971350D01*
X113579002Y-106932645D01*
X113501593Y-106893940D01*
X113385479Y-106893940D01*
X113308069Y-106932645D01*
X113269364Y-106971350D01*
X113230660Y-107048759D01*
X113230660Y-107280988D01*
X113269364Y-107358397D01*
X113308069Y-107397102D01*
X113385479Y-107435807D01*
X113501593Y-107435807D01*
X112533974Y-107397102D02*
X112611383Y-107435807D01*
X112766202Y-107435807D01*
X112843612Y-107397102D01*
X112882317Y-107358397D01*
X112921021Y-107280988D01*
X112921021Y-107048759D01*
X112882317Y-106971350D01*
X112843612Y-106932645D01*
X112766202Y-106893940D01*
X112611383Y-106893940D01*
X112533974Y-106932645D01*
X112185631Y-107435807D02*
X112185631Y-106623007D01*
X112108221Y-107126169D02*
X111875993Y-107435807D01*
X111875993Y-106893940D02*
X112185631Y-107203578D01*
X111527650Y-107358397D02*
X111488945Y-107397102D01*
X111527650Y-107435807D01*
X111566355Y-107397102D01*
X111527650Y-107358397D01*
X111527650Y-107435807D01*
X111527650Y-106932645D02*
X111488945Y-106971350D01*
X111527650Y-107010054D01*
X111566355Y-106971350D01*
X111527650Y-106932645D01*
X111527650Y-107010054D01*
X110095574Y-106661712D02*
X110172983Y-106623007D01*
X110289098Y-106623007D01*
X110405212Y-106661712D01*
X110482621Y-106739121D01*
X110521326Y-106816531D01*
X110560031Y-106971350D01*
X110560031Y-107087464D01*
X110521326Y-107242283D01*
X110482621Y-107319692D01*
X110405212Y-107397102D01*
X110289098Y-107435807D01*
X110211688Y-107435807D01*
X110095574Y-107397102D01*
X110056869Y-107358397D01*
X110056869Y-107087464D01*
X110211688Y-107087464D01*
X109708526Y-107435807D02*
X109708526Y-106623007D01*
X109398888Y-106623007D01*
X109321479Y-106661712D01*
X109282774Y-106700416D01*
X109244069Y-106777826D01*
X109244069Y-106893940D01*
X109282774Y-106971350D01*
X109321479Y-107010054D01*
X109398888Y-107048759D01*
X109708526Y-107048759D01*
X108934431Y-106700416D02*
X108895726Y-106661712D01*
X108818317Y-106623007D01*
X108624793Y-106623007D01*
X108547383Y-106661712D01*
X108508679Y-106700416D01*
X108469974Y-106777826D01*
X108469974Y-106855235D01*
X108508679Y-106971350D01*
X108973136Y-107435807D01*
X108469974Y-107435807D01*
X107966812Y-106623007D02*
X107889402Y-106623007D01*
X107811993Y-106661712D01*
X107773288Y-106700416D01*
X107734583Y-106777826D01*
X107695879Y-106932645D01*
X107695879Y-107126169D01*
X107734583Y-107280988D01*
X107773288Y-107358397D01*
X107811993Y-107397102D01*
X107889402Y-107435807D01*
X107966812Y-107435807D01*
X108044221Y-107397102D01*
X108082926Y-107358397D01*
X108121631Y-107280988D01*
X108160336Y-107126169D01*
X108160336Y-106932645D01*
X108121631Y-106777826D01*
X108082926Y-106700416D01*
X108044221Y-106661712D01*
X107966812Y-106623007D01*
X118223574Y-108744415D02*
X118494507Y-108357367D01*
X118688031Y-108744415D02*
X118688031Y-107931615D01*
X118378393Y-107931615D01*
X118300983Y-107970320D01*
X118262279Y-108009024D01*
X118223574Y-108086434D01*
X118223574Y-108202548D01*
X118262279Y-108279958D01*
X118300983Y-108318662D01*
X118378393Y-108357367D01*
X118688031Y-108357367D01*
X117565593Y-108705710D02*
X117643002Y-108744415D01*
X117797821Y-108744415D01*
X117875231Y-108705710D01*
X117913936Y-108628300D01*
X117913936Y-108318662D01*
X117875231Y-108241253D01*
X117797821Y-108202548D01*
X117643002Y-108202548D01*
X117565593Y-108241253D01*
X117526888Y-108318662D01*
X117526888Y-108396072D01*
X117913936Y-108473481D01*
X117178545Y-108744415D02*
X117178545Y-108202548D01*
X117178545Y-108279958D02*
X117139840Y-108241253D01*
X117062431Y-108202548D01*
X116946317Y-108202548D01*
X116868907Y-108241253D01*
X116830202Y-108318662D01*
X116830202Y-108744415D01*
X116830202Y-108318662D02*
X116791498Y-108241253D01*
X116714088Y-108202548D01*
X116597974Y-108202548D01*
X116520564Y-108241253D01*
X116481860Y-108318662D01*
X116481860Y-108744415D01*
X115978698Y-108744415D02*
X116056107Y-108705710D01*
X116094812Y-108667005D01*
X116133517Y-108589596D01*
X116133517Y-108357367D01*
X116094812Y-108279958D01*
X116056107Y-108241253D01*
X115978698Y-108202548D01*
X115862583Y-108202548D01*
X115785174Y-108241253D01*
X115746469Y-108279958D01*
X115707764Y-108357367D01*
X115707764Y-108589596D01*
X115746469Y-108667005D01*
X115785174Y-108705710D01*
X115862583Y-108744415D01*
X115978698Y-108744415D01*
X115475536Y-108202548D02*
X115165898Y-108202548D01*
X115359421Y-107931615D02*
X115359421Y-108628300D01*
X115320717Y-108705710D01*
X115243307Y-108744415D01*
X115165898Y-108744415D01*
X114585326Y-108705710D02*
X114662736Y-108744415D01*
X114817555Y-108744415D01*
X114894964Y-108705710D01*
X114933669Y-108628300D01*
X114933669Y-108318662D01*
X114894964Y-108241253D01*
X114817555Y-108202548D01*
X114662736Y-108202548D01*
X114585326Y-108241253D01*
X114546621Y-108318662D01*
X114546621Y-108396072D01*
X114933669Y-108473481D01*
X113579002Y-108744415D02*
X113579002Y-107931615D01*
X112727498Y-108744415D02*
X112998431Y-108357367D01*
X113191955Y-108744415D02*
X113191955Y-107931615D01*
X112882317Y-107931615D01*
X112804907Y-107970320D01*
X112766202Y-108009024D01*
X112727498Y-108086434D01*
X112727498Y-108202548D01*
X112766202Y-108279958D01*
X112804907Y-108318662D01*
X112882317Y-108357367D01*
X113191955Y-108357367D01*
X111837288Y-108821824D02*
X111914698Y-108783120D01*
X111992107Y-108705710D01*
X112108221Y-108589596D01*
X112185631Y-108550891D01*
X112263040Y-108550891D01*
X112224336Y-108744415D02*
X112301745Y-108705710D01*
X112379155Y-108628300D01*
X112417860Y-108473481D01*
X112417860Y-108202548D01*
X112379155Y-108047729D01*
X112301745Y-107970320D01*
X112224336Y-107931615D01*
X112069517Y-107931615D01*
X111992107Y-107970320D01*
X111914698Y-108047729D01*
X111875993Y-108202548D01*
X111875993Y-108473481D01*
X111914698Y-108628300D01*
X111992107Y-108705710D01*
X112069517Y-108744415D01*
X112224336Y-108744415D01*
X111527650Y-108667005D02*
X111488945Y-108705710D01*
X111527650Y-108744415D01*
X111566355Y-108705710D01*
X111527650Y-108667005D01*
X111527650Y-108744415D01*
X111527650Y-108241253D02*
X111488945Y-108279958D01*
X111527650Y-108318662D01*
X111566355Y-108279958D01*
X111527650Y-108241253D01*
X111527650Y-108318662D01*
X110095574Y-107970320D02*
X110172983Y-107931615D01*
X110289098Y-107931615D01*
X110405212Y-107970320D01*
X110482621Y-108047729D01*
X110521326Y-108125139D01*
X110560031Y-108279958D01*
X110560031Y-108396072D01*
X110521326Y-108550891D01*
X110482621Y-108628300D01*
X110405212Y-108705710D01*
X110289098Y-108744415D01*
X110211688Y-108744415D01*
X110095574Y-108705710D01*
X110056869Y-108667005D01*
X110056869Y-108396072D01*
X110211688Y-108396072D01*
X109708526Y-108744415D02*
X109708526Y-107931615D01*
X109398888Y-107931615D01*
X109321479Y-107970320D01*
X109282774Y-108009024D01*
X109244069Y-108086434D01*
X109244069Y-108202548D01*
X109282774Y-108279958D01*
X109321479Y-108318662D01*
X109398888Y-108357367D01*
X109708526Y-108357367D01*
X108934431Y-108009024D02*
X108895726Y-107970320D01*
X108818317Y-107931615D01*
X108624793Y-107931615D01*
X108547383Y-107970320D01*
X108508679Y-108009024D01*
X108469974Y-108086434D01*
X108469974Y-108163843D01*
X108508679Y-108279958D01*
X108973136Y-108744415D01*
X108469974Y-108744415D01*
X107695879Y-108744415D02*
X108160336Y-108744415D01*
X107928107Y-108744415D02*
X107928107Y-107931615D01*
X108005517Y-108047729D01*
X108082926Y-108125139D01*
X108160336Y-108163843D01*
X114391802Y-110053023D02*
X114662736Y-109665975D01*
X114856260Y-110053023D02*
X114856260Y-109240223D01*
X114546621Y-109240223D01*
X114469212Y-109278928D01*
X114430507Y-109317632D01*
X114391802Y-109395042D01*
X114391802Y-109511156D01*
X114430507Y-109588566D01*
X114469212Y-109627270D01*
X114546621Y-109665975D01*
X114856260Y-109665975D01*
X113733821Y-110014318D02*
X113811231Y-110053023D01*
X113966050Y-110053023D01*
X114043460Y-110014318D01*
X114082164Y-109936908D01*
X114082164Y-109627270D01*
X114043460Y-109549861D01*
X113966050Y-109511156D01*
X113811231Y-109511156D01*
X113733821Y-109549861D01*
X113695117Y-109627270D01*
X113695117Y-109704680D01*
X114082164Y-109782089D01*
X113385479Y-110014318D02*
X113308069Y-110053023D01*
X113153250Y-110053023D01*
X113075840Y-110014318D01*
X113037136Y-109936908D01*
X113037136Y-109898204D01*
X113075840Y-109820794D01*
X113153250Y-109782089D01*
X113269364Y-109782089D01*
X113346774Y-109743385D01*
X113385479Y-109665975D01*
X113385479Y-109627270D01*
X113346774Y-109549861D01*
X113269364Y-109511156D01*
X113153250Y-109511156D01*
X113075840Y-109549861D01*
X112379155Y-110014318D02*
X112456564Y-110053023D01*
X112611383Y-110053023D01*
X112688793Y-110014318D01*
X112727498Y-109936908D01*
X112727498Y-109627270D01*
X112688793Y-109549861D01*
X112611383Y-109511156D01*
X112456564Y-109511156D01*
X112379155Y-109549861D01*
X112340450Y-109627270D01*
X112340450Y-109704680D01*
X112727498Y-109782089D01*
X112108221Y-109511156D02*
X111798583Y-109511156D01*
X111992107Y-109240223D02*
X111992107Y-109936908D01*
X111953402Y-110014318D01*
X111875993Y-110053023D01*
X111798583Y-110053023D01*
X111527650Y-109975613D02*
X111488945Y-110014318D01*
X111527650Y-110053023D01*
X111566355Y-110014318D01*
X111527650Y-109975613D01*
X111527650Y-110053023D01*
X111527650Y-109549861D02*
X111488945Y-109588566D01*
X111527650Y-109627270D01*
X111566355Y-109588566D01*
X111527650Y-109549861D01*
X111527650Y-109627270D01*
X110095574Y-109278928D02*
X110172983Y-109240223D01*
X110289098Y-109240223D01*
X110405212Y-109278928D01*
X110482621Y-109356337D01*
X110521326Y-109433747D01*
X110560031Y-109588566D01*
X110560031Y-109704680D01*
X110521326Y-109859499D01*
X110482621Y-109936908D01*
X110405212Y-110014318D01*
X110289098Y-110053023D01*
X110211688Y-110053023D01*
X110095574Y-110014318D01*
X110056869Y-109975613D01*
X110056869Y-109704680D01*
X110211688Y-109704680D01*
X109708526Y-110053023D02*
X109708526Y-109240223D01*
X109398888Y-109240223D01*
X109321479Y-109278928D01*
X109282774Y-109317632D01*
X109244069Y-109395042D01*
X109244069Y-109511156D01*
X109282774Y-109588566D01*
X109321479Y-109627270D01*
X109398888Y-109665975D01*
X109708526Y-109665975D01*
X108934431Y-109317632D02*
X108895726Y-109278928D01*
X108818317Y-109240223D01*
X108624793Y-109240223D01*
X108547383Y-109278928D01*
X108508679Y-109317632D01*
X108469974Y-109395042D01*
X108469974Y-109472451D01*
X108508679Y-109588566D01*
X108973136Y-110053023D01*
X108469974Y-110053023D01*
X108160336Y-109317632D02*
X108121631Y-109278928D01*
X108044221Y-109240223D01*
X107850698Y-109240223D01*
X107773288Y-109278928D01*
X107734583Y-109317632D01*
X107695879Y-109395042D01*
X107695879Y-109472451D01*
X107734583Y-109588566D01*
X108199040Y-110053023D01*
X107695879Y-110053023D01*
X119578240Y-111051993D02*
X118958964Y-111051993D01*
X118146164Y-111361631D02*
X118610621Y-111361631D01*
X118378393Y-111361631D02*
X118378393Y-110548831D01*
X118455802Y-110664945D01*
X118533212Y-110742355D01*
X118610621Y-110781059D01*
X117836526Y-110626240D02*
X117797821Y-110587536D01*
X117720412Y-110548831D01*
X117526888Y-110548831D01*
X117449479Y-110587536D01*
X117410774Y-110626240D01*
X117372069Y-110703650D01*
X117372069Y-110781059D01*
X117410774Y-110897174D01*
X117875231Y-111361631D01*
X117372069Y-111361631D01*
X117139840Y-110548831D02*
X116868907Y-111361631D01*
X116597974Y-110548831D01*
X116327040Y-111284221D02*
X116288336Y-111322926D01*
X116327040Y-111361631D01*
X116365745Y-111322926D01*
X116327040Y-111284221D01*
X116327040Y-111361631D01*
X116327040Y-110858469D02*
X116288336Y-110897174D01*
X116327040Y-110935878D01*
X116365745Y-110897174D01*
X116327040Y-110858469D01*
X116327040Y-110935878D01*
X115359421Y-111129402D02*
X114972374Y-111129402D01*
X115436831Y-111361631D02*
X115165898Y-110548831D01*
X114894964Y-111361631D01*
X114624031Y-111361631D02*
X114624031Y-110548831D01*
X114430507Y-110548831D01*
X114314393Y-110587536D01*
X114236983Y-110664945D01*
X114198279Y-110742355D01*
X114159574Y-110897174D01*
X114159574Y-111013288D01*
X114198279Y-111168107D01*
X114236983Y-111245516D01*
X114314393Y-111322926D01*
X114430507Y-111361631D01*
X114624031Y-111361631D01*
X113346774Y-111284221D02*
X113385479Y-111322926D01*
X113501593Y-111361631D01*
X113579002Y-111361631D01*
X113695117Y-111322926D01*
X113772526Y-111245516D01*
X113811231Y-111168107D01*
X113849936Y-111013288D01*
X113849936Y-110897174D01*
X113811231Y-110742355D01*
X113772526Y-110664945D01*
X113695117Y-110587536D01*
X113579002Y-110548831D01*
X113501593Y-110548831D01*
X113385479Y-110587536D01*
X113346774Y-110626240D01*
X112843612Y-110548831D02*
X112766202Y-110548831D01*
X112688793Y-110587536D01*
X112650088Y-110626240D01*
X112611383Y-110703650D01*
X112572679Y-110858469D01*
X112572679Y-111051993D01*
X112611383Y-111206812D01*
X112650088Y-111284221D01*
X112688793Y-111322926D01*
X112766202Y-111361631D01*
X112843612Y-111361631D01*
X112921021Y-111322926D01*
X112959726Y-111284221D01*
X112998431Y-111206812D01*
X113037136Y-111051993D01*
X113037136Y-110858469D01*
X112998431Y-110703650D01*
X112959726Y-110626240D01*
X112921021Y-110587536D01*
X112843612Y-110548831D01*
X111372831Y-111671269D02*
X111411536Y-111632564D01*
X111488945Y-111516450D01*
X111527650Y-111439040D01*
X111566355Y-111322926D01*
X111605060Y-111129402D01*
X111605060Y-110974583D01*
X111566355Y-110781059D01*
X111527650Y-110664945D01*
X111488945Y-110587536D01*
X111411536Y-110471421D01*
X111372831Y-110432716D01*
X110637440Y-110587536D02*
X110714850Y-110548831D01*
X110830964Y-110548831D01*
X110947079Y-110587536D01*
X111024488Y-110664945D01*
X111063193Y-110742355D01*
X111101898Y-110897174D01*
X111101898Y-111013288D01*
X111063193Y-111168107D01*
X111024488Y-111245516D01*
X110947079Y-111322926D01*
X110830964Y-111361631D01*
X110753555Y-111361631D01*
X110637440Y-111322926D01*
X110598736Y-111284221D01*
X110598736Y-111013288D01*
X110753555Y-111013288D01*
X110250393Y-111361631D02*
X110250393Y-110548831D01*
X109940755Y-110548831D01*
X109863345Y-110587536D01*
X109824640Y-110626240D01*
X109785936Y-110703650D01*
X109785936Y-110819764D01*
X109824640Y-110897174D01*
X109863345Y-110935878D01*
X109940755Y-110974583D01*
X110250393Y-110974583D01*
X109476298Y-110626240D02*
X109437593Y-110587536D01*
X109360183Y-110548831D01*
X109166660Y-110548831D01*
X109089250Y-110587536D01*
X109050545Y-110626240D01*
X109011840Y-110703650D01*
X109011840Y-110781059D01*
X109050545Y-110897174D01*
X109515002Y-111361631D01*
X109011840Y-111361631D01*
X108315155Y-110548831D02*
X108469974Y-110548831D01*
X108547383Y-110587536D01*
X108586088Y-110626240D01*
X108663498Y-110742355D01*
X108702202Y-110897174D01*
X108702202Y-111206812D01*
X108663498Y-111284221D01*
X108624793Y-111322926D01*
X108547383Y-111361631D01*
X108392564Y-111361631D01*
X108315155Y-111322926D01*
X108276450Y-111284221D01*
X108237745Y-111206812D01*
X108237745Y-111013288D01*
X108276450Y-110935878D01*
X108315155Y-110897174D01*
X108392564Y-110858469D01*
X108547383Y-110858469D01*
X108624793Y-110897174D01*
X108663498Y-110935878D01*
X108702202Y-111013288D01*
X107966812Y-111671269D02*
X107928107Y-111632564D01*
X107850698Y-111516450D01*
X107811993Y-111439040D01*
X107773288Y-111322926D01*
X107734583Y-111129402D01*
X107734583Y-110974583D01*
X107773288Y-110781059D01*
X107811993Y-110664945D01*
X107850698Y-110587536D01*
X107928107Y-110471421D01*
X107966812Y-110432716D01*
X117410774Y-111857439D02*
X117797821Y-111857439D01*
X117836526Y-112244486D01*
X117797821Y-112205782D01*
X117720412Y-112167077D01*
X117526888Y-112167077D01*
X117449479Y-112205782D01*
X117410774Y-112244486D01*
X117372069Y-112321896D01*
X117372069Y-112515420D01*
X117410774Y-112592829D01*
X117449479Y-112631534D01*
X117526888Y-112670239D01*
X117720412Y-112670239D01*
X117797821Y-112631534D01*
X117836526Y-112592829D01*
X117139840Y-111857439D02*
X116868907Y-112670239D01*
X116597974Y-111857439D01*
X116327040Y-112592829D02*
X116288336Y-112631534D01*
X116327040Y-112670239D01*
X116365745Y-112631534D01*
X116327040Y-112592829D01*
X116327040Y-112670239D01*
X116327040Y-112167077D02*
X116288336Y-112205782D01*
X116327040Y-112244486D01*
X116365745Y-112205782D01*
X116327040Y-112167077D01*
X116327040Y-112244486D01*
X115359421Y-112438010D02*
X114972374Y-112438010D01*
X115436831Y-112670239D02*
X115165898Y-111857439D01*
X114894964Y-112670239D01*
X114624031Y-112670239D02*
X114624031Y-111857439D01*
X114430507Y-111857439D01*
X114314393Y-111896144D01*
X114236983Y-111973553D01*
X114198279Y-112050963D01*
X114159574Y-112205782D01*
X114159574Y-112321896D01*
X114198279Y-112476715D01*
X114236983Y-112554124D01*
X114314393Y-112631534D01*
X114430507Y-112670239D01*
X114624031Y-112670239D01*
X113346774Y-112592829D02*
X113385479Y-112631534D01*
X113501593Y-112670239D01*
X113579002Y-112670239D01*
X113695117Y-112631534D01*
X113772526Y-112554124D01*
X113811231Y-112476715D01*
X113849936Y-112321896D01*
X113849936Y-112205782D01*
X113811231Y-112050963D01*
X113772526Y-111973553D01*
X113695117Y-111896144D01*
X113579002Y-111857439D01*
X113501593Y-111857439D01*
X113385479Y-111896144D01*
X113346774Y-111934848D01*
X112572679Y-112670239D02*
X113037136Y-112670239D01*
X112804907Y-112670239D02*
X112804907Y-111857439D01*
X112882317Y-111973553D01*
X112959726Y-112050963D01*
X113037136Y-112089667D01*
X111372831Y-112979877D02*
X111411536Y-112941172D01*
X111488945Y-112825058D01*
X111527650Y-112747648D01*
X111566355Y-112631534D01*
X111605060Y-112438010D01*
X111605060Y-112283191D01*
X111566355Y-112089667D01*
X111527650Y-111973553D01*
X111488945Y-111896144D01*
X111411536Y-111780029D01*
X111372831Y-111741324D01*
X110637440Y-111896144D02*
X110714850Y-111857439D01*
X110830964Y-111857439D01*
X110947079Y-111896144D01*
X111024488Y-111973553D01*
X111063193Y-112050963D01*
X111101898Y-112205782D01*
X111101898Y-112321896D01*
X111063193Y-112476715D01*
X111024488Y-112554124D01*
X110947079Y-112631534D01*
X110830964Y-112670239D01*
X110753555Y-112670239D01*
X110637440Y-112631534D01*
X110598736Y-112592829D01*
X110598736Y-112321896D01*
X110753555Y-112321896D01*
X110250393Y-112670239D02*
X110250393Y-111857439D01*
X109940755Y-111857439D01*
X109863345Y-111896144D01*
X109824640Y-111934848D01*
X109785936Y-112012258D01*
X109785936Y-112128372D01*
X109824640Y-112205782D01*
X109863345Y-112244486D01*
X109940755Y-112283191D01*
X110250393Y-112283191D01*
X109476298Y-111934848D02*
X109437593Y-111896144D01*
X109360183Y-111857439D01*
X109166660Y-111857439D01*
X109089250Y-111896144D01*
X109050545Y-111934848D01*
X109011840Y-112012258D01*
X109011840Y-112089667D01*
X109050545Y-112205782D01*
X109515002Y-112670239D01*
X109011840Y-112670239D01*
X108740907Y-111857439D02*
X108199040Y-111857439D01*
X108547383Y-112670239D01*
X107966812Y-112979877D02*
X107928107Y-112941172D01*
X107850698Y-112825058D01*
X107811993Y-112747648D01*
X107773288Y-112631534D01*
X107734583Y-112438010D01*
X107734583Y-112283191D01*
X107773288Y-112089667D01*
X107811993Y-111973553D01*
X107850698Y-111896144D01*
X107928107Y-111780029D01*
X107966812Y-111741324D01*
X118146164Y-113978847D02*
X118610621Y-113978847D01*
X118378393Y-113978847D02*
X118378393Y-113166047D01*
X118455802Y-113282161D01*
X118533212Y-113359571D01*
X118610621Y-113398275D01*
X117836526Y-113243456D02*
X117797821Y-113204752D01*
X117720412Y-113166047D01*
X117526888Y-113166047D01*
X117449479Y-113204752D01*
X117410774Y-113243456D01*
X117372069Y-113320866D01*
X117372069Y-113398275D01*
X117410774Y-113514390D01*
X117875231Y-113978847D01*
X117372069Y-113978847D01*
X117139840Y-113166047D02*
X116868907Y-113978847D01*
X116597974Y-113166047D01*
X116327040Y-113901437D02*
X116288336Y-113940142D01*
X116327040Y-113978847D01*
X116365745Y-113940142D01*
X116327040Y-113901437D01*
X116327040Y-113978847D01*
X116327040Y-113475685D02*
X116288336Y-113514390D01*
X116327040Y-113553094D01*
X116365745Y-113514390D01*
X116327040Y-113475685D01*
X116327040Y-113553094D01*
X115359421Y-113746618D02*
X114972374Y-113746618D01*
X115436831Y-113978847D02*
X115165898Y-113166047D01*
X114894964Y-113978847D01*
X114624031Y-113978847D02*
X114624031Y-113166047D01*
X114430507Y-113166047D01*
X114314393Y-113204752D01*
X114236983Y-113282161D01*
X114198279Y-113359571D01*
X114159574Y-113514390D01*
X114159574Y-113630504D01*
X114198279Y-113785323D01*
X114236983Y-113862732D01*
X114314393Y-113940142D01*
X114430507Y-113978847D01*
X114624031Y-113978847D01*
X113346774Y-113901437D02*
X113385479Y-113940142D01*
X113501593Y-113978847D01*
X113579002Y-113978847D01*
X113695117Y-113940142D01*
X113772526Y-113862732D01*
X113811231Y-113785323D01*
X113849936Y-113630504D01*
X113849936Y-113514390D01*
X113811231Y-113359571D01*
X113772526Y-113282161D01*
X113695117Y-113204752D01*
X113579002Y-113166047D01*
X113501593Y-113166047D01*
X113385479Y-113204752D01*
X113346774Y-113243456D01*
X113037136Y-113243456D02*
X112998431Y-113204752D01*
X112921021Y-113166047D01*
X112727498Y-113166047D01*
X112650088Y-113204752D01*
X112611383Y-113243456D01*
X112572679Y-113320866D01*
X112572679Y-113398275D01*
X112611383Y-113514390D01*
X113075840Y-113978847D01*
X112572679Y-113978847D01*
X111372831Y-114288485D02*
X111411536Y-114249780D01*
X111488945Y-114133666D01*
X111527650Y-114056256D01*
X111566355Y-113940142D01*
X111605060Y-113746618D01*
X111605060Y-113591799D01*
X111566355Y-113398275D01*
X111527650Y-113282161D01*
X111488945Y-113204752D01*
X111411536Y-113088637D01*
X111372831Y-113049932D01*
X110637440Y-113204752D02*
X110714850Y-113166047D01*
X110830964Y-113166047D01*
X110947079Y-113204752D01*
X111024488Y-113282161D01*
X111063193Y-113359571D01*
X111101898Y-113514390D01*
X111101898Y-113630504D01*
X111063193Y-113785323D01*
X111024488Y-113862732D01*
X110947079Y-113940142D01*
X110830964Y-113978847D01*
X110753555Y-113978847D01*
X110637440Y-113940142D01*
X110598736Y-113901437D01*
X110598736Y-113630504D01*
X110753555Y-113630504D01*
X110250393Y-113978847D02*
X110250393Y-113166047D01*
X109940755Y-113166047D01*
X109863345Y-113204752D01*
X109824640Y-113243456D01*
X109785936Y-113320866D01*
X109785936Y-113436980D01*
X109824640Y-113514390D01*
X109863345Y-113553094D01*
X109940755Y-113591799D01*
X110250393Y-113591799D01*
X109476298Y-113243456D02*
X109437593Y-113204752D01*
X109360183Y-113166047D01*
X109166660Y-113166047D01*
X109089250Y-113204752D01*
X109050545Y-113243456D01*
X109011840Y-113320866D01*
X109011840Y-113398275D01*
X109050545Y-113514390D01*
X109515002Y-113978847D01*
X109011840Y-113978847D01*
X108547383Y-113514390D02*
X108624793Y-113475685D01*
X108663498Y-113436980D01*
X108702202Y-113359571D01*
X108702202Y-113320866D01*
X108663498Y-113243456D01*
X108624793Y-113204752D01*
X108547383Y-113166047D01*
X108392564Y-113166047D01*
X108315155Y-113204752D01*
X108276450Y-113243456D01*
X108237745Y-113320866D01*
X108237745Y-113359571D01*
X108276450Y-113436980D01*
X108315155Y-113475685D01*
X108392564Y-113514390D01*
X108547383Y-113514390D01*
X108624793Y-113553094D01*
X108663498Y-113591799D01*
X108702202Y-113669209D01*
X108702202Y-113824028D01*
X108663498Y-113901437D01*
X108624793Y-113940142D01*
X108547383Y-113978847D01*
X108392564Y-113978847D01*
X108315155Y-113940142D01*
X108276450Y-113901437D01*
X108237745Y-113824028D01*
X108237745Y-113669209D01*
X108276450Y-113591799D01*
X108315155Y-113553094D01*
X108392564Y-113514390D01*
X107966812Y-114288485D02*
X107928107Y-114249780D01*
X107850698Y-114133666D01*
X107811993Y-114056256D01*
X107773288Y-113940142D01*
X107734583Y-113746618D01*
X107734583Y-113591799D01*
X107773288Y-113398275D01*
X107811993Y-113282161D01*
X107850698Y-113204752D01*
X107928107Y-113088637D01*
X107966812Y-113049932D01*
D11*
%TO.C,.*%
X125860868Y-79124868D02*
X125860868Y-79227499D01*
X125963499Y-79227499D01*
X125963499Y-79124868D01*
X125860868Y-79124868D01*
X125963499Y-79227499D01*
D12*
%TO.C,TP1*%
X196333904Y-115022380D02*
X195762476Y-115022380D01*
X196048190Y-116022380D02*
X196048190Y-115022380D01*
X195429142Y-116022380D02*
X195429142Y-115022380D01*
X195048190Y-115022380D01*
X194952952Y-115070000D01*
X194905333Y-115117619D01*
X194857714Y-115212857D01*
X194857714Y-115355714D01*
X194905333Y-115450952D01*
X194952952Y-115498571D01*
X195048190Y-115546190D01*
X195429142Y-115546190D01*
X193905333Y-116022380D02*
X194476761Y-116022380D01*
X194191047Y-116022380D02*
X194191047Y-115022380D01*
X194286285Y-115165238D01*
X194381523Y-115260476D01*
X194476761Y-115308095D01*
%TO.C,C3*%
X167815142Y-115784333D02*
X167862761Y-115736714D01*
X167910380Y-115593857D01*
X167910380Y-115498619D01*
X167862761Y-115355761D01*
X167767523Y-115260523D01*
X167672285Y-115212904D01*
X167481809Y-115165285D01*
X167338952Y-115165285D01*
X167148476Y-115212904D01*
X167053238Y-115260523D01*
X166958000Y-115355761D01*
X166910380Y-115498619D01*
X166910380Y-115593857D01*
X166958000Y-115736714D01*
X167005619Y-115784333D01*
X166910380Y-116117666D02*
X166910380Y-116736714D01*
X167291333Y-116403380D01*
X167291333Y-116546238D01*
X167338952Y-116641476D01*
X167386571Y-116689095D01*
X167481809Y-116736714D01*
X167719904Y-116736714D01*
X167815142Y-116689095D01*
X167862761Y-116641476D01*
X167910380Y-116546238D01*
X167910380Y-116260523D01*
X167862761Y-116165285D01*
X167815142Y-116117666D01*
%TO.C,C4*%
X105830666Y-99417142D02*
X105878285Y-99464761D01*
X106021142Y-99512380D01*
X106116380Y-99512380D01*
X106259238Y-99464761D01*
X106354476Y-99369523D01*
X106402095Y-99274285D01*
X106449714Y-99083809D01*
X106449714Y-98940952D01*
X106402095Y-98750476D01*
X106354476Y-98655238D01*
X106259238Y-98560000D01*
X106116380Y-98512380D01*
X106021142Y-98512380D01*
X105878285Y-98560000D01*
X105830666Y-98607619D01*
X104973523Y-98845714D02*
X104973523Y-99512380D01*
X105211619Y-98464761D02*
X105449714Y-99179047D01*
X104830666Y-99179047D01*
%TO.C,C6*%
X158789666Y-113260142D02*
X158837285Y-113307761D01*
X158980142Y-113355380D01*
X159075380Y-113355380D01*
X159218238Y-113307761D01*
X159313476Y-113212523D01*
X159361095Y-113117285D01*
X159408714Y-112926809D01*
X159408714Y-112783952D01*
X159361095Y-112593476D01*
X159313476Y-112498238D01*
X159218238Y-112403000D01*
X159075380Y-112355380D01*
X158980142Y-112355380D01*
X158837285Y-112403000D01*
X158789666Y-112450619D01*
X157932523Y-112355380D02*
X158123000Y-112355380D01*
X158218238Y-112403000D01*
X158265857Y-112450619D01*
X158361095Y-112593476D01*
X158408714Y-112783952D01*
X158408714Y-113164904D01*
X158361095Y-113260142D01*
X158313476Y-113307761D01*
X158218238Y-113355380D01*
X158027761Y-113355380D01*
X157932523Y-113307761D01*
X157884904Y-113260142D01*
X157837285Y-113164904D01*
X157837285Y-112926809D01*
X157884904Y-112831571D01*
X157932523Y-112783952D01*
X158027761Y-112736333D01*
X158218238Y-112736333D01*
X158313476Y-112783952D01*
X158361095Y-112831571D01*
X158408714Y-112926809D01*
%TO.C,C1*%
X150407666Y-113133142D02*
X150455285Y-113180761D01*
X150598142Y-113228380D01*
X150693380Y-113228380D01*
X150836238Y-113180761D01*
X150931476Y-113085523D01*
X150979095Y-112990285D01*
X151026714Y-112799809D01*
X151026714Y-112656952D01*
X150979095Y-112466476D01*
X150931476Y-112371238D01*
X150836238Y-112276000D01*
X150693380Y-112228380D01*
X150598142Y-112228380D01*
X150455285Y-112276000D01*
X150407666Y-112323619D01*
X149455285Y-113228380D02*
X150026714Y-113228380D01*
X149741000Y-113228380D02*
X149741000Y-112228380D01*
X149836238Y-112371238D01*
X149931476Y-112466476D01*
X150026714Y-112514095D01*
%TO.C,C7*%
X162218666Y-99345142D02*
X162266285Y-99392761D01*
X162409142Y-99440380D01*
X162504380Y-99440380D01*
X162647238Y-99392761D01*
X162742476Y-99297523D01*
X162790095Y-99202285D01*
X162837714Y-99011809D01*
X162837714Y-98868952D01*
X162790095Y-98678476D01*
X162742476Y-98583238D01*
X162647238Y-98488000D01*
X162504380Y-98440380D01*
X162409142Y-98440380D01*
X162266285Y-98488000D01*
X162218666Y-98535619D01*
X161885333Y-98440380D02*
X161218666Y-98440380D01*
X161647238Y-99440380D01*
%TO.C,C5*%
X105830666Y-111355142D02*
X105878285Y-111402761D01*
X106021142Y-111450380D01*
X106116380Y-111450380D01*
X106259238Y-111402761D01*
X106354476Y-111307523D01*
X106402095Y-111212285D01*
X106449714Y-111021809D01*
X106449714Y-110878952D01*
X106402095Y-110688476D01*
X106354476Y-110593238D01*
X106259238Y-110498000D01*
X106116380Y-110450380D01*
X106021142Y-110450380D01*
X105878285Y-110498000D01*
X105830666Y-110545619D01*
X104925904Y-110450380D02*
X105402095Y-110450380D01*
X105449714Y-110926571D01*
X105402095Y-110878952D01*
X105306857Y-110831333D01*
X105068761Y-110831333D01*
X104973523Y-110878952D01*
X104925904Y-110926571D01*
X104878285Y-111021809D01*
X104878285Y-111259904D01*
X104925904Y-111355142D01*
X104973523Y-111402761D01*
X105068761Y-111450380D01*
X105306857Y-111450380D01*
X105402095Y-111402761D01*
X105449714Y-111355142D01*
%TO.C,.*%
G36*
X140997793Y-72427587D02*
G01*
X140666112Y-72759268D01*
X138841868Y-70935024D01*
X139007708Y-70769184D01*
X138841867Y-70603343D01*
X139007708Y-70437503D01*
X140997793Y-72427587D01*
G37*
G36*
X130715689Y-71432545D02*
G01*
X130384009Y-71764226D01*
X129388967Y-70769184D01*
X128393925Y-71764226D01*
X129388967Y-72759268D01*
X130384009Y-71764226D01*
X130715689Y-72095906D01*
X129720647Y-73090948D01*
X129388967Y-72759268D01*
X129057286Y-73090949D01*
X128062244Y-72095907D01*
X128393925Y-71764226D01*
X128062244Y-71432545D01*
X129057286Y-70437503D01*
X129388967Y-70769184D01*
X129720647Y-70437503D01*
X130715689Y-71432545D01*
G37*
G36*
X127398883Y-70769184D02*
G01*
X125740479Y-72427587D01*
X125408798Y-72095906D01*
X127067201Y-70437503D01*
X127398883Y-70769184D01*
G37*
G36*
X120765267Y-86026498D02*
G01*
X119936065Y-85197296D01*
X120267746Y-85197296D01*
X120599427Y-85528976D01*
X120765267Y-85363136D01*
X120931108Y-85528976D01*
X121926150Y-84533934D01*
X121760309Y-84368094D01*
X121926150Y-84202253D01*
X121594469Y-83870573D01*
X121428629Y-84036413D01*
X121262788Y-83870573D01*
X120267746Y-84865615D01*
X120433587Y-85031455D01*
X120267746Y-85197296D01*
X119936065Y-85197296D01*
X119770225Y-85031456D01*
X121428629Y-83373052D01*
X122423671Y-84368094D01*
X120765267Y-86026498D01*
G37*
G36*
X124413756Y-89011624D02*
G01*
X124082075Y-89343306D01*
X122257830Y-87519061D01*
X122423671Y-87353221D01*
X122257830Y-87187380D01*
X122423671Y-87021540D01*
X124413756Y-89011624D01*
G37*
G36*
X115790056Y-86358179D02*
G01*
X115126694Y-87021540D01*
X114795014Y-86689860D01*
X115458376Y-86026498D01*
X115790056Y-86358179D01*
G37*
G36*
X132374094Y-81051286D02*
G01*
X132042413Y-81382968D01*
X130218168Y-79558723D01*
X130384009Y-79392883D01*
X130218168Y-79227042D01*
X130384009Y-79061201D01*
X132374094Y-81051286D01*
G37*
G36*
X132042413Y-73422629D02*
G01*
X131047371Y-74417672D01*
X130715690Y-74085991D01*
X131710732Y-73090949D01*
X132042413Y-73422629D01*
G37*
G36*
X130052328Y-74749353D02*
G01*
X129720648Y-75081033D01*
X127398883Y-72759268D01*
X126403840Y-73754311D01*
X128725605Y-76076076D01*
X129720648Y-75081033D01*
X130052328Y-75412714D01*
X129057286Y-76407756D01*
X128725605Y-76076076D01*
X128393925Y-76407756D01*
X126072159Y-74085991D01*
X126403840Y-73754311D01*
X126072159Y-73422629D01*
X127067201Y-72427587D01*
X127398883Y-72759268D01*
X127730563Y-72427587D01*
X130052328Y-74749353D01*
G37*
G36*
X137680985Y-75744395D02*
G01*
X137349305Y-76076075D01*
X135525061Y-74251831D01*
X135690900Y-74085991D01*
X135525060Y-73920151D01*
X135690900Y-73754310D01*
X137680985Y-75744395D01*
G37*
G36*
X132374094Y-65793973D02*
G01*
X129057286Y-69110780D01*
X128725605Y-68779099D01*
X132042413Y-65462291D01*
X132374094Y-65793973D01*
G37*
G36*
X131047371Y-82378010D02*
G01*
X130715690Y-82709690D01*
X128891446Y-80885446D01*
X129057286Y-80719606D01*
X128891445Y-80553765D01*
X129057286Y-80387925D01*
X131047371Y-82378010D01*
G37*
G36*
X124745436Y-78729522D02*
G01*
X124413756Y-79061202D01*
X124082075Y-78729521D01*
X124413755Y-78397841D01*
X124745436Y-78729522D01*
G37*
G36*
X128393925Y-85031455D02*
G01*
X128062244Y-85363137D01*
X126237999Y-83538892D01*
X126403840Y-83373052D01*
X126237999Y-83207211D01*
X126403840Y-83041371D01*
X128393925Y-85031455D01*
G37*
G36*
X138510187Y-69939982D02*
G01*
X138676027Y-70105822D01*
X138012666Y-70769184D01*
X137349304Y-70105822D01*
X137680985Y-70105822D01*
X138012666Y-70437503D01*
X138344346Y-70105822D01*
X138012666Y-69774142D01*
X137680985Y-70105822D01*
X137349304Y-70105822D01*
X138012666Y-69442460D01*
X138510187Y-69939982D01*
G37*
G36*
X138344347Y-75081033D02*
G01*
X138012666Y-75412714D01*
X136188421Y-73588470D01*
X136354262Y-73422629D01*
X136188421Y-73256789D01*
X136354262Y-73090948D01*
X138344347Y-75081033D01*
G37*
G36*
X124745436Y-82046329D02*
G01*
X123252872Y-80553765D01*
X117945981Y-85860657D01*
X118775183Y-86689859D01*
X118609342Y-86855700D01*
X118277662Y-86524019D01*
X118111821Y-86689860D01*
X117448460Y-86026498D01*
X117614300Y-85860658D01*
X117116779Y-85363136D01*
X117448460Y-85363136D01*
X117780141Y-85694817D01*
X123087032Y-80387925D01*
X122755351Y-80056244D01*
X117448460Y-85363136D01*
X117116779Y-85363136D01*
X116950939Y-85197296D01*
X116785098Y-85363137D01*
X116121737Y-84699775D01*
X116287577Y-84533934D01*
X115955897Y-84202254D01*
X116121737Y-84036413D01*
X117282620Y-85197296D01*
X122589511Y-79890404D01*
X120765267Y-78066160D01*
X121096948Y-78066160D01*
X124745436Y-81714648D01*
X128393924Y-78066160D01*
X124745436Y-74417672D01*
X121096948Y-78066160D01*
X120765267Y-78066160D01*
X124745436Y-74085991D01*
X128725605Y-78066160D01*
X124745436Y-82046329D01*
G37*
G36*
X118443503Y-81714648D02*
G01*
X117116779Y-83041371D01*
X116453418Y-82378010D01*
X117780141Y-81051286D01*
X118443503Y-81714648D01*
G37*
G36*
X122423671Y-91001709D02*
G01*
X122091990Y-91333390D01*
X120267746Y-89509145D01*
X120433587Y-89343305D01*
X120267746Y-89177464D01*
X120433586Y-89011624D01*
X122423671Y-91001709D01*
G37*
G36*
X127067201Y-77402799D02*
G01*
X127233042Y-77568639D01*
X126403841Y-78397841D01*
X126735521Y-78729521D01*
X127067201Y-78397841D01*
X127398882Y-78729521D01*
X125408798Y-80719605D01*
X125077117Y-80387925D01*
X125408798Y-80056244D01*
X125077117Y-79724564D01*
X124247915Y-80553766D01*
X124082075Y-80387925D01*
X123916235Y-80553765D01*
X121594469Y-78232000D01*
X121760309Y-78066160D01*
X122091990Y-78066160D01*
X124082075Y-80056244D01*
X126735520Y-77402799D01*
X126403840Y-77071118D01*
X124911277Y-78563681D01*
X124579596Y-78232000D01*
X126072159Y-76739437D01*
X125740478Y-76407756D01*
X123750394Y-78397841D01*
X123418714Y-78066160D01*
X125408798Y-76076076D01*
X125077117Y-75744395D01*
X123750394Y-77071117D01*
X123418714Y-76739437D01*
X122091990Y-78066160D01*
X121760309Y-78066160D01*
X121594469Y-77900320D01*
X124579596Y-74915193D01*
X124745436Y-75081033D01*
X124911277Y-74915193D01*
X127233042Y-77236958D01*
X127067201Y-77402799D01*
G37*
G36*
X133037455Y-72427587D02*
G01*
X132705774Y-72759268D01*
X132042413Y-72095906D01*
X132374093Y-71764226D01*
X133037455Y-72427587D01*
G37*
G36*
X141329474Y-72427587D02*
G01*
X141495314Y-72593427D01*
X120599427Y-93489314D01*
X120433587Y-93323475D01*
X120267747Y-93489314D01*
X116287578Y-89509145D01*
X116453418Y-89343306D01*
X116287577Y-89177465D01*
X116121737Y-89343305D01*
X115790057Y-89011624D01*
X116121737Y-88679944D01*
X114131652Y-86689859D01*
X113799972Y-87021540D01*
X110980687Y-84202254D01*
X111312366Y-84202254D01*
X113302450Y-86192338D01*
X115458375Y-84036413D01*
X115624215Y-84202254D01*
X113634131Y-86192338D01*
X113799972Y-86358179D01*
X113965813Y-86192338D01*
X116619258Y-88845784D01*
X116453418Y-89011624D01*
X116619258Y-89177465D01*
X118609342Y-87187381D01*
X118775182Y-87353221D01*
X116619258Y-89509145D01*
X120267746Y-93157634D01*
X120433587Y-92991793D01*
X120599427Y-93157634D01*
X141163633Y-72593428D01*
X140997793Y-72427587D01*
X141163633Y-72261747D01*
X136851784Y-67949897D01*
X136685943Y-68115738D01*
X136354262Y-67784057D01*
X136022582Y-68115737D01*
X135690901Y-67784057D01*
X136188422Y-67286536D01*
X135856741Y-66954855D01*
X135690900Y-67120695D01*
X135359220Y-66789015D01*
X135027540Y-67120695D01*
X134695859Y-66789015D01*
X135193380Y-66291494D01*
X134861699Y-65959813D01*
X134695858Y-66125653D01*
X134364178Y-65793973D01*
X134032497Y-66125653D01*
X133700816Y-65793972D01*
X134198337Y-65296451D01*
X132208253Y-63306367D01*
X132042413Y-63472207D01*
X132374093Y-63803888D01*
X132208252Y-63969728D01*
X132042413Y-63803888D01*
X131876573Y-63969728D01*
X131544892Y-63638047D01*
X131213210Y-63969728D01*
X131710731Y-64467249D01*
X131544892Y-64633089D01*
X131379052Y-64467249D01*
X131213211Y-64633090D01*
X130881530Y-64301409D01*
X130549849Y-64633090D01*
X131047370Y-65130611D01*
X130881530Y-65296451D01*
X130715690Y-65130611D01*
X130549849Y-65296452D01*
X130218168Y-64964770D01*
X129886488Y-65296451D01*
X130384009Y-65793972D01*
X130218168Y-65959813D01*
X130052328Y-65793973D01*
X129886488Y-65959813D01*
X129554807Y-65628132D01*
X129223126Y-65959813D01*
X129720647Y-66457334D01*
X129554807Y-66623174D01*
X129388967Y-66457334D01*
X129223126Y-66623175D01*
X128891445Y-66291494D01*
X128559765Y-66623174D01*
X129057286Y-67120695D01*
X128891445Y-67286536D01*
X128725605Y-67120696D01*
X128559765Y-67286536D01*
X128228084Y-66954855D01*
X127896403Y-67286536D01*
X128393924Y-67784057D01*
X128228084Y-67949897D01*
X128062244Y-67784057D01*
X127896404Y-67949897D01*
X127564723Y-67618216D01*
X127233041Y-67949897D01*
X127730562Y-68447418D01*
X127564723Y-68613258D01*
X127398883Y-68447418D01*
X127233042Y-68613259D01*
X126901361Y-68281578D01*
X126569680Y-68613258D01*
X127067201Y-69110779D01*
X126901361Y-69276620D01*
X126735521Y-69110780D01*
X126569680Y-69276621D01*
X126237999Y-68944939D01*
X125906319Y-69276620D01*
X126403840Y-69774141D01*
X126237999Y-69939982D01*
X126072159Y-69774142D01*
X125906319Y-69939982D01*
X125574638Y-69608301D01*
X125242957Y-69939982D01*
X125740478Y-70437503D01*
X125574638Y-70603343D01*
X125408798Y-70437503D01*
X125242958Y-70603343D01*
X124911277Y-70271662D01*
X124579596Y-70603343D01*
X125077117Y-71100864D01*
X124911276Y-71266705D01*
X124745436Y-71100865D01*
X124579596Y-71266705D01*
X124247915Y-70935024D01*
X123916234Y-71266705D01*
X124413755Y-71764226D01*
X124247915Y-71930066D01*
X124082075Y-71764226D01*
X123916235Y-71930066D01*
X123584554Y-71598385D01*
X123252873Y-71930066D01*
X123750394Y-72427587D01*
X123584554Y-72593427D01*
X123418714Y-72427587D01*
X123252873Y-72593428D01*
X122921192Y-72261747D01*
X122589511Y-72593427D01*
X123087032Y-73090948D01*
X122921192Y-73256789D01*
X122755352Y-73090949D01*
X122589511Y-73256790D01*
X122257830Y-72925108D01*
X121926150Y-73256789D01*
X122423671Y-73754310D01*
X122257830Y-73920151D01*
X122091990Y-73754311D01*
X121926151Y-73920151D01*
X121594469Y-73588469D01*
X121262788Y-73920151D01*
X121760309Y-74417672D01*
X121594469Y-74583512D01*
X121428629Y-74417672D01*
X121262789Y-74583512D01*
X120931108Y-74251831D01*
X120599427Y-74583512D01*
X121096948Y-75081033D01*
X120931108Y-75246873D01*
X120765268Y-75081033D01*
X120599427Y-75246874D01*
X120267746Y-74915193D01*
X119936066Y-75246873D01*
X120433587Y-75744394D01*
X120267746Y-75910235D01*
X120101906Y-75744395D01*
X119936066Y-75910235D01*
X119604385Y-75578554D01*
X119272704Y-75910235D01*
X119770225Y-76407756D01*
X119604385Y-76573596D01*
X119438545Y-76407756D01*
X119272704Y-76573597D01*
X118941023Y-76241916D01*
X118609342Y-76573596D01*
X119106863Y-77071117D01*
X118941023Y-77236958D01*
X118775183Y-77071118D01*
X118609342Y-77236959D01*
X118277661Y-76905277D01*
X117945981Y-77236958D01*
X118443502Y-77734479D01*
X118277661Y-77900320D01*
X118111821Y-77734480D01*
X117945982Y-77900320D01*
X117614300Y-77568638D01*
X117282619Y-77900320D01*
X117780140Y-78397841D01*
X117614300Y-78563680D01*
X117448460Y-78397841D01*
X117282620Y-78563681D01*
X116950939Y-78232000D01*
X116619258Y-78563681D01*
X117116779Y-79061202D01*
X116950939Y-79227042D01*
X116785099Y-79061202D01*
X116619258Y-79227043D01*
X116287577Y-78895362D01*
X115955897Y-79227042D01*
X116453418Y-79724563D01*
X116287577Y-79890404D01*
X116121737Y-79724564D01*
X115955897Y-79890404D01*
X115624215Y-79558723D01*
X115292535Y-79890404D01*
X115790056Y-80387925D01*
X115624215Y-80553765D01*
X115458376Y-80387925D01*
X115292535Y-80553766D01*
X114960854Y-80222085D01*
X114629173Y-80553765D01*
X115126694Y-81051286D01*
X114960854Y-81217127D01*
X114795014Y-81051287D01*
X114629174Y-81217127D01*
X114297493Y-80885446D01*
X113965812Y-81217127D01*
X114463333Y-81714648D01*
X114297493Y-81880488D01*
X114131653Y-81714648D01*
X113965813Y-81880489D01*
X113634131Y-81548807D01*
X113302450Y-81880489D01*
X113799971Y-82378010D01*
X113634131Y-82543849D01*
X113468291Y-82378010D01*
X113302451Y-82543850D01*
X112970770Y-82212169D01*
X112639089Y-82543849D01*
X113136610Y-83041371D01*
X112970770Y-83207211D01*
X112804930Y-83041371D01*
X112639089Y-83207212D01*
X112307408Y-82875531D01*
X111975728Y-83207211D01*
X112473249Y-83704732D01*
X112307408Y-83870573D01*
X112141568Y-83704733D01*
X111975728Y-83870573D01*
X111644046Y-83538892D01*
X111312366Y-83870573D01*
X111478207Y-84036413D01*
X111312366Y-84202254D01*
X110980687Y-84202254D01*
X110980686Y-84202253D01*
X111146525Y-84036413D01*
X110980686Y-83870573D01*
X131876573Y-62974686D01*
X132042413Y-63140526D01*
X132208252Y-62974686D01*
X141495314Y-72261748D01*
X141329474Y-72427587D01*
G37*
G36*
X127730563Y-85694817D02*
G01*
X127398882Y-86026498D01*
X125574638Y-84202254D01*
X125740478Y-84036413D01*
X125574638Y-83870573D01*
X125740478Y-83704732D01*
X127730563Y-85694817D01*
G37*
G36*
X134364178Y-79061202D02*
G01*
X134032497Y-79392883D01*
X132208253Y-77568638D01*
X132374093Y-77402799D01*
X132208252Y-77236958D01*
X132374093Y-77071117D01*
X134364178Y-79061202D01*
G37*
G36*
X132705773Y-70105822D02*
G01*
X132374093Y-70437503D01*
X132042413Y-70105822D01*
X132374093Y-69774142D01*
X132705773Y-70105822D01*
G37*
G36*
X123750394Y-89674986D02*
G01*
X123418714Y-90006666D01*
X121594469Y-88182422D01*
X121760309Y-88016582D01*
X121594469Y-87850742D01*
X121760309Y-87684901D01*
X123750394Y-89674986D01*
G37*
G36*
X140334431Y-73090949D02*
G01*
X140002751Y-73422629D01*
X138178506Y-71598385D01*
X138344347Y-71432545D01*
X138178506Y-71266704D01*
X138344346Y-71100864D01*
X140334431Y-73090949D01*
G37*
G36*
X123087032Y-90338348D02*
G01*
X122755352Y-90670028D01*
X120931108Y-88845784D01*
X121096948Y-88679943D01*
X120931108Y-88514103D01*
X121096948Y-88348263D01*
X123087032Y-90338348D01*
G37*
G36*
X137017624Y-76407756D02*
G01*
X136685943Y-76739437D01*
X134861699Y-74915193D01*
X135027540Y-74749352D01*
X134861699Y-74583511D01*
X135027539Y-74417672D01*
X137017624Y-76407756D01*
G37*
G36*
X135027540Y-78397841D02*
G01*
X134695858Y-78729522D01*
X132871614Y-76905277D01*
X133037455Y-76739437D01*
X132871614Y-76573596D01*
X133037455Y-76407756D01*
X135027540Y-78397841D01*
G37*
G36*
X127067201Y-86358179D02*
G01*
X126735521Y-86689859D01*
X124911277Y-84865615D01*
X125077117Y-84699775D01*
X124911276Y-84533934D01*
X125077117Y-84368094D01*
X127067201Y-86358179D01*
G37*
G36*
X130715690Y-74085991D02*
G01*
X130384009Y-74417672D01*
X129388966Y-73422629D01*
X129720647Y-73090948D01*
X130715690Y-74085991D01*
G37*
G36*
X125077117Y-88348263D02*
G01*
X124745436Y-88679944D01*
X122921192Y-86855700D01*
X123087032Y-86689859D01*
X122921192Y-86524018D01*
X123087032Y-86358178D01*
X125077117Y-88348263D01*
G37*
G36*
X118775183Y-87021540D02*
G01*
X118609342Y-87187381D01*
X118443502Y-87021540D01*
X118609342Y-86855700D01*
X118775183Y-87021540D01*
G37*
G36*
X132705774Y-70769184D02*
G01*
X132374094Y-71100864D01*
X132042413Y-70769183D01*
X132374093Y-70437503D01*
X132705774Y-70769184D01*
G37*
G36*
X129720647Y-83704733D02*
G01*
X129388967Y-84036413D01*
X127564723Y-82212169D01*
X127730563Y-82046328D01*
X127564723Y-81880488D01*
X127730562Y-81714648D01*
X129720647Y-83704733D01*
G37*
G36*
X118941023Y-89509145D02*
G01*
X119106863Y-89674986D01*
X118443502Y-90338348D01*
X117780140Y-89674986D01*
X118111821Y-89674986D01*
X118443502Y-90006666D01*
X118775182Y-89674986D01*
X118443502Y-89343306D01*
X118111821Y-89674986D01*
X117780140Y-89674986D01*
X118443502Y-89011624D01*
X118941023Y-89509145D01*
G37*
G36*
X133534976Y-64964770D02*
G01*
X133700816Y-65130611D01*
X133037455Y-65793973D01*
X132374093Y-65130611D01*
X132705774Y-65130611D01*
X133037455Y-65462291D01*
X133369135Y-65130611D01*
X133037455Y-64798931D01*
X132705774Y-65130611D01*
X132374093Y-65130611D01*
X133037455Y-64467249D01*
X133534976Y-64964770D01*
G37*
G36*
X113965812Y-84533934D02*
G01*
X114131652Y-84699775D01*
X113468291Y-85363137D01*
X112804929Y-84699775D01*
X113136610Y-84699775D01*
X113468291Y-85031455D01*
X113799971Y-84699775D01*
X113468291Y-84368094D01*
X113136610Y-84699775D01*
X112804929Y-84699775D01*
X113468291Y-84036413D01*
X113965812Y-84533934D01*
G37*
G36*
X129057286Y-84368094D02*
G01*
X128725605Y-84699775D01*
X126901361Y-82875531D01*
X127067201Y-82709690D01*
X126901361Y-82543849D01*
X127067201Y-82378009D01*
X129057286Y-84368094D01*
G37*
G36*
X136022582Y-68779100D02*
G01*
X135690901Y-69110780D01*
X133369136Y-66789015D01*
X132374094Y-67784057D01*
X134695859Y-70105822D01*
X135690901Y-69110780D01*
X136022582Y-69442460D01*
X135027540Y-70437503D01*
X134695859Y-70105822D01*
X134364178Y-70437503D01*
X132042413Y-68115738D01*
X132374094Y-67784057D01*
X132042413Y-67452376D01*
X133037455Y-66457334D01*
X133369136Y-66789015D01*
X133700816Y-66457334D01*
X136022582Y-68779100D01*
G37*
G36*
X132042413Y-70769183D02*
G01*
X131710731Y-71100864D01*
X131379051Y-70769184D01*
X131710732Y-70437503D01*
X132042413Y-70769183D01*
G37*
G36*
X136354262Y-77071118D02*
G01*
X136022582Y-77402799D01*
X134198337Y-75578554D01*
X134364178Y-75412714D01*
X134198337Y-75246873D01*
X134364177Y-75081033D01*
X136354262Y-77071118D01*
G37*
G36*
X133037455Y-80387925D02*
G01*
X132705774Y-80719606D01*
X130881530Y-78895362D01*
X131047371Y-78729521D01*
X130881530Y-78563680D01*
X131047370Y-78397841D01*
X133037455Y-80387925D01*
G37*
G36*
X132705774Y-71432545D02*
G01*
X132374093Y-71764226D01*
X132042413Y-71432545D01*
X132374094Y-71100864D01*
X132705774Y-71432545D01*
G37*
G36*
X125740478Y-87684902D02*
G01*
X125408798Y-88016582D01*
X123584554Y-86192338D01*
X123750394Y-86026497D01*
X123584554Y-85860657D01*
X123750393Y-85694817D01*
X125740478Y-87684902D01*
G37*
G36*
X116785098Y-87353221D02*
G01*
X116121737Y-88016582D01*
X115790056Y-87684902D01*
X116453418Y-87021540D01*
X116785098Y-87353221D01*
G37*
G36*
X135690901Y-77734479D02*
G01*
X135359220Y-78066160D01*
X133534976Y-76241916D01*
X133700816Y-76076075D01*
X133534976Y-75910235D01*
X133700816Y-75744394D01*
X135690901Y-77734479D01*
G37*
G36*
X131710732Y-81714648D02*
G01*
X131379051Y-82046329D01*
X129554807Y-80222085D01*
X129720647Y-80056244D01*
X129554807Y-79890404D01*
X129720647Y-79724563D01*
X131710732Y-81714648D01*
G37*
G36*
X115955897Y-84202254D02*
G01*
X115790056Y-84368094D01*
X115624215Y-84202254D01*
X115790056Y-84036413D01*
X115955897Y-84202254D01*
G37*
G36*
X121760310Y-91665070D02*
G01*
X121428629Y-91996751D01*
X119604385Y-90172507D01*
X119770225Y-90006666D01*
X119604385Y-89840826D01*
X119770225Y-89674985D01*
X121760310Y-91665070D01*
G37*
G36*
X130384009Y-83041371D02*
G01*
X130052328Y-83373052D01*
X128228084Y-81548807D01*
X128393924Y-81382968D01*
X128228083Y-81217127D01*
X128393924Y-81051286D01*
X130384009Y-83041371D01*
G37*
G36*
X132705774Y-69442460D02*
G01*
X132374093Y-69774142D01*
X131710731Y-69110780D01*
X132042413Y-68779099D01*
X132705774Y-69442460D01*
G37*
G36*
X134364178Y-71100864D02*
G01*
X134032497Y-71432545D01*
X133369135Y-70769184D01*
X133700816Y-70437503D01*
X134364178Y-71100864D01*
G37*
G36*
X132042413Y-72759269D02*
G01*
X131710732Y-73090949D01*
X130715689Y-72095906D01*
X131047370Y-71764226D01*
X132042413Y-72759269D01*
G37*
G36*
X128725605Y-69442461D02*
G01*
X127730563Y-70437503D01*
X127398882Y-70105822D01*
X128393924Y-69110780D01*
X128725605Y-69442461D01*
G37*
G36*
X133369135Y-70769184D02*
G01*
X133037455Y-71100864D01*
X132705774Y-70769184D01*
X133037455Y-70437503D01*
X133369135Y-70769184D01*
G37*
G36*
X118941023Y-81548807D02*
G01*
X118775182Y-81714648D01*
X117780140Y-80719606D01*
X116121737Y-82378010D01*
X117116779Y-83373052D01*
X118775182Y-81714648D01*
X118941023Y-81880489D01*
X117282619Y-83538892D01*
X117116779Y-83373052D01*
X116950939Y-83538892D01*
X115955897Y-82543849D01*
X116121737Y-82378010D01*
X115955897Y-82212170D01*
X117614300Y-80553766D01*
X117780140Y-80719606D01*
X117945981Y-80553765D01*
X118941023Y-81548807D01*
G37*
G36*
X131379051Y-70769184D02*
G01*
X131047371Y-71100864D01*
X130384009Y-70437503D01*
X130715689Y-70105822D01*
X131379051Y-70769184D01*
G37*
G36*
X121096948Y-92328432D02*
G01*
X120765267Y-92660113D01*
X118941023Y-90835869D01*
X119106863Y-90670028D01*
X118941023Y-90504187D01*
X119106863Y-90338347D01*
X121096948Y-92328432D01*
G37*
G36*
X133700816Y-79724564D02*
G01*
X133369136Y-80056244D01*
X131544892Y-78232000D01*
X131710731Y-78066160D01*
X131544891Y-77900320D01*
X131710731Y-77734479D01*
X133700816Y-79724564D01*
G37*
G36*
X125408798Y-72759269D02*
G01*
X124082075Y-74085991D01*
X123750394Y-73754310D01*
X125077117Y-72427587D01*
X125408798Y-72759269D01*
G37*
G36*
X139671069Y-73754311D02*
G01*
X139339389Y-74085991D01*
X137515145Y-72261747D01*
X137680985Y-72095906D01*
X137515145Y-71930066D01*
X137680985Y-71764226D01*
X139671069Y-73754311D01*
G37*
G36*
X139007709Y-74417672D02*
G01*
X138676027Y-74749353D01*
X136851783Y-72925108D01*
X137017624Y-72759268D01*
X136851783Y-72593427D01*
X137017624Y-72427587D01*
X139007709Y-74417672D01*
G37*
G36*
X126403840Y-87021540D02*
G01*
X126072159Y-87353221D01*
X124247915Y-85528976D01*
X124413756Y-85363136D01*
X124247915Y-85197295D01*
X124413755Y-85031455D01*
X126403840Y-87021540D01*
G37*
G36*
X123750394Y-74417672D02*
G01*
X121096948Y-77071118D01*
X120765267Y-76739437D01*
X123418713Y-74085991D01*
X123750394Y-74417672D01*
G37*
D13*
%TO.C,TP1*%
X197184500Y-112370000D02*
X197184500Y-112340000D01*
X197184500Y-118800000D02*
X197184500Y-118770000D01*
X197184500Y-114270000D02*
X197184500Y-116870000D01*
%TO.C,C3*%
X166518000Y-116662252D02*
X166518000Y-115239748D01*
X164698000Y-116662252D02*
X164698000Y-115239748D01*
%TO.C,C4*%
X102463000Y-99771252D02*
X102463000Y-98348748D01*
X104283000Y-99771252D02*
X104283000Y-98348748D01*
%TO.C,C6*%
X157713000Y-115366748D02*
X157713000Y-116789252D01*
X159533000Y-115366748D02*
X159533000Y-116789252D01*
%TO.C,C1*%
X151151000Y-115239748D02*
X151151000Y-116662252D01*
X149331000Y-115239748D02*
X149331000Y-116662252D01*
%TO.C,C7*%
X162763252Y-99928000D02*
X161340748Y-99928000D01*
X162763252Y-101748000D02*
X161340748Y-101748000D01*
%TO.C,C5*%
X104283000Y-110032748D02*
X104283000Y-111455252D01*
X102463000Y-110032748D02*
X102463000Y-111455252D01*
%TD*%
M02*
