M48
; DRILL file {KiCad (6.0.5)} date Fri Mar 31 09:28:23 2023
; FORMAT={-:-/ absolute / inch / decimal}
; #@! TF.CreationDate,2023-03-31T09:28:23-05:00
; #@! TF.GenerationSoftware,Kicad,Pcbnew,(6.0.5)
; #@! TF.FileFunction,Plated,1,2,PTH
FMAT,2
INCH
; #@! TA.AperFunction,Plated,PTH,ViaDrill
T1C0.0118
; #@! TA.AperFunction,Plated,PTH,ComponentDrill
T2C0.0394
; #@! TA.AperFunction,Plated,PTH,ComponentDrill
T3C0.0433
; #@! TA.AperFunction,Plated,PTH,ComponentDrill
T4C0.0591
%
G90
G05
T1
X3.98Y-3.07
X4.05Y-3.07
X4.16Y-2.95
X4.26Y-1.81
X4.29Y-2.03
X4.35Y-1.58
X4.35Y-1.68
X4.44Y-2.9
X4.52Y-1.89
X4.52Y-2.03
X4.93Y-1.92
X4.9898Y-1.9202
X5.04Y-1.93
X5.13Y-2.62
X5.19Y-2.62
X5.4Y-2.03
X5.63Y-2.13
X5.75Y-2.13
X5.75Y-2.25
T2
X5.0994Y-2.0298
X5.0994Y-2.1298
X5.1994Y-2.0298
X5.1994Y-2.1298
X5.2994Y-2.0298
X5.2994Y-2.1298
X5.68Y-1.66
X5.68Y-1.76
X5.68Y-1.86
X5.68Y-1.96
T3
X4.322Y-2.4414
X4.322Y-2.6186
X4.578Y-2.4414
X4.578Y-2.6186
X4.8019Y-2.4414
X4.8019Y-2.6186
X4.8019Y-2.9014
X4.8019Y-3.0786
X5.0578Y-2.4414
X5.0578Y-2.6186
X5.0578Y-2.9014
X5.0578Y-3.0786
X5.2819Y-2.4414
X5.2819Y-2.6186
X5.5378Y-2.4414
X5.5378Y-2.6186
T4
X4.6889Y-1.7331
X5.1905Y-1.7331
T0
M30
