%TF.GenerationSoftware,KiCad,Pcbnew,(6.0.5)*%
%TF.CreationDate,2023-01-02T12:27:37-06:00*%
%TF.ProjectId,remote,72656d6f-7465-42e6-9b69-6361645f7063,rev?*%
%TF.SameCoordinates,Original*%
%TF.FileFunction,Paste,Bot*%
%TF.FilePolarity,Positive*%
%FSLAX46Y46*%
G04 Gerber Fmt 4.6, Leading zero omitted, Abs format (unit mm)*
G04 Created by KiCad (PCBNEW (6.0.5)) date 2023-01-02 12:27:37*
%MOMM*%
%LPD*%
G01*
G04 APERTURE LIST*
G04 Aperture macros list*
%AMRoundRect*
0 Rectangle with rounded corners*
0 $1 Rounding radius*
0 $2 $3 $4 $5 $6 $7 $8 $9 X,Y pos of 4 corners*
0 Add a 4 corners polygon primitive as box body*
4,1,4,$2,$3,$4,$5,$6,$7,$8,$9,$2,$3,0*
0 Add four circle primitives for the rounded corners*
1,1,$1+$1,$2,$3*
1,1,$1+$1,$4,$5*
1,1,$1+$1,$6,$7*
1,1,$1+$1,$8,$9*
0 Add four rect primitives between the rounded corners*
20,1,$1+$1,$2,$3,$4,$5,0*
20,1,$1+$1,$4,$5,$6,$7,0*
20,1,$1+$1,$6,$7,$8,$9,0*
20,1,$1+$1,$8,$9,$2,$3,0*%
G04 Aperture macros list end*
%ADD10R,1.500000X2.000000*%
%ADD11R,3.800000X2.000000*%
%ADD12RoundRect,0.250000X-0.625000X0.400000X-0.625000X-0.400000X0.625000X-0.400000X0.625000X0.400000X0*%
%ADD13R,2.100000X0.750000*%
%ADD14RoundRect,0.250000X-0.650000X0.412500X-0.650000X-0.412500X0.650000X-0.412500X0.650000X0.412500X0*%
%ADD15R,3.000000X2.000000*%
%ADD16RoundRect,0.250000X-0.400000X-0.625000X0.400000X-0.625000X0.400000X0.625000X-0.400000X0.625000X0*%
%ADD17R,0.900000X2.000000*%
%ADD18RoundRect,0.150000X-0.150000X0.875000X-0.150000X-0.875000X0.150000X-0.875000X0.150000X0.875000X0*%
G04 APERTURE END LIST*
D10*
%TO.C,U1*%
X112790000Y-44298000D03*
X110490000Y-44298000D03*
D11*
X110490000Y-37998000D03*
D10*
X108190000Y-44298000D03*
%TD*%
D12*
%TO.C,R3*%
X104902000Y-62712000D03*
X104902000Y-65812000D03*
%TD*%
D13*
%TO.C,J5*%
X136194800Y-75184000D03*
X138633200Y-75184000D03*
X136194800Y-76454000D03*
X138633200Y-76454000D03*
X136194800Y-77724000D03*
X138633200Y-77724000D03*
%TD*%
D14*
%TO.C,C1*%
X104140000Y-74891500D03*
X104140000Y-78016500D03*
%TD*%
D15*
%TO.C,BZ1*%
X102906300Y-50190550D03*
X102918900Y-57774550D03*
%TD*%
D16*
%TO.C,R2*%
X110464000Y-51562000D03*
X113564000Y-51562000D03*
%TD*%
%TO.C,R1*%
X110464000Y-47752000D03*
X113564000Y-47752000D03*
%TD*%
D17*
%TO.C,J1*%
X129278000Y-46382000D03*
X128008000Y-46382000D03*
X126738000Y-46382000D03*
X125468000Y-46382000D03*
X124198000Y-46382000D03*
X122928000Y-46382000D03*
X121658000Y-46382000D03*
%TD*%
D18*
%TO.C,U2*%
X106426000Y-72058000D03*
X107696000Y-72058000D03*
X108966000Y-72058000D03*
X110236000Y-72058000D03*
X111506000Y-72058000D03*
X112776000Y-72058000D03*
X114046000Y-72058000D03*
X115316000Y-72058000D03*
X116586000Y-72058000D03*
X116586000Y-81358000D03*
X115316000Y-81358000D03*
X114046000Y-81358000D03*
X112776000Y-81358000D03*
X111506000Y-81358000D03*
X110236000Y-81358000D03*
X108966000Y-81358000D03*
X107696000Y-81358000D03*
X106426000Y-81358000D03*
%TD*%
M02*
