%TF.GenerationSoftware,KiCad,Pcbnew,(6.0.5)*%
%TF.CreationDate,2023-01-02T12:27:37-06:00*%
%TF.ProjectId,remote,72656d6f-7465-42e6-9b69-6361645f7063,rev?*%
%TF.SameCoordinates,Original*%
%TF.FileFunction,Copper,L2,Bot*%
%TF.FilePolarity,Positive*%
%FSLAX46Y46*%
G04 Gerber Fmt 4.6, Leading zero omitted, Abs format (unit mm)*
G04 Created by KiCad (PCBNEW (6.0.5)) date 2023-01-02 12:27:37*
%MOMM*%
%LPD*%
G01*
G04 APERTURE LIST*
G04 Aperture macros list*
%AMRoundRect*
0 Rectangle with rounded corners*
0 $1 Rounding radius*
0 $2 $3 $4 $5 $6 $7 $8 $9 X,Y pos of 4 corners*
0 Add a 4 corners polygon primitive as box body*
4,1,4,$2,$3,$4,$5,$6,$7,$8,$9,$2,$3,0*
0 Add four circle primitives for the rounded corners*
1,1,$1+$1,$2,$3*
1,1,$1+$1,$4,$5*
1,1,$1+$1,$6,$7*
1,1,$1+$1,$8,$9*
0 Add four rect primitives between the rounded corners*
20,1,$1+$1,$2,$3,$4,$5,0*
20,1,$1+$1,$4,$5,$6,$7,0*
20,1,$1+$1,$6,$7,$8,$9,0*
20,1,$1+$1,$8,$9,$2,$3,0*%
G04 Aperture macros list end*
%TA.AperFunction,ComponentPad*%
%ADD10C,2.000000*%
%TD*%
%TA.AperFunction,ComponentPad*%
%ADD11R,1.700000X1.700000*%
%TD*%
%TA.AperFunction,ComponentPad*%
%ADD12O,1.700000X1.700000*%
%TD*%
%TA.AperFunction,SMDPad,CuDef*%
%ADD13R,1.500000X2.000000*%
%TD*%
%TA.AperFunction,SMDPad,CuDef*%
%ADD14R,3.800000X2.000000*%
%TD*%
%TA.AperFunction,SMDPad,CuDef*%
%ADD15RoundRect,0.250000X-0.625000X0.400000X-0.625000X-0.400000X0.625000X-0.400000X0.625000X0.400000X0*%
%TD*%
%TA.AperFunction,SMDPad,CuDef*%
%ADD16R,2.100000X0.750000*%
%TD*%
%TA.AperFunction,SMDPad,CuDef*%
%ADD17RoundRect,0.250000X-0.650000X0.412500X-0.650000X-0.412500X0.650000X-0.412500X0.650000X0.412500X0*%
%TD*%
%TA.AperFunction,SMDPad,CuDef*%
%ADD18R,3.000000X2.000000*%
%TD*%
%TA.AperFunction,SMDPad,CuDef*%
%ADD19RoundRect,0.250000X-0.400000X-0.625000X0.400000X-0.625000X0.400000X0.625000X-0.400000X0.625000X0*%
%TD*%
%TA.AperFunction,SMDPad,CuDef*%
%ADD20R,0.900000X2.000000*%
%TD*%
%TA.AperFunction,ComponentPad*%
%ADD21R,2.300000X2.300000*%
%TD*%
%TA.AperFunction,SMDPad,CuDef*%
%ADD22RoundRect,0.150000X-0.150000X0.875000X-0.150000X-0.875000X0.150000X-0.875000X0.150000X0.875000X0*%
%TD*%
%TA.AperFunction,ViaPad*%
%ADD23C,0.600000*%
%TD*%
%TA.AperFunction,Conductor*%
%ADD24C,0.400000*%
%TD*%
%TA.AperFunction,Conductor*%
%ADD25C,0.127000*%
%TD*%
%TA.AperFunction,Conductor*%
%ADD26C,0.200000*%
%TD*%
G04 APERTURE END LIST*
D10*
%TO.P,SW3,1,1*%
%TO.N,Net-(SW3-Pad1)*%
X140659000Y-62012000D03*
X134159000Y-62012000D03*
%TO.P,SW3,2,2*%
%TO.N,Net-(R3-Pad2)*%
X140659000Y-66512000D03*
X134159000Y-66512000D03*
%TD*%
%TO.P,SW4,1,1*%
%TO.N,Net-(SW4-Pad1)*%
X121967000Y-73696000D03*
X128467000Y-73696000D03*
%TO.P,SW4,2,2*%
%TO.N,Net-(R3-Pad2)*%
X128467000Y-78196000D03*
X121967000Y-78196000D03*
%TD*%
%TO.P,SW2,1,1*%
%TO.N,Net-(SW2-Pad1)*%
X109780000Y-62012000D03*
X116280000Y-62012000D03*
%TO.P,SW2,2,2*%
%TO.N,Net-(R3-Pad2)*%
X109780000Y-66512000D03*
X116280000Y-66512000D03*
%TD*%
%TO.P,SW1,1,1*%
%TO.N,Net-(SW1-Pad1)*%
X121967000Y-62012000D03*
X128467000Y-62012000D03*
%TO.P,SW1,2,2*%
%TO.N,Net-(R3-Pad2)*%
X128467000Y-66512000D03*
X121967000Y-66512000D03*
%TD*%
D11*
%TO.P,J3,1,Pin_1*%
%TO.N,+3V3*%
X134605000Y-51557000D03*
D12*
%TO.P,J3,2,Pin_2*%
%TO.N,+5V*%
X134605000Y-54097000D03*
%TO.P,J3,3,Pin_3*%
%TO.N,/SDA*%
X132065000Y-51557000D03*
%TO.P,J3,4,Pin_4*%
%TO.N,+5V*%
X132065000Y-54097000D03*
%TO.P,J3,5,Pin_5*%
%TO.N,/SCL*%
X129525000Y-51557000D03*
%TO.P,J3,6,Pin_6*%
%TO.N,GND*%
X129525000Y-54097000D03*
%TD*%
D11*
%TO.P,J2,1,Pin_1*%
%TO.N,GND*%
X144272000Y-42164000D03*
D12*
%TO.P,J2,2,Pin_2*%
%TO.N,+5V*%
X144272000Y-44704000D03*
%TO.P,J2,3,Pin_3*%
%TO.N,/SCL*%
X144272000Y-47244000D03*
%TO.P,J2,4,Pin_4*%
%TO.N,/SDA*%
X144272000Y-49784000D03*
%TD*%
D13*
%TO.P,U1,1,GND*%
%TO.N,GND*%
X112790000Y-44298000D03*
%TO.P,U1,2,VO*%
%TO.N,+3V3*%
X110490000Y-44298000D03*
D14*
X110490000Y-37998000D03*
D13*
%TO.P,U1,3,VI*%
%TO.N,+5V*%
X108190000Y-44298000D03*
%TD*%
D15*
%TO.P,R3,1*%
%TO.N,GND*%
X104902000Y-62712000D03*
%TO.P,R3,2*%
%TO.N,Net-(R3-Pad2)*%
X104902000Y-65812000D03*
%TD*%
D16*
%TO.P,J5,1,Pin_1*%
%TO.N,Net-(U2-Pad13)*%
X136194800Y-75184000D03*
%TO.P,J5,2,Pin_2*%
%TO.N,+3V3*%
X138633200Y-75184000D03*
%TO.P,J5,3,Pin_3*%
%TO.N,Net-(U2-Pad14)*%
X136194800Y-76454000D03*
%TO.P,J5,4,Pin_4*%
%TO.N,+3V3*%
X138633200Y-76454000D03*
%TO.P,J5,5,Pin_5*%
%TO.N,Net-(U2-Pad15)*%
X136194800Y-77724000D03*
%TO.P,J5,6,Pin_6*%
%TO.N,+3V3*%
X138633200Y-77724000D03*
%TD*%
D17*
%TO.P,C1,1*%
%TO.N,+3V3*%
X104140000Y-74891500D03*
%TO.P,C1,2*%
%TO.N,GND*%
X104140000Y-78016500D03*
%TD*%
D18*
%TO.P,BZ1,1,-*%
%TO.N,+3V3*%
X102906300Y-50190550D03*
%TO.P,BZ1,2,+*%
%TO.N,Net-(BZ1-Pad2)*%
X102918900Y-57774550D03*
%TD*%
D19*
%TO.P,R2,1*%
%TO.N,+3V3*%
X110464000Y-51562000D03*
%TO.P,R2,2*%
%TO.N,/SCL*%
X113564000Y-51562000D03*
%TD*%
%TO.P,R1,1*%
%TO.N,+3V3*%
X110464000Y-47752000D03*
%TO.P,R1,2*%
%TO.N,/SDA*%
X113564000Y-47752000D03*
%TD*%
D20*
%TO.P,J1,1,Pin_1*%
%TO.N,GND*%
X129278000Y-46382000D03*
%TO.P,J1,2,Pin_2*%
%TO.N,/IRQ*%
X128008000Y-46382000D03*
%TO.P,J1,3,Pin_3*%
%TO.N,+5V*%
X126738000Y-46382000D03*
%TO.P,J1,4,Pin_4*%
%TO.N,GND*%
X125468000Y-46382000D03*
%TO.P,J1,5,Pin_5*%
%TO.N,/SCL*%
X124198000Y-46382000D03*
%TO.P,J1,6,Pin_6*%
%TO.N,/SDA*%
X122928000Y-46382000D03*
%TO.P,J1,7,Pin_7*%
%TO.N,GND*%
X121658000Y-46382000D03*
D21*
%TO.P,J1,8*%
%TO.N,N/C*%
X119098000Y-44022000D03*
%TO.P,J1,9*%
X131838000Y-44022000D03*
%TD*%
D22*
%TO.P,U2,1,VDD*%
%TO.N,+3V3*%
X106426000Y-72058000D03*
%TO.P,U2,2*%
%TO.N,N/C*%
X107696000Y-72058000D03*
%TO.P,U2,3,SCL*%
%TO.N,/SCL*%
X108966000Y-72058000D03*
%TO.P,U2,4,SDA*%
%TO.N,/SDA*%
X110236000Y-72058000D03*
%TO.P,U2,5,ADDR*%
%TO.N,GND*%
X111506000Y-72058000D03*
%TO.P,U2,6,~{RESET}*%
X112776000Y-72058000D03*
%TO.P,U2,7,INT*%
%TO.N,/IRQ*%
X114046000Y-72058000D03*
%TO.P,U2,8,GP0*%
%TO.N,Net-(SW1-Pad1)*%
X115316000Y-72058000D03*
%TO.P,U2,9,GP1*%
%TO.N,Net-(SW2-Pad1)*%
X116586000Y-72058000D03*
%TO.P,U2,10,GP2*%
%TO.N,Net-(SW3-Pad1)*%
X116586000Y-81358000D03*
%TO.P,U2,11,GP3*%
%TO.N,Net-(SW4-Pad1)*%
X115316000Y-81358000D03*
%TO.P,U2,12,GP4*%
%TO.N,Net-(BZ1-Pad2)*%
X114046000Y-81358000D03*
%TO.P,U2,13,GP5*%
%TO.N,Net-(U2-Pad13)*%
X112776000Y-81358000D03*
%TO.P,U2,14,GP6*%
%TO.N,Net-(U2-Pad14)*%
X111506000Y-81358000D03*
%TO.P,U2,15,GP7*%
%TO.N,Net-(U2-Pad15)*%
X110236000Y-81358000D03*
%TO.P,U2,16*%
%TO.N,N/C*%
X108966000Y-81358000D03*
%TO.P,U2,17*%
X107696000Y-81358000D03*
%TO.P,U2,18,VSS*%
%TO.N,GND*%
X106426000Y-81358000D03*
%TD*%
D23*
%TO.N,+3V3*%
X137160000Y-51562000D03*
X110490000Y-40132000D03*
X108966000Y-51562000D03*
X105664000Y-74930000D03*
X143002000Y-56134000D03*
X110490000Y-42672000D03*
%TO.N,GND*%
X101092000Y-77978000D03*
X102870000Y-77978000D03*
X146050000Y-57150000D03*
%TO.N,/IRQ*%
X126746000Y-53594000D03*
X126746000Y-50800000D03*
%TO.N,+5V*%
X108204000Y-45974000D03*
X126746000Y-48006000D03*
%TO.N,/SCL*%
X146050000Y-54102000D03*
%TO.N,/SDA*%
X121920000Y-50800000D03*
X121920000Y-52832000D03*
X143002000Y-55118000D03*
%TO.N,Net-(R3-Pad2)*%
X130302000Y-66548000D03*
X131826000Y-66548000D03*
%TD*%
D24*
%TO.N,+3V3*%
X104140000Y-74891500D02*
X104140000Y-74344000D01*
X105664000Y-74930000D02*
X105625500Y-74891500D01*
X107428650Y-50190550D02*
X102144300Y-50190550D01*
X110490000Y-44298000D02*
X110490000Y-42672000D01*
X108966000Y-51562000D02*
X107511600Y-50107600D01*
X107511600Y-50107600D02*
X107428650Y-50190550D01*
X110490000Y-37998000D02*
X110490000Y-40132000D01*
D25*
X138633200Y-76454000D02*
X138633200Y-77724000D01*
D24*
X134605000Y-51557000D02*
X137155000Y-51557000D01*
X110490000Y-44298000D02*
X110490000Y-47726000D01*
X104140000Y-74891500D02*
X105625500Y-74891500D01*
D25*
X143002000Y-56134000D02*
X143002000Y-72898000D01*
X138633200Y-75184000D02*
X138633200Y-76454000D01*
X143002000Y-72898000D02*
X140716000Y-75184000D01*
D24*
X137160000Y-51562000D02*
X137155000Y-51557000D01*
X104140000Y-74344000D02*
X106426000Y-72058000D01*
X110490000Y-47726000D02*
X110464000Y-47752000D01*
X110464000Y-51562000D02*
X108966000Y-51562000D01*
D25*
X140716000Y-75184000D02*
X138633200Y-75184000D01*
D26*
%TO.N,Net-(BZ1-Pad2)*%
X102156900Y-78661900D02*
X102156900Y-57774550D01*
X114046000Y-80391000D02*
X114046000Y-81358000D01*
X103124000Y-79629000D02*
X102156900Y-78661900D01*
X103124000Y-79629000D02*
X113284000Y-79629000D01*
X113284000Y-79629000D02*
X114046000Y-80391000D01*
%TO.N,GND*%
X102908500Y-78016500D02*
X102870000Y-77978000D01*
X104140000Y-78016500D02*
X102908500Y-78016500D01*
D25*
%TO.N,/IRQ*%
X112776000Y-55880000D02*
X115062000Y-53594000D01*
X128008000Y-49538000D02*
X126746000Y-50800000D01*
X128008000Y-46382000D02*
X128008000Y-49538000D01*
X112776000Y-67818000D02*
X114046000Y-69088000D01*
X112776000Y-55880000D02*
X112776000Y-67818000D01*
X115062000Y-53594000D02*
X126746000Y-53594000D01*
X114046000Y-69088000D02*
X114046000Y-72058000D01*
D26*
%TO.N,+5V*%
X126738000Y-47998000D02*
X126746000Y-48006000D01*
X126738000Y-46382000D02*
X126738000Y-47998000D01*
X108204000Y-44312000D02*
X108190000Y-44298000D01*
X108204000Y-45974000D02*
X108204000Y-44312000D01*
D25*
%TO.N,/SCL*%
X122428000Y-51562000D02*
X113564000Y-51562000D01*
X124206000Y-49784000D02*
X125979000Y-51557000D01*
X146304000Y-49276000D02*
X146304000Y-53848000D01*
X124198000Y-46382000D02*
X124198000Y-46932000D01*
X113564000Y-51562000D02*
X113564000Y-53314000D01*
X108966000Y-70358000D02*
X108966000Y-72058000D01*
X124206000Y-49784000D02*
X122428000Y-51562000D01*
X124198000Y-46932000D02*
X124206000Y-46940000D01*
X125979000Y-51557000D02*
X129525000Y-51557000D01*
X133838000Y-47244000D02*
X144272000Y-47244000D01*
X111760000Y-55118000D02*
X111760000Y-67564000D01*
X113564000Y-53314000D02*
X111760000Y-55118000D01*
X129525000Y-51557000D02*
X133838000Y-47244000D01*
X144272000Y-47244000D02*
X146304000Y-49276000D01*
X146304000Y-53848000D02*
X146050000Y-54102000D01*
X124206000Y-46940000D02*
X124206000Y-49784000D01*
X111760000Y-67564000D02*
X108966000Y-70358000D01*
%TO.N,/SDA*%
X132065000Y-51557000D02*
X133340000Y-52832000D01*
X112268000Y-67818000D02*
X110236000Y-69850000D01*
X110236000Y-69850000D02*
X110236000Y-72058000D01*
X132065000Y-51557000D02*
X130790000Y-52832000D01*
X132065000Y-51557000D02*
X133838000Y-49784000D01*
X115824000Y-50800000D02*
X121920000Y-50800000D01*
X113564000Y-47752000D02*
X113564000Y-48540000D01*
X122936000Y-49784000D02*
X122936000Y-46940000D01*
X122928000Y-46932000D02*
X122928000Y-46382000D01*
X112268000Y-55626000D02*
X112268000Y-67818000D01*
X133838000Y-49784000D02*
X144272000Y-49784000D01*
X142240000Y-55118000D02*
X143002000Y-55118000D01*
X121920000Y-52832000D02*
X115062000Y-52832000D01*
X122936000Y-46940000D02*
X122928000Y-46932000D01*
X115062000Y-52832000D02*
X112268000Y-55626000D01*
X133340000Y-52832000D02*
X139954000Y-52832000D01*
X121920000Y-50800000D02*
X122936000Y-49784000D01*
X113564000Y-48540000D02*
X115824000Y-50800000D01*
X130790000Y-52832000D02*
X121920000Y-52832000D01*
X139954000Y-52832000D02*
X142240000Y-55118000D01*
D26*
%TO.N,Net-(R3-Pad2)*%
X134159000Y-66512000D02*
X131862000Y-66512000D01*
X131826000Y-66548000D02*
X131862000Y-66512000D01*
X134159000Y-72504000D02*
X128467000Y-78196000D01*
X130302000Y-66548000D02*
X130266000Y-66512000D01*
X128467000Y-66512000D02*
X130266000Y-66512000D01*
X109780000Y-66512000D02*
X105602000Y-66512000D01*
X105602000Y-66512000D02*
X104902000Y-65812000D01*
X121967000Y-66512000D02*
X116280000Y-66512000D01*
X134159000Y-66512000D02*
X134159000Y-72504000D01*
D25*
%TO.N,Net-(SW1-Pad1)*%
X120153000Y-60198000D02*
X121967000Y-62012000D01*
X115316000Y-72058000D02*
X115316000Y-69342000D01*
X113284000Y-67310000D02*
X113284000Y-60960000D01*
X113284000Y-60960000D02*
X114046000Y-60198000D01*
X115316000Y-69342000D02*
X113284000Y-67310000D01*
X114046000Y-60198000D02*
X120153000Y-60198000D01*
%TO.N,Net-(SW2-Pad1)*%
X113792000Y-67056000D02*
X113792000Y-64500000D01*
X116586000Y-69850000D02*
X113792000Y-67056000D01*
X113792000Y-64500000D02*
X116280000Y-62012000D01*
X116586000Y-72058000D02*
X116586000Y-69850000D01*
%TO.N,Net-(SW3-Pad1)*%
X116586000Y-81358000D02*
X116586000Y-75692000D01*
X131064000Y-65107000D02*
X134159000Y-62012000D01*
X123190000Y-69088000D02*
X130302000Y-69088000D01*
X116586000Y-75692000D02*
X123190000Y-69088000D01*
X131064000Y-68326000D02*
X131064000Y-65107000D01*
X130302000Y-69088000D02*
X131064000Y-68326000D01*
%TO.N,Net-(SW4-Pad1)*%
X117094000Y-83312000D02*
X117856000Y-82550000D01*
X117856000Y-77807000D02*
X121967000Y-73696000D01*
X115316000Y-82804000D02*
X115824000Y-83312000D01*
X115316000Y-81358000D02*
X115316000Y-82804000D01*
X117856000Y-82550000D02*
X117856000Y-77807000D01*
X115824000Y-83312000D02*
X117094000Y-83312000D01*
%TO.N,Net-(U2-Pad13)*%
X112776000Y-82804000D02*
X113538000Y-83566000D01*
X133350000Y-77353800D02*
X133350000Y-82804000D01*
X135519800Y-75184000D02*
X136194800Y-75184000D01*
X112776000Y-81358000D02*
X112776000Y-82804000D01*
X133350000Y-77353800D02*
X135519800Y-75184000D01*
X133350000Y-82804000D02*
X132588000Y-83566000D01*
X113538000Y-83566000D02*
X132588000Y-83566000D01*
%TO.N,Net-(U2-Pad14)*%
X133858000Y-78232000D02*
X133858000Y-82654531D01*
X112268000Y-83820000D02*
X111506000Y-83058000D01*
X133858000Y-82654531D02*
X132692531Y-83820000D01*
X111506000Y-83058000D02*
X111506000Y-81358000D01*
X132692531Y-83820000D02*
X112268000Y-83820000D01*
X136194800Y-76454000D02*
X135636000Y-76454000D01*
X135636000Y-76454000D02*
X133858000Y-78232000D01*
%TO.N,Net-(U2-Pad15)*%
X134874000Y-77724000D02*
X134366000Y-78232000D01*
X134366000Y-82505063D02*
X132797063Y-84074000D01*
X136194800Y-77724000D02*
X134874000Y-77724000D01*
X110236000Y-82804000D02*
X110236000Y-81358000D01*
X134366000Y-78232000D02*
X134366000Y-82505063D01*
X132797063Y-84074000D02*
X111506000Y-84074000D01*
X111506000Y-84074000D02*
X110236000Y-82804000D01*
%TD*%
%TA.AperFunction,Conductor*%
%TO.N,GND*%
G36*
X147544018Y-36070000D02*
G01*
X147558851Y-36072310D01*
X147558855Y-36072310D01*
X147567724Y-36073691D01*
X147576626Y-36072527D01*
X147576629Y-36072527D01*
X147584012Y-36071561D01*
X147608591Y-36070767D01*
X147635442Y-36072527D01*
X147830922Y-36085340D01*
X147847262Y-36087491D01*
X147969477Y-36111801D01*
X148091696Y-36136112D01*
X148107606Y-36140375D01*
X148343600Y-36220484D01*
X148358826Y-36226791D01*
X148582342Y-36337016D01*
X148596616Y-36345257D01*
X148803829Y-36483713D01*
X148816905Y-36493746D01*
X149004278Y-36658068D01*
X149015932Y-36669722D01*
X149180254Y-36857095D01*
X149190287Y-36870171D01*
X149328743Y-37077384D01*
X149336984Y-37091658D01*
X149447209Y-37315174D01*
X149453515Y-37330398D01*
X149533625Y-37566394D01*
X149537888Y-37582304D01*
X149542646Y-37606221D01*
X149586509Y-37826738D01*
X149588660Y-37843078D01*
X149602763Y-38058236D01*
X149601733Y-38081350D01*
X149601690Y-38084854D01*
X149600309Y-38093724D01*
X149601473Y-38102626D01*
X149601473Y-38102628D01*
X149604436Y-38125283D01*
X149605500Y-38141621D01*
X149605500Y-83008633D01*
X149604000Y-83028018D01*
X149601690Y-83042851D01*
X149601690Y-83042855D01*
X149600309Y-83051724D01*
X149601473Y-83060626D01*
X149601473Y-83060629D01*
X149602439Y-83068012D01*
X149603233Y-83092591D01*
X149588660Y-83314922D01*
X149586509Y-83331262D01*
X149541689Y-83556591D01*
X149537889Y-83575693D01*
X149533625Y-83591606D01*
X149453516Y-83827600D01*
X149447209Y-83842826D01*
X149336984Y-84066342D01*
X149328743Y-84080616D01*
X149190287Y-84287829D01*
X149180254Y-84300905D01*
X149015932Y-84488278D01*
X149004278Y-84499932D01*
X148816905Y-84664254D01*
X148803829Y-84674287D01*
X148596616Y-84812743D01*
X148582342Y-84820984D01*
X148358826Y-84931209D01*
X148343602Y-84937515D01*
X148107606Y-85017625D01*
X148091696Y-85021888D01*
X147969477Y-85046199D01*
X147847262Y-85070509D01*
X147830922Y-85072660D01*
X147682134Y-85082413D01*
X147615763Y-85086763D01*
X147592650Y-85085733D01*
X147589146Y-85085690D01*
X147580276Y-85084309D01*
X147571374Y-85085473D01*
X147571372Y-85085473D01*
X147557915Y-85087233D01*
X147548714Y-85088436D01*
X147532379Y-85089500D01*
X102665367Y-85089500D01*
X102645982Y-85088000D01*
X102631149Y-85085690D01*
X102631145Y-85085690D01*
X102622276Y-85084309D01*
X102613374Y-85085473D01*
X102613371Y-85085473D01*
X102605988Y-85086439D01*
X102581409Y-85087233D01*
X102536799Y-85084309D01*
X102359078Y-85072660D01*
X102342738Y-85070509D01*
X102220523Y-85046199D01*
X102098304Y-85021888D01*
X102082394Y-85017625D01*
X101846398Y-84937515D01*
X101831174Y-84931209D01*
X101607658Y-84820984D01*
X101593384Y-84812743D01*
X101386171Y-84674287D01*
X101373095Y-84664254D01*
X101185722Y-84499932D01*
X101174068Y-84488278D01*
X101009746Y-84300905D01*
X100999713Y-84287829D01*
X100861257Y-84080616D01*
X100853016Y-84066342D01*
X100742791Y-83842826D01*
X100736484Y-83827600D01*
X100656375Y-83591606D01*
X100652111Y-83575693D01*
X100648312Y-83556591D01*
X100603491Y-83331262D01*
X100601340Y-83314922D01*
X100587476Y-83103407D01*
X100588650Y-83080232D01*
X100588334Y-83080204D01*
X100588770Y-83075344D01*
X100589576Y-83070552D01*
X100589729Y-83058000D01*
X101002526Y-83058000D01*
X101022391Y-83310403D01*
X101023545Y-83315210D01*
X101023546Y-83315216D01*
X101038401Y-83377092D01*
X101081495Y-83556591D01*
X101083388Y-83561162D01*
X101083389Y-83561164D01*
X101137869Y-83692689D01*
X101178384Y-83790502D01*
X101310672Y-84006376D01*
X101475102Y-84198898D01*
X101667624Y-84363328D01*
X101883498Y-84495616D01*
X101888068Y-84497509D01*
X101888072Y-84497511D01*
X102112836Y-84590611D01*
X102117409Y-84592505D01*
X102202032Y-84612821D01*
X102358784Y-84650454D01*
X102358790Y-84650455D01*
X102363597Y-84651609D01*
X102463416Y-84659465D01*
X102550345Y-84666307D01*
X102550352Y-84666307D01*
X102552801Y-84666500D01*
X102679199Y-84666500D01*
X102681648Y-84666307D01*
X102681655Y-84666307D01*
X102768584Y-84659465D01*
X102868403Y-84651609D01*
X102873210Y-84650455D01*
X102873216Y-84650454D01*
X103029968Y-84612821D01*
X103114591Y-84592505D01*
X103119164Y-84590611D01*
X103343928Y-84497511D01*
X103343932Y-84497509D01*
X103348502Y-84495616D01*
X103564376Y-84363328D01*
X103756898Y-84198898D01*
X103921328Y-84006376D01*
X104053616Y-83790502D01*
X104094132Y-83692689D01*
X104148611Y-83561164D01*
X104148612Y-83561162D01*
X104150505Y-83556591D01*
X104193599Y-83377092D01*
X104208454Y-83315216D01*
X104208455Y-83315210D01*
X104209609Y-83310403D01*
X104229474Y-83058000D01*
X104209609Y-82805597D01*
X104206713Y-82793531D01*
X104151660Y-82564221D01*
X104150505Y-82559409D01*
X104115856Y-82475759D01*
X104055511Y-82330072D01*
X104055509Y-82330068D01*
X104053616Y-82325498D01*
X104036143Y-82296984D01*
X105618001Y-82296984D01*
X105618195Y-82301920D01*
X105620430Y-82330336D01*
X105622730Y-82342931D01*
X105665107Y-82488790D01*
X105671352Y-82503221D01*
X105747911Y-82632678D01*
X105757551Y-82645104D01*
X105863896Y-82751449D01*
X105876322Y-82761089D01*
X106005779Y-82837648D01*
X106020210Y-82843893D01*
X106154605Y-82882939D01*
X106168706Y-82882899D01*
X106172000Y-82875630D01*
X106172000Y-81630115D01*
X106167525Y-81614876D01*
X106166135Y-81613671D01*
X106158452Y-81612000D01*
X105636116Y-81612000D01*
X105620877Y-81616475D01*
X105619672Y-81617865D01*
X105618001Y-81625548D01*
X105618001Y-82296984D01*
X104036143Y-82296984D01*
X103921328Y-82109624D01*
X103756898Y-81917102D01*
X103564376Y-81752672D01*
X103348502Y-81620384D01*
X103343932Y-81618491D01*
X103343928Y-81618489D01*
X103119164Y-81525389D01*
X103119162Y-81525388D01*
X103114591Y-81523495D01*
X103029968Y-81503179D01*
X102873216Y-81465546D01*
X102873210Y-81465545D01*
X102868403Y-81464391D01*
X102768584Y-81456535D01*
X102681655Y-81449693D01*
X102681648Y-81449693D01*
X102679199Y-81449500D01*
X102552801Y-81449500D01*
X102550352Y-81449693D01*
X102550345Y-81449693D01*
X102463416Y-81456535D01*
X102363597Y-81464391D01*
X102358790Y-81465545D01*
X102358784Y-81465546D01*
X102202032Y-81503179D01*
X102117409Y-81523495D01*
X102112838Y-81525388D01*
X102112836Y-81525389D01*
X101888072Y-81618489D01*
X101888068Y-81618491D01*
X101883498Y-81620384D01*
X101667624Y-81752672D01*
X101475102Y-81917102D01*
X101310672Y-82109624D01*
X101178384Y-82325498D01*
X101176491Y-82330068D01*
X101176489Y-82330072D01*
X101116144Y-82475759D01*
X101081495Y-82559409D01*
X101080340Y-82564221D01*
X101025288Y-82793531D01*
X101022391Y-82805597D01*
X101002526Y-83058000D01*
X100589729Y-83058000D01*
X100585773Y-83030376D01*
X100584500Y-83012514D01*
X100584500Y-58822684D01*
X100910400Y-58822684D01*
X100917155Y-58884866D01*
X100968285Y-59021255D01*
X101055639Y-59137811D01*
X101172195Y-59225165D01*
X101308584Y-59276295D01*
X101370766Y-59283050D01*
X101422400Y-59283050D01*
X101490521Y-59303052D01*
X101537014Y-59356708D01*
X101548400Y-59409050D01*
X101548400Y-78613764D01*
X101547322Y-78630207D01*
X101543150Y-78661900D01*
X101548400Y-78701780D01*
X101548400Y-78701785D01*
X101549927Y-78713382D01*
X101564062Y-78820751D01*
X101625376Y-78968776D01*
X101630403Y-78975327D01*
X101630404Y-78975329D01*
X101698420Y-79063969D01*
X101698426Y-79063975D01*
X101722913Y-79095887D01*
X101729463Y-79100913D01*
X101729464Y-79100914D01*
X101748276Y-79115349D01*
X101760666Y-79126215D01*
X102659681Y-80025229D01*
X102670549Y-80037621D01*
X102690013Y-80062987D01*
X102696559Y-80068010D01*
X102696562Y-80068013D01*
X102721927Y-80087476D01*
X102721929Y-80087477D01*
X102817124Y-80160524D01*
X102824750Y-80163683D01*
X102824752Y-80163684D01*
X102891136Y-80191181D01*
X102965149Y-80221838D01*
X102973336Y-80222916D01*
X102973337Y-80222916D01*
X102984542Y-80224391D01*
X103015738Y-80228498D01*
X103084115Y-80237500D01*
X103084118Y-80237500D01*
X103084126Y-80237501D01*
X103115811Y-80241672D01*
X103124000Y-80242750D01*
X103155693Y-80238578D01*
X103172136Y-80237500D01*
X105496394Y-80237500D01*
X105564515Y-80257502D01*
X105611008Y-80311158D01*
X105619470Y-80379133D01*
X105620935Y-80379248D01*
X105618193Y-80414084D01*
X105618000Y-80419014D01*
X105618000Y-81085885D01*
X105622475Y-81101124D01*
X105623865Y-81102329D01*
X105631548Y-81104000D01*
X106554000Y-81104000D01*
X106622121Y-81124002D01*
X106668614Y-81177658D01*
X106680000Y-81230000D01*
X106680000Y-82869878D01*
X106683973Y-82883409D01*
X106691871Y-82884544D01*
X106831790Y-82843893D01*
X106846221Y-82837648D01*
X106975676Y-82761090D01*
X106983364Y-82755126D01*
X107049449Y-82729179D01*
X107119072Y-82743080D01*
X107135158Y-82753418D01*
X107139193Y-82757453D01*
X107146021Y-82761491D01*
X107146024Y-82761493D01*
X107200197Y-82793531D01*
X107282399Y-82842145D01*
X107290010Y-82844356D01*
X107290012Y-82844357D01*
X107309670Y-82850068D01*
X107442169Y-82888562D01*
X107448574Y-82889066D01*
X107448579Y-82889067D01*
X107477042Y-82891307D01*
X107477050Y-82891307D01*
X107479498Y-82891500D01*
X107912502Y-82891500D01*
X107914950Y-82891307D01*
X107914958Y-82891307D01*
X107943421Y-82889067D01*
X107943426Y-82889066D01*
X107949831Y-82888562D01*
X108082330Y-82850068D01*
X108101988Y-82844357D01*
X108101990Y-82844356D01*
X108109601Y-82842145D01*
X108252807Y-82757453D01*
X108255489Y-82754771D01*
X108319861Y-82729498D01*
X108389484Y-82743400D01*
X108405312Y-82753572D01*
X108409193Y-82757453D01*
X108552399Y-82842145D01*
X108560010Y-82844356D01*
X108560012Y-82844357D01*
X108579670Y-82850068D01*
X108712169Y-82888562D01*
X108718574Y-82889066D01*
X108718579Y-82889067D01*
X108747042Y-82891307D01*
X108747050Y-82891307D01*
X108749498Y-82891500D01*
X109182502Y-82891500D01*
X109184950Y-82891307D01*
X109184958Y-82891307D01*
X109213421Y-82889067D01*
X109213426Y-82889066D01*
X109219831Y-82888562D01*
X109352330Y-82850068D01*
X109371988Y-82844357D01*
X109371990Y-82844356D01*
X109379601Y-82842145D01*
X109479372Y-82783141D01*
X109548186Y-82765682D01*
X109615518Y-82788199D01*
X109659987Y-82843543D01*
X109668431Y-82875148D01*
X109678723Y-82953322D01*
X109736359Y-83092468D01*
X109828045Y-83211955D01*
X109834595Y-83216981D01*
X109851495Y-83229949D01*
X109863886Y-83240816D01*
X111069184Y-84446114D01*
X111080051Y-84458505D01*
X111098045Y-84481955D01*
X111217532Y-84573641D01*
X111356678Y-84631277D01*
X111387375Y-84635318D01*
X111468497Y-84645999D01*
X111468506Y-84646000D01*
X111468509Y-84646000D01*
X111468521Y-84646001D01*
X111497811Y-84649857D01*
X111497812Y-84649857D01*
X111506000Y-84650935D01*
X111514188Y-84649857D01*
X111514189Y-84649857D01*
X111535298Y-84647078D01*
X111551744Y-84646000D01*
X132751319Y-84646000D01*
X132767765Y-84647078D01*
X132788874Y-84649857D01*
X132788875Y-84649857D01*
X132797063Y-84650935D01*
X132805251Y-84649857D01*
X132805252Y-84649857D01*
X132834542Y-84646001D01*
X132834554Y-84646000D01*
X132834557Y-84646000D01*
X132834566Y-84645999D01*
X132915688Y-84635318D01*
X132946385Y-84631277D01*
X133085531Y-84573641D01*
X133205018Y-84481955D01*
X133223012Y-84458505D01*
X133233879Y-84446114D01*
X134621993Y-83058000D01*
X145960526Y-83058000D01*
X145980391Y-83310403D01*
X145981545Y-83315210D01*
X145981546Y-83315216D01*
X145996401Y-83377092D01*
X146039495Y-83556591D01*
X146041388Y-83561162D01*
X146041389Y-83561164D01*
X146095869Y-83692689D01*
X146136384Y-83790502D01*
X146268672Y-84006376D01*
X146433102Y-84198898D01*
X146625624Y-84363328D01*
X146841498Y-84495616D01*
X146846068Y-84497509D01*
X146846072Y-84497511D01*
X147070836Y-84590611D01*
X147075409Y-84592505D01*
X147160032Y-84612821D01*
X147316784Y-84650454D01*
X147316790Y-84650455D01*
X147321597Y-84651609D01*
X147421416Y-84659465D01*
X147508345Y-84666307D01*
X147508352Y-84666307D01*
X147510801Y-84666500D01*
X147637199Y-84666500D01*
X147639648Y-84666307D01*
X147639655Y-84666307D01*
X147726584Y-84659465D01*
X147826403Y-84651609D01*
X147831210Y-84650455D01*
X147831216Y-84650454D01*
X147987968Y-84612821D01*
X148072591Y-84592505D01*
X148077164Y-84590611D01*
X148301928Y-84497511D01*
X148301932Y-84497509D01*
X148306502Y-84495616D01*
X148522376Y-84363328D01*
X148714898Y-84198898D01*
X148879328Y-84006376D01*
X149011616Y-83790502D01*
X149052132Y-83692689D01*
X149106611Y-83561164D01*
X149106612Y-83561162D01*
X149108505Y-83556591D01*
X149151599Y-83377092D01*
X149166454Y-83315216D01*
X149166455Y-83315210D01*
X149167609Y-83310403D01*
X149187474Y-83058000D01*
X149167609Y-82805597D01*
X149164713Y-82793531D01*
X149109660Y-82564221D01*
X149108505Y-82559409D01*
X149073856Y-82475759D01*
X149013511Y-82330072D01*
X149013509Y-82330068D01*
X149011616Y-82325498D01*
X148879328Y-82109624D01*
X148714898Y-81917102D01*
X148522376Y-81752672D01*
X148306502Y-81620384D01*
X148301932Y-81618491D01*
X148301928Y-81618489D01*
X148077164Y-81525389D01*
X148077162Y-81525388D01*
X148072591Y-81523495D01*
X147987968Y-81503179D01*
X147831216Y-81465546D01*
X147831210Y-81465545D01*
X147826403Y-81464391D01*
X147726584Y-81456535D01*
X147639655Y-81449693D01*
X147639648Y-81449693D01*
X147637199Y-81449500D01*
X147510801Y-81449500D01*
X147508352Y-81449693D01*
X147508345Y-81449693D01*
X147421416Y-81456535D01*
X147321597Y-81464391D01*
X147316790Y-81465545D01*
X147316784Y-81465546D01*
X147160032Y-81503179D01*
X147075409Y-81523495D01*
X147070838Y-81525388D01*
X147070836Y-81525389D01*
X146846072Y-81618489D01*
X146846068Y-81618491D01*
X146841498Y-81620384D01*
X146625624Y-81752672D01*
X146433102Y-81917102D01*
X146268672Y-82109624D01*
X146136384Y-82325498D01*
X146134491Y-82330068D01*
X146134489Y-82330072D01*
X146074144Y-82475759D01*
X146039495Y-82559409D01*
X146038340Y-82564221D01*
X145983288Y-82793531D01*
X145980391Y-82805597D01*
X145960526Y-83058000D01*
X134621993Y-83058000D01*
X134738114Y-82941879D01*
X134750505Y-82931012D01*
X134767402Y-82918047D01*
X134767405Y-82918044D01*
X134773955Y-82913018D01*
X134792334Y-82889067D01*
X134831160Y-82838468D01*
X134860612Y-82800085D01*
X134865641Y-82793531D01*
X134923277Y-82654385D01*
X134942936Y-82505063D01*
X134939078Y-82475759D01*
X134938000Y-82459312D01*
X134938000Y-78730693D01*
X134958002Y-78662572D01*
X135011658Y-78616079D01*
X135077606Y-78605430D01*
X135093264Y-78607131D01*
X135093274Y-78607132D01*
X135096666Y-78607500D01*
X137292934Y-78607500D01*
X137355116Y-78600745D01*
X137369769Y-78595252D01*
X137440574Y-78590067D01*
X137458227Y-78595250D01*
X137472884Y-78600745D01*
X137535066Y-78607500D01*
X139731334Y-78607500D01*
X139793516Y-78600745D01*
X139929905Y-78549615D01*
X140046461Y-78462261D01*
X140133815Y-78345705D01*
X140184945Y-78209316D01*
X140191700Y-78147134D01*
X140191700Y-77300866D01*
X140184945Y-77238684D01*
X140145412Y-77133230D01*
X140140229Y-77062422D01*
X140145412Y-77044770D01*
X140171246Y-76975858D01*
X140184945Y-76939316D01*
X140191700Y-76877134D01*
X140191700Y-76030866D01*
X140184945Y-75968684D01*
X140182173Y-75961288D01*
X140182171Y-75961282D01*
X140169030Y-75926229D01*
X140163847Y-75855422D01*
X140197768Y-75793053D01*
X140260024Y-75758924D01*
X140287012Y-75756000D01*
X140670256Y-75756000D01*
X140686702Y-75757078D01*
X140707811Y-75759857D01*
X140707812Y-75759857D01*
X140716000Y-75760935D01*
X140724188Y-75759857D01*
X140724189Y-75759857D01*
X140753479Y-75756001D01*
X140753491Y-75756000D01*
X140753494Y-75756000D01*
X140753503Y-75755999D01*
X140834625Y-75745318D01*
X140865322Y-75741277D01*
X140918022Y-75719448D01*
X140996840Y-75686801D01*
X140996842Y-75686800D01*
X141004468Y-75683641D01*
X141011016Y-75678617D01*
X141011022Y-75678613D01*
X141023264Y-75669219D01*
X141093928Y-75614997D01*
X141093943Y-75614985D01*
X141093954Y-75614976D01*
X141093955Y-75614975D01*
X141123955Y-75591955D01*
X141141953Y-75568500D01*
X141152820Y-75556110D01*
X143374114Y-73334816D01*
X143386505Y-73323949D01*
X143403405Y-73310981D01*
X143409955Y-73305955D01*
X143501641Y-73186468D01*
X143559277Y-73047322D01*
X143574000Y-72935492D01*
X143574000Y-72935486D01*
X143578935Y-72898000D01*
X143575078Y-72868702D01*
X143574000Y-72852256D01*
X143574000Y-56759806D01*
X143594002Y-56691685D01*
X143613108Y-56668561D01*
X143620159Y-56661847D01*
X143620166Y-56661839D01*
X143625266Y-56656982D01*
X143725643Y-56505902D01*
X143790055Y-56336338D01*
X143792241Y-56320783D01*
X143814748Y-56160639D01*
X143814748Y-56160636D01*
X143815299Y-56156717D01*
X143815616Y-56134000D01*
X143795397Y-55953745D01*
X143793080Y-55947091D01*
X143738064Y-55789106D01*
X143738062Y-55789103D01*
X143735745Y-55782448D01*
X143679674Y-55692715D01*
X143660539Y-55624349D01*
X143681581Y-55556221D01*
X143725643Y-55489902D01*
X143767423Y-55379917D01*
X143787555Y-55326920D01*
X143787556Y-55326918D01*
X143790055Y-55320338D01*
X143797425Y-55267896D01*
X143814748Y-55144639D01*
X143814748Y-55144636D01*
X143815299Y-55140717D01*
X143815616Y-55118000D01*
X143795397Y-54937745D01*
X143784339Y-54905990D01*
X143738064Y-54773106D01*
X143738062Y-54773103D01*
X143735745Y-54766448D01*
X143704093Y-54715794D01*
X143643359Y-54618598D01*
X143639626Y-54612624D01*
X143619544Y-54592401D01*
X143516778Y-54488915D01*
X143516774Y-54488912D01*
X143511815Y-54483918D01*
X143500697Y-54476862D01*
X143452538Y-54446300D01*
X143358666Y-54386727D01*
X143297554Y-54364966D01*
X143194425Y-54328243D01*
X143194420Y-54328242D01*
X143187790Y-54325881D01*
X143180802Y-54325048D01*
X143180799Y-54325047D01*
X143057698Y-54310368D01*
X143007680Y-54304404D01*
X143000677Y-54305140D01*
X143000676Y-54305140D01*
X142834288Y-54322628D01*
X142834286Y-54322629D01*
X142827288Y-54323364D01*
X142655579Y-54381818D01*
X142528079Y-54460257D01*
X142459581Y-54478915D01*
X142391867Y-54457577D01*
X142372964Y-54442034D01*
X140390816Y-52459886D01*
X140379949Y-52447495D01*
X140366984Y-52430598D01*
X140366981Y-52430595D01*
X140361955Y-52424045D01*
X140298610Y-52375438D01*
X140242468Y-52332359D01*
X140157647Y-52297225D01*
X140110952Y-52277883D01*
X140110949Y-52277882D01*
X140103322Y-52274723D01*
X140100071Y-52274295D01*
X139991492Y-52260000D01*
X139991490Y-52260000D01*
X139991481Y-52259999D01*
X139962190Y-52256143D01*
X139962188Y-52256143D01*
X139954000Y-52255065D01*
X139945812Y-52256143D01*
X139945811Y-52256143D01*
X139924702Y-52258922D01*
X139908256Y-52260000D01*
X137901973Y-52260000D01*
X137833852Y-52239998D01*
X137787359Y-52186342D01*
X137777255Y-52116068D01*
X137797025Y-52064273D01*
X137856353Y-51974977D01*
X137883643Y-51933902D01*
X137948055Y-51764338D01*
X137957231Y-51699050D01*
X137972748Y-51588639D01*
X137972748Y-51588636D01*
X137973299Y-51584717D01*
X137973616Y-51562000D01*
X137953397Y-51381745D01*
X137893745Y-51210448D01*
X137890009Y-51204469D01*
X137801359Y-51062598D01*
X137797626Y-51056624D01*
X137766272Y-51025050D01*
X137674778Y-50932915D01*
X137674774Y-50932912D01*
X137669815Y-50927918D01*
X137655845Y-50919052D01*
X137593364Y-50879401D01*
X137516666Y-50830727D01*
X137487463Y-50820328D01*
X137352425Y-50772243D01*
X137352420Y-50772242D01*
X137345790Y-50769881D01*
X137338802Y-50769048D01*
X137338799Y-50769047D01*
X137212869Y-50754031D01*
X137165680Y-50748404D01*
X137158677Y-50749140D01*
X137158676Y-50749140D01*
X136992288Y-50766628D01*
X136992286Y-50766629D01*
X136985288Y-50767364D01*
X136921797Y-50788978D01*
X136820249Y-50823547D01*
X136820246Y-50823548D01*
X136813579Y-50825818D01*
X136807581Y-50829508D01*
X136807579Y-50829509D01*
X136807077Y-50829818D01*
X136806690Y-50829927D01*
X136801204Y-50832509D01*
X136800777Y-50831601D01*
X136741055Y-50848500D01*
X136089500Y-50848500D01*
X136021379Y-50828498D01*
X135974886Y-50774842D01*
X135963500Y-50722500D01*
X135963500Y-50658866D01*
X135956745Y-50596684D01*
X135953973Y-50589288D01*
X135953971Y-50589282D01*
X135930333Y-50526229D01*
X135925150Y-50455422D01*
X135959071Y-50393053D01*
X136021326Y-50358924D01*
X136048315Y-50356000D01*
X142958587Y-50356000D01*
X143026708Y-50376002D01*
X143066020Y-50416165D01*
X143140457Y-50537635D01*
X143171987Y-50589088D01*
X143318250Y-50757938D01*
X143490126Y-50900632D01*
X143683000Y-51013338D01*
X143687825Y-51015180D01*
X143687826Y-51015181D01*
X143760612Y-51042975D01*
X143891692Y-51093030D01*
X143896760Y-51094061D01*
X143896763Y-51094062D01*
X144004017Y-51115883D01*
X144110597Y-51137567D01*
X144115772Y-51137757D01*
X144115774Y-51137757D01*
X144328673Y-51145564D01*
X144328677Y-51145564D01*
X144333837Y-51145753D01*
X144338957Y-51145097D01*
X144338959Y-51145097D01*
X144550288Y-51118025D01*
X144550289Y-51118025D01*
X144555416Y-51117368D01*
X144560366Y-51115883D01*
X144764429Y-51054661D01*
X144764434Y-51054659D01*
X144769384Y-51053174D01*
X144969994Y-50954896D01*
X145151860Y-50825173D01*
X145207595Y-50769633D01*
X145306435Y-50671137D01*
X145310096Y-50667489D01*
X145320462Y-50653064D01*
X145437435Y-50490277D01*
X145440453Y-50486077D01*
X145448435Y-50469928D01*
X145493043Y-50379669D01*
X145541157Y-50327462D01*
X145609858Y-50309555D01*
X145677334Y-50331633D01*
X145722162Y-50386687D01*
X145732000Y-50435496D01*
X145732000Y-53277915D01*
X145711998Y-53346036D01*
X145672024Y-53385231D01*
X145549088Y-53460862D01*
X145544053Y-53465793D01*
X145544050Y-53465795D01*
X145499118Y-53509796D01*
X145419493Y-53587771D01*
X145321235Y-53740238D01*
X145318826Y-53746858D01*
X145318824Y-53746861D01*
X145261606Y-53904066D01*
X145259197Y-53910685D01*
X145236463Y-54090640D01*
X145254163Y-54271160D01*
X145311418Y-54443273D01*
X145315065Y-54449295D01*
X145315066Y-54449297D01*
X145339060Y-54488915D01*
X145405380Y-54598424D01*
X145531382Y-54728902D01*
X145588758Y-54766448D01*
X145645397Y-54803511D01*
X145683159Y-54828222D01*
X145689763Y-54830678D01*
X145689765Y-54830679D01*
X145846558Y-54888990D01*
X145846560Y-54888990D01*
X145853168Y-54891448D01*
X145936995Y-54902633D01*
X146025980Y-54914507D01*
X146025984Y-54914507D01*
X146032961Y-54915438D01*
X146039972Y-54914800D01*
X146039976Y-54914800D01*
X146182459Y-54901832D01*
X146213600Y-54898998D01*
X146220302Y-54896820D01*
X146220304Y-54896820D01*
X146379409Y-54845124D01*
X146379412Y-54845123D01*
X146386108Y-54842947D01*
X146530525Y-54756857D01*
X146535860Y-54753677D01*
X146535862Y-54753676D01*
X146541912Y-54750069D01*
X146673266Y-54624982D01*
X146773643Y-54473902D01*
X146828974Y-54328243D01*
X146835555Y-54310920D01*
X146835556Y-54310918D01*
X146838055Y-54304338D01*
X146840532Y-54286715D01*
X146862748Y-54128639D01*
X146862748Y-54128636D01*
X146863299Y-54124717D01*
X146863616Y-54102000D01*
X146856973Y-54042779D01*
X146860196Y-53999931D01*
X146861277Y-53997322D01*
X146864617Y-53971954D01*
X146876000Y-53885492D01*
X146876000Y-53885486D01*
X146880935Y-53848000D01*
X146877078Y-53818702D01*
X146876000Y-53802256D01*
X146876000Y-49321751D01*
X146877078Y-49305304D01*
X146879858Y-49284188D01*
X146880936Y-49276000D01*
X146861277Y-49126678D01*
X146803641Y-48987532D01*
X146734976Y-48898046D01*
X146734975Y-48898045D01*
X146711955Y-48868045D01*
X146688505Y-48850051D01*
X146676114Y-48839184D01*
X145602952Y-47766022D01*
X145568926Y-47703710D01*
X145571488Y-47640299D01*
X145602867Y-47537015D01*
X145604370Y-47532069D01*
X145633529Y-47310590D01*
X145635156Y-47244000D01*
X145616852Y-47021361D01*
X145562431Y-46804702D01*
X145473354Y-46599840D01*
X145403014Y-46491111D01*
X145354822Y-46416617D01*
X145354820Y-46416614D01*
X145352014Y-46412277D01*
X145201670Y-46247051D01*
X145197619Y-46243852D01*
X145197615Y-46243848D01*
X145030414Y-46111800D01*
X145030410Y-46111798D01*
X145026359Y-46108598D01*
X144985053Y-46085796D01*
X144935084Y-46035364D01*
X144920312Y-45965921D01*
X144945428Y-45899516D01*
X144972780Y-45872909D01*
X145031156Y-45831270D01*
X145151860Y-45745173D01*
X145310096Y-45587489D01*
X145347626Y-45535261D01*
X145437435Y-45410277D01*
X145440453Y-45406077D01*
X145470079Y-45346134D01*
X145537136Y-45210453D01*
X145537137Y-45210451D01*
X145539430Y-45205811D01*
X145604370Y-44992069D01*
X145633529Y-44770590D01*
X145635156Y-44704000D01*
X145616852Y-44481361D01*
X145562431Y-44264702D01*
X145473354Y-44059840D01*
X145352014Y-43872277D01*
X145348540Y-43868459D01*
X145348533Y-43868450D01*
X145204435Y-43710088D01*
X145173383Y-43646242D01*
X145181779Y-43575744D01*
X145226956Y-43520976D01*
X145253400Y-43507307D01*
X145360052Y-43467325D01*
X145375649Y-43458786D01*
X145477724Y-43382285D01*
X145490285Y-43369724D01*
X145566786Y-43267649D01*
X145575324Y-43252054D01*
X145620478Y-43131606D01*
X145624105Y-43116351D01*
X145629631Y-43065486D01*
X145630000Y-43058672D01*
X145630000Y-42436115D01*
X145625525Y-42420876D01*
X145624135Y-42419671D01*
X145616452Y-42418000D01*
X142932116Y-42418000D01*
X142916877Y-42422475D01*
X142915672Y-42423865D01*
X142914001Y-42431548D01*
X142914001Y-43058669D01*
X142914371Y-43065490D01*
X142919895Y-43116352D01*
X142923521Y-43131604D01*
X142968676Y-43252054D01*
X142977214Y-43267649D01*
X143053715Y-43369724D01*
X143066276Y-43382285D01*
X143168351Y-43458786D01*
X143183946Y-43467324D01*
X143292827Y-43508142D01*
X143349591Y-43550784D01*
X143374291Y-43617345D01*
X143359083Y-43686694D01*
X143339691Y-43713175D01*
X143216200Y-43842401D01*
X143212629Y-43846138D01*
X143086743Y-44030680D01*
X142992688Y-44233305D01*
X142932989Y-44448570D01*
X142909251Y-44670695D01*
X142909548Y-44675848D01*
X142909548Y-44675851D01*
X142920995Y-44874371D01*
X142922110Y-44893715D01*
X142923247Y-44898761D01*
X142923248Y-44898767D01*
X142943119Y-44986939D01*
X142971222Y-45111639D01*
X143015277Y-45220134D01*
X143043531Y-45289715D01*
X143055266Y-45318616D01*
X143171987Y-45509088D01*
X143318250Y-45677938D01*
X143490126Y-45820632D01*
X143508331Y-45831270D01*
X143563445Y-45863476D01*
X143612169Y-45915114D01*
X143625240Y-45984897D01*
X143598509Y-46050669D01*
X143558055Y-46084027D01*
X143545607Y-46090507D01*
X143541474Y-46093610D01*
X143541471Y-46093612D01*
X143422524Y-46182920D01*
X143366965Y-46224635D01*
X143212629Y-46386138D01*
X143209715Y-46390410D01*
X143209714Y-46390411D01*
X143176360Y-46439306D01*
X143086743Y-46570680D01*
X143084565Y-46575373D01*
X143084560Y-46575381D01*
X143073573Y-46599051D01*
X143026749Y-46652418D01*
X142959286Y-46672000D01*
X133883744Y-46672000D01*
X133867298Y-46670922D01*
X133846189Y-46668143D01*
X133846188Y-46668143D01*
X133838000Y-46667065D01*
X133829812Y-46668143D01*
X133829811Y-46668143D01*
X133800521Y-46671999D01*
X133800509Y-46672000D01*
X133800506Y-46672000D01*
X133800497Y-46672001D01*
X133719375Y-46682682D01*
X133688678Y-46686723D01*
X133549532Y-46744359D01*
X133470892Y-46804702D01*
X133430045Y-46836045D01*
X133425019Y-46842595D01*
X133412051Y-46859495D01*
X133401184Y-46871886D01*
X130048168Y-50224902D01*
X129985856Y-50258928D01*
X129917014Y-50254580D01*
X129878084Y-50240794D01*
X129878081Y-50240793D01*
X129873212Y-50239069D01*
X129868123Y-50238162D01*
X129868121Y-50238162D01*
X129658373Y-50200800D01*
X129658367Y-50200799D01*
X129653284Y-50199894D01*
X129579452Y-50198992D01*
X129435081Y-50197228D01*
X129435079Y-50197228D01*
X129429911Y-50197165D01*
X129209091Y-50230955D01*
X128996756Y-50300357D01*
X128992164Y-50302747D01*
X128992165Y-50302747D01*
X128808003Y-50398616D01*
X128798607Y-50403507D01*
X128794474Y-50406610D01*
X128794471Y-50406612D01*
X128635156Y-50526229D01*
X128619965Y-50537635D01*
X128563536Y-50596684D01*
X128481983Y-50682025D01*
X128465629Y-50699138D01*
X128462715Y-50703410D01*
X128462714Y-50703411D01*
X128396826Y-50800000D01*
X128339743Y-50883680D01*
X128337565Y-50888373D01*
X128337560Y-50888381D01*
X128326573Y-50912051D01*
X128279749Y-50965418D01*
X128212286Y-50985000D01*
X127681438Y-50985000D01*
X127613317Y-50964998D01*
X127566824Y-50911342D01*
X127556665Y-50841460D01*
X127557862Y-50832945D01*
X127587152Y-50768272D01*
X127593540Y-50761390D01*
X128380114Y-49974816D01*
X128392505Y-49963949D01*
X128409405Y-49950981D01*
X128415955Y-49945955D01*
X128507641Y-49826468D01*
X128551753Y-49719973D01*
X128565278Y-49687322D01*
X128567155Y-49673070D01*
X128583858Y-49546188D01*
X128584936Y-49538000D01*
X128581078Y-49508694D01*
X128580000Y-49492249D01*
X128580000Y-48008712D01*
X128600002Y-47940591D01*
X128653658Y-47894098D01*
X128719608Y-47883449D01*
X128776514Y-47889631D01*
X128783328Y-47890000D01*
X129005885Y-47890000D01*
X129021124Y-47885525D01*
X129022329Y-47884135D01*
X129024000Y-47876452D01*
X129024000Y-47871884D01*
X129532000Y-47871884D01*
X129536475Y-47887123D01*
X129537865Y-47888328D01*
X129545548Y-47889999D01*
X129772669Y-47889999D01*
X129779490Y-47889629D01*
X129830352Y-47884105D01*
X129845604Y-47880479D01*
X129966054Y-47835324D01*
X129981649Y-47826786D01*
X130083724Y-47750285D01*
X130096285Y-47737724D01*
X130172786Y-47635649D01*
X130181324Y-47620054D01*
X130226478Y-47499606D01*
X130230105Y-47484351D01*
X130235631Y-47433486D01*
X130236000Y-47426672D01*
X130236000Y-46654115D01*
X130231525Y-46638876D01*
X130230135Y-46637671D01*
X130222452Y-46636000D01*
X129550115Y-46636000D01*
X129534876Y-46640475D01*
X129533671Y-46641865D01*
X129532000Y-46649548D01*
X129532000Y-47871884D01*
X129024000Y-47871884D01*
X129024000Y-46109885D01*
X129532000Y-46109885D01*
X129536475Y-46125124D01*
X129537865Y-46126329D01*
X129545548Y-46128000D01*
X130217884Y-46128000D01*
X130233123Y-46123525D01*
X130234328Y-46122135D01*
X130235999Y-46114452D01*
X130235999Y-45720645D01*
X130256001Y-45652524D01*
X130309657Y-45606031D01*
X130379931Y-45595927D01*
X130425257Y-45614716D01*
X130426240Y-45612921D01*
X130434108Y-45617229D01*
X130441295Y-45622615D01*
X130577684Y-45673745D01*
X130639866Y-45680500D01*
X133036134Y-45680500D01*
X133098316Y-45673745D01*
X133234705Y-45622615D01*
X133351261Y-45535261D01*
X133438615Y-45418705D01*
X133489745Y-45282316D01*
X133496500Y-45220134D01*
X133496500Y-42823866D01*
X133489745Y-42761684D01*
X133438615Y-42625295D01*
X133351261Y-42508739D01*
X133234705Y-42421385D01*
X133098316Y-42370255D01*
X133036134Y-42363500D01*
X130639866Y-42363500D01*
X130577684Y-42370255D01*
X130441295Y-42421385D01*
X130324739Y-42508739D01*
X130237385Y-42625295D01*
X130186255Y-42761684D01*
X130179500Y-42823866D01*
X130179500Y-44833605D01*
X130159498Y-44901726D01*
X130105842Y-44948219D01*
X130035568Y-44958323D01*
X129990539Y-44939655D01*
X129989517Y-44941522D01*
X129966054Y-44928676D01*
X129845606Y-44883522D01*
X129830351Y-44879895D01*
X129779486Y-44874369D01*
X129772672Y-44874000D01*
X129550115Y-44874000D01*
X129534876Y-44878475D01*
X129533671Y-44879865D01*
X129532000Y-44887548D01*
X129532000Y-46109885D01*
X129024000Y-46109885D01*
X129024000Y-44892116D01*
X129019525Y-44876877D01*
X129018135Y-44875672D01*
X129010452Y-44874001D01*
X128783331Y-44874001D01*
X128776510Y-44874371D01*
X128725648Y-44879895D01*
X128710400Y-44883520D01*
X128687943Y-44891939D01*
X128617136Y-44897122D01*
X128599490Y-44891942D01*
X128568316Y-44880255D01*
X128506134Y-44873500D01*
X127509866Y-44873500D01*
X127447684Y-44880255D01*
X127417229Y-44891672D01*
X127346423Y-44896855D01*
X127328776Y-44891674D01*
X127298316Y-44880255D01*
X127236134Y-44873500D01*
X126239866Y-44873500D01*
X126177684Y-44880255D01*
X126146517Y-44891939D01*
X126075712Y-44897122D01*
X126058057Y-44891939D01*
X126035602Y-44883521D01*
X126020351Y-44879895D01*
X125969486Y-44874369D01*
X125962672Y-44874000D01*
X125740115Y-44874000D01*
X125724876Y-44878475D01*
X125723671Y-44879865D01*
X125722000Y-44887548D01*
X125722000Y-47871884D01*
X125726475Y-47887123D01*
X125727865Y-47888328D01*
X125735548Y-47889999D01*
X125807953Y-47889999D01*
X125876074Y-47910001D01*
X125922567Y-47963657D01*
X125933352Y-48003702D01*
X125950163Y-48175160D01*
X126007418Y-48347273D01*
X126101380Y-48502424D01*
X126106269Y-48507487D01*
X126106270Y-48507488D01*
X126127027Y-48528982D01*
X126227382Y-48632902D01*
X126233278Y-48636760D01*
X126340885Y-48707176D01*
X126379159Y-48732222D01*
X126385763Y-48734678D01*
X126385765Y-48734679D01*
X126542558Y-48792990D01*
X126542560Y-48792990D01*
X126549168Y-48795448D01*
X126632995Y-48806633D01*
X126721980Y-48818507D01*
X126721984Y-48818507D01*
X126728961Y-48819438D01*
X126735972Y-48818800D01*
X126735976Y-48818800D01*
X126878459Y-48805832D01*
X126909600Y-48802998D01*
X126916302Y-48800820D01*
X126916304Y-48800820D01*
X127075409Y-48749124D01*
X127075412Y-48749123D01*
X127082108Y-48746947D01*
X127235299Y-48655627D01*
X127235301Y-48655626D01*
X127237912Y-48654069D01*
X127238185Y-48654528D01*
X127300171Y-48630935D01*
X127369644Y-48645562D01*
X127420181Y-48695427D01*
X127436000Y-48756551D01*
X127436000Y-49248880D01*
X127415998Y-49317001D01*
X127399095Y-49337975D01*
X126782098Y-49954972D01*
X126719786Y-49988998D01*
X126706177Y-49991186D01*
X126654507Y-49996617D01*
X126578288Y-50004628D01*
X126578286Y-50004629D01*
X126571288Y-50005364D01*
X126399579Y-50063818D01*
X126337109Y-50102250D01*
X126251095Y-50155166D01*
X126251092Y-50155168D01*
X126245088Y-50158862D01*
X126240053Y-50163793D01*
X126240050Y-50163795D01*
X126147344Y-50254580D01*
X126115493Y-50285771D01*
X126017235Y-50438238D01*
X126014826Y-50444858D01*
X126014824Y-50444861D01*
X125991999Y-50507573D01*
X125949905Y-50564744D01*
X125883583Y-50590082D01*
X125814092Y-50575541D01*
X125784503Y-50553573D01*
X124814905Y-49583975D01*
X124780879Y-49521663D01*
X124778000Y-49494880D01*
X124778000Y-48009581D01*
X124798002Y-47941460D01*
X124851658Y-47894967D01*
X124917608Y-47884318D01*
X124966514Y-47889631D01*
X124973328Y-47890000D01*
X125195885Y-47890000D01*
X125211124Y-47885525D01*
X125212329Y-47884135D01*
X125214000Y-47876452D01*
X125214000Y-44892116D01*
X125209525Y-44876877D01*
X125208135Y-44875672D01*
X125200452Y-44874001D01*
X124973331Y-44874001D01*
X124966510Y-44874371D01*
X124915648Y-44879895D01*
X124900400Y-44883520D01*
X124877943Y-44891939D01*
X124807136Y-44897122D01*
X124789490Y-44891942D01*
X124758316Y-44880255D01*
X124696134Y-44873500D01*
X123699866Y-44873500D01*
X123637684Y-44880255D01*
X123607229Y-44891672D01*
X123536423Y-44896855D01*
X123518776Y-44891674D01*
X123488316Y-44880255D01*
X123426134Y-44873500D01*
X122429866Y-44873500D01*
X122367684Y-44880255D01*
X122336517Y-44891939D01*
X122265712Y-44897122D01*
X122248057Y-44891939D01*
X122225602Y-44883521D01*
X122210351Y-44879895D01*
X122159486Y-44874369D01*
X122152672Y-44874000D01*
X121930115Y-44874000D01*
X121914876Y-44878475D01*
X121913671Y-44879865D01*
X121912000Y-44887548D01*
X121912000Y-47871884D01*
X121916475Y-47887123D01*
X121917865Y-47888328D01*
X121925548Y-47889999D01*
X122152669Y-47889999D01*
X122159490Y-47889629D01*
X122218207Y-47883252D01*
X122218392Y-47884958D01*
X122279759Y-47888165D01*
X122337401Y-47929614D01*
X122363483Y-47995646D01*
X122364000Y-48007044D01*
X122364000Y-49494880D01*
X122343998Y-49563001D01*
X122327095Y-49583975D01*
X121956098Y-49954972D01*
X121893786Y-49988998D01*
X121880177Y-49991186D01*
X121828507Y-49996617D01*
X121752288Y-50004628D01*
X121752286Y-50004629D01*
X121745288Y-50005364D01*
X121573579Y-50063818D01*
X121511109Y-50102250D01*
X121425095Y-50155166D01*
X121425092Y-50155168D01*
X121419088Y-50158862D01*
X121414053Y-50163793D01*
X121414050Y-50163795D01*
X121385224Y-50192024D01*
X121322559Y-50225394D01*
X121297067Y-50228000D01*
X116113120Y-50228000D01*
X116044999Y-50207998D01*
X116024025Y-50191095D01*
X114678605Y-48845675D01*
X114644579Y-48783363D01*
X114649644Y-48712548D01*
X114652666Y-48705333D01*
X114656115Y-48699738D01*
X114711797Y-48531861D01*
X114722500Y-48427400D01*
X114722500Y-47426669D01*
X120700001Y-47426669D01*
X120700371Y-47433490D01*
X120705895Y-47484352D01*
X120709521Y-47499604D01*
X120754676Y-47620054D01*
X120763214Y-47635649D01*
X120839715Y-47737724D01*
X120852276Y-47750285D01*
X120954351Y-47826786D01*
X120969946Y-47835324D01*
X121090394Y-47880478D01*
X121105649Y-47884105D01*
X121156514Y-47889631D01*
X121163328Y-47890000D01*
X121385885Y-47890000D01*
X121401124Y-47885525D01*
X121402329Y-47884135D01*
X121404000Y-47876452D01*
X121404000Y-46654115D01*
X121399525Y-46638876D01*
X121398135Y-46637671D01*
X121390452Y-46636000D01*
X120718116Y-46636000D01*
X120702877Y-46640475D01*
X120701672Y-46641865D01*
X120700001Y-46649548D01*
X120700001Y-47426669D01*
X114722500Y-47426669D01*
X114722500Y-47076600D01*
X114711526Y-46970834D01*
X114655550Y-46803054D01*
X114562478Y-46652652D01*
X114437303Y-46527695D01*
X114431069Y-46523852D01*
X114292968Y-46438725D01*
X114292966Y-46438724D01*
X114286738Y-46434885D01*
X114204841Y-46407721D01*
X114125389Y-46381368D01*
X114125387Y-46381368D01*
X114118861Y-46379203D01*
X114112025Y-46378503D01*
X114112022Y-46378502D01*
X114068969Y-46374091D01*
X114014400Y-46368500D01*
X113113600Y-46368500D01*
X113110354Y-46368837D01*
X113110350Y-46368837D01*
X113014692Y-46378762D01*
X113014688Y-46378763D01*
X113007834Y-46379474D01*
X113001298Y-46381655D01*
X113001296Y-46381655D01*
X112896503Y-46416617D01*
X112840054Y-46435450D01*
X112689652Y-46528522D01*
X112564695Y-46653697D01*
X112560855Y-46659927D01*
X112560854Y-46659928D01*
X112482256Y-46787438D01*
X112471885Y-46804262D01*
X112416203Y-46972139D01*
X112405500Y-47076600D01*
X112405500Y-48427400D01*
X112405837Y-48430646D01*
X112405837Y-48430650D01*
X112414397Y-48513144D01*
X112416474Y-48533166D01*
X112418655Y-48539702D01*
X112418655Y-48539704D01*
X112451036Y-48636760D01*
X112472450Y-48700946D01*
X112565522Y-48851348D01*
X112690697Y-48976305D01*
X112696927Y-48980145D01*
X112696928Y-48980146D01*
X112834090Y-49064694D01*
X112841262Y-49069115D01*
X112852478Y-49072835D01*
X113002611Y-49122632D01*
X113002613Y-49122632D01*
X113009139Y-49124797D01*
X113015975Y-49125497D01*
X113015978Y-49125498D01*
X113059031Y-49129909D01*
X113113600Y-49135500D01*
X113298380Y-49135500D01*
X113366501Y-49155502D01*
X113387475Y-49172405D01*
X114186299Y-49971229D01*
X114220325Y-50033541D01*
X114215260Y-50104356D01*
X114172713Y-50161192D01*
X114106193Y-50186003D01*
X114084362Y-50185668D01*
X114040062Y-50181129D01*
X114014400Y-50178500D01*
X113113600Y-50178500D01*
X113110354Y-50178837D01*
X113110350Y-50178837D01*
X113014692Y-50188762D01*
X113014688Y-50188763D01*
X113007834Y-50189474D01*
X113001298Y-50191655D01*
X113001296Y-50191655D01*
X112900169Y-50225394D01*
X112840054Y-50245450D01*
X112689652Y-50338522D01*
X112564695Y-50463697D01*
X112560855Y-50469927D01*
X112560854Y-50469928D01*
X112487403Y-50589088D01*
X112471885Y-50614262D01*
X112453021Y-50671137D01*
X112421104Y-50767364D01*
X112416203Y-50782139D01*
X112415503Y-50788975D01*
X112415502Y-50788978D01*
X112411318Y-50829818D01*
X112405500Y-50886600D01*
X112405500Y-52237400D01*
X112405837Y-52240646D01*
X112405837Y-52240650D01*
X112415353Y-52332359D01*
X112416474Y-52343166D01*
X112472450Y-52510946D01*
X112565522Y-52661348D01*
X112690697Y-52786305D01*
X112696927Y-52790145D01*
X112696928Y-52790146D01*
X112834090Y-52874694D01*
X112841262Y-52879115D01*
X112892730Y-52896186D01*
X112905667Y-52900477D01*
X112964027Y-52940907D01*
X112991264Y-53006472D01*
X112992000Y-53020070D01*
X112992000Y-53024880D01*
X112971998Y-53093001D01*
X112955095Y-53113975D01*
X111387886Y-54681184D01*
X111375495Y-54692051D01*
X111352045Y-54710045D01*
X111329025Y-54740045D01*
X111329024Y-54740046D01*
X111329018Y-54740053D01*
X111329015Y-54740057D01*
X111316504Y-54756362D01*
X111308765Y-54766448D01*
X111260359Y-54829532D01*
X111202723Y-54968678D01*
X111188000Y-55080508D01*
X111188000Y-55080514D01*
X111183065Y-55118000D01*
X111184143Y-55126188D01*
X111184143Y-55126189D01*
X111186922Y-55147298D01*
X111188000Y-55163744D01*
X111188000Y-60996276D01*
X111167998Y-61064397D01*
X111114342Y-61110890D01*
X111044068Y-61120994D01*
X110979488Y-61091500D01*
X110966189Y-61078107D01*
X110853177Y-60945787D01*
X110849969Y-60942031D01*
X110669416Y-60787824D01*
X110665208Y-60785245D01*
X110665202Y-60785241D01*
X110471183Y-60666346D01*
X110466963Y-60663760D01*
X110462393Y-60661867D01*
X110462389Y-60661865D01*
X110252167Y-60574789D01*
X110252165Y-60574788D01*
X110247594Y-60572895D01*
X110167391Y-60553640D01*
X110021524Y-60518620D01*
X110021518Y-60518619D01*
X110016711Y-60517465D01*
X109780000Y-60498835D01*
X109543289Y-60517465D01*
X109538482Y-60518619D01*
X109538476Y-60518620D01*
X109392609Y-60553640D01*
X109312406Y-60572895D01*
X109307835Y-60574788D01*
X109307833Y-60574789D01*
X109097611Y-60661865D01*
X109097607Y-60661867D01*
X109093037Y-60663760D01*
X109088817Y-60666346D01*
X108894798Y-60785241D01*
X108894792Y-60785245D01*
X108890584Y-60787824D01*
X108710031Y-60942031D01*
X108555824Y-61122584D01*
X108553245Y-61126792D01*
X108553241Y-61126798D01*
X108520027Y-61180999D01*
X108431760Y-61325037D01*
X108340895Y-61544406D01*
X108323218Y-61618037D01*
X108301320Y-61709249D01*
X108285465Y-61775289D01*
X108266835Y-62012000D01*
X108285465Y-62248711D01*
X108286619Y-62253518D01*
X108286620Y-62253524D01*
X108321640Y-62399391D01*
X108340895Y-62479594D01*
X108431760Y-62698963D01*
X108434346Y-62703183D01*
X108553241Y-62897202D01*
X108553245Y-62897208D01*
X108555824Y-62901416D01*
X108710031Y-63081969D01*
X108890584Y-63236176D01*
X108894792Y-63238755D01*
X108894798Y-63238759D01*
X109032071Y-63322880D01*
X109093037Y-63360240D01*
X109097607Y-63362133D01*
X109097611Y-63362135D01*
X109307833Y-63449211D01*
X109312406Y-63451105D01*
X109392609Y-63470360D01*
X109538476Y-63505380D01*
X109538482Y-63505381D01*
X109543289Y-63506535D01*
X109780000Y-63525165D01*
X110016711Y-63506535D01*
X110021518Y-63505381D01*
X110021524Y-63505380D01*
X110167391Y-63470360D01*
X110247594Y-63451105D01*
X110252167Y-63449211D01*
X110462389Y-63362135D01*
X110462393Y-63362133D01*
X110466963Y-63360240D01*
X110527929Y-63322880D01*
X110665202Y-63238759D01*
X110665208Y-63238755D01*
X110669416Y-63236176D01*
X110849969Y-63081969D01*
X110966189Y-62945893D01*
X111025639Y-62907084D01*
X111096634Y-62906578D01*
X111156633Y-62944534D01*
X111186586Y-63008902D01*
X111188000Y-63027724D01*
X111188000Y-65496276D01*
X111167998Y-65564397D01*
X111114342Y-65610890D01*
X111044068Y-65620994D01*
X110979488Y-65591500D01*
X110966189Y-65578107D01*
X110853177Y-65445787D01*
X110849969Y-65442031D01*
X110669416Y-65287824D01*
X110665208Y-65285245D01*
X110665202Y-65285241D01*
X110471183Y-65166346D01*
X110466963Y-65163760D01*
X110462393Y-65161867D01*
X110462389Y-65161865D01*
X110252167Y-65074789D01*
X110252165Y-65074788D01*
X110247594Y-65072895D01*
X110167391Y-65053640D01*
X110021524Y-65018620D01*
X110021518Y-65018619D01*
X110016711Y-65017465D01*
X109780000Y-64998835D01*
X109543289Y-65017465D01*
X109538482Y-65018619D01*
X109538476Y-65018620D01*
X109392609Y-65053640D01*
X109312406Y-65072895D01*
X109307835Y-65074788D01*
X109307833Y-65074789D01*
X109097611Y-65161865D01*
X109097607Y-65161867D01*
X109093037Y-65163760D01*
X109088817Y-65166346D01*
X108894798Y-65285241D01*
X108894792Y-65285245D01*
X108890584Y-65287824D01*
X108710031Y-65442031D01*
X108555824Y-65622584D01*
X108553245Y-65626792D01*
X108553241Y-65626798D01*
X108460891Y-65777500D01*
X108431760Y-65825037D01*
X108429865Y-65829611D01*
X108427619Y-65834020D01*
X108425610Y-65832996D01*
X108386940Y-65880992D01*
X108315069Y-65903500D01*
X106411500Y-65903500D01*
X106343379Y-65883498D01*
X106296886Y-65829842D01*
X106285500Y-65777500D01*
X106285500Y-65361600D01*
X106282014Y-65327999D01*
X106275238Y-65262692D01*
X106275237Y-65262688D01*
X106274526Y-65255834D01*
X106218550Y-65088054D01*
X106125478Y-64937652D01*
X106000303Y-64812695D01*
X105994072Y-64808854D01*
X105855968Y-64723725D01*
X105855966Y-64723724D01*
X105849738Y-64719885D01*
X105769995Y-64693436D01*
X105688389Y-64666368D01*
X105688387Y-64666368D01*
X105681861Y-64664203D01*
X105675025Y-64663503D01*
X105675022Y-64663502D01*
X105631969Y-64659091D01*
X105577400Y-64653500D01*
X104226600Y-64653500D01*
X104223354Y-64653837D01*
X104223350Y-64653837D01*
X104127692Y-64663762D01*
X104127688Y-64663763D01*
X104120834Y-64664474D01*
X104114298Y-64666655D01*
X104114296Y-64666655D01*
X104032277Y-64694019D01*
X103953054Y-64720450D01*
X103802652Y-64813522D01*
X103677695Y-64938697D01*
X103673855Y-64944927D01*
X103673854Y-64944928D01*
X103597062Y-65069508D01*
X103584885Y-65089262D01*
X103529203Y-65257139D01*
X103518500Y-65361600D01*
X103518500Y-66262400D01*
X103529474Y-66368166D01*
X103585450Y-66535946D01*
X103678522Y-66686348D01*
X103803697Y-66811305D01*
X103954262Y-66904115D01*
X104034005Y-66930564D01*
X104115611Y-66957632D01*
X104115613Y-66957632D01*
X104122139Y-66959797D01*
X104128975Y-66960497D01*
X104128978Y-66960498D01*
X104172031Y-66964909D01*
X104226600Y-66970500D01*
X105157187Y-66970500D01*
X105225308Y-66990502D01*
X105233887Y-66996535D01*
X105246842Y-67006475D01*
X105246846Y-67006478D01*
X105295125Y-67043524D01*
X105443150Y-67104838D01*
X105562115Y-67120500D01*
X105562120Y-67120500D01*
X105562129Y-67120501D01*
X105593812Y-67124672D01*
X105602000Y-67125750D01*
X105633693Y-67121578D01*
X105650136Y-67120500D01*
X108315069Y-67120500D01*
X108383190Y-67140502D01*
X108425457Y-67191082D01*
X108427619Y-67189980D01*
X108429865Y-67194389D01*
X108431760Y-67198963D01*
X108434346Y-67203183D01*
X108553241Y-67397202D01*
X108553245Y-67397208D01*
X108555824Y-67401416D01*
X108710031Y-67581969D01*
X108890584Y-67736176D01*
X108894792Y-67738755D01*
X108894798Y-67738759D01*
X109088817Y-67857654D01*
X109093037Y-67860240D01*
X109097607Y-67862133D01*
X109097611Y-67862135D01*
X109307833Y-67949211D01*
X109312406Y-67951105D01*
X109345279Y-67958997D01*
X109538476Y-68005380D01*
X109538482Y-68005381D01*
X109543289Y-68006535D01*
X109780000Y-68025165D01*
X110016711Y-68006535D01*
X110021518Y-68005381D01*
X110021524Y-68005380D01*
X110229497Y-67955450D01*
X110300405Y-67958997D01*
X110358139Y-68000317D01*
X110384369Y-68066291D01*
X110370766Y-68135972D01*
X110348006Y-68167064D01*
X108593886Y-69921184D01*
X108581495Y-69932051D01*
X108558045Y-69950045D01*
X108466359Y-70069532D01*
X108408723Y-70208678D01*
X108394000Y-70320508D01*
X108394000Y-70320514D01*
X108389065Y-70358000D01*
X108390143Y-70366188D01*
X108390143Y-70366189D01*
X108392922Y-70387298D01*
X108394000Y-70403744D01*
X108394000Y-70521147D01*
X108373998Y-70589268D01*
X108320342Y-70635761D01*
X108250068Y-70645865D01*
X108203864Y-70629602D01*
X108109601Y-70573855D01*
X108101990Y-70571644D01*
X108101988Y-70571643D01*
X108014142Y-70546122D01*
X107949831Y-70527438D01*
X107943426Y-70526934D01*
X107943421Y-70526933D01*
X107914958Y-70524693D01*
X107914950Y-70524693D01*
X107912502Y-70524500D01*
X107479498Y-70524500D01*
X107477050Y-70524693D01*
X107477042Y-70524693D01*
X107448579Y-70526933D01*
X107448574Y-70526934D01*
X107442169Y-70527438D01*
X107377858Y-70546122D01*
X107290012Y-70571643D01*
X107290010Y-70571644D01*
X107282399Y-70573855D01*
X107139193Y-70658547D01*
X107136511Y-70661229D01*
X107072139Y-70686502D01*
X107002516Y-70672600D01*
X106986688Y-70662428D01*
X106982807Y-70658547D01*
X106839601Y-70573855D01*
X106831990Y-70571644D01*
X106831988Y-70571643D01*
X106744142Y-70546122D01*
X106679831Y-70527438D01*
X106673426Y-70526934D01*
X106673421Y-70526933D01*
X106644958Y-70524693D01*
X106644950Y-70524693D01*
X106642502Y-70524500D01*
X106209498Y-70524500D01*
X106207050Y-70524693D01*
X106207042Y-70524693D01*
X106178579Y-70526933D01*
X106178574Y-70526934D01*
X106172169Y-70527438D01*
X106107858Y-70546122D01*
X106020012Y-70571643D01*
X106020010Y-70571644D01*
X106012399Y-70573855D01*
X106005572Y-70577892D01*
X106005573Y-70577892D01*
X105876020Y-70654509D01*
X105876017Y-70654511D01*
X105869193Y-70658547D01*
X105751547Y-70776193D01*
X105747511Y-70783017D01*
X105747509Y-70783020D01*
X105683893Y-70890589D01*
X105666855Y-70919399D01*
X105620438Y-71079169D01*
X105617500Y-71116498D01*
X105617500Y-71812340D01*
X105597498Y-71880461D01*
X105580595Y-71901435D01*
X103798435Y-73683595D01*
X103736123Y-73717621D01*
X103709340Y-73720500D01*
X103439600Y-73720500D01*
X103436354Y-73720837D01*
X103436350Y-73720837D01*
X103340692Y-73730762D01*
X103340688Y-73730763D01*
X103333834Y-73731474D01*
X103327298Y-73733655D01*
X103327296Y-73733655D01*
X103195194Y-73777728D01*
X103166054Y-73787450D01*
X103015652Y-73880522D01*
X103010479Y-73885704D01*
X102980573Y-73915662D01*
X102918290Y-73949741D01*
X102847470Y-73944738D01*
X102790597Y-73902241D01*
X102765729Y-73835742D01*
X102765400Y-73826644D01*
X102765400Y-63159095D01*
X103519001Y-63159095D01*
X103519338Y-63165614D01*
X103529257Y-63261206D01*
X103532149Y-63274600D01*
X103583588Y-63428784D01*
X103589761Y-63441962D01*
X103675063Y-63579807D01*
X103684099Y-63591208D01*
X103798829Y-63705739D01*
X103810240Y-63714751D01*
X103948243Y-63799816D01*
X103961424Y-63805963D01*
X104115710Y-63857138D01*
X104129086Y-63860005D01*
X104223438Y-63869672D01*
X104229854Y-63870000D01*
X104629885Y-63870000D01*
X104645124Y-63865525D01*
X104646329Y-63864135D01*
X104648000Y-63856452D01*
X104648000Y-63851884D01*
X105156000Y-63851884D01*
X105160475Y-63867123D01*
X105161865Y-63868328D01*
X105169548Y-63869999D01*
X105574095Y-63869999D01*
X105580614Y-63869662D01*
X105676206Y-63859743D01*
X105689600Y-63856851D01*
X105843784Y-63805412D01*
X105856962Y-63799239D01*
X105994807Y-63713937D01*
X106006208Y-63704901D01*
X106120739Y-63590171D01*
X106129751Y-63578760D01*
X106214816Y-63440757D01*
X106220963Y-63427576D01*
X106272138Y-63273290D01*
X106275005Y-63259914D01*
X106284672Y-63165562D01*
X106285000Y-63159146D01*
X106285000Y-62984115D01*
X106280525Y-62968876D01*
X106279135Y-62967671D01*
X106271452Y-62966000D01*
X105174115Y-62966000D01*
X105158876Y-62970475D01*
X105157671Y-62971865D01*
X105156000Y-62979548D01*
X105156000Y-63851884D01*
X104648000Y-63851884D01*
X104648000Y-62984115D01*
X104643525Y-62968876D01*
X104642135Y-62967671D01*
X104634452Y-62966000D01*
X103537116Y-62966000D01*
X103521877Y-62970475D01*
X103520672Y-62971865D01*
X103519001Y-62979548D01*
X103519001Y-63159095D01*
X102765400Y-63159095D01*
X102765400Y-62439885D01*
X103519000Y-62439885D01*
X103523475Y-62455124D01*
X103524865Y-62456329D01*
X103532548Y-62458000D01*
X104629885Y-62458000D01*
X104645124Y-62453525D01*
X104646329Y-62452135D01*
X104648000Y-62444452D01*
X104648000Y-62439885D01*
X105156000Y-62439885D01*
X105160475Y-62455124D01*
X105161865Y-62456329D01*
X105169548Y-62458000D01*
X106266884Y-62458000D01*
X106282123Y-62453525D01*
X106283328Y-62452135D01*
X106284999Y-62444452D01*
X106284999Y-62264905D01*
X106284662Y-62258386D01*
X106274743Y-62162794D01*
X106271851Y-62149400D01*
X106220412Y-61995216D01*
X106214239Y-61982038D01*
X106128937Y-61844193D01*
X106119901Y-61832792D01*
X106005171Y-61718261D01*
X105993760Y-61709249D01*
X105855757Y-61624184D01*
X105842576Y-61618037D01*
X105688290Y-61566862D01*
X105674914Y-61563995D01*
X105580562Y-61554328D01*
X105574145Y-61554000D01*
X105174115Y-61554000D01*
X105158876Y-61558475D01*
X105157671Y-61559865D01*
X105156000Y-61567548D01*
X105156000Y-62439885D01*
X104648000Y-62439885D01*
X104648000Y-61572116D01*
X104643525Y-61556877D01*
X104642135Y-61555672D01*
X104634452Y-61554001D01*
X104229905Y-61554001D01*
X104223386Y-61554338D01*
X104127794Y-61564257D01*
X104114400Y-61567149D01*
X103960216Y-61618588D01*
X103947038Y-61624761D01*
X103809193Y-61710063D01*
X103797792Y-61719099D01*
X103683261Y-61833829D01*
X103674249Y-61845240D01*
X103589184Y-61983243D01*
X103583037Y-61996424D01*
X103531862Y-62150710D01*
X103528995Y-62164086D01*
X103519328Y-62258438D01*
X103519000Y-62264855D01*
X103519000Y-62439885D01*
X102765400Y-62439885D01*
X102765400Y-59409050D01*
X102785402Y-59340929D01*
X102839058Y-59294436D01*
X102891400Y-59283050D01*
X104467034Y-59283050D01*
X104529216Y-59276295D01*
X104665605Y-59225165D01*
X104782161Y-59137811D01*
X104869515Y-59021255D01*
X104920645Y-58884866D01*
X104927400Y-58822684D01*
X104927400Y-56726416D01*
X104920645Y-56664234D01*
X104869515Y-56527845D01*
X104782161Y-56411289D01*
X104665605Y-56323935D01*
X104529216Y-56272805D01*
X104467034Y-56266050D01*
X101370766Y-56266050D01*
X101308584Y-56272805D01*
X101172195Y-56323935D01*
X101055639Y-56411289D01*
X100968285Y-56527845D01*
X100917155Y-56664234D01*
X100910400Y-56726416D01*
X100910400Y-58822684D01*
X100584500Y-58822684D01*
X100584500Y-51238684D01*
X100897800Y-51238684D01*
X100904555Y-51300866D01*
X100955685Y-51437255D01*
X101043039Y-51553811D01*
X101159595Y-51641165D01*
X101295984Y-51692295D01*
X101358166Y-51699050D01*
X104454434Y-51699050D01*
X104516616Y-51692295D01*
X104653005Y-51641165D01*
X104769561Y-51553811D01*
X104856915Y-51437255D01*
X104908045Y-51300866D01*
X104914800Y-51238684D01*
X104914800Y-51025050D01*
X104934802Y-50956929D01*
X104988458Y-50910436D01*
X105040800Y-50899050D01*
X107248889Y-50899050D01*
X107317010Y-50919052D01*
X107337985Y-50935955D01*
X108167534Y-51765505D01*
X108197996Y-51814828D01*
X108227418Y-51903273D01*
X108231065Y-51909295D01*
X108231066Y-51909297D01*
X108308626Y-52037364D01*
X108321380Y-52058424D01*
X108326269Y-52063487D01*
X108326270Y-52063488D01*
X108380145Y-52119277D01*
X108447382Y-52188902D01*
X108599159Y-52288222D01*
X108605763Y-52290678D01*
X108605765Y-52290679D01*
X108762558Y-52348990D01*
X108762560Y-52348990D01*
X108769168Y-52351448D01*
X108852995Y-52362633D01*
X108941980Y-52374507D01*
X108941984Y-52374507D01*
X108948961Y-52375438D01*
X108955972Y-52374800D01*
X108955976Y-52374800D01*
X109098459Y-52361832D01*
X109129600Y-52358998D01*
X109136305Y-52356819D01*
X109136307Y-52356819D01*
X109184068Y-52341301D01*
X109255035Y-52339274D01*
X109315833Y-52375937D01*
X109342526Y-52421257D01*
X109370129Y-52503993D01*
X109370133Y-52504003D01*
X109372450Y-52510946D01*
X109465522Y-52661348D01*
X109590697Y-52786305D01*
X109596927Y-52790145D01*
X109596928Y-52790146D01*
X109734090Y-52874694D01*
X109741262Y-52879115D01*
X109805667Y-52900477D01*
X109902611Y-52932632D01*
X109902613Y-52932632D01*
X109909139Y-52934797D01*
X109915975Y-52935497D01*
X109915978Y-52935498D01*
X109959031Y-52939909D01*
X110013600Y-52945500D01*
X110914400Y-52945500D01*
X110917646Y-52945163D01*
X110917650Y-52945163D01*
X111013308Y-52935238D01*
X111013312Y-52935237D01*
X111020166Y-52934526D01*
X111026702Y-52932345D01*
X111026704Y-52932345D01*
X111158806Y-52888272D01*
X111187946Y-52878550D01*
X111338348Y-52785478D01*
X111463305Y-52660303D01*
X111556115Y-52509738D01*
X111609196Y-52349704D01*
X111609632Y-52348389D01*
X111609632Y-52348387D01*
X111611797Y-52341861D01*
X111613095Y-52329199D01*
X111620184Y-52260000D01*
X111622500Y-52237400D01*
X111622500Y-50886600D01*
X111618547Y-50848500D01*
X111612238Y-50787692D01*
X111612237Y-50787688D01*
X111611526Y-50780834D01*
X111606787Y-50766628D01*
X111557868Y-50620002D01*
X111555550Y-50613054D01*
X111462478Y-50462652D01*
X111337303Y-50337695D01*
X111274123Y-50298750D01*
X111192968Y-50248725D01*
X111192966Y-50248724D01*
X111186738Y-50244885D01*
X111106995Y-50218436D01*
X111025389Y-50191368D01*
X111025387Y-50191368D01*
X111018861Y-50189203D01*
X111012025Y-50188503D01*
X111012022Y-50188502D01*
X110968969Y-50184091D01*
X110914400Y-50178500D01*
X110013600Y-50178500D01*
X110010354Y-50178837D01*
X110010350Y-50178837D01*
X109914692Y-50188762D01*
X109914688Y-50188763D01*
X109907834Y-50189474D01*
X109901298Y-50191655D01*
X109901296Y-50191655D01*
X109800169Y-50225394D01*
X109740054Y-50245450D01*
X109589652Y-50338522D01*
X109464695Y-50463697D01*
X109460855Y-50469927D01*
X109460854Y-50469928D01*
X109387403Y-50589088D01*
X109371885Y-50614262D01*
X109353021Y-50671137D01*
X109348588Y-50684501D01*
X109308158Y-50742862D01*
X109242594Y-50770099D01*
X109172712Y-50757566D01*
X109139900Y-50733930D01*
X108019017Y-49613047D01*
X108018551Y-49612580D01*
X107960256Y-49553671D01*
X107960255Y-49553670D01*
X107954916Y-49548275D01*
X107922833Y-49528615D01*
X107910923Y-49520337D01*
X107887296Y-49501811D01*
X107887294Y-49501810D01*
X107881318Y-49497124D01*
X107874395Y-49493998D01*
X107874393Y-49493997D01*
X107851030Y-49483448D01*
X107837048Y-49476045D01*
X107815185Y-49462647D01*
X107815179Y-49462644D01*
X107808702Y-49458675D01*
X107772849Y-49447233D01*
X107759318Y-49442038D01*
X107731953Y-49429682D01*
X107731952Y-49429682D01*
X107725027Y-49426555D01*
X107692343Y-49420498D01*
X107677000Y-49416644D01*
X107645335Y-49406538D01*
X107637758Y-49406021D01*
X107637756Y-49406021D01*
X107607803Y-49403979D01*
X107593413Y-49402161D01*
X107563882Y-49396688D01*
X107556414Y-49395304D01*
X107548834Y-49395741D01*
X107548833Y-49395741D01*
X107541221Y-49396180D01*
X107523219Y-49397218D01*
X107507403Y-49397135D01*
X107496645Y-49396402D01*
X107481823Y-49395391D01*
X107481820Y-49395391D01*
X107474248Y-49394875D01*
X107466772Y-49396180D01*
X107466767Y-49396180D01*
X107437185Y-49401343D01*
X107422777Y-49403010D01*
X107411102Y-49403683D01*
X107385215Y-49405176D01*
X107377954Y-49407410D01*
X107377953Y-49407410D01*
X107353451Y-49414948D01*
X107338063Y-49418642D01*
X107321515Y-49421530D01*
X107305316Y-49424357D01*
X107298362Y-49427410D01*
X107298354Y-49427412D01*
X107270858Y-49439482D01*
X107257264Y-49444538D01*
X107221311Y-49455599D01*
X107214792Y-49459500D01*
X107214793Y-49459500D01*
X107206996Y-49464166D01*
X107142290Y-49482050D01*
X105040800Y-49482050D01*
X104972679Y-49462048D01*
X104926186Y-49408392D01*
X104914800Y-49356050D01*
X104914800Y-49142416D01*
X104908045Y-49080234D01*
X104856915Y-48943845D01*
X104769561Y-48827289D01*
X104653005Y-48739935D01*
X104516616Y-48688805D01*
X104454434Y-48682050D01*
X101358166Y-48682050D01*
X101295984Y-48688805D01*
X101159595Y-48739935D01*
X101043039Y-48827289D01*
X100955685Y-48943845D01*
X100904555Y-49080234D01*
X100897800Y-49142416D01*
X100897800Y-51238684D01*
X100584500Y-51238684D01*
X100584500Y-45346134D01*
X106931500Y-45346134D01*
X106938255Y-45408316D01*
X106989385Y-45544705D01*
X107076739Y-45661261D01*
X107193295Y-45748615D01*
X107201704Y-45751767D01*
X107201705Y-45751768D01*
X107314103Y-45793904D01*
X107370868Y-45836545D01*
X107395568Y-45903107D01*
X107394880Y-45927675D01*
X107390463Y-45962640D01*
X107408163Y-46143160D01*
X107465418Y-46315273D01*
X107469065Y-46321295D01*
X107469066Y-46321297D01*
X107542248Y-46442135D01*
X107559380Y-46470424D01*
X107685382Y-46600902D01*
X107837159Y-46700222D01*
X107843763Y-46702678D01*
X107843765Y-46702679D01*
X108000558Y-46760990D01*
X108000560Y-46760990D01*
X108007168Y-46763448D01*
X108090995Y-46774633D01*
X108179980Y-46786507D01*
X108179984Y-46786507D01*
X108186961Y-46787438D01*
X108193972Y-46786800D01*
X108193976Y-46786800D01*
X108336459Y-46773832D01*
X108367600Y-46770998D01*
X108374302Y-46768820D01*
X108374304Y-46768820D01*
X108533409Y-46717124D01*
X108533412Y-46717123D01*
X108540108Y-46714947D01*
X108651545Y-46648517D01*
X108689860Y-46625677D01*
X108689862Y-46625676D01*
X108695912Y-46622069D01*
X108827266Y-46496982D01*
X108927643Y-46345902D01*
X108972289Y-46228373D01*
X108989555Y-46182920D01*
X108989556Y-46182918D01*
X108992055Y-46176338D01*
X108993035Y-46169366D01*
X109016748Y-46000639D01*
X109016748Y-46000636D01*
X109017299Y-45996717D01*
X109017616Y-45974000D01*
X109011122Y-45916105D01*
X109023406Y-45846179D01*
X109071545Y-45793995D01*
X109092108Y-45784078D01*
X109178295Y-45751768D01*
X109178296Y-45751767D01*
X109186705Y-45748615D01*
X109224024Y-45720646D01*
X109264435Y-45690360D01*
X109330942Y-45665512D01*
X109400324Y-45680565D01*
X109415565Y-45690360D01*
X109455976Y-45720646D01*
X109493295Y-45748615D01*
X109629684Y-45799745D01*
X109656914Y-45802703D01*
X109669108Y-45804028D01*
X109734670Y-45831270D01*
X109775096Y-45889634D01*
X109781500Y-45929291D01*
X109781500Y-46339600D01*
X109761498Y-46407721D01*
X109721803Y-46446744D01*
X109589652Y-46528522D01*
X109464695Y-46653697D01*
X109460855Y-46659927D01*
X109460854Y-46659928D01*
X109382256Y-46787438D01*
X109371885Y-46804262D01*
X109316203Y-46972139D01*
X109305500Y-47076600D01*
X109305500Y-48427400D01*
X109305837Y-48430646D01*
X109305837Y-48430650D01*
X109314397Y-48513144D01*
X109316474Y-48533166D01*
X109318655Y-48539702D01*
X109318655Y-48539704D01*
X109351036Y-48636760D01*
X109372450Y-48700946D01*
X109465522Y-48851348D01*
X109590697Y-48976305D01*
X109596927Y-48980145D01*
X109596928Y-48980146D01*
X109734090Y-49064694D01*
X109741262Y-49069115D01*
X109752478Y-49072835D01*
X109902611Y-49122632D01*
X109902613Y-49122632D01*
X109909139Y-49124797D01*
X109915975Y-49125497D01*
X109915978Y-49125498D01*
X109959031Y-49129909D01*
X110013600Y-49135500D01*
X110914400Y-49135500D01*
X110917646Y-49135163D01*
X110917650Y-49135163D01*
X111013308Y-49125238D01*
X111013312Y-49125237D01*
X111020166Y-49124526D01*
X111026702Y-49122345D01*
X111026704Y-49122345D01*
X111175102Y-49072835D01*
X111187946Y-49068550D01*
X111338348Y-48975478D01*
X111463305Y-48850303D01*
X111482724Y-48818800D01*
X111552275Y-48705968D01*
X111552276Y-48705966D01*
X111556115Y-48699738D01*
X111611797Y-48531861D01*
X111622500Y-48427400D01*
X111622500Y-47076600D01*
X111611526Y-46970834D01*
X111555550Y-46803054D01*
X111462478Y-46652652D01*
X111337303Y-46527695D01*
X111331075Y-46523856D01*
X111331070Y-46523852D01*
X111258383Y-46479047D01*
X111210890Y-46426275D01*
X111198500Y-46371788D01*
X111198500Y-45929291D01*
X111218502Y-45861170D01*
X111272158Y-45814677D01*
X111310892Y-45804028D01*
X111323086Y-45802703D01*
X111350316Y-45799745D01*
X111486705Y-45748615D01*
X111564852Y-45690047D01*
X111631358Y-45665199D01*
X111700741Y-45680252D01*
X111715982Y-45690047D01*
X111786352Y-45742786D01*
X111801946Y-45751324D01*
X111922394Y-45796478D01*
X111937649Y-45800105D01*
X111988514Y-45805631D01*
X111995328Y-45806000D01*
X112517885Y-45806000D01*
X112533124Y-45801525D01*
X112534329Y-45800135D01*
X112536000Y-45792452D01*
X112536000Y-45787884D01*
X113044000Y-45787884D01*
X113048475Y-45803123D01*
X113049865Y-45804328D01*
X113057548Y-45805999D01*
X113584669Y-45805999D01*
X113591490Y-45805629D01*
X113642352Y-45800105D01*
X113657604Y-45796479D01*
X113778054Y-45751324D01*
X113793649Y-45742786D01*
X113895724Y-45666285D01*
X113908285Y-45653724D01*
X113984786Y-45551649D01*
X113993324Y-45536054D01*
X114038478Y-45415606D01*
X114042105Y-45400351D01*
X114047631Y-45349486D01*
X114048000Y-45342672D01*
X114048000Y-45220134D01*
X117439500Y-45220134D01*
X117446255Y-45282316D01*
X117497385Y-45418705D01*
X117584739Y-45535261D01*
X117701295Y-45622615D01*
X117837684Y-45673745D01*
X117899866Y-45680500D01*
X120296134Y-45680500D01*
X120358316Y-45673745D01*
X120494705Y-45622615D01*
X120501892Y-45617229D01*
X120509760Y-45612921D01*
X120510972Y-45615134D01*
X120564952Y-45594971D01*
X120634333Y-45610030D01*
X120684559Y-45660208D01*
X120700000Y-45720646D01*
X120700000Y-46109885D01*
X120704475Y-46125124D01*
X120705865Y-46126329D01*
X120713548Y-46128000D01*
X121385885Y-46128000D01*
X121401124Y-46123525D01*
X121402329Y-46122135D01*
X121404000Y-46114452D01*
X121404000Y-44892116D01*
X121399525Y-44876877D01*
X121398135Y-44875672D01*
X121390452Y-44874001D01*
X121163331Y-44874001D01*
X121156510Y-44874371D01*
X121105648Y-44879895D01*
X121090396Y-44883521D01*
X120969946Y-44928676D01*
X120946483Y-44941522D01*
X120945226Y-44939227D01*
X120891562Y-44959279D01*
X120822179Y-44944228D01*
X120771947Y-44894055D01*
X120756500Y-44833605D01*
X120756500Y-42823866D01*
X120749745Y-42761684D01*
X120698615Y-42625295D01*
X120611261Y-42508739D01*
X120494705Y-42421385D01*
X120358316Y-42370255D01*
X120296134Y-42363500D01*
X117899866Y-42363500D01*
X117837684Y-42370255D01*
X117701295Y-42421385D01*
X117584739Y-42508739D01*
X117497385Y-42625295D01*
X117446255Y-42761684D01*
X117439500Y-42823866D01*
X117439500Y-45220134D01*
X114048000Y-45220134D01*
X114048000Y-44570115D01*
X114043525Y-44554876D01*
X114042135Y-44553671D01*
X114034452Y-44552000D01*
X113062115Y-44552000D01*
X113046876Y-44556475D01*
X113045671Y-44557865D01*
X113044000Y-44565548D01*
X113044000Y-45787884D01*
X112536000Y-45787884D01*
X112536000Y-44025885D01*
X113044000Y-44025885D01*
X113048475Y-44041124D01*
X113049865Y-44042329D01*
X113057548Y-44044000D01*
X114029884Y-44044000D01*
X114045123Y-44039525D01*
X114046328Y-44038135D01*
X114047999Y-44030452D01*
X114047999Y-43253331D01*
X114047629Y-43246510D01*
X114042105Y-43195648D01*
X114038479Y-43180396D01*
X113993324Y-43059946D01*
X113984786Y-43044351D01*
X113908285Y-42942276D01*
X113895724Y-42929715D01*
X113793649Y-42853214D01*
X113778054Y-42844676D01*
X113657606Y-42799522D01*
X113642351Y-42795895D01*
X113591486Y-42790369D01*
X113584672Y-42790000D01*
X113062115Y-42790000D01*
X113046876Y-42794475D01*
X113045671Y-42795865D01*
X113044000Y-42803548D01*
X113044000Y-44025885D01*
X112536000Y-44025885D01*
X112536000Y-42808116D01*
X112531525Y-42792877D01*
X112530135Y-42791672D01*
X112522452Y-42790001D01*
X111995331Y-42790001D01*
X111988510Y-42790371D01*
X111937648Y-42795895D01*
X111922396Y-42799521D01*
X111801946Y-42844676D01*
X111786352Y-42853214D01*
X111715982Y-42905953D01*
X111649476Y-42930801D01*
X111580093Y-42915748D01*
X111564852Y-42905953D01*
X111562955Y-42904531D01*
X111486705Y-42847385D01*
X111478296Y-42844233D01*
X111478295Y-42844232D01*
X111385130Y-42809306D01*
X111328365Y-42766665D01*
X111303665Y-42700103D01*
X111303371Y-42689567D01*
X111303561Y-42675963D01*
X111303561Y-42675958D01*
X111303616Y-42672000D01*
X111283397Y-42491745D01*
X111281080Y-42485091D01*
X111226064Y-42327106D01*
X111226062Y-42327103D01*
X111223745Y-42320448D01*
X111127626Y-42166624D01*
X111113941Y-42152843D01*
X111004778Y-42042915D01*
X111004774Y-42042912D01*
X110999815Y-42037918D01*
X110988697Y-42030862D01*
X110940538Y-42000300D01*
X110846666Y-41940727D01*
X110817463Y-41930328D01*
X110709503Y-41891885D01*
X142914000Y-41891885D01*
X142918475Y-41907124D01*
X142919865Y-41908329D01*
X142927548Y-41910000D01*
X143999885Y-41910000D01*
X144015124Y-41905525D01*
X144016329Y-41904135D01*
X144018000Y-41896452D01*
X144018000Y-41891885D01*
X144526000Y-41891885D01*
X144530475Y-41907124D01*
X144531865Y-41908329D01*
X144539548Y-41910000D01*
X145611884Y-41910000D01*
X145627123Y-41905525D01*
X145628328Y-41904135D01*
X145629999Y-41896452D01*
X145629999Y-41269331D01*
X145629629Y-41262510D01*
X145624105Y-41211648D01*
X145620479Y-41196396D01*
X145575324Y-41075946D01*
X145566786Y-41060351D01*
X145490285Y-40958276D01*
X145477724Y-40945715D01*
X145375649Y-40869214D01*
X145360054Y-40860676D01*
X145239606Y-40815522D01*
X145224351Y-40811895D01*
X145173486Y-40806369D01*
X145166672Y-40806000D01*
X144544115Y-40806000D01*
X144528876Y-40810475D01*
X144527671Y-40811865D01*
X144526000Y-40819548D01*
X144526000Y-41891885D01*
X144018000Y-41891885D01*
X144018000Y-40824116D01*
X144013525Y-40808877D01*
X144012135Y-40807672D01*
X144004452Y-40806001D01*
X143377331Y-40806001D01*
X143370510Y-40806371D01*
X143319648Y-40811895D01*
X143304396Y-40815521D01*
X143183946Y-40860676D01*
X143168351Y-40869214D01*
X143066276Y-40945715D01*
X143053715Y-40958276D01*
X142977214Y-41060351D01*
X142968676Y-41075946D01*
X142923522Y-41196394D01*
X142919895Y-41211649D01*
X142914369Y-41262514D01*
X142914000Y-41269328D01*
X142914000Y-41891885D01*
X110709503Y-41891885D01*
X110682425Y-41882243D01*
X110682420Y-41882242D01*
X110675790Y-41879881D01*
X110668802Y-41879048D01*
X110668799Y-41879047D01*
X110545698Y-41864368D01*
X110495680Y-41858404D01*
X110488677Y-41859140D01*
X110488676Y-41859140D01*
X110322288Y-41876628D01*
X110322286Y-41876629D01*
X110315288Y-41877364D01*
X110143579Y-41935818D01*
X110137575Y-41939512D01*
X109995095Y-42027166D01*
X109995092Y-42027168D01*
X109989088Y-42030862D01*
X109984053Y-42035793D01*
X109984050Y-42035795D01*
X109864525Y-42152843D01*
X109859493Y-42157771D01*
X109761235Y-42310238D01*
X109758826Y-42316858D01*
X109758824Y-42316861D01*
X109715419Y-42436115D01*
X109699197Y-42480685D01*
X109676463Y-42660640D01*
X109677151Y-42667653D01*
X109678187Y-42678224D01*
X109664927Y-42747972D01*
X109616064Y-42799478D01*
X109597017Y-42808501D01*
X109501705Y-42844232D01*
X109501704Y-42844233D01*
X109493295Y-42847385D01*
X109486110Y-42852770D01*
X109486108Y-42852771D01*
X109415565Y-42905640D01*
X109349058Y-42930488D01*
X109279676Y-42915435D01*
X109264435Y-42905640D01*
X109193892Y-42852771D01*
X109193890Y-42852770D01*
X109186705Y-42847385D01*
X109050316Y-42796255D01*
X108988134Y-42789500D01*
X107391866Y-42789500D01*
X107329684Y-42796255D01*
X107193295Y-42847385D01*
X107076739Y-42934739D01*
X106989385Y-43051295D01*
X106938255Y-43187684D01*
X106931500Y-43249866D01*
X106931500Y-45346134D01*
X100584500Y-45346134D01*
X100584500Y-38153250D01*
X100586246Y-38132345D01*
X100588770Y-38117344D01*
X100588770Y-38117341D01*
X100589576Y-38112552D01*
X100589729Y-38100000D01*
X101002526Y-38100000D01*
X101022391Y-38352403D01*
X101081495Y-38598591D01*
X101178384Y-38832502D01*
X101310672Y-39048376D01*
X101475102Y-39240898D01*
X101667624Y-39405328D01*
X101883498Y-39537616D01*
X101888068Y-39539509D01*
X101888072Y-39539511D01*
X102112568Y-39632500D01*
X102117409Y-39634505D01*
X102202032Y-39654821D01*
X102358784Y-39692454D01*
X102358790Y-39692455D01*
X102363597Y-39693609D01*
X102463416Y-39701465D01*
X102550345Y-39708307D01*
X102550352Y-39708307D01*
X102552801Y-39708500D01*
X102679199Y-39708500D01*
X102681648Y-39708307D01*
X102681655Y-39708307D01*
X102768584Y-39701465D01*
X102868403Y-39693609D01*
X102873210Y-39692455D01*
X102873216Y-39692454D01*
X103029968Y-39654821D01*
X103114591Y-39634505D01*
X103119432Y-39632500D01*
X103343928Y-39539511D01*
X103343932Y-39539509D01*
X103348502Y-39537616D01*
X103564376Y-39405328D01*
X103756898Y-39240898D01*
X103921328Y-39048376D01*
X103922702Y-39046134D01*
X108081500Y-39046134D01*
X108088255Y-39108316D01*
X108139385Y-39244705D01*
X108226739Y-39361261D01*
X108343295Y-39448615D01*
X108479684Y-39499745D01*
X108541866Y-39506500D01*
X109655500Y-39506500D01*
X109723621Y-39526502D01*
X109770114Y-39580158D01*
X109781500Y-39632500D01*
X109781500Y-39701710D01*
X109765341Y-39756598D01*
X109768183Y-39758009D01*
X109765053Y-39764313D01*
X109761235Y-39770238D01*
X109758826Y-39776858D01*
X109758824Y-39776861D01*
X109701606Y-39934066D01*
X109699197Y-39940685D01*
X109676463Y-40120640D01*
X109694163Y-40301160D01*
X109751418Y-40473273D01*
X109755065Y-40479295D01*
X109755066Y-40479297D01*
X109765978Y-40497314D01*
X109845380Y-40628424D01*
X109971382Y-40758902D01*
X109977278Y-40762760D01*
X110071040Y-40824116D01*
X110123159Y-40858222D01*
X110129763Y-40860678D01*
X110129765Y-40860679D01*
X110286558Y-40918990D01*
X110286560Y-40918990D01*
X110293168Y-40921448D01*
X110376995Y-40932633D01*
X110465980Y-40944507D01*
X110465984Y-40944507D01*
X110472961Y-40945438D01*
X110479972Y-40944800D01*
X110479976Y-40944800D01*
X110622459Y-40931832D01*
X110653600Y-40928998D01*
X110660302Y-40926820D01*
X110660304Y-40926820D01*
X110819409Y-40875124D01*
X110819412Y-40875123D01*
X110826108Y-40872947D01*
X110922513Y-40815478D01*
X110975860Y-40783677D01*
X110975862Y-40783676D01*
X110981912Y-40780069D01*
X111113266Y-40654982D01*
X111213643Y-40503902D01*
X111278055Y-40334338D01*
X111279035Y-40327366D01*
X111302748Y-40158639D01*
X111302748Y-40158636D01*
X111303299Y-40154717D01*
X111303616Y-40132000D01*
X111283397Y-39951745D01*
X111281080Y-39945091D01*
X111226064Y-39787106D01*
X111226062Y-39787103D01*
X111223745Y-39780448D01*
X111217644Y-39770684D01*
X111198500Y-39703918D01*
X111198500Y-39632500D01*
X111218502Y-39564379D01*
X111272158Y-39517886D01*
X111324500Y-39506500D01*
X112438134Y-39506500D01*
X112500316Y-39499745D01*
X112636705Y-39448615D01*
X112753261Y-39361261D01*
X112840615Y-39244705D01*
X112891745Y-39108316D01*
X112898500Y-39046134D01*
X112898500Y-38100000D01*
X145960526Y-38100000D01*
X145980391Y-38352403D01*
X146039495Y-38598591D01*
X146136384Y-38832502D01*
X146268672Y-39048376D01*
X146433102Y-39240898D01*
X146625624Y-39405328D01*
X146841498Y-39537616D01*
X146846068Y-39539509D01*
X146846072Y-39539511D01*
X147070568Y-39632500D01*
X147075409Y-39634505D01*
X147160032Y-39654821D01*
X147316784Y-39692454D01*
X147316790Y-39692455D01*
X147321597Y-39693609D01*
X147421416Y-39701465D01*
X147508345Y-39708307D01*
X147508352Y-39708307D01*
X147510801Y-39708500D01*
X147637199Y-39708500D01*
X147639648Y-39708307D01*
X147639655Y-39708307D01*
X147726584Y-39701465D01*
X147826403Y-39693609D01*
X147831210Y-39692455D01*
X147831216Y-39692454D01*
X147987968Y-39654821D01*
X148072591Y-39634505D01*
X148077432Y-39632500D01*
X148301928Y-39539511D01*
X148301932Y-39539509D01*
X148306502Y-39537616D01*
X148522376Y-39405328D01*
X148714898Y-39240898D01*
X148879328Y-39048376D01*
X149011616Y-38832502D01*
X149108505Y-38598591D01*
X149167609Y-38352403D01*
X149187474Y-38100000D01*
X149167609Y-37847597D01*
X149164546Y-37834836D01*
X149109660Y-37606221D01*
X149108505Y-37601409D01*
X149100593Y-37582307D01*
X149013511Y-37372072D01*
X149013509Y-37372068D01*
X149011616Y-37367498D01*
X148879328Y-37151624D01*
X148714898Y-36959102D01*
X148522376Y-36794672D01*
X148306502Y-36662384D01*
X148301932Y-36660491D01*
X148301928Y-36660489D01*
X148077164Y-36567389D01*
X148077162Y-36567388D01*
X148072591Y-36565495D01*
X147984028Y-36544233D01*
X147831216Y-36507546D01*
X147831210Y-36507545D01*
X147826403Y-36506391D01*
X147726584Y-36498535D01*
X147639655Y-36491693D01*
X147639648Y-36491693D01*
X147637199Y-36491500D01*
X147510801Y-36491500D01*
X147508352Y-36491693D01*
X147508345Y-36491693D01*
X147421416Y-36498535D01*
X147321597Y-36506391D01*
X147316790Y-36507545D01*
X147316784Y-36507546D01*
X147163972Y-36544233D01*
X147075409Y-36565495D01*
X147070838Y-36567388D01*
X147070836Y-36567389D01*
X146846072Y-36660489D01*
X146846068Y-36660491D01*
X146841498Y-36662384D01*
X146625624Y-36794672D01*
X146433102Y-36959102D01*
X146268672Y-37151624D01*
X146136384Y-37367498D01*
X146134491Y-37372068D01*
X146134489Y-37372072D01*
X146047407Y-37582307D01*
X146039495Y-37601409D01*
X146038340Y-37606221D01*
X145983455Y-37834836D01*
X145980391Y-37847597D01*
X145960526Y-38100000D01*
X112898500Y-38100000D01*
X112898500Y-36949866D01*
X112891745Y-36887684D01*
X112840615Y-36751295D01*
X112753261Y-36634739D01*
X112636705Y-36547385D01*
X112500316Y-36496255D01*
X112438134Y-36489500D01*
X108541866Y-36489500D01*
X108479684Y-36496255D01*
X108343295Y-36547385D01*
X108226739Y-36634739D01*
X108139385Y-36751295D01*
X108088255Y-36887684D01*
X108081500Y-36949866D01*
X108081500Y-39046134D01*
X103922702Y-39046134D01*
X104053616Y-38832502D01*
X104150505Y-38598591D01*
X104209609Y-38352403D01*
X104229474Y-38100000D01*
X104209609Y-37847597D01*
X104206546Y-37834836D01*
X104151660Y-37606221D01*
X104150505Y-37601409D01*
X104142593Y-37582307D01*
X104055511Y-37372072D01*
X104055509Y-37372068D01*
X104053616Y-37367498D01*
X103921328Y-37151624D01*
X103756898Y-36959102D01*
X103564376Y-36794672D01*
X103348502Y-36662384D01*
X103343932Y-36660491D01*
X103343928Y-36660489D01*
X103119164Y-36567389D01*
X103119162Y-36567388D01*
X103114591Y-36565495D01*
X103026028Y-36544233D01*
X102873216Y-36507546D01*
X102873210Y-36507545D01*
X102868403Y-36506391D01*
X102768584Y-36498535D01*
X102681655Y-36491693D01*
X102681648Y-36491693D01*
X102679199Y-36491500D01*
X102552801Y-36491500D01*
X102550352Y-36491693D01*
X102550345Y-36491693D01*
X102463416Y-36498535D01*
X102363597Y-36506391D01*
X102358790Y-36507545D01*
X102358784Y-36507546D01*
X102205972Y-36544233D01*
X102117409Y-36565495D01*
X102112838Y-36567388D01*
X102112836Y-36567389D01*
X101888072Y-36660489D01*
X101888068Y-36660491D01*
X101883498Y-36662384D01*
X101667624Y-36794672D01*
X101475102Y-36959102D01*
X101310672Y-37151624D01*
X101178384Y-37367498D01*
X101176491Y-37372068D01*
X101176489Y-37372072D01*
X101089407Y-37582307D01*
X101081495Y-37601409D01*
X101080340Y-37606221D01*
X101025455Y-37834836D01*
X101022391Y-37847597D01*
X101002526Y-38100000D01*
X100589729Y-38100000D01*
X100588003Y-38087947D01*
X100587001Y-38061845D01*
X100601340Y-37843078D01*
X100603491Y-37826738D01*
X100647354Y-37606221D01*
X100652112Y-37582304D01*
X100656375Y-37566394D01*
X100736485Y-37330398D01*
X100742791Y-37315174D01*
X100853016Y-37091658D01*
X100861257Y-37077384D01*
X100999713Y-36870171D01*
X101009746Y-36857095D01*
X101174068Y-36669722D01*
X101185722Y-36658068D01*
X101373095Y-36493746D01*
X101386171Y-36483713D01*
X101593384Y-36345257D01*
X101607658Y-36337016D01*
X101831174Y-36226791D01*
X101846400Y-36220484D01*
X102082394Y-36140375D01*
X102098304Y-36136112D01*
X102220523Y-36111801D01*
X102342738Y-36087491D01*
X102359078Y-36085340D01*
X102507866Y-36075587D01*
X102574237Y-36071237D01*
X102597350Y-36072267D01*
X102600854Y-36072310D01*
X102609724Y-36073691D01*
X102618626Y-36072527D01*
X102618628Y-36072527D01*
X102635449Y-36070327D01*
X102641286Y-36069564D01*
X102657621Y-36068500D01*
X147524633Y-36068500D01*
X147544018Y-36070000D01*
G37*
%TD.AperFunction*%
%TA.AperFunction,Conductor*%
G36*
X128220150Y-53424002D02*
G01*
X128266643Y-53477658D01*
X128276747Y-53547932D01*
X128266317Y-53583049D01*
X128248340Y-53621777D01*
X128244775Y-53631470D01*
X128189389Y-53831183D01*
X128190912Y-53839607D01*
X128203292Y-53843000D01*
X129653000Y-53843000D01*
X129721121Y-53863002D01*
X129767614Y-53916658D01*
X129779000Y-53969000D01*
X129779000Y-55415517D01*
X129783064Y-55429359D01*
X129796478Y-55431393D01*
X129803184Y-55430534D01*
X129813262Y-55428392D01*
X130017255Y-55367191D01*
X130026842Y-55363433D01*
X130218095Y-55269739D01*
X130226945Y-55264464D01*
X130400328Y-55140792D01*
X130408200Y-55134139D01*
X130559052Y-54983812D01*
X130565730Y-54975965D01*
X130693022Y-54798819D01*
X130694279Y-54799722D01*
X130741373Y-54756362D01*
X130811311Y-54744145D01*
X130876751Y-54771678D01*
X130904579Y-54803511D01*
X130964987Y-54902088D01*
X131111250Y-55070938D01*
X131283126Y-55213632D01*
X131476000Y-55326338D01*
X131684692Y-55406030D01*
X131689760Y-55407061D01*
X131689763Y-55407062D01*
X131784862Y-55426410D01*
X131903597Y-55450567D01*
X131908772Y-55450757D01*
X131908774Y-55450757D01*
X132121673Y-55458564D01*
X132121677Y-55458564D01*
X132126837Y-55458753D01*
X132131957Y-55458097D01*
X132131959Y-55458097D01*
X132343288Y-55431025D01*
X132343289Y-55431025D01*
X132348416Y-55430368D01*
X132353366Y-55428883D01*
X132557429Y-55367661D01*
X132557434Y-55367659D01*
X132562384Y-55366174D01*
X132762994Y-55267896D01*
X132944860Y-55138173D01*
X132969056Y-55114062D01*
X133099435Y-54984137D01*
X133103096Y-54980489D01*
X133117067Y-54961047D01*
X133233453Y-54799077D01*
X133234776Y-54800028D01*
X133281645Y-54756857D01*
X133351580Y-54744625D01*
X133417026Y-54772144D01*
X133444875Y-54803994D01*
X133504987Y-54902088D01*
X133651250Y-55070938D01*
X133823126Y-55213632D01*
X134016000Y-55326338D01*
X134224692Y-55406030D01*
X134229760Y-55407061D01*
X134229763Y-55407062D01*
X134324862Y-55426410D01*
X134443597Y-55450567D01*
X134448772Y-55450757D01*
X134448774Y-55450757D01*
X134661673Y-55458564D01*
X134661677Y-55458564D01*
X134666837Y-55458753D01*
X134671957Y-55458097D01*
X134671959Y-55458097D01*
X134883288Y-55431025D01*
X134883289Y-55431025D01*
X134888416Y-55430368D01*
X134893366Y-55428883D01*
X135097429Y-55367661D01*
X135097434Y-55367659D01*
X135102384Y-55366174D01*
X135302994Y-55267896D01*
X135484860Y-55138173D01*
X135509056Y-55114062D01*
X135639435Y-54984137D01*
X135643096Y-54980489D01*
X135657067Y-54961047D01*
X135770435Y-54803277D01*
X135773453Y-54799077D01*
X135786995Y-54771678D01*
X135870136Y-54603453D01*
X135870137Y-54603451D01*
X135872430Y-54598811D01*
X135930857Y-54406507D01*
X135935865Y-54390023D01*
X135935865Y-54390021D01*
X135937370Y-54385069D01*
X135966529Y-54163590D01*
X135968156Y-54097000D01*
X135949852Y-53874361D01*
X135895431Y-53657702D01*
X135861750Y-53580241D01*
X135852930Y-53509796D01*
X135883597Y-53445764D01*
X135944014Y-53408476D01*
X135977300Y-53404000D01*
X139664880Y-53404000D01*
X139733001Y-53424002D01*
X139753975Y-53440905D01*
X141803184Y-55490114D01*
X141814051Y-55502505D01*
X141832045Y-55525955D01*
X141862045Y-55548975D01*
X141862046Y-55548976D01*
X141898207Y-55576723D01*
X141951532Y-55617641D01*
X142090678Y-55675277D01*
X142142914Y-55682154D01*
X142207841Y-55710876D01*
X142246933Y-55770141D01*
X142247778Y-55841133D01*
X142244869Y-55850170D01*
X142213607Y-55936063D01*
X142211197Y-55942685D01*
X142188463Y-56122640D01*
X142206163Y-56303160D01*
X142263418Y-56475273D01*
X142267065Y-56481295D01*
X142267066Y-56481297D01*
X142290905Y-56520659D01*
X142357380Y-56630424D01*
X142377357Y-56651111D01*
X142394637Y-56669005D01*
X142427569Y-56731902D01*
X142430000Y-56756532D01*
X142430000Y-72608880D01*
X142409998Y-72677001D01*
X142393095Y-72697975D01*
X140515975Y-74575095D01*
X140453663Y-74609121D01*
X140426880Y-74612000D01*
X140234094Y-74612000D01*
X140165973Y-74591998D01*
X140133268Y-74561565D01*
X140051843Y-74452920D01*
X140051842Y-74452919D01*
X140046461Y-74445739D01*
X139929905Y-74358385D01*
X139793516Y-74307255D01*
X139731334Y-74300500D01*
X137535066Y-74300500D01*
X137472884Y-74307255D01*
X137458231Y-74312748D01*
X137387426Y-74317933D01*
X137369773Y-74312750D01*
X137355116Y-74307255D01*
X137292934Y-74300500D01*
X135096666Y-74300500D01*
X135034484Y-74307255D01*
X134898095Y-74358385D01*
X134781539Y-74445739D01*
X134694185Y-74562295D01*
X134643055Y-74698684D01*
X134636300Y-74760866D01*
X134636300Y-75206380D01*
X134616298Y-75274501D01*
X134599395Y-75295475D01*
X132977886Y-76916984D01*
X132965495Y-76927851D01*
X132942045Y-76945845D01*
X132919025Y-76975845D01*
X132919024Y-76975846D01*
X132876752Y-77030936D01*
X132850359Y-77065332D01*
X132792723Y-77204478D01*
X132778000Y-77316308D01*
X132778000Y-77316314D01*
X132773065Y-77353800D01*
X132774143Y-77361988D01*
X132774143Y-77361989D01*
X132776922Y-77383098D01*
X132778000Y-77399544D01*
X132778000Y-82514880D01*
X132757998Y-82583001D01*
X132741095Y-82603975D01*
X132387975Y-82957095D01*
X132325663Y-82991121D01*
X132298880Y-82994000D01*
X118479790Y-82994000D01*
X118411669Y-82973998D01*
X118365176Y-82920342D01*
X118355072Y-82850068D01*
X118363381Y-82819782D01*
X118389198Y-82757453D01*
X118413277Y-82699322D01*
X118432936Y-82550000D01*
X118429078Y-82520696D01*
X118428000Y-82504249D01*
X118428000Y-78196000D01*
X120453835Y-78196000D01*
X120472465Y-78432711D01*
X120473619Y-78437518D01*
X120473620Y-78437524D01*
X120484433Y-78482562D01*
X120527895Y-78663594D01*
X120529788Y-78668165D01*
X120529789Y-78668167D01*
X120589600Y-78812563D01*
X120618760Y-78882963D01*
X120621346Y-78887183D01*
X120740241Y-79081202D01*
X120740245Y-79081208D01*
X120742824Y-79085416D01*
X120897031Y-79265969D01*
X121077584Y-79420176D01*
X121081792Y-79422755D01*
X121081798Y-79422759D01*
X121275817Y-79541654D01*
X121280037Y-79544240D01*
X121284607Y-79546133D01*
X121284611Y-79546135D01*
X121494833Y-79633211D01*
X121499406Y-79635105D01*
X121579609Y-79654360D01*
X121725476Y-79689380D01*
X121725482Y-79689381D01*
X121730289Y-79690535D01*
X121967000Y-79709165D01*
X122203711Y-79690535D01*
X122208518Y-79689381D01*
X122208524Y-79689380D01*
X122354391Y-79654360D01*
X122434594Y-79635105D01*
X122439167Y-79633211D01*
X122649389Y-79546135D01*
X122649393Y-79546133D01*
X122653963Y-79544240D01*
X122658183Y-79541654D01*
X122852202Y-79422759D01*
X122852208Y-79422755D01*
X122856416Y-79420176D01*
X123036969Y-79265969D01*
X123191176Y-79085416D01*
X123193755Y-79081208D01*
X123193759Y-79081202D01*
X123312654Y-78887183D01*
X123315240Y-78882963D01*
X123344401Y-78812563D01*
X123404211Y-78668167D01*
X123404212Y-78668165D01*
X123406105Y-78663594D01*
X123449567Y-78482562D01*
X123460380Y-78437524D01*
X123460381Y-78437518D01*
X123461535Y-78432711D01*
X123480165Y-78196000D01*
X123461535Y-77959289D01*
X123406105Y-77728406D01*
X123373605Y-77649944D01*
X123317135Y-77513611D01*
X123317133Y-77513607D01*
X123315240Y-77509037D01*
X123251850Y-77405594D01*
X123193759Y-77310798D01*
X123193755Y-77310792D01*
X123191176Y-77306584D01*
X123036969Y-77126031D01*
X122856416Y-76971824D01*
X122852208Y-76969245D01*
X122852202Y-76969241D01*
X122658183Y-76850346D01*
X122653963Y-76847760D01*
X122649393Y-76845867D01*
X122649389Y-76845865D01*
X122439167Y-76758789D01*
X122439165Y-76758788D01*
X122434594Y-76756895D01*
X122354391Y-76737640D01*
X122208524Y-76702620D01*
X122208518Y-76702619D01*
X122203711Y-76701465D01*
X121967000Y-76682835D01*
X121730289Y-76701465D01*
X121725482Y-76702619D01*
X121725476Y-76702620D01*
X121579609Y-76737640D01*
X121499406Y-76756895D01*
X121494835Y-76758788D01*
X121494833Y-76758789D01*
X121284611Y-76845865D01*
X121284607Y-76845867D01*
X121280037Y-76847760D01*
X121275817Y-76850346D01*
X121081798Y-76969241D01*
X121081792Y-76969245D01*
X121077584Y-76971824D01*
X120897031Y-77126031D01*
X120742824Y-77306584D01*
X120740245Y-77310792D01*
X120740241Y-77310798D01*
X120682150Y-77405594D01*
X120618760Y-77509037D01*
X120616867Y-77513607D01*
X120616865Y-77513611D01*
X120560395Y-77649944D01*
X120527895Y-77728406D01*
X120472465Y-77959289D01*
X120453835Y-78196000D01*
X118428000Y-78196000D01*
X118428000Y-78096120D01*
X118448002Y-78027999D01*
X118464905Y-78007025D01*
X121324912Y-75147018D01*
X121387224Y-75112992D01*
X121462225Y-75119704D01*
X121492726Y-75132338D01*
X121499406Y-75135105D01*
X121579609Y-75154360D01*
X121725476Y-75189380D01*
X121725482Y-75189381D01*
X121730289Y-75190535D01*
X121967000Y-75209165D01*
X122203711Y-75190535D01*
X122208518Y-75189381D01*
X122208524Y-75189380D01*
X122354391Y-75154360D01*
X122434594Y-75135105D01*
X122439167Y-75133211D01*
X122649389Y-75046135D01*
X122649393Y-75046133D01*
X122653963Y-75044240D01*
X122658183Y-75041654D01*
X122852202Y-74922759D01*
X122852208Y-74922755D01*
X122856416Y-74920176D01*
X123036969Y-74765969D01*
X123191176Y-74585416D01*
X123193755Y-74581208D01*
X123193759Y-74581202D01*
X123312654Y-74387183D01*
X123315240Y-74382963D01*
X123325421Y-74358385D01*
X123404211Y-74168167D01*
X123404212Y-74168165D01*
X123406105Y-74163594D01*
X123444013Y-74005697D01*
X123460380Y-73937524D01*
X123460381Y-73937518D01*
X123461535Y-73932711D01*
X123480165Y-73696000D01*
X126953835Y-73696000D01*
X126972465Y-73932711D01*
X126973619Y-73937518D01*
X126973620Y-73937524D01*
X126989987Y-74005697D01*
X127027895Y-74163594D01*
X127029788Y-74168165D01*
X127029789Y-74168167D01*
X127108580Y-74358385D01*
X127118760Y-74382963D01*
X127121346Y-74387183D01*
X127240241Y-74581202D01*
X127240245Y-74581208D01*
X127242824Y-74585416D01*
X127397031Y-74765969D01*
X127577584Y-74920176D01*
X127581792Y-74922755D01*
X127581798Y-74922759D01*
X127775817Y-75041654D01*
X127780037Y-75044240D01*
X127784607Y-75046133D01*
X127784611Y-75046135D01*
X127994833Y-75133211D01*
X127999406Y-75135105D01*
X128079609Y-75154360D01*
X128225476Y-75189380D01*
X128225482Y-75189381D01*
X128230289Y-75190535D01*
X128467000Y-75209165D01*
X128703711Y-75190535D01*
X128708518Y-75189381D01*
X128708524Y-75189380D01*
X128854391Y-75154360D01*
X128934594Y-75135105D01*
X128939167Y-75133211D01*
X129149389Y-75046135D01*
X129149393Y-75046133D01*
X129153963Y-75044240D01*
X129158183Y-75041654D01*
X129352202Y-74922759D01*
X129352208Y-74922755D01*
X129356416Y-74920176D01*
X129536969Y-74765969D01*
X129691176Y-74585416D01*
X129693755Y-74581208D01*
X129693759Y-74581202D01*
X129812654Y-74387183D01*
X129815240Y-74382963D01*
X129825421Y-74358385D01*
X129904211Y-74168167D01*
X129904212Y-74168165D01*
X129906105Y-74163594D01*
X129944013Y-74005697D01*
X129960380Y-73937524D01*
X129960381Y-73937518D01*
X129961535Y-73932711D01*
X129980165Y-73696000D01*
X129961535Y-73459289D01*
X129957721Y-73443400D01*
X129907260Y-73233218D01*
X129906105Y-73228406D01*
X129904211Y-73223833D01*
X129817135Y-73013611D01*
X129817133Y-73013607D01*
X129815240Y-73009037D01*
X129807884Y-72997033D01*
X129693759Y-72810798D01*
X129693755Y-72810792D01*
X129691176Y-72806584D01*
X129536969Y-72626031D01*
X129356416Y-72471824D01*
X129352208Y-72469245D01*
X129352202Y-72469241D01*
X129158183Y-72350346D01*
X129153963Y-72347760D01*
X129149393Y-72345867D01*
X129149389Y-72345865D01*
X128939167Y-72258789D01*
X128939165Y-72258788D01*
X128934594Y-72256895D01*
X128854391Y-72237640D01*
X128708524Y-72202620D01*
X128708518Y-72202619D01*
X128703711Y-72201465D01*
X128467000Y-72182835D01*
X128230289Y-72201465D01*
X128225482Y-72202619D01*
X128225476Y-72202620D01*
X128079609Y-72237640D01*
X127999406Y-72256895D01*
X127994835Y-72258788D01*
X127994833Y-72258789D01*
X127784611Y-72345865D01*
X127784607Y-72345867D01*
X127780037Y-72347760D01*
X127775817Y-72350346D01*
X127581798Y-72469241D01*
X127581792Y-72469245D01*
X127577584Y-72471824D01*
X127397031Y-72626031D01*
X127242824Y-72806584D01*
X127240245Y-72810792D01*
X127240241Y-72810798D01*
X127126116Y-72997033D01*
X127118760Y-73009037D01*
X127116867Y-73013607D01*
X127116865Y-73013611D01*
X127029789Y-73223833D01*
X127027895Y-73228406D01*
X127026740Y-73233218D01*
X126976280Y-73443400D01*
X126972465Y-73459289D01*
X126953835Y-73696000D01*
X123480165Y-73696000D01*
X123461535Y-73459289D01*
X123457721Y-73443400D01*
X123407260Y-73233218D01*
X123406105Y-73228406D01*
X123404211Y-73223833D01*
X123317135Y-73013611D01*
X123317133Y-73013607D01*
X123315240Y-73009037D01*
X123307884Y-72997033D01*
X123193759Y-72810798D01*
X123193755Y-72810792D01*
X123191176Y-72806584D01*
X123036969Y-72626031D01*
X122856416Y-72471824D01*
X122852208Y-72469245D01*
X122852202Y-72469241D01*
X122658183Y-72350346D01*
X122653963Y-72347760D01*
X122649393Y-72345867D01*
X122649389Y-72345865D01*
X122439167Y-72258789D01*
X122439165Y-72258788D01*
X122434594Y-72256895D01*
X122354391Y-72237640D01*
X122208524Y-72202620D01*
X122208518Y-72202619D01*
X122203711Y-72201465D01*
X121967000Y-72182835D01*
X121730289Y-72201465D01*
X121725482Y-72202619D01*
X121725476Y-72202620D01*
X121579609Y-72237640D01*
X121499406Y-72256895D01*
X121494835Y-72258788D01*
X121494833Y-72258789D01*
X121284611Y-72345865D01*
X121284607Y-72345867D01*
X121280037Y-72347760D01*
X121275817Y-72350346D01*
X121081798Y-72469241D01*
X121081792Y-72469245D01*
X121077584Y-72471824D01*
X120897031Y-72626031D01*
X120742824Y-72806584D01*
X120740245Y-72810792D01*
X120740241Y-72810798D01*
X120626116Y-72997033D01*
X120618760Y-73009037D01*
X120616867Y-73013607D01*
X120616865Y-73013611D01*
X120529789Y-73223833D01*
X120527895Y-73228406D01*
X120526740Y-73233218D01*
X120476280Y-73443400D01*
X120472465Y-73459289D01*
X120453835Y-73696000D01*
X120472465Y-73932711D01*
X120473619Y-73937518D01*
X120473620Y-73937524D01*
X120489987Y-74005697D01*
X120527895Y-74163594D01*
X120529788Y-74168165D01*
X120529789Y-74168167D01*
X120543296Y-74200775D01*
X120550885Y-74271364D01*
X120515982Y-74338088D01*
X117483886Y-77370184D01*
X117471495Y-77381051D01*
X117448045Y-77399045D01*
X117425025Y-77429045D01*
X117425024Y-77429046D01*
X117407899Y-77451364D01*
X117383963Y-77482558D01*
X117326625Y-77524426D01*
X117255754Y-77528648D01*
X117193851Y-77493884D01*
X117160570Y-77431172D01*
X117158000Y-77405855D01*
X117158000Y-75981120D01*
X117178002Y-75912999D01*
X117194905Y-75892025D01*
X123390025Y-69696905D01*
X123452337Y-69662879D01*
X123479120Y-69660000D01*
X130256256Y-69660000D01*
X130272702Y-69661078D01*
X130293811Y-69663857D01*
X130293812Y-69663857D01*
X130302000Y-69664935D01*
X130310188Y-69663857D01*
X130310189Y-69663857D01*
X130339479Y-69660001D01*
X130339491Y-69660000D01*
X130339494Y-69660000D01*
X130339503Y-69659999D01*
X130420625Y-69649318D01*
X130451322Y-69645277D01*
X130590468Y-69587641D01*
X130650211Y-69541798D01*
X130703402Y-69500984D01*
X130703405Y-69500981D01*
X130709955Y-69495955D01*
X130727953Y-69472500D01*
X130738820Y-69460110D01*
X131436114Y-68762816D01*
X131448505Y-68751949D01*
X131465402Y-68738984D01*
X131465405Y-68738981D01*
X131471955Y-68733955D01*
X131530987Y-68657024D01*
X131563641Y-68614468D01*
X131621277Y-68475322D01*
X131640936Y-68326000D01*
X131637078Y-68296696D01*
X131636000Y-68280249D01*
X131636000Y-67482289D01*
X131656002Y-67414168D01*
X131709658Y-67367675D01*
X131778662Y-67357396D01*
X131801976Y-67360506D01*
X131808961Y-67361438D01*
X131815972Y-67360800D01*
X131815976Y-67360800D01*
X131958459Y-67347832D01*
X131989600Y-67344998D01*
X131996302Y-67342820D01*
X131996304Y-67342820D01*
X132155409Y-67291124D01*
X132155412Y-67291123D01*
X132162108Y-67288947D01*
X132258513Y-67231478D01*
X132311860Y-67199677D01*
X132311862Y-67199676D01*
X132317912Y-67196069D01*
X132360772Y-67155254D01*
X132423897Y-67122762D01*
X132447664Y-67120500D01*
X132694069Y-67120500D01*
X132762190Y-67140502D01*
X132804457Y-67191082D01*
X132806619Y-67189980D01*
X132808865Y-67194389D01*
X132810760Y-67198963D01*
X132813346Y-67203183D01*
X132932241Y-67397202D01*
X132932245Y-67397208D01*
X132934824Y-67401416D01*
X133089031Y-67581969D01*
X133269584Y-67736176D01*
X133273792Y-67738755D01*
X133273798Y-67738759D01*
X133467817Y-67857654D01*
X133472037Y-67860240D01*
X133476611Y-67862135D01*
X133481020Y-67864381D01*
X133479996Y-67866390D01*
X133527992Y-67905060D01*
X133550500Y-67976931D01*
X133550500Y-72199761D01*
X133530498Y-72267882D01*
X133513595Y-72288856D01*
X129072588Y-76729863D01*
X129010276Y-76763889D01*
X128944623Y-76758017D01*
X128943875Y-76760319D01*
X128939168Y-76758790D01*
X128934594Y-76756895D01*
X128854391Y-76737640D01*
X128708524Y-76702620D01*
X128708518Y-76702619D01*
X128703711Y-76701465D01*
X128467000Y-76682835D01*
X128230289Y-76701465D01*
X128225482Y-76702619D01*
X128225476Y-76702620D01*
X128079609Y-76737640D01*
X127999406Y-76756895D01*
X127994835Y-76758788D01*
X127994833Y-76758789D01*
X127784611Y-76845865D01*
X127784607Y-76845867D01*
X127780037Y-76847760D01*
X127775817Y-76850346D01*
X127581798Y-76969241D01*
X127581792Y-76969245D01*
X127577584Y-76971824D01*
X127397031Y-77126031D01*
X127242824Y-77306584D01*
X127240245Y-77310792D01*
X127240241Y-77310798D01*
X127182150Y-77405594D01*
X127118760Y-77509037D01*
X127116867Y-77513607D01*
X127116865Y-77513611D01*
X127060395Y-77649944D01*
X127027895Y-77728406D01*
X126972465Y-77959289D01*
X126953835Y-78196000D01*
X126972465Y-78432711D01*
X126973619Y-78437518D01*
X126973620Y-78437524D01*
X126984433Y-78482562D01*
X127027895Y-78663594D01*
X127029788Y-78668165D01*
X127029789Y-78668167D01*
X127089600Y-78812563D01*
X127118760Y-78882963D01*
X127121346Y-78887183D01*
X127240241Y-79081202D01*
X127240245Y-79081208D01*
X127242824Y-79085416D01*
X127397031Y-79265969D01*
X127577584Y-79420176D01*
X127581792Y-79422755D01*
X127581798Y-79422759D01*
X127775817Y-79541654D01*
X127780037Y-79544240D01*
X127784607Y-79546133D01*
X127784611Y-79546135D01*
X127994833Y-79633211D01*
X127999406Y-79635105D01*
X128079609Y-79654360D01*
X128225476Y-79689380D01*
X128225482Y-79689381D01*
X128230289Y-79690535D01*
X128467000Y-79709165D01*
X128703711Y-79690535D01*
X128708518Y-79689381D01*
X128708524Y-79689380D01*
X128854391Y-79654360D01*
X128934594Y-79635105D01*
X128939167Y-79633211D01*
X129149389Y-79546135D01*
X129149393Y-79546133D01*
X129153963Y-79544240D01*
X129158183Y-79541654D01*
X129352202Y-79422759D01*
X129352208Y-79422755D01*
X129356416Y-79420176D01*
X129536969Y-79265969D01*
X129691176Y-79085416D01*
X129693755Y-79081208D01*
X129693759Y-79081202D01*
X129812654Y-78887183D01*
X129815240Y-78882963D01*
X129844401Y-78812563D01*
X129904211Y-78668167D01*
X129904212Y-78668165D01*
X129906105Y-78663594D01*
X129949567Y-78482562D01*
X129960380Y-78437524D01*
X129960381Y-78437518D01*
X129961535Y-78432711D01*
X129980165Y-78196000D01*
X129961535Y-77959289D01*
X129906105Y-77728406D01*
X129904210Y-77723832D01*
X129902681Y-77719125D01*
X129904821Y-77718430D01*
X129898236Y-77657123D01*
X129933137Y-77590412D01*
X134555234Y-72968315D01*
X134567625Y-72957448D01*
X134586437Y-72943013D01*
X134592987Y-72937987D01*
X134617474Y-72906075D01*
X134617478Y-72906071D01*
X134690524Y-72810876D01*
X134751838Y-72662851D01*
X134772751Y-72504000D01*
X134768578Y-72472301D01*
X134767500Y-72455856D01*
X134767500Y-67976931D01*
X134787502Y-67908810D01*
X134838082Y-67866543D01*
X134836980Y-67864381D01*
X134841389Y-67862135D01*
X134845963Y-67860240D01*
X134850183Y-67857654D01*
X135044202Y-67738759D01*
X135044208Y-67738755D01*
X135048416Y-67736176D01*
X135228969Y-67581969D01*
X135383176Y-67401416D01*
X135385755Y-67397208D01*
X135385759Y-67397202D01*
X135504654Y-67203183D01*
X135507240Y-67198963D01*
X135510505Y-67191082D01*
X135596211Y-66984167D01*
X135596212Y-66984165D01*
X135598105Y-66979594D01*
X135627783Y-66855975D01*
X135652380Y-66753524D01*
X135652381Y-66753518D01*
X135653535Y-66748711D01*
X135672165Y-66512000D01*
X139145835Y-66512000D01*
X139164465Y-66748711D01*
X139165619Y-66753518D01*
X139165620Y-66753524D01*
X139190217Y-66855975D01*
X139219895Y-66979594D01*
X139221788Y-66984165D01*
X139221789Y-66984167D01*
X139307496Y-67191082D01*
X139310760Y-67198963D01*
X139313346Y-67203183D01*
X139432241Y-67397202D01*
X139432245Y-67397208D01*
X139434824Y-67401416D01*
X139589031Y-67581969D01*
X139769584Y-67736176D01*
X139773792Y-67738755D01*
X139773798Y-67738759D01*
X139967817Y-67857654D01*
X139972037Y-67860240D01*
X139976607Y-67862133D01*
X139976611Y-67862135D01*
X140186833Y-67949211D01*
X140191406Y-67951105D01*
X140224279Y-67958997D01*
X140417476Y-68005380D01*
X140417482Y-68005381D01*
X140422289Y-68006535D01*
X140659000Y-68025165D01*
X140895711Y-68006535D01*
X140900518Y-68005381D01*
X140900524Y-68005380D01*
X141093721Y-67958997D01*
X141126594Y-67951105D01*
X141131167Y-67949211D01*
X141341389Y-67862135D01*
X141341393Y-67862133D01*
X141345963Y-67860240D01*
X141350183Y-67857654D01*
X141544202Y-67738759D01*
X141544208Y-67738755D01*
X141548416Y-67736176D01*
X141728969Y-67581969D01*
X141883176Y-67401416D01*
X141885755Y-67397208D01*
X141885759Y-67397202D01*
X142004654Y-67203183D01*
X142007240Y-67198963D01*
X142010505Y-67191082D01*
X142096211Y-66984167D01*
X142096212Y-66984165D01*
X142098105Y-66979594D01*
X142127783Y-66855975D01*
X142152380Y-66753524D01*
X142152381Y-66753518D01*
X142153535Y-66748711D01*
X142172165Y-66512000D01*
X142153535Y-66275289D01*
X142098105Y-66044406D01*
X142067000Y-65969311D01*
X142009135Y-65829611D01*
X142009133Y-65829607D01*
X142007240Y-65825037D01*
X141978109Y-65777500D01*
X141885759Y-65626798D01*
X141885755Y-65626792D01*
X141883176Y-65622584D01*
X141728969Y-65442031D01*
X141548416Y-65287824D01*
X141544208Y-65285245D01*
X141544202Y-65285241D01*
X141350183Y-65166346D01*
X141345963Y-65163760D01*
X141341393Y-65161867D01*
X141341389Y-65161865D01*
X141131167Y-65074789D01*
X141131165Y-65074788D01*
X141126594Y-65072895D01*
X141046391Y-65053640D01*
X140900524Y-65018620D01*
X140900518Y-65018619D01*
X140895711Y-65017465D01*
X140659000Y-64998835D01*
X140422289Y-65017465D01*
X140417482Y-65018619D01*
X140417476Y-65018620D01*
X140271609Y-65053640D01*
X140191406Y-65072895D01*
X140186835Y-65074788D01*
X140186833Y-65074789D01*
X139976611Y-65161865D01*
X139976607Y-65161867D01*
X139972037Y-65163760D01*
X139967817Y-65166346D01*
X139773798Y-65285241D01*
X139773792Y-65285245D01*
X139769584Y-65287824D01*
X139589031Y-65442031D01*
X139434824Y-65622584D01*
X139432245Y-65626792D01*
X139432241Y-65626798D01*
X139339891Y-65777500D01*
X139310760Y-65825037D01*
X139308867Y-65829607D01*
X139308865Y-65829611D01*
X139251000Y-65969311D01*
X139219895Y-66044406D01*
X139164465Y-66275289D01*
X139145835Y-66512000D01*
X135672165Y-66512000D01*
X135653535Y-66275289D01*
X135598105Y-66044406D01*
X135567000Y-65969311D01*
X135509135Y-65829611D01*
X135509133Y-65829607D01*
X135507240Y-65825037D01*
X135478109Y-65777500D01*
X135385759Y-65626798D01*
X135385755Y-65626792D01*
X135383176Y-65622584D01*
X135228969Y-65442031D01*
X135048416Y-65287824D01*
X135044208Y-65285245D01*
X135044202Y-65285241D01*
X134850183Y-65166346D01*
X134845963Y-65163760D01*
X134841393Y-65161867D01*
X134841389Y-65161865D01*
X134631167Y-65074789D01*
X134631165Y-65074788D01*
X134626594Y-65072895D01*
X134546391Y-65053640D01*
X134400524Y-65018620D01*
X134400518Y-65018619D01*
X134395711Y-65017465D01*
X134159000Y-64998835D01*
X133922289Y-65017465D01*
X133917482Y-65018619D01*
X133917476Y-65018620D01*
X133771609Y-65053640D01*
X133691406Y-65072895D01*
X133686835Y-65074788D01*
X133686833Y-65074789D01*
X133476611Y-65161865D01*
X133476607Y-65161867D01*
X133472037Y-65163760D01*
X133467817Y-65166346D01*
X133273798Y-65285241D01*
X133273792Y-65285245D01*
X133269584Y-65287824D01*
X133089031Y-65442031D01*
X132934824Y-65622584D01*
X132932245Y-65626792D01*
X132932241Y-65626798D01*
X132839891Y-65777500D01*
X132810760Y-65825037D01*
X132808865Y-65829611D01*
X132806619Y-65834020D01*
X132804610Y-65832996D01*
X132765940Y-65880992D01*
X132694069Y-65903500D01*
X132356005Y-65903500D01*
X132288493Y-65883887D01*
X132182666Y-65816727D01*
X132153463Y-65806328D01*
X132018425Y-65758243D01*
X132018420Y-65758242D01*
X132011790Y-65755881D01*
X132004802Y-65755048D01*
X132004799Y-65755047D01*
X131875078Y-65739579D01*
X131831680Y-65734404D01*
X131824677Y-65735140D01*
X131824675Y-65735140D01*
X131775170Y-65740343D01*
X131705332Y-65727571D01*
X131653485Y-65679068D01*
X131636000Y-65615033D01*
X131636000Y-65396120D01*
X131656002Y-65327999D01*
X131672905Y-65307025D01*
X133516912Y-63463018D01*
X133579224Y-63428992D01*
X133654225Y-63435704D01*
X133691406Y-63451105D01*
X133771609Y-63470360D01*
X133917476Y-63505380D01*
X133917482Y-63505381D01*
X133922289Y-63506535D01*
X134159000Y-63525165D01*
X134395711Y-63506535D01*
X134400518Y-63505381D01*
X134400524Y-63505380D01*
X134546391Y-63470360D01*
X134626594Y-63451105D01*
X134631167Y-63449211D01*
X134841389Y-63362135D01*
X134841393Y-63362133D01*
X134845963Y-63360240D01*
X134906929Y-63322880D01*
X135044202Y-63238759D01*
X135044208Y-63238755D01*
X135048416Y-63236176D01*
X135228969Y-63081969D01*
X135383176Y-62901416D01*
X135385755Y-62897208D01*
X135385759Y-62897202D01*
X135504654Y-62703183D01*
X135507240Y-62698963D01*
X135598105Y-62479594D01*
X135617360Y-62399391D01*
X135652380Y-62253524D01*
X135652381Y-62253518D01*
X135653535Y-62248711D01*
X135672165Y-62012000D01*
X139145835Y-62012000D01*
X139164465Y-62248711D01*
X139165619Y-62253518D01*
X139165620Y-62253524D01*
X139200640Y-62399391D01*
X139219895Y-62479594D01*
X139310760Y-62698963D01*
X139313346Y-62703183D01*
X139432241Y-62897202D01*
X139432245Y-62897208D01*
X139434824Y-62901416D01*
X139589031Y-63081969D01*
X139769584Y-63236176D01*
X139773792Y-63238755D01*
X139773798Y-63238759D01*
X139911071Y-63322880D01*
X139972037Y-63360240D01*
X139976607Y-63362133D01*
X139976611Y-63362135D01*
X140186833Y-63449211D01*
X140191406Y-63451105D01*
X140271609Y-63470360D01*
X140417476Y-63505380D01*
X140417482Y-63505381D01*
X140422289Y-63506535D01*
X140659000Y-63525165D01*
X140895711Y-63506535D01*
X140900518Y-63505381D01*
X140900524Y-63505380D01*
X141046391Y-63470360D01*
X141126594Y-63451105D01*
X141131167Y-63449211D01*
X141341389Y-63362135D01*
X141341393Y-63362133D01*
X141345963Y-63360240D01*
X141406929Y-63322880D01*
X141544202Y-63238759D01*
X141544208Y-63238755D01*
X141548416Y-63236176D01*
X141728969Y-63081969D01*
X141883176Y-62901416D01*
X141885755Y-62897208D01*
X141885759Y-62897202D01*
X142004654Y-62703183D01*
X142007240Y-62698963D01*
X142098105Y-62479594D01*
X142117360Y-62399391D01*
X142152380Y-62253524D01*
X142152381Y-62253518D01*
X142153535Y-62248711D01*
X142172165Y-62012000D01*
X142153535Y-61775289D01*
X142137681Y-61709249D01*
X142115782Y-61618037D01*
X142098105Y-61544406D01*
X142007240Y-61325037D01*
X141918973Y-61180999D01*
X141885759Y-61126798D01*
X141885755Y-61126792D01*
X141883176Y-61122584D01*
X141728969Y-60942031D01*
X141548416Y-60787824D01*
X141544208Y-60785245D01*
X141544202Y-60785241D01*
X141350183Y-60666346D01*
X141345963Y-60663760D01*
X141341393Y-60661867D01*
X141341389Y-60661865D01*
X141131167Y-60574789D01*
X141131165Y-60574788D01*
X141126594Y-60572895D01*
X141046391Y-60553640D01*
X140900524Y-60518620D01*
X140900518Y-60518619D01*
X140895711Y-60517465D01*
X140659000Y-60498835D01*
X140422289Y-60517465D01*
X140417482Y-60518619D01*
X140417476Y-60518620D01*
X140271609Y-60553640D01*
X140191406Y-60572895D01*
X140186835Y-60574788D01*
X140186833Y-60574789D01*
X139976611Y-60661865D01*
X139976607Y-60661867D01*
X139972037Y-60663760D01*
X139967817Y-60666346D01*
X139773798Y-60785241D01*
X139773792Y-60785245D01*
X139769584Y-60787824D01*
X139589031Y-60942031D01*
X139434824Y-61122584D01*
X139432245Y-61126792D01*
X139432241Y-61126798D01*
X139399027Y-61180999D01*
X139310760Y-61325037D01*
X139219895Y-61544406D01*
X139202218Y-61618037D01*
X139180320Y-61709249D01*
X139164465Y-61775289D01*
X139145835Y-62012000D01*
X135672165Y-62012000D01*
X135653535Y-61775289D01*
X135637681Y-61709249D01*
X135615782Y-61618037D01*
X135598105Y-61544406D01*
X135507240Y-61325037D01*
X135418973Y-61180999D01*
X135385759Y-61126798D01*
X135385755Y-61126792D01*
X135383176Y-61122584D01*
X135228969Y-60942031D01*
X135048416Y-60787824D01*
X135044208Y-60785245D01*
X135044202Y-60785241D01*
X134850183Y-60666346D01*
X134845963Y-60663760D01*
X134841393Y-60661867D01*
X134841389Y-60661865D01*
X134631167Y-60574789D01*
X134631165Y-60574788D01*
X134626594Y-60572895D01*
X134546391Y-60553640D01*
X134400524Y-60518620D01*
X134400518Y-60518619D01*
X134395711Y-60517465D01*
X134159000Y-60498835D01*
X133922289Y-60517465D01*
X133917482Y-60518619D01*
X133917476Y-60518620D01*
X133771609Y-60553640D01*
X133691406Y-60572895D01*
X133686835Y-60574788D01*
X133686833Y-60574789D01*
X133476611Y-60661865D01*
X133476607Y-60661867D01*
X133472037Y-60663760D01*
X133467817Y-60666346D01*
X133273798Y-60785241D01*
X133273792Y-60785245D01*
X133269584Y-60787824D01*
X133089031Y-60942031D01*
X132934824Y-61122584D01*
X132932245Y-61126792D01*
X132932241Y-61126798D01*
X132899027Y-61180999D01*
X132810760Y-61325037D01*
X132719895Y-61544406D01*
X132702218Y-61618037D01*
X132680320Y-61709249D01*
X132664465Y-61775289D01*
X132645835Y-62012000D01*
X132664465Y-62248711D01*
X132665619Y-62253518D01*
X132665620Y-62253524D01*
X132700640Y-62399391D01*
X132719895Y-62479594D01*
X132721788Y-62484165D01*
X132721789Y-62484167D01*
X132735296Y-62516775D01*
X132742885Y-62587364D01*
X132707982Y-62654088D01*
X130691886Y-64670184D01*
X130679495Y-64681051D01*
X130656045Y-64699045D01*
X130564359Y-64818532D01*
X130506723Y-64957678D01*
X130492000Y-65069508D01*
X130492000Y-65069514D01*
X130487065Y-65107000D01*
X130488143Y-65115188D01*
X130488143Y-65115189D01*
X130490922Y-65136298D01*
X130492000Y-65152744D01*
X130492000Y-65614465D01*
X130471998Y-65682586D01*
X130418342Y-65729079D01*
X130351082Y-65739579D01*
X130314674Y-65735238D01*
X130307680Y-65734404D01*
X130300677Y-65735140D01*
X130300676Y-65735140D01*
X130134288Y-65752628D01*
X130134286Y-65752629D01*
X130127288Y-65753364D01*
X130037094Y-65784068D01*
X129962249Y-65809547D01*
X129962246Y-65809548D01*
X129955579Y-65811818D01*
X129949578Y-65815510D01*
X129943205Y-65818509D01*
X129941868Y-65815667D01*
X129886705Y-65830655D01*
X129819004Y-65809274D01*
X129781831Y-65770516D01*
X129693765Y-65626807D01*
X129693758Y-65626797D01*
X129691176Y-65622584D01*
X129536969Y-65442031D01*
X129356416Y-65287824D01*
X129352208Y-65285245D01*
X129352202Y-65285241D01*
X129158183Y-65166346D01*
X129153963Y-65163760D01*
X129149393Y-65161867D01*
X129149389Y-65161865D01*
X128939167Y-65074789D01*
X128939165Y-65074788D01*
X128934594Y-65072895D01*
X128854391Y-65053640D01*
X128708524Y-65018620D01*
X128708518Y-65018619D01*
X128703711Y-65017465D01*
X128467000Y-64998835D01*
X128230289Y-65017465D01*
X128225482Y-65018619D01*
X128225476Y-65018620D01*
X128079609Y-65053640D01*
X127999406Y-65072895D01*
X127994835Y-65074788D01*
X127994833Y-65074789D01*
X127784611Y-65161865D01*
X127784607Y-65161867D01*
X127780037Y-65163760D01*
X127775817Y-65166346D01*
X127581798Y-65285241D01*
X127581792Y-65285245D01*
X127577584Y-65287824D01*
X127397031Y-65442031D01*
X127242824Y-65622584D01*
X127240245Y-65626792D01*
X127240241Y-65626798D01*
X127147891Y-65777500D01*
X127118760Y-65825037D01*
X127116867Y-65829607D01*
X127116865Y-65829611D01*
X127059000Y-65969311D01*
X127027895Y-66044406D01*
X126972465Y-66275289D01*
X126953835Y-66512000D01*
X126972465Y-66748711D01*
X126973619Y-66753518D01*
X126973620Y-66753524D01*
X126998217Y-66855975D01*
X127027895Y-66979594D01*
X127029788Y-66984165D01*
X127029789Y-66984167D01*
X127115496Y-67191082D01*
X127118760Y-67198963D01*
X127121346Y-67203183D01*
X127240241Y-67397202D01*
X127240245Y-67397208D01*
X127242824Y-67401416D01*
X127397031Y-67581969D01*
X127577584Y-67736176D01*
X127581792Y-67738755D01*
X127581798Y-67738759D01*
X127775817Y-67857654D01*
X127780037Y-67860240D01*
X127784607Y-67862133D01*
X127784611Y-67862135D01*
X127994833Y-67949211D01*
X127999406Y-67951105D01*
X128032279Y-67958997D01*
X128225476Y-68005380D01*
X128225482Y-68005381D01*
X128230289Y-68006535D01*
X128467000Y-68025165D01*
X128703711Y-68006535D01*
X128708518Y-68005381D01*
X128708524Y-68005380D01*
X128901721Y-67958997D01*
X128934594Y-67951105D01*
X128939167Y-67949211D01*
X129149389Y-67862135D01*
X129149393Y-67862133D01*
X129153963Y-67860240D01*
X129158183Y-67857654D01*
X129352202Y-67738759D01*
X129352208Y-67738755D01*
X129356416Y-67736176D01*
X129536969Y-67581969D01*
X129691176Y-67401416D01*
X129748828Y-67307337D01*
X129801475Y-67259707D01*
X129871516Y-67248100D01*
X129925251Y-67267739D01*
X129928620Y-67269943D01*
X129935159Y-67274222D01*
X129941763Y-67276678D01*
X130098558Y-67334990D01*
X130098560Y-67334990D01*
X130105168Y-67337448D01*
X130188995Y-67348633D01*
X130277980Y-67360507D01*
X130277984Y-67360507D01*
X130284961Y-67361438D01*
X130291972Y-67360800D01*
X130291976Y-67360800D01*
X130354580Y-67355102D01*
X130424233Y-67368847D01*
X130475398Y-67418068D01*
X130492000Y-67480583D01*
X130492000Y-68036880D01*
X130471998Y-68105001D01*
X130455095Y-68125975D01*
X130101975Y-68479095D01*
X130039663Y-68513121D01*
X130012880Y-68516000D01*
X123235744Y-68516000D01*
X123219298Y-68514922D01*
X123198189Y-68512143D01*
X123198188Y-68512143D01*
X123190000Y-68511065D01*
X123181812Y-68512143D01*
X123181811Y-68512143D01*
X123152521Y-68515999D01*
X123152509Y-68516000D01*
X123152506Y-68516000D01*
X123152497Y-68516001D01*
X123071375Y-68526682D01*
X123040678Y-68530723D01*
X122901532Y-68588359D01*
X122782045Y-68680045D01*
X122777019Y-68686595D01*
X122764051Y-68703495D01*
X122753184Y-68715886D01*
X116213886Y-75255184D01*
X116201495Y-75266051D01*
X116178045Y-75284045D01*
X116155025Y-75314045D01*
X116155024Y-75314046D01*
X116155018Y-75314053D01*
X116155015Y-75314057D01*
X116117091Y-75363481D01*
X116086359Y-75403532D01*
X116028723Y-75542678D01*
X116014000Y-75654508D01*
X116014000Y-75654514D01*
X116009065Y-75692000D01*
X116010143Y-75700188D01*
X116010143Y-75700189D01*
X116012922Y-75721298D01*
X116014000Y-75737744D01*
X116014000Y-79821147D01*
X115993998Y-79889268D01*
X115940342Y-79935761D01*
X115870068Y-79945865D01*
X115823864Y-79929602D01*
X115729601Y-79873855D01*
X115721990Y-79871644D01*
X115721988Y-79871643D01*
X115669769Y-79856472D01*
X115569831Y-79827438D01*
X115563426Y-79826934D01*
X115563421Y-79826933D01*
X115534958Y-79824693D01*
X115534950Y-79824693D01*
X115532502Y-79824500D01*
X115099498Y-79824500D01*
X115097050Y-79824693D01*
X115097042Y-79824693D01*
X115068579Y-79826933D01*
X115068574Y-79826934D01*
X115062169Y-79827438D01*
X114962231Y-79856472D01*
X114910012Y-79871643D01*
X114910010Y-79871644D01*
X114902399Y-79873855D01*
X114759193Y-79958547D01*
X114756511Y-79961229D01*
X114692139Y-79986502D01*
X114622516Y-79972600D01*
X114606688Y-79962428D01*
X114602807Y-79958547D01*
X114459601Y-79873855D01*
X114451990Y-79871644D01*
X114451988Y-79871643D01*
X114391724Y-79854135D01*
X114337782Y-79822233D01*
X113748315Y-79232766D01*
X113737448Y-79220375D01*
X113723013Y-79201563D01*
X113717987Y-79195013D01*
X113686075Y-79170526D01*
X113686072Y-79170523D01*
X113628329Y-79126215D01*
X113597429Y-79102504D01*
X113597427Y-79102503D01*
X113590876Y-79097476D01*
X113442851Y-79036162D01*
X113434664Y-79035084D01*
X113434663Y-79035084D01*
X113423458Y-79033609D01*
X113392262Y-79029502D01*
X113323885Y-79020500D01*
X113323882Y-79020500D01*
X113323874Y-79020499D01*
X113292189Y-79016328D01*
X113284000Y-79015250D01*
X113252307Y-79019422D01*
X113235864Y-79020500D01*
X105541542Y-79020500D01*
X105473421Y-79000498D01*
X105426928Y-78946842D01*
X105416824Y-78876568D01*
X105434282Y-78828385D01*
X105477814Y-78757762D01*
X105483963Y-78744576D01*
X105535138Y-78590290D01*
X105538005Y-78576914D01*
X105547672Y-78482562D01*
X105548000Y-78476146D01*
X105548000Y-78288615D01*
X105543525Y-78273376D01*
X105542135Y-78272171D01*
X105534452Y-78270500D01*
X104012000Y-78270500D01*
X103943879Y-78250498D01*
X103897386Y-78196842D01*
X103886000Y-78144500D01*
X103886000Y-77744385D01*
X104394000Y-77744385D01*
X104398475Y-77759624D01*
X104399865Y-77760829D01*
X104407548Y-77762500D01*
X105529884Y-77762500D01*
X105545123Y-77758025D01*
X105546328Y-77756635D01*
X105547999Y-77748952D01*
X105547999Y-77556905D01*
X105547662Y-77550386D01*
X105537743Y-77454794D01*
X105534851Y-77441400D01*
X105483412Y-77287216D01*
X105477239Y-77274038D01*
X105391937Y-77136193D01*
X105382901Y-77124792D01*
X105268171Y-77010261D01*
X105256760Y-77001249D01*
X105118757Y-76916184D01*
X105105576Y-76910037D01*
X104951290Y-76858862D01*
X104937914Y-76855995D01*
X104843562Y-76846328D01*
X104837145Y-76846000D01*
X104412115Y-76846000D01*
X104396876Y-76850475D01*
X104395671Y-76851865D01*
X104394000Y-76859548D01*
X104394000Y-77744385D01*
X103886000Y-77744385D01*
X103886000Y-76864116D01*
X103881525Y-76848877D01*
X103880135Y-76847672D01*
X103872452Y-76846001D01*
X103442905Y-76846001D01*
X103436386Y-76846338D01*
X103340794Y-76856257D01*
X103327400Y-76859149D01*
X103173216Y-76910588D01*
X103160038Y-76916761D01*
X103022193Y-77002063D01*
X103010787Y-77011103D01*
X102980573Y-77041370D01*
X102918291Y-77075450D01*
X102847471Y-77070447D01*
X102790598Y-77027950D01*
X102765729Y-76961452D01*
X102765400Y-76952353D01*
X102765400Y-75956262D01*
X102785402Y-75888141D01*
X102839058Y-75841648D01*
X102909332Y-75831544D01*
X102973912Y-75861038D01*
X102980415Y-75867087D01*
X103016697Y-75903305D01*
X103022927Y-75907145D01*
X103022928Y-75907146D01*
X103160090Y-75991694D01*
X103167262Y-75996115D01*
X103247005Y-76022564D01*
X103328611Y-76049632D01*
X103328613Y-76049632D01*
X103335139Y-76051797D01*
X103341975Y-76052497D01*
X103341978Y-76052498D01*
X103385031Y-76056909D01*
X103439600Y-76062500D01*
X104840400Y-76062500D01*
X104843646Y-76062163D01*
X104843650Y-76062163D01*
X104939308Y-76052238D01*
X104939312Y-76052237D01*
X104946166Y-76051526D01*
X104952702Y-76049345D01*
X104952704Y-76049345D01*
X105084806Y-76005272D01*
X105113946Y-75995550D01*
X105264348Y-75902478D01*
X105389305Y-75777303D01*
X105392833Y-75771579D01*
X105450549Y-75730659D01*
X105508179Y-75724920D01*
X105542398Y-75729486D01*
X105639980Y-75742507D01*
X105639984Y-75742507D01*
X105646961Y-75743438D01*
X105653972Y-75742800D01*
X105653976Y-75742800D01*
X105800262Y-75729486D01*
X105827600Y-75726998D01*
X105834302Y-75724820D01*
X105834304Y-75724820D01*
X105993409Y-75673124D01*
X105993412Y-75673123D01*
X106000108Y-75670947D01*
X106132618Y-75591955D01*
X106149860Y-75581677D01*
X106149862Y-75581676D01*
X106155912Y-75578069D01*
X106287266Y-75452982D01*
X106387643Y-75301902D01*
X106452055Y-75132338D01*
X106477299Y-74952717D01*
X106477616Y-74930000D01*
X106457397Y-74749745D01*
X106455080Y-74743091D01*
X106400064Y-74585106D01*
X106400062Y-74585103D01*
X106397745Y-74578448D01*
X106301626Y-74424624D01*
X106296664Y-74419627D01*
X106178778Y-74300915D01*
X106178774Y-74300912D01*
X106173815Y-74295918D01*
X106020666Y-74198727D01*
X105991463Y-74188328D01*
X105856425Y-74140243D01*
X105856420Y-74140242D01*
X105849790Y-74137881D01*
X105842802Y-74137048D01*
X105842799Y-74137047D01*
X105676674Y-74117238D01*
X105669680Y-74116404D01*
X105669482Y-74116425D01*
X105604096Y-74096731D01*
X105557977Y-74042753D01*
X105548362Y-73972410D01*
X105578304Y-73908036D01*
X105583857Y-73902114D01*
X105906572Y-73579399D01*
X105968884Y-73545373D01*
X106030819Y-73547497D01*
X106165989Y-73586767D01*
X106165993Y-73586768D01*
X106172169Y-73588562D01*
X106178574Y-73589066D01*
X106178579Y-73589067D01*
X106207042Y-73591307D01*
X106207050Y-73591307D01*
X106209498Y-73591500D01*
X106642502Y-73591500D01*
X106644950Y-73591307D01*
X106644958Y-73591307D01*
X106673421Y-73589067D01*
X106673426Y-73589066D01*
X106679831Y-73588562D01*
X106779769Y-73559528D01*
X106831988Y-73544357D01*
X106831990Y-73544356D01*
X106839601Y-73542145D01*
X106982807Y-73457453D01*
X106985489Y-73454771D01*
X107049861Y-73429498D01*
X107119484Y-73443400D01*
X107135312Y-73453572D01*
X107139193Y-73457453D01*
X107282399Y-73542145D01*
X107290010Y-73544356D01*
X107290012Y-73544357D01*
X107342231Y-73559528D01*
X107442169Y-73588562D01*
X107448574Y-73589066D01*
X107448579Y-73589067D01*
X107477042Y-73591307D01*
X107477050Y-73591307D01*
X107479498Y-73591500D01*
X107912502Y-73591500D01*
X107914950Y-73591307D01*
X107914958Y-73591307D01*
X107943421Y-73589067D01*
X107943426Y-73589066D01*
X107949831Y-73588562D01*
X108049769Y-73559528D01*
X108101988Y-73544357D01*
X108101990Y-73544356D01*
X108109601Y-73542145D01*
X108252807Y-73457453D01*
X108255489Y-73454771D01*
X108319861Y-73429498D01*
X108389484Y-73443400D01*
X108405312Y-73453572D01*
X108409193Y-73457453D01*
X108552399Y-73542145D01*
X108560010Y-73544356D01*
X108560012Y-73544357D01*
X108612231Y-73559528D01*
X108712169Y-73588562D01*
X108718574Y-73589066D01*
X108718579Y-73589067D01*
X108747042Y-73591307D01*
X108747050Y-73591307D01*
X108749498Y-73591500D01*
X109182502Y-73591500D01*
X109184950Y-73591307D01*
X109184958Y-73591307D01*
X109213421Y-73589067D01*
X109213426Y-73589066D01*
X109219831Y-73588562D01*
X109319769Y-73559528D01*
X109371988Y-73544357D01*
X109371990Y-73544356D01*
X109379601Y-73542145D01*
X109522807Y-73457453D01*
X109525489Y-73454771D01*
X109589861Y-73429498D01*
X109659484Y-73443400D01*
X109675312Y-73453572D01*
X109679193Y-73457453D01*
X109822399Y-73542145D01*
X109830010Y-73544356D01*
X109830012Y-73544357D01*
X109882231Y-73559528D01*
X109982169Y-73588562D01*
X109988574Y-73589066D01*
X109988579Y-73589067D01*
X110017042Y-73591307D01*
X110017050Y-73591307D01*
X110019498Y-73591500D01*
X110452502Y-73591500D01*
X110454950Y-73591307D01*
X110454958Y-73591307D01*
X110483421Y-73589067D01*
X110483426Y-73589066D01*
X110489831Y-73588562D01*
X110589769Y-73559528D01*
X110641988Y-73544357D01*
X110641990Y-73544356D01*
X110649601Y-73542145D01*
X110792807Y-73457453D01*
X110795747Y-73454513D01*
X110860271Y-73429179D01*
X110929894Y-73443080D01*
X110948640Y-73455129D01*
X110956323Y-73461089D01*
X111085779Y-73537648D01*
X111100210Y-73543893D01*
X111234605Y-73582939D01*
X111248706Y-73582899D01*
X111252000Y-73575630D01*
X111252000Y-73569878D01*
X111760000Y-73569878D01*
X111763973Y-73583409D01*
X111771871Y-73584544D01*
X111911790Y-73543893D01*
X111926221Y-73537648D01*
X112055678Y-73461088D01*
X112063770Y-73454811D01*
X112129854Y-73428861D01*
X112199477Y-73442759D01*
X112218230Y-73454811D01*
X112226322Y-73461088D01*
X112355779Y-73537648D01*
X112370210Y-73543893D01*
X112504605Y-73582939D01*
X112518706Y-73582899D01*
X112522000Y-73575630D01*
X112522000Y-72330115D01*
X112517525Y-72314876D01*
X112516135Y-72313671D01*
X112508452Y-72312000D01*
X111778115Y-72312000D01*
X111762876Y-72316475D01*
X111761671Y-72317865D01*
X111760000Y-72325548D01*
X111760000Y-73569878D01*
X111252000Y-73569878D01*
X111252000Y-71785885D01*
X111760000Y-71785885D01*
X111764475Y-71801124D01*
X111765865Y-71802329D01*
X111773548Y-71804000D01*
X112503885Y-71804000D01*
X112519124Y-71799525D01*
X112520329Y-71798135D01*
X112522000Y-71790452D01*
X112522000Y-70546122D01*
X112518027Y-70532591D01*
X112510129Y-70531456D01*
X112370210Y-70572107D01*
X112355779Y-70578352D01*
X112226322Y-70654912D01*
X112218230Y-70661189D01*
X112152146Y-70687139D01*
X112082523Y-70673241D01*
X112063770Y-70661189D01*
X112055678Y-70654912D01*
X111926221Y-70578352D01*
X111911790Y-70572107D01*
X111777395Y-70533061D01*
X111763294Y-70533101D01*
X111760000Y-70540370D01*
X111760000Y-71785885D01*
X111252000Y-71785885D01*
X111252000Y-70546122D01*
X111248027Y-70532591D01*
X111240129Y-70531456D01*
X111100210Y-70572107D01*
X111085775Y-70578354D01*
X110998138Y-70630181D01*
X110929322Y-70647640D01*
X110861991Y-70625123D01*
X110817522Y-70569778D01*
X110808000Y-70521727D01*
X110808000Y-70139120D01*
X110828002Y-70070999D01*
X110844905Y-70050025D01*
X112432905Y-68462025D01*
X112495217Y-68427999D01*
X112566032Y-68433064D01*
X112611095Y-68462025D01*
X113437095Y-69288025D01*
X113471121Y-69350337D01*
X113474000Y-69377120D01*
X113474000Y-70521727D01*
X113453998Y-70589848D01*
X113400342Y-70636341D01*
X113330068Y-70646445D01*
X113283862Y-70630181D01*
X113196225Y-70578354D01*
X113181790Y-70572107D01*
X113047395Y-70533061D01*
X113033294Y-70533101D01*
X113030000Y-70540370D01*
X113030000Y-73569878D01*
X113033973Y-73583409D01*
X113041871Y-73584544D01*
X113181790Y-73543893D01*
X113196221Y-73537648D01*
X113325676Y-73461090D01*
X113333364Y-73455126D01*
X113399449Y-73429179D01*
X113469072Y-73443080D01*
X113485158Y-73453418D01*
X113489193Y-73457453D01*
X113632399Y-73542145D01*
X113640010Y-73544356D01*
X113640012Y-73544357D01*
X113692231Y-73559528D01*
X113792169Y-73588562D01*
X113798574Y-73589066D01*
X113798579Y-73589067D01*
X113827042Y-73591307D01*
X113827050Y-73591307D01*
X113829498Y-73591500D01*
X114262502Y-73591500D01*
X114264950Y-73591307D01*
X114264958Y-73591307D01*
X114293421Y-73589067D01*
X114293426Y-73589066D01*
X114299831Y-73588562D01*
X114399769Y-73559528D01*
X114451988Y-73544357D01*
X114451990Y-73544356D01*
X114459601Y-73542145D01*
X114602807Y-73457453D01*
X114605489Y-73454771D01*
X114669861Y-73429498D01*
X114739484Y-73443400D01*
X114755312Y-73453572D01*
X114759193Y-73457453D01*
X114902399Y-73542145D01*
X114910010Y-73544356D01*
X114910012Y-73544357D01*
X114962231Y-73559528D01*
X115062169Y-73588562D01*
X115068574Y-73589066D01*
X115068579Y-73589067D01*
X115097042Y-73591307D01*
X115097050Y-73591307D01*
X115099498Y-73591500D01*
X115532502Y-73591500D01*
X115534950Y-73591307D01*
X115534958Y-73591307D01*
X115563421Y-73589067D01*
X115563426Y-73589066D01*
X115569831Y-73588562D01*
X115669769Y-73559528D01*
X115721988Y-73544357D01*
X115721990Y-73544356D01*
X115729601Y-73542145D01*
X115872807Y-73457453D01*
X115875489Y-73454771D01*
X115939861Y-73429498D01*
X116009484Y-73443400D01*
X116025312Y-73453572D01*
X116029193Y-73457453D01*
X116172399Y-73542145D01*
X116180010Y-73544356D01*
X116180012Y-73544357D01*
X116232231Y-73559528D01*
X116332169Y-73588562D01*
X116338574Y-73589066D01*
X116338579Y-73589067D01*
X116367042Y-73591307D01*
X116367050Y-73591307D01*
X116369498Y-73591500D01*
X116802502Y-73591500D01*
X116804950Y-73591307D01*
X116804958Y-73591307D01*
X116833421Y-73589067D01*
X116833426Y-73589066D01*
X116839831Y-73588562D01*
X116939769Y-73559528D01*
X116991988Y-73544357D01*
X116991990Y-73544356D01*
X116999601Y-73542145D01*
X117131360Y-73464223D01*
X117135980Y-73461491D01*
X117135984Y-73461488D01*
X117142807Y-73457453D01*
X117260453Y-73339807D01*
X117264489Y-73332983D01*
X117264491Y-73332980D01*
X117341108Y-73203427D01*
X117345145Y-73196601D01*
X117391562Y-73036831D01*
X117394500Y-72999502D01*
X117394500Y-71116498D01*
X117391562Y-71079169D01*
X117345145Y-70919399D01*
X117328107Y-70890589D01*
X117264491Y-70783020D01*
X117264489Y-70783017D01*
X117260453Y-70776193D01*
X117194905Y-70710645D01*
X117160879Y-70648333D01*
X117158000Y-70621550D01*
X117158000Y-69895751D01*
X117159078Y-69879304D01*
X117161858Y-69858188D01*
X117162936Y-69850000D01*
X117143277Y-69700678D01*
X117085641Y-69561532D01*
X117016976Y-69472046D01*
X117016975Y-69472045D01*
X116993955Y-69442045D01*
X116970505Y-69424051D01*
X116958114Y-69413184D01*
X115711994Y-68167064D01*
X115677968Y-68104752D01*
X115683033Y-68033937D01*
X115725580Y-67977101D01*
X115792100Y-67952290D01*
X115830503Y-67955450D01*
X116038476Y-68005380D01*
X116038482Y-68005381D01*
X116043289Y-68006535D01*
X116280000Y-68025165D01*
X116516711Y-68006535D01*
X116521518Y-68005381D01*
X116521524Y-68005380D01*
X116714721Y-67958997D01*
X116747594Y-67951105D01*
X116752167Y-67949211D01*
X116962389Y-67862135D01*
X116962393Y-67862133D01*
X116966963Y-67860240D01*
X116971183Y-67857654D01*
X117165202Y-67738759D01*
X117165208Y-67738755D01*
X117169416Y-67736176D01*
X117349969Y-67581969D01*
X117504176Y-67401416D01*
X117506755Y-67397208D01*
X117506759Y-67397202D01*
X117625654Y-67203183D01*
X117628240Y-67198963D01*
X117630135Y-67194389D01*
X117632381Y-67189980D01*
X117634390Y-67191004D01*
X117673060Y-67143008D01*
X117744931Y-67120500D01*
X120502069Y-67120500D01*
X120570190Y-67140502D01*
X120612457Y-67191082D01*
X120614619Y-67189980D01*
X120616865Y-67194389D01*
X120618760Y-67198963D01*
X120621346Y-67203183D01*
X120740241Y-67397202D01*
X120740245Y-67397208D01*
X120742824Y-67401416D01*
X120897031Y-67581969D01*
X121077584Y-67736176D01*
X121081792Y-67738755D01*
X121081798Y-67738759D01*
X121275817Y-67857654D01*
X121280037Y-67860240D01*
X121284607Y-67862133D01*
X121284611Y-67862135D01*
X121494833Y-67949211D01*
X121499406Y-67951105D01*
X121532279Y-67958997D01*
X121725476Y-68005380D01*
X121725482Y-68005381D01*
X121730289Y-68006535D01*
X121967000Y-68025165D01*
X122203711Y-68006535D01*
X122208518Y-68005381D01*
X122208524Y-68005380D01*
X122401721Y-67958997D01*
X122434594Y-67951105D01*
X122439167Y-67949211D01*
X122649389Y-67862135D01*
X122649393Y-67862133D01*
X122653963Y-67860240D01*
X122658183Y-67857654D01*
X122852202Y-67738759D01*
X122852208Y-67738755D01*
X122856416Y-67736176D01*
X123036969Y-67581969D01*
X123191176Y-67401416D01*
X123193755Y-67397208D01*
X123193759Y-67397202D01*
X123312654Y-67203183D01*
X123315240Y-67198963D01*
X123318505Y-67191082D01*
X123404211Y-66984167D01*
X123404212Y-66984165D01*
X123406105Y-66979594D01*
X123435783Y-66855975D01*
X123460380Y-66753524D01*
X123460381Y-66753518D01*
X123461535Y-66748711D01*
X123480165Y-66512000D01*
X123461535Y-66275289D01*
X123406105Y-66044406D01*
X123375000Y-65969311D01*
X123317135Y-65829611D01*
X123317133Y-65829607D01*
X123315240Y-65825037D01*
X123286109Y-65777500D01*
X123193759Y-65626798D01*
X123193755Y-65626792D01*
X123191176Y-65622584D01*
X123036969Y-65442031D01*
X122856416Y-65287824D01*
X122852208Y-65285245D01*
X122852202Y-65285241D01*
X122658183Y-65166346D01*
X122653963Y-65163760D01*
X122649393Y-65161867D01*
X122649389Y-65161865D01*
X122439167Y-65074789D01*
X122439165Y-65074788D01*
X122434594Y-65072895D01*
X122354391Y-65053640D01*
X122208524Y-65018620D01*
X122208518Y-65018619D01*
X122203711Y-65017465D01*
X121967000Y-64998835D01*
X121730289Y-65017465D01*
X121725482Y-65018619D01*
X121725476Y-65018620D01*
X121579609Y-65053640D01*
X121499406Y-65072895D01*
X121494835Y-65074788D01*
X121494833Y-65074789D01*
X121284611Y-65161865D01*
X121284607Y-65161867D01*
X121280037Y-65163760D01*
X121275817Y-65166346D01*
X121081798Y-65285241D01*
X121081792Y-65285245D01*
X121077584Y-65287824D01*
X120897031Y-65442031D01*
X120742824Y-65622584D01*
X120740245Y-65626792D01*
X120740241Y-65626798D01*
X120647891Y-65777500D01*
X120618760Y-65825037D01*
X120616865Y-65829611D01*
X120614619Y-65834020D01*
X120612610Y-65832996D01*
X120573940Y-65880992D01*
X120502069Y-65903500D01*
X117744931Y-65903500D01*
X117676810Y-65883498D01*
X117634543Y-65832918D01*
X117632381Y-65834020D01*
X117630135Y-65829611D01*
X117628240Y-65825037D01*
X117599109Y-65777500D01*
X117506759Y-65626798D01*
X117506755Y-65626792D01*
X117504176Y-65622584D01*
X117349969Y-65442031D01*
X117169416Y-65287824D01*
X117165208Y-65285245D01*
X117165202Y-65285241D01*
X116971183Y-65166346D01*
X116966963Y-65163760D01*
X116962393Y-65161867D01*
X116962389Y-65161865D01*
X116752167Y-65074789D01*
X116752165Y-65074788D01*
X116747594Y-65072895D01*
X116667391Y-65053640D01*
X116521524Y-65018620D01*
X116521518Y-65018619D01*
X116516711Y-65017465D01*
X116280000Y-64998835D01*
X116043289Y-65017465D01*
X116038482Y-65018619D01*
X116038476Y-65018620D01*
X115892609Y-65053640D01*
X115812406Y-65072895D01*
X115807835Y-65074788D01*
X115807833Y-65074789D01*
X115597611Y-65161865D01*
X115597607Y-65161867D01*
X115593037Y-65163760D01*
X115588817Y-65166346D01*
X115394798Y-65285241D01*
X115394792Y-65285245D01*
X115390584Y-65287824D01*
X115210031Y-65442031D01*
X115055824Y-65622584D01*
X115053245Y-65626792D01*
X115053241Y-65626798D01*
X114960891Y-65777500D01*
X114931760Y-65825037D01*
X114929867Y-65829607D01*
X114929865Y-65829611D01*
X114872000Y-65969311D01*
X114840895Y-66044406D01*
X114785465Y-66275289D01*
X114766835Y-66512000D01*
X114785465Y-66748711D01*
X114786619Y-66753518D01*
X114786620Y-66753524D01*
X114836550Y-66961497D01*
X114833003Y-67032405D01*
X114791683Y-67090139D01*
X114725709Y-67116369D01*
X114656028Y-67102766D01*
X114624936Y-67080006D01*
X114400905Y-66855975D01*
X114366879Y-66793663D01*
X114364000Y-66766880D01*
X114364000Y-64789120D01*
X114384002Y-64720999D01*
X114400905Y-64700025D01*
X115637912Y-63463018D01*
X115700224Y-63428992D01*
X115775225Y-63435704D01*
X115812406Y-63451105D01*
X115892609Y-63470360D01*
X116038476Y-63505380D01*
X116038482Y-63505381D01*
X116043289Y-63506535D01*
X116280000Y-63525165D01*
X116516711Y-63506535D01*
X116521518Y-63505381D01*
X116521524Y-63505380D01*
X116667391Y-63470360D01*
X116747594Y-63451105D01*
X116752167Y-63449211D01*
X116962389Y-63362135D01*
X116962393Y-63362133D01*
X116966963Y-63360240D01*
X117027929Y-63322880D01*
X117165202Y-63238759D01*
X117165208Y-63238755D01*
X117169416Y-63236176D01*
X117349969Y-63081969D01*
X117504176Y-62901416D01*
X117506755Y-62897208D01*
X117506759Y-62897202D01*
X117625654Y-62703183D01*
X117628240Y-62698963D01*
X117719105Y-62479594D01*
X117738360Y-62399391D01*
X117773380Y-62253524D01*
X117773381Y-62253518D01*
X117774535Y-62248711D01*
X117793165Y-62012000D01*
X117774535Y-61775289D01*
X117758681Y-61709249D01*
X117736782Y-61618037D01*
X117719105Y-61544406D01*
X117628240Y-61325037D01*
X117539973Y-61180999D01*
X117506759Y-61126798D01*
X117506755Y-61126792D01*
X117504176Y-61122584D01*
X117380545Y-60977831D01*
X117351514Y-60913041D01*
X117362119Y-60842841D01*
X117408994Y-60789518D01*
X117476356Y-60770000D01*
X119863880Y-60770000D01*
X119932001Y-60790002D01*
X119952975Y-60806905D01*
X120515982Y-61369912D01*
X120550008Y-61432224D01*
X120543296Y-61507225D01*
X120527895Y-61544406D01*
X120510218Y-61618037D01*
X120488320Y-61709249D01*
X120472465Y-61775289D01*
X120453835Y-62012000D01*
X120472465Y-62248711D01*
X120473619Y-62253518D01*
X120473620Y-62253524D01*
X120508640Y-62399391D01*
X120527895Y-62479594D01*
X120618760Y-62698963D01*
X120621346Y-62703183D01*
X120740241Y-62897202D01*
X120740245Y-62897208D01*
X120742824Y-62901416D01*
X120897031Y-63081969D01*
X121077584Y-63236176D01*
X121081792Y-63238755D01*
X121081798Y-63238759D01*
X121219071Y-63322880D01*
X121280037Y-63360240D01*
X121284607Y-63362133D01*
X121284611Y-63362135D01*
X121494833Y-63449211D01*
X121499406Y-63451105D01*
X121579609Y-63470360D01*
X121725476Y-63505380D01*
X121725482Y-63505381D01*
X121730289Y-63506535D01*
X121967000Y-63525165D01*
X122203711Y-63506535D01*
X122208518Y-63505381D01*
X122208524Y-63505380D01*
X122354391Y-63470360D01*
X122434594Y-63451105D01*
X122439167Y-63449211D01*
X122649389Y-63362135D01*
X122649393Y-63362133D01*
X122653963Y-63360240D01*
X122714929Y-63322880D01*
X122852202Y-63238759D01*
X122852208Y-63238755D01*
X122856416Y-63236176D01*
X123036969Y-63081969D01*
X123191176Y-62901416D01*
X123193755Y-62897208D01*
X123193759Y-62897202D01*
X123312654Y-62703183D01*
X123315240Y-62698963D01*
X123406105Y-62479594D01*
X123425360Y-62399391D01*
X123460380Y-62253524D01*
X123460381Y-62253518D01*
X123461535Y-62248711D01*
X123480165Y-62012000D01*
X126953835Y-62012000D01*
X126972465Y-62248711D01*
X126973619Y-62253518D01*
X126973620Y-62253524D01*
X127008640Y-62399391D01*
X127027895Y-62479594D01*
X127118760Y-62698963D01*
X127121346Y-62703183D01*
X127240241Y-62897202D01*
X127240245Y-62897208D01*
X127242824Y-62901416D01*
X127397031Y-63081969D01*
X127577584Y-63236176D01*
X127581792Y-63238755D01*
X127581798Y-63238759D01*
X127719071Y-63322880D01*
X127780037Y-63360240D01*
X127784607Y-63362133D01*
X127784611Y-63362135D01*
X127994833Y-63449211D01*
X127999406Y-63451105D01*
X128079609Y-63470360D01*
X128225476Y-63505380D01*
X128225482Y-63505381D01*
X128230289Y-63506535D01*
X128467000Y-63525165D01*
X128703711Y-63506535D01*
X128708518Y-63505381D01*
X128708524Y-63505380D01*
X128854391Y-63470360D01*
X128934594Y-63451105D01*
X128939167Y-63449211D01*
X129149389Y-63362135D01*
X129149393Y-63362133D01*
X129153963Y-63360240D01*
X129214929Y-63322880D01*
X129352202Y-63238759D01*
X129352208Y-63238755D01*
X129356416Y-63236176D01*
X129536969Y-63081969D01*
X129691176Y-62901416D01*
X129693755Y-62897208D01*
X129693759Y-62897202D01*
X129812654Y-62703183D01*
X129815240Y-62698963D01*
X129906105Y-62479594D01*
X129925360Y-62399391D01*
X129960380Y-62253524D01*
X129960381Y-62253518D01*
X129961535Y-62248711D01*
X129980165Y-62012000D01*
X129961535Y-61775289D01*
X129945681Y-61709249D01*
X129923782Y-61618037D01*
X129906105Y-61544406D01*
X129815240Y-61325037D01*
X129726973Y-61180999D01*
X129693759Y-61126798D01*
X129693755Y-61126792D01*
X129691176Y-61122584D01*
X129536969Y-60942031D01*
X129356416Y-60787824D01*
X129352208Y-60785245D01*
X129352202Y-60785241D01*
X129158183Y-60666346D01*
X129153963Y-60663760D01*
X129149393Y-60661867D01*
X129149389Y-60661865D01*
X128939167Y-60574789D01*
X128939165Y-60574788D01*
X128934594Y-60572895D01*
X128854391Y-60553640D01*
X128708524Y-60518620D01*
X128708518Y-60518619D01*
X128703711Y-60517465D01*
X128467000Y-60498835D01*
X128230289Y-60517465D01*
X128225482Y-60518619D01*
X128225476Y-60518620D01*
X128079609Y-60553640D01*
X127999406Y-60572895D01*
X127994835Y-60574788D01*
X127994833Y-60574789D01*
X127784611Y-60661865D01*
X127784607Y-60661867D01*
X127780037Y-60663760D01*
X127775817Y-60666346D01*
X127581798Y-60785241D01*
X127581792Y-60785245D01*
X127577584Y-60787824D01*
X127397031Y-60942031D01*
X127242824Y-61122584D01*
X127240245Y-61126792D01*
X127240241Y-61126798D01*
X127207027Y-61180999D01*
X127118760Y-61325037D01*
X127027895Y-61544406D01*
X127010218Y-61618037D01*
X126988320Y-61709249D01*
X126972465Y-61775289D01*
X126953835Y-62012000D01*
X123480165Y-62012000D01*
X123461535Y-61775289D01*
X123445681Y-61709249D01*
X123423782Y-61618037D01*
X123406105Y-61544406D01*
X123315240Y-61325037D01*
X123226973Y-61180999D01*
X123193759Y-61126798D01*
X123193755Y-61126792D01*
X123191176Y-61122584D01*
X123036969Y-60942031D01*
X122856416Y-60787824D01*
X122852208Y-60785245D01*
X122852202Y-60785241D01*
X122658183Y-60666346D01*
X122653963Y-60663760D01*
X122649393Y-60661867D01*
X122649389Y-60661865D01*
X122439167Y-60574789D01*
X122439165Y-60574788D01*
X122434594Y-60572895D01*
X122354391Y-60553640D01*
X122208524Y-60518620D01*
X122208518Y-60518619D01*
X122203711Y-60517465D01*
X121967000Y-60498835D01*
X121730289Y-60517465D01*
X121725482Y-60518619D01*
X121725476Y-60518620D01*
X121579609Y-60553640D01*
X121499406Y-60572895D01*
X121462227Y-60588295D01*
X121391638Y-60595885D01*
X121324912Y-60560982D01*
X120589813Y-59825882D01*
X120578948Y-59813493D01*
X120565983Y-59796597D01*
X120565981Y-59796595D01*
X120560955Y-59790045D01*
X120554405Y-59785019D01*
X120554402Y-59785016D01*
X120501211Y-59744202D01*
X120441468Y-59698359D01*
X120302322Y-59640723D01*
X120271625Y-59636682D01*
X120190503Y-59626001D01*
X120190494Y-59626000D01*
X120190491Y-59626000D01*
X120190479Y-59625999D01*
X120161189Y-59622143D01*
X120161188Y-59622143D01*
X120153000Y-59621065D01*
X120144812Y-59622143D01*
X120144811Y-59622143D01*
X120123702Y-59624922D01*
X120107256Y-59626000D01*
X114091751Y-59626000D01*
X114075304Y-59624922D01*
X114054188Y-59622142D01*
X114046000Y-59621064D01*
X114008508Y-59626000D01*
X113896678Y-59640723D01*
X113757532Y-59698359D01*
X113638045Y-59790045D01*
X113633019Y-59796595D01*
X113620051Y-59813495D01*
X113609184Y-59825886D01*
X113563095Y-59871975D01*
X113500783Y-59906001D01*
X113429968Y-59900936D01*
X113373132Y-59858389D01*
X113348321Y-59791869D01*
X113348000Y-59782880D01*
X113348000Y-56169120D01*
X113368002Y-56100999D01*
X113384905Y-56080025D01*
X115262025Y-54202905D01*
X115324337Y-54168879D01*
X115351120Y-54166000D01*
X126120880Y-54166000D01*
X126189001Y-54186002D01*
X126211515Y-54204472D01*
X126216209Y-54209333D01*
X126222489Y-54215836D01*
X126222493Y-54215839D01*
X126227382Y-54220902D01*
X126303270Y-54270562D01*
X126354987Y-54304404D01*
X126379159Y-54320222D01*
X126385763Y-54322678D01*
X126385765Y-54322679D01*
X126542558Y-54380990D01*
X126542560Y-54380990D01*
X126549168Y-54383448D01*
X126632995Y-54394633D01*
X126721980Y-54406507D01*
X126721984Y-54406507D01*
X126728961Y-54407438D01*
X126735972Y-54406800D01*
X126735976Y-54406800D01*
X126878459Y-54393832D01*
X126909600Y-54390998D01*
X126916302Y-54388820D01*
X126916304Y-54388820D01*
X126989720Y-54364966D01*
X128193257Y-54364966D01*
X128223565Y-54499446D01*
X128226645Y-54509275D01*
X128306770Y-54706603D01*
X128311413Y-54715794D01*
X128422694Y-54897388D01*
X128428777Y-54905699D01*
X128568213Y-55066667D01*
X128575580Y-55073883D01*
X128739434Y-55209916D01*
X128747881Y-55215831D01*
X128931756Y-55323279D01*
X128941042Y-55327729D01*
X129140001Y-55403703D01*
X129149899Y-55406579D01*
X129253250Y-55427606D01*
X129267299Y-55426410D01*
X129271000Y-55416065D01*
X129271000Y-54369115D01*
X129266525Y-54353876D01*
X129265135Y-54352671D01*
X129257452Y-54351000D01*
X128208225Y-54351000D01*
X128194694Y-54354973D01*
X128193257Y-54364966D01*
X126989720Y-54364966D01*
X127075409Y-54337124D01*
X127075412Y-54337123D01*
X127082108Y-54334947D01*
X127178513Y-54277478D01*
X127231860Y-54245677D01*
X127231862Y-54245676D01*
X127237912Y-54242069D01*
X127369266Y-54116982D01*
X127469643Y-53965902D01*
X127517541Y-53839811D01*
X127531555Y-53802920D01*
X127531556Y-53802918D01*
X127534055Y-53796338D01*
X127553539Y-53657702D01*
X127558748Y-53620639D01*
X127558748Y-53620636D01*
X127559299Y-53616717D01*
X127559616Y-53594000D01*
X127554449Y-53547932D01*
X127554013Y-53544044D01*
X127566298Y-53474118D01*
X127614437Y-53421935D01*
X127679228Y-53404000D01*
X128152029Y-53404000D01*
X128220150Y-53424002D01*
G37*
%TD.AperFunction*%
%TD*%
M02*
