%TF.GenerationSoftware,KiCad,Pcbnew,(6.0.5)*%
%TF.CreationDate,2023-03-31T09:28:20-05:00*%
%TF.ProjectId,remote,72656d6f-7465-42e6-9b69-6361645f7063,rev?*%
%TF.SameCoordinates,Original*%
%TF.FileFunction,Copper,L1,Top*%
%TF.FilePolarity,Positive*%
%FSLAX46Y46*%
G04 Gerber Fmt 4.6, Leading zero omitted, Abs format (unit mm)*
G04 Created by KiCad (PCBNEW (6.0.5)) date 2023-03-31 09:28:20*
%MOMM*%
%LPD*%
G01*
G04 APERTURE LIST*
G04 Aperture macros list*
%AMRoundRect*
0 Rectangle with rounded corners*
0 $1 Rounding radius*
0 $2 $3 $4 $5 $6 $7 $8 $9 X,Y pos of 4 corners*
0 Add a 4 corners polygon primitive as box body*
4,1,4,$2,$3,$4,$5,$6,$7,$8,$9,$2,$3,0*
0 Add four circle primitives for the rounded corners*
1,1,$1+$1,$2,$3*
1,1,$1+$1,$4,$5*
1,1,$1+$1,$6,$7*
1,1,$1+$1,$8,$9*
0 Add four rect primitives between the rounded corners*
20,1,$1+$1,$2,$3,$4,$5,0*
20,1,$1+$1,$4,$5,$6,$7,0*
20,1,$1+$1,$6,$7,$8,$9,0*
20,1,$1+$1,$8,$9,$2,$3,0*%
G04 Aperture macros list end*
%TA.AperFunction,ComponentPad*%
%ADD10C,2.000000*%
%TD*%
%TA.AperFunction,SMDPad,CuDef*%
%ADD11RoundRect,0.150000X0.625000X-0.150000X0.625000X0.150000X-0.625000X0.150000X-0.625000X-0.150000X0*%
%TD*%
%TA.AperFunction,SMDPad,CuDef*%
%ADD12RoundRect,0.250000X0.650000X-0.350000X0.650000X0.350000X-0.650000X0.350000X-0.650000X-0.350000X0*%
%TD*%
%TA.AperFunction,ComponentPad*%
%ADD13R,1.700000X1.700000*%
%TD*%
%TA.AperFunction,ComponentPad*%
%ADD14O,1.700000X1.700000*%
%TD*%
%TA.AperFunction,ComponentPad*%
%ADD15R,2.300000X2.300000*%
%TD*%
%TA.AperFunction,ViaPad*%
%ADD16C,0.600000*%
%TD*%
%TA.AperFunction,Conductor*%
%ADD17C,0.127000*%
%TD*%
%TA.AperFunction,Conductor*%
%ADD18C,0.400000*%
%TD*%
%TA.AperFunction,Conductor*%
%ADD19C,0.200000*%
%TD*%
%TA.AperFunction,Conductor*%
%ADD20C,0.150000*%
%TD*%
G04 APERTURE END LIST*
D10*
%TO.P,SW3,1,1*%
%TO.N,Net-(SW3-Pad1)*%
X140659000Y-62012000D03*
X134159000Y-62012000D03*
%TO.P,SW3,2,2*%
%TO.N,Net-(R3-Pad2)*%
X140659000Y-66512000D03*
X134159000Y-66512000D03*
%TD*%
%TO.P,SW2,1,1*%
%TO.N,Net-(SW2-Pad1)*%
X121967000Y-73696000D03*
X128467000Y-73696000D03*
%TO.P,SW2,2,2*%
%TO.N,Net-(R3-Pad2)*%
X128467000Y-78196000D03*
X121967000Y-78196000D03*
%TD*%
D11*
%TO.P,J4,1,Pin_1*%
%TO.N,GND*%
X144558000Y-57126000D03*
%TO.P,J4,2,Pin_2*%
%TO.N,+3V3*%
X144558000Y-56126000D03*
%TO.P,J4,3,Pin_3*%
%TO.N,/SDA*%
X144558000Y-55126000D03*
%TO.P,J4,4,Pin_4*%
%TO.N,/SCL*%
X144558000Y-54126000D03*
D12*
%TO.P,J4,MP*%
%TO.N,N/C*%
X148433000Y-52826000D03*
X148433000Y-58426000D03*
%TD*%
D10*
%TO.P,SW4,1,1*%
%TO.N,Net-(SW4-Pad1)*%
X109780000Y-62012000D03*
X116280000Y-62012000D03*
%TO.P,SW4,2,2*%
%TO.N,Net-(R3-Pad2)*%
X109780000Y-66512000D03*
X116280000Y-66512000D03*
%TD*%
%TO.P,SW1,1,1*%
%TO.N,Net-(SW1-Pad1)*%
X121967000Y-62012000D03*
X128467000Y-62012000D03*
%TO.P,SW1,2,2*%
%TO.N,Net-(R3-Pad2)*%
X128467000Y-66512000D03*
X121967000Y-66512000D03*
%TD*%
D13*
%TO.P,J3,1,Pin_1*%
%TO.N,+3V3*%
X134605000Y-51557000D03*
D14*
%TO.P,J3,2,Pin_2*%
%TO.N,+5V*%
X134605000Y-54097000D03*
%TO.P,J3,3,Pin_3*%
%TO.N,/SDA*%
X132065000Y-51557000D03*
%TO.P,J3,4,Pin_4*%
%TO.N,+5V*%
X132065000Y-54097000D03*
%TO.P,J3,5,Pin_5*%
%TO.N,/SCL*%
X129525000Y-51557000D03*
%TO.P,J3,6,Pin_6*%
%TO.N,GND*%
X129525000Y-54097000D03*
%TD*%
D13*
%TO.P,J2,1,Pin_1*%
%TO.N,GND*%
X144272000Y-42164000D03*
D14*
%TO.P,J2,2,Pin_2*%
%TO.N,+5V*%
X144272000Y-44704000D03*
%TO.P,J2,3,Pin_3*%
%TO.N,/SCL*%
X144272000Y-47244000D03*
%TO.P,J2,4,Pin_4*%
%TO.N,/SDA*%
X144272000Y-49784000D03*
%TD*%
D15*
%TO.P,J1,8*%
%TO.N,N/C*%
X119098000Y-44022000D03*
%TO.P,J1,9*%
X131838000Y-44022000D03*
%TD*%
D16*
%TO.N,+3V3*%
X137160000Y-51562000D03*
X110490000Y-40132000D03*
X108966000Y-51562000D03*
X105664000Y-74930000D03*
X112776000Y-73660000D03*
X110490000Y-42672000D03*
%TO.N,GND*%
X101092000Y-77978000D03*
X102870000Y-77978000D03*
X146050000Y-57150000D03*
%TO.N,+5V*%
X108204000Y-45974000D03*
X125222000Y-48768000D03*
%TO.N,/SCL*%
X114808000Y-51562000D03*
X126741000Y-48773000D03*
X143002000Y-54102000D03*
X146050000Y-54102000D03*
%TO.N,/SDA*%
X128016000Y-49022000D03*
X114808000Y-48006000D03*
%TO.N,Net-(R3-Pad2)*%
X130302000Y-66548000D03*
X131826000Y-66548000D03*
%TD*%
D17*
%TO.N,+3V3*%
X144558000Y-56126000D02*
X144550000Y-56134000D01*
D18*
%TO.N,GND*%
X144558000Y-57126000D02*
X146026000Y-57126000D01*
D19*
X102870000Y-77978000D02*
X101092000Y-77978000D01*
D18*
X146050000Y-57150000D02*
X146026000Y-57126000D01*
D19*
%TO.N,+5V*%
X136398000Y-49530000D02*
X136398000Y-53594000D01*
X108204000Y-48260000D02*
X108204000Y-45974000D01*
X139446000Y-49530000D02*
X144272000Y-44704000D01*
D17*
X132065000Y-54097000D02*
X134605000Y-54097000D01*
D19*
X109474000Y-49530000D02*
X108204000Y-48260000D01*
X109474000Y-49530000D02*
X124460000Y-49530000D01*
X135895000Y-54097000D02*
X134605000Y-54097000D01*
X136398000Y-53594000D02*
X135895000Y-54097000D01*
X136398000Y-49530000D02*
X139446000Y-49530000D01*
X124460000Y-49530000D02*
X125222000Y-48768000D01*
D17*
%TO.N,/SCL*%
X144582000Y-54102000D02*
X144558000Y-54126000D01*
D20*
X126741000Y-48773000D02*
X123952000Y-51562000D01*
D17*
X146050000Y-54102000D02*
X144582000Y-54102000D01*
D20*
X123952000Y-51562000D02*
X114808000Y-51562000D01*
D17*
X144534000Y-54102000D02*
X144558000Y-54126000D01*
X143002000Y-54102000D02*
X144534000Y-54102000D01*
%TO.N,/SDA*%
X144558000Y-55126000D02*
X146550000Y-55126000D01*
X146550000Y-55126000D02*
X146812000Y-54864000D01*
D20*
X127000000Y-48006000D02*
X114808000Y-48006000D01*
D17*
X146812000Y-54864000D02*
X146812000Y-52324000D01*
D20*
X128016000Y-49022000D02*
X127000000Y-48006000D01*
D17*
X146812000Y-52324000D02*
X144272000Y-49784000D01*
D19*
%TO.N,Net-(R3-Pad2)*%
X131826000Y-66548000D02*
X130302000Y-66548000D01*
X134159000Y-66512000D02*
X140659000Y-66512000D01*
X109780000Y-66512000D02*
X116280000Y-66512000D01*
X128467000Y-78196000D02*
X121967000Y-78196000D01*
X121967000Y-66512000D02*
X128467000Y-66512000D01*
D17*
%TO.N,Net-(SW1-Pad1)*%
X121967000Y-62012000D02*
X128467000Y-62012000D01*
%TO.N,Net-(SW2-Pad1)*%
X121967000Y-73696000D02*
X128467000Y-73696000D01*
%TO.N,Net-(SW3-Pad1)*%
X134159000Y-62012000D02*
X140659000Y-62012000D01*
%TO.N,Net-(SW4-Pad1)*%
X109780000Y-62012000D02*
X116280000Y-62012000D01*
%TD*%
%TA.AperFunction,Conductor*%
%TO.N,+3V3*%
G36*
X146481525Y-36088502D02*
G01*
X146528018Y-36142158D01*
X146538122Y-36212432D01*
X146508628Y-36277012D01*
X146483003Y-36298627D01*
X146483342Y-36299109D01*
X146252529Y-36461327D01*
X146252523Y-36461332D01*
X146249024Y-36463791D01*
X146039224Y-36658749D01*
X146036510Y-36662065D01*
X146036507Y-36662068D01*
X146023256Y-36678258D01*
X145857823Y-36880377D01*
X145708180Y-37124573D01*
X145706453Y-37128507D01*
X145706452Y-37128509D01*
X145699580Y-37144165D01*
X145593062Y-37386818D01*
X145514600Y-37662261D01*
X145474246Y-37945804D01*
X145472747Y-38232200D01*
X145473306Y-38236444D01*
X145473306Y-38236448D01*
X145489699Y-38360969D01*
X145510129Y-38516149D01*
X145585702Y-38792398D01*
X145698068Y-39055835D01*
X145845146Y-39301585D01*
X146024215Y-39525100D01*
X146231962Y-39722245D01*
X146464543Y-39889371D01*
X146717653Y-40023386D01*
X146986610Y-40121810D01*
X147266436Y-40182822D01*
X147305901Y-40185928D01*
X147488597Y-40200307D01*
X147488604Y-40200307D01*
X147491053Y-40200500D01*
X147645992Y-40200500D01*
X147648128Y-40200354D01*
X147648139Y-40200354D01*
X147855460Y-40186220D01*
X147855466Y-40186219D01*
X147859737Y-40185928D01*
X147863932Y-40185059D01*
X147863934Y-40185059D01*
X147999961Y-40156889D01*
X148140186Y-40127850D01*
X148410158Y-40032248D01*
X148664658Y-39900891D01*
X148668159Y-39898430D01*
X148668163Y-39898428D01*
X148895471Y-39738673D01*
X148895477Y-39738668D01*
X148898976Y-39736209D01*
X149108776Y-39541251D01*
X149119575Y-39528058D01*
X149287461Y-39322941D01*
X149290177Y-39319623D01*
X149372067Y-39185990D01*
X149424715Y-39138359D01*
X149494756Y-39126752D01*
X149559954Y-39154855D01*
X149599608Y-39213745D01*
X149605500Y-39251825D01*
X149605500Y-51681338D01*
X149585498Y-51749459D01*
X149531842Y-51795952D01*
X149461568Y-51806056D01*
X149418737Y-51790537D01*
X149418605Y-51790820D01*
X149415425Y-51789337D01*
X149413385Y-51788598D01*
X149411972Y-51787727D01*
X149411967Y-51787725D01*
X149405738Y-51783885D01*
X149301946Y-51749459D01*
X149244389Y-51730368D01*
X149244387Y-51730368D01*
X149237861Y-51728203D01*
X149231025Y-51727503D01*
X149231022Y-51727502D01*
X149187969Y-51723091D01*
X149133400Y-51717500D01*
X147732600Y-51717500D01*
X147729354Y-51717837D01*
X147729350Y-51717837D01*
X147633692Y-51727762D01*
X147633688Y-51727763D01*
X147626834Y-51728474D01*
X147620298Y-51730655D01*
X147620296Y-51730655D01*
X147552958Y-51753121D01*
X147459054Y-51784450D01*
X147314352Y-51873995D01*
X147310598Y-51876318D01*
X147242146Y-51895156D01*
X147174377Y-51873995D01*
X147155200Y-51858269D01*
X145602952Y-50306021D01*
X145568926Y-50243709D01*
X145571488Y-50180298D01*
X145602867Y-50077015D01*
X145604370Y-50072069D01*
X145633529Y-49850590D01*
X145634463Y-49812380D01*
X145635074Y-49787365D01*
X145635074Y-49787361D01*
X145635156Y-49784000D01*
X145616852Y-49561361D01*
X145562431Y-49344702D01*
X145473354Y-49139840D01*
X145385155Y-49003505D01*
X145354822Y-48956617D01*
X145354820Y-48956614D01*
X145352014Y-48952277D01*
X145201670Y-48787051D01*
X145197619Y-48783852D01*
X145197615Y-48783848D01*
X145030414Y-48651800D01*
X145030410Y-48651798D01*
X145026359Y-48648598D01*
X144985053Y-48625796D01*
X144935084Y-48575364D01*
X144920312Y-48505921D01*
X144945428Y-48439516D01*
X144972780Y-48412909D01*
X145021858Y-48377902D01*
X145151860Y-48285173D01*
X145168904Y-48268189D01*
X145306435Y-48131137D01*
X145310096Y-48127489D01*
X145369474Y-48044856D01*
X145437435Y-47950277D01*
X145440453Y-47946077D01*
X145539430Y-47745811D01*
X145604370Y-47532069D01*
X145633529Y-47310590D01*
X145635156Y-47244000D01*
X145616852Y-47021361D01*
X145562431Y-46804702D01*
X145473354Y-46599840D01*
X145352014Y-46412277D01*
X145201670Y-46247051D01*
X145197619Y-46243852D01*
X145197615Y-46243848D01*
X145030414Y-46111800D01*
X145030410Y-46111798D01*
X145026359Y-46108598D01*
X144985053Y-46085796D01*
X144935084Y-46035364D01*
X144920312Y-45965921D01*
X144945428Y-45899516D01*
X144972780Y-45872909D01*
X145016603Y-45841650D01*
X145151860Y-45745173D01*
X145310096Y-45587489D01*
X145347626Y-45535261D01*
X145437435Y-45410277D01*
X145440453Y-45406077D01*
X145475017Y-45336143D01*
X145537136Y-45210453D01*
X145537137Y-45210451D01*
X145539430Y-45205811D01*
X145604370Y-44992069D01*
X145633529Y-44770590D01*
X145635156Y-44704000D01*
X145616852Y-44481361D01*
X145562431Y-44264702D01*
X145473354Y-44059840D01*
X145352014Y-43872277D01*
X145348532Y-43868450D01*
X145204798Y-43710488D01*
X145173746Y-43646642D01*
X145182141Y-43576143D01*
X145227317Y-43521375D01*
X145253761Y-43507706D01*
X145360297Y-43467767D01*
X145368705Y-43464615D01*
X145485261Y-43377261D01*
X145572615Y-43260705D01*
X145623745Y-43124316D01*
X145630500Y-43062134D01*
X145630500Y-41265866D01*
X145623745Y-41203684D01*
X145572615Y-41067295D01*
X145485261Y-40950739D01*
X145368705Y-40863385D01*
X145232316Y-40812255D01*
X145170134Y-40805500D01*
X143373866Y-40805500D01*
X143311684Y-40812255D01*
X143175295Y-40863385D01*
X143058739Y-40950739D01*
X142971385Y-41067295D01*
X142920255Y-41203684D01*
X142913500Y-41265866D01*
X142913500Y-43062134D01*
X142920255Y-43124316D01*
X142971385Y-43260705D01*
X143058739Y-43377261D01*
X143175295Y-43464615D01*
X143183704Y-43467767D01*
X143183705Y-43467768D01*
X143292451Y-43508535D01*
X143349216Y-43551176D01*
X143373916Y-43617738D01*
X143358709Y-43687087D01*
X143339316Y-43713568D01*
X143212629Y-43846138D01*
X143086743Y-44030680D01*
X142992688Y-44233305D01*
X142932989Y-44448570D01*
X142909251Y-44670695D01*
X142909548Y-44675848D01*
X142909548Y-44675851D01*
X142915011Y-44770590D01*
X142922110Y-44893715D01*
X142923247Y-44898762D01*
X142923248Y-44898766D01*
X142961956Y-45070521D01*
X142957420Y-45141372D01*
X142928134Y-45187317D01*
X139230856Y-48884595D01*
X139168544Y-48918621D01*
X139141761Y-48921500D01*
X136446143Y-48921500D01*
X136429697Y-48920422D01*
X136406188Y-48917327D01*
X136398000Y-48916249D01*
X136239165Y-48937160D01*
X136239150Y-48937162D01*
X136091125Y-48998476D01*
X136055305Y-49025962D01*
X135970566Y-49090984D01*
X135970563Y-49090987D01*
X135964013Y-49096013D01*
X135866476Y-49223124D01*
X135863317Y-49230750D01*
X135863316Y-49230752D01*
X135814039Y-49349720D01*
X135805162Y-49371150D01*
X135784249Y-49530000D01*
X135786221Y-49544982D01*
X135788422Y-49561697D01*
X135789500Y-49578143D01*
X135789500Y-50108033D01*
X135769498Y-50176154D01*
X135715842Y-50222647D01*
X135645568Y-50232751D01*
X135619271Y-50226015D01*
X135572609Y-50208522D01*
X135557351Y-50204895D01*
X135506486Y-50199369D01*
X135499672Y-50199000D01*
X134877115Y-50199000D01*
X134861876Y-50203475D01*
X134860671Y-50204865D01*
X134859000Y-50212548D01*
X134859000Y-51685000D01*
X134838998Y-51753121D01*
X134785342Y-51799614D01*
X134733000Y-51811000D01*
X134477000Y-51811000D01*
X134408879Y-51790998D01*
X134362386Y-51737342D01*
X134351000Y-51685000D01*
X134351000Y-50217116D01*
X134346525Y-50201877D01*
X134345135Y-50200672D01*
X134337452Y-50199001D01*
X133710331Y-50199001D01*
X133703510Y-50199371D01*
X133652648Y-50204895D01*
X133637396Y-50208521D01*
X133516946Y-50253676D01*
X133501351Y-50262214D01*
X133399276Y-50338715D01*
X133386715Y-50351276D01*
X133310214Y-50453351D01*
X133301676Y-50468946D01*
X133260297Y-50579322D01*
X133217655Y-50636087D01*
X133151093Y-50660786D01*
X133081744Y-50645578D01*
X133049121Y-50619891D01*
X132998151Y-50563876D01*
X132998145Y-50563870D01*
X132994670Y-50560051D01*
X132990619Y-50556852D01*
X132990615Y-50556848D01*
X132823414Y-50424800D01*
X132823410Y-50424798D01*
X132819359Y-50421598D01*
X132623789Y-50313638D01*
X132618920Y-50311914D01*
X132618916Y-50311912D01*
X132418087Y-50240795D01*
X132418083Y-50240794D01*
X132413212Y-50239069D01*
X132408119Y-50238162D01*
X132408116Y-50238161D01*
X132198373Y-50200800D01*
X132198367Y-50200799D01*
X132193284Y-50199894D01*
X132119452Y-50198992D01*
X131975081Y-50197228D01*
X131975079Y-50197228D01*
X131969911Y-50197165D01*
X131749091Y-50230955D01*
X131536756Y-50300357D01*
X131506443Y-50316137D01*
X131348003Y-50398616D01*
X131338607Y-50403507D01*
X131334474Y-50406610D01*
X131334471Y-50406612D01*
X131251450Y-50468946D01*
X131159965Y-50537635D01*
X131005629Y-50699138D01*
X130898201Y-50856621D01*
X130843293Y-50901621D01*
X130772768Y-50909792D01*
X130709021Y-50878538D01*
X130688324Y-50854054D01*
X130607822Y-50729617D01*
X130607820Y-50729614D01*
X130605014Y-50725277D01*
X130454670Y-50560051D01*
X130450619Y-50556852D01*
X130450615Y-50556848D01*
X130283414Y-50424800D01*
X130283410Y-50424798D01*
X130279359Y-50421598D01*
X130083789Y-50313638D01*
X130078920Y-50311914D01*
X130078916Y-50311912D01*
X129878087Y-50240795D01*
X129878083Y-50240794D01*
X129873212Y-50239069D01*
X129868119Y-50238162D01*
X129868116Y-50238161D01*
X129658373Y-50200800D01*
X129658367Y-50200799D01*
X129653284Y-50199894D01*
X129579452Y-50198992D01*
X129435081Y-50197228D01*
X129435079Y-50197228D01*
X129429911Y-50197165D01*
X129209091Y-50230955D01*
X128996756Y-50300357D01*
X128966443Y-50316137D01*
X128808003Y-50398616D01*
X128798607Y-50403507D01*
X128794474Y-50406610D01*
X128794471Y-50406612D01*
X128711450Y-50468946D01*
X128619965Y-50537635D01*
X128465629Y-50699138D01*
X128462720Y-50703403D01*
X128462714Y-50703411D01*
X128425518Y-50757938D01*
X128339743Y-50883680D01*
X128316889Y-50932915D01*
X128278703Y-51015181D01*
X128245688Y-51086305D01*
X128185989Y-51301570D01*
X128162251Y-51523695D01*
X128162548Y-51528848D01*
X128162548Y-51528851D01*
X128174812Y-51741547D01*
X128175110Y-51746715D01*
X128176247Y-51751761D01*
X128176248Y-51751767D01*
X128186206Y-51795952D01*
X128224222Y-51964639D01*
X128308266Y-52171616D01*
X128359942Y-52255944D01*
X128422291Y-52357688D01*
X128424987Y-52362088D01*
X128571250Y-52530938D01*
X128743126Y-52673632D01*
X128813595Y-52714811D01*
X128816445Y-52716476D01*
X128865169Y-52768114D01*
X128878240Y-52837897D01*
X128851509Y-52903669D01*
X128811055Y-52937027D01*
X128798607Y-52943507D01*
X128794474Y-52946610D01*
X128794471Y-52946612D01*
X128770247Y-52964800D01*
X128619965Y-53077635D01*
X128465629Y-53239138D01*
X128339743Y-53423680D01*
X128322484Y-53460862D01*
X128256883Y-53602188D01*
X128245688Y-53626305D01*
X128185989Y-53841570D01*
X128162251Y-54063695D01*
X128162548Y-54068848D01*
X128162548Y-54068851D01*
X128174812Y-54281547D01*
X128175110Y-54286715D01*
X128176247Y-54291761D01*
X128176248Y-54291767D01*
X128200304Y-54398508D01*
X128224222Y-54504639D01*
X128274526Y-54628524D01*
X128305783Y-54705500D01*
X128308266Y-54711616D01*
X128359020Y-54794440D01*
X128422291Y-54897688D01*
X128424987Y-54902088D01*
X128571250Y-55070938D01*
X128743126Y-55213632D01*
X128936000Y-55326338D01*
X128940825Y-55328180D01*
X128940826Y-55328181D01*
X128978329Y-55342502D01*
X129144692Y-55406030D01*
X129149760Y-55407061D01*
X129149763Y-55407062D01*
X129257017Y-55428883D01*
X129363597Y-55450567D01*
X129368772Y-55450757D01*
X129368774Y-55450757D01*
X129581673Y-55458564D01*
X129581677Y-55458564D01*
X129586837Y-55458753D01*
X129591957Y-55458097D01*
X129591959Y-55458097D01*
X129803288Y-55431025D01*
X129803289Y-55431025D01*
X129808416Y-55430368D01*
X129813366Y-55428883D01*
X130017429Y-55367661D01*
X130017434Y-55367659D01*
X130022384Y-55366174D01*
X130222994Y-55267896D01*
X130404860Y-55138173D01*
X130563096Y-54980489D01*
X130619788Y-54901594D01*
X130693453Y-54799077D01*
X130694776Y-54800028D01*
X130741645Y-54756857D01*
X130811580Y-54744625D01*
X130877026Y-54772144D01*
X130904875Y-54803994D01*
X130964987Y-54902088D01*
X131111250Y-55070938D01*
X131283126Y-55213632D01*
X131476000Y-55326338D01*
X131480825Y-55328180D01*
X131480826Y-55328181D01*
X131518329Y-55342502D01*
X131684692Y-55406030D01*
X131689760Y-55407061D01*
X131689763Y-55407062D01*
X131797017Y-55428883D01*
X131903597Y-55450567D01*
X131908772Y-55450757D01*
X131908774Y-55450757D01*
X132121673Y-55458564D01*
X132121677Y-55458564D01*
X132126837Y-55458753D01*
X132131957Y-55458097D01*
X132131959Y-55458097D01*
X132343288Y-55431025D01*
X132343289Y-55431025D01*
X132348416Y-55430368D01*
X132353366Y-55428883D01*
X132557429Y-55367661D01*
X132557434Y-55367659D01*
X132562384Y-55366174D01*
X132762994Y-55267896D01*
X132944860Y-55138173D01*
X133103096Y-54980489D01*
X133159788Y-54901594D01*
X133233453Y-54799077D01*
X133234776Y-54800028D01*
X133281645Y-54756857D01*
X133351580Y-54744625D01*
X133417026Y-54772144D01*
X133444875Y-54803994D01*
X133504987Y-54902088D01*
X133651250Y-55070938D01*
X133823126Y-55213632D01*
X134016000Y-55326338D01*
X134020825Y-55328180D01*
X134020826Y-55328181D01*
X134058329Y-55342502D01*
X134224692Y-55406030D01*
X134229760Y-55407061D01*
X134229763Y-55407062D01*
X134337017Y-55428883D01*
X134443597Y-55450567D01*
X134448772Y-55450757D01*
X134448774Y-55450757D01*
X134661673Y-55458564D01*
X134661677Y-55458564D01*
X134666837Y-55458753D01*
X134671957Y-55458097D01*
X134671959Y-55458097D01*
X134883288Y-55431025D01*
X134883289Y-55431025D01*
X134888416Y-55430368D01*
X134893366Y-55428883D01*
X135097429Y-55367661D01*
X135097434Y-55367659D01*
X135102384Y-55366174D01*
X135302994Y-55267896D01*
X135484860Y-55138173D01*
X135643096Y-54980489D01*
X135699788Y-54901594D01*
X135770435Y-54803277D01*
X135773453Y-54799077D01*
X135782957Y-54779847D01*
X135831069Y-54727640D01*
X135892983Y-54710484D01*
X135895000Y-54710750D01*
X135903189Y-54709672D01*
X135934874Y-54705501D01*
X135934884Y-54705500D01*
X135934885Y-54705500D01*
X136034457Y-54692391D01*
X136045664Y-54690916D01*
X136045666Y-54690915D01*
X136053851Y-54689838D01*
X136201876Y-54628524D01*
X136234504Y-54603488D01*
X136297072Y-54555477D01*
X136297075Y-54555474D01*
X136322434Y-54536015D01*
X136328987Y-54530987D01*
X136334017Y-54524432D01*
X136348452Y-54505621D01*
X136359319Y-54493230D01*
X136794234Y-54058315D01*
X136806625Y-54047448D01*
X136825437Y-54033013D01*
X136831987Y-54027987D01*
X136856474Y-53996075D01*
X136856477Y-53996072D01*
X136929523Y-53900876D01*
X136929524Y-53900875D01*
X136946210Y-53860593D01*
X136987678Y-53760479D01*
X136990838Y-53752850D01*
X137006500Y-53633885D01*
X137006500Y-53633878D01*
X137011750Y-53594000D01*
X137007578Y-53562307D01*
X137006500Y-53545864D01*
X137006500Y-50264500D01*
X137026502Y-50196379D01*
X137080158Y-50149886D01*
X137132500Y-50138500D01*
X139397864Y-50138500D01*
X139414307Y-50139578D01*
X139446000Y-50143750D01*
X139454189Y-50142672D01*
X139485874Y-50138501D01*
X139485884Y-50138500D01*
X139485885Y-50138500D01*
X139485901Y-50138498D01*
X139585457Y-50125391D01*
X139596664Y-50123916D01*
X139596666Y-50123915D01*
X139604851Y-50122838D01*
X139752876Y-50061524D01*
X139848072Y-49988477D01*
X139848075Y-49988474D01*
X139879987Y-49963987D01*
X139885017Y-49957432D01*
X139899452Y-49938621D01*
X139910319Y-49926230D01*
X142695092Y-47141457D01*
X142757404Y-47107431D01*
X142828219Y-47112496D01*
X142885055Y-47155043D01*
X142909978Y-47223298D01*
X142922110Y-47433715D01*
X142923247Y-47438761D01*
X142923248Y-47438767D01*
X142935505Y-47493154D01*
X142971222Y-47651639D01*
X143055266Y-47858616D01*
X143171987Y-48049088D01*
X143318250Y-48217938D01*
X143490126Y-48360632D01*
X143536821Y-48387918D01*
X143563445Y-48403476D01*
X143612169Y-48455114D01*
X143625240Y-48524897D01*
X143598509Y-48590669D01*
X143558055Y-48624027D01*
X143545607Y-48630507D01*
X143541474Y-48633610D01*
X143541471Y-48633612D01*
X143394308Y-48744105D01*
X143366965Y-48764635D01*
X143363393Y-48768373D01*
X143221663Y-48916685D01*
X143212629Y-48926138D01*
X143086743Y-49110680D01*
X142992688Y-49313305D01*
X142932989Y-49528570D01*
X142932440Y-49533707D01*
X142931456Y-49542913D01*
X142909251Y-49750695D01*
X142909548Y-49755848D01*
X142909548Y-49755851D01*
X142920087Y-49938625D01*
X142922110Y-49973715D01*
X142923247Y-49978761D01*
X142923248Y-49978767D01*
X142940766Y-50056496D01*
X142971222Y-50191639D01*
X143055266Y-50398616D01*
X143171987Y-50589088D01*
X143318250Y-50757938D01*
X143490126Y-50900632D01*
X143683000Y-51013338D01*
X143891692Y-51093030D01*
X143896760Y-51094061D01*
X143896763Y-51094062D01*
X143999495Y-51114963D01*
X144110597Y-51137567D01*
X144115772Y-51137757D01*
X144115774Y-51137757D01*
X144328673Y-51145564D01*
X144328677Y-51145564D01*
X144333837Y-51145753D01*
X144338957Y-51145097D01*
X144338959Y-51145097D01*
X144550288Y-51118025D01*
X144550289Y-51118025D01*
X144555416Y-51117368D01*
X144563432Y-51114963D01*
X144668730Y-51083372D01*
X144739726Y-51082956D01*
X144794033Y-51114963D01*
X146203095Y-52524026D01*
X146237121Y-52586338D01*
X146240000Y-52613121D01*
X146240000Y-53168465D01*
X146219998Y-53236586D01*
X146166342Y-53283079D01*
X146099082Y-53293579D01*
X146062674Y-53289238D01*
X146055680Y-53288404D01*
X146048677Y-53289140D01*
X146048676Y-53289140D01*
X145882288Y-53306628D01*
X145882286Y-53306629D01*
X145875288Y-53307364D01*
X145785094Y-53338068D01*
X145710249Y-53363547D01*
X145710246Y-53363548D01*
X145703579Y-53365818D01*
X145697583Y-53369507D01*
X145697572Y-53369512D01*
X145641504Y-53404006D01*
X145573003Y-53422665D01*
X145511343Y-53405143D01*
X145453424Y-53370890D01*
X145453423Y-53370890D01*
X145446601Y-53366855D01*
X145438990Y-53364644D01*
X145438988Y-53364643D01*
X145360880Y-53341951D01*
X145286831Y-53320438D01*
X145280426Y-53319934D01*
X145280421Y-53319933D01*
X145251958Y-53317693D01*
X145251950Y-53317693D01*
X145249502Y-53317500D01*
X143866498Y-53317500D01*
X143864050Y-53317693D01*
X143864042Y-53317693D01*
X143835579Y-53319933D01*
X143835574Y-53319934D01*
X143829169Y-53320438D01*
X143755120Y-53341951D01*
X143677012Y-53364643D01*
X143677010Y-53364644D01*
X143669399Y-53366855D01*
X143655160Y-53375276D01*
X143571859Y-53424540D01*
X143503043Y-53442000D01*
X143440207Y-53422473D01*
X143364613Y-53374501D01*
X143358666Y-53370727D01*
X143341580Y-53364643D01*
X143194425Y-53312243D01*
X143194420Y-53312242D01*
X143187790Y-53309881D01*
X143180802Y-53309048D01*
X143180799Y-53309047D01*
X143051078Y-53293579D01*
X143007680Y-53288404D01*
X143000677Y-53289140D01*
X143000676Y-53289140D01*
X142834288Y-53306628D01*
X142834286Y-53306629D01*
X142827288Y-53307364D01*
X142655579Y-53365818D01*
X142609682Y-53394054D01*
X142507095Y-53457166D01*
X142507092Y-53457168D01*
X142501088Y-53460862D01*
X142496053Y-53465793D01*
X142496050Y-53465795D01*
X142414287Y-53545864D01*
X142371493Y-53587771D01*
X142273235Y-53740238D01*
X142270826Y-53746858D01*
X142270824Y-53746861D01*
X142214767Y-53900876D01*
X142211197Y-53910685D01*
X142188463Y-54090640D01*
X142206163Y-54271160D01*
X142263418Y-54443273D01*
X142267065Y-54449295D01*
X142267066Y-54449297D01*
X142331371Y-54555477D01*
X142357380Y-54598424D01*
X142483382Y-54728902D01*
X142526102Y-54756857D01*
X142619919Y-54818249D01*
X142635159Y-54828222D01*
X142641763Y-54830678D01*
X142641765Y-54830679D01*
X142798558Y-54888990D01*
X142798560Y-54888990D01*
X142805168Y-54891448D01*
X142888995Y-54902633D01*
X142977980Y-54914507D01*
X142977984Y-54914507D01*
X142984961Y-54915438D01*
X142991972Y-54914800D01*
X142991976Y-54914800D01*
X143137080Y-54901594D01*
X143206733Y-54915339D01*
X143257898Y-54964560D01*
X143274500Y-55027075D01*
X143274500Y-55342502D01*
X143274693Y-55344950D01*
X143274693Y-55344958D01*
X143276184Y-55363895D01*
X143277438Y-55379831D01*
X143323855Y-55539601D01*
X143337310Y-55562351D01*
X143354770Y-55631165D01*
X143337311Y-55690630D01*
X143328352Y-55705779D01*
X143322107Y-55720210D01*
X143283061Y-55854605D01*
X143283101Y-55868706D01*
X143290370Y-55872000D01*
X143615430Y-55872000D01*
X143664275Y-55882115D01*
X143669399Y-55885145D01*
X143677007Y-55887355D01*
X143677011Y-55887357D01*
X143757422Y-55910718D01*
X143829169Y-55931562D01*
X143835574Y-55932066D01*
X143835579Y-55932067D01*
X143864042Y-55934307D01*
X143864050Y-55934307D01*
X143866498Y-55934500D01*
X145249502Y-55934500D01*
X145251950Y-55934307D01*
X145251958Y-55934307D01*
X145280421Y-55932067D01*
X145280426Y-55932066D01*
X145286831Y-55931562D01*
X145358578Y-55910718D01*
X145438989Y-55887357D01*
X145438993Y-55887355D01*
X145446601Y-55885145D01*
X145451725Y-55882115D01*
X145500570Y-55872000D01*
X145819878Y-55872000D01*
X145833409Y-55868027D01*
X145834544Y-55860128D01*
X145834261Y-55859152D01*
X145834464Y-55788156D01*
X145873019Y-55728540D01*
X145937684Y-55699232D01*
X145955258Y-55698000D01*
X146504256Y-55698000D01*
X146520702Y-55699078D01*
X146541811Y-55701857D01*
X146541812Y-55701857D01*
X146550000Y-55702935D01*
X146558188Y-55701857D01*
X146558189Y-55701857D01*
X146587479Y-55698001D01*
X146587491Y-55698000D01*
X146587494Y-55698000D01*
X146587503Y-55697999D01*
X146668625Y-55687318D01*
X146699322Y-55683277D01*
X146838468Y-55625641D01*
X146957955Y-55533955D01*
X146975949Y-55510505D01*
X146986816Y-55498114D01*
X147184114Y-55300816D01*
X147196505Y-55289949D01*
X147213405Y-55276981D01*
X147219955Y-55271955D01*
X147311641Y-55152468D01*
X147369277Y-55013322D01*
X147384000Y-54901492D01*
X147388936Y-54864000D01*
X147385078Y-54834696D01*
X147384000Y-54818249D01*
X147384000Y-54017362D01*
X147404002Y-53949241D01*
X147457658Y-53902748D01*
X147527932Y-53892644D01*
X147549665Y-53897769D01*
X147628139Y-53923797D01*
X147634975Y-53924497D01*
X147634978Y-53924498D01*
X147678031Y-53928909D01*
X147732600Y-53934500D01*
X149133400Y-53934500D01*
X149136646Y-53934163D01*
X149136650Y-53934163D01*
X149232308Y-53924238D01*
X149232312Y-53924237D01*
X149239166Y-53923526D01*
X149245702Y-53921345D01*
X149245704Y-53921345D01*
X149399998Y-53869868D01*
X149406946Y-53867550D01*
X149413200Y-53863680D01*
X149413218Y-53863675D01*
X149419797Y-53860593D01*
X149420325Y-53861719D01*
X149481652Y-53844844D01*
X149549422Y-53866007D01*
X149594991Y-53920449D01*
X149605500Y-53970826D01*
X149605500Y-57281338D01*
X149585498Y-57349459D01*
X149531842Y-57395952D01*
X149461568Y-57406056D01*
X149418737Y-57390537D01*
X149418605Y-57390820D01*
X149415425Y-57389337D01*
X149413385Y-57388598D01*
X149411972Y-57387727D01*
X149411967Y-57387725D01*
X149405738Y-57383885D01*
X149288376Y-57344958D01*
X149244389Y-57330368D01*
X149244387Y-57330368D01*
X149237861Y-57328203D01*
X149231025Y-57327503D01*
X149231022Y-57327502D01*
X149187969Y-57323091D01*
X149133400Y-57317500D01*
X147732600Y-57317500D01*
X147729354Y-57317837D01*
X147729350Y-57317837D01*
X147633692Y-57327762D01*
X147633688Y-57327763D01*
X147626834Y-57328474D01*
X147620298Y-57330655D01*
X147620296Y-57330655D01*
X147563934Y-57349459D01*
X147459054Y-57384450D01*
X147308652Y-57477522D01*
X147183695Y-57602697D01*
X147179855Y-57608927D01*
X147179854Y-57608928D01*
X147138523Y-57675980D01*
X147090885Y-57753262D01*
X147088581Y-57760209D01*
X147046414Y-57887340D01*
X147035203Y-57921139D01*
X147034503Y-57927975D01*
X147034502Y-57927978D01*
X147032488Y-57947637D01*
X147024500Y-58025600D01*
X147024500Y-58826400D01*
X147035474Y-58932166D01*
X147091450Y-59099946D01*
X147184522Y-59250348D01*
X147309697Y-59375305D01*
X147315927Y-59379145D01*
X147315928Y-59379146D01*
X147453090Y-59463694D01*
X147460262Y-59468115D01*
X147540005Y-59494564D01*
X147621611Y-59521632D01*
X147621613Y-59521632D01*
X147628139Y-59523797D01*
X147634975Y-59524497D01*
X147634978Y-59524498D01*
X147678031Y-59528909D01*
X147732600Y-59534500D01*
X149133400Y-59534500D01*
X149136646Y-59534163D01*
X149136650Y-59534163D01*
X149232308Y-59524238D01*
X149232312Y-59524237D01*
X149239166Y-59523526D01*
X149245702Y-59521345D01*
X149245704Y-59521345D01*
X149377806Y-59477272D01*
X149406946Y-59467550D01*
X149413200Y-59463680D01*
X149413218Y-59463675D01*
X149419797Y-59460593D01*
X149420325Y-59461719D01*
X149481652Y-59444844D01*
X149549422Y-59466007D01*
X149594991Y-59520449D01*
X149605500Y-59570826D01*
X149605500Y-81906215D01*
X149585498Y-81974336D01*
X149531842Y-82020829D01*
X149461568Y-82030933D01*
X149396988Y-82001439D01*
X149371384Y-81970921D01*
X149355425Y-81944255D01*
X149302854Y-81856415D01*
X149123785Y-81632900D01*
X148916038Y-81435755D01*
X148683457Y-81268629D01*
X148430347Y-81134614D01*
X148161390Y-81036190D01*
X147881564Y-80975178D01*
X147838389Y-80971780D01*
X147659403Y-80957693D01*
X147659396Y-80957693D01*
X147656947Y-80957500D01*
X147502008Y-80957500D01*
X147499872Y-80957646D01*
X147499861Y-80957646D01*
X147292540Y-80971780D01*
X147292534Y-80971781D01*
X147288263Y-80972072D01*
X147284068Y-80972941D01*
X147284066Y-80972941D01*
X147148039Y-81001111D01*
X147007814Y-81030150D01*
X146737842Y-81125752D01*
X146483342Y-81257109D01*
X146479841Y-81259570D01*
X146479837Y-81259572D01*
X146252529Y-81419327D01*
X146252523Y-81419332D01*
X146249024Y-81421791D01*
X146039224Y-81616749D01*
X146036510Y-81620065D01*
X146036507Y-81620068D01*
X146023256Y-81636258D01*
X145857823Y-81838377D01*
X145708180Y-82082573D01*
X145706453Y-82086507D01*
X145706452Y-82086509D01*
X145699580Y-82102165D01*
X145593062Y-82344818D01*
X145514600Y-82620261D01*
X145474246Y-82903804D01*
X145472747Y-83190200D01*
X145473306Y-83194444D01*
X145473306Y-83194448D01*
X145489699Y-83318969D01*
X145510129Y-83474149D01*
X145585702Y-83750398D01*
X145587386Y-83754346D01*
X145692735Y-84001331D01*
X145698068Y-84013835D01*
X145845146Y-84259585D01*
X146024215Y-84483100D01*
X146231962Y-84680245D01*
X146464543Y-84847371D01*
X146468347Y-84849385D01*
X146473563Y-84852147D01*
X146524406Y-84901700D01*
X146540386Y-84970875D01*
X146516431Y-85037708D01*
X146460146Y-85080981D01*
X146414602Y-85089500D01*
X103776596Y-85089500D01*
X103708475Y-85069498D01*
X103661982Y-85015842D01*
X103651878Y-84945568D01*
X103681372Y-84880988D01*
X103706997Y-84859373D01*
X103706658Y-84858891D01*
X103937471Y-84696673D01*
X103937477Y-84696668D01*
X103940976Y-84694209D01*
X104150776Y-84499251D01*
X104161575Y-84486058D01*
X104329461Y-84280941D01*
X104332177Y-84277623D01*
X104481820Y-84033427D01*
X104488802Y-84017522D01*
X104595214Y-83775110D01*
X104595215Y-83775106D01*
X104596938Y-83771182D01*
X104675400Y-83495739D01*
X104715754Y-83212196D01*
X104716752Y-83021487D01*
X104717231Y-82930086D01*
X104717231Y-82930080D01*
X104717253Y-82925800D01*
X104713798Y-82899552D01*
X104680431Y-82646107D01*
X104679871Y-82641851D01*
X104604298Y-82365602D01*
X104491932Y-82102165D01*
X104344854Y-81856415D01*
X104165785Y-81632900D01*
X103958038Y-81435755D01*
X103725457Y-81268629D01*
X103472347Y-81134614D01*
X103203390Y-81036190D01*
X102923564Y-80975178D01*
X102880389Y-80971780D01*
X102701403Y-80957693D01*
X102701396Y-80957693D01*
X102698947Y-80957500D01*
X102544008Y-80957500D01*
X102541872Y-80957646D01*
X102541861Y-80957646D01*
X102334540Y-80971780D01*
X102334534Y-80971781D01*
X102330263Y-80972072D01*
X102326068Y-80972941D01*
X102326066Y-80972941D01*
X102190039Y-81001111D01*
X102049814Y-81030150D01*
X101779842Y-81125752D01*
X101525342Y-81257109D01*
X101521841Y-81259570D01*
X101521837Y-81259572D01*
X101294529Y-81419327D01*
X101294523Y-81419332D01*
X101291024Y-81421791D01*
X101081224Y-81616749D01*
X101078510Y-81620065D01*
X101078507Y-81620068D01*
X101065256Y-81636258D01*
X100899823Y-81838377D01*
X100858252Y-81906215D01*
X100817933Y-81972010D01*
X100765285Y-82019641D01*
X100695244Y-82031248D01*
X100630046Y-82003145D01*
X100590392Y-81944255D01*
X100584500Y-81906175D01*
X100584500Y-78833201D01*
X100604502Y-78765080D01*
X100658158Y-78718587D01*
X100728432Y-78708483D01*
X100754419Y-78715104D01*
X100763785Y-78718587D01*
X100888558Y-78764990D01*
X100888560Y-78764990D01*
X100895168Y-78767448D01*
X100978995Y-78778633D01*
X101067980Y-78790507D01*
X101067984Y-78790507D01*
X101074961Y-78791438D01*
X101081972Y-78790800D01*
X101081976Y-78790800D01*
X101224459Y-78777832D01*
X101255600Y-78774998D01*
X101262302Y-78772820D01*
X101262304Y-78772820D01*
X101421409Y-78721124D01*
X101421412Y-78721123D01*
X101428108Y-78718947D01*
X101583912Y-78626069D01*
X101589013Y-78621212D01*
X101594626Y-78616951D01*
X101595385Y-78617952D01*
X101652090Y-78588762D01*
X101675860Y-78586500D01*
X102285699Y-78586500D01*
X102354692Y-78607068D01*
X102371325Y-78617952D01*
X102503159Y-78704222D01*
X102509763Y-78706678D01*
X102509765Y-78706679D01*
X102666558Y-78764990D01*
X102666560Y-78764990D01*
X102673168Y-78767448D01*
X102756995Y-78778633D01*
X102845980Y-78790507D01*
X102845984Y-78790507D01*
X102852961Y-78791438D01*
X102859972Y-78790800D01*
X102859976Y-78790800D01*
X103002459Y-78777832D01*
X103033600Y-78774998D01*
X103040302Y-78772820D01*
X103040304Y-78772820D01*
X103199409Y-78721124D01*
X103199412Y-78721123D01*
X103206108Y-78718947D01*
X103361912Y-78626069D01*
X103493266Y-78500982D01*
X103593643Y-78349902D01*
X103652106Y-78196000D01*
X120453835Y-78196000D01*
X120472465Y-78432711D01*
X120527895Y-78663594D01*
X120529788Y-78668165D01*
X120529789Y-78668167D01*
X120615496Y-78875082D01*
X120618760Y-78882963D01*
X120621346Y-78887183D01*
X120740241Y-79081202D01*
X120740245Y-79081208D01*
X120742824Y-79085416D01*
X120897031Y-79265969D01*
X121077584Y-79420176D01*
X121081792Y-79422755D01*
X121081798Y-79422759D01*
X121275817Y-79541654D01*
X121280037Y-79544240D01*
X121284607Y-79546133D01*
X121284611Y-79546135D01*
X121494833Y-79633211D01*
X121499406Y-79635105D01*
X121579609Y-79654360D01*
X121725476Y-79689380D01*
X121725482Y-79689381D01*
X121730289Y-79690535D01*
X121967000Y-79709165D01*
X122203711Y-79690535D01*
X122208518Y-79689381D01*
X122208524Y-79689380D01*
X122354391Y-79654360D01*
X122434594Y-79635105D01*
X122439167Y-79633211D01*
X122649389Y-79546135D01*
X122649393Y-79546133D01*
X122653963Y-79544240D01*
X122658183Y-79541654D01*
X122852202Y-79422759D01*
X122852208Y-79422755D01*
X122856416Y-79420176D01*
X123036969Y-79265969D01*
X123191176Y-79085416D01*
X123193755Y-79081208D01*
X123193759Y-79081202D01*
X123312654Y-78887183D01*
X123315240Y-78882963D01*
X123317135Y-78878389D01*
X123319381Y-78873980D01*
X123321390Y-78875004D01*
X123360060Y-78827008D01*
X123431931Y-78804500D01*
X127002069Y-78804500D01*
X127070190Y-78824502D01*
X127112457Y-78875082D01*
X127114619Y-78873980D01*
X127116865Y-78878389D01*
X127118760Y-78882963D01*
X127121346Y-78887183D01*
X127240241Y-79081202D01*
X127240245Y-79081208D01*
X127242824Y-79085416D01*
X127397031Y-79265969D01*
X127577584Y-79420176D01*
X127581792Y-79422755D01*
X127581798Y-79422759D01*
X127775817Y-79541654D01*
X127780037Y-79544240D01*
X127784607Y-79546133D01*
X127784611Y-79546135D01*
X127994833Y-79633211D01*
X127999406Y-79635105D01*
X128079609Y-79654360D01*
X128225476Y-79689380D01*
X128225482Y-79689381D01*
X128230289Y-79690535D01*
X128467000Y-79709165D01*
X128703711Y-79690535D01*
X128708518Y-79689381D01*
X128708524Y-79689380D01*
X128854391Y-79654360D01*
X128934594Y-79635105D01*
X128939167Y-79633211D01*
X129149389Y-79546135D01*
X129149393Y-79546133D01*
X129153963Y-79544240D01*
X129158183Y-79541654D01*
X129352202Y-79422759D01*
X129352208Y-79422755D01*
X129356416Y-79420176D01*
X129536969Y-79265969D01*
X129691176Y-79085416D01*
X129693755Y-79081208D01*
X129693759Y-79081202D01*
X129812654Y-78887183D01*
X129815240Y-78882963D01*
X129818505Y-78875082D01*
X129904211Y-78668167D01*
X129904212Y-78668165D01*
X129906105Y-78663594D01*
X129961535Y-78432711D01*
X129980165Y-78196000D01*
X129961535Y-77959289D01*
X129906105Y-77728406D01*
X129863873Y-77626448D01*
X129817135Y-77513611D01*
X129817133Y-77513607D01*
X129815240Y-77509037D01*
X129789864Y-77467627D01*
X129693759Y-77310798D01*
X129693755Y-77310792D01*
X129691176Y-77306584D01*
X129536969Y-77126031D01*
X129356416Y-76971824D01*
X129352208Y-76969245D01*
X129352202Y-76969241D01*
X129158183Y-76850346D01*
X129153963Y-76847760D01*
X129149393Y-76845867D01*
X129149389Y-76845865D01*
X128939167Y-76758789D01*
X128939165Y-76758788D01*
X128934594Y-76756895D01*
X128854391Y-76737640D01*
X128708524Y-76702620D01*
X128708518Y-76702619D01*
X128703711Y-76701465D01*
X128467000Y-76682835D01*
X128230289Y-76701465D01*
X128225482Y-76702619D01*
X128225476Y-76702620D01*
X128079609Y-76737640D01*
X127999406Y-76756895D01*
X127994835Y-76758788D01*
X127994833Y-76758789D01*
X127784611Y-76845865D01*
X127784607Y-76845867D01*
X127780037Y-76847760D01*
X127775817Y-76850346D01*
X127581798Y-76969241D01*
X127581792Y-76969245D01*
X127577584Y-76971824D01*
X127397031Y-77126031D01*
X127242824Y-77306584D01*
X127240245Y-77310792D01*
X127240241Y-77310798D01*
X127144136Y-77467627D01*
X127118760Y-77509037D01*
X127116865Y-77513611D01*
X127114619Y-77518020D01*
X127112610Y-77516996D01*
X127073940Y-77564992D01*
X127002069Y-77587500D01*
X123431931Y-77587500D01*
X123363810Y-77567498D01*
X123321543Y-77516918D01*
X123319381Y-77518020D01*
X123317135Y-77513611D01*
X123315240Y-77509037D01*
X123289864Y-77467627D01*
X123193759Y-77310798D01*
X123193755Y-77310792D01*
X123191176Y-77306584D01*
X123036969Y-77126031D01*
X122856416Y-76971824D01*
X122852208Y-76969245D01*
X122852202Y-76969241D01*
X122658183Y-76850346D01*
X122653963Y-76847760D01*
X122649393Y-76845867D01*
X122649389Y-76845865D01*
X122439167Y-76758789D01*
X122439165Y-76758788D01*
X122434594Y-76756895D01*
X122354391Y-76737640D01*
X122208524Y-76702620D01*
X122208518Y-76702619D01*
X122203711Y-76701465D01*
X121967000Y-76682835D01*
X121730289Y-76701465D01*
X121725482Y-76702619D01*
X121725476Y-76702620D01*
X121579609Y-76737640D01*
X121499406Y-76756895D01*
X121494835Y-76758788D01*
X121494833Y-76758789D01*
X121284611Y-76845865D01*
X121284607Y-76845867D01*
X121280037Y-76847760D01*
X121275817Y-76850346D01*
X121081798Y-76969241D01*
X121081792Y-76969245D01*
X121077584Y-76971824D01*
X120897031Y-77126031D01*
X120742824Y-77306584D01*
X120740245Y-77310792D01*
X120740241Y-77310798D01*
X120644136Y-77467627D01*
X120618760Y-77509037D01*
X120616867Y-77513607D01*
X120616865Y-77513611D01*
X120570127Y-77626448D01*
X120527895Y-77728406D01*
X120472465Y-77959289D01*
X120453835Y-78196000D01*
X103652106Y-78196000D01*
X103655555Y-78186920D01*
X103655556Y-78186918D01*
X103658055Y-78180338D01*
X103683299Y-78000717D01*
X103683616Y-77978000D01*
X103663397Y-77797745D01*
X103661080Y-77791091D01*
X103606064Y-77633106D01*
X103606062Y-77633103D01*
X103603745Y-77626448D01*
X103535992Y-77518020D01*
X103511359Y-77478598D01*
X103507626Y-77472624D01*
X103502664Y-77467627D01*
X103384778Y-77348915D01*
X103384774Y-77348912D01*
X103379815Y-77343918D01*
X103368697Y-77336862D01*
X103315063Y-77302825D01*
X103226666Y-77246727D01*
X103197463Y-77236328D01*
X103062425Y-77188243D01*
X103062420Y-77188242D01*
X103055790Y-77185881D01*
X103048802Y-77185048D01*
X103048799Y-77185047D01*
X102925698Y-77170368D01*
X102875680Y-77164404D01*
X102868677Y-77165140D01*
X102868676Y-77165140D01*
X102702288Y-77182628D01*
X102702286Y-77182629D01*
X102695288Y-77183364D01*
X102523579Y-77241818D01*
X102369088Y-77336862D01*
X102364054Y-77341791D01*
X102362776Y-77342790D01*
X102296782Y-77368967D01*
X102285204Y-77369500D01*
X101676751Y-77369500D01*
X101608630Y-77349498D01*
X101604157Y-77346276D01*
X101601815Y-77343918D01*
X101590697Y-77336862D01*
X101537063Y-77302825D01*
X101448666Y-77246727D01*
X101419463Y-77236328D01*
X101284425Y-77188243D01*
X101284420Y-77188242D01*
X101277790Y-77185881D01*
X101270802Y-77185048D01*
X101270799Y-77185047D01*
X101147698Y-77170368D01*
X101097680Y-77164404D01*
X101090677Y-77165140D01*
X101090676Y-77165140D01*
X100924288Y-77182628D01*
X100924286Y-77182629D01*
X100917288Y-77183364D01*
X100751104Y-77239937D01*
X100680173Y-77242955D01*
X100618869Y-77207145D01*
X100586657Y-77143876D01*
X100584500Y-77120659D01*
X100584500Y-73696000D01*
X120453835Y-73696000D01*
X120472465Y-73932711D01*
X120527895Y-74163594D01*
X120618760Y-74382963D01*
X120621346Y-74387183D01*
X120740241Y-74581202D01*
X120740245Y-74581208D01*
X120742824Y-74585416D01*
X120897031Y-74765969D01*
X121077584Y-74920176D01*
X121081792Y-74922755D01*
X121081798Y-74922759D01*
X121275817Y-75041654D01*
X121280037Y-75044240D01*
X121284607Y-75046133D01*
X121284611Y-75046135D01*
X121494833Y-75133211D01*
X121499406Y-75135105D01*
X121579609Y-75154360D01*
X121725476Y-75189380D01*
X121725482Y-75189381D01*
X121730289Y-75190535D01*
X121967000Y-75209165D01*
X122203711Y-75190535D01*
X122208518Y-75189381D01*
X122208524Y-75189380D01*
X122354391Y-75154360D01*
X122434594Y-75135105D01*
X122439167Y-75133211D01*
X122649389Y-75046135D01*
X122649393Y-75046133D01*
X122653963Y-75044240D01*
X122658183Y-75041654D01*
X122852202Y-74922759D01*
X122852208Y-74922755D01*
X122856416Y-74920176D01*
X123036969Y-74765969D01*
X123191176Y-74585416D01*
X123193755Y-74581208D01*
X123193759Y-74581202D01*
X123312654Y-74387183D01*
X123315240Y-74382963D01*
X123330641Y-74345782D01*
X123375190Y-74290501D01*
X123447050Y-74268000D01*
X126986950Y-74268000D01*
X127055071Y-74288002D01*
X127103359Y-74345782D01*
X127118760Y-74382963D01*
X127121346Y-74387183D01*
X127240241Y-74581202D01*
X127240245Y-74581208D01*
X127242824Y-74585416D01*
X127397031Y-74765969D01*
X127577584Y-74920176D01*
X127581792Y-74922755D01*
X127581798Y-74922759D01*
X127775817Y-75041654D01*
X127780037Y-75044240D01*
X127784607Y-75046133D01*
X127784611Y-75046135D01*
X127994833Y-75133211D01*
X127999406Y-75135105D01*
X128079609Y-75154360D01*
X128225476Y-75189380D01*
X128225482Y-75189381D01*
X128230289Y-75190535D01*
X128467000Y-75209165D01*
X128703711Y-75190535D01*
X128708518Y-75189381D01*
X128708524Y-75189380D01*
X128854391Y-75154360D01*
X128934594Y-75135105D01*
X128939167Y-75133211D01*
X129149389Y-75046135D01*
X129149393Y-75046133D01*
X129153963Y-75044240D01*
X129158183Y-75041654D01*
X129352202Y-74922759D01*
X129352208Y-74922755D01*
X129356416Y-74920176D01*
X129536969Y-74765969D01*
X129691176Y-74585416D01*
X129693755Y-74581208D01*
X129693759Y-74581202D01*
X129812654Y-74387183D01*
X129815240Y-74382963D01*
X129906105Y-74163594D01*
X129961535Y-73932711D01*
X129980165Y-73696000D01*
X129961535Y-73459289D01*
X129906105Y-73228406D01*
X129815240Y-73009037D01*
X129812654Y-73004817D01*
X129693759Y-72810798D01*
X129693755Y-72810792D01*
X129691176Y-72806584D01*
X129536969Y-72626031D01*
X129356416Y-72471824D01*
X129352208Y-72469245D01*
X129352202Y-72469241D01*
X129158183Y-72350346D01*
X129153963Y-72347760D01*
X129149393Y-72345867D01*
X129149389Y-72345865D01*
X128939167Y-72258789D01*
X128939165Y-72258788D01*
X128934594Y-72256895D01*
X128854391Y-72237640D01*
X128708524Y-72202620D01*
X128708518Y-72202619D01*
X128703711Y-72201465D01*
X128467000Y-72182835D01*
X128230289Y-72201465D01*
X128225482Y-72202619D01*
X128225476Y-72202620D01*
X128079609Y-72237640D01*
X127999406Y-72256895D01*
X127994835Y-72258788D01*
X127994833Y-72258789D01*
X127784611Y-72345865D01*
X127784607Y-72345867D01*
X127780037Y-72347760D01*
X127775817Y-72350346D01*
X127581798Y-72469241D01*
X127581792Y-72469245D01*
X127577584Y-72471824D01*
X127397031Y-72626031D01*
X127242824Y-72806584D01*
X127240245Y-72810792D01*
X127240241Y-72810798D01*
X127121346Y-73004817D01*
X127118760Y-73009037D01*
X127116865Y-73013612D01*
X127103359Y-73046218D01*
X127058810Y-73101499D01*
X126986950Y-73124000D01*
X123447050Y-73124000D01*
X123378929Y-73103998D01*
X123330641Y-73046218D01*
X123317135Y-73013612D01*
X123315240Y-73009037D01*
X123312654Y-73004817D01*
X123193759Y-72810798D01*
X123193755Y-72810792D01*
X123191176Y-72806584D01*
X123036969Y-72626031D01*
X122856416Y-72471824D01*
X122852208Y-72469245D01*
X122852202Y-72469241D01*
X122658183Y-72350346D01*
X122653963Y-72347760D01*
X122649393Y-72345867D01*
X122649389Y-72345865D01*
X122439167Y-72258789D01*
X122439165Y-72258788D01*
X122434594Y-72256895D01*
X122354391Y-72237640D01*
X122208524Y-72202620D01*
X122208518Y-72202619D01*
X122203711Y-72201465D01*
X121967000Y-72182835D01*
X121730289Y-72201465D01*
X121725482Y-72202619D01*
X121725476Y-72202620D01*
X121579609Y-72237640D01*
X121499406Y-72256895D01*
X121494835Y-72258788D01*
X121494833Y-72258789D01*
X121284611Y-72345865D01*
X121284607Y-72345867D01*
X121280037Y-72347760D01*
X121275817Y-72350346D01*
X121081798Y-72469241D01*
X121081792Y-72469245D01*
X121077584Y-72471824D01*
X120897031Y-72626031D01*
X120742824Y-72806584D01*
X120740245Y-72810792D01*
X120740241Y-72810798D01*
X120621346Y-73004817D01*
X120618760Y-73009037D01*
X120527895Y-73228406D01*
X120472465Y-73459289D01*
X120453835Y-73696000D01*
X100584500Y-73696000D01*
X100584500Y-66512000D01*
X108266835Y-66512000D01*
X108285465Y-66748711D01*
X108340895Y-66979594D01*
X108342788Y-66984165D01*
X108342789Y-66984167D01*
X108428496Y-67191082D01*
X108431760Y-67198963D01*
X108434346Y-67203183D01*
X108553241Y-67397202D01*
X108553245Y-67397208D01*
X108555824Y-67401416D01*
X108710031Y-67581969D01*
X108890584Y-67736176D01*
X108894792Y-67738755D01*
X108894798Y-67738759D01*
X109088817Y-67857654D01*
X109093037Y-67860240D01*
X109097607Y-67862133D01*
X109097611Y-67862135D01*
X109307833Y-67949211D01*
X109312406Y-67951105D01*
X109392609Y-67970360D01*
X109538476Y-68005380D01*
X109538482Y-68005381D01*
X109543289Y-68006535D01*
X109780000Y-68025165D01*
X110016711Y-68006535D01*
X110021518Y-68005381D01*
X110021524Y-68005380D01*
X110167391Y-67970360D01*
X110247594Y-67951105D01*
X110252167Y-67949211D01*
X110462389Y-67862135D01*
X110462393Y-67862133D01*
X110466963Y-67860240D01*
X110471183Y-67857654D01*
X110665202Y-67738759D01*
X110665208Y-67738755D01*
X110669416Y-67736176D01*
X110849969Y-67581969D01*
X111004176Y-67401416D01*
X111006755Y-67397208D01*
X111006759Y-67397202D01*
X111125654Y-67203183D01*
X111128240Y-67198963D01*
X111130135Y-67194389D01*
X111132381Y-67189980D01*
X111134390Y-67191004D01*
X111173060Y-67143008D01*
X111244931Y-67120500D01*
X114815069Y-67120500D01*
X114883190Y-67140502D01*
X114925457Y-67191082D01*
X114927619Y-67189980D01*
X114929865Y-67194389D01*
X114931760Y-67198963D01*
X114934346Y-67203183D01*
X115053241Y-67397202D01*
X115053245Y-67397208D01*
X115055824Y-67401416D01*
X115210031Y-67581969D01*
X115390584Y-67736176D01*
X115394792Y-67738755D01*
X115394798Y-67738759D01*
X115588817Y-67857654D01*
X115593037Y-67860240D01*
X115597607Y-67862133D01*
X115597611Y-67862135D01*
X115807833Y-67949211D01*
X115812406Y-67951105D01*
X115892609Y-67970360D01*
X116038476Y-68005380D01*
X116038482Y-68005381D01*
X116043289Y-68006535D01*
X116280000Y-68025165D01*
X116516711Y-68006535D01*
X116521518Y-68005381D01*
X116521524Y-68005380D01*
X116667391Y-67970360D01*
X116747594Y-67951105D01*
X116752167Y-67949211D01*
X116962389Y-67862135D01*
X116962393Y-67862133D01*
X116966963Y-67860240D01*
X116971183Y-67857654D01*
X117165202Y-67738759D01*
X117165208Y-67738755D01*
X117169416Y-67736176D01*
X117349969Y-67581969D01*
X117504176Y-67401416D01*
X117506755Y-67397208D01*
X117506759Y-67397202D01*
X117625654Y-67203183D01*
X117628240Y-67198963D01*
X117631505Y-67191082D01*
X117717211Y-66984167D01*
X117717212Y-66984165D01*
X117719105Y-66979594D01*
X117774535Y-66748711D01*
X117793165Y-66512000D01*
X120453835Y-66512000D01*
X120472465Y-66748711D01*
X120527895Y-66979594D01*
X120529788Y-66984165D01*
X120529789Y-66984167D01*
X120615496Y-67191082D01*
X120618760Y-67198963D01*
X120621346Y-67203183D01*
X120740241Y-67397202D01*
X120740245Y-67397208D01*
X120742824Y-67401416D01*
X120897031Y-67581969D01*
X121077584Y-67736176D01*
X121081792Y-67738755D01*
X121081798Y-67738759D01*
X121275817Y-67857654D01*
X121280037Y-67860240D01*
X121284607Y-67862133D01*
X121284611Y-67862135D01*
X121494833Y-67949211D01*
X121499406Y-67951105D01*
X121579609Y-67970360D01*
X121725476Y-68005380D01*
X121725482Y-68005381D01*
X121730289Y-68006535D01*
X121967000Y-68025165D01*
X122203711Y-68006535D01*
X122208518Y-68005381D01*
X122208524Y-68005380D01*
X122354391Y-67970360D01*
X122434594Y-67951105D01*
X122439167Y-67949211D01*
X122649389Y-67862135D01*
X122649393Y-67862133D01*
X122653963Y-67860240D01*
X122658183Y-67857654D01*
X122852202Y-67738759D01*
X122852208Y-67738755D01*
X122856416Y-67736176D01*
X123036969Y-67581969D01*
X123191176Y-67401416D01*
X123193755Y-67397208D01*
X123193759Y-67397202D01*
X123312654Y-67203183D01*
X123315240Y-67198963D01*
X123317135Y-67194389D01*
X123319381Y-67189980D01*
X123321390Y-67191004D01*
X123360060Y-67143008D01*
X123431931Y-67120500D01*
X127002069Y-67120500D01*
X127070190Y-67140502D01*
X127112457Y-67191082D01*
X127114619Y-67189980D01*
X127116865Y-67194389D01*
X127118760Y-67198963D01*
X127121346Y-67203183D01*
X127240241Y-67397202D01*
X127240245Y-67397208D01*
X127242824Y-67401416D01*
X127397031Y-67581969D01*
X127577584Y-67736176D01*
X127581792Y-67738755D01*
X127581798Y-67738759D01*
X127775817Y-67857654D01*
X127780037Y-67860240D01*
X127784607Y-67862133D01*
X127784611Y-67862135D01*
X127994833Y-67949211D01*
X127999406Y-67951105D01*
X128079609Y-67970360D01*
X128225476Y-68005380D01*
X128225482Y-68005381D01*
X128230289Y-68006535D01*
X128467000Y-68025165D01*
X128703711Y-68006535D01*
X128708518Y-68005381D01*
X128708524Y-68005380D01*
X128854391Y-67970360D01*
X128934594Y-67951105D01*
X128939167Y-67949211D01*
X129149389Y-67862135D01*
X129149393Y-67862133D01*
X129153963Y-67860240D01*
X129158183Y-67857654D01*
X129352202Y-67738759D01*
X129352208Y-67738755D01*
X129356416Y-67736176D01*
X129536969Y-67581969D01*
X129691176Y-67401416D01*
X129748828Y-67307337D01*
X129801475Y-67259707D01*
X129871516Y-67248100D01*
X129925251Y-67267739D01*
X129928620Y-67269943D01*
X129935159Y-67274222D01*
X129941763Y-67276678D01*
X130098558Y-67334990D01*
X130098560Y-67334990D01*
X130105168Y-67337448D01*
X130188995Y-67348633D01*
X130277980Y-67360507D01*
X130277984Y-67360507D01*
X130284961Y-67361438D01*
X130291972Y-67360800D01*
X130291976Y-67360800D01*
X130434459Y-67347832D01*
X130465600Y-67344998D01*
X130472302Y-67342820D01*
X130472304Y-67342820D01*
X130631409Y-67291124D01*
X130631412Y-67291123D01*
X130638108Y-67288947D01*
X130793912Y-67196069D01*
X130799013Y-67191212D01*
X130804626Y-67186951D01*
X130805385Y-67187952D01*
X130862090Y-67158762D01*
X130885860Y-67156500D01*
X131241699Y-67156500D01*
X131310692Y-67177068D01*
X131436978Y-67259707D01*
X131459159Y-67274222D01*
X131465763Y-67276678D01*
X131465765Y-67276679D01*
X131622558Y-67334990D01*
X131622560Y-67334990D01*
X131629168Y-67337448D01*
X131712995Y-67348633D01*
X131801980Y-67360507D01*
X131801984Y-67360507D01*
X131808961Y-67361438D01*
X131815972Y-67360800D01*
X131815976Y-67360800D01*
X131958459Y-67347832D01*
X131989600Y-67344998D01*
X131996302Y-67342820D01*
X131996304Y-67342820D01*
X132155409Y-67291124D01*
X132155412Y-67291123D01*
X132162108Y-67288947D01*
X132258513Y-67231478D01*
X132311860Y-67199677D01*
X132311862Y-67199676D01*
X132317912Y-67196069D01*
X132449266Y-67070982D01*
X132508421Y-66981946D01*
X132562778Y-66936276D01*
X132633198Y-66927243D01*
X132697322Y-66957716D01*
X132729778Y-67003455D01*
X132807549Y-67191211D01*
X132810760Y-67198963D01*
X132813346Y-67203183D01*
X132932241Y-67397202D01*
X132932245Y-67397208D01*
X132934824Y-67401416D01*
X133089031Y-67581969D01*
X133269584Y-67736176D01*
X133273792Y-67738755D01*
X133273798Y-67738759D01*
X133467817Y-67857654D01*
X133472037Y-67860240D01*
X133476607Y-67862133D01*
X133476611Y-67862135D01*
X133686833Y-67949211D01*
X133691406Y-67951105D01*
X133771609Y-67970360D01*
X133917476Y-68005380D01*
X133917482Y-68005381D01*
X133922289Y-68006535D01*
X134159000Y-68025165D01*
X134395711Y-68006535D01*
X134400518Y-68005381D01*
X134400524Y-68005380D01*
X134546391Y-67970360D01*
X134626594Y-67951105D01*
X134631167Y-67949211D01*
X134841389Y-67862135D01*
X134841393Y-67862133D01*
X134845963Y-67860240D01*
X134850183Y-67857654D01*
X135044202Y-67738759D01*
X135044208Y-67738755D01*
X135048416Y-67736176D01*
X135228969Y-67581969D01*
X135383176Y-67401416D01*
X135385755Y-67397208D01*
X135385759Y-67397202D01*
X135504654Y-67203183D01*
X135507240Y-67198963D01*
X135509135Y-67194389D01*
X135511381Y-67189980D01*
X135513390Y-67191004D01*
X135552060Y-67143008D01*
X135623931Y-67120500D01*
X139194069Y-67120500D01*
X139262190Y-67140502D01*
X139304457Y-67191082D01*
X139306619Y-67189980D01*
X139308865Y-67194389D01*
X139310760Y-67198963D01*
X139313346Y-67203183D01*
X139432241Y-67397202D01*
X139432245Y-67397208D01*
X139434824Y-67401416D01*
X139589031Y-67581969D01*
X139769584Y-67736176D01*
X139773792Y-67738755D01*
X139773798Y-67738759D01*
X139967817Y-67857654D01*
X139972037Y-67860240D01*
X139976607Y-67862133D01*
X139976611Y-67862135D01*
X140186833Y-67949211D01*
X140191406Y-67951105D01*
X140271609Y-67970360D01*
X140417476Y-68005380D01*
X140417482Y-68005381D01*
X140422289Y-68006535D01*
X140659000Y-68025165D01*
X140895711Y-68006535D01*
X140900518Y-68005381D01*
X140900524Y-68005380D01*
X141046391Y-67970360D01*
X141126594Y-67951105D01*
X141131167Y-67949211D01*
X141341389Y-67862135D01*
X141341393Y-67862133D01*
X141345963Y-67860240D01*
X141350183Y-67857654D01*
X141544202Y-67738759D01*
X141544208Y-67738755D01*
X141548416Y-67736176D01*
X141728969Y-67581969D01*
X141883176Y-67401416D01*
X141885755Y-67397208D01*
X141885759Y-67397202D01*
X142004654Y-67203183D01*
X142007240Y-67198963D01*
X142010505Y-67191082D01*
X142096211Y-66984167D01*
X142096212Y-66984165D01*
X142098105Y-66979594D01*
X142153535Y-66748711D01*
X142172165Y-66512000D01*
X142153535Y-66275289D01*
X142098105Y-66044406D01*
X142046367Y-65919498D01*
X142009135Y-65829611D01*
X142009133Y-65829607D01*
X142007240Y-65825037D01*
X141997580Y-65809274D01*
X141885759Y-65626798D01*
X141885755Y-65626792D01*
X141883176Y-65622584D01*
X141728969Y-65442031D01*
X141548416Y-65287824D01*
X141544208Y-65285245D01*
X141544202Y-65285241D01*
X141350183Y-65166346D01*
X141345963Y-65163760D01*
X141341393Y-65161867D01*
X141341389Y-65161865D01*
X141131167Y-65074789D01*
X141131165Y-65074788D01*
X141126594Y-65072895D01*
X141046391Y-65053640D01*
X140900524Y-65018620D01*
X140900518Y-65018619D01*
X140895711Y-65017465D01*
X140659000Y-64998835D01*
X140422289Y-65017465D01*
X140417482Y-65018619D01*
X140417476Y-65018620D01*
X140271609Y-65053640D01*
X140191406Y-65072895D01*
X140186835Y-65074788D01*
X140186833Y-65074789D01*
X139976611Y-65161865D01*
X139976607Y-65161867D01*
X139972037Y-65163760D01*
X139967817Y-65166346D01*
X139773798Y-65285241D01*
X139773792Y-65285245D01*
X139769584Y-65287824D01*
X139589031Y-65442031D01*
X139434824Y-65622584D01*
X139432245Y-65626792D01*
X139432241Y-65626798D01*
X139320420Y-65809274D01*
X139310760Y-65825037D01*
X139308865Y-65829611D01*
X139306619Y-65834020D01*
X139304610Y-65832996D01*
X139265940Y-65880992D01*
X139194069Y-65903500D01*
X135623931Y-65903500D01*
X135555810Y-65883498D01*
X135513543Y-65832918D01*
X135511381Y-65834020D01*
X135509135Y-65829611D01*
X135507240Y-65825037D01*
X135497580Y-65809274D01*
X135385759Y-65626798D01*
X135385755Y-65626792D01*
X135383176Y-65622584D01*
X135228969Y-65442031D01*
X135048416Y-65287824D01*
X135044208Y-65285245D01*
X135044202Y-65285241D01*
X134850183Y-65166346D01*
X134845963Y-65163760D01*
X134841393Y-65161867D01*
X134841389Y-65161865D01*
X134631167Y-65074789D01*
X134631165Y-65074788D01*
X134626594Y-65072895D01*
X134546391Y-65053640D01*
X134400524Y-65018620D01*
X134400518Y-65018619D01*
X134395711Y-65017465D01*
X134159000Y-64998835D01*
X133922289Y-65017465D01*
X133917482Y-65018619D01*
X133917476Y-65018620D01*
X133771609Y-65053640D01*
X133691406Y-65072895D01*
X133686835Y-65074788D01*
X133686833Y-65074789D01*
X133476611Y-65161865D01*
X133476607Y-65161867D01*
X133472037Y-65163760D01*
X133467817Y-65166346D01*
X133273798Y-65285241D01*
X133273792Y-65285245D01*
X133269584Y-65287824D01*
X133089031Y-65442031D01*
X132934824Y-65622584D01*
X132932245Y-65626792D01*
X132932241Y-65626798D01*
X132820420Y-65809274D01*
X132810760Y-65825037D01*
X132808867Y-65829607D01*
X132808865Y-65829611D01*
X132771633Y-65919498D01*
X132719895Y-66044406D01*
X132718740Y-66049217D01*
X132717209Y-66053929D01*
X132715655Y-66053424D01*
X132683881Y-66108783D01*
X132620860Y-66141476D01*
X132550168Y-66134907D01*
X132494249Y-66091162D01*
X132489845Y-66084584D01*
X132463626Y-66042624D01*
X132458664Y-66037627D01*
X132340778Y-65918915D01*
X132340774Y-65918912D01*
X132335815Y-65913918D01*
X132324697Y-65906862D01*
X132209915Y-65834020D01*
X132182666Y-65816727D01*
X132153463Y-65806328D01*
X132018425Y-65758243D01*
X132018420Y-65758242D01*
X132011790Y-65755881D01*
X132004802Y-65755048D01*
X132004799Y-65755047D01*
X131881698Y-65740368D01*
X131831680Y-65734404D01*
X131824677Y-65735140D01*
X131824676Y-65735140D01*
X131658288Y-65752628D01*
X131658286Y-65752629D01*
X131651288Y-65753364D01*
X131479579Y-65811818D01*
X131325088Y-65906862D01*
X131320054Y-65911791D01*
X131318776Y-65912790D01*
X131252782Y-65938967D01*
X131241204Y-65939500D01*
X130886751Y-65939500D01*
X130818630Y-65919498D01*
X130814157Y-65916276D01*
X130811815Y-65913918D01*
X130800697Y-65906862D01*
X130685915Y-65834020D01*
X130658666Y-65816727D01*
X130629463Y-65806328D01*
X130494425Y-65758243D01*
X130494420Y-65758242D01*
X130487790Y-65755881D01*
X130480802Y-65755048D01*
X130480799Y-65755047D01*
X130357698Y-65740368D01*
X130307680Y-65734404D01*
X130300677Y-65735140D01*
X130300676Y-65735140D01*
X130134288Y-65752628D01*
X130134286Y-65752629D01*
X130127288Y-65753364D01*
X130076904Y-65770516D01*
X129962249Y-65809547D01*
X129962246Y-65809548D01*
X129955579Y-65811818D01*
X129949578Y-65815510D01*
X129943205Y-65818509D01*
X129941868Y-65815667D01*
X129886705Y-65830655D01*
X129819004Y-65809274D01*
X129781831Y-65770516D01*
X129693765Y-65626807D01*
X129693758Y-65626797D01*
X129691176Y-65622584D01*
X129536969Y-65442031D01*
X129356416Y-65287824D01*
X129352208Y-65285245D01*
X129352202Y-65285241D01*
X129158183Y-65166346D01*
X129153963Y-65163760D01*
X129149393Y-65161867D01*
X129149389Y-65161865D01*
X128939167Y-65074789D01*
X128939165Y-65074788D01*
X128934594Y-65072895D01*
X128854391Y-65053640D01*
X128708524Y-65018620D01*
X128708518Y-65018619D01*
X128703711Y-65017465D01*
X128467000Y-64998835D01*
X128230289Y-65017465D01*
X128225482Y-65018619D01*
X128225476Y-65018620D01*
X128079609Y-65053640D01*
X127999406Y-65072895D01*
X127994835Y-65074788D01*
X127994833Y-65074789D01*
X127784611Y-65161865D01*
X127784607Y-65161867D01*
X127780037Y-65163760D01*
X127775817Y-65166346D01*
X127581798Y-65285241D01*
X127581792Y-65285245D01*
X127577584Y-65287824D01*
X127397031Y-65442031D01*
X127242824Y-65622584D01*
X127240245Y-65626792D01*
X127240241Y-65626798D01*
X127128420Y-65809274D01*
X127118760Y-65825037D01*
X127116865Y-65829611D01*
X127114619Y-65834020D01*
X127112610Y-65832996D01*
X127073940Y-65880992D01*
X127002069Y-65903500D01*
X123431931Y-65903500D01*
X123363810Y-65883498D01*
X123321543Y-65832918D01*
X123319381Y-65834020D01*
X123317135Y-65829611D01*
X123315240Y-65825037D01*
X123305580Y-65809274D01*
X123193759Y-65626798D01*
X123193755Y-65626792D01*
X123191176Y-65622584D01*
X123036969Y-65442031D01*
X122856416Y-65287824D01*
X122852208Y-65285245D01*
X122852202Y-65285241D01*
X122658183Y-65166346D01*
X122653963Y-65163760D01*
X122649393Y-65161867D01*
X122649389Y-65161865D01*
X122439167Y-65074789D01*
X122439165Y-65074788D01*
X122434594Y-65072895D01*
X122354391Y-65053640D01*
X122208524Y-65018620D01*
X122208518Y-65018619D01*
X122203711Y-65017465D01*
X121967000Y-64998835D01*
X121730289Y-65017465D01*
X121725482Y-65018619D01*
X121725476Y-65018620D01*
X121579609Y-65053640D01*
X121499406Y-65072895D01*
X121494835Y-65074788D01*
X121494833Y-65074789D01*
X121284611Y-65161865D01*
X121284607Y-65161867D01*
X121280037Y-65163760D01*
X121275817Y-65166346D01*
X121081798Y-65285241D01*
X121081792Y-65285245D01*
X121077584Y-65287824D01*
X120897031Y-65442031D01*
X120742824Y-65622584D01*
X120740245Y-65626792D01*
X120740241Y-65626798D01*
X120628420Y-65809274D01*
X120618760Y-65825037D01*
X120616867Y-65829607D01*
X120616865Y-65829611D01*
X120579633Y-65919498D01*
X120527895Y-66044406D01*
X120472465Y-66275289D01*
X120453835Y-66512000D01*
X117793165Y-66512000D01*
X117774535Y-66275289D01*
X117719105Y-66044406D01*
X117667367Y-65919498D01*
X117630135Y-65829611D01*
X117630133Y-65829607D01*
X117628240Y-65825037D01*
X117618580Y-65809274D01*
X117506759Y-65626798D01*
X117506755Y-65626792D01*
X117504176Y-65622584D01*
X117349969Y-65442031D01*
X117169416Y-65287824D01*
X117165208Y-65285245D01*
X117165202Y-65285241D01*
X116971183Y-65166346D01*
X116966963Y-65163760D01*
X116962393Y-65161867D01*
X116962389Y-65161865D01*
X116752167Y-65074789D01*
X116752165Y-65074788D01*
X116747594Y-65072895D01*
X116667391Y-65053640D01*
X116521524Y-65018620D01*
X116521518Y-65018619D01*
X116516711Y-65017465D01*
X116280000Y-64998835D01*
X116043289Y-65017465D01*
X116038482Y-65018619D01*
X116038476Y-65018620D01*
X115892609Y-65053640D01*
X115812406Y-65072895D01*
X115807835Y-65074788D01*
X115807833Y-65074789D01*
X115597611Y-65161865D01*
X115597607Y-65161867D01*
X115593037Y-65163760D01*
X115588817Y-65166346D01*
X115394798Y-65285241D01*
X115394792Y-65285245D01*
X115390584Y-65287824D01*
X115210031Y-65442031D01*
X115055824Y-65622584D01*
X115053245Y-65626792D01*
X115053241Y-65626798D01*
X114941420Y-65809274D01*
X114931760Y-65825037D01*
X114929865Y-65829611D01*
X114927619Y-65834020D01*
X114925610Y-65832996D01*
X114886940Y-65880992D01*
X114815069Y-65903500D01*
X111244931Y-65903500D01*
X111176810Y-65883498D01*
X111134543Y-65832918D01*
X111132381Y-65834020D01*
X111130135Y-65829611D01*
X111128240Y-65825037D01*
X111118580Y-65809274D01*
X111006759Y-65626798D01*
X111006755Y-65626792D01*
X111004176Y-65622584D01*
X110849969Y-65442031D01*
X110669416Y-65287824D01*
X110665208Y-65285245D01*
X110665202Y-65285241D01*
X110471183Y-65166346D01*
X110466963Y-65163760D01*
X110462393Y-65161867D01*
X110462389Y-65161865D01*
X110252167Y-65074789D01*
X110252165Y-65074788D01*
X110247594Y-65072895D01*
X110167391Y-65053640D01*
X110021524Y-65018620D01*
X110021518Y-65018619D01*
X110016711Y-65017465D01*
X109780000Y-64998835D01*
X109543289Y-65017465D01*
X109538482Y-65018619D01*
X109538476Y-65018620D01*
X109392609Y-65053640D01*
X109312406Y-65072895D01*
X109307835Y-65074788D01*
X109307833Y-65074789D01*
X109097611Y-65161865D01*
X109097607Y-65161867D01*
X109093037Y-65163760D01*
X109088817Y-65166346D01*
X108894798Y-65285241D01*
X108894792Y-65285245D01*
X108890584Y-65287824D01*
X108710031Y-65442031D01*
X108555824Y-65622584D01*
X108553245Y-65626792D01*
X108553241Y-65626798D01*
X108441420Y-65809274D01*
X108431760Y-65825037D01*
X108429867Y-65829607D01*
X108429865Y-65829611D01*
X108392633Y-65919498D01*
X108340895Y-66044406D01*
X108285465Y-66275289D01*
X108266835Y-66512000D01*
X100584500Y-66512000D01*
X100584500Y-62012000D01*
X108266835Y-62012000D01*
X108285465Y-62248711D01*
X108340895Y-62479594D01*
X108431760Y-62698963D01*
X108434346Y-62703183D01*
X108553241Y-62897202D01*
X108553245Y-62897208D01*
X108555824Y-62901416D01*
X108710031Y-63081969D01*
X108890584Y-63236176D01*
X108894792Y-63238755D01*
X108894798Y-63238759D01*
X109088817Y-63357654D01*
X109093037Y-63360240D01*
X109097607Y-63362133D01*
X109097611Y-63362135D01*
X109307833Y-63449211D01*
X109312406Y-63451105D01*
X109392609Y-63470360D01*
X109538476Y-63505380D01*
X109538482Y-63505381D01*
X109543289Y-63506535D01*
X109780000Y-63525165D01*
X110016711Y-63506535D01*
X110021518Y-63505381D01*
X110021524Y-63505380D01*
X110167391Y-63470360D01*
X110247594Y-63451105D01*
X110252167Y-63449211D01*
X110462389Y-63362135D01*
X110462393Y-63362133D01*
X110466963Y-63360240D01*
X110471183Y-63357654D01*
X110665202Y-63238759D01*
X110665208Y-63238755D01*
X110669416Y-63236176D01*
X110849969Y-63081969D01*
X111004176Y-62901416D01*
X111006755Y-62897208D01*
X111006759Y-62897202D01*
X111125654Y-62703183D01*
X111128240Y-62698963D01*
X111143641Y-62661782D01*
X111188190Y-62606501D01*
X111260050Y-62584000D01*
X114799950Y-62584000D01*
X114868071Y-62604002D01*
X114916359Y-62661782D01*
X114931760Y-62698963D01*
X114934346Y-62703183D01*
X115053241Y-62897202D01*
X115053245Y-62897208D01*
X115055824Y-62901416D01*
X115210031Y-63081969D01*
X115390584Y-63236176D01*
X115394792Y-63238755D01*
X115394798Y-63238759D01*
X115588817Y-63357654D01*
X115593037Y-63360240D01*
X115597607Y-63362133D01*
X115597611Y-63362135D01*
X115807833Y-63449211D01*
X115812406Y-63451105D01*
X115892609Y-63470360D01*
X116038476Y-63505380D01*
X116038482Y-63505381D01*
X116043289Y-63506535D01*
X116280000Y-63525165D01*
X116516711Y-63506535D01*
X116521518Y-63505381D01*
X116521524Y-63505380D01*
X116667391Y-63470360D01*
X116747594Y-63451105D01*
X116752167Y-63449211D01*
X116962389Y-63362135D01*
X116962393Y-63362133D01*
X116966963Y-63360240D01*
X116971183Y-63357654D01*
X117165202Y-63238759D01*
X117165208Y-63238755D01*
X117169416Y-63236176D01*
X117349969Y-63081969D01*
X117504176Y-62901416D01*
X117506755Y-62897208D01*
X117506759Y-62897202D01*
X117625654Y-62703183D01*
X117628240Y-62698963D01*
X117719105Y-62479594D01*
X117774535Y-62248711D01*
X117793165Y-62012000D01*
X120453835Y-62012000D01*
X120472465Y-62248711D01*
X120527895Y-62479594D01*
X120618760Y-62698963D01*
X120621346Y-62703183D01*
X120740241Y-62897202D01*
X120740245Y-62897208D01*
X120742824Y-62901416D01*
X120897031Y-63081969D01*
X121077584Y-63236176D01*
X121081792Y-63238755D01*
X121081798Y-63238759D01*
X121275817Y-63357654D01*
X121280037Y-63360240D01*
X121284607Y-63362133D01*
X121284611Y-63362135D01*
X121494833Y-63449211D01*
X121499406Y-63451105D01*
X121579609Y-63470360D01*
X121725476Y-63505380D01*
X121725482Y-63505381D01*
X121730289Y-63506535D01*
X121967000Y-63525165D01*
X122203711Y-63506535D01*
X122208518Y-63505381D01*
X122208524Y-63505380D01*
X122354391Y-63470360D01*
X122434594Y-63451105D01*
X122439167Y-63449211D01*
X122649389Y-63362135D01*
X122649393Y-63362133D01*
X122653963Y-63360240D01*
X122658183Y-63357654D01*
X122852202Y-63238759D01*
X122852208Y-63238755D01*
X122856416Y-63236176D01*
X123036969Y-63081969D01*
X123191176Y-62901416D01*
X123193755Y-62897208D01*
X123193759Y-62897202D01*
X123312654Y-62703183D01*
X123315240Y-62698963D01*
X123330641Y-62661782D01*
X123375190Y-62606501D01*
X123447050Y-62584000D01*
X126986950Y-62584000D01*
X127055071Y-62604002D01*
X127103359Y-62661782D01*
X127118760Y-62698963D01*
X127121346Y-62703183D01*
X127240241Y-62897202D01*
X127240245Y-62897208D01*
X127242824Y-62901416D01*
X127397031Y-63081969D01*
X127577584Y-63236176D01*
X127581792Y-63238755D01*
X127581798Y-63238759D01*
X127775817Y-63357654D01*
X127780037Y-63360240D01*
X127784607Y-63362133D01*
X127784611Y-63362135D01*
X127994833Y-63449211D01*
X127999406Y-63451105D01*
X128079609Y-63470360D01*
X128225476Y-63505380D01*
X128225482Y-63505381D01*
X128230289Y-63506535D01*
X128467000Y-63525165D01*
X128703711Y-63506535D01*
X128708518Y-63505381D01*
X128708524Y-63505380D01*
X128854391Y-63470360D01*
X128934594Y-63451105D01*
X128939167Y-63449211D01*
X129149389Y-63362135D01*
X129149393Y-63362133D01*
X129153963Y-63360240D01*
X129158183Y-63357654D01*
X129352202Y-63238759D01*
X129352208Y-63238755D01*
X129356416Y-63236176D01*
X129536969Y-63081969D01*
X129691176Y-62901416D01*
X129693755Y-62897208D01*
X129693759Y-62897202D01*
X129812654Y-62703183D01*
X129815240Y-62698963D01*
X129906105Y-62479594D01*
X129961535Y-62248711D01*
X129980165Y-62012000D01*
X132645835Y-62012000D01*
X132664465Y-62248711D01*
X132719895Y-62479594D01*
X132810760Y-62698963D01*
X132813346Y-62703183D01*
X132932241Y-62897202D01*
X132932245Y-62897208D01*
X132934824Y-62901416D01*
X133089031Y-63081969D01*
X133269584Y-63236176D01*
X133273792Y-63238755D01*
X133273798Y-63238759D01*
X133467817Y-63357654D01*
X133472037Y-63360240D01*
X133476607Y-63362133D01*
X133476611Y-63362135D01*
X133686833Y-63449211D01*
X133691406Y-63451105D01*
X133771609Y-63470360D01*
X133917476Y-63505380D01*
X133917482Y-63505381D01*
X133922289Y-63506535D01*
X134159000Y-63525165D01*
X134395711Y-63506535D01*
X134400518Y-63505381D01*
X134400524Y-63505380D01*
X134546391Y-63470360D01*
X134626594Y-63451105D01*
X134631167Y-63449211D01*
X134841389Y-63362135D01*
X134841393Y-63362133D01*
X134845963Y-63360240D01*
X134850183Y-63357654D01*
X135044202Y-63238759D01*
X135044208Y-63238755D01*
X135048416Y-63236176D01*
X135228969Y-63081969D01*
X135383176Y-62901416D01*
X135385755Y-62897208D01*
X135385759Y-62897202D01*
X135504654Y-62703183D01*
X135507240Y-62698963D01*
X135522641Y-62661782D01*
X135567190Y-62606501D01*
X135639050Y-62584000D01*
X139178950Y-62584000D01*
X139247071Y-62604002D01*
X139295359Y-62661782D01*
X139310760Y-62698963D01*
X139313346Y-62703183D01*
X139432241Y-62897202D01*
X139432245Y-62897208D01*
X139434824Y-62901416D01*
X139589031Y-63081969D01*
X139769584Y-63236176D01*
X139773792Y-63238755D01*
X139773798Y-63238759D01*
X139967817Y-63357654D01*
X139972037Y-63360240D01*
X139976607Y-63362133D01*
X139976611Y-63362135D01*
X140186833Y-63449211D01*
X140191406Y-63451105D01*
X140271609Y-63470360D01*
X140417476Y-63505380D01*
X140417482Y-63505381D01*
X140422289Y-63506535D01*
X140659000Y-63525165D01*
X140895711Y-63506535D01*
X140900518Y-63505381D01*
X140900524Y-63505380D01*
X141046391Y-63470360D01*
X141126594Y-63451105D01*
X141131167Y-63449211D01*
X141341389Y-63362135D01*
X141341393Y-63362133D01*
X141345963Y-63360240D01*
X141350183Y-63357654D01*
X141544202Y-63238759D01*
X141544208Y-63238755D01*
X141548416Y-63236176D01*
X141728969Y-63081969D01*
X141883176Y-62901416D01*
X141885755Y-62897208D01*
X141885759Y-62897202D01*
X142004654Y-62703183D01*
X142007240Y-62698963D01*
X142098105Y-62479594D01*
X142153535Y-62248711D01*
X142172165Y-62012000D01*
X142153535Y-61775289D01*
X142098105Y-61544406D01*
X142007240Y-61325037D01*
X142004654Y-61320817D01*
X141885759Y-61126798D01*
X141885755Y-61126792D01*
X141883176Y-61122584D01*
X141728969Y-60942031D01*
X141548416Y-60787824D01*
X141544208Y-60785245D01*
X141544202Y-60785241D01*
X141350183Y-60666346D01*
X141345963Y-60663760D01*
X141341393Y-60661867D01*
X141341389Y-60661865D01*
X141131167Y-60574789D01*
X141131165Y-60574788D01*
X141126594Y-60572895D01*
X141046391Y-60553640D01*
X140900524Y-60518620D01*
X140900518Y-60518619D01*
X140895711Y-60517465D01*
X140659000Y-60498835D01*
X140422289Y-60517465D01*
X140417482Y-60518619D01*
X140417476Y-60518620D01*
X140271609Y-60553640D01*
X140191406Y-60572895D01*
X140186835Y-60574788D01*
X140186833Y-60574789D01*
X139976611Y-60661865D01*
X139976607Y-60661867D01*
X139972037Y-60663760D01*
X139967817Y-60666346D01*
X139773798Y-60785241D01*
X139773792Y-60785245D01*
X139769584Y-60787824D01*
X139589031Y-60942031D01*
X139434824Y-61122584D01*
X139432245Y-61126792D01*
X139432241Y-61126798D01*
X139313346Y-61320817D01*
X139310760Y-61325037D01*
X139308865Y-61329612D01*
X139295359Y-61362218D01*
X139250810Y-61417499D01*
X139178950Y-61440000D01*
X135639050Y-61440000D01*
X135570929Y-61419998D01*
X135522641Y-61362218D01*
X135509135Y-61329612D01*
X135507240Y-61325037D01*
X135504654Y-61320817D01*
X135385759Y-61126798D01*
X135385755Y-61126792D01*
X135383176Y-61122584D01*
X135228969Y-60942031D01*
X135048416Y-60787824D01*
X135044208Y-60785245D01*
X135044202Y-60785241D01*
X134850183Y-60666346D01*
X134845963Y-60663760D01*
X134841393Y-60661867D01*
X134841389Y-60661865D01*
X134631167Y-60574789D01*
X134631165Y-60574788D01*
X134626594Y-60572895D01*
X134546391Y-60553640D01*
X134400524Y-60518620D01*
X134400518Y-60518619D01*
X134395711Y-60517465D01*
X134159000Y-60498835D01*
X133922289Y-60517465D01*
X133917482Y-60518619D01*
X133917476Y-60518620D01*
X133771609Y-60553640D01*
X133691406Y-60572895D01*
X133686835Y-60574788D01*
X133686833Y-60574789D01*
X133476611Y-60661865D01*
X133476607Y-60661867D01*
X133472037Y-60663760D01*
X133467817Y-60666346D01*
X133273798Y-60785241D01*
X133273792Y-60785245D01*
X133269584Y-60787824D01*
X133089031Y-60942031D01*
X132934824Y-61122584D01*
X132932245Y-61126792D01*
X132932241Y-61126798D01*
X132813346Y-61320817D01*
X132810760Y-61325037D01*
X132719895Y-61544406D01*
X132664465Y-61775289D01*
X132645835Y-62012000D01*
X129980165Y-62012000D01*
X129961535Y-61775289D01*
X129906105Y-61544406D01*
X129815240Y-61325037D01*
X129812654Y-61320817D01*
X129693759Y-61126798D01*
X129693755Y-61126792D01*
X129691176Y-61122584D01*
X129536969Y-60942031D01*
X129356416Y-60787824D01*
X129352208Y-60785245D01*
X129352202Y-60785241D01*
X129158183Y-60666346D01*
X129153963Y-60663760D01*
X129149393Y-60661867D01*
X129149389Y-60661865D01*
X128939167Y-60574789D01*
X128939165Y-60574788D01*
X128934594Y-60572895D01*
X128854391Y-60553640D01*
X128708524Y-60518620D01*
X128708518Y-60518619D01*
X128703711Y-60517465D01*
X128467000Y-60498835D01*
X128230289Y-60517465D01*
X128225482Y-60518619D01*
X128225476Y-60518620D01*
X128079609Y-60553640D01*
X127999406Y-60572895D01*
X127994835Y-60574788D01*
X127994833Y-60574789D01*
X127784611Y-60661865D01*
X127784607Y-60661867D01*
X127780037Y-60663760D01*
X127775817Y-60666346D01*
X127581798Y-60785241D01*
X127581792Y-60785245D01*
X127577584Y-60787824D01*
X127397031Y-60942031D01*
X127242824Y-61122584D01*
X127240245Y-61126792D01*
X127240241Y-61126798D01*
X127121346Y-61320817D01*
X127118760Y-61325037D01*
X127116865Y-61329612D01*
X127103359Y-61362218D01*
X127058810Y-61417499D01*
X126986950Y-61440000D01*
X123447050Y-61440000D01*
X123378929Y-61419998D01*
X123330641Y-61362218D01*
X123317135Y-61329612D01*
X123315240Y-61325037D01*
X123312654Y-61320817D01*
X123193759Y-61126798D01*
X123193755Y-61126792D01*
X123191176Y-61122584D01*
X123036969Y-60942031D01*
X122856416Y-60787824D01*
X122852208Y-60785245D01*
X122852202Y-60785241D01*
X122658183Y-60666346D01*
X122653963Y-60663760D01*
X122649393Y-60661867D01*
X122649389Y-60661865D01*
X122439167Y-60574789D01*
X122439165Y-60574788D01*
X122434594Y-60572895D01*
X122354391Y-60553640D01*
X122208524Y-60518620D01*
X122208518Y-60518619D01*
X122203711Y-60517465D01*
X121967000Y-60498835D01*
X121730289Y-60517465D01*
X121725482Y-60518619D01*
X121725476Y-60518620D01*
X121579609Y-60553640D01*
X121499406Y-60572895D01*
X121494835Y-60574788D01*
X121494833Y-60574789D01*
X121284611Y-60661865D01*
X121284607Y-60661867D01*
X121280037Y-60663760D01*
X121275817Y-60666346D01*
X121081798Y-60785241D01*
X121081792Y-60785245D01*
X121077584Y-60787824D01*
X120897031Y-60942031D01*
X120742824Y-61122584D01*
X120740245Y-61126792D01*
X120740241Y-61126798D01*
X120621346Y-61320817D01*
X120618760Y-61325037D01*
X120527895Y-61544406D01*
X120472465Y-61775289D01*
X120453835Y-62012000D01*
X117793165Y-62012000D01*
X117774535Y-61775289D01*
X117719105Y-61544406D01*
X117628240Y-61325037D01*
X117625654Y-61320817D01*
X117506759Y-61126798D01*
X117506755Y-61126792D01*
X117504176Y-61122584D01*
X117349969Y-60942031D01*
X117169416Y-60787824D01*
X117165208Y-60785245D01*
X117165202Y-60785241D01*
X116971183Y-60666346D01*
X116966963Y-60663760D01*
X116962393Y-60661867D01*
X116962389Y-60661865D01*
X116752167Y-60574789D01*
X116752165Y-60574788D01*
X116747594Y-60572895D01*
X116667391Y-60553640D01*
X116521524Y-60518620D01*
X116521518Y-60518619D01*
X116516711Y-60517465D01*
X116280000Y-60498835D01*
X116043289Y-60517465D01*
X116038482Y-60518619D01*
X116038476Y-60518620D01*
X115892609Y-60553640D01*
X115812406Y-60572895D01*
X115807835Y-60574788D01*
X115807833Y-60574789D01*
X115597611Y-60661865D01*
X115597607Y-60661867D01*
X115593037Y-60663760D01*
X115588817Y-60666346D01*
X115394798Y-60785241D01*
X115394792Y-60785245D01*
X115390584Y-60787824D01*
X115210031Y-60942031D01*
X115055824Y-61122584D01*
X115053245Y-61126792D01*
X115053241Y-61126798D01*
X114934346Y-61320817D01*
X114931760Y-61325037D01*
X114929865Y-61329612D01*
X114916359Y-61362218D01*
X114871810Y-61417499D01*
X114799950Y-61440000D01*
X111260050Y-61440000D01*
X111191929Y-61419998D01*
X111143641Y-61362218D01*
X111130135Y-61329612D01*
X111128240Y-61325037D01*
X111125654Y-61320817D01*
X111006759Y-61126798D01*
X111006755Y-61126792D01*
X111004176Y-61122584D01*
X110849969Y-60942031D01*
X110669416Y-60787824D01*
X110665208Y-60785245D01*
X110665202Y-60785241D01*
X110471183Y-60666346D01*
X110466963Y-60663760D01*
X110462393Y-60661867D01*
X110462389Y-60661865D01*
X110252167Y-60574789D01*
X110252165Y-60574788D01*
X110247594Y-60572895D01*
X110167391Y-60553640D01*
X110021524Y-60518620D01*
X110021518Y-60518619D01*
X110016711Y-60517465D01*
X109780000Y-60498835D01*
X109543289Y-60517465D01*
X109538482Y-60518619D01*
X109538476Y-60518620D01*
X109392609Y-60553640D01*
X109312406Y-60572895D01*
X109307835Y-60574788D01*
X109307833Y-60574789D01*
X109097611Y-60661865D01*
X109097607Y-60661867D01*
X109093037Y-60663760D01*
X109088817Y-60666346D01*
X108894798Y-60785241D01*
X108894792Y-60785245D01*
X108890584Y-60787824D01*
X108710031Y-60942031D01*
X108555824Y-61122584D01*
X108553245Y-61126792D01*
X108553241Y-61126798D01*
X108434346Y-61320817D01*
X108431760Y-61325037D01*
X108340895Y-61544406D01*
X108285465Y-61775289D01*
X108266835Y-62012000D01*
X100584500Y-62012000D01*
X100584500Y-57342502D01*
X143274500Y-57342502D01*
X143274693Y-57344950D01*
X143274693Y-57344958D01*
X143275048Y-57349459D01*
X143277438Y-57379831D01*
X143280631Y-57390820D01*
X143320419Y-57527773D01*
X143323855Y-57539601D01*
X143327892Y-57546427D01*
X143404509Y-57675980D01*
X143404511Y-57675983D01*
X143408547Y-57682807D01*
X143526193Y-57800453D01*
X143533017Y-57804489D01*
X143533020Y-57804491D01*
X143583763Y-57834500D01*
X143669399Y-57885145D01*
X143677010Y-57887356D01*
X143677012Y-57887357D01*
X143696863Y-57893124D01*
X143829169Y-57931562D01*
X143835574Y-57932066D01*
X143835579Y-57932067D01*
X143864042Y-57934307D01*
X143864050Y-57934307D01*
X143866498Y-57934500D01*
X145249502Y-57934500D01*
X145251950Y-57934307D01*
X145251958Y-57934307D01*
X145280421Y-57932067D01*
X145280426Y-57932066D01*
X145286831Y-57931562D01*
X145419137Y-57893124D01*
X145438988Y-57887357D01*
X145438990Y-57887356D01*
X145446601Y-57885145D01*
X145502569Y-57852045D01*
X145566706Y-57834500D01*
X145581839Y-57834500D01*
X145650830Y-57855066D01*
X145683159Y-57876222D01*
X145689763Y-57878678D01*
X145689765Y-57878679D01*
X145846558Y-57936990D01*
X145846560Y-57936990D01*
X145853168Y-57939448D01*
X145936995Y-57950633D01*
X146025980Y-57962507D01*
X146025984Y-57962507D01*
X146032961Y-57963438D01*
X146039972Y-57962800D01*
X146039976Y-57962800D01*
X146182459Y-57949832D01*
X146213600Y-57946998D01*
X146220302Y-57944820D01*
X146220304Y-57944820D01*
X146379409Y-57893124D01*
X146379412Y-57893123D01*
X146386108Y-57890947D01*
X146541912Y-57798069D01*
X146673266Y-57672982D01*
X146773643Y-57521902D01*
X146817649Y-57406056D01*
X146835555Y-57358920D01*
X146835556Y-57358918D01*
X146838055Y-57352338D01*
X146839092Y-57344958D01*
X146862748Y-57176639D01*
X146862748Y-57176636D01*
X146863299Y-57172717D01*
X146863616Y-57150000D01*
X146843397Y-56969745D01*
X146822417Y-56909498D01*
X146786064Y-56805106D01*
X146786062Y-56805103D01*
X146783745Y-56798448D01*
X146687626Y-56644624D01*
X146682664Y-56639627D01*
X146564778Y-56520915D01*
X146564774Y-56520912D01*
X146559815Y-56515918D01*
X146406666Y-56418727D01*
X146377463Y-56408328D01*
X146242425Y-56360243D01*
X146242420Y-56360242D01*
X146235790Y-56357881D01*
X146228802Y-56357048D01*
X146228799Y-56357047D01*
X146105698Y-56342368D01*
X146055680Y-56336404D01*
X146048677Y-56337140D01*
X146048676Y-56337140D01*
X145882288Y-56354628D01*
X145882286Y-56354629D01*
X145875288Y-56355364D01*
X145822666Y-56373278D01*
X145782061Y-56380000D01*
X145500570Y-56380000D01*
X145451725Y-56369885D01*
X145446601Y-56366855D01*
X145438993Y-56364645D01*
X145438989Y-56364643D01*
X145358578Y-56341282D01*
X145286831Y-56320438D01*
X145280426Y-56319934D01*
X145280421Y-56319933D01*
X145251958Y-56317693D01*
X145251950Y-56317693D01*
X145249502Y-56317500D01*
X143866498Y-56317500D01*
X143864050Y-56317693D01*
X143864042Y-56317693D01*
X143835579Y-56319933D01*
X143835574Y-56319934D01*
X143829169Y-56320438D01*
X143757422Y-56341282D01*
X143677011Y-56364643D01*
X143677007Y-56364645D01*
X143669399Y-56366855D01*
X143664275Y-56369885D01*
X143615430Y-56380000D01*
X143296122Y-56380000D01*
X143282591Y-56383973D01*
X143281456Y-56391871D01*
X143322107Y-56531790D01*
X143328352Y-56546221D01*
X143337311Y-56561370D01*
X143354770Y-56630186D01*
X143337310Y-56689648D01*
X143323855Y-56712399D01*
X143277438Y-56872169D01*
X143274500Y-56909498D01*
X143274500Y-57342502D01*
X100584500Y-57342502D01*
X100584500Y-45962640D01*
X107390463Y-45962640D01*
X107408163Y-46143160D01*
X107465418Y-46315273D01*
X107469065Y-46321295D01*
X107469066Y-46321297D01*
X107555730Y-46464398D01*
X107555733Y-46464401D01*
X107559380Y-46470424D01*
X107564275Y-46475492D01*
X107568571Y-46481071D01*
X107566243Y-46482864D01*
X107593071Y-46534115D01*
X107595500Y-46558734D01*
X107595500Y-48211864D01*
X107594422Y-48228307D01*
X107590250Y-48260000D01*
X107595500Y-48299880D01*
X107595500Y-48299885D01*
X107605771Y-48377902D01*
X107611162Y-48418851D01*
X107672476Y-48566876D01*
X107677503Y-48573427D01*
X107677504Y-48573429D01*
X107745520Y-48662069D01*
X107745526Y-48662075D01*
X107770013Y-48693987D01*
X107776568Y-48699017D01*
X107795379Y-48713452D01*
X107807770Y-48724319D01*
X109009685Y-49926234D01*
X109020552Y-49938625D01*
X109040013Y-49963987D01*
X109071925Y-49988474D01*
X109071928Y-49988477D01*
X109167124Y-50061524D01*
X109174753Y-50064684D01*
X109193546Y-50072468D01*
X109279408Y-50108033D01*
X109315150Y-50122838D01*
X109434115Y-50138500D01*
X109434120Y-50138500D01*
X109434129Y-50138501D01*
X109465812Y-50142672D01*
X109474000Y-50143750D01*
X109505693Y-50139578D01*
X109522136Y-50138500D01*
X124246115Y-50138500D01*
X124314236Y-50158502D01*
X124360729Y-50212158D01*
X124370833Y-50282432D01*
X124341339Y-50347012D01*
X124335211Y-50353595D01*
X123747212Y-50941595D01*
X123684899Y-50975620D01*
X123658116Y-50978500D01*
X115420494Y-50978500D01*
X115352373Y-50958498D01*
X115331088Y-50941284D01*
X115322777Y-50932915D01*
X115317815Y-50927918D01*
X115306697Y-50920862D01*
X115240004Y-50878538D01*
X115164666Y-50830727D01*
X115135463Y-50820328D01*
X115000425Y-50772243D01*
X115000420Y-50772242D01*
X114993790Y-50769881D01*
X114986802Y-50769048D01*
X114986799Y-50769047D01*
X114860869Y-50754031D01*
X114813680Y-50748404D01*
X114806677Y-50749140D01*
X114806676Y-50749140D01*
X114640288Y-50766628D01*
X114640286Y-50766629D01*
X114633288Y-50767364D01*
X114461579Y-50825818D01*
X114455575Y-50829512D01*
X114313095Y-50917166D01*
X114313092Y-50917168D01*
X114307088Y-50920862D01*
X114302053Y-50925793D01*
X114302050Y-50925795D01*
X114182525Y-51042843D01*
X114177493Y-51047771D01*
X114079235Y-51200238D01*
X114017197Y-51370685D01*
X113994463Y-51550640D01*
X114012163Y-51731160D01*
X114069418Y-51903273D01*
X114073065Y-51909295D01*
X114073066Y-51909297D01*
X114110805Y-51971611D01*
X114163380Y-52058424D01*
X114168269Y-52063487D01*
X114168270Y-52063488D01*
X114232965Y-52130481D01*
X114289382Y-52188902D01*
X114441159Y-52288222D01*
X114447763Y-52290678D01*
X114447765Y-52290679D01*
X114604558Y-52348990D01*
X114604560Y-52348990D01*
X114611168Y-52351448D01*
X114694995Y-52362633D01*
X114783980Y-52374507D01*
X114783984Y-52374507D01*
X114790961Y-52375438D01*
X114797972Y-52374800D01*
X114797976Y-52374800D01*
X114940459Y-52361832D01*
X114971600Y-52358998D01*
X114978302Y-52356820D01*
X114978304Y-52356820D01*
X115137409Y-52305124D01*
X115137412Y-52305123D01*
X115144108Y-52302947D01*
X115299912Y-52210069D01*
X115321662Y-52189356D01*
X115331221Y-52180254D01*
X115394346Y-52147762D01*
X115418113Y-52145500D01*
X123905497Y-52145500D01*
X123921944Y-52146578D01*
X123952000Y-52150535D01*
X123960188Y-52149457D01*
X123990244Y-52145500D01*
X124104324Y-52130481D01*
X124246267Y-52071686D01*
X124368157Y-51978157D01*
X124386619Y-51954097D01*
X124397486Y-51941707D01*
X126723387Y-49615807D01*
X126785699Y-49581781D01*
X126801062Y-49579421D01*
X126904600Y-49569998D01*
X126911302Y-49567820D01*
X126911304Y-49567820D01*
X127070409Y-49516124D01*
X127070412Y-49516123D01*
X127077108Y-49513947D01*
X127183856Y-49450312D01*
X127252608Y-49432613D01*
X127320018Y-49454895D01*
X127356147Y-49493271D01*
X127371380Y-49518424D01*
X127376269Y-49523487D01*
X127376270Y-49523488D01*
X127434277Y-49583555D01*
X127497382Y-49648902D01*
X127649159Y-49748222D01*
X127655763Y-49750678D01*
X127655765Y-49750679D01*
X127812558Y-49808990D01*
X127812560Y-49808990D01*
X127819168Y-49811448D01*
X127902995Y-49822633D01*
X127991980Y-49834507D01*
X127991984Y-49834507D01*
X127998961Y-49835438D01*
X128005972Y-49834800D01*
X128005976Y-49834800D01*
X128148459Y-49821832D01*
X128179600Y-49818998D01*
X128186302Y-49816820D01*
X128186304Y-49816820D01*
X128345409Y-49765124D01*
X128345412Y-49765123D01*
X128352108Y-49762947D01*
X128507912Y-49670069D01*
X128639266Y-49544982D01*
X128739643Y-49393902D01*
X128804055Y-49224338D01*
X128815263Y-49144590D01*
X128828748Y-49048639D01*
X128828748Y-49048636D01*
X128829299Y-49044717D01*
X128829616Y-49022000D01*
X128809397Y-48841745D01*
X128801629Y-48819438D01*
X128752064Y-48677106D01*
X128752062Y-48677103D01*
X128749745Y-48670448D01*
X128699164Y-48589500D01*
X128657359Y-48522598D01*
X128653626Y-48516624D01*
X128644554Y-48507488D01*
X128530778Y-48392915D01*
X128530774Y-48392912D01*
X128525815Y-48387918D01*
X128510033Y-48377902D01*
X128466538Y-48350300D01*
X128372666Y-48290727D01*
X128309372Y-48268189D01*
X128208425Y-48232243D01*
X128208420Y-48232242D01*
X128201790Y-48229881D01*
X128194802Y-48229048D01*
X128194799Y-48229047D01*
X128071721Y-48214371D01*
X128006448Y-48186443D01*
X127997545Y-48178352D01*
X127445486Y-47626293D01*
X127434618Y-47613902D01*
X127421180Y-47596389D01*
X127416157Y-47589843D01*
X127294267Y-47496314D01*
X127152324Y-47437519D01*
X127038244Y-47422500D01*
X127000000Y-47417465D01*
X126991812Y-47418543D01*
X126969944Y-47421422D01*
X126953497Y-47422500D01*
X115420494Y-47422500D01*
X115352373Y-47402498D01*
X115331088Y-47385284D01*
X115322777Y-47376915D01*
X115317815Y-47371918D01*
X115306697Y-47364862D01*
X115258538Y-47334300D01*
X115164666Y-47274727D01*
X115135463Y-47264328D01*
X115000425Y-47216243D01*
X115000420Y-47216242D01*
X114993790Y-47213881D01*
X114986802Y-47213048D01*
X114986799Y-47213047D01*
X114863698Y-47198368D01*
X114813680Y-47192404D01*
X114806677Y-47193140D01*
X114806676Y-47193140D01*
X114640288Y-47210628D01*
X114640286Y-47210629D01*
X114633288Y-47211364D01*
X114461579Y-47269818D01*
X114455575Y-47273512D01*
X114313095Y-47361166D01*
X114313092Y-47361168D01*
X114307088Y-47364862D01*
X114302053Y-47369793D01*
X114302050Y-47369795D01*
X114229666Y-47440679D01*
X114177493Y-47491771D01*
X114079235Y-47644238D01*
X114076826Y-47650858D01*
X114076824Y-47650861D01*
X114019606Y-47808066D01*
X114017197Y-47814685D01*
X113994463Y-47994640D01*
X114012163Y-48175160D01*
X114069418Y-48347273D01*
X114073065Y-48353295D01*
X114073066Y-48353297D01*
X114110372Y-48414896D01*
X114163380Y-48502424D01*
X114168269Y-48507487D01*
X114168270Y-48507488D01*
X114200283Y-48540638D01*
X114289382Y-48632902D01*
X114356933Y-48677106D01*
X114376741Y-48690068D01*
X114422790Y-48744105D01*
X114432313Y-48814460D01*
X114402289Y-48878795D01*
X114342248Y-48916685D01*
X114307748Y-48921500D01*
X109778239Y-48921500D01*
X109710118Y-48901498D01*
X109689144Y-48884595D01*
X108849405Y-48044856D01*
X108815379Y-47982544D01*
X108812500Y-47955761D01*
X108812500Y-46557248D01*
X108833552Y-46487521D01*
X108923742Y-46351773D01*
X108927643Y-46345902D01*
X108992055Y-46176338D01*
X108993035Y-46169366D01*
X109016748Y-46000639D01*
X109016748Y-46000636D01*
X109017299Y-45996717D01*
X109017616Y-45974000D01*
X108997397Y-45793745D01*
X108995080Y-45787091D01*
X108940064Y-45629106D01*
X108940062Y-45629103D01*
X108937745Y-45622448D01*
X108841626Y-45468624D01*
X108827941Y-45454843D01*
X108718778Y-45344915D01*
X108718774Y-45344912D01*
X108713815Y-45339918D01*
X108702697Y-45332862D01*
X108610669Y-45274460D01*
X108560666Y-45242727D01*
X108506757Y-45223531D01*
X108497217Y-45220134D01*
X117439500Y-45220134D01*
X117446255Y-45282316D01*
X117497385Y-45418705D01*
X117584739Y-45535261D01*
X117701295Y-45622615D01*
X117837684Y-45673745D01*
X117899866Y-45680500D01*
X120296134Y-45680500D01*
X120358316Y-45673745D01*
X120494705Y-45622615D01*
X120611261Y-45535261D01*
X120698615Y-45418705D01*
X120749745Y-45282316D01*
X120756500Y-45220134D01*
X130179500Y-45220134D01*
X130186255Y-45282316D01*
X130237385Y-45418705D01*
X130324739Y-45535261D01*
X130441295Y-45622615D01*
X130577684Y-45673745D01*
X130639866Y-45680500D01*
X133036134Y-45680500D01*
X133098316Y-45673745D01*
X133234705Y-45622615D01*
X133351261Y-45535261D01*
X133438615Y-45418705D01*
X133489745Y-45282316D01*
X133496500Y-45220134D01*
X133496500Y-42823866D01*
X133489745Y-42761684D01*
X133438615Y-42625295D01*
X133351261Y-42508739D01*
X133234705Y-42421385D01*
X133098316Y-42370255D01*
X133036134Y-42363500D01*
X130639866Y-42363500D01*
X130577684Y-42370255D01*
X130441295Y-42421385D01*
X130324739Y-42508739D01*
X130237385Y-42625295D01*
X130186255Y-42761684D01*
X130179500Y-42823866D01*
X130179500Y-45220134D01*
X120756500Y-45220134D01*
X120756500Y-42823866D01*
X120749745Y-42761684D01*
X120698615Y-42625295D01*
X120611261Y-42508739D01*
X120494705Y-42421385D01*
X120358316Y-42370255D01*
X120296134Y-42363500D01*
X117899866Y-42363500D01*
X117837684Y-42370255D01*
X117701295Y-42421385D01*
X117584739Y-42508739D01*
X117497385Y-42625295D01*
X117446255Y-42761684D01*
X117439500Y-42823866D01*
X117439500Y-45220134D01*
X108497217Y-45220134D01*
X108396425Y-45184243D01*
X108396420Y-45184242D01*
X108389790Y-45181881D01*
X108382802Y-45181048D01*
X108382799Y-45181047D01*
X108259698Y-45166368D01*
X108209680Y-45160404D01*
X108202677Y-45161140D01*
X108202676Y-45161140D01*
X108036288Y-45178628D01*
X108036286Y-45178629D01*
X108029288Y-45179364D01*
X107857579Y-45237818D01*
X107851575Y-45241512D01*
X107709095Y-45329166D01*
X107709092Y-45329168D01*
X107703088Y-45332862D01*
X107698053Y-45337793D01*
X107698050Y-45337795D01*
X107624014Y-45410297D01*
X107573493Y-45459771D01*
X107475235Y-45612238D01*
X107472826Y-45618858D01*
X107472824Y-45618861D01*
X107426850Y-45745173D01*
X107413197Y-45782685D01*
X107390463Y-45962640D01*
X100584500Y-45962640D01*
X100584500Y-39251785D01*
X100604502Y-39183664D01*
X100658158Y-39137171D01*
X100728432Y-39127067D01*
X100793012Y-39156561D01*
X100818615Y-39187078D01*
X100887146Y-39301585D01*
X101066215Y-39525100D01*
X101273962Y-39722245D01*
X101506543Y-39889371D01*
X101759653Y-40023386D01*
X102028610Y-40121810D01*
X102308436Y-40182822D01*
X102347901Y-40185928D01*
X102530597Y-40200307D01*
X102530604Y-40200307D01*
X102533053Y-40200500D01*
X102687992Y-40200500D01*
X102690128Y-40200354D01*
X102690139Y-40200354D01*
X102897460Y-40186220D01*
X102897466Y-40186219D01*
X102901737Y-40185928D01*
X102905932Y-40185059D01*
X102905934Y-40185059D01*
X103041961Y-40156889D01*
X103182186Y-40127850D01*
X103452158Y-40032248D01*
X103706658Y-39900891D01*
X103710159Y-39898430D01*
X103710163Y-39898428D01*
X103937471Y-39738673D01*
X103937477Y-39738668D01*
X103940976Y-39736209D01*
X104150776Y-39541251D01*
X104161575Y-39528058D01*
X104329461Y-39322941D01*
X104332177Y-39319623D01*
X104481820Y-39075427D01*
X104488802Y-39059522D01*
X104595214Y-38817110D01*
X104595215Y-38817106D01*
X104596938Y-38813182D01*
X104675400Y-38537739D01*
X104715754Y-38254196D01*
X104717253Y-37967800D01*
X104713798Y-37941552D01*
X104700301Y-37839031D01*
X104679871Y-37683851D01*
X104604298Y-37407602D01*
X104593757Y-37382890D01*
X104493618Y-37148117D01*
X104493616Y-37148113D01*
X104491932Y-37144165D01*
X104344854Y-36898415D01*
X104165785Y-36674900D01*
X103958038Y-36477755D01*
X103725457Y-36310629D01*
X103716437Y-36305853D01*
X103665594Y-36256300D01*
X103649614Y-36187125D01*
X103673569Y-36120292D01*
X103729854Y-36077019D01*
X103775398Y-36068500D01*
X146413404Y-36068500D01*
X146481525Y-36088502D01*
G37*
%TD.AperFunction*%
%TD*%
M02*
