%TF.GenerationSoftware,KiCad,Pcbnew,(6.0.5)*%
%TF.CreationDate,2022-11-12T13:55:10-06:00*%
%TF.ProjectId,ISA rev5,49534120-7265-4763-952e-6b696361645f,rev?*%
%TF.SameCoordinates,Original*%
%TF.FileFunction,Copper,L1,Top*%
%TF.FilePolarity,Positive*%
%FSLAX46Y46*%
G04 Gerber Fmt 4.6, Leading zero omitted, Abs format (unit mm)*
G04 Created by KiCad (PCBNEW (6.0.5)) date 2022-11-12 13:55:10*
%MOMM*%
%LPD*%
G01*
G04 APERTURE LIST*
G04 Aperture macros list*
%AMRoundRect*
0 Rectangle with rounded corners*
0 $1 Rounding radius*
0 $2 $3 $4 $5 $6 $7 $8 $9 X,Y pos of 4 corners*
0 Add a 4 corners polygon primitive as box body*
4,1,4,$2,$3,$4,$5,$6,$7,$8,$9,$2,$3,0*
0 Add four circle primitives for the rounded corners*
1,1,$1+$1,$2,$3*
1,1,$1+$1,$4,$5*
1,1,$1+$1,$6,$7*
1,1,$1+$1,$8,$9*
0 Add four rect primitives between the rounded corners*
20,1,$1+$1,$2,$3,$4,$5,0*
20,1,$1+$1,$4,$5,$6,$7,0*
20,1,$1+$1,$6,$7,$8,$9,0*
20,1,$1+$1,$8,$9,$2,$3,0*%
G04 Aperture macros list end*
%TA.AperFunction,ComponentPad*%
%ADD10R,1.700000X1.700000*%
%TD*%
%TA.AperFunction,ComponentPad*%
%ADD11O,1.700000X1.700000*%
%TD*%
%TA.AperFunction,SMDPad,CuDef*%
%ADD12RoundRect,0.150000X0.150000X-0.837500X0.150000X0.837500X-0.150000X0.837500X-0.150000X-0.837500X0*%
%TD*%
%TA.AperFunction,SMDPad,CuDef*%
%ADD13RoundRect,0.250000X-0.400000X-0.625000X0.400000X-0.625000X0.400000X0.625000X-0.400000X0.625000X0*%
%TD*%
%TA.AperFunction,SMDPad,CuDef*%
%ADD14RoundRect,0.250000X-0.625000X0.400000X-0.625000X-0.400000X0.625000X-0.400000X0.625000X0.400000X0*%
%TD*%
%TA.AperFunction,SMDPad,CuDef*%
%ADD15R,1.900000X0.800000*%
%TD*%
%TA.AperFunction,SMDPad,CuDef*%
%ADD16R,1.700000X3.500000*%
%TD*%
%TA.AperFunction,SMDPad,CuDef*%
%ADD17R,3.500000X1.700000*%
%TD*%
%TA.AperFunction,ConnectorPad*%
%ADD18R,1.780000X7.620000*%
%TD*%
%TA.AperFunction,SMDPad,CuDef*%
%ADD19RoundRect,0.250000X0.400000X0.625000X-0.400000X0.625000X-0.400000X-0.625000X0.400000X-0.625000X0*%
%TD*%
%TA.AperFunction,ComponentPad*%
%ADD20R,1.800000X1.800000*%
%TD*%
%TA.AperFunction,ComponentPad*%
%ADD21C,1.800000*%
%TD*%
%TA.AperFunction,SMDPad,CuDef*%
%ADD22RoundRect,0.150000X-0.825000X-0.150000X0.825000X-0.150000X0.825000X0.150000X-0.825000X0.150000X0*%
%TD*%
%TA.AperFunction,SMDPad,CuDef*%
%ADD23R,0.800000X1.900000*%
%TD*%
%TA.AperFunction,ViaPad*%
%ADD24C,0.600000*%
%TD*%
%TA.AperFunction,Conductor*%
%ADD25C,0.127000*%
%TD*%
%TA.AperFunction,Conductor*%
%ADD26C,0.200000*%
%TD*%
%TA.AperFunction,Conductor*%
%ADD27C,0.400000*%
%TD*%
G04 APERTURE END LIST*
D10*
%TO.P,J5,1,Pin_1*%
%TO.N,Net-(J5-Pad1)*%
X113030000Y-108966000D03*
D11*
%TO.P,J5,2,Pin_2*%
%TO.N,Net-(J5-Pad2)*%
X115570000Y-108966000D03*
%TO.P,J5,3,Pin_3*%
%TO.N,Net-(J5-Pad3)*%
X118110000Y-108966000D03*
%TD*%
D12*
%TO.P,U4,1,A->B*%
%TO.N,+3V3*%
X107061000Y-124460000D03*
%TO.P,U4,2,A0*%
%TO.N,/BA8*%
X108331000Y-124460000D03*
%TO.P,U4,3,A1*%
%TO.N,/BA9*%
X109601000Y-124460000D03*
%TO.P,U4,4,A2*%
%TO.N,/BA10*%
X110871000Y-124460000D03*
%TO.P,U4,5,A3*%
%TO.N,/BA11*%
X112141000Y-124460000D03*
%TO.P,U4,6,A4*%
%TO.N,/BA12*%
X113411000Y-124460000D03*
%TO.P,U4,7,A5*%
%TO.N,/BA13*%
X114681000Y-124460000D03*
%TO.P,U4,8,A6*%
%TO.N,/BA14*%
X115951000Y-124460000D03*
%TO.P,U4,9,A7*%
%TO.N,/BA15*%
X117221000Y-124460000D03*
%TO.P,U4,10,GND*%
%TO.N,GND*%
X118491000Y-124460000D03*
%TO.P,U4,11,B7*%
%TO.N,/PA7*%
X118491000Y-117535000D03*
%TO.P,U4,12,B6*%
%TO.N,/PA6*%
X117221000Y-117535000D03*
%TO.P,U4,13,B5*%
%TO.N,/PA5*%
X115951000Y-117535000D03*
%TO.P,U4,14,B4*%
%TO.N,/PA4*%
X114681000Y-117535000D03*
%TO.P,U4,15,B3*%
%TO.N,/PA3*%
X113411000Y-117535000D03*
%TO.P,U4,16,B2*%
%TO.N,/PA2*%
X112141000Y-117535000D03*
%TO.P,U4,17,B1*%
%TO.N,/PA1*%
X110871000Y-117535000D03*
%TO.P,U4,18,B0*%
%TO.N,/PA0*%
X109601000Y-117535000D03*
%TO.P,U4,19,CE*%
%TO.N,Net-(U1-Pad4)*%
X108331000Y-117535000D03*
%TO.P,U4,20,VCC*%
%TO.N,+3V3*%
X107061000Y-117535000D03*
%TD*%
D13*
%TO.P,R2,1*%
%TO.N,/+5Vmon*%
X164312000Y-140970000D03*
%TO.P,R2,2*%
%TO.N,GND*%
X167412000Y-140970000D03*
%TD*%
D14*
%TO.P,R3,1*%
%TO.N,Net-(D4-Pad2)*%
X183642000Y-125476000D03*
%TO.P,R3,2*%
%TO.N,Net-(J1-Pad2)*%
X183642000Y-128576000D03*
%TD*%
D12*
%TO.P,U3,1,A->B*%
%TO.N,+3V3*%
X173609000Y-141638500D03*
%TO.P,U3,2,A0*%
%TO.N,/BD0*%
X174879000Y-141638500D03*
%TO.P,U3,3,A1*%
%TO.N,/BD1*%
X176149000Y-141638500D03*
%TO.P,U3,4,A2*%
%TO.N,/BD2*%
X177419000Y-141638500D03*
%TO.P,U3,5,A3*%
%TO.N,/BD3*%
X178689000Y-141638500D03*
%TO.P,U3,6,A4*%
%TO.N,/BD4*%
X179959000Y-141638500D03*
%TO.P,U3,7,A5*%
%TO.N,/BD5*%
X181229000Y-141638500D03*
%TO.P,U3,8,A6*%
%TO.N,/BD6*%
X182499000Y-141638500D03*
%TO.P,U3,9,A7*%
%TO.N,/BD7*%
X183769000Y-141638500D03*
%TO.P,U3,10,GND*%
%TO.N,GND*%
X185039000Y-141638500D03*
%TO.P,U3,11,B7*%
%TO.N,/PD7*%
X185039000Y-134713500D03*
%TO.P,U3,12,B6*%
%TO.N,/PD6*%
X183769000Y-134713500D03*
%TO.P,U3,13,B5*%
%TO.N,/PD5*%
X182499000Y-134713500D03*
%TO.P,U3,14,B4*%
%TO.N,/PD4*%
X181229000Y-134713500D03*
%TO.P,U3,15,B3*%
%TO.N,/PD3*%
X179959000Y-134713500D03*
%TO.P,U3,16,B2*%
%TO.N,/PD2*%
X178689000Y-134713500D03*
%TO.P,U3,17,B1*%
%TO.N,/PD1*%
X177419000Y-134713500D03*
%TO.P,U3,18,B0*%
%TO.N,/PD0*%
X176149000Y-134713500D03*
%TO.P,U3,19,CE*%
%TO.N,GND*%
X174879000Y-134713500D03*
%TO.P,U3,20,VCC*%
%TO.N,+3V3*%
X173609000Y-134713500D03*
%TD*%
D13*
%TO.P,R11,1*%
%TO.N,/+12Vmon*%
X135610000Y-137668000D03*
%TO.P,R11,2*%
%TO.N,GND*%
X138710000Y-137668000D03*
%TD*%
D15*
%TO.P,D5,1,K*%
%TO.N,/+12Vmon*%
X132310000Y-135890000D03*
%TO.P,D5,2,A*%
%TO.N,GND*%
X129310000Y-134940000D03*
%TO.P,D5,3*%
%TO.N,N/C*%
X129310000Y-136840000D03*
%TD*%
D16*
%TO.P,U6,1,GPIO0*%
%TO.N,/OLED_SDA*%
X124968000Y-128154000D03*
D11*
X124968000Y-127254000D03*
D16*
%TO.P,U6,2,GPIO1*%
%TO.N,/OLED_SCL*%
X127508000Y-128154000D03*
D11*
X127508000Y-127254000D03*
D16*
%TO.P,U6,3,GND*%
%TO.N,GND*%
X130048000Y-128154000D03*
D10*
X130048000Y-127254000D03*
D16*
%TO.P,U6,4,GPIO2*%
%TO.N,/PD0*%
X132588000Y-128154000D03*
D11*
X132588000Y-127254000D03*
%TO.P,U6,5,GPIO3*%
%TO.N,/PD1*%
X135128000Y-127254000D03*
D16*
X135128000Y-128154000D03*
D11*
%TO.P,U6,6,GPIO4*%
%TO.N,/PD2*%
X137668000Y-127254000D03*
D16*
X137668000Y-128154000D03*
%TO.P,U6,7,GPIO5*%
%TO.N,/PD3*%
X140208000Y-128154000D03*
D11*
X140208000Y-127254000D03*
D10*
%TO.P,U6,8,GND*%
%TO.N,unconnected-(U6-Pad8)*%
X142748000Y-127254000D03*
D16*
X142748000Y-128154000D03*
D11*
%TO.P,U6,9,GPIO6*%
%TO.N,/PD4*%
X145288000Y-127254000D03*
D16*
X145288000Y-128154000D03*
%TO.P,U6,10,GPIO7*%
%TO.N,/PD5*%
X147828000Y-128154000D03*
D11*
X147828000Y-127254000D03*
%TO.P,U6,11,GPIO8*%
%TO.N,/PD6*%
X150368000Y-127254000D03*
D16*
X150368000Y-128154000D03*
%TO.P,U6,12,GPIO9*%
%TO.N,/PD7*%
X152908000Y-128154000D03*
D11*
X152908000Y-127254000D03*
D10*
%TO.P,U6,13,GND*%
%TO.N,unconnected-(U6-Pad13)*%
X155448000Y-127254000D03*
D16*
X155448000Y-128154000D03*
D11*
%TO.P,U6,14,GPIO10*%
%TO.N,/PA0*%
X157988000Y-127254000D03*
D16*
X157988000Y-128154000D03*
D11*
%TO.P,U6,15,GPIO11*%
%TO.N,/PA1*%
X160528000Y-127254000D03*
D16*
X160528000Y-128154000D03*
%TO.P,U6,16,GPIO12*%
%TO.N,/PA2*%
X163068000Y-128154000D03*
D11*
X163068000Y-127254000D03*
D16*
%TO.P,U6,17,GPIO13*%
%TO.N,/PA3*%
X165608000Y-128154000D03*
D11*
X165608000Y-127254000D03*
D16*
%TO.P,U6,18,GND*%
%TO.N,GND*%
X168148000Y-128154000D03*
D10*
X168148000Y-127254000D03*
D16*
%TO.P,U6,19,GPIO14*%
%TO.N,/PA4*%
X170688000Y-128154000D03*
D11*
X170688000Y-127254000D03*
%TO.P,U6,20,GPIO15*%
%TO.N,/PA5*%
X173228000Y-127254000D03*
D16*
X173228000Y-128154000D03*
%TO.P,U6,21,GPIO16*%
%TO.N,/PA6*%
X173228000Y-108574000D03*
D11*
X173228000Y-109474000D03*
D16*
%TO.P,U6,22,GPIO17*%
%TO.N,/PA7*%
X170688000Y-108574000D03*
D11*
X170688000Y-109474000D03*
D10*
%TO.P,U6,23,GND*%
%TO.N,unconnected-(U6-Pad23)*%
X168148000Y-109474000D03*
D16*
X168148000Y-108574000D03*
D11*
%TO.P,U6,24,GPIO18*%
%TO.N,/bus_ready*%
X165608000Y-109474000D03*
D16*
X165608000Y-108574000D03*
D11*
%TO.P,U6,25,GPIO19*%
%TO.N,/CE_Byte*%
X163068000Y-109474000D03*
D16*
X163068000Y-108574000D03*
D11*
%TO.P,U6,26,GPIO20*%
%TO.N,Net-(J5-Pad1)*%
X160528000Y-109474000D03*
D16*
X160528000Y-108574000D03*
D11*
%TO.P,U6,27,GPIO21*%
%TO.N,Net-(J5-Pad2)*%
X157988000Y-109474000D03*
D16*
X157988000Y-108574000D03*
D10*
%TO.P,U6,28,GND*%
%TO.N,GND*%
X155448000Y-109474000D03*
D16*
X155448000Y-108574000D03*
D11*
%TO.P,U6,29,GPIO22*%
%TO.N,Net-(J5-Pad3)*%
X152908000Y-109474000D03*
D16*
X152908000Y-108574000D03*
D11*
%TO.P,U6,30,RUN*%
%TO.N,/Pico_Reset*%
X150368000Y-109474000D03*
D16*
X150368000Y-108574000D03*
D11*
%TO.P,U6,31,GPIO26_ADC0*%
%TO.N,/ISAreset*%
X147828000Y-109474000D03*
D16*
X147828000Y-108574000D03*
D11*
%TO.P,U6,32,GPIO27_ADC1*%
%TO.N,/+5Vmon*%
X145288000Y-109474000D03*
D16*
X145288000Y-108574000D03*
D10*
%TO.P,U6,33,AGND*%
%TO.N,GND*%
X142748000Y-109474000D03*
D16*
X142748000Y-108574000D03*
D11*
%TO.P,U6,34,GPIO28_ADC2*%
%TO.N,/+12Vmon*%
X140208000Y-109474000D03*
D16*
X140208000Y-108574000D03*
%TO.P,U6,35,ADC_VREF*%
%TO.N,unconnected-(U6-Pad35)*%
X137668000Y-108574000D03*
D11*
X137668000Y-109474000D03*
D16*
%TO.P,U6,36,3V3*%
%TO.N,+3V3*%
X135128000Y-108574000D03*
D11*
X135128000Y-109474000D03*
D16*
%TO.P,U6,37,3V3_EN*%
%TO.N,unconnected-(U6-Pad37)*%
X132588000Y-108574000D03*
D11*
X132588000Y-109474000D03*
D10*
%TO.P,U6,38,GND*%
%TO.N,GND*%
X130048000Y-109474000D03*
D16*
X130048000Y-108574000D03*
D11*
%TO.P,U6,39,VSYS*%
%TO.N,+5V*%
X127508000Y-109474000D03*
D16*
X127508000Y-108574000D03*
D11*
%TO.P,U6,40,VBUS*%
%TO.N,unconnected-(U6-Pad40)*%
X124968000Y-109474000D03*
D16*
X124968000Y-108574000D03*
D17*
%TO.P,U6,41,SWCLK*%
%TO.N,unconnected-(U6-Pad41)*%
X173898000Y-120904000D03*
D11*
X172998000Y-120904000D03*
D10*
%TO.P,U6,42,GND*%
%TO.N,unconnected-(U6-Pad42)*%
X172998000Y-118364000D03*
D17*
X173898000Y-118364000D03*
%TO.P,U6,43,SWDIO*%
%TO.N,unconnected-(U6-Pad43)*%
X173898000Y-115824000D03*
D11*
X172998000Y-115824000D03*
%TD*%
D18*
%TO.P,J1,32,IO*%
%TO.N,unconnected-(J1-Pad32)*%
X184917000Y-148463000D03*
%TO.P,J1,33,DB7*%
%TO.N,/BD7*%
X182377000Y-148463000D03*
%TO.P,J1,34,DB6*%
%TO.N,/BD6*%
X179837000Y-148463000D03*
%TO.P,J1,35,DB5*%
%TO.N,/BD5*%
X177297000Y-148463000D03*
%TO.P,J1,36,DB4*%
%TO.N,/BD4*%
X174757000Y-148463000D03*
%TO.P,J1,37,DB3*%
%TO.N,/BD3*%
X172217000Y-148463000D03*
%TO.P,J1,38,DB2*%
%TO.N,/BD2*%
X169677000Y-148463000D03*
%TO.P,J1,39,DB1*%
%TO.N,/BD1*%
X167137000Y-148463000D03*
%TO.P,J1,40,DB0*%
%TO.N,/BD0*%
X164597000Y-148463000D03*
%TO.P,J1,41,IO_READY*%
%TO.N,unconnected-(J1-Pad41)*%
X162057000Y-148463000D03*
%TO.P,J1,42,AEN*%
%TO.N,Net-(J1-Pad42)*%
X159517000Y-148463000D03*
%TO.P,J1,43,BA19*%
%TO.N,Net-(J1-Pad43)*%
X156977000Y-148463000D03*
%TO.P,J1,44,BA18*%
%TO.N,Net-(J1-Pad44)*%
X154437000Y-148463000D03*
%TO.P,J1,45,BA17*%
%TO.N,Net-(J1-Pad45)*%
X151897000Y-148463000D03*
%TO.P,J1,46,BA16*%
%TO.N,Net-(J1-Pad46)*%
X149357000Y-148463000D03*
%TO.P,J1,47,BA15*%
%TO.N,/BA15*%
X146817000Y-148463000D03*
%TO.P,J1,48,BA14*%
%TO.N,/BA14*%
X144277000Y-148463000D03*
%TO.P,J1,49,BA13*%
%TO.N,/BA13*%
X141737000Y-148463000D03*
%TO.P,J1,50,BA12*%
%TO.N,/BA12*%
X139197000Y-148463000D03*
%TO.P,J1,51,BA11*%
%TO.N,/BA11*%
X136657000Y-148463000D03*
%TO.P,J1,52,BA10*%
%TO.N,/BA10*%
X134117000Y-148463000D03*
%TO.P,J1,53,BA09*%
%TO.N,/BA9*%
X131577000Y-148463000D03*
%TO.P,J1,54,BA08*%
%TO.N,Net-(J1-Pad54)*%
X129037000Y-148463000D03*
%TO.P,J1,55,BA07*%
%TO.N,/BA7*%
X126497000Y-148463000D03*
%TO.P,J1,56,BA06*%
%TO.N,Net-(J1-Pad56)*%
X123957000Y-148463000D03*
%TO.P,J1,57,BA05*%
%TO.N,/BA5*%
X121417000Y-148463000D03*
%TO.P,J1,58,BA04*%
%TO.N,Net-(J1-Pad58)*%
X118877000Y-148463000D03*
%TO.P,J1,59,BA03*%
%TO.N,/BA3*%
X116337000Y-148463000D03*
%TO.P,J1,60,BA02*%
%TO.N,Net-(J1-Pad60)*%
X113797000Y-148463000D03*
%TO.P,J1,61,BA01*%
%TO.N,/BA1*%
X111257000Y-148463000D03*
%TO.P,J1,62,BA00*%
%TO.N,/BA0*%
X108717000Y-148463000D03*
%TD*%
D14*
%TO.P,R5,1*%
%TO.N,/BA8*%
X120650000Y-131266000D03*
%TO.P,R5,2*%
%TO.N,Net-(J1-Pad54)*%
X120650000Y-134366000D03*
%TD*%
D19*
%TO.P,R10,1*%
%TO.N,Net-(J1-Pad9)*%
X138684000Y-133858000D03*
%TO.P,R10,2*%
%TO.N,/+12Vmon*%
X135584000Y-133858000D03*
%TD*%
D14*
%TO.P,R12,1*%
%TO.N,/ISAreset*%
X178435000Y-125424000D03*
%TO.P,R12,2*%
%TO.N,Net-(J1-Pad2)*%
X178435000Y-128524000D03*
%TD*%
D15*
%TO.P,D1,1,K*%
%TO.N,/+5Vmon*%
X164338000Y-135382000D03*
%TO.P,D1,2,A*%
%TO.N,GND*%
X167338000Y-136332000D03*
%TO.P,D1,3*%
%TO.N,N/C*%
X167338000Y-134432000D03*
%TD*%
D20*
%TO.P,D2,1,K*%
%TO.N,Net-(D2-Pad1)*%
X183896000Y-114554000D03*
D21*
%TO.P,D2,2,A*%
%TO.N,GND*%
X183896000Y-117094000D03*
%TD*%
D14*
%TO.P,R9,1*%
%TO.N,Net-(D3-Pad1)*%
X178435000Y-108406000D03*
%TO.P,R9,2*%
%TO.N,Net-(J1-Pad7)*%
X178435000Y-111506000D03*
%TD*%
D22*
%TO.P,U1,1*%
%TO.N,Net-(U1-Pad1)*%
X154308000Y-134112000D03*
%TO.P,U1,2*%
%TO.N,Net-(J1-Pad42)*%
X154308000Y-135382000D03*
%TO.P,U1,3*%
%TO.N,/IOW*%
X154308000Y-136652000D03*
%TO.P,U1,4*%
%TO.N,Net-(U1-Pad4)*%
X154308000Y-137922000D03*
%TO.P,U1,5*%
%TO.N,GND*%
X154308000Y-139192000D03*
%TO.P,U1,6*%
%TO.N,/CE_Byte*%
X154308000Y-140462000D03*
%TO.P,U1,7,GND*%
%TO.N,GND*%
X154308000Y-141732000D03*
%TO.P,U1,8*%
%TO.N,Net-(J1-Pad43)*%
X159258000Y-141732000D03*
%TO.P,U1,9*%
%TO.N,Net-(J1-Pad44)*%
X159258000Y-140462000D03*
%TO.P,U1,10*%
%TO.N,Net-(U1-Pad10)*%
X159258000Y-139192000D03*
%TO.P,U1,11*%
%TO.N,Net-(J1-Pad45)*%
X159258000Y-137922000D03*
%TO.P,U1,12*%
%TO.N,Net-(J1-Pad46)*%
X159258000Y-136652000D03*
%TO.P,U1,13*%
%TO.N,Net-(U1-Pad13)*%
X159258000Y-135382000D03*
%TO.P,U1,14,VCC*%
%TO.N,+3V3*%
X159258000Y-134112000D03*
%TD*%
D14*
%TO.P,R8,1*%
%TO.N,/BA2*%
X111252000Y-138658000D03*
%TO.P,R8,2*%
%TO.N,Net-(J1-Pad60)*%
X111252000Y-141758000D03*
%TD*%
%TO.P,R7,1*%
%TO.N,/BA4*%
X114808000Y-138658000D03*
%TO.P,R7,2*%
%TO.N,Net-(J1-Pad58)*%
X114808000Y-141758000D03*
%TD*%
%TO.P,R6,1*%
%TO.N,/BA6*%
X118364000Y-138658000D03*
%TO.P,R6,2*%
%TO.N,Net-(J1-Pad56)*%
X118364000Y-141758000D03*
%TD*%
D20*
%TO.P,D3,1,K*%
%TO.N,Net-(D3-Pad1)*%
X183896000Y-109215000D03*
D21*
%TO.P,D3,2,A*%
%TO.N,GND*%
X183896000Y-111755000D03*
%TD*%
D23*
%TO.P,D6,1,K*%
%TO.N,/ISAreset*%
X178435000Y-123166000D03*
%TO.P,D6,2,A*%
%TO.N,GND*%
X179385000Y-120166000D03*
%TO.P,D6,3*%
%TO.N,N/C*%
X177485000Y-120166000D03*
%TD*%
D10*
%TO.P,J2,1,Pin_1*%
%TO.N,+5V*%
X107950000Y-113284000D03*
D11*
%TO.P,J2,2,Pin_2*%
%TO.N,+3V3*%
X110490000Y-113284000D03*
%TO.P,J2,3,Pin_3*%
%TO.N,GND*%
X113030000Y-113284000D03*
%TO.P,J2,4,Pin_4*%
%TO.N,/OLED_SDA*%
X115570000Y-113284000D03*
%TO.P,J2,5,Pin_5*%
%TO.N,/OLED_SCL*%
X118110000Y-113284000D03*
%TD*%
D19*
%TO.P,R1,1*%
%TO.N,Net-(J1-Pad3)*%
X167412000Y-138430000D03*
%TO.P,R1,2*%
%TO.N,/+5Vmon*%
X164312000Y-138430000D03*
%TD*%
D20*
%TO.P,D4,1,K*%
%TO.N,GND*%
X183769000Y-120396000D03*
D21*
%TO.P,D4,2,A*%
%TO.N,Net-(D4-Pad2)*%
X183769000Y-122936000D03*
%TD*%
D14*
%TO.P,R4,1*%
%TO.N,Net-(D2-Pad1)*%
X178435000Y-113994000D03*
%TO.P,R4,2*%
%TO.N,Net-(J1-Pad5)*%
X178435000Y-117094000D03*
%TD*%
D12*
%TO.P,U5,1,A->B*%
%TO.N,+3V3*%
X107061000Y-136050500D03*
%TO.P,U5,2,A0*%
%TO.N,/BA0*%
X108331000Y-136050500D03*
%TO.P,U5,3,A1*%
%TO.N,/BA1*%
X109601000Y-136050500D03*
%TO.P,U5,4,A2*%
%TO.N,/BA2*%
X110871000Y-136050500D03*
%TO.P,U5,5,A3*%
%TO.N,/BA3*%
X112141000Y-136050500D03*
%TO.P,U5,6,A4*%
%TO.N,/BA4*%
X113411000Y-136050500D03*
%TO.P,U5,7,A5*%
%TO.N,/BA5*%
X114681000Y-136050500D03*
%TO.P,U5,8,A6*%
%TO.N,/BA6*%
X115951000Y-136050500D03*
%TO.P,U5,9,A7*%
%TO.N,/BA7*%
X117221000Y-136050500D03*
%TO.P,U5,10,GND*%
%TO.N,GND*%
X118491000Y-136050500D03*
%TO.P,U5,11,B7*%
%TO.N,/PA7*%
X118491000Y-129125500D03*
%TO.P,U5,12,B6*%
%TO.N,/PA6*%
X117221000Y-129125500D03*
%TO.P,U5,13,B5*%
%TO.N,/PA5*%
X115951000Y-129125500D03*
%TO.P,U5,14,B4*%
%TO.N,/PA4*%
X114681000Y-129125500D03*
%TO.P,U5,15,B3*%
%TO.N,/PA3*%
X113411000Y-129125500D03*
%TO.P,U5,16,B2*%
%TO.N,/PA2*%
X112141000Y-129125500D03*
%TO.P,U5,17,B1*%
%TO.N,/PA1*%
X110871000Y-129125500D03*
%TO.P,U5,18,B0*%
%TO.N,/PA0*%
X109601000Y-129125500D03*
%TO.P,U5,19,CE*%
%TO.N,/CE_Byte*%
X108331000Y-129125500D03*
%TO.P,U5,20,VCC*%
%TO.N,+3V3*%
X107061000Y-129125500D03*
%TD*%
D22*
%TO.P,U2,1*%
%TO.N,Net-(U1-Pad1)*%
X145353000Y-134112000D03*
%TO.P,U2,2*%
%TO.N,Net-(U1-Pad10)*%
X145353000Y-135382000D03*
%TO.P,U2,3*%
%TO.N,N/C*%
X145353000Y-136652000D03*
%TO.P,U2,4*%
X145353000Y-137922000D03*
%TO.P,U2,5*%
X145353000Y-139192000D03*
%TO.P,U2,6*%
X145353000Y-140462000D03*
%TO.P,U2,7,GND*%
%TO.N,GND*%
X145353000Y-141732000D03*
%TO.P,U2,8*%
%TO.N,N/C*%
X150303000Y-141732000D03*
%TO.P,U2,9*%
X150303000Y-140462000D03*
%TO.P,U2,10*%
X150303000Y-139192000D03*
%TO.P,U2,11*%
X150303000Y-137922000D03*
%TO.P,U2,12*%
%TO.N,/bus_ready*%
X150303000Y-136652000D03*
%TO.P,U2,13*%
%TO.N,Net-(U1-Pad13)*%
X150303000Y-135382000D03*
%TO.P,U2,14,VCC*%
%TO.N,+3V3*%
X150303000Y-134112000D03*
%TD*%
D24*
%TO.N,GND*%
X186436000Y-142240000D03*
X169164000Y-136398000D03*
X119888000Y-124460000D03*
X129286000Y-133604000D03*
X147066000Y-113792000D03*
X155702000Y-141224000D03*
X140208000Y-137668000D03*
X169418000Y-140970000D03*
X148844000Y-138938000D03*
X143764000Y-141224000D03*
X159766000Y-142494000D03*
X175514000Y-136652000D03*
X108458000Y-120904000D03*
X119286500Y-136050500D03*
X163068000Y-142494000D03*
X150876000Y-113792000D03*
X180594000Y-120142000D03*
X153924000Y-113792000D03*
X119634000Y-122428000D03*
%TO.N,+3V3*%
X108966000Y-131572000D03*
X170688000Y-137414000D03*
X157734000Y-134112000D03*
X173990000Y-136144000D03*
X170688000Y-139446000D03*
X148590000Y-134112000D03*
X106426000Y-119126000D03*
%TO.N,/+12Vmon*%
X134112000Y-133350000D03*
%TO.N,/+5Vmon*%
X162814000Y-134874000D03*
%TO.N,/ISAreset*%
X176784000Y-123190000D03*
%TO.N,Net-(J1-Pad2)*%
X183769000Y-130048000D03*
%TO.N,Net-(J1-Pad3)*%
X179832000Y-139700000D03*
%TO.N,Net-(J1-Pad5)*%
X178562000Y-118618000D03*
%TO.N,Net-(J1-Pad7)*%
X178308000Y-112776000D03*
%TO.N,Net-(J1-Pad9)*%
X143510000Y-139700000D03*
%TO.N,/IOW*%
X151892000Y-136906000D03*
X151892000Y-137922000D03*
X152146000Y-141732000D03*
%TO.N,Net-(J1-Pad42)*%
X159512000Y-144018000D03*
X156275000Y-141732000D03*
%TO.N,Net-(U1-Pad10)*%
X157799000Y-139192000D03*
X146812000Y-135382000D03*
%TO.N,Net-(U1-Pad13)*%
X151892000Y-135382000D03*
X157799000Y-135382000D03*
%TO.N,/bus_ready*%
X148590000Y-136652000D03*
X153924000Y-119634000D03*
%TO.N,/CE_Byte*%
X124206000Y-133096000D03*
X142494000Y-140208000D03*
X155702000Y-140462000D03*
X152654000Y-118364000D03*
X108204000Y-127508000D03*
%TO.N,/PA7*%
X118618000Y-130556000D03*
X118618000Y-119126000D03*
%TO.N,/PA6*%
X117348000Y-119126000D03*
X117348000Y-130556000D03*
%TO.N,/PA5*%
X116078000Y-119126000D03*
X116078000Y-130556000D03*
%TO.N,/PA4*%
X114808000Y-119126000D03*
X114808000Y-130556000D03*
%TO.N,/PA3*%
X113538000Y-119126000D03*
X113538000Y-130556000D03*
%TO.N,/PA2*%
X112268000Y-130556000D03*
X112268000Y-119126000D03*
%TO.N,/PA1*%
X110998000Y-119126000D03*
X110998000Y-130556000D03*
%TO.N,/PA0*%
X109728000Y-119126000D03*
X109728000Y-130556000D03*
%TO.N,/Pico_Reset*%
X147955000Y-104267000D03*
%TD*%
D25*
%TO.N,GND*%
X129310000Y-134940000D02*
X129310000Y-133628000D01*
D26*
X169098000Y-136332000D02*
X169164000Y-136398000D01*
X148384479Y-138938000D02*
X148844000Y-138938000D01*
D25*
X185039000Y-141638500D02*
X185834500Y-141638500D01*
D27*
X153924000Y-113792000D02*
X150876000Y-113792000D01*
X108458000Y-120904000D02*
X109982000Y-122428000D01*
D26*
X144272000Y-141732000D02*
X143764000Y-141224000D01*
D25*
X179385000Y-120166000D02*
X180570000Y-120166000D01*
X118491000Y-136050500D02*
X119286500Y-136050500D01*
D27*
X109982000Y-122428000D02*
X119634000Y-122428000D01*
D25*
X180594000Y-120142000D02*
X180570000Y-120166000D01*
D26*
X167338000Y-136332000D02*
X169098000Y-136332000D01*
X145590479Y-141732000D02*
X148384479Y-138938000D01*
D27*
X147066000Y-113792000D02*
X150876000Y-113792000D01*
D25*
X174879000Y-136017000D02*
X175514000Y-136652000D01*
X155702000Y-141224000D02*
X156192011Y-140733989D01*
X185834500Y-141638500D02*
X186436000Y-142240000D01*
D26*
X145353000Y-141732000D02*
X145590479Y-141732000D01*
D25*
X155956000Y-139192000D02*
X154308000Y-139192000D01*
X155194000Y-141732000D02*
X155702000Y-141224000D01*
D26*
X118491000Y-124460000D02*
X119888000Y-124460000D01*
D25*
X156192011Y-139428011D02*
X155956000Y-139192000D01*
X156192011Y-140733989D02*
X156192011Y-139428011D01*
D27*
X159766000Y-142494000D02*
X163068000Y-142494000D01*
D26*
X145353000Y-141732000D02*
X144272000Y-141732000D01*
D25*
X138710000Y-137668000D02*
X140208000Y-137668000D01*
X129286000Y-133604000D02*
X129310000Y-133628000D01*
X174879000Y-134713500D02*
X174879000Y-136017000D01*
D26*
X167412000Y-140970000D02*
X169418000Y-140970000D01*
D25*
X154308000Y-141732000D02*
X155194000Y-141732000D01*
%TO.N,+3V3*%
X107061000Y-129667000D02*
X107061000Y-129125500D01*
D27*
X107696000Y-122428000D02*
X107696000Y-120396000D01*
D25*
X173609000Y-135763000D02*
X173609000Y-134713500D01*
D26*
X157734000Y-134112000D02*
X156990520Y-134855480D01*
D27*
X107696000Y-120396000D02*
X106426000Y-119126000D01*
D25*
X173990000Y-136144000D02*
X173609000Y-135763000D01*
D26*
X151046480Y-134855480D02*
X150303000Y-134112000D01*
D25*
X106426000Y-118170000D02*
X107061000Y-117535000D01*
X108966000Y-131572000D02*
X107061000Y-129667000D01*
D27*
X107061000Y-123063000D02*
X107696000Y-122428000D01*
X107061000Y-124460000D02*
X107061000Y-123063000D01*
D26*
X156990520Y-134855480D02*
X151046480Y-134855480D01*
D25*
X106426000Y-119126000D02*
X106426000Y-118170000D01*
D26*
X148590000Y-134112000D02*
X150303000Y-134112000D01*
D25*
%TO.N,/+12Vmon*%
X135584000Y-133858000D02*
X135584000Y-135688000D01*
X135584000Y-133858000D02*
X134620000Y-133858000D01*
X135584000Y-135688000D02*
X135584000Y-137642000D01*
X134620000Y-133858000D02*
X134112000Y-133350000D01*
X135584000Y-137642000D02*
X135610000Y-137668000D01*
X135382000Y-135890000D02*
X135584000Y-135688000D01*
X132310000Y-135890000D02*
X135382000Y-135890000D01*
%TO.N,Net-(D2-Pad1)*%
X178741000Y-114300000D02*
X183769000Y-114300000D01*
X178435000Y-113994000D02*
X178741000Y-114300000D01*
%TO.N,Net-(D3-Pad1)*%
X178435000Y-108406000D02*
X178746000Y-108717000D01*
X178746000Y-108717000D02*
X183769000Y-108717000D01*
%TO.N,Net-(D4-Pad2)*%
X183769000Y-125424000D02*
X183769000Y-122936000D01*
%TO.N,/+5Vmon*%
X164338000Y-135382000D02*
X163322000Y-135382000D01*
X163322000Y-135382000D02*
X162814000Y-134874000D01*
X164312000Y-140970000D02*
X164312000Y-138430000D01*
X164312000Y-138430000D02*
X164338000Y-138404000D01*
X164338000Y-138404000D02*
X164338000Y-135382000D01*
%TO.N,/ISAreset*%
X178435000Y-125424000D02*
X178435000Y-123166000D01*
X178435000Y-123166000D02*
X176808000Y-123166000D01*
X176784000Y-123190000D02*
X176808000Y-123166000D01*
%TO.N,Net-(J1-Pad2)*%
X183769000Y-128524000D02*
X178435000Y-128524000D01*
X183769000Y-130048000D02*
X183769000Y-128524000D01*
%TO.N,Net-(J1-Pad3)*%
X178562000Y-138430000D02*
X167412000Y-138430000D01*
X179832000Y-139700000D02*
X178562000Y-138430000D01*
%TO.N,Net-(J1-Pad5)*%
X178435000Y-118491000D02*
X178562000Y-118618000D01*
X178435000Y-117094000D02*
X178435000Y-118491000D01*
%TO.N,Net-(J1-Pad7)*%
X178435000Y-111506000D02*
X178435000Y-112649000D01*
X178435000Y-112649000D02*
X178308000Y-112776000D01*
%TO.N,Net-(J1-Pad9)*%
X143510000Y-137160000D02*
X143510000Y-139700000D01*
X140208000Y-133858000D02*
X138684000Y-133858000D01*
X140208000Y-133858000D02*
X143510000Y-137160000D01*
%TO.N,/IOW*%
X151892000Y-141478000D02*
X152146000Y-141732000D01*
X151892000Y-136906000D02*
X154054000Y-136906000D01*
X151892000Y-137922000D02*
X151892000Y-141478000D01*
X154054000Y-136906000D02*
X154128735Y-136831265D01*
%TO.N,/BD7*%
X182377000Y-148463000D02*
X183769000Y-147071000D01*
X183769000Y-147071000D02*
X183769000Y-141638500D01*
%TO.N,/BD6*%
X179837000Y-148463000D02*
X179837000Y-145283000D01*
X182499000Y-143637000D02*
X182499000Y-141638500D01*
X180848000Y-144272000D02*
X181864000Y-144272000D01*
X179837000Y-145283000D02*
X180848000Y-144272000D01*
X181864000Y-144272000D02*
X182499000Y-143637000D01*
%TO.N,/BD5*%
X180340000Y-144272000D02*
X181229000Y-143383000D01*
X181229000Y-143383000D02*
X181229000Y-141638500D01*
X178568000Y-144272000D02*
X180340000Y-144272000D01*
X177297000Y-148463000D02*
X177297000Y-145543000D01*
X177297000Y-145543000D02*
X178568000Y-144272000D01*
%TO.N,/BD4*%
X177800000Y-144272000D02*
X178308000Y-143764000D01*
X178308000Y-143764000D02*
X179832000Y-143764000D01*
X174757000Y-145543000D02*
X176028000Y-144272000D01*
X174757000Y-148463000D02*
X174757000Y-145543000D01*
X179959000Y-143637000D02*
X179959000Y-141638500D01*
X176028000Y-144272000D02*
X177800000Y-144272000D01*
X179832000Y-143764000D02*
X179959000Y-143637000D01*
%TO.N,/BD3*%
X172217000Y-148463000D02*
X172217000Y-145543000D01*
X172217000Y-145543000D02*
X173488000Y-144272000D01*
X175260000Y-144272000D02*
X175768000Y-143764000D01*
X178689000Y-142875000D02*
X178689000Y-141638500D01*
X173488000Y-144272000D02*
X175260000Y-144272000D01*
X175768000Y-143764000D02*
X177800000Y-143764000D01*
X177800000Y-143764000D02*
X178689000Y-142875000D01*
%TO.N,/BD2*%
X171456000Y-143764000D02*
X174752000Y-143764000D01*
X177419000Y-142621000D02*
X177419000Y-141638500D01*
X174752000Y-143764000D02*
X175260000Y-143256000D01*
X175260000Y-143256000D02*
X176784000Y-143256000D01*
X169677000Y-145543000D02*
X171456000Y-143764000D01*
X169677000Y-148463000D02*
X169677000Y-145543000D01*
X176784000Y-143256000D02*
X177419000Y-142621000D01*
%TO.N,/BD1*%
X167137000Y-148463000D02*
X167137000Y-145543000D01*
X169424000Y-143256000D02*
X174752000Y-143256000D01*
X175005520Y-143002480D02*
X175768000Y-143002480D01*
X176149000Y-142621480D02*
X176149000Y-141638500D01*
X167137000Y-145543000D02*
X169424000Y-143256000D01*
X175768000Y-143002480D02*
X176149000Y-142621480D01*
X174752000Y-143256000D02*
X175005520Y-143002480D01*
%TO.N,/BD0*%
X164597000Y-145543000D02*
X167323980Y-142816020D01*
X174683980Y-142816020D02*
X174879000Y-142621000D01*
X174879000Y-142621000D02*
X174879000Y-141638500D01*
X164597000Y-148463000D02*
X164597000Y-145543000D01*
X167323980Y-142816020D02*
X174683980Y-142816020D01*
%TO.N,Net-(J1-Pad42)*%
X159517000Y-144023000D02*
X159512000Y-144018000D01*
X156529000Y-141478000D02*
X156529000Y-137160000D01*
X156275000Y-141732000D02*
X156529000Y-141478000D01*
X154751000Y-135382000D02*
X154308000Y-135382000D01*
X159517000Y-148463000D02*
X159517000Y-144023000D01*
X156529000Y-137160000D02*
X154751000Y-135382000D01*
%TO.N,Net-(J1-Pad43)*%
X158157531Y-141732000D02*
X156977000Y-142912531D01*
X156977000Y-142912531D02*
X156977000Y-148463000D01*
X158157531Y-141732000D02*
X159258000Y-141732000D01*
%TO.N,Net-(J1-Pad44)*%
X159258000Y-140462000D02*
X157545000Y-140462000D01*
X157291000Y-140716000D02*
X157291000Y-142240000D01*
X157545000Y-140462000D02*
X157291000Y-140716000D01*
X154437000Y-145094000D02*
X154437000Y-148463000D01*
X157291000Y-142240000D02*
X154437000Y-145094000D01*
%TO.N,Net-(J1-Pad45)*%
X157037000Y-139957140D02*
X157037000Y-139192000D01*
X157036520Y-142091011D02*
X157036520Y-139957620D01*
X156380012Y-142747520D02*
X154692480Y-142747520D01*
X158307000Y-137922000D02*
X159258000Y-137922000D01*
X154692480Y-142747520D02*
X151897000Y-145543000D01*
X151897000Y-145543000D02*
X151897000Y-148463000D01*
X156380012Y-142747520D02*
X157036520Y-142091011D01*
X157036520Y-139957620D02*
X157037000Y-139957140D01*
X157037000Y-139192000D02*
X158307000Y-137922000D01*
%TO.N,Net-(J1-Pad46)*%
X156783000Y-137668000D02*
X157799000Y-136652000D01*
X156275000Y-142494000D02*
X152406000Y-142494000D01*
X157799000Y-136652000D02*
X159258000Y-136652000D01*
X149357000Y-148463000D02*
X149357000Y-145543000D01*
X156275000Y-142494000D02*
X156783000Y-141986000D01*
X152406000Y-142494000D02*
X149357000Y-145543000D01*
X156783000Y-141986000D02*
X156783000Y-137668000D01*
%TO.N,/BA15*%
X141990000Y-140716000D02*
X146817000Y-145543000D01*
X126103192Y-140716000D02*
X141990000Y-140716000D01*
X123444000Y-130092938D02*
X123444000Y-138056808D01*
X117348000Y-125984000D02*
X119335062Y-125984000D01*
X117221000Y-124460000D02*
X117221000Y-125857000D01*
X146817000Y-145543000D02*
X146817000Y-148463000D01*
X123444000Y-138056808D02*
X126103192Y-140716000D01*
X119335062Y-125984000D02*
X123444000Y-130092938D01*
X117221000Y-125857000D02*
X117348000Y-125984000D01*
%TO.N,/BA14*%
X119230531Y-126238000D02*
X116332000Y-126238000D01*
X116332000Y-126238000D02*
X115951000Y-125857000D01*
X139704000Y-140970000D02*
X125998660Y-140970000D01*
X123189040Y-138160380D02*
X123189040Y-130196509D01*
X144277000Y-148463000D02*
X144277000Y-145543000D01*
X123189040Y-130196509D02*
X119230531Y-126238000D01*
X115951000Y-125857000D02*
X115951000Y-124460000D01*
X144277000Y-145543000D02*
X139704000Y-140970000D01*
X125998660Y-140970000D02*
X123189040Y-138160380D01*
%TO.N,/BA13*%
X122935520Y-138265392D02*
X122935520Y-130301520D01*
X141737000Y-148463000D02*
X141737000Y-145543000D01*
X119126000Y-126492000D02*
X115316000Y-126492000D01*
X114681000Y-125857000D02*
X114681000Y-124460000D01*
X137418960Y-141224960D02*
X125895088Y-141224960D01*
X122935520Y-130301520D02*
X119126000Y-126492000D01*
X125895088Y-141224960D02*
X122935520Y-138265392D01*
X141737000Y-145543000D02*
X137418960Y-141224960D01*
X115316000Y-126492000D02*
X114681000Y-125857000D01*
%TO.N,/BA12*%
X114300480Y-126746480D02*
X119014466Y-126746480D01*
X122682000Y-138370404D02*
X125790076Y-141478480D01*
X119014466Y-126746480D02*
X122682000Y-130414014D01*
X113411000Y-124460000D02*
X113411000Y-125857000D01*
X125790076Y-141478480D02*
X134752502Y-141478480D01*
X134752502Y-141478480D02*
X139197000Y-145922978D01*
X139197000Y-145922978D02*
X139197000Y-148463000D01*
X122682000Y-130414014D02*
X122682000Y-138370404D01*
X113411000Y-125857000D02*
X114300480Y-126746480D01*
%TO.N,/BA11*%
X122427040Y-138473976D02*
X122427040Y-130517586D01*
X114044080Y-127000000D02*
X114045040Y-127000960D01*
X113284000Y-127000000D02*
X114044080Y-127000000D01*
X122427040Y-130517586D02*
X118909454Y-127000000D01*
X132846000Y-141732000D02*
X125685064Y-141732000D01*
X114481680Y-127000960D02*
X114045040Y-127000960D01*
X118909454Y-127000000D02*
X114482640Y-127000000D01*
X125685064Y-141732000D02*
X122427040Y-138473976D01*
X136657000Y-145543000D02*
X132846000Y-141732000D01*
X112141000Y-124460000D02*
X112141000Y-125857000D01*
X136657000Y-148463000D02*
X136657000Y-145543000D01*
X112141000Y-125857000D02*
X113284000Y-127000000D01*
X114482640Y-127000000D02*
X114481680Y-127000960D01*
%TO.N,/BA10*%
X110871000Y-124460000D02*
X110871000Y-125857000D01*
X122173520Y-138578988D02*
X125581012Y-141986480D01*
X113466640Y-127254000D02*
X113467120Y-127254480D01*
X122173520Y-130622598D02*
X122173520Y-138578988D01*
X113029520Y-127254480D02*
X113030000Y-127254000D01*
X113030000Y-127254000D02*
X113466640Y-127254000D01*
X118804923Y-127254000D02*
X122173520Y-130622598D01*
X113467120Y-127254480D02*
X117093520Y-127254480D01*
X117093520Y-127254480D02*
X117094000Y-127254000D01*
X130560480Y-141986480D02*
X134117000Y-145543000D01*
X117094000Y-127254000D02*
X118804923Y-127254000D01*
X112268480Y-127254480D02*
X113029520Y-127254480D01*
X110871000Y-125857000D02*
X112268480Y-127254480D01*
X125581012Y-141986480D02*
X130560480Y-141986480D01*
X134117000Y-145543000D02*
X134117000Y-148463000D01*
%TO.N,/BA9*%
X131577000Y-145543000D02*
X128274000Y-142240000D01*
X109601000Y-125857000D02*
X109601000Y-124460000D01*
X125476000Y-142240000D02*
X121920000Y-138684000D01*
X121920000Y-130727609D02*
X118700392Y-127508000D01*
X121920000Y-138684000D02*
X121920000Y-130727609D01*
X118700392Y-127508000D02*
X111252000Y-127508000D01*
X131577000Y-148463000D02*
X131577000Y-145543000D01*
X128274000Y-142240000D02*
X125476000Y-142240000D01*
X111252000Y-127508000D02*
X109601000Y-125857000D01*
%TO.N,Net-(J1-Pad54)*%
X123190000Y-142494000D02*
X120650000Y-139954000D01*
X129037000Y-145543000D02*
X129037000Y-148463000D01*
X125988000Y-142494000D02*
X129037000Y-145543000D01*
X120650000Y-139954000D02*
X120650000Y-134366000D01*
X125988000Y-142494000D02*
X123190000Y-142494000D01*
%TO.N,/BA7*%
X119194020Y-137228020D02*
X117416020Y-137228020D01*
X117221000Y-137033000D02*
X117221000Y-136050500D01*
X126497000Y-144526000D02*
X124719000Y-142748000D01*
X117416020Y-137228020D02*
X117221000Y-137033000D01*
X120904000Y-142748000D02*
X119634000Y-141478000D01*
X124719000Y-142748000D02*
X120904000Y-142748000D01*
X119634000Y-141478000D02*
X119634000Y-137668000D01*
X126497000Y-148463000D02*
X126497000Y-144526000D01*
X119634000Y-137668000D02*
X119194020Y-137228020D01*
%TO.N,Net-(J1-Pad56)*%
X121670000Y-143256000D02*
X119862000Y-143256000D01*
X119862000Y-143256000D02*
X118364000Y-141758000D01*
X123957000Y-148463000D02*
X123957000Y-145543000D01*
X123957000Y-145543000D02*
X121670000Y-143256000D01*
%TO.N,/BA5*%
X119638000Y-143764000D02*
X118364000Y-143764000D01*
X116332000Y-137899860D02*
X114681000Y-136248860D01*
X114681000Y-136248860D02*
X114681000Y-136050500D01*
X121417000Y-148463000D02*
X121417000Y-145543000D01*
X116332000Y-141732000D02*
X116332000Y-137899860D01*
X121417000Y-145543000D02*
X119638000Y-143764000D01*
X118364000Y-143764000D02*
X116332000Y-141732000D01*
%TO.N,Net-(J1-Pad58)*%
X118877000Y-145543000D02*
X115092000Y-141758000D01*
X115092000Y-141758000D02*
X114808000Y-141758000D01*
X118877000Y-148463000D02*
X118877000Y-145543000D01*
%TO.N,/BA3*%
X112776000Y-142240000D02*
X112776000Y-137668000D01*
X112141000Y-137033000D02*
X112141000Y-136050500D01*
X116337000Y-148463000D02*
X116337000Y-145801000D01*
X116337000Y-145801000D02*
X112776000Y-142240000D01*
X112776000Y-137668000D02*
X112141000Y-137033000D01*
%TO.N,Net-(J1-Pad60)*%
X113797000Y-148463000D02*
X113797000Y-144303000D01*
X113797000Y-144303000D02*
X111252000Y-141758000D01*
%TO.N,/BA1*%
X111257000Y-148463000D02*
X111257000Y-144785000D01*
X111257000Y-144785000D02*
X109601000Y-143129000D01*
X109601000Y-143129000D02*
X109601000Y-136050500D01*
%TO.N,/BA0*%
X108717000Y-136436500D02*
X108331000Y-136050500D01*
X108717000Y-148463000D02*
X108717000Y-136436500D01*
D26*
%TO.N,+5V*%
X125730000Y-111252000D02*
X109982000Y-111252000D01*
X127508000Y-109474000D02*
X125730000Y-111252000D01*
X109982000Y-111252000D02*
X107950000Y-113284000D01*
D25*
%TO.N,/BA8*%
X108331000Y-124460000D02*
X108331000Y-125857000D01*
X120650000Y-129816140D02*
X118595860Y-127762000D01*
X108331000Y-125857000D02*
X110236000Y-127762000D01*
X120650000Y-131266000D02*
X120650000Y-129816140D01*
X118595860Y-127762000D02*
X110236000Y-127762000D01*
%TO.N,/BA6*%
X118360140Y-138658000D02*
X115951000Y-136248860D01*
X115951000Y-136248860D02*
X115951000Y-136050500D01*
X118364000Y-138658000D02*
X118360140Y-138658000D01*
%TO.N,/BA4*%
X113411000Y-137261000D02*
X113411000Y-136050500D01*
X114808000Y-138658000D02*
X113411000Y-137261000D01*
%TO.N,/BA2*%
X110744000Y-136177500D02*
X110871000Y-136050500D01*
X110744000Y-137160000D02*
X110744000Y-136177500D01*
X111252000Y-138658000D02*
X111252000Y-137668000D01*
X111252000Y-137668000D02*
X110744000Y-137160000D01*
%TO.N,Net-(U1-Pad1)*%
X154308000Y-134112000D02*
X153817980Y-133621980D01*
X153817980Y-133621980D02*
X145843020Y-133621980D01*
X145843020Y-133621980D02*
X145353000Y-134112000D01*
%TO.N,Net-(U1-Pad10)*%
X159258000Y-139192000D02*
X157799000Y-139192000D01*
X146812000Y-135382000D02*
X145353000Y-135382000D01*
%TO.N,Net-(U1-Pad13)*%
X159258000Y-135382000D02*
X157799000Y-135382000D01*
X150303000Y-135382000D02*
X151892000Y-135382000D01*
%TO.N,/bus_ready*%
X153924000Y-119634000D02*
X155448000Y-119634000D01*
X155448000Y-119634000D02*
X165608000Y-109474000D01*
X148590000Y-136652000D02*
X150303000Y-136652000D01*
%TO.N,/CE_Byte*%
X126238000Y-140462000D02*
X142240000Y-140462000D01*
X142240000Y-140462000D02*
X142494000Y-140208000D01*
X108331000Y-127635000D02*
X108331000Y-129125500D01*
X152654000Y-118364000D02*
X154178000Y-118364000D01*
X154178000Y-118364000D02*
X163068000Y-109474000D01*
X108204000Y-127508000D02*
X108331000Y-127635000D01*
X124206000Y-133096000D02*
X124206000Y-138430000D01*
X154308000Y-140462000D02*
X155702000Y-140462000D01*
X124206000Y-138430000D02*
X126238000Y-140462000D01*
%TO.N,/PD7*%
X152908000Y-129794000D02*
X153208011Y-130094011D01*
X153208011Y-130094011D02*
X180617871Y-130094011D01*
X152908000Y-127254000D02*
X152908000Y-129794000D01*
X185039000Y-134515140D02*
X185039000Y-134713500D01*
X180617871Y-130094011D02*
X185039000Y-134515140D01*
%TO.N,/PD6*%
X183769000Y-134713500D02*
X183769000Y-133603672D01*
X150368000Y-128594022D02*
X150368000Y-127254000D01*
X152139314Y-130365336D02*
X150368000Y-128594022D01*
X183769000Y-133603672D02*
X180530664Y-130365336D01*
X180530664Y-130365336D02*
X152139314Y-130365336D01*
%TO.N,/PD5*%
X180402856Y-130618856D02*
X149852834Y-130618856D01*
X182499000Y-132715000D02*
X180402856Y-130618856D01*
X147828000Y-128594022D02*
X147828000Y-127254000D01*
X149852834Y-130618856D02*
X147828000Y-128594022D01*
X182499000Y-134713500D02*
X182499000Y-132715000D01*
%TO.N,/PD4*%
X181229000Y-134713500D02*
X181229000Y-131953000D01*
X181229000Y-131953000D02*
X180148376Y-130872376D01*
X180148376Y-130872376D02*
X147566354Y-130872376D01*
X147566354Y-130872376D02*
X145288000Y-128594022D01*
X145288000Y-128594022D02*
X145288000Y-127254000D01*
%TO.N,/PD3*%
X178877896Y-131125896D02*
X142739874Y-131125896D01*
X179959000Y-134713500D02*
X179959000Y-132207000D01*
X142739874Y-131125896D02*
X140208000Y-128594022D01*
X179959000Y-132207000D02*
X178877896Y-131125896D01*
X140208000Y-128594022D02*
X140208000Y-127254000D01*
%TO.N,/PD2*%
X178816000Y-132588000D02*
X177607416Y-131379416D01*
X177607416Y-131379416D02*
X140453394Y-131379416D01*
X140453394Y-131379416D02*
X137668000Y-128594022D01*
X178816000Y-134586500D02*
X178816000Y-132588000D01*
X178689000Y-134713500D02*
X178816000Y-134586500D01*
X137668000Y-128594022D02*
X137668000Y-127254000D01*
%TO.N,/PD1*%
X138166914Y-131632936D02*
X135128000Y-128594022D01*
X135128000Y-128594022D02*
X135128000Y-127254000D01*
X177419000Y-132207000D02*
X176844936Y-131632936D01*
X177419000Y-134713500D02*
X177419000Y-132207000D01*
X176844936Y-131632936D02*
X138166914Y-131632936D01*
%TO.N,/PD0*%
X135880434Y-131886456D02*
X132588000Y-128594022D01*
X175574456Y-131886456D02*
X135880434Y-131886456D01*
X132588000Y-128594022D02*
X132588000Y-127254000D01*
X176149000Y-134713500D02*
X176149000Y-132461000D01*
X176149000Y-132461000D02*
X175574456Y-131886456D01*
%TO.N,/PA7*%
X120647149Y-119362491D02*
X124984579Y-123699920D01*
X159406988Y-123699920D02*
X170688000Y-112418908D01*
X118491000Y-118999000D02*
X118618000Y-119126000D01*
X118618000Y-119126000D02*
X118854491Y-119362491D01*
X118491000Y-129125500D02*
X118491000Y-130429000D01*
X124984579Y-123699920D02*
X159406988Y-123699920D01*
X170688000Y-112418908D02*
X170688000Y-109474000D01*
X118854491Y-119362491D02*
X120647149Y-119362491D01*
X118491000Y-117535000D02*
X118491000Y-118999000D01*
X118491000Y-130429000D02*
X118618000Y-130556000D01*
%TO.N,/PA6*%
X117221000Y-118999000D02*
X117348000Y-119126000D01*
X120542139Y-119616011D02*
X120605064Y-119678936D01*
X120542138Y-119616011D02*
X120605064Y-119678936D01*
X117221000Y-129125500D02*
X117221000Y-130429000D01*
X159512000Y-123953440D02*
X173228000Y-110237440D01*
X117221000Y-130429000D02*
X117348000Y-130556000D01*
X117838011Y-119616011D02*
X120542139Y-119616011D01*
X117221000Y-117535000D02*
X117221000Y-118999000D01*
X124879568Y-123953440D02*
X159512000Y-123953440D01*
X173228000Y-110237440D02*
X173228000Y-109474000D01*
X120605064Y-119678936D02*
X124879568Y-123953440D01*
X117348000Y-119126000D02*
X117838011Y-119616011D01*
%TO.N,/PA5*%
X170180000Y-124206000D02*
X173228000Y-127254000D01*
X120456076Y-119888480D02*
X120679798Y-120112202D01*
X124774556Y-124206960D02*
X165607040Y-124206960D01*
X165608000Y-124206000D02*
X170180000Y-124206000D01*
X116078000Y-119126000D02*
X116840480Y-119888480D01*
X116078000Y-119126000D02*
X115951000Y-118999000D01*
X116078000Y-130556000D02*
X115951000Y-130429000D01*
X120679798Y-120112202D02*
X124774556Y-124206960D01*
X115951000Y-117535000D02*
X115951000Y-118999000D01*
X120456075Y-119888480D02*
X120679798Y-120112202D01*
X115951000Y-129125500D02*
X115951000Y-130429000D01*
X116840480Y-119888480D02*
X120456076Y-119888480D01*
X165607040Y-124206960D02*
X165608000Y-124206000D01*
%TO.N,/PA4*%
X114681000Y-118999000D02*
X114808000Y-119126000D01*
X120351064Y-120142000D02*
X124669544Y-124460480D01*
X114681000Y-130429000D02*
X114808000Y-130556000D01*
X114681000Y-117535000D02*
X114681000Y-118999000D01*
X115824000Y-120142000D02*
X120351064Y-120142000D01*
X124669544Y-124460480D02*
X167894480Y-124460480D01*
X167894480Y-124460480D02*
X170688000Y-127254000D01*
X114808000Y-119126000D02*
X115824000Y-120142000D01*
X114681000Y-129125500D02*
X114681000Y-130429000D01*
%TO.N,/PA3*%
X113411000Y-118999000D02*
X113538000Y-119126000D01*
X163068000Y-124714000D02*
X165608000Y-127254000D01*
X120246532Y-120396000D02*
X124564532Y-124714000D01*
X114808000Y-120396000D02*
X120246532Y-120396000D01*
X113538000Y-119126000D02*
X114808000Y-120396000D01*
X113411000Y-129125500D02*
X113411000Y-130429000D01*
X165608000Y-127254000D02*
X163068480Y-124714480D01*
X113411000Y-130429000D02*
X113538000Y-130556000D01*
X124564532Y-124714000D02*
X163068000Y-124714000D01*
X113411000Y-117535000D02*
X113411000Y-118999000D01*
%TO.N,/PA2*%
X112141000Y-129125500D02*
X112141000Y-130429000D01*
X112141000Y-117535000D02*
X112141000Y-118999000D01*
X112141000Y-118999000D02*
X112268000Y-119126000D01*
X112141000Y-130429000D02*
X112268000Y-130556000D01*
X163068000Y-127254000D02*
X160782000Y-124968000D01*
X160782000Y-124968000D02*
X124460000Y-124968000D01*
X120142480Y-120650480D02*
X113792480Y-120650480D01*
X113792480Y-120650480D02*
X112268000Y-119126000D01*
X124460000Y-124968000D02*
X120142480Y-120650480D01*
%TO.N,/PA1*%
X158496480Y-125222480D02*
X160528000Y-127254000D01*
X110871000Y-129125500D02*
X110871000Y-130429000D01*
X110871000Y-118999000D02*
X110998000Y-119126000D01*
X110871000Y-117535000D02*
X110871000Y-118999000D01*
X112776000Y-120904000D02*
X119992532Y-120904000D01*
X119992532Y-120904000D02*
X124311012Y-125222480D01*
X110998000Y-119126000D02*
X112776000Y-120904000D01*
X124311012Y-125222480D02*
X158496480Y-125222480D01*
X110871000Y-130429000D02*
X110998000Y-130556000D01*
%TO.N,/PA0*%
X109601000Y-117535000D02*
X109601000Y-118999000D01*
X119888000Y-121158000D02*
X124206000Y-125476000D01*
X109728000Y-119126000D02*
X111760000Y-121158000D01*
X111760000Y-121158000D02*
X119888000Y-121158000D01*
X109601000Y-130429000D02*
X109728000Y-130556000D01*
X124206000Y-125476000D02*
X156210000Y-125476000D01*
X109601000Y-118999000D02*
X109728000Y-119126000D01*
X156210000Y-125476000D02*
X157988000Y-127254000D01*
X109601000Y-129125500D02*
X109601000Y-130429000D01*
%TO.N,/Pico_Reset*%
X150368000Y-106680000D02*
X147955000Y-104267000D01*
X150368000Y-109474000D02*
X150368000Y-106680000D01*
%TO.N,Net-(U1-Pad4)*%
X148676999Y-137431980D02*
X153817980Y-137431980D01*
X111321019Y-121412000D02*
X119783468Y-121412000D01*
X140208000Y-132334000D02*
X143931001Y-136057001D01*
X147302020Y-136057001D02*
X148676999Y-137431980D01*
X119783468Y-121412000D02*
X123444000Y-125072532D01*
X143931001Y-136057001D02*
X147302020Y-136057001D01*
X126167978Y-132334000D02*
X140208000Y-132334000D01*
X108331000Y-118421981D02*
X111321019Y-121412000D01*
X123444000Y-129610022D02*
X126167978Y-132334000D01*
X123444000Y-125072532D02*
X123444000Y-129610022D01*
X153817980Y-137431980D02*
X154308000Y-137922000D01*
X108331000Y-117535000D02*
X108331000Y-118421981D01*
%TD*%
%TA.AperFunction,Conductor*%
%TO.N,+3V3*%
G36*
X186885621Y-102128502D02*
G01*
X186932114Y-102182158D01*
X186943500Y-102234500D01*
X186943500Y-141383820D01*
X186923498Y-141451941D01*
X186869842Y-141498434D01*
X186799568Y-141508538D01*
X186775234Y-141502519D01*
X186628428Y-141450244D01*
X186628422Y-141450243D01*
X186621790Y-141447881D01*
X186614802Y-141447048D01*
X186614799Y-141447047D01*
X186473256Y-141430169D01*
X186407983Y-141402241D01*
X186399080Y-141394150D01*
X186271319Y-141266389D01*
X186260451Y-141253998D01*
X186247478Y-141237091D01*
X186242455Y-141230545D01*
X186205039Y-141201834D01*
X186122968Y-141138859D01*
X185983822Y-141081223D01*
X185957055Y-141077699D01*
X185892127Y-141048977D01*
X185853035Y-140989712D01*
X185847500Y-140952777D01*
X185847500Y-140734498D01*
X185847307Y-140732042D01*
X185845067Y-140703579D01*
X185845066Y-140703574D01*
X185844562Y-140697169D01*
X185803258Y-140554999D01*
X185800357Y-140545012D01*
X185800356Y-140545010D01*
X185798145Y-140537399D01*
X185752151Y-140459627D01*
X185717491Y-140401020D01*
X185717489Y-140401017D01*
X185713453Y-140394193D01*
X185595807Y-140276547D01*
X185588983Y-140272511D01*
X185588980Y-140272509D01*
X185459427Y-140195892D01*
X185459428Y-140195892D01*
X185452601Y-140191855D01*
X185444990Y-140189644D01*
X185444988Y-140189643D01*
X185357142Y-140164122D01*
X185292831Y-140145438D01*
X185286426Y-140144934D01*
X185286421Y-140144933D01*
X185257958Y-140142693D01*
X185257950Y-140142693D01*
X185255502Y-140142500D01*
X184822498Y-140142500D01*
X184820050Y-140142693D01*
X184820042Y-140142693D01*
X184791579Y-140144933D01*
X184791574Y-140144934D01*
X184785169Y-140145438D01*
X184720858Y-140164122D01*
X184633012Y-140189643D01*
X184633010Y-140189644D01*
X184625399Y-140191855D01*
X184482193Y-140276547D01*
X184479511Y-140279229D01*
X184415139Y-140304502D01*
X184345516Y-140290600D01*
X184329688Y-140280428D01*
X184325807Y-140276547D01*
X184182601Y-140191855D01*
X184174990Y-140189644D01*
X184174988Y-140189643D01*
X184087142Y-140164122D01*
X184022831Y-140145438D01*
X184016426Y-140144934D01*
X184016421Y-140144933D01*
X183987958Y-140142693D01*
X183987950Y-140142693D01*
X183985502Y-140142500D01*
X183552498Y-140142500D01*
X183550050Y-140142693D01*
X183550042Y-140142693D01*
X183521579Y-140144933D01*
X183521574Y-140144934D01*
X183515169Y-140145438D01*
X183450858Y-140164122D01*
X183363012Y-140189643D01*
X183363010Y-140189644D01*
X183355399Y-140191855D01*
X183212193Y-140276547D01*
X183209511Y-140279229D01*
X183145139Y-140304502D01*
X183075516Y-140290600D01*
X183059688Y-140280428D01*
X183055807Y-140276547D01*
X182912601Y-140191855D01*
X182904990Y-140189644D01*
X182904988Y-140189643D01*
X182817142Y-140164122D01*
X182752831Y-140145438D01*
X182746426Y-140144934D01*
X182746421Y-140144933D01*
X182717958Y-140142693D01*
X182717950Y-140142693D01*
X182715502Y-140142500D01*
X182282498Y-140142500D01*
X182280050Y-140142693D01*
X182280042Y-140142693D01*
X182251579Y-140144933D01*
X182251574Y-140144934D01*
X182245169Y-140145438D01*
X182180858Y-140164122D01*
X182093012Y-140189643D01*
X182093010Y-140189644D01*
X182085399Y-140191855D01*
X181942193Y-140276547D01*
X181939511Y-140279229D01*
X181875139Y-140304502D01*
X181805516Y-140290600D01*
X181789688Y-140280428D01*
X181785807Y-140276547D01*
X181642601Y-140191855D01*
X181634990Y-140189644D01*
X181634988Y-140189643D01*
X181547142Y-140164122D01*
X181482831Y-140145438D01*
X181476426Y-140144934D01*
X181476421Y-140144933D01*
X181447958Y-140142693D01*
X181447950Y-140142693D01*
X181445502Y-140142500D01*
X181012498Y-140142500D01*
X181010050Y-140142693D01*
X181010042Y-140142693D01*
X180981579Y-140144933D01*
X180981574Y-140144934D01*
X180975169Y-140145438D01*
X180910858Y-140164122D01*
X180823012Y-140189643D01*
X180823010Y-140189644D01*
X180815399Y-140191855D01*
X180728128Y-140243467D01*
X180659316Y-140260926D01*
X180591984Y-140238410D01*
X180547515Y-140183066D01*
X180540026Y-140112465D01*
X180551871Y-140077580D01*
X180555643Y-140071902D01*
X180604799Y-139942500D01*
X180617555Y-139908920D01*
X180617556Y-139908918D01*
X180620055Y-139902338D01*
X180629893Y-139832335D01*
X180644748Y-139726639D01*
X180644748Y-139726636D01*
X180645299Y-139722717D01*
X180645616Y-139700000D01*
X180625397Y-139519745D01*
X180623080Y-139513091D01*
X180568064Y-139355106D01*
X180568062Y-139355103D01*
X180565745Y-139348448D01*
X180481837Y-139214166D01*
X180473359Y-139200598D01*
X180469626Y-139194624D01*
X180455936Y-139180838D01*
X180346778Y-139070915D01*
X180346774Y-139070912D01*
X180341815Y-139065918D01*
X180302926Y-139041238D01*
X180264770Y-139017024D01*
X180188666Y-138968727D01*
X180159463Y-138958328D01*
X180024425Y-138910243D01*
X180024420Y-138910242D01*
X180017790Y-138907881D01*
X180010802Y-138907048D01*
X180010799Y-138907047D01*
X179869256Y-138890169D01*
X179803983Y-138862241D01*
X179795080Y-138854150D01*
X178998816Y-138057886D01*
X178987949Y-138045495D01*
X178974984Y-138028598D01*
X178974981Y-138028595D01*
X178969955Y-138022045D01*
X178927226Y-137989257D01*
X178911153Y-137976924D01*
X178857019Y-137935386D01*
X178850468Y-137930359D01*
X178711322Y-137872723D01*
X178705162Y-137871912D01*
X178680070Y-137868608D01*
X178599503Y-137858001D01*
X178599494Y-137858000D01*
X178599491Y-137858000D01*
X178599479Y-137857999D01*
X178570189Y-137854143D01*
X178570188Y-137854143D01*
X178562000Y-137853065D01*
X178553812Y-137854143D01*
X178553811Y-137854143D01*
X178532702Y-137856922D01*
X178516256Y-137858000D01*
X168694831Y-137858000D01*
X168626710Y-137837998D01*
X168580217Y-137784342D01*
X168569504Y-137745003D01*
X168569255Y-137742598D01*
X168565405Y-137705498D01*
X168560238Y-137655693D01*
X168560237Y-137655690D01*
X168559526Y-137648834D01*
X168538839Y-137586826D01*
X168505868Y-137488002D01*
X168503550Y-137481054D01*
X168440230Y-137378730D01*
X168421393Y-137310279D01*
X168442555Y-137242509D01*
X168503147Y-137194446D01*
X168526293Y-137185769D01*
X168526296Y-137185767D01*
X168534705Y-137182615D01*
X168617764Y-137120366D01*
X168627975Y-137112713D01*
X168694481Y-137087865D01*
X168763864Y-137102918D01*
X168772518Y-137108097D01*
X168797159Y-137124222D01*
X168803763Y-137126678D01*
X168803765Y-137126679D01*
X168960558Y-137184990D01*
X168960560Y-137184990D01*
X168967168Y-137187448D01*
X169050995Y-137198633D01*
X169139980Y-137210507D01*
X169139984Y-137210507D01*
X169146961Y-137211438D01*
X169153972Y-137210800D01*
X169153976Y-137210800D01*
X169296459Y-137197832D01*
X169327600Y-137194998D01*
X169334302Y-137192820D01*
X169334304Y-137192820D01*
X169493409Y-137141124D01*
X169493412Y-137141123D01*
X169500108Y-137138947D01*
X169613233Y-137071511D01*
X169649860Y-137049677D01*
X169649862Y-137049676D01*
X169655912Y-137046069D01*
X169787266Y-136920982D01*
X169887643Y-136769902D01*
X169933569Y-136649003D01*
X169949555Y-136606920D01*
X169949556Y-136606918D01*
X169952055Y-136600338D01*
X169955633Y-136574880D01*
X169976748Y-136424639D01*
X169976748Y-136424636D01*
X169977299Y-136420717D01*
X169977616Y-136398000D01*
X169957397Y-136217745D01*
X169952878Y-136204767D01*
X169900064Y-136053106D01*
X169900062Y-136053103D01*
X169897745Y-136046448D01*
X169842800Y-135958516D01*
X169805359Y-135898598D01*
X169801626Y-135892624D01*
X169781544Y-135872401D01*
X169678778Y-135768915D01*
X169678774Y-135768912D01*
X169673815Y-135763918D01*
X169658033Y-135753902D01*
X169610698Y-135723863D01*
X169520666Y-135666727D01*
X169484469Y-135653838D01*
X169375356Y-135614984D01*
X172801001Y-135614984D01*
X172801195Y-135619920D01*
X172803430Y-135648336D01*
X172805730Y-135660931D01*
X172848107Y-135806790D01*
X172854352Y-135821221D01*
X172930911Y-135950678D01*
X172940551Y-135963104D01*
X173046896Y-136069449D01*
X173059322Y-136079089D01*
X173188779Y-136155648D01*
X173203210Y-136161893D01*
X173337605Y-136200939D01*
X173351706Y-136200899D01*
X173355000Y-136193630D01*
X173355000Y-134985615D01*
X173350525Y-134970376D01*
X173349135Y-134969171D01*
X173341452Y-134967500D01*
X172819116Y-134967500D01*
X172803877Y-134971975D01*
X172802672Y-134973365D01*
X172801001Y-134981048D01*
X172801001Y-135614984D01*
X169375356Y-135614984D01*
X169356425Y-135608243D01*
X169356420Y-135608242D01*
X169349790Y-135605881D01*
X169342802Y-135605048D01*
X169342799Y-135605047D01*
X169219698Y-135590368D01*
X169169680Y-135584404D01*
X169162677Y-135585140D01*
X169162676Y-135585140D01*
X168996288Y-135602628D01*
X168996286Y-135602629D01*
X168989288Y-135603364D01*
X168893916Y-135635831D01*
X168827228Y-135658533D01*
X168756296Y-135661551D01*
X168694992Y-135625740D01*
X168685797Y-135614820D01*
X168656643Y-135575920D01*
X168656642Y-135575919D01*
X168651261Y-135568739D01*
X168631607Y-135554009D01*
X168536628Y-135482826D01*
X168494113Y-135425967D01*
X168489087Y-135355148D01*
X168523147Y-135292855D01*
X168536628Y-135281174D01*
X168644080Y-135200643D01*
X168644081Y-135200642D01*
X168651261Y-135195261D01*
X168738615Y-135078705D01*
X168789745Y-134942316D01*
X168796500Y-134880134D01*
X168796500Y-134441385D01*
X172801000Y-134441385D01*
X172805475Y-134456624D01*
X172806865Y-134457829D01*
X172814548Y-134459500D01*
X173336885Y-134459500D01*
X173352124Y-134455025D01*
X173353329Y-134453635D01*
X173355000Y-134445952D01*
X173355000Y-133239122D01*
X173351027Y-133225591D01*
X173343129Y-133224456D01*
X173203210Y-133265107D01*
X173188779Y-133271352D01*
X173059322Y-133347911D01*
X173046896Y-133357551D01*
X172940551Y-133463896D01*
X172930911Y-133476322D01*
X172854352Y-133605779D01*
X172848107Y-133620210D01*
X172805731Y-133766065D01*
X172803430Y-133778667D01*
X172801193Y-133807084D01*
X172801000Y-133812014D01*
X172801000Y-134441385D01*
X168796500Y-134441385D01*
X168796500Y-133983866D01*
X168789745Y-133921684D01*
X168738615Y-133785295D01*
X168651261Y-133668739D01*
X168534705Y-133581385D01*
X168398316Y-133530255D01*
X168336134Y-133523500D01*
X166339866Y-133523500D01*
X166277684Y-133530255D01*
X166141295Y-133581385D01*
X166024739Y-133668739D01*
X165937385Y-133785295D01*
X165886255Y-133921684D01*
X165879500Y-133983866D01*
X165879500Y-134545059D01*
X165859498Y-134613180D01*
X165805842Y-134659673D01*
X165735568Y-134669777D01*
X165670988Y-134640283D01*
X165663266Y-134631995D01*
X165662992Y-134632269D01*
X165656642Y-134625919D01*
X165651261Y-134618739D01*
X165534705Y-134531385D01*
X165398316Y-134480255D01*
X165336134Y-134473500D01*
X163587002Y-134473500D01*
X163518881Y-134453498D01*
X163480148Y-134414270D01*
X163476225Y-134407991D01*
X163451626Y-134368624D01*
X163446664Y-134363627D01*
X163328778Y-134244915D01*
X163328774Y-134244912D01*
X163323815Y-134239918D01*
X163312697Y-134232862D01*
X163235574Y-134183919D01*
X163170666Y-134142727D01*
X163141463Y-134132328D01*
X163006425Y-134084243D01*
X163006420Y-134084242D01*
X162999790Y-134081881D01*
X162992802Y-134081048D01*
X162992799Y-134081047D01*
X162869698Y-134066368D01*
X162819680Y-134060404D01*
X162812677Y-134061140D01*
X162812676Y-134061140D01*
X162646288Y-134078628D01*
X162646286Y-134078629D01*
X162639288Y-134079364D01*
X162467579Y-134137818D01*
X162425935Y-134163438D01*
X162319095Y-134229166D01*
X162319092Y-134229168D01*
X162313088Y-134232862D01*
X162308053Y-134237793D01*
X162308050Y-134237795D01*
X162188525Y-134354843D01*
X162183493Y-134359771D01*
X162179678Y-134365691D01*
X162179677Y-134365692D01*
X162127953Y-134445952D01*
X162085235Y-134512238D01*
X162082826Y-134518858D01*
X162082824Y-134518861D01*
X162035271Y-134649512D01*
X162023197Y-134682685D01*
X162000463Y-134862640D01*
X162018163Y-135043160D01*
X162075418Y-135215273D01*
X162079065Y-135221295D01*
X162079066Y-135221297D01*
X162160129Y-135355148D01*
X162169380Y-135370424D01*
X162174269Y-135375487D01*
X162174270Y-135375488D01*
X162238371Y-135441866D01*
X162295382Y-135500902D01*
X162362960Y-135545124D01*
X162440758Y-135596033D01*
X162447159Y-135600222D01*
X162453763Y-135602678D01*
X162453765Y-135602679D01*
X162610558Y-135660990D01*
X162610560Y-135660990D01*
X162617168Y-135663448D01*
X162696667Y-135674056D01*
X162770165Y-135683863D01*
X162835042Y-135712699D01*
X162874030Y-135772033D01*
X162879500Y-135808756D01*
X162879500Y-135830134D01*
X162886255Y-135892316D01*
X162937385Y-136028705D01*
X163024739Y-136145261D01*
X163141295Y-136232615D01*
X163277684Y-136283745D01*
X163339866Y-136290500D01*
X163640000Y-136290500D01*
X163708121Y-136310502D01*
X163754614Y-136364158D01*
X163766000Y-136416500D01*
X163766000Y-136963292D01*
X163745998Y-137031413D01*
X163692342Y-137077906D01*
X163679882Y-137082814D01*
X163588054Y-137113450D01*
X163437652Y-137206522D01*
X163312695Y-137331697D01*
X163308855Y-137337927D01*
X163308854Y-137337928D01*
X163230256Y-137465438D01*
X163219885Y-137482262D01*
X163164203Y-137650139D01*
X163163503Y-137656975D01*
X163163502Y-137656978D01*
X163161967Y-137671962D01*
X163153500Y-137754600D01*
X163153500Y-139105400D01*
X163153837Y-139108646D01*
X163153837Y-139108650D01*
X163163629Y-139203021D01*
X163164474Y-139211166D01*
X163220450Y-139378946D01*
X163313522Y-139529348D01*
X163318704Y-139534521D01*
X163395109Y-139610793D01*
X163429188Y-139673076D01*
X163424185Y-139743896D01*
X163395264Y-139788984D01*
X163312695Y-139871697D01*
X163308855Y-139877927D01*
X163308854Y-139877928D01*
X163293808Y-139902338D01*
X163219885Y-140022262D01*
X163213480Y-140041573D01*
X163169104Y-140175364D01*
X163164203Y-140190139D01*
X163163503Y-140196975D01*
X163163502Y-140196978D01*
X163161699Y-140214579D01*
X163153500Y-140294600D01*
X163153500Y-141558563D01*
X163133498Y-141626684D01*
X163079842Y-141673177D01*
X163040671Y-141683873D01*
X162900288Y-141698628D01*
X162900286Y-141698629D01*
X162893288Y-141699364D01*
X162803094Y-141730068D01*
X162728249Y-141755547D01*
X162728246Y-141755548D01*
X162721579Y-141757818D01*
X162715576Y-141761511D01*
X162715574Y-141761512D01*
X162706949Y-141766818D01*
X162640928Y-141785500D01*
X160867500Y-141785500D01*
X160799379Y-141765498D01*
X160752886Y-141711842D01*
X160741500Y-141659500D01*
X160741500Y-141515498D01*
X160740967Y-141508727D01*
X160739067Y-141484579D01*
X160739066Y-141484574D01*
X160738562Y-141478169D01*
X160692145Y-141318399D01*
X160607453Y-141175193D01*
X160604771Y-141172511D01*
X160579498Y-141108139D01*
X160593400Y-141038516D01*
X160603572Y-141022688D01*
X160607453Y-141018807D01*
X160692145Y-140875601D01*
X160738562Y-140715831D01*
X160739520Y-140703667D01*
X160741307Y-140680958D01*
X160741307Y-140680950D01*
X160741500Y-140678502D01*
X160741500Y-140245498D01*
X160740942Y-140238410D01*
X160739067Y-140214579D01*
X160739066Y-140214574D01*
X160738562Y-140208169D01*
X160692145Y-140048399D01*
X160607453Y-139905193D01*
X160604771Y-139902511D01*
X160579498Y-139838139D01*
X160593400Y-139768516D01*
X160603572Y-139752688D01*
X160607453Y-139748807D01*
X160692145Y-139605601D01*
X160701967Y-139571795D01*
X160731672Y-139469547D01*
X160738562Y-139445831D01*
X160739077Y-139439296D01*
X160741307Y-139410958D01*
X160741307Y-139410950D01*
X160741500Y-139408502D01*
X160741500Y-138975498D01*
X160738562Y-138938169D01*
X160708101Y-138833322D01*
X160694357Y-138786012D01*
X160694356Y-138786010D01*
X160692145Y-138778399D01*
X160607453Y-138635193D01*
X160604771Y-138632511D01*
X160579498Y-138568139D01*
X160593400Y-138498516D01*
X160603572Y-138482688D01*
X160607453Y-138478807D01*
X160692145Y-138335601D01*
X160696772Y-138319677D01*
X160722832Y-138229975D01*
X160738562Y-138175831D01*
X160741118Y-138143364D01*
X160741307Y-138140958D01*
X160741307Y-138140950D01*
X160741500Y-138138502D01*
X160741500Y-137705498D01*
X160741307Y-137703042D01*
X160739067Y-137674579D01*
X160739066Y-137674574D01*
X160738562Y-137668169D01*
X160700727Y-137537939D01*
X160694357Y-137516012D01*
X160694356Y-137516010D01*
X160692145Y-137508399D01*
X160607453Y-137365193D01*
X160604771Y-137362511D01*
X160579498Y-137298139D01*
X160593400Y-137228516D01*
X160603572Y-137212688D01*
X160607453Y-137208807D01*
X160692145Y-137065601D01*
X160696772Y-137049677D01*
X160713158Y-136993273D01*
X160738562Y-136905831D01*
X160739417Y-136894978D01*
X160741307Y-136870958D01*
X160741307Y-136870950D01*
X160741500Y-136868502D01*
X160741500Y-136435498D01*
X160741066Y-136429981D01*
X160739067Y-136404579D01*
X160739066Y-136404574D01*
X160738562Y-136398169D01*
X160705567Y-136284598D01*
X160694357Y-136246012D01*
X160694356Y-136246010D01*
X160692145Y-136238399D01*
X160607453Y-136095193D01*
X160604771Y-136092511D01*
X160579498Y-136028139D01*
X160593400Y-135958516D01*
X160603572Y-135942688D01*
X160607453Y-135938807D01*
X160692145Y-135795601D01*
X160702447Y-135760143D01*
X160714894Y-135717298D01*
X160738562Y-135635831D01*
X160739357Y-135625740D01*
X160741307Y-135600958D01*
X160741307Y-135600950D01*
X160741500Y-135598502D01*
X160741500Y-135165498D01*
X160739826Y-135144223D01*
X160739067Y-135134579D01*
X160739066Y-135134574D01*
X160738562Y-135128169D01*
X160692145Y-134968399D01*
X160607453Y-134825193D01*
X160604513Y-134822253D01*
X160579180Y-134757734D01*
X160593079Y-134688111D01*
X160605126Y-134669364D01*
X160611090Y-134661676D01*
X160687648Y-134532221D01*
X160693893Y-134517790D01*
X160732939Y-134383395D01*
X160732899Y-134369294D01*
X160725630Y-134366000D01*
X157796122Y-134366000D01*
X157782591Y-134369973D01*
X157781456Y-134377871D01*
X157793816Y-134420416D01*
X157793613Y-134491412D01*
X157755059Y-134551029D01*
X157685989Y-134580879D01*
X157673394Y-134582203D01*
X157631289Y-134586628D01*
X157631288Y-134586628D01*
X157624288Y-134587364D01*
X157452579Y-134645818D01*
X157392653Y-134682685D01*
X157304095Y-134737166D01*
X157304092Y-134737168D01*
X157298088Y-134740862D01*
X157293053Y-134745793D01*
X157293050Y-134745795D01*
X157173525Y-134862843D01*
X157168493Y-134867771D01*
X157070235Y-135020238D01*
X157067826Y-135026858D01*
X157067824Y-135026861D01*
X157025108Y-135144223D01*
X157008197Y-135190685D01*
X156985463Y-135370640D01*
X157003163Y-135551160D01*
X157060418Y-135723273D01*
X157064065Y-135729295D01*
X157064066Y-135729297D01*
X157145129Y-135863148D01*
X157154380Y-135878424D01*
X157159269Y-135883487D01*
X157159270Y-135883488D01*
X157213626Y-135939775D01*
X157280382Y-136008902D01*
X157360594Y-136061391D01*
X157406642Y-136115428D01*
X157416166Y-136185783D01*
X157389522Y-136242876D01*
X157391045Y-136244045D01*
X157373051Y-136267495D01*
X157362184Y-136279886D01*
X156999095Y-136642975D01*
X156936783Y-136677001D01*
X156865968Y-136671936D01*
X156820905Y-136642975D01*
X155828405Y-135650475D01*
X155794379Y-135588163D01*
X155791500Y-135561380D01*
X155791500Y-135165498D01*
X155789826Y-135144223D01*
X155789067Y-135134579D01*
X155789066Y-135134574D01*
X155788562Y-135128169D01*
X155742145Y-134968399D01*
X155657453Y-134825193D01*
X155654771Y-134822511D01*
X155629498Y-134758139D01*
X155643400Y-134688516D01*
X155653572Y-134672688D01*
X155657453Y-134668807D01*
X155742145Y-134525601D01*
X155744415Y-134517790D01*
X155776052Y-134408891D01*
X155788562Y-134365831D01*
X155789074Y-134359336D01*
X155791307Y-134330958D01*
X155791307Y-134330950D01*
X155791500Y-134328502D01*
X155791500Y-133895498D01*
X155788562Y-133858169D01*
X155783459Y-133840605D01*
X157783061Y-133840605D01*
X157783101Y-133854706D01*
X157790370Y-133858000D01*
X158985885Y-133858000D01*
X159001124Y-133853525D01*
X159002329Y-133852135D01*
X159004000Y-133844452D01*
X159004000Y-133839885D01*
X159512000Y-133839885D01*
X159516475Y-133855124D01*
X159517865Y-133856329D01*
X159525548Y-133858000D01*
X160719878Y-133858000D01*
X160733409Y-133854027D01*
X160734544Y-133846129D01*
X160693893Y-133706210D01*
X160687648Y-133691779D01*
X160611089Y-133562322D01*
X160601449Y-133549896D01*
X160495104Y-133443551D01*
X160482678Y-133433911D01*
X160353221Y-133357352D01*
X160338790Y-133351107D01*
X160192935Y-133308731D01*
X160180333Y-133306430D01*
X160151916Y-133304193D01*
X160146986Y-133304000D01*
X159530115Y-133304000D01*
X159514876Y-133308475D01*
X159513671Y-133309865D01*
X159512000Y-133317548D01*
X159512000Y-133839885D01*
X159004000Y-133839885D01*
X159004000Y-133322116D01*
X158999525Y-133306877D01*
X158998135Y-133305672D01*
X158990452Y-133304001D01*
X158369017Y-133304001D01*
X158364080Y-133304195D01*
X158335664Y-133306430D01*
X158323069Y-133308730D01*
X158177210Y-133351107D01*
X158162779Y-133357352D01*
X158033322Y-133433911D01*
X158020896Y-133443551D01*
X157914551Y-133549896D01*
X157904911Y-133562322D01*
X157828352Y-133691779D01*
X157822107Y-133706210D01*
X157783061Y-133840605D01*
X155783459Y-133840605D01*
X155748945Y-133721806D01*
X155744357Y-133706012D01*
X155744356Y-133706010D01*
X155742145Y-133698399D01*
X155715701Y-133653685D01*
X155661491Y-133562020D01*
X155661489Y-133562017D01*
X155657453Y-133555193D01*
X155539807Y-133437547D01*
X155532983Y-133433511D01*
X155532980Y-133433509D01*
X155404205Y-133357352D01*
X155396601Y-133352855D01*
X155388990Y-133350644D01*
X155388988Y-133350643D01*
X155313668Y-133328761D01*
X155236831Y-133306438D01*
X155230426Y-133305934D01*
X155230421Y-133305933D01*
X155201958Y-133303693D01*
X155201950Y-133303693D01*
X155199502Y-133303500D01*
X154360620Y-133303500D01*
X154292499Y-133283498D01*
X154271525Y-133266595D01*
X154254796Y-133249866D01*
X154243929Y-133237475D01*
X154232233Y-133222233D01*
X154225935Y-133214025D01*
X154190672Y-133186966D01*
X154106448Y-133122339D01*
X153967302Y-133064703D01*
X153936605Y-133060662D01*
X153855483Y-133049981D01*
X153855474Y-133049980D01*
X153855471Y-133049980D01*
X153855459Y-133049979D01*
X153826169Y-133046123D01*
X153826168Y-133046123D01*
X153817980Y-133045045D01*
X153809792Y-133046123D01*
X153809791Y-133046123D01*
X153788682Y-133048902D01*
X153772236Y-133049980D01*
X145888771Y-133049980D01*
X145872324Y-133048902D01*
X145851208Y-133046122D01*
X145843020Y-133045044D01*
X145693698Y-133064703D01*
X145554552Y-133122339D01*
X145470329Y-133186966D01*
X145435065Y-133214025D01*
X145428767Y-133222233D01*
X145417071Y-133237475D01*
X145406204Y-133249866D01*
X145389475Y-133266595D01*
X145327163Y-133300621D01*
X145300380Y-133303500D01*
X144461498Y-133303500D01*
X144459050Y-133303693D01*
X144459042Y-133303693D01*
X144430579Y-133305933D01*
X144430574Y-133305934D01*
X144424169Y-133306438D01*
X144347332Y-133328761D01*
X144272012Y-133350643D01*
X144272010Y-133350644D01*
X144264399Y-133352855D01*
X144256795Y-133357352D01*
X144128020Y-133433509D01*
X144128017Y-133433511D01*
X144121193Y-133437547D01*
X144003547Y-133555193D01*
X143999511Y-133562017D01*
X143999509Y-133562020D01*
X143945299Y-133653685D01*
X143918855Y-133698399D01*
X143916644Y-133706010D01*
X143916643Y-133706012D01*
X143912055Y-133721806D01*
X143872438Y-133858169D01*
X143869500Y-133895498D01*
X143869500Y-134328502D01*
X143869693Y-134330950D01*
X143869693Y-134330958D01*
X143871927Y-134359336D01*
X143872438Y-134365831D01*
X143884948Y-134408891D01*
X143916586Y-134517790D01*
X143918855Y-134525601D01*
X144003547Y-134668807D01*
X144006229Y-134671489D01*
X144031502Y-134735861D01*
X144017600Y-134805484D01*
X144007428Y-134821312D01*
X144003547Y-134825193D01*
X143918855Y-134968399D01*
X143916645Y-134976007D01*
X143913494Y-134983289D01*
X143910981Y-134982201D01*
X143879861Y-135030936D01*
X143815367Y-135060617D01*
X143745064Y-135050718D01*
X143707977Y-135025047D01*
X141356481Y-132673551D01*
X141322455Y-132611239D01*
X141327520Y-132540424D01*
X141370067Y-132483588D01*
X141436587Y-132458777D01*
X141445576Y-132458456D01*
X175285336Y-132458456D01*
X175353457Y-132478458D01*
X175374431Y-132495361D01*
X175540095Y-132661025D01*
X175574121Y-132723337D01*
X175577000Y-132750120D01*
X175577000Y-133214147D01*
X175556998Y-133282268D01*
X175503342Y-133328761D01*
X175433068Y-133338865D01*
X175386864Y-133322602D01*
X175292601Y-133266855D01*
X175284990Y-133264644D01*
X175284988Y-133264643D01*
X175214019Y-133244025D01*
X175132831Y-133220438D01*
X175126426Y-133219934D01*
X175126421Y-133219933D01*
X175097958Y-133217693D01*
X175097950Y-133217693D01*
X175095502Y-133217500D01*
X174662498Y-133217500D01*
X174660050Y-133217693D01*
X174660042Y-133217693D01*
X174631579Y-133219933D01*
X174631574Y-133219934D01*
X174625169Y-133220438D01*
X174543981Y-133244025D01*
X174473012Y-133264643D01*
X174473010Y-133264644D01*
X174465399Y-133266855D01*
X174322193Y-133351547D01*
X174319253Y-133354487D01*
X174254729Y-133379821D01*
X174185106Y-133365920D01*
X174166360Y-133353871D01*
X174158677Y-133347911D01*
X174029221Y-133271352D01*
X174014790Y-133265107D01*
X173880395Y-133226061D01*
X173866294Y-133226101D01*
X173863000Y-133233370D01*
X173863000Y-136187878D01*
X173866973Y-136201409D01*
X173874871Y-136202544D01*
X174014790Y-136161893D01*
X174029221Y-136155648D01*
X174137325Y-136091716D01*
X174206141Y-136074257D01*
X174273473Y-136096774D01*
X174317942Y-136152119D01*
X174321069Y-136161351D01*
X174321723Y-136166322D01*
X174379359Y-136305468D01*
X174384386Y-136312019D01*
X174384387Y-136312021D01*
X174417601Y-136355306D01*
X174445655Y-136391866D01*
X174471045Y-136424955D01*
X174477595Y-136429981D01*
X174494495Y-136442949D01*
X174506886Y-136453816D01*
X174669295Y-136616225D01*
X174703321Y-136678537D01*
X174705599Y-136693024D01*
X174710575Y-136743767D01*
X174718163Y-136821160D01*
X174775418Y-136993273D01*
X174779065Y-136999295D01*
X174779066Y-136999297D01*
X174863641Y-137138947D01*
X174869380Y-137148424D01*
X174874269Y-137153487D01*
X174874270Y-137153488D01*
X174928626Y-137209775D01*
X174995382Y-137278902D01*
X175052758Y-137316448D01*
X175127249Y-137365193D01*
X175147159Y-137378222D01*
X175153763Y-137380678D01*
X175153765Y-137380679D01*
X175310558Y-137438990D01*
X175310560Y-137438990D01*
X175317168Y-137441448D01*
X175400995Y-137452633D01*
X175489980Y-137464507D01*
X175489984Y-137464507D01*
X175496961Y-137465438D01*
X175503972Y-137464800D01*
X175503976Y-137464800D01*
X175646459Y-137451832D01*
X175677600Y-137448998D01*
X175684302Y-137446820D01*
X175684304Y-137446820D01*
X175843409Y-137395124D01*
X175843412Y-137395123D01*
X175850108Y-137392947D01*
X175961545Y-137326517D01*
X175999860Y-137303677D01*
X175999862Y-137303676D01*
X176005912Y-137300069D01*
X176137266Y-137174982D01*
X176237643Y-137023902D01*
X176291695Y-136881611D01*
X176299555Y-136860920D01*
X176299556Y-136860918D01*
X176302055Y-136854338D01*
X176304849Y-136834460D01*
X176326748Y-136678639D01*
X176326748Y-136678636D01*
X176327299Y-136674717D01*
X176327521Y-136658820D01*
X176327561Y-136655962D01*
X176327561Y-136655957D01*
X176327616Y-136652000D01*
X176307397Y-136471745D01*
X176304004Y-136462000D01*
X176273770Y-136375182D01*
X176270256Y-136304273D01*
X176305637Y-136242720D01*
X176368680Y-136210068D01*
X176382872Y-136208134D01*
X176396412Y-136207068D01*
X176396420Y-136207067D01*
X176402831Y-136206562D01*
X176515063Y-136173956D01*
X176554988Y-136162357D01*
X176554990Y-136162356D01*
X176562601Y-136160145D01*
X176705807Y-136075453D01*
X176708489Y-136072771D01*
X176772861Y-136047498D01*
X176842484Y-136061400D01*
X176858312Y-136071572D01*
X176862193Y-136075453D01*
X177005399Y-136160145D01*
X177013010Y-136162356D01*
X177013012Y-136162357D01*
X177052937Y-136173956D01*
X177165169Y-136206562D01*
X177171574Y-136207066D01*
X177171579Y-136207067D01*
X177200042Y-136209307D01*
X177200050Y-136209307D01*
X177202498Y-136209500D01*
X177635502Y-136209500D01*
X177637950Y-136209307D01*
X177637958Y-136209307D01*
X177666421Y-136207067D01*
X177666426Y-136207066D01*
X177672831Y-136206562D01*
X177785063Y-136173956D01*
X177824988Y-136162357D01*
X177824990Y-136162356D01*
X177832601Y-136160145D01*
X177975807Y-136075453D01*
X177978489Y-136072771D01*
X178042861Y-136047498D01*
X178112484Y-136061400D01*
X178128312Y-136071572D01*
X178132193Y-136075453D01*
X178275399Y-136160145D01*
X178283010Y-136162356D01*
X178283012Y-136162357D01*
X178322937Y-136173956D01*
X178435169Y-136206562D01*
X178441574Y-136207066D01*
X178441579Y-136207067D01*
X178470042Y-136209307D01*
X178470050Y-136209307D01*
X178472498Y-136209500D01*
X178905502Y-136209500D01*
X178907950Y-136209307D01*
X178907958Y-136209307D01*
X178936421Y-136207067D01*
X178936426Y-136207066D01*
X178942831Y-136206562D01*
X179055063Y-136173956D01*
X179094988Y-136162357D01*
X179094990Y-136162356D01*
X179102601Y-136160145D01*
X179245807Y-136075453D01*
X179248489Y-136072771D01*
X179312861Y-136047498D01*
X179382484Y-136061400D01*
X179398312Y-136071572D01*
X179402193Y-136075453D01*
X179545399Y-136160145D01*
X179553010Y-136162356D01*
X179553012Y-136162357D01*
X179592937Y-136173956D01*
X179705169Y-136206562D01*
X179711574Y-136207066D01*
X179711579Y-136207067D01*
X179740042Y-136209307D01*
X179740050Y-136209307D01*
X179742498Y-136209500D01*
X180175502Y-136209500D01*
X180177950Y-136209307D01*
X180177958Y-136209307D01*
X180206421Y-136207067D01*
X180206426Y-136207066D01*
X180212831Y-136206562D01*
X180325063Y-136173956D01*
X180364988Y-136162357D01*
X180364990Y-136162356D01*
X180372601Y-136160145D01*
X180515807Y-136075453D01*
X180518489Y-136072771D01*
X180582861Y-136047498D01*
X180652484Y-136061400D01*
X180668312Y-136071572D01*
X180672193Y-136075453D01*
X180815399Y-136160145D01*
X180823010Y-136162356D01*
X180823012Y-136162357D01*
X180862937Y-136173956D01*
X180975169Y-136206562D01*
X180981574Y-136207066D01*
X180981579Y-136207067D01*
X181010042Y-136209307D01*
X181010050Y-136209307D01*
X181012498Y-136209500D01*
X181445502Y-136209500D01*
X181447950Y-136209307D01*
X181447958Y-136209307D01*
X181476421Y-136207067D01*
X181476426Y-136207066D01*
X181482831Y-136206562D01*
X181595063Y-136173956D01*
X181634988Y-136162357D01*
X181634990Y-136162356D01*
X181642601Y-136160145D01*
X181785807Y-136075453D01*
X181788489Y-136072771D01*
X181852861Y-136047498D01*
X181922484Y-136061400D01*
X181938312Y-136071572D01*
X181942193Y-136075453D01*
X182085399Y-136160145D01*
X182093010Y-136162356D01*
X182093012Y-136162357D01*
X182132937Y-136173956D01*
X182245169Y-136206562D01*
X182251574Y-136207066D01*
X182251579Y-136207067D01*
X182280042Y-136209307D01*
X182280050Y-136209307D01*
X182282498Y-136209500D01*
X182715502Y-136209500D01*
X182717950Y-136209307D01*
X182717958Y-136209307D01*
X182746421Y-136207067D01*
X182746426Y-136207066D01*
X182752831Y-136206562D01*
X182865063Y-136173956D01*
X182904988Y-136162357D01*
X182904990Y-136162356D01*
X182912601Y-136160145D01*
X183055807Y-136075453D01*
X183058489Y-136072771D01*
X183122861Y-136047498D01*
X183192484Y-136061400D01*
X183208312Y-136071572D01*
X183212193Y-136075453D01*
X183355399Y-136160145D01*
X183363010Y-136162356D01*
X183363012Y-136162357D01*
X183402937Y-136173956D01*
X183515169Y-136206562D01*
X183521574Y-136207066D01*
X183521579Y-136207067D01*
X183550042Y-136209307D01*
X183550050Y-136209307D01*
X183552498Y-136209500D01*
X183985502Y-136209500D01*
X183987950Y-136209307D01*
X183987958Y-136209307D01*
X184016421Y-136207067D01*
X184016426Y-136207066D01*
X184022831Y-136206562D01*
X184135063Y-136173956D01*
X184174988Y-136162357D01*
X184174990Y-136162356D01*
X184182601Y-136160145D01*
X184325807Y-136075453D01*
X184328489Y-136072771D01*
X184392861Y-136047498D01*
X184462484Y-136061400D01*
X184478312Y-136071572D01*
X184482193Y-136075453D01*
X184625399Y-136160145D01*
X184633010Y-136162356D01*
X184633012Y-136162357D01*
X184672937Y-136173956D01*
X184785169Y-136206562D01*
X184791574Y-136207066D01*
X184791579Y-136207067D01*
X184820042Y-136209307D01*
X184820050Y-136209307D01*
X184822498Y-136209500D01*
X185255502Y-136209500D01*
X185257950Y-136209307D01*
X185257958Y-136209307D01*
X185286421Y-136207067D01*
X185286426Y-136207066D01*
X185292831Y-136206562D01*
X185405063Y-136173956D01*
X185444988Y-136162357D01*
X185444990Y-136162356D01*
X185452601Y-136160145D01*
X185507332Y-136127777D01*
X185588980Y-136079491D01*
X185588983Y-136079489D01*
X185595807Y-136075453D01*
X185713453Y-135957807D01*
X185717489Y-135950983D01*
X185717491Y-135950980D01*
X185794108Y-135821427D01*
X185798145Y-135814601D01*
X185800415Y-135806790D01*
X185824035Y-135725486D01*
X185844562Y-135654831D01*
X185845074Y-135648336D01*
X185847307Y-135619958D01*
X185847307Y-135619950D01*
X185847500Y-135617502D01*
X185847500Y-133809498D01*
X185847307Y-133807042D01*
X185845067Y-133778579D01*
X185845066Y-133778574D01*
X185844562Y-133772169D01*
X185809130Y-133650209D01*
X185800357Y-133620012D01*
X185800356Y-133620010D01*
X185798145Y-133612399D01*
X185777939Y-133578233D01*
X185717491Y-133476020D01*
X185717489Y-133476017D01*
X185713453Y-133469193D01*
X185595807Y-133351547D01*
X185588983Y-133347511D01*
X185588980Y-133347509D01*
X185476629Y-133281065D01*
X185452601Y-133266855D01*
X185444990Y-133264644D01*
X185444988Y-133264643D01*
X185374019Y-133244025D01*
X185292831Y-133220438D01*
X185286426Y-133219934D01*
X185286421Y-133219933D01*
X185257958Y-133217693D01*
X185257950Y-133217693D01*
X185255502Y-133217500D01*
X184822498Y-133217500D01*
X184820050Y-133217693D01*
X184820042Y-133217693D01*
X184791579Y-133219933D01*
X184791574Y-133219934D01*
X184785169Y-133220438D01*
X184778997Y-133222231D01*
X184778992Y-133222232D01*
X184714030Y-133241106D01*
X184676999Y-133251864D01*
X184606004Y-133251661D01*
X184552752Y-133219962D01*
X181054687Y-129721897D01*
X181043820Y-129709506D01*
X181030855Y-129692609D01*
X181030852Y-129692606D01*
X181025826Y-129686056D01*
X180975598Y-129647514D01*
X180906339Y-129594370D01*
X180767193Y-129536734D01*
X180759043Y-129535661D01*
X180735078Y-129532506D01*
X180655374Y-129522012D01*
X180655365Y-129522011D01*
X180655362Y-129522011D01*
X180655350Y-129522010D01*
X180626060Y-129518154D01*
X180626059Y-129518154D01*
X180617871Y-129517076D01*
X180609683Y-129518154D01*
X180609682Y-129518154D01*
X180588573Y-129520933D01*
X180572127Y-129522011D01*
X179808116Y-129522011D01*
X179739995Y-129502009D01*
X179693502Y-129448353D01*
X179683398Y-129378079D01*
X179700856Y-129329895D01*
X179748275Y-129252968D01*
X179748276Y-129252966D01*
X179752115Y-129246738D01*
X179773477Y-129182333D01*
X179813907Y-129123973D01*
X179879472Y-129096736D01*
X179893070Y-129096000D01*
X182166617Y-129096000D01*
X182234738Y-129116002D01*
X182281231Y-129169658D01*
X182286140Y-129182123D01*
X182322729Y-129291791D01*
X182325450Y-129299946D01*
X182418522Y-129450348D01*
X182543697Y-129575305D01*
X182549927Y-129579145D01*
X182549928Y-129579146D01*
X182569500Y-129591210D01*
X182694262Y-129668115D01*
X182733197Y-129681029D01*
X182855611Y-129721632D01*
X182855613Y-129721632D01*
X182862139Y-129723797D01*
X182868978Y-129724498D01*
X182875710Y-129725941D01*
X182875211Y-129728271D01*
X182930696Y-129750938D01*
X182971470Y-129809058D01*
X182977119Y-129865220D01*
X182955463Y-130036640D01*
X182973163Y-130217160D01*
X183030418Y-130389273D01*
X183034065Y-130395295D01*
X183034066Y-130395297D01*
X183094126Y-130494468D01*
X183124380Y-130544424D01*
X183129269Y-130549487D01*
X183129270Y-130549488D01*
X183150027Y-130570982D01*
X183250382Y-130674902D01*
X183402159Y-130774222D01*
X183408763Y-130776678D01*
X183408765Y-130776679D01*
X183565558Y-130834990D01*
X183565560Y-130834990D01*
X183572168Y-130837448D01*
X183655995Y-130848633D01*
X183744980Y-130860507D01*
X183744984Y-130860507D01*
X183751961Y-130861438D01*
X183758972Y-130860800D01*
X183758976Y-130860800D01*
X183923337Y-130845841D01*
X183932600Y-130844998D01*
X183939302Y-130842820D01*
X183939304Y-130842820D01*
X184098409Y-130791124D01*
X184098412Y-130791123D01*
X184105108Y-130788947D01*
X184211628Y-130725448D01*
X184254860Y-130699677D01*
X184254862Y-130699676D01*
X184260912Y-130696069D01*
X184392266Y-130570982D01*
X184492643Y-130419902D01*
X184550289Y-130268149D01*
X184554555Y-130256920D01*
X184554556Y-130256918D01*
X184557055Y-130250338D01*
X184558035Y-130243366D01*
X184581748Y-130074639D01*
X184581748Y-130074636D01*
X184582299Y-130070717D01*
X184582616Y-130048000D01*
X184562397Y-129867745D01*
X184543330Y-129812992D01*
X184539816Y-129742083D01*
X184575198Y-129680530D01*
X184596016Y-129664413D01*
X184741348Y-129574478D01*
X184866305Y-129449303D01*
X184897830Y-129398160D01*
X184955275Y-129304968D01*
X184955276Y-129304966D01*
X184959115Y-129298738D01*
X185014797Y-129130861D01*
X185016320Y-129116002D01*
X185025172Y-129029598D01*
X185025500Y-129026400D01*
X185025500Y-128125600D01*
X185025163Y-128122350D01*
X185015238Y-128026692D01*
X185015237Y-128026688D01*
X185014526Y-128019834D01*
X184999895Y-127975978D01*
X184960868Y-127859002D01*
X184958550Y-127852054D01*
X184865478Y-127701652D01*
X184740303Y-127576695D01*
X184734072Y-127572854D01*
X184595968Y-127487725D01*
X184595966Y-127487724D01*
X184589738Y-127483885D01*
X184446291Y-127436306D01*
X184428389Y-127430368D01*
X184428387Y-127430368D01*
X184421861Y-127428203D01*
X184415025Y-127427503D01*
X184415022Y-127427502D01*
X184371969Y-127423091D01*
X184317400Y-127417500D01*
X182966600Y-127417500D01*
X182963354Y-127417837D01*
X182963350Y-127417837D01*
X182867692Y-127427762D01*
X182867688Y-127427763D01*
X182860834Y-127428474D01*
X182854298Y-127430655D01*
X182854296Y-127430655D01*
X182722194Y-127474728D01*
X182693054Y-127484450D01*
X182542652Y-127577522D01*
X182417695Y-127702697D01*
X182413855Y-127708927D01*
X182413854Y-127708928D01*
X182360779Y-127795032D01*
X182324885Y-127853262D01*
X182322581Y-127860209D01*
X182320769Y-127865671D01*
X182280336Y-127924030D01*
X182214771Y-127951265D01*
X182201177Y-127952000D01*
X179893034Y-127952000D01*
X179824913Y-127931998D01*
X179778420Y-127878342D01*
X179773510Y-127865876D01*
X179753868Y-127807002D01*
X179751550Y-127800054D01*
X179658478Y-127649652D01*
X179533303Y-127524695D01*
X179527072Y-127520854D01*
X179388968Y-127435725D01*
X179388966Y-127435724D01*
X179382738Y-127431885D01*
X179222254Y-127378655D01*
X179221389Y-127378368D01*
X179221387Y-127378368D01*
X179214861Y-127376203D01*
X179208025Y-127375503D01*
X179208022Y-127375502D01*
X179164969Y-127371091D01*
X179110400Y-127365500D01*
X177759600Y-127365500D01*
X177756354Y-127365837D01*
X177756350Y-127365837D01*
X177660692Y-127375762D01*
X177660688Y-127375763D01*
X177653834Y-127376474D01*
X177647298Y-127378655D01*
X177647296Y-127378655D01*
X177530864Y-127417500D01*
X177486054Y-127432450D01*
X177335652Y-127525522D01*
X177210695Y-127650697D01*
X177206855Y-127656927D01*
X177206854Y-127656928D01*
X177173932Y-127710338D01*
X177117885Y-127801262D01*
X177098734Y-127859002D01*
X177068132Y-127951265D01*
X177062203Y-127969139D01*
X177051500Y-128073600D01*
X177051500Y-128974400D01*
X177051837Y-128977646D01*
X177051837Y-128977650D01*
X177056562Y-129023183D01*
X177062474Y-129080166D01*
X177064655Y-129086702D01*
X177064655Y-129086704D01*
X177081565Y-129137389D01*
X177118450Y-129247946D01*
X177154484Y-129306176D01*
X177169046Y-129329708D01*
X177187884Y-129398160D01*
X177166723Y-129465930D01*
X177112282Y-129511501D01*
X177061902Y-129522011D01*
X174712500Y-129522011D01*
X174644379Y-129502009D01*
X174597886Y-129448353D01*
X174586500Y-129396011D01*
X174586500Y-127351856D01*
X174587578Y-127335409D01*
X174587614Y-127335134D01*
X174589529Y-127320590D01*
X174589611Y-127317240D01*
X174591074Y-127257365D01*
X174591074Y-127257361D01*
X174591156Y-127254000D01*
X174586924Y-127202524D01*
X174586500Y-127192200D01*
X174586500Y-126355866D01*
X174579745Y-126293684D01*
X174528615Y-126157295D01*
X174441261Y-126040739D01*
X174324705Y-125953385D01*
X174188316Y-125902255D01*
X174126134Y-125895500D01*
X173242985Y-125895500D01*
X173241446Y-125895491D01*
X173138081Y-125894228D01*
X173138079Y-125894228D01*
X173132911Y-125894165D01*
X173127797Y-125894948D01*
X173124289Y-125895193D01*
X173115496Y-125895500D01*
X172730620Y-125895500D01*
X172662499Y-125875498D01*
X172641525Y-125858595D01*
X170616816Y-123833886D01*
X170605949Y-123821495D01*
X170592984Y-123804598D01*
X170592981Y-123804595D01*
X170587955Y-123798045D01*
X170552344Y-123770719D01*
X170468468Y-123706359D01*
X170329322Y-123648723D01*
X170298625Y-123644682D01*
X170217503Y-123634001D01*
X170217494Y-123634000D01*
X170217491Y-123634000D01*
X170217479Y-123633999D01*
X170188189Y-123630143D01*
X170188188Y-123630143D01*
X170180000Y-123629065D01*
X170171812Y-123630143D01*
X170171811Y-123630143D01*
X170150702Y-123632922D01*
X170134256Y-123634000D01*
X165653751Y-123634000D01*
X165637304Y-123632922D01*
X165616188Y-123630142D01*
X165608000Y-123629064D01*
X165599812Y-123630142D01*
X165599811Y-123630142D01*
X165571403Y-123633882D01*
X165554957Y-123634960D01*
X160943600Y-123634960D01*
X160875479Y-123614958D01*
X160828986Y-123561302D01*
X160818882Y-123491028D01*
X160848376Y-123426448D01*
X160854505Y-123419865D01*
X161095730Y-123178640D01*
X175970463Y-123178640D01*
X175988163Y-123359160D01*
X176045418Y-123531273D01*
X176049065Y-123537295D01*
X176049066Y-123537297D01*
X176129581Y-123670243D01*
X176139380Y-123686424D01*
X176144269Y-123691487D01*
X176144270Y-123691488D01*
X176180232Y-123728727D01*
X176265382Y-123816902D01*
X176417159Y-123916222D01*
X176423763Y-123918678D01*
X176423765Y-123918679D01*
X176580558Y-123976990D01*
X176580560Y-123976990D01*
X176587168Y-123979448D01*
X176670995Y-123990633D01*
X176759980Y-124002507D01*
X176759984Y-124002507D01*
X176766961Y-124003438D01*
X176773972Y-124002800D01*
X176773976Y-124002800D01*
X176916459Y-123989832D01*
X176947600Y-123986998D01*
X176954302Y-123984820D01*
X176954304Y-123984820D01*
X177113409Y-123933124D01*
X177113412Y-123933123D01*
X177120108Y-123930947D01*
X177246415Y-123855653D01*
X177269860Y-123841677D01*
X177269862Y-123841676D01*
X177275912Y-123838069D01*
X177313607Y-123802172D01*
X177376734Y-123769680D01*
X177447404Y-123776474D01*
X177503183Y-123820397D01*
X177526500Y-123893418D01*
X177526500Y-124164134D01*
X177526869Y-124167531D01*
X177532508Y-124219437D01*
X177519980Y-124289319D01*
X177473548Y-124340189D01*
X177335652Y-124425522D01*
X177210695Y-124550697D01*
X177206855Y-124556927D01*
X177206854Y-124556928D01*
X177178642Y-124602697D01*
X177117885Y-124701262D01*
X177098734Y-124759002D01*
X177072607Y-124837773D01*
X177062203Y-124869139D01*
X177051500Y-124973600D01*
X177051500Y-125874400D01*
X177051837Y-125877646D01*
X177051837Y-125877650D01*
X177059245Y-125949044D01*
X177062474Y-125980166D01*
X177064655Y-125986702D01*
X177064655Y-125986704D01*
X177081565Y-126037389D01*
X177118450Y-126147946D01*
X177211522Y-126298348D01*
X177336697Y-126423305D01*
X177342927Y-126427145D01*
X177342928Y-126427146D01*
X177480090Y-126511694D01*
X177487262Y-126516115D01*
X177567005Y-126542564D01*
X177648611Y-126569632D01*
X177648613Y-126569632D01*
X177655139Y-126571797D01*
X177661975Y-126572497D01*
X177661978Y-126572498D01*
X177705031Y-126576909D01*
X177759600Y-126582500D01*
X179110400Y-126582500D01*
X179113646Y-126582163D01*
X179113650Y-126582163D01*
X179209308Y-126572238D01*
X179209312Y-126572237D01*
X179216166Y-126571526D01*
X179222702Y-126569345D01*
X179222704Y-126569345D01*
X179354806Y-126525272D01*
X179383946Y-126515550D01*
X179534348Y-126422478D01*
X179659305Y-126297303D01*
X179715477Y-126206176D01*
X179748275Y-126152968D01*
X179748276Y-126152966D01*
X179752115Y-126146738D01*
X179790117Y-126032166D01*
X179805632Y-125985389D01*
X179805632Y-125985387D01*
X179807797Y-125978861D01*
X179809856Y-125958771D01*
X179813172Y-125926400D01*
X182258500Y-125926400D01*
X182258837Y-125929646D01*
X182258837Y-125929650D01*
X182264621Y-125985389D01*
X182269474Y-126032166D01*
X182271655Y-126038702D01*
X182271655Y-126038704D01*
X182275917Y-126051478D01*
X182325450Y-126199946D01*
X182418522Y-126350348D01*
X182543697Y-126475305D01*
X182549927Y-126479145D01*
X182549928Y-126479146D01*
X182687090Y-126563694D01*
X182694262Y-126568115D01*
X182736616Y-126582163D01*
X182855611Y-126621632D01*
X182855613Y-126621632D01*
X182862139Y-126623797D01*
X182868975Y-126624497D01*
X182868978Y-126624498D01*
X182912031Y-126628909D01*
X182966600Y-126634500D01*
X184317400Y-126634500D01*
X184320646Y-126634163D01*
X184320650Y-126634163D01*
X184416308Y-126624238D01*
X184416312Y-126624237D01*
X184423166Y-126623526D01*
X184429702Y-126621345D01*
X184429704Y-126621345D01*
X184578216Y-126571797D01*
X184590946Y-126567550D01*
X184741348Y-126474478D01*
X184866305Y-126349303D01*
X184894526Y-126303521D01*
X184955275Y-126204968D01*
X184955276Y-126204966D01*
X184959115Y-126198738D01*
X185014797Y-126030861D01*
X185018336Y-125996326D01*
X185024283Y-125938278D01*
X185025500Y-125926400D01*
X185025500Y-125025600D01*
X185025163Y-125022350D01*
X185015238Y-124926692D01*
X185015237Y-124926688D01*
X185014526Y-124919834D01*
X184999895Y-124875978D01*
X184960868Y-124759002D01*
X184958550Y-124752054D01*
X184865478Y-124601652D01*
X184740303Y-124476695D01*
X184734072Y-124472854D01*
X184595968Y-124387725D01*
X184595966Y-124387724D01*
X184589738Y-124383885D01*
X184535139Y-124365776D01*
X184476780Y-124325346D01*
X184449543Y-124259782D01*
X184462076Y-124189900D01*
X184501639Y-124143604D01*
X184677039Y-124018493D01*
X184677042Y-124018491D01*
X184681243Y-124015494D01*
X184845303Y-123852005D01*
X184852725Y-123841677D01*
X184887689Y-123793018D01*
X184980458Y-123663917D01*
X184987968Y-123648723D01*
X185080784Y-123460922D01*
X185080785Y-123460920D01*
X185083078Y-123456280D01*
X185150408Y-123234671D01*
X185180640Y-123005041D01*
X185181064Y-122987702D01*
X185182245Y-122939365D01*
X185182245Y-122939361D01*
X185182327Y-122936000D01*
X185169305Y-122777610D01*
X185163773Y-122710318D01*
X185163772Y-122710312D01*
X185163349Y-122705167D01*
X185112034Y-122500872D01*
X185108184Y-122485544D01*
X185108183Y-122485540D01*
X185106925Y-122480533D01*
X185102326Y-122469956D01*
X185016630Y-122272868D01*
X185016628Y-122272865D01*
X185014570Y-122268131D01*
X184888764Y-122073665D01*
X184860704Y-122042827D01*
X184798848Y-121974848D01*
X184767796Y-121911002D01*
X184776192Y-121840504D01*
X184821369Y-121785736D01*
X184847812Y-121772067D01*
X184907297Y-121749767D01*
X184915705Y-121746615D01*
X185032261Y-121659261D01*
X185119615Y-121542705D01*
X185170745Y-121406316D01*
X185177500Y-121344134D01*
X185177500Y-119447866D01*
X185170745Y-119385684D01*
X185119615Y-119249295D01*
X185032261Y-119132739D01*
X184915705Y-119045385D01*
X184779316Y-118994255D01*
X184717134Y-118987500D01*
X182820866Y-118987500D01*
X182758684Y-118994255D01*
X182622295Y-119045385D01*
X182505739Y-119132739D01*
X182418385Y-119249295D01*
X182367255Y-119385684D01*
X182360500Y-119447866D01*
X182360500Y-121344134D01*
X182367255Y-121406316D01*
X182418385Y-121542705D01*
X182505739Y-121659261D01*
X182622295Y-121746615D01*
X182630704Y-121749767D01*
X182630705Y-121749768D01*
X182690164Y-121772058D01*
X182746929Y-121814699D01*
X182771629Y-121881261D01*
X182756422Y-121950609D01*
X182737029Y-121977091D01*
X182670639Y-122046564D01*
X182667725Y-122050836D01*
X182667724Y-122050837D01*
X182652152Y-122073665D01*
X182540119Y-122237899D01*
X182442602Y-122447981D01*
X182380707Y-122671169D01*
X182356095Y-122901469D01*
X182356392Y-122906622D01*
X182356392Y-122906625D01*
X182367429Y-123098047D01*
X182369427Y-123132697D01*
X182370564Y-123137743D01*
X182370565Y-123137749D01*
X182393723Y-123240507D01*
X182420346Y-123358642D01*
X182422288Y-123363424D01*
X182422289Y-123363428D01*
X182505540Y-123568450D01*
X182507484Y-123573237D01*
X182628501Y-123770719D01*
X182780147Y-123945784D01*
X182958349Y-124093730D01*
X182961954Y-124095837D01*
X183006101Y-124151067D01*
X183013410Y-124221686D01*
X182981379Y-124285047D01*
X182920178Y-124321032D01*
X182902506Y-124324150D01*
X182867692Y-124327762D01*
X182867688Y-124327763D01*
X182860834Y-124328474D01*
X182854298Y-124330655D01*
X182854296Y-124330655D01*
X182722194Y-124374728D01*
X182693054Y-124384450D01*
X182542652Y-124477522D01*
X182417695Y-124602697D01*
X182413855Y-124608927D01*
X182413854Y-124608928D01*
X182360779Y-124695032D01*
X182324885Y-124753262D01*
X182308344Y-124803132D01*
X182286451Y-124869139D01*
X182269203Y-124921139D01*
X182258500Y-125025600D01*
X182258500Y-125926400D01*
X179813172Y-125926400D01*
X179816339Y-125895491D01*
X179818500Y-125874400D01*
X179818500Y-124973600D01*
X179818163Y-124970350D01*
X179808238Y-124874692D01*
X179808237Y-124874688D01*
X179807526Y-124867834D01*
X179789868Y-124814905D01*
X179753868Y-124707002D01*
X179751550Y-124700054D01*
X179658478Y-124549652D01*
X179533303Y-124424695D01*
X179396623Y-124340444D01*
X179349131Y-124287673D01*
X179337477Y-124219577D01*
X179343131Y-124167531D01*
X179343500Y-124164134D01*
X179343500Y-122167866D01*
X179336745Y-122105684D01*
X179285615Y-121969295D01*
X179198261Y-121852739D01*
X179191081Y-121847358D01*
X179184731Y-121841008D01*
X179186978Y-121838761D01*
X179153857Y-121794456D01*
X179148838Y-121723637D01*
X179182903Y-121661347D01*
X179245238Y-121627362D01*
X179271941Y-121624500D01*
X179833134Y-121624500D01*
X179895316Y-121617745D01*
X180031705Y-121566615D01*
X180148261Y-121479261D01*
X180235615Y-121362705D01*
X180286745Y-121226316D01*
X180293500Y-121164134D01*
X180293500Y-121061544D01*
X180313502Y-120993423D01*
X180367158Y-120946930D01*
X180436164Y-120936651D01*
X180494147Y-120944388D01*
X180569980Y-120954507D01*
X180569984Y-120954507D01*
X180576961Y-120955438D01*
X180583972Y-120954800D01*
X180583976Y-120954800D01*
X180726459Y-120941832D01*
X180757600Y-120938998D01*
X180764302Y-120936820D01*
X180764304Y-120936820D01*
X180923409Y-120885124D01*
X180923412Y-120885123D01*
X180930108Y-120882947D01*
X181028709Y-120824169D01*
X181079860Y-120793677D01*
X181079862Y-120793676D01*
X181085912Y-120790069D01*
X181217266Y-120664982D01*
X181317643Y-120513902D01*
X181364368Y-120390899D01*
X181379555Y-120350920D01*
X181379556Y-120350918D01*
X181382055Y-120344338D01*
X181392514Y-120269918D01*
X181406748Y-120168639D01*
X181406748Y-120168636D01*
X181407299Y-120164717D01*
X181407616Y-120142000D01*
X181387397Y-119961745D01*
X181383843Y-119951540D01*
X181330064Y-119797106D01*
X181330062Y-119797103D01*
X181327745Y-119790448D01*
X181266615Y-119692618D01*
X181235359Y-119642598D01*
X181231626Y-119636624D01*
X181226664Y-119631627D01*
X181108778Y-119512915D01*
X181108774Y-119512912D01*
X181103815Y-119507918D01*
X180950666Y-119410727D01*
X180902399Y-119393540D01*
X180786425Y-119352243D01*
X180786420Y-119352242D01*
X180779790Y-119349881D01*
X180772802Y-119349048D01*
X180772799Y-119349047D01*
X180639774Y-119333185D01*
X180599680Y-119328404D01*
X180592677Y-119329140D01*
X180592675Y-119329140D01*
X180432670Y-119345957D01*
X180362832Y-119333185D01*
X180310985Y-119284683D01*
X180293500Y-119220647D01*
X180293500Y-119167866D01*
X180286745Y-119105684D01*
X180235615Y-118969295D01*
X180148261Y-118852739D01*
X180031705Y-118765385D01*
X179895316Y-118714255D01*
X179833134Y-118707500D01*
X179498312Y-118707500D01*
X179430191Y-118687498D01*
X179383698Y-118633842D01*
X179373097Y-118595545D01*
X179369719Y-118565424D01*
X179355397Y-118437745D01*
X179353080Y-118431091D01*
X179320990Y-118338941D01*
X179317476Y-118268031D01*
X179352858Y-118206479D01*
X179382878Y-118185906D01*
X179383946Y-118185550D01*
X179398584Y-118176492D01*
X179528120Y-118096332D01*
X179534348Y-118092478D01*
X179659305Y-117967303D01*
X179683089Y-117928719D01*
X179748275Y-117822968D01*
X179748276Y-117822966D01*
X179752115Y-117816738D01*
X179807797Y-117648861D01*
X179809693Y-117630362D01*
X179815942Y-117569364D01*
X179818500Y-117544400D01*
X179818500Y-116643600D01*
X179817449Y-116633468D01*
X179808238Y-116544692D01*
X179808237Y-116544688D01*
X179807526Y-116537834D01*
X179786136Y-116473719D01*
X179753868Y-116377002D01*
X179751550Y-116370054D01*
X179658478Y-116219652D01*
X179533303Y-116094695D01*
X179519429Y-116086143D01*
X179388968Y-116005725D01*
X179388966Y-116005724D01*
X179382738Y-116001885D01*
X179294744Y-115972699D01*
X179221389Y-115948368D01*
X179221387Y-115948368D01*
X179214861Y-115946203D01*
X179208025Y-115945503D01*
X179208022Y-115945502D01*
X179164969Y-115941091D01*
X179110400Y-115935500D01*
X177759600Y-115935500D01*
X177756354Y-115935837D01*
X177756350Y-115935837D01*
X177660692Y-115945762D01*
X177660688Y-115945763D01*
X177653834Y-115946474D01*
X177647298Y-115948655D01*
X177647296Y-115948655D01*
X177605798Y-115962500D01*
X177486054Y-116002450D01*
X177335652Y-116095522D01*
X177210695Y-116220697D01*
X177206855Y-116226927D01*
X177206854Y-116226928D01*
X177167549Y-116290693D01*
X177117885Y-116371262D01*
X177062203Y-116539139D01*
X177061503Y-116545975D01*
X177061502Y-116545978D01*
X177059485Y-116565666D01*
X177051500Y-116643600D01*
X177051500Y-117544400D01*
X177051837Y-117547646D01*
X177051837Y-117547650D01*
X177061057Y-117636506D01*
X177062474Y-117650166D01*
X177064655Y-117656702D01*
X177064655Y-117656704D01*
X177090991Y-117735641D01*
X177118450Y-117817946D01*
X177211522Y-117968348D01*
X177336697Y-118093305D01*
X177342927Y-118097145D01*
X177342928Y-118097146D01*
X177471651Y-118176492D01*
X177487262Y-118186115D01*
X177548658Y-118206479D01*
X177648611Y-118239632D01*
X177648613Y-118239632D01*
X177655139Y-118241797D01*
X177661982Y-118242498D01*
X177661986Y-118242499D01*
X177671037Y-118243427D01*
X177736763Y-118270270D01*
X177777543Y-118328386D01*
X177780429Y-118399324D01*
X177776591Y-118411864D01*
X177771197Y-118426685D01*
X177761276Y-118505216D01*
X177749644Y-118597292D01*
X177721262Y-118662369D01*
X177662202Y-118701770D01*
X177624638Y-118707500D01*
X177036866Y-118707500D01*
X176974684Y-118714255D01*
X176838295Y-118765385D01*
X176721739Y-118852739D01*
X176634385Y-118969295D01*
X176583255Y-119105684D01*
X176576500Y-119167866D01*
X176576500Y-121164134D01*
X176583255Y-121226316D01*
X176634385Y-121362705D01*
X176721739Y-121479261D01*
X176838295Y-121566615D01*
X176974684Y-121617745D01*
X177036866Y-121624500D01*
X177598059Y-121624500D01*
X177666180Y-121644502D01*
X177712673Y-121698158D01*
X177722777Y-121768432D01*
X177693283Y-121833012D01*
X177684995Y-121840734D01*
X177685269Y-121841008D01*
X177678919Y-121847358D01*
X177671739Y-121852739D01*
X177584385Y-121969295D01*
X177533255Y-122105684D01*
X177526500Y-122167866D01*
X177526500Y-122468000D01*
X177506498Y-122536121D01*
X177452842Y-122582614D01*
X177400500Y-122594000D01*
X177384081Y-122594000D01*
X177315960Y-122573998D01*
X177304655Y-122564855D01*
X177304271Y-122565332D01*
X177298777Y-122560915D01*
X177293815Y-122555918D01*
X177282697Y-122548862D01*
X177206042Y-122500216D01*
X177140666Y-122458727D01*
X177097345Y-122443301D01*
X176976425Y-122400243D01*
X176976420Y-122400242D01*
X176969790Y-122397881D01*
X176962802Y-122397048D01*
X176962799Y-122397047D01*
X176839698Y-122382368D01*
X176789680Y-122376404D01*
X176782677Y-122377140D01*
X176782676Y-122377140D01*
X176616288Y-122394628D01*
X176616286Y-122394629D01*
X176609288Y-122395364D01*
X176437579Y-122453818D01*
X176408932Y-122471442D01*
X176289095Y-122545166D01*
X176289092Y-122545168D01*
X176283088Y-122548862D01*
X176278053Y-122553793D01*
X176278050Y-122553795D01*
X176158525Y-122670843D01*
X176153493Y-122675771D01*
X176055235Y-122828238D01*
X176052826Y-122834858D01*
X176052824Y-122834861D01*
X175995606Y-122992066D01*
X175993197Y-122998685D01*
X175970463Y-123178640D01*
X161095730Y-123178640D01*
X163403675Y-120870695D01*
X171635251Y-120870695D01*
X171635548Y-120875848D01*
X171635548Y-120875851D01*
X171639291Y-120940763D01*
X171639500Y-120948016D01*
X171639500Y-121802134D01*
X171646255Y-121864316D01*
X171697385Y-122000705D01*
X171784739Y-122117261D01*
X171901295Y-122204615D01*
X172037684Y-122255745D01*
X172099866Y-122262500D01*
X172968826Y-122262500D01*
X172973443Y-122262585D01*
X173054673Y-122265564D01*
X173054677Y-122265564D01*
X173059837Y-122265753D01*
X173064957Y-122265097D01*
X173064959Y-122265097D01*
X173077261Y-122263521D01*
X173093271Y-122262500D01*
X175696134Y-122262500D01*
X175758316Y-122255745D01*
X175894705Y-122204615D01*
X176011261Y-122117261D01*
X176098615Y-122000705D01*
X176149745Y-121864316D01*
X176156500Y-121802134D01*
X176156500Y-120005866D01*
X176149745Y-119943684D01*
X176098615Y-119807295D01*
X176025370Y-119709564D01*
X176000522Y-119643059D01*
X176015575Y-119573676D01*
X176025370Y-119558435D01*
X176034459Y-119546308D01*
X176098615Y-119460705D01*
X176149745Y-119324316D01*
X176156500Y-119262134D01*
X176156500Y-117465866D01*
X176149745Y-117403684D01*
X176098615Y-117267295D01*
X176025370Y-117169564D01*
X176000522Y-117103059D01*
X176015575Y-117033676D01*
X176025370Y-117018435D01*
X176041255Y-116997240D01*
X176098615Y-116920705D01*
X176149745Y-116784316D01*
X176156500Y-116722134D01*
X176156500Y-114925866D01*
X176149745Y-114863684D01*
X176098615Y-114727295D01*
X176011261Y-114610739D01*
X175894705Y-114523385D01*
X175758316Y-114472255D01*
X175696134Y-114465500D01*
X173012985Y-114465500D01*
X173011446Y-114465491D01*
X172908081Y-114464228D01*
X172908079Y-114464228D01*
X172902911Y-114464165D01*
X172897797Y-114464948D01*
X172894289Y-114465193D01*
X172885496Y-114465500D01*
X172099866Y-114465500D01*
X172037684Y-114472255D01*
X171901295Y-114523385D01*
X171784739Y-114610739D01*
X171697385Y-114727295D01*
X171646255Y-114863684D01*
X171639500Y-114925866D01*
X171639500Y-115744219D01*
X171638787Y-115757607D01*
X171635251Y-115790695D01*
X171635548Y-115795848D01*
X171635548Y-115795851D01*
X171639291Y-115860763D01*
X171639500Y-115868016D01*
X171639500Y-116722134D01*
X171646255Y-116784316D01*
X171697385Y-116920705D01*
X171754745Y-116997240D01*
X171770630Y-117018435D01*
X171795478Y-117084941D01*
X171780425Y-117154324D01*
X171770632Y-117169562D01*
X171697385Y-117267295D01*
X171646255Y-117403684D01*
X171639500Y-117465866D01*
X171639500Y-119262134D01*
X171646255Y-119324316D01*
X171697385Y-119460705D01*
X171761541Y-119546308D01*
X171770630Y-119558435D01*
X171795478Y-119624941D01*
X171780425Y-119694324D01*
X171770632Y-119709562D01*
X171697385Y-119807295D01*
X171646255Y-119943684D01*
X171639500Y-120005866D01*
X171639500Y-120824219D01*
X171638787Y-120837607D01*
X171635251Y-120870695D01*
X163403675Y-120870695D01*
X169829970Y-114444400D01*
X177051500Y-114444400D01*
X177051837Y-114447646D01*
X177051837Y-114447650D01*
X177059415Y-114520680D01*
X177062474Y-114550166D01*
X177064655Y-114556702D01*
X177064655Y-114556704D01*
X177094301Y-114645564D01*
X177118450Y-114717946D01*
X177211522Y-114868348D01*
X177336697Y-114993305D01*
X177342927Y-114997145D01*
X177342928Y-114997146D01*
X177480090Y-115081694D01*
X177487262Y-115086115D01*
X177567005Y-115112564D01*
X177648611Y-115139632D01*
X177648613Y-115139632D01*
X177655139Y-115141797D01*
X177661975Y-115142497D01*
X177661978Y-115142498D01*
X177699098Y-115146301D01*
X177759600Y-115152500D01*
X179110400Y-115152500D01*
X179113646Y-115152163D01*
X179113650Y-115152163D01*
X179209308Y-115142238D01*
X179209312Y-115142237D01*
X179216166Y-115141526D01*
X179222702Y-115139345D01*
X179222704Y-115139345D01*
X179354806Y-115095272D01*
X179383946Y-115085550D01*
X179534348Y-114992478D01*
X179539521Y-114987296D01*
X179539526Y-114987292D01*
X179617698Y-114908983D01*
X179679980Y-114874903D01*
X179706871Y-114872000D01*
X182361500Y-114872000D01*
X182429621Y-114892002D01*
X182476114Y-114945658D01*
X182487500Y-114998000D01*
X182487500Y-115502134D01*
X182494255Y-115564316D01*
X182545385Y-115700705D01*
X182632739Y-115817261D01*
X182749295Y-115904615D01*
X182757704Y-115907767D01*
X182757705Y-115907768D01*
X182817164Y-115930058D01*
X182873929Y-115972699D01*
X182898629Y-116039261D01*
X182883422Y-116108609D01*
X182864029Y-116135091D01*
X182797639Y-116204564D01*
X182794725Y-116208836D01*
X182794724Y-116208837D01*
X182779152Y-116231665D01*
X182667119Y-116395899D01*
X182569602Y-116605981D01*
X182507707Y-116829169D01*
X182483095Y-117059469D01*
X182483392Y-117064622D01*
X182483392Y-117064625D01*
X182489067Y-117163041D01*
X182496427Y-117290697D01*
X182497564Y-117295743D01*
X182497565Y-117295749D01*
X182521890Y-117403684D01*
X182547346Y-117516642D01*
X182549288Y-117521424D01*
X182549289Y-117521428D01*
X182632540Y-117726450D01*
X182634484Y-117731237D01*
X182755501Y-117928719D01*
X182907147Y-118103784D01*
X183085349Y-118251730D01*
X183285322Y-118368584D01*
X183501694Y-118451209D01*
X183506760Y-118452240D01*
X183506761Y-118452240D01*
X183559846Y-118463040D01*
X183728656Y-118497385D01*
X183859324Y-118502176D01*
X183954949Y-118505683D01*
X183954953Y-118505683D01*
X183960113Y-118505872D01*
X183965233Y-118505216D01*
X183965235Y-118505216D01*
X184038270Y-118495860D01*
X184189847Y-118476442D01*
X184194795Y-118474957D01*
X184194802Y-118474956D01*
X184406747Y-118411369D01*
X184411690Y-118409886D01*
X184492236Y-118370427D01*
X184615049Y-118310262D01*
X184615052Y-118310260D01*
X184619684Y-118307991D01*
X184808243Y-118173494D01*
X184972303Y-118010005D01*
X184982143Y-117996312D01*
X185002237Y-117968348D01*
X185107458Y-117821917D01*
X185112855Y-117810998D01*
X185207784Y-117618922D01*
X185207785Y-117618920D01*
X185210078Y-117614280D01*
X185277408Y-117392671D01*
X185307640Y-117163041D01*
X185307941Y-117150739D01*
X185309245Y-117097365D01*
X185309245Y-117097361D01*
X185309327Y-117094000D01*
X185297703Y-116952616D01*
X185290773Y-116868318D01*
X185290772Y-116868312D01*
X185290349Y-116863167D01*
X185254010Y-116718494D01*
X185235184Y-116643544D01*
X185235183Y-116643540D01*
X185233925Y-116638533D01*
X185229576Y-116628531D01*
X185143630Y-116430868D01*
X185143628Y-116430865D01*
X185141570Y-116426131D01*
X185015764Y-116231665D01*
X185004833Y-116219652D01*
X184925848Y-116132848D01*
X184894796Y-116069002D01*
X184903192Y-115998504D01*
X184948369Y-115943736D01*
X184974812Y-115930067D01*
X185034297Y-115907767D01*
X185042705Y-115904615D01*
X185159261Y-115817261D01*
X185246615Y-115700705D01*
X185297745Y-115564316D01*
X185304500Y-115502134D01*
X185304500Y-113605866D01*
X185297745Y-113543684D01*
X185246615Y-113407295D01*
X185159261Y-113290739D01*
X185042705Y-113203385D01*
X184906316Y-113152255D01*
X184844134Y-113145500D01*
X184765852Y-113145500D01*
X184697731Y-113125498D01*
X184651238Y-113071842D01*
X184641134Y-113001568D01*
X184670628Y-112936988D01*
X184692684Y-112916921D01*
X184759016Y-112869607D01*
X184808243Y-112834494D01*
X184972303Y-112671005D01*
X185107458Y-112482917D01*
X185120304Y-112456926D01*
X185207784Y-112279922D01*
X185207785Y-112279920D01*
X185210078Y-112275280D01*
X185277408Y-112053671D01*
X185307640Y-111824041D01*
X185309327Y-111755000D01*
X185300549Y-111648230D01*
X185290773Y-111529318D01*
X185290772Y-111529312D01*
X185290349Y-111524167D01*
X185233925Y-111299533D01*
X185231866Y-111294797D01*
X185143630Y-111091868D01*
X185143628Y-111091865D01*
X185141570Y-111087131D01*
X185015764Y-110892665D01*
X184979044Y-110852310D01*
X184925848Y-110793848D01*
X184894796Y-110730002D01*
X184903192Y-110659504D01*
X184948369Y-110604736D01*
X184974812Y-110591067D01*
X185034297Y-110568767D01*
X185042705Y-110565615D01*
X185159261Y-110478261D01*
X185246615Y-110361705D01*
X185297745Y-110225316D01*
X185304500Y-110163134D01*
X185304500Y-108266866D01*
X185297745Y-108204684D01*
X185246615Y-108068295D01*
X185159261Y-107951739D01*
X185042705Y-107864385D01*
X184906316Y-107813255D01*
X184844134Y-107806500D01*
X182947866Y-107806500D01*
X182885684Y-107813255D01*
X182749295Y-107864385D01*
X182632739Y-107951739D01*
X182545385Y-108068295D01*
X182542233Y-108076703D01*
X182540698Y-108079507D01*
X182490441Y-108129654D01*
X182430177Y-108145000D01*
X179944500Y-108145000D01*
X179876379Y-108124998D01*
X179829886Y-108071342D01*
X179818500Y-108019000D01*
X179818500Y-107955600D01*
X179818163Y-107952350D01*
X179808238Y-107856692D01*
X179808237Y-107856688D01*
X179807526Y-107849834D01*
X179801109Y-107830598D01*
X179753868Y-107689002D01*
X179751550Y-107682054D01*
X179658478Y-107531652D01*
X179533303Y-107406695D01*
X179527072Y-107402854D01*
X179388968Y-107317725D01*
X179388966Y-107317724D01*
X179382738Y-107313885D01*
X179222254Y-107260655D01*
X179221389Y-107260368D01*
X179221387Y-107260368D01*
X179214861Y-107258203D01*
X179208025Y-107257503D01*
X179208022Y-107257502D01*
X179164969Y-107253091D01*
X179110400Y-107247500D01*
X177759600Y-107247500D01*
X177756354Y-107247837D01*
X177756350Y-107247837D01*
X177660692Y-107257762D01*
X177660688Y-107257763D01*
X177653834Y-107258474D01*
X177647298Y-107260655D01*
X177647296Y-107260655D01*
X177515194Y-107304728D01*
X177486054Y-107314450D01*
X177335652Y-107407522D01*
X177210695Y-107532697D01*
X177206855Y-107538927D01*
X177206854Y-107538928D01*
X177125585Y-107670771D01*
X177117885Y-107683262D01*
X177115581Y-107690209D01*
X177075017Y-107812507D01*
X177062203Y-107851139D01*
X177051500Y-107955600D01*
X177051500Y-108856400D01*
X177062474Y-108962166D01*
X177118450Y-109129946D01*
X177211522Y-109280348D01*
X177336697Y-109405305D01*
X177342927Y-109409145D01*
X177342928Y-109409146D01*
X177480090Y-109493694D01*
X177487262Y-109498115D01*
X177525395Y-109510763D01*
X177648611Y-109551632D01*
X177648613Y-109551632D01*
X177655139Y-109553797D01*
X177661975Y-109554497D01*
X177661978Y-109554498D01*
X177705031Y-109558909D01*
X177759600Y-109564500D01*
X179110400Y-109564500D01*
X179113646Y-109564163D01*
X179113650Y-109564163D01*
X179209308Y-109554238D01*
X179209312Y-109554237D01*
X179216166Y-109553526D01*
X179222702Y-109551345D01*
X179222704Y-109551345D01*
X179354806Y-109507272D01*
X179383946Y-109497550D01*
X179534348Y-109404478D01*
X179612708Y-109325982D01*
X179674989Y-109291903D01*
X179701880Y-109289000D01*
X182361500Y-109289000D01*
X182429621Y-109309002D01*
X182476114Y-109362658D01*
X182487500Y-109415000D01*
X182487500Y-110163134D01*
X182494255Y-110225316D01*
X182545385Y-110361705D01*
X182632739Y-110478261D01*
X182749295Y-110565615D01*
X182757704Y-110568767D01*
X182757705Y-110568768D01*
X182817164Y-110591058D01*
X182873929Y-110633699D01*
X182898629Y-110700261D01*
X182883422Y-110769609D01*
X182864029Y-110796091D01*
X182818839Y-110843380D01*
X182797639Y-110865564D01*
X182794725Y-110869836D01*
X182794724Y-110869837D01*
X182780711Y-110890379D01*
X182667119Y-111056899D01*
X182569602Y-111266981D01*
X182507707Y-111490169D01*
X182483095Y-111720469D01*
X182483392Y-111725622D01*
X182483392Y-111725625D01*
X182494938Y-111925869D01*
X182496427Y-111951697D01*
X182497564Y-111956743D01*
X182497565Y-111956749D01*
X182521028Y-112060861D01*
X182547346Y-112177642D01*
X182549288Y-112182424D01*
X182549289Y-112182428D01*
X182626702Y-112373072D01*
X182634484Y-112392237D01*
X182687210Y-112478278D01*
X182744457Y-112571696D01*
X182755501Y-112589719D01*
X182907147Y-112764784D01*
X183085349Y-112912730D01*
X183089816Y-112915340D01*
X183091168Y-112916287D01*
X183135496Y-112971744D01*
X183142805Y-113042363D01*
X183110774Y-113105724D01*
X183049573Y-113141709D01*
X183018897Y-113145500D01*
X182947866Y-113145500D01*
X182885684Y-113152255D01*
X182749295Y-113203385D01*
X182632739Y-113290739D01*
X182545385Y-113407295D01*
X182494255Y-113543684D01*
X182487500Y-113605866D01*
X182487500Y-113608887D01*
X182463865Y-113675757D01*
X182407772Y-113719278D01*
X182361709Y-113728000D01*
X179944500Y-113728000D01*
X179876379Y-113707998D01*
X179829886Y-113654342D01*
X179818500Y-113602000D01*
X179818500Y-113543600D01*
X179807526Y-113437834D01*
X179800143Y-113415703D01*
X179753868Y-113277002D01*
X179751550Y-113270054D01*
X179658478Y-113119652D01*
X179533303Y-112994695D01*
X179491604Y-112968991D01*
X179388968Y-112905725D01*
X179388966Y-112905724D01*
X179382738Y-112901885D01*
X179285422Y-112869607D01*
X179227062Y-112829177D01*
X179199825Y-112763612D01*
X179212358Y-112693731D01*
X179260683Y-112641719D01*
X179285213Y-112630490D01*
X179376998Y-112599868D01*
X179383946Y-112597550D01*
X179534348Y-112504478D01*
X179659305Y-112379303D01*
X179716170Y-112287051D01*
X179748275Y-112234968D01*
X179748276Y-112234966D01*
X179752115Y-112228738D01*
X179792669Y-112106472D01*
X179805632Y-112067389D01*
X179805632Y-112067387D01*
X179807797Y-112060861D01*
X179818500Y-111956400D01*
X179818500Y-111055600D01*
X179817959Y-111050383D01*
X179808238Y-110956692D01*
X179808237Y-110956688D01*
X179807526Y-110949834D01*
X179792955Y-110906158D01*
X179753868Y-110789002D01*
X179751550Y-110782054D01*
X179658478Y-110631652D01*
X179533303Y-110506695D01*
X179527072Y-110502854D01*
X179388968Y-110417725D01*
X179388966Y-110417724D01*
X179382738Y-110413885D01*
X179246560Y-110368717D01*
X179221389Y-110360368D01*
X179221387Y-110360368D01*
X179214861Y-110358203D01*
X179208025Y-110357503D01*
X179208022Y-110357502D01*
X179164969Y-110353091D01*
X179110400Y-110347500D01*
X177759600Y-110347500D01*
X177756354Y-110347837D01*
X177756350Y-110347837D01*
X177660692Y-110357762D01*
X177660688Y-110357763D01*
X177653834Y-110358474D01*
X177647298Y-110360655D01*
X177647296Y-110360655D01*
X177612890Y-110372134D01*
X177486054Y-110414450D01*
X177335652Y-110507522D01*
X177210695Y-110632697D01*
X177206855Y-110638927D01*
X177206854Y-110638928D01*
X177204037Y-110643499D01*
X177117885Y-110783262D01*
X177101676Y-110832131D01*
X177077904Y-110903803D01*
X177062203Y-110951139D01*
X177051500Y-111055600D01*
X177051500Y-111956400D01*
X177051837Y-111959646D01*
X177051837Y-111959650D01*
X177061593Y-112053671D01*
X177062474Y-112062166D01*
X177064655Y-112068702D01*
X177064655Y-112068704D01*
X177086310Y-112133612D01*
X177118450Y-112229946D01*
X177211522Y-112380348D01*
X177336697Y-112505305D01*
X177342927Y-112509145D01*
X177342928Y-112509146D01*
X177444403Y-112571696D01*
X177491896Y-112624468D01*
X177503293Y-112694748D01*
X177494463Y-112764640D01*
X177499061Y-112811531D01*
X177485802Y-112881279D01*
X177439965Y-112930971D01*
X177335652Y-112995522D01*
X177210695Y-113120697D01*
X177206855Y-113126927D01*
X177206854Y-113126928D01*
X177187752Y-113157918D01*
X177117885Y-113271262D01*
X177114447Y-113281627D01*
X177075149Y-113400109D01*
X177062203Y-113439139D01*
X177061503Y-113445975D01*
X177061502Y-113445978D01*
X177058660Y-113473715D01*
X177051500Y-113543600D01*
X177051500Y-114444400D01*
X169829970Y-114444400D01*
X173404965Y-110869405D01*
X173467277Y-110835379D01*
X173494060Y-110832500D01*
X174126134Y-110832500D01*
X174188316Y-110825745D01*
X174324705Y-110774615D01*
X174441261Y-110687261D01*
X174528615Y-110570705D01*
X174579745Y-110434316D01*
X174586500Y-110372134D01*
X174586500Y-109571856D01*
X174587578Y-109555409D01*
X174589092Y-109543908D01*
X174589529Y-109540590D01*
X174591156Y-109474000D01*
X174586924Y-109422524D01*
X174586500Y-109412200D01*
X174586500Y-106775866D01*
X174579745Y-106713684D01*
X174528615Y-106577295D01*
X174441261Y-106460739D01*
X174324705Y-106373385D01*
X174188316Y-106322255D01*
X174126134Y-106315500D01*
X172329866Y-106315500D01*
X172267684Y-106322255D01*
X172131295Y-106373385D01*
X172120526Y-106381456D01*
X172033565Y-106446630D01*
X171967059Y-106471478D01*
X171897676Y-106456425D01*
X171882435Y-106446630D01*
X171795474Y-106381456D01*
X171784705Y-106373385D01*
X171648316Y-106322255D01*
X171586134Y-106315500D01*
X169789866Y-106315500D01*
X169727684Y-106322255D01*
X169591295Y-106373385D01*
X169580526Y-106381456D01*
X169493565Y-106446630D01*
X169427059Y-106471478D01*
X169357676Y-106456425D01*
X169342435Y-106446630D01*
X169255474Y-106381456D01*
X169244705Y-106373385D01*
X169108316Y-106322255D01*
X169046134Y-106315500D01*
X167249866Y-106315500D01*
X167187684Y-106322255D01*
X167051295Y-106373385D01*
X167040526Y-106381456D01*
X166953565Y-106446630D01*
X166887059Y-106471478D01*
X166817676Y-106456425D01*
X166802435Y-106446630D01*
X166715474Y-106381456D01*
X166704705Y-106373385D01*
X166568316Y-106322255D01*
X166506134Y-106315500D01*
X164709866Y-106315500D01*
X164647684Y-106322255D01*
X164511295Y-106373385D01*
X164500526Y-106381456D01*
X164413565Y-106446630D01*
X164347059Y-106471478D01*
X164277676Y-106456425D01*
X164262435Y-106446630D01*
X164175474Y-106381456D01*
X164164705Y-106373385D01*
X164028316Y-106322255D01*
X163966134Y-106315500D01*
X162169866Y-106315500D01*
X162107684Y-106322255D01*
X161971295Y-106373385D01*
X161960526Y-106381456D01*
X161873565Y-106446630D01*
X161807059Y-106471478D01*
X161737676Y-106456425D01*
X161722435Y-106446630D01*
X161635474Y-106381456D01*
X161624705Y-106373385D01*
X161488316Y-106322255D01*
X161426134Y-106315500D01*
X159629866Y-106315500D01*
X159567684Y-106322255D01*
X159431295Y-106373385D01*
X159420526Y-106381456D01*
X159333565Y-106446630D01*
X159267059Y-106471478D01*
X159197676Y-106456425D01*
X159182435Y-106446630D01*
X159095474Y-106381456D01*
X159084705Y-106373385D01*
X158948316Y-106322255D01*
X158886134Y-106315500D01*
X157089866Y-106315500D01*
X157027684Y-106322255D01*
X156891295Y-106373385D01*
X156880526Y-106381456D01*
X156793565Y-106446630D01*
X156727059Y-106471478D01*
X156657676Y-106456425D01*
X156642435Y-106446630D01*
X156555474Y-106381456D01*
X156544705Y-106373385D01*
X156408316Y-106322255D01*
X156346134Y-106315500D01*
X154549866Y-106315500D01*
X154487684Y-106322255D01*
X154351295Y-106373385D01*
X154340526Y-106381456D01*
X154253565Y-106446630D01*
X154187059Y-106471478D01*
X154117676Y-106456425D01*
X154102435Y-106446630D01*
X154015474Y-106381456D01*
X154004705Y-106373385D01*
X153868316Y-106322255D01*
X153806134Y-106315500D01*
X152009866Y-106315500D01*
X151947684Y-106322255D01*
X151811295Y-106373385D01*
X151800526Y-106381456D01*
X151713565Y-106446630D01*
X151647059Y-106471478D01*
X151577676Y-106456425D01*
X151562435Y-106446630D01*
X151475474Y-106381456D01*
X151464705Y-106373385D01*
X151328316Y-106322255D01*
X151266134Y-106315500D01*
X150870076Y-106315500D01*
X150801955Y-106295498D01*
X150780981Y-106278595D01*
X150775955Y-106272045D01*
X150752505Y-106254051D01*
X150740114Y-106243184D01*
X148800410Y-104303480D01*
X148766384Y-104241168D01*
X148764290Y-104228431D01*
X148749182Y-104093743D01*
X148748397Y-104086745D01*
X148746080Y-104080091D01*
X148691064Y-103922106D01*
X148691062Y-103922103D01*
X148688745Y-103915448D01*
X148592626Y-103761624D01*
X148578941Y-103747843D01*
X148469778Y-103637915D01*
X148469774Y-103637912D01*
X148464815Y-103632918D01*
X148453697Y-103625862D01*
X148405538Y-103595300D01*
X148311666Y-103535727D01*
X148282463Y-103525328D01*
X148147425Y-103477243D01*
X148147420Y-103477242D01*
X148140790Y-103474881D01*
X148133802Y-103474048D01*
X148133799Y-103474047D01*
X148010698Y-103459368D01*
X147960680Y-103453404D01*
X147953677Y-103454140D01*
X147953676Y-103454140D01*
X147787288Y-103471628D01*
X147787286Y-103471629D01*
X147780288Y-103472364D01*
X147608579Y-103530818D01*
X147602575Y-103534512D01*
X147460095Y-103622166D01*
X147460092Y-103622168D01*
X147454088Y-103625862D01*
X147449053Y-103630793D01*
X147449050Y-103630795D01*
X147329525Y-103747843D01*
X147324493Y-103752771D01*
X147226235Y-103905238D01*
X147223826Y-103911858D01*
X147223824Y-103911861D01*
X147166606Y-104069066D01*
X147164197Y-104075685D01*
X147141463Y-104255640D01*
X147159163Y-104436160D01*
X147216418Y-104608273D01*
X147310380Y-104763424D01*
X147436382Y-104893902D01*
X147588159Y-104993222D01*
X147594763Y-104995678D01*
X147594765Y-104995679D01*
X147751558Y-105053990D01*
X147751560Y-105053990D01*
X147758168Y-105056448D01*
X147765153Y-105057380D01*
X147765157Y-105057381D01*
X147893229Y-105074469D01*
X147920552Y-105078115D01*
X147985429Y-105106951D01*
X147992983Y-105113913D01*
X149037791Y-106158721D01*
X149071817Y-106221033D01*
X149066752Y-106291848D01*
X149024205Y-106348684D01*
X148957685Y-106373495D01*
X148904467Y-106365798D01*
X148788316Y-106322255D01*
X148726134Y-106315500D01*
X146929866Y-106315500D01*
X146867684Y-106322255D01*
X146731295Y-106373385D01*
X146720526Y-106381456D01*
X146633565Y-106446630D01*
X146567059Y-106471478D01*
X146497676Y-106456425D01*
X146482435Y-106446630D01*
X146395474Y-106381456D01*
X146384705Y-106373385D01*
X146248316Y-106322255D01*
X146186134Y-106315500D01*
X144389866Y-106315500D01*
X144327684Y-106322255D01*
X144191295Y-106373385D01*
X144180526Y-106381456D01*
X144093565Y-106446630D01*
X144027059Y-106471478D01*
X143957676Y-106456425D01*
X143942435Y-106446630D01*
X143855474Y-106381456D01*
X143844705Y-106373385D01*
X143708316Y-106322255D01*
X143646134Y-106315500D01*
X141849866Y-106315500D01*
X141787684Y-106322255D01*
X141651295Y-106373385D01*
X141640526Y-106381456D01*
X141553565Y-106446630D01*
X141487059Y-106471478D01*
X141417676Y-106456425D01*
X141402435Y-106446630D01*
X141315474Y-106381456D01*
X141304705Y-106373385D01*
X141168316Y-106322255D01*
X141106134Y-106315500D01*
X139309866Y-106315500D01*
X139247684Y-106322255D01*
X139111295Y-106373385D01*
X139100526Y-106381456D01*
X139013565Y-106446630D01*
X138947059Y-106471478D01*
X138877676Y-106456425D01*
X138862435Y-106446630D01*
X138775474Y-106381456D01*
X138764705Y-106373385D01*
X138628316Y-106322255D01*
X138566134Y-106315500D01*
X136769866Y-106315500D01*
X136707684Y-106322255D01*
X136571295Y-106373385D01*
X136560526Y-106381456D01*
X136473148Y-106446942D01*
X136406642Y-106471790D01*
X136337259Y-106456737D01*
X136322018Y-106446942D01*
X136231649Y-106379214D01*
X136216054Y-106370676D01*
X136095606Y-106325522D01*
X136080351Y-106321895D01*
X136029486Y-106316369D01*
X136022672Y-106316000D01*
X135400115Y-106316000D01*
X135384876Y-106320475D01*
X135383671Y-106321865D01*
X135382000Y-106329548D01*
X135382000Y-110813884D01*
X135386475Y-110829123D01*
X135387865Y-110830328D01*
X135395548Y-110831999D01*
X136022669Y-110831999D01*
X136029490Y-110831629D01*
X136080352Y-110826105D01*
X136095604Y-110822479D01*
X136216054Y-110777324D01*
X136231649Y-110768786D01*
X136322018Y-110701058D01*
X136388525Y-110676210D01*
X136457907Y-110691263D01*
X136473148Y-110701058D01*
X136494841Y-110717316D01*
X136571295Y-110774615D01*
X136707684Y-110825745D01*
X136769866Y-110832500D01*
X137638826Y-110832500D01*
X137643443Y-110832585D01*
X137724673Y-110835564D01*
X137724677Y-110835564D01*
X137729837Y-110835753D01*
X137734957Y-110835097D01*
X137734959Y-110835097D01*
X137747261Y-110833521D01*
X137763271Y-110832500D01*
X138566134Y-110832500D01*
X138628316Y-110825745D01*
X138764705Y-110774615D01*
X138862436Y-110701370D01*
X138928941Y-110676522D01*
X138998324Y-110691575D01*
X139013562Y-110701368D01*
X139111295Y-110774615D01*
X139247684Y-110825745D01*
X139309866Y-110832500D01*
X140178826Y-110832500D01*
X140183443Y-110832585D01*
X140264673Y-110835564D01*
X140264677Y-110835564D01*
X140269837Y-110835753D01*
X140274957Y-110835097D01*
X140274959Y-110835097D01*
X140287261Y-110833521D01*
X140303271Y-110832500D01*
X141106134Y-110832500D01*
X141168316Y-110825745D01*
X141304705Y-110774615D01*
X141402436Y-110701370D01*
X141468941Y-110676522D01*
X141538324Y-110691575D01*
X141553562Y-110701368D01*
X141651295Y-110774615D01*
X141787684Y-110825745D01*
X141849866Y-110832500D01*
X143646134Y-110832500D01*
X143708316Y-110825745D01*
X143844705Y-110774615D01*
X143942436Y-110701370D01*
X144008941Y-110676522D01*
X144078324Y-110691575D01*
X144093562Y-110701368D01*
X144191295Y-110774615D01*
X144327684Y-110825745D01*
X144389866Y-110832500D01*
X145258826Y-110832500D01*
X145263443Y-110832585D01*
X145344673Y-110835564D01*
X145344677Y-110835564D01*
X145349837Y-110835753D01*
X145354957Y-110835097D01*
X145354959Y-110835097D01*
X145367261Y-110833521D01*
X145383271Y-110832500D01*
X146186134Y-110832500D01*
X146248316Y-110825745D01*
X146384705Y-110774615D01*
X146482436Y-110701370D01*
X146548941Y-110676522D01*
X146618324Y-110691575D01*
X146633562Y-110701368D01*
X146731295Y-110774615D01*
X146867684Y-110825745D01*
X146929866Y-110832500D01*
X147798826Y-110832500D01*
X147803443Y-110832585D01*
X147884673Y-110835564D01*
X147884677Y-110835564D01*
X147889837Y-110835753D01*
X147894957Y-110835097D01*
X147894959Y-110835097D01*
X147907261Y-110833521D01*
X147923271Y-110832500D01*
X148726134Y-110832500D01*
X148788316Y-110825745D01*
X148924705Y-110774615D01*
X149022436Y-110701370D01*
X149088941Y-110676522D01*
X149158324Y-110691575D01*
X149173562Y-110701368D01*
X149271295Y-110774615D01*
X149407684Y-110825745D01*
X149469866Y-110832500D01*
X150338826Y-110832500D01*
X150343443Y-110832585D01*
X150424673Y-110835564D01*
X150424677Y-110835564D01*
X150429837Y-110835753D01*
X150434957Y-110835097D01*
X150434959Y-110835097D01*
X150447261Y-110833521D01*
X150463271Y-110832500D01*
X151266134Y-110832500D01*
X151328316Y-110825745D01*
X151464705Y-110774615D01*
X151562436Y-110701370D01*
X151628941Y-110676522D01*
X151698324Y-110691575D01*
X151713562Y-110701368D01*
X151811295Y-110774615D01*
X151947684Y-110825745D01*
X152009866Y-110832500D01*
X152878826Y-110832500D01*
X152883443Y-110832585D01*
X152964673Y-110835564D01*
X152964677Y-110835564D01*
X152969837Y-110835753D01*
X152974957Y-110835097D01*
X152974959Y-110835097D01*
X152987261Y-110833521D01*
X153003271Y-110832500D01*
X153806134Y-110832500D01*
X153868316Y-110825745D01*
X154004705Y-110774615D01*
X154102436Y-110701370D01*
X154168941Y-110676522D01*
X154238324Y-110691575D01*
X154253562Y-110701368D01*
X154351295Y-110774615D01*
X154487684Y-110825745D01*
X154549866Y-110832500D01*
X156346134Y-110832500D01*
X156408316Y-110825745D01*
X156544705Y-110774615D01*
X156642436Y-110701370D01*
X156708941Y-110676522D01*
X156778324Y-110691575D01*
X156793562Y-110701368D01*
X156891295Y-110774615D01*
X157027684Y-110825745D01*
X157089866Y-110832500D01*
X157958826Y-110832500D01*
X157963443Y-110832585D01*
X158044673Y-110835564D01*
X158044677Y-110835564D01*
X158049837Y-110835753D01*
X158054957Y-110835097D01*
X158054959Y-110835097D01*
X158067261Y-110833521D01*
X158083271Y-110832500D01*
X158886134Y-110832500D01*
X158948316Y-110825745D01*
X159084705Y-110774615D01*
X159182436Y-110701370D01*
X159248941Y-110676522D01*
X159318324Y-110691575D01*
X159333562Y-110701368D01*
X159431295Y-110774615D01*
X159567684Y-110825745D01*
X159629866Y-110832500D01*
X160498826Y-110832500D01*
X160503443Y-110832585D01*
X160584672Y-110835564D01*
X160584677Y-110835564D01*
X160589141Y-110835727D01*
X160589143Y-110835728D01*
X160589837Y-110835753D01*
X160589832Y-110835896D01*
X160656836Y-110852310D01*
X160705714Y-110903803D01*
X160718994Y-110973546D01*
X160692460Y-111039398D01*
X160682687Y-111050383D01*
X153977975Y-117755095D01*
X153915663Y-117789121D01*
X153888880Y-117792000D01*
X153277914Y-117792000D01*
X153209793Y-117771998D01*
X153188508Y-117754784D01*
X153168778Y-117734915D01*
X153168774Y-117734912D01*
X153163815Y-117729918D01*
X153152697Y-117722862D01*
X153104538Y-117692300D01*
X153010666Y-117632727D01*
X152944957Y-117609329D01*
X152846425Y-117574243D01*
X152846420Y-117574242D01*
X152839790Y-117571881D01*
X152832802Y-117571048D01*
X152832799Y-117571047D01*
X152709698Y-117556368D01*
X152659680Y-117550404D01*
X152652677Y-117551140D01*
X152652676Y-117551140D01*
X152486288Y-117568628D01*
X152486286Y-117568629D01*
X152479288Y-117569364D01*
X152307579Y-117627818D01*
X152271253Y-117650166D01*
X152159095Y-117719166D01*
X152159092Y-117719168D01*
X152153088Y-117722862D01*
X152148053Y-117727793D01*
X152148050Y-117727795D01*
X152028525Y-117844843D01*
X152023493Y-117849771D01*
X151925235Y-118002238D01*
X151863197Y-118172685D01*
X151840463Y-118352640D01*
X151858163Y-118533160D01*
X151915418Y-118705273D01*
X151919065Y-118711295D01*
X151919066Y-118711297D01*
X152004726Y-118852739D01*
X152009380Y-118860424D01*
X152014269Y-118865487D01*
X152014270Y-118865488D01*
X152068145Y-118921277D01*
X152135382Y-118990902D01*
X152194039Y-119029286D01*
X152274098Y-119081675D01*
X152287159Y-119090222D01*
X152293763Y-119092678D01*
X152293765Y-119092679D01*
X152450558Y-119150990D01*
X152450560Y-119150990D01*
X152457168Y-119153448D01*
X152539765Y-119164469D01*
X152629980Y-119176507D01*
X152629984Y-119176507D01*
X152636961Y-119177438D01*
X152643972Y-119176800D01*
X152643976Y-119176800D01*
X152786459Y-119163832D01*
X152817600Y-119160998D01*
X152824302Y-119158820D01*
X152824304Y-119158820D01*
X152983409Y-119107124D01*
X152983412Y-119107123D01*
X152990108Y-119104947D01*
X153036835Y-119077092D01*
X153105587Y-119059393D01*
X153172997Y-119081675D01*
X153217659Y-119136863D01*
X153225394Y-119207437D01*
X153207262Y-119253575D01*
X153195235Y-119272238D01*
X153192826Y-119278858D01*
X153192824Y-119278861D01*
X153144829Y-119410727D01*
X153133197Y-119442685D01*
X153110463Y-119622640D01*
X153128163Y-119803160D01*
X153185418Y-119975273D01*
X153189065Y-119981295D01*
X153189066Y-119981297D01*
X153275187Y-120123500D01*
X153279380Y-120130424D01*
X153284269Y-120135487D01*
X153284270Y-120135488D01*
X153313298Y-120165547D01*
X153405382Y-120260902D01*
X153437729Y-120282069D01*
X153532886Y-120344338D01*
X153557159Y-120360222D01*
X153563763Y-120362678D01*
X153563765Y-120362679D01*
X153720558Y-120420990D01*
X153720560Y-120420990D01*
X153727168Y-120423448D01*
X153810995Y-120434633D01*
X153899980Y-120446507D01*
X153899984Y-120446507D01*
X153906961Y-120447438D01*
X153913972Y-120446800D01*
X153913976Y-120446800D01*
X154056459Y-120433832D01*
X154087600Y-120430998D01*
X154094302Y-120428820D01*
X154094304Y-120428820D01*
X154253409Y-120377124D01*
X154253412Y-120377123D01*
X154260108Y-120374947D01*
X154415912Y-120282069D01*
X154459298Y-120240753D01*
X154522421Y-120208262D01*
X154546188Y-120206000D01*
X155402256Y-120206000D01*
X155418702Y-120207078D01*
X155439811Y-120209857D01*
X155439812Y-120209857D01*
X155448000Y-120210935D01*
X155456188Y-120209857D01*
X155456189Y-120209857D01*
X155485479Y-120206001D01*
X155485491Y-120206000D01*
X155485494Y-120206000D01*
X155485503Y-120205999D01*
X155566625Y-120195318D01*
X155597322Y-120191277D01*
X155736468Y-120133641D01*
X155749684Y-120123500D01*
X155825954Y-120064976D01*
X155825955Y-120064975D01*
X155855955Y-120041955D01*
X155873949Y-120018505D01*
X155884816Y-120006114D01*
X165021525Y-110869405D01*
X165083837Y-110835379D01*
X165110620Y-110832500D01*
X165578826Y-110832500D01*
X165583443Y-110832585D01*
X165664673Y-110835564D01*
X165664677Y-110835564D01*
X165669837Y-110835753D01*
X165674957Y-110835097D01*
X165674959Y-110835097D01*
X165687261Y-110833521D01*
X165703271Y-110832500D01*
X166506134Y-110832500D01*
X166568316Y-110825745D01*
X166704705Y-110774615D01*
X166802436Y-110701370D01*
X166868941Y-110676522D01*
X166938324Y-110691575D01*
X166953562Y-110701368D01*
X167051295Y-110774615D01*
X167187684Y-110825745D01*
X167249866Y-110832500D01*
X169046134Y-110832500D01*
X169108316Y-110825745D01*
X169244705Y-110774615D01*
X169342436Y-110701370D01*
X169408941Y-110676522D01*
X169478324Y-110691575D01*
X169493562Y-110701368D01*
X169591295Y-110774615D01*
X169727684Y-110825745D01*
X169789866Y-110832500D01*
X169990000Y-110832500D01*
X170058121Y-110852502D01*
X170104614Y-110906158D01*
X170116000Y-110958500D01*
X170116000Y-112129788D01*
X170095998Y-112197909D01*
X170079095Y-112218883D01*
X159206963Y-123091015D01*
X159144651Y-123125041D01*
X159117868Y-123127920D01*
X125273699Y-123127920D01*
X125205578Y-123107918D01*
X125184604Y-123091015D01*
X124793968Y-122700379D01*
X124759942Y-122638067D01*
X124765007Y-122567252D01*
X124807554Y-122510416D01*
X124874074Y-122485605D01*
X124908182Y-122487813D01*
X124925592Y-122491355D01*
X124925595Y-122491355D01*
X124930656Y-122492385D01*
X125061324Y-122497176D01*
X125156949Y-122500683D01*
X125156953Y-122500683D01*
X125162113Y-122500872D01*
X125167233Y-122500216D01*
X125167235Y-122500216D01*
X125264053Y-122487813D01*
X125391847Y-122471442D01*
X125396795Y-122469957D01*
X125396802Y-122469956D01*
X125608747Y-122406369D01*
X125613690Y-122404886D01*
X125627989Y-122397881D01*
X125817049Y-122305262D01*
X125817052Y-122305260D01*
X125821684Y-122302991D01*
X126010243Y-122168494D01*
X126174303Y-122005005D01*
X126193922Y-121977703D01*
X126205127Y-121962109D01*
X126309458Y-121816917D01*
X126315086Y-121805531D01*
X126409784Y-121613922D01*
X126409785Y-121613920D01*
X126412078Y-121609280D01*
X126479408Y-121387671D01*
X126509640Y-121158041D01*
X126511327Y-121089000D01*
X126498995Y-120938998D01*
X126492773Y-120863318D01*
X126492772Y-120863312D01*
X126492349Y-120858167D01*
X126474976Y-120789000D01*
X126864693Y-120789000D01*
X126883885Y-121008371D01*
X126940880Y-121221076D01*
X126968606Y-121280535D01*
X127031618Y-121415666D01*
X127031621Y-121415671D01*
X127033944Y-121420653D01*
X127037100Y-121425160D01*
X127037101Y-121425162D01*
X127138355Y-121569767D01*
X127160251Y-121601038D01*
X127315962Y-121756749D01*
X127496346Y-121883056D01*
X127695924Y-121976120D01*
X127908629Y-122033115D01*
X128128000Y-122052307D01*
X128347371Y-122033115D01*
X128560076Y-121976120D01*
X128759654Y-121883056D01*
X128940038Y-121756749D01*
X129095749Y-121601038D01*
X129117646Y-121569767D01*
X129218899Y-121425162D01*
X129218900Y-121425160D01*
X129222056Y-121420653D01*
X129224379Y-121415671D01*
X129224382Y-121415666D01*
X129287394Y-121280535D01*
X129315120Y-121221076D01*
X129372115Y-121008371D01*
X129391307Y-120789000D01*
X129372115Y-120569629D01*
X129315120Y-120356924D01*
X129256405Y-120231009D01*
X129224382Y-120162334D01*
X129224379Y-120162329D01*
X129222056Y-120157347D01*
X129211310Y-120142000D01*
X129098908Y-119981473D01*
X129098906Y-119981470D01*
X129095749Y-119976962D01*
X128940038Y-119821251D01*
X128923748Y-119809844D01*
X128799096Y-119722562D01*
X128759654Y-119694944D01*
X128560076Y-119601880D01*
X128347371Y-119544885D01*
X128128000Y-119525693D01*
X127908629Y-119544885D01*
X127695924Y-119601880D01*
X127621415Y-119636624D01*
X127501334Y-119692618D01*
X127501329Y-119692621D01*
X127496347Y-119694944D01*
X127491840Y-119698100D01*
X127491838Y-119698101D01*
X127320473Y-119818092D01*
X127320470Y-119818094D01*
X127315962Y-119821251D01*
X127160251Y-119976962D01*
X127157094Y-119981470D01*
X127157092Y-119981473D01*
X127044690Y-120142000D01*
X127033944Y-120157347D01*
X127031621Y-120162329D01*
X127031618Y-120162334D01*
X126999595Y-120231009D01*
X126940880Y-120356924D01*
X126883885Y-120569629D01*
X126864693Y-120789000D01*
X126474976Y-120789000D01*
X126445045Y-120669841D01*
X126437184Y-120638544D01*
X126437183Y-120638540D01*
X126435925Y-120633533D01*
X126433866Y-120628797D01*
X126345630Y-120425868D01*
X126345628Y-120425865D01*
X126343570Y-120421131D01*
X126217764Y-120226665D01*
X126198961Y-120206000D01*
X126140725Y-120142000D01*
X126061887Y-120055358D01*
X126057836Y-120052159D01*
X126057832Y-120052155D01*
X125884177Y-119915011D01*
X125884172Y-119915008D01*
X125880123Y-119911810D01*
X125875607Y-119909317D01*
X125875604Y-119909315D01*
X125681879Y-119802373D01*
X125681875Y-119802371D01*
X125677355Y-119799876D01*
X125672486Y-119798152D01*
X125672482Y-119798150D01*
X125463903Y-119724288D01*
X125463899Y-119724287D01*
X125459028Y-119722562D01*
X125453935Y-119721655D01*
X125453932Y-119721654D01*
X125236095Y-119682851D01*
X125236089Y-119682850D01*
X125231006Y-119681945D01*
X125158096Y-119681054D01*
X125004581Y-119679179D01*
X125004579Y-119679179D01*
X124999411Y-119679116D01*
X124770464Y-119714150D01*
X124550314Y-119786106D01*
X124545726Y-119788494D01*
X124545722Y-119788496D01*
X124349461Y-119890663D01*
X124344872Y-119893052D01*
X124340739Y-119896155D01*
X124340736Y-119896157D01*
X124190067Y-120009283D01*
X124159655Y-120032117D01*
X124156083Y-120035855D01*
X124029192Y-120168639D01*
X123999639Y-120199564D01*
X123996725Y-120203836D01*
X123996724Y-120203837D01*
X123981152Y-120226665D01*
X123869119Y-120390899D01*
X123771602Y-120600981D01*
X123709707Y-120824169D01*
X123685095Y-121054469D01*
X123685392Y-121059622D01*
X123685392Y-121059625D01*
X123696444Y-121251297D01*
X123698427Y-121285697D01*
X123698498Y-121286012D01*
X123688375Y-121354858D01*
X123641712Y-121408365D01*
X123573528Y-121428150D01*
X123505471Y-121407931D01*
X123484834Y-121391246D01*
X121083965Y-118990377D01*
X121073098Y-118977986D01*
X121060133Y-118961089D01*
X121060130Y-118961086D01*
X121055104Y-118954536D01*
X121020907Y-118928295D01*
X120935617Y-118862850D01*
X120796471Y-118805214D01*
X120765774Y-118801173D01*
X120684652Y-118790492D01*
X120684643Y-118790491D01*
X120684640Y-118790491D01*
X120684628Y-118790490D01*
X120655338Y-118786634D01*
X120655337Y-118786634D01*
X120647149Y-118785556D01*
X120638961Y-118786634D01*
X120638960Y-118786634D01*
X120617851Y-118789413D01*
X120601405Y-118790491D01*
X119431612Y-118790491D01*
X119363491Y-118770489D01*
X119324761Y-118731264D01*
X119284819Y-118667343D01*
X119265685Y-118598976D01*
X119270678Y-118565424D01*
X119294768Y-118482508D01*
X119294769Y-118482503D01*
X119296562Y-118476331D01*
X119298540Y-118451209D01*
X119299307Y-118441458D01*
X119299307Y-118441450D01*
X119299500Y-118439002D01*
X119299500Y-116630998D01*
X119299306Y-116628531D01*
X119297067Y-116600079D01*
X119297066Y-116600074D01*
X119296562Y-116593669D01*
X119250145Y-116433899D01*
X119215940Y-116376061D01*
X119169491Y-116297520D01*
X119169489Y-116297517D01*
X119165453Y-116290693D01*
X119047807Y-116173047D01*
X119040983Y-116169011D01*
X119040980Y-116169009D01*
X118911427Y-116092392D01*
X118911428Y-116092392D01*
X118904601Y-116088355D01*
X118896990Y-116086144D01*
X118896988Y-116086143D01*
X118809142Y-116060622D01*
X118744831Y-116041938D01*
X118738426Y-116041434D01*
X118738421Y-116041433D01*
X118709958Y-116039193D01*
X118709950Y-116039193D01*
X118707502Y-116039000D01*
X118274498Y-116039000D01*
X118272050Y-116039193D01*
X118272042Y-116039193D01*
X118243579Y-116041433D01*
X118243574Y-116041434D01*
X118237169Y-116041938D01*
X118172858Y-116060622D01*
X118085012Y-116086143D01*
X118085010Y-116086144D01*
X118077399Y-116088355D01*
X117934193Y-116173047D01*
X117931511Y-116175729D01*
X117867139Y-116201002D01*
X117797516Y-116187100D01*
X117781688Y-116176928D01*
X117777807Y-116173047D01*
X117634601Y-116088355D01*
X117626990Y-116086144D01*
X117626988Y-116086143D01*
X117539142Y-116060622D01*
X117474831Y-116041938D01*
X117468426Y-116041434D01*
X117468421Y-116041433D01*
X117439958Y-116039193D01*
X117439950Y-116039193D01*
X117437502Y-116039000D01*
X117004498Y-116039000D01*
X117002050Y-116039193D01*
X117002042Y-116039193D01*
X116973579Y-116041433D01*
X116973574Y-116041434D01*
X116967169Y-116041938D01*
X116902858Y-116060622D01*
X116815012Y-116086143D01*
X116815010Y-116086144D01*
X116807399Y-116088355D01*
X116664193Y-116173047D01*
X116661511Y-116175729D01*
X116597139Y-116201002D01*
X116527516Y-116187100D01*
X116511688Y-116176928D01*
X116507807Y-116173047D01*
X116364601Y-116088355D01*
X116356990Y-116086144D01*
X116356988Y-116086143D01*
X116269142Y-116060622D01*
X116204831Y-116041938D01*
X116198426Y-116041434D01*
X116198421Y-116041433D01*
X116169958Y-116039193D01*
X116169950Y-116039193D01*
X116167502Y-116039000D01*
X115734498Y-116039000D01*
X115732050Y-116039193D01*
X115732042Y-116039193D01*
X115703579Y-116041433D01*
X115703574Y-116041434D01*
X115697169Y-116041938D01*
X115632858Y-116060622D01*
X115545012Y-116086143D01*
X115545010Y-116086144D01*
X115537399Y-116088355D01*
X115394193Y-116173047D01*
X115391511Y-116175729D01*
X115327139Y-116201002D01*
X115257516Y-116187100D01*
X115241688Y-116176928D01*
X115237807Y-116173047D01*
X115094601Y-116088355D01*
X115086990Y-116086144D01*
X115086988Y-116086143D01*
X114999142Y-116060622D01*
X114934831Y-116041938D01*
X114928426Y-116041434D01*
X114928421Y-116041433D01*
X114899958Y-116039193D01*
X114899950Y-116039193D01*
X114897502Y-116039000D01*
X114464498Y-116039000D01*
X114462050Y-116039193D01*
X114462042Y-116039193D01*
X114433579Y-116041433D01*
X114433574Y-116041434D01*
X114427169Y-116041938D01*
X114362858Y-116060622D01*
X114275012Y-116086143D01*
X114275010Y-116086144D01*
X114267399Y-116088355D01*
X114124193Y-116173047D01*
X114121511Y-116175729D01*
X114057139Y-116201002D01*
X113987516Y-116187100D01*
X113971688Y-116176928D01*
X113967807Y-116173047D01*
X113824601Y-116088355D01*
X113816990Y-116086144D01*
X113816988Y-116086143D01*
X113729142Y-116060622D01*
X113664831Y-116041938D01*
X113658426Y-116041434D01*
X113658421Y-116041433D01*
X113629958Y-116039193D01*
X113629950Y-116039193D01*
X113627502Y-116039000D01*
X113194498Y-116039000D01*
X113192050Y-116039193D01*
X113192042Y-116039193D01*
X113163579Y-116041433D01*
X113163574Y-116041434D01*
X113157169Y-116041938D01*
X113092858Y-116060622D01*
X113005012Y-116086143D01*
X113005010Y-116086144D01*
X112997399Y-116088355D01*
X112854193Y-116173047D01*
X112851511Y-116175729D01*
X112787139Y-116201002D01*
X112717516Y-116187100D01*
X112701688Y-116176928D01*
X112697807Y-116173047D01*
X112554601Y-116088355D01*
X112546990Y-116086144D01*
X112546988Y-116086143D01*
X112459142Y-116060622D01*
X112394831Y-116041938D01*
X112388426Y-116041434D01*
X112388421Y-116041433D01*
X112359958Y-116039193D01*
X112359950Y-116039193D01*
X112357502Y-116039000D01*
X111924498Y-116039000D01*
X111922050Y-116039193D01*
X111922042Y-116039193D01*
X111893579Y-116041433D01*
X111893574Y-116041434D01*
X111887169Y-116041938D01*
X111822858Y-116060622D01*
X111735012Y-116086143D01*
X111735010Y-116086144D01*
X111727399Y-116088355D01*
X111584193Y-116173047D01*
X111581511Y-116175729D01*
X111517139Y-116201002D01*
X111447516Y-116187100D01*
X111431688Y-116176928D01*
X111427807Y-116173047D01*
X111284601Y-116088355D01*
X111276990Y-116086144D01*
X111276988Y-116086143D01*
X111189142Y-116060622D01*
X111124831Y-116041938D01*
X111118426Y-116041434D01*
X111118421Y-116041433D01*
X111089958Y-116039193D01*
X111089950Y-116039193D01*
X111087502Y-116039000D01*
X110654498Y-116039000D01*
X110652050Y-116039193D01*
X110652042Y-116039193D01*
X110623579Y-116041433D01*
X110623574Y-116041434D01*
X110617169Y-116041938D01*
X110552858Y-116060622D01*
X110465012Y-116086143D01*
X110465010Y-116086144D01*
X110457399Y-116088355D01*
X110314193Y-116173047D01*
X110311511Y-116175729D01*
X110247139Y-116201002D01*
X110177516Y-116187100D01*
X110161688Y-116176928D01*
X110157807Y-116173047D01*
X110014601Y-116088355D01*
X110006990Y-116086144D01*
X110006988Y-116086143D01*
X109919142Y-116060622D01*
X109854831Y-116041938D01*
X109848426Y-116041434D01*
X109848421Y-116041433D01*
X109819958Y-116039193D01*
X109819950Y-116039193D01*
X109817502Y-116039000D01*
X109384498Y-116039000D01*
X109382050Y-116039193D01*
X109382042Y-116039193D01*
X109353579Y-116041433D01*
X109353574Y-116041434D01*
X109347169Y-116041938D01*
X109282858Y-116060622D01*
X109195012Y-116086143D01*
X109195010Y-116086144D01*
X109187399Y-116088355D01*
X109044193Y-116173047D01*
X109041511Y-116175729D01*
X108977139Y-116201002D01*
X108907516Y-116187100D01*
X108891688Y-116176928D01*
X108887807Y-116173047D01*
X108744601Y-116088355D01*
X108736990Y-116086144D01*
X108736988Y-116086143D01*
X108649142Y-116060622D01*
X108584831Y-116041938D01*
X108578426Y-116041434D01*
X108578421Y-116041433D01*
X108549958Y-116039193D01*
X108549950Y-116039193D01*
X108547502Y-116039000D01*
X108114498Y-116039000D01*
X108112050Y-116039193D01*
X108112042Y-116039193D01*
X108083579Y-116041433D01*
X108083574Y-116041434D01*
X108077169Y-116041938D01*
X108012858Y-116060622D01*
X107925012Y-116086143D01*
X107925010Y-116086144D01*
X107917399Y-116088355D01*
X107774193Y-116173047D01*
X107771253Y-116175987D01*
X107706729Y-116201321D01*
X107637106Y-116187420D01*
X107618360Y-116175371D01*
X107610677Y-116169411D01*
X107481221Y-116092852D01*
X107466790Y-116086607D01*
X107332395Y-116047561D01*
X107318294Y-116047601D01*
X107315000Y-116054870D01*
X107315000Y-119009378D01*
X107318973Y-119022909D01*
X107326871Y-119024044D01*
X107466790Y-118983393D01*
X107481221Y-118977148D01*
X107610676Y-118900590D01*
X107618364Y-118894626D01*
X107684449Y-118868679D01*
X107754072Y-118882580D01*
X107770158Y-118892918D01*
X107774193Y-118896953D01*
X107781023Y-118900992D01*
X107781024Y-118900993D01*
X107818535Y-118923177D01*
X107917399Y-118981645D01*
X107925010Y-118983856D01*
X107925012Y-118983857D01*
X107970352Y-118997029D01*
X108077169Y-119028062D01*
X108083576Y-119028566D01*
X108083580Y-119028567D01*
X108086165Y-119028770D01*
X108087519Y-119029286D01*
X108089922Y-119029725D01*
X108089841Y-119030171D01*
X108152507Y-119054054D01*
X108165376Y-119065287D01*
X110604493Y-121504405D01*
X110638519Y-121566717D01*
X110633454Y-121637533D01*
X110590907Y-121694368D01*
X110524387Y-121719179D01*
X110515398Y-121719500D01*
X110327660Y-121719500D01*
X110259539Y-121699498D01*
X110238565Y-121682595D01*
X109256673Y-120700703D01*
X109226777Y-120653046D01*
X109219982Y-120633533D01*
X109191745Y-120552448D01*
X109095626Y-120398624D01*
X109086835Y-120389771D01*
X108972778Y-120274915D01*
X108972774Y-120274912D01*
X108967815Y-120269918D01*
X108959688Y-120264760D01*
X108899659Y-120226665D01*
X108814666Y-120172727D01*
X108739501Y-120145962D01*
X108650425Y-120114243D01*
X108650420Y-120114242D01*
X108643790Y-120111881D01*
X108636802Y-120111048D01*
X108636799Y-120111047D01*
X108513698Y-120096368D01*
X108463680Y-120090404D01*
X108456677Y-120091140D01*
X108456676Y-120091140D01*
X108290288Y-120108628D01*
X108290286Y-120108629D01*
X108283288Y-120109364D01*
X108111579Y-120167818D01*
X108105575Y-120171512D01*
X107963095Y-120259166D01*
X107963092Y-120259168D01*
X107957088Y-120262862D01*
X107952053Y-120267793D01*
X107952050Y-120267795D01*
X107832525Y-120384843D01*
X107827493Y-120389771D01*
X107729235Y-120542238D01*
X107726826Y-120548858D01*
X107726824Y-120548861D01*
X107682791Y-120669841D01*
X107667197Y-120712685D01*
X107644463Y-120892640D01*
X107662163Y-121073160D01*
X107719418Y-121245273D01*
X107723065Y-121251295D01*
X107723066Y-121251297D01*
X107807822Y-121391246D01*
X107813380Y-121400424D01*
X107818269Y-121405487D01*
X107818270Y-121405488D01*
X107826215Y-121413715D01*
X107939382Y-121530902D01*
X107945278Y-121534760D01*
X108073396Y-121618598D01*
X108091159Y-121630222D01*
X108097763Y-121632678D01*
X108097765Y-121632679D01*
X108210439Y-121674582D01*
X108255614Y-121703584D01*
X109329639Y-122777610D01*
X109363665Y-122839922D01*
X109358600Y-122910738D01*
X109316053Y-122967573D01*
X109275697Y-122987702D01*
X109195012Y-123011143D01*
X109195010Y-123011144D01*
X109187399Y-123013355D01*
X109044193Y-123098047D01*
X109041511Y-123100729D01*
X108977139Y-123126002D01*
X108907516Y-123112100D01*
X108891688Y-123101928D01*
X108887807Y-123098047D01*
X108744601Y-123013355D01*
X108736990Y-123011144D01*
X108736988Y-123011143D01*
X108671323Y-122992066D01*
X108584831Y-122966938D01*
X108578426Y-122966434D01*
X108578421Y-122966433D01*
X108549958Y-122964193D01*
X108549950Y-122964193D01*
X108547502Y-122964000D01*
X108114498Y-122964000D01*
X108112050Y-122964193D01*
X108112042Y-122964193D01*
X108083579Y-122966433D01*
X108083574Y-122966434D01*
X108077169Y-122966938D01*
X107990677Y-122992066D01*
X107925012Y-123011143D01*
X107925010Y-123011144D01*
X107917399Y-123013355D01*
X107774193Y-123098047D01*
X107771253Y-123100987D01*
X107706729Y-123126321D01*
X107637106Y-123112420D01*
X107618360Y-123100371D01*
X107610677Y-123094411D01*
X107481221Y-123017852D01*
X107466790Y-123011607D01*
X107332395Y-122972561D01*
X107318294Y-122972601D01*
X107315000Y-122979870D01*
X107315000Y-125934378D01*
X107318973Y-125947909D01*
X107326871Y-125949044D01*
X107466790Y-125908393D01*
X107481225Y-125902146D01*
X107575705Y-125846272D01*
X107644521Y-125828813D01*
X107711852Y-125851330D01*
X107756321Y-125906675D01*
X107764765Y-125938277D01*
X107770426Y-125981277D01*
X107773723Y-126006322D01*
X107831359Y-126145468D01*
X107899780Y-126234635D01*
X107923045Y-126264955D01*
X107929595Y-126269981D01*
X107946495Y-126282949D01*
X107958886Y-126293816D01*
X108158435Y-126493365D01*
X108192461Y-126555677D01*
X108187396Y-126626492D01*
X108144849Y-126683328D01*
X108082511Y-126707770D01*
X108036288Y-126712628D01*
X108036286Y-126712629D01*
X108029288Y-126713364D01*
X107857579Y-126771818D01*
X107851575Y-126775512D01*
X107709095Y-126863166D01*
X107709092Y-126863168D01*
X107703088Y-126866862D01*
X107698053Y-126871793D01*
X107698050Y-126871795D01*
X107578525Y-126988843D01*
X107573493Y-126993771D01*
X107475235Y-127146238D01*
X107472826Y-127152858D01*
X107472824Y-127152861D01*
X107434788Y-127257365D01*
X107413197Y-127316685D01*
X107390463Y-127496640D01*
X107391151Y-127503654D01*
X107391605Y-127508287D01*
X107378349Y-127578035D01*
X107334628Y-127626392D01*
X107319029Y-127636479D01*
X107315000Y-127645370D01*
X107315000Y-130599878D01*
X107318973Y-130613409D01*
X107326871Y-130614544D01*
X107466790Y-130573893D01*
X107481221Y-130567648D01*
X107610676Y-130491090D01*
X107618364Y-130485126D01*
X107684449Y-130459179D01*
X107754072Y-130473080D01*
X107770158Y-130483418D01*
X107774193Y-130487453D01*
X107781023Y-130491492D01*
X107781024Y-130491493D01*
X107856812Y-130536314D01*
X107917399Y-130572145D01*
X107925010Y-130574356D01*
X107925012Y-130574357D01*
X107977231Y-130589528D01*
X108077169Y-130618562D01*
X108083574Y-130619066D01*
X108083579Y-130619067D01*
X108112042Y-130621307D01*
X108112050Y-130621307D01*
X108114498Y-130621500D01*
X108547502Y-130621500D01*
X108549950Y-130621307D01*
X108549958Y-130621307D01*
X108578421Y-130619067D01*
X108578426Y-130619066D01*
X108584831Y-130618562D01*
X108682534Y-130590177D01*
X108736992Y-130574356D01*
X108736995Y-130574355D01*
X108744601Y-130572145D01*
X108751421Y-130568111D01*
X108751457Y-130568096D01*
X108821918Y-130559399D01*
X108885897Y-130590177D01*
X108923079Y-130650659D01*
X108926895Y-130671435D01*
X108932163Y-130725160D01*
X108989418Y-130897273D01*
X108993065Y-130903295D01*
X108993066Y-130903297D01*
X109076463Y-131041002D01*
X109083380Y-131052424D01*
X109209382Y-131182902D01*
X109361159Y-131282222D01*
X109367763Y-131284678D01*
X109367765Y-131284679D01*
X109524558Y-131342990D01*
X109524560Y-131342990D01*
X109531168Y-131345448D01*
X109614995Y-131356633D01*
X109703980Y-131368507D01*
X109703984Y-131368507D01*
X109710961Y-131369438D01*
X109717972Y-131368800D01*
X109717976Y-131368800D01*
X109860459Y-131355832D01*
X109891600Y-131352998D01*
X109898302Y-131350820D01*
X109898304Y-131350820D01*
X110057409Y-131299124D01*
X110057412Y-131299123D01*
X110064108Y-131296947D01*
X110219912Y-131204069D01*
X110275118Y-131151497D01*
X110338243Y-131119005D01*
X110408914Y-131125798D01*
X110452643Y-131155214D01*
X110479382Y-131182902D01*
X110631159Y-131282222D01*
X110637763Y-131284678D01*
X110637765Y-131284679D01*
X110794558Y-131342990D01*
X110794560Y-131342990D01*
X110801168Y-131345448D01*
X110884995Y-131356633D01*
X110973980Y-131368507D01*
X110973984Y-131368507D01*
X110980961Y-131369438D01*
X110987972Y-131368800D01*
X110987976Y-131368800D01*
X111130459Y-131355832D01*
X111161600Y-131352998D01*
X111168302Y-131350820D01*
X111168304Y-131350820D01*
X111327409Y-131299124D01*
X111327412Y-131299123D01*
X111334108Y-131296947D01*
X111489912Y-131204069D01*
X111545118Y-131151497D01*
X111608243Y-131119005D01*
X111678914Y-131125798D01*
X111722643Y-131155214D01*
X111749382Y-131182902D01*
X111901159Y-131282222D01*
X111907763Y-131284678D01*
X111907765Y-131284679D01*
X112064558Y-131342990D01*
X112064560Y-131342990D01*
X112071168Y-131345448D01*
X112154995Y-131356633D01*
X112243980Y-131368507D01*
X112243984Y-131368507D01*
X112250961Y-131369438D01*
X112257972Y-131368800D01*
X112257976Y-131368800D01*
X112400459Y-131355832D01*
X112431600Y-131352998D01*
X112438302Y-131350820D01*
X112438304Y-131350820D01*
X112597409Y-131299124D01*
X112597412Y-131299123D01*
X112604108Y-131296947D01*
X112759912Y-131204069D01*
X112815118Y-131151497D01*
X112878243Y-131119005D01*
X112948914Y-131125798D01*
X112992643Y-131155214D01*
X113019382Y-131182902D01*
X113171159Y-131282222D01*
X113177763Y-131284678D01*
X113177765Y-131284679D01*
X113334558Y-131342990D01*
X113334560Y-131342990D01*
X113341168Y-131345448D01*
X113424995Y-131356633D01*
X113513980Y-131368507D01*
X113513984Y-131368507D01*
X113520961Y-131369438D01*
X113527972Y-131368800D01*
X113527976Y-131368800D01*
X113670459Y-131355832D01*
X113701600Y-131352998D01*
X113708302Y-131350820D01*
X113708304Y-131350820D01*
X113867409Y-131299124D01*
X113867412Y-131299123D01*
X113874108Y-131296947D01*
X114029912Y-131204069D01*
X114085118Y-131151497D01*
X114148243Y-131119005D01*
X114218914Y-131125798D01*
X114262643Y-131155214D01*
X114289382Y-131182902D01*
X114441159Y-131282222D01*
X114447763Y-131284678D01*
X114447765Y-131284679D01*
X114604558Y-131342990D01*
X114604560Y-131342990D01*
X114611168Y-131345448D01*
X114694995Y-131356633D01*
X114783980Y-131368507D01*
X114783984Y-131368507D01*
X114790961Y-131369438D01*
X114797972Y-131368800D01*
X114797976Y-131368800D01*
X114940459Y-131355832D01*
X114971600Y-131352998D01*
X114978302Y-131350820D01*
X114978304Y-131350820D01*
X115137409Y-131299124D01*
X115137412Y-131299123D01*
X115144108Y-131296947D01*
X115299912Y-131204069D01*
X115355118Y-131151497D01*
X115418243Y-131119005D01*
X115488914Y-131125798D01*
X115532643Y-131155214D01*
X115559382Y-131182902D01*
X115711159Y-131282222D01*
X115717763Y-131284678D01*
X115717765Y-131284679D01*
X115874558Y-131342990D01*
X115874560Y-131342990D01*
X115881168Y-131345448D01*
X115964995Y-131356633D01*
X116053980Y-131368507D01*
X116053984Y-131368507D01*
X116060961Y-131369438D01*
X116067972Y-131368800D01*
X116067976Y-131368800D01*
X116210459Y-131355832D01*
X116241600Y-131352998D01*
X116248302Y-131350820D01*
X116248304Y-131350820D01*
X116407409Y-131299124D01*
X116407412Y-131299123D01*
X116414108Y-131296947D01*
X116569912Y-131204069D01*
X116625118Y-131151497D01*
X116688243Y-131119005D01*
X116758914Y-131125798D01*
X116802643Y-131155214D01*
X116829382Y-131182902D01*
X116981159Y-131282222D01*
X116987763Y-131284678D01*
X116987765Y-131284679D01*
X117144558Y-131342990D01*
X117144560Y-131342990D01*
X117151168Y-131345448D01*
X117234995Y-131356633D01*
X117323980Y-131368507D01*
X117323984Y-131368507D01*
X117330961Y-131369438D01*
X117337972Y-131368800D01*
X117337976Y-131368800D01*
X117480459Y-131355832D01*
X117511600Y-131352998D01*
X117518302Y-131350820D01*
X117518304Y-131350820D01*
X117677409Y-131299124D01*
X117677412Y-131299123D01*
X117684108Y-131296947D01*
X117839912Y-131204069D01*
X117895118Y-131151497D01*
X117958243Y-131119005D01*
X118028914Y-131125798D01*
X118072643Y-131155214D01*
X118099382Y-131182902D01*
X118251159Y-131282222D01*
X118257763Y-131284678D01*
X118257765Y-131284679D01*
X118414558Y-131342990D01*
X118414560Y-131342990D01*
X118421168Y-131345448D01*
X118504995Y-131356633D01*
X118593980Y-131368507D01*
X118593984Y-131368507D01*
X118600961Y-131369438D01*
X118607972Y-131368800D01*
X118607976Y-131368800D01*
X118750459Y-131355832D01*
X118781600Y-131352998D01*
X118788302Y-131350820D01*
X118788304Y-131350820D01*
X118947409Y-131299124D01*
X118947412Y-131299123D01*
X118954108Y-131296947D01*
X119062237Y-131232489D01*
X119075983Y-131224295D01*
X119144738Y-131206595D01*
X119212147Y-131228877D01*
X119256809Y-131284066D01*
X119266500Y-131332524D01*
X119266500Y-131716400D01*
X119266837Y-131719646D01*
X119266837Y-131719650D01*
X119268624Y-131736868D01*
X119277474Y-131822166D01*
X119333450Y-131989946D01*
X119426522Y-132140348D01*
X119431704Y-132145521D01*
X119493290Y-132207000D01*
X119551697Y-132265305D01*
X119557927Y-132269145D01*
X119557928Y-132269146D01*
X119626928Y-132311678D01*
X119702262Y-132358115D01*
X119722197Y-132364727D01*
X119863611Y-132411632D01*
X119863613Y-132411632D01*
X119870139Y-132413797D01*
X119876975Y-132414497D01*
X119876978Y-132414498D01*
X119920031Y-132418909D01*
X119974600Y-132424500D01*
X121222000Y-132424500D01*
X121290121Y-132444502D01*
X121336614Y-132498158D01*
X121348000Y-132550500D01*
X121348000Y-133081500D01*
X121327998Y-133149621D01*
X121274342Y-133196114D01*
X121222000Y-133207500D01*
X119974600Y-133207500D01*
X119971354Y-133207837D01*
X119971350Y-133207837D01*
X119875692Y-133217762D01*
X119875688Y-133217763D01*
X119868834Y-133218474D01*
X119862298Y-133220655D01*
X119862296Y-133220655D01*
X119784923Y-133246469D01*
X119701054Y-133274450D01*
X119550652Y-133367522D01*
X119425695Y-133492697D01*
X119421855Y-133498927D01*
X119421854Y-133498928D01*
X119343084Y-133626717D01*
X119332885Y-133643262D01*
X119314597Y-133698399D01*
X119288003Y-133778579D01*
X119277203Y-133811139D01*
X119266500Y-133915600D01*
X119266500Y-134603050D01*
X119246498Y-134671171D01*
X119192842Y-134717664D01*
X119122568Y-134727768D01*
X119057988Y-134698274D01*
X119054309Y-134694848D01*
X119053413Y-134694153D01*
X119047807Y-134688547D01*
X119040983Y-134684511D01*
X119040980Y-134684509D01*
X118911427Y-134607892D01*
X118911428Y-134607892D01*
X118904601Y-134603855D01*
X118896990Y-134601644D01*
X118896988Y-134601643D01*
X118844769Y-134586472D01*
X118744831Y-134557438D01*
X118738426Y-134556934D01*
X118738421Y-134556933D01*
X118709958Y-134554693D01*
X118709950Y-134554693D01*
X118707502Y-134554500D01*
X118274498Y-134554500D01*
X118272050Y-134554693D01*
X118272042Y-134554693D01*
X118243579Y-134556933D01*
X118243574Y-134556934D01*
X118237169Y-134557438D01*
X118137231Y-134586472D01*
X118085012Y-134601643D01*
X118085010Y-134601644D01*
X118077399Y-134603855D01*
X117934193Y-134688547D01*
X117931511Y-134691229D01*
X117867139Y-134716502D01*
X117797516Y-134702600D01*
X117781688Y-134692428D01*
X117777807Y-134688547D01*
X117634601Y-134603855D01*
X117626990Y-134601644D01*
X117626988Y-134601643D01*
X117574769Y-134586472D01*
X117474831Y-134557438D01*
X117468426Y-134556934D01*
X117468421Y-134556933D01*
X117439958Y-134554693D01*
X117439950Y-134554693D01*
X117437502Y-134554500D01*
X117004498Y-134554500D01*
X117002050Y-134554693D01*
X117002042Y-134554693D01*
X116973579Y-134556933D01*
X116973574Y-134556934D01*
X116967169Y-134557438D01*
X116867231Y-134586472D01*
X116815012Y-134601643D01*
X116815010Y-134601644D01*
X116807399Y-134603855D01*
X116664193Y-134688547D01*
X116661511Y-134691229D01*
X116597139Y-134716502D01*
X116527516Y-134702600D01*
X116511688Y-134692428D01*
X116507807Y-134688547D01*
X116364601Y-134603855D01*
X116356990Y-134601644D01*
X116356988Y-134601643D01*
X116304769Y-134586472D01*
X116204831Y-134557438D01*
X116198426Y-134556934D01*
X116198421Y-134556933D01*
X116169958Y-134554693D01*
X116169950Y-134554693D01*
X116167502Y-134554500D01*
X115734498Y-134554500D01*
X115732050Y-134554693D01*
X115732042Y-134554693D01*
X115703579Y-134556933D01*
X115703574Y-134556934D01*
X115697169Y-134557438D01*
X115597231Y-134586472D01*
X115545012Y-134601643D01*
X115545010Y-134601644D01*
X115537399Y-134603855D01*
X115394193Y-134688547D01*
X115391511Y-134691229D01*
X115327139Y-134716502D01*
X115257516Y-134702600D01*
X115241688Y-134692428D01*
X115237807Y-134688547D01*
X115094601Y-134603855D01*
X115086990Y-134601644D01*
X115086988Y-134601643D01*
X115034769Y-134586472D01*
X114934831Y-134557438D01*
X114928426Y-134556934D01*
X114928421Y-134556933D01*
X114899958Y-134554693D01*
X114899950Y-134554693D01*
X114897502Y-134554500D01*
X114464498Y-134554500D01*
X114462050Y-134554693D01*
X114462042Y-134554693D01*
X114433579Y-134556933D01*
X114433574Y-134556934D01*
X114427169Y-134557438D01*
X114327231Y-134586472D01*
X114275012Y-134601643D01*
X114275010Y-134601644D01*
X114267399Y-134603855D01*
X114124193Y-134688547D01*
X114121511Y-134691229D01*
X114057139Y-134716502D01*
X113987516Y-134702600D01*
X113971688Y-134692428D01*
X113967807Y-134688547D01*
X113824601Y-134603855D01*
X113816990Y-134601644D01*
X113816988Y-134601643D01*
X113764769Y-134586472D01*
X113664831Y-134557438D01*
X113658426Y-134556934D01*
X113658421Y-134556933D01*
X113629958Y-134554693D01*
X113629950Y-134554693D01*
X113627502Y-134554500D01*
X113194498Y-134554500D01*
X113192050Y-134554693D01*
X113192042Y-134554693D01*
X113163579Y-134556933D01*
X113163574Y-134556934D01*
X113157169Y-134557438D01*
X113057231Y-134586472D01*
X113005012Y-134601643D01*
X113005010Y-134601644D01*
X112997399Y-134603855D01*
X112854193Y-134688547D01*
X112851511Y-134691229D01*
X112787139Y-134716502D01*
X112717516Y-134702600D01*
X112701688Y-134692428D01*
X112697807Y-134688547D01*
X112554601Y-134603855D01*
X112546990Y-134601644D01*
X112546988Y-134601643D01*
X112494769Y-134586472D01*
X112394831Y-134557438D01*
X112388426Y-134556934D01*
X112388421Y-134556933D01*
X112359958Y-134554693D01*
X112359950Y-134554693D01*
X112357502Y-134554500D01*
X111924498Y-134554500D01*
X111922050Y-134554693D01*
X111922042Y-134554693D01*
X111893579Y-134556933D01*
X111893574Y-134556934D01*
X111887169Y-134557438D01*
X111787231Y-134586472D01*
X111735012Y-134601643D01*
X111735010Y-134601644D01*
X111727399Y-134603855D01*
X111584193Y-134688547D01*
X111581511Y-134691229D01*
X111517139Y-134716502D01*
X111447516Y-134702600D01*
X111431688Y-134692428D01*
X111427807Y-134688547D01*
X111284601Y-134603855D01*
X111276990Y-134601644D01*
X111276988Y-134601643D01*
X111224769Y-134586472D01*
X111124831Y-134557438D01*
X111118426Y-134556934D01*
X111118421Y-134556933D01*
X111089958Y-134554693D01*
X111089950Y-134554693D01*
X111087502Y-134554500D01*
X110654498Y-134554500D01*
X110652050Y-134554693D01*
X110652042Y-134554693D01*
X110623579Y-134556933D01*
X110623574Y-134556934D01*
X110617169Y-134557438D01*
X110517231Y-134586472D01*
X110465012Y-134601643D01*
X110465010Y-134601644D01*
X110457399Y-134603855D01*
X110314193Y-134688547D01*
X110311511Y-134691229D01*
X110247139Y-134716502D01*
X110177516Y-134702600D01*
X110161688Y-134692428D01*
X110157807Y-134688547D01*
X110014601Y-134603855D01*
X110006990Y-134601644D01*
X110006988Y-134601643D01*
X109954769Y-134586472D01*
X109854831Y-134557438D01*
X109848426Y-134556934D01*
X109848421Y-134556933D01*
X109819958Y-134554693D01*
X109819950Y-134554693D01*
X109817502Y-134554500D01*
X109384498Y-134554500D01*
X109382050Y-134554693D01*
X109382042Y-134554693D01*
X109353579Y-134556933D01*
X109353574Y-134556934D01*
X109347169Y-134557438D01*
X109247231Y-134586472D01*
X109195012Y-134601643D01*
X109195010Y-134601644D01*
X109187399Y-134603855D01*
X109044193Y-134688547D01*
X109041511Y-134691229D01*
X108977139Y-134716502D01*
X108907516Y-134702600D01*
X108891688Y-134692428D01*
X108887807Y-134688547D01*
X108744601Y-134603855D01*
X108736990Y-134601644D01*
X108736988Y-134601643D01*
X108684769Y-134586472D01*
X108584831Y-134557438D01*
X108578426Y-134556934D01*
X108578421Y-134556933D01*
X108549958Y-134554693D01*
X108549950Y-134554693D01*
X108547502Y-134554500D01*
X108114498Y-134554500D01*
X108112050Y-134554693D01*
X108112042Y-134554693D01*
X108083579Y-134556933D01*
X108083574Y-134556934D01*
X108077169Y-134557438D01*
X107977231Y-134586472D01*
X107925012Y-134601643D01*
X107925010Y-134601644D01*
X107917399Y-134603855D01*
X107774193Y-134688547D01*
X107771253Y-134691487D01*
X107706729Y-134716821D01*
X107637106Y-134702920D01*
X107618360Y-134690871D01*
X107610677Y-134684911D01*
X107481221Y-134608352D01*
X107466790Y-134602107D01*
X107332395Y-134563061D01*
X107318294Y-134563101D01*
X107315000Y-134570370D01*
X107315000Y-137524878D01*
X107318973Y-137538409D01*
X107326871Y-137539544D01*
X107466790Y-137498893D01*
X107481221Y-137492648D01*
X107610676Y-137416090D01*
X107618364Y-137410126D01*
X107684449Y-137384179D01*
X107754072Y-137398080D01*
X107770158Y-137408418D01*
X107774193Y-137412453D01*
X107781023Y-137416492D01*
X107781024Y-137416493D01*
X107856812Y-137461314D01*
X107917399Y-137497145D01*
X107925009Y-137499356D01*
X107925014Y-137499358D01*
X108054152Y-137536875D01*
X108113988Y-137575087D01*
X108143666Y-137639584D01*
X108145000Y-137657872D01*
X108145000Y-142876000D01*
X108124998Y-142944121D01*
X108071342Y-142990614D01*
X108019000Y-143002000D01*
X106552500Y-143002000D01*
X106484379Y-142981998D01*
X106437886Y-142928342D01*
X106426500Y-142876000D01*
X106426500Y-137586826D01*
X106446502Y-137518705D01*
X106500158Y-137472212D01*
X106570432Y-137462108D01*
X106616638Y-137478372D01*
X106640775Y-137492646D01*
X106655210Y-137498893D01*
X106789605Y-137537939D01*
X106803706Y-137537899D01*
X106807000Y-137530630D01*
X106807000Y-134576122D01*
X106803027Y-134562591D01*
X106795129Y-134561456D01*
X106655210Y-134602107D01*
X106640775Y-134608354D01*
X106616638Y-134622628D01*
X106547822Y-134640087D01*
X106480491Y-134617570D01*
X106436022Y-134562225D01*
X106426500Y-134514174D01*
X106426500Y-130661826D01*
X106446502Y-130593705D01*
X106500158Y-130547212D01*
X106570432Y-130537108D01*
X106616638Y-130553372D01*
X106640775Y-130567646D01*
X106655210Y-130573893D01*
X106789605Y-130612939D01*
X106803706Y-130612899D01*
X106807000Y-130605630D01*
X106807000Y-127651122D01*
X106803027Y-127637591D01*
X106795129Y-127636456D01*
X106655210Y-127677107D01*
X106640775Y-127683354D01*
X106616638Y-127697628D01*
X106547822Y-127715087D01*
X106480491Y-127692570D01*
X106436022Y-127637225D01*
X106426500Y-127589174D01*
X106426500Y-125996326D01*
X106446502Y-125928205D01*
X106500158Y-125881712D01*
X106570432Y-125871608D01*
X106616638Y-125887872D01*
X106640775Y-125902146D01*
X106655210Y-125908393D01*
X106789605Y-125947439D01*
X106803706Y-125947399D01*
X106807000Y-125940130D01*
X106807000Y-122985622D01*
X106803027Y-122972091D01*
X106795129Y-122970956D01*
X106655210Y-123011607D01*
X106640775Y-123017854D01*
X106616638Y-123032128D01*
X106547822Y-123049587D01*
X106480491Y-123027070D01*
X106436022Y-122971725D01*
X106426500Y-122923674D01*
X106426500Y-119071326D01*
X106446502Y-119003205D01*
X106500158Y-118956712D01*
X106570432Y-118946608D01*
X106616638Y-118962872D01*
X106640775Y-118977146D01*
X106655210Y-118983393D01*
X106789605Y-119022439D01*
X106803706Y-119022399D01*
X106807000Y-119015130D01*
X106807000Y-116060622D01*
X106803027Y-116047091D01*
X106795129Y-116045956D01*
X106655210Y-116086607D01*
X106640775Y-116092854D01*
X106616638Y-116107128D01*
X106547822Y-116124587D01*
X106480491Y-116102070D01*
X106436022Y-116046725D01*
X106426500Y-115998674D01*
X106426500Y-115604469D01*
X123685095Y-115604469D01*
X123685392Y-115609622D01*
X123685392Y-115609625D01*
X123695536Y-115785562D01*
X123698427Y-115835697D01*
X123699564Y-115840743D01*
X123699565Y-115840749D01*
X123723883Y-115948655D01*
X123749346Y-116061642D01*
X123751288Y-116066424D01*
X123751289Y-116066428D01*
X123816831Y-116227838D01*
X123836484Y-116276237D01*
X123957501Y-116473719D01*
X124109147Y-116648784D01*
X124287349Y-116796730D01*
X124487322Y-116913584D01*
X124703694Y-116996209D01*
X124708760Y-116997240D01*
X124708761Y-116997240D01*
X124761846Y-117008040D01*
X124930656Y-117042385D01*
X125061324Y-117047176D01*
X125156949Y-117050683D01*
X125156953Y-117050683D01*
X125162113Y-117050872D01*
X125167233Y-117050216D01*
X125167235Y-117050216D01*
X125268362Y-117037261D01*
X125391847Y-117021442D01*
X125396795Y-117019957D01*
X125396802Y-117019956D01*
X125608747Y-116956369D01*
X125613690Y-116954886D01*
X125668794Y-116927891D01*
X125817049Y-116855262D01*
X125817052Y-116855260D01*
X125821684Y-116852991D01*
X126010243Y-116718494D01*
X126174303Y-116555005D01*
X126309458Y-116366917D01*
X126356641Y-116271450D01*
X126409784Y-116163922D01*
X126409785Y-116163920D01*
X126412078Y-116159280D01*
X126479004Y-115939000D01*
X126864693Y-115939000D01*
X126883885Y-116158371D01*
X126940880Y-116371076D01*
X126970175Y-116433899D01*
X127031618Y-116565666D01*
X127031621Y-116565671D01*
X127033944Y-116570653D01*
X127037100Y-116575160D01*
X127037101Y-116575162D01*
X127142391Y-116725531D01*
X127160251Y-116751038D01*
X127315962Y-116906749D01*
X127320471Y-116909906D01*
X127320473Y-116909908D01*
X127381466Y-116952616D01*
X127496346Y-117033056D01*
X127695924Y-117126120D01*
X127908629Y-117183115D01*
X128128000Y-117202307D01*
X128347371Y-117183115D01*
X128560076Y-117126120D01*
X128759654Y-117033056D01*
X128874534Y-116952616D01*
X128935527Y-116909908D01*
X128935529Y-116909906D01*
X128940038Y-116906749D01*
X129095749Y-116751038D01*
X129113610Y-116725531D01*
X129218899Y-116575162D01*
X129218900Y-116575160D01*
X129222056Y-116570653D01*
X129224379Y-116565671D01*
X129224382Y-116565666D01*
X129285825Y-116433899D01*
X129315120Y-116371076D01*
X129372115Y-116158371D01*
X129391307Y-115939000D01*
X129372115Y-115719629D01*
X129315120Y-115506924D01*
X129250897Y-115369197D01*
X129224382Y-115312334D01*
X129224379Y-115312329D01*
X129222056Y-115307347D01*
X129218899Y-115302838D01*
X129098908Y-115131473D01*
X129098906Y-115131470D01*
X129095749Y-115126962D01*
X128940038Y-114971251D01*
X128933672Y-114966793D01*
X128826859Y-114892002D01*
X128759654Y-114844944D01*
X128560076Y-114751880D01*
X128347371Y-114694885D01*
X128128000Y-114675693D01*
X127908629Y-114694885D01*
X127695924Y-114751880D01*
X127602562Y-114795415D01*
X127501334Y-114842618D01*
X127501329Y-114842621D01*
X127496347Y-114844944D01*
X127491840Y-114848100D01*
X127491838Y-114848101D01*
X127320473Y-114968092D01*
X127320470Y-114968094D01*
X127315962Y-114971251D01*
X127160251Y-115126962D01*
X127157094Y-115131470D01*
X127157092Y-115131473D01*
X127037101Y-115302838D01*
X127033944Y-115307347D01*
X127031621Y-115312329D01*
X127031618Y-115312334D01*
X127005103Y-115369197D01*
X126940880Y-115506924D01*
X126883885Y-115719629D01*
X126864693Y-115939000D01*
X126479004Y-115939000D01*
X126479408Y-115937671D01*
X126509640Y-115708041D01*
X126511327Y-115639000D01*
X126500905Y-115512235D01*
X126492773Y-115413318D01*
X126492772Y-115413312D01*
X126492349Y-115408167D01*
X126435925Y-115183533D01*
X126433866Y-115178797D01*
X126345630Y-114975868D01*
X126345628Y-114975865D01*
X126343570Y-114971131D01*
X126217764Y-114776665D01*
X126195212Y-114751880D01*
X126142914Y-114694406D01*
X126061887Y-114605358D01*
X126057836Y-114602159D01*
X126057832Y-114602155D01*
X125884177Y-114465011D01*
X125884172Y-114465008D01*
X125880123Y-114461810D01*
X125875607Y-114459317D01*
X125875604Y-114459315D01*
X125681879Y-114352373D01*
X125681875Y-114352371D01*
X125677355Y-114349876D01*
X125672486Y-114348152D01*
X125672482Y-114348150D01*
X125463903Y-114274288D01*
X125463899Y-114274287D01*
X125459028Y-114272562D01*
X125453935Y-114271655D01*
X125453932Y-114271654D01*
X125236095Y-114232851D01*
X125236089Y-114232850D01*
X125231006Y-114231945D01*
X125158096Y-114231054D01*
X125004581Y-114229179D01*
X125004579Y-114229179D01*
X124999411Y-114229116D01*
X124770464Y-114264150D01*
X124550314Y-114336106D01*
X124545726Y-114338494D01*
X124545722Y-114338496D01*
X124359934Y-114435211D01*
X124344872Y-114443052D01*
X124340739Y-114446155D01*
X124340736Y-114446157D01*
X124163790Y-114579012D01*
X124159655Y-114582117D01*
X124126933Y-114616359D01*
X124036494Y-114710998D01*
X123999639Y-114749564D01*
X123996725Y-114753836D01*
X123996724Y-114753837D01*
X123981152Y-114776665D01*
X123869119Y-114940899D01*
X123771602Y-115150981D01*
X123709707Y-115374169D01*
X123685095Y-115604469D01*
X106426500Y-115604469D01*
X106426500Y-114461528D01*
X106446502Y-114393407D01*
X106500158Y-114346914D01*
X106570432Y-114336810D01*
X106635012Y-114366304D01*
X106653324Y-114385961D01*
X106736739Y-114497261D01*
X106853295Y-114584615D01*
X106989684Y-114635745D01*
X107051866Y-114642500D01*
X108848134Y-114642500D01*
X108910316Y-114635745D01*
X109046705Y-114584615D01*
X109163261Y-114497261D01*
X109250615Y-114380705D01*
X109263283Y-114346914D01*
X109294798Y-114262848D01*
X109337440Y-114206084D01*
X109404001Y-114181384D01*
X109473350Y-114196592D01*
X109508017Y-114224580D01*
X109533218Y-114253673D01*
X109540580Y-114260883D01*
X109704434Y-114396916D01*
X109712881Y-114402831D01*
X109896756Y-114510279D01*
X109906042Y-114514729D01*
X110105001Y-114590703D01*
X110114899Y-114593579D01*
X110218250Y-114614606D01*
X110232299Y-114613410D01*
X110236000Y-114603065D01*
X110236000Y-113156000D01*
X110256002Y-113087879D01*
X110309658Y-113041386D01*
X110362000Y-113030000D01*
X110618000Y-113030000D01*
X110686121Y-113050002D01*
X110732614Y-113103658D01*
X110744000Y-113156000D01*
X110744000Y-114602517D01*
X110748064Y-114616359D01*
X110761478Y-114618393D01*
X110768184Y-114617534D01*
X110778262Y-114615392D01*
X110982255Y-114554191D01*
X110991842Y-114550433D01*
X111183095Y-114456739D01*
X111191945Y-114451464D01*
X111365328Y-114327792D01*
X111373200Y-114321139D01*
X111524052Y-114170812D01*
X111530730Y-114162965D01*
X111658022Y-113985819D01*
X111659279Y-113986722D01*
X111706373Y-113943362D01*
X111776311Y-113931145D01*
X111841751Y-113958678D01*
X111869579Y-113990511D01*
X111929987Y-114089088D01*
X112076250Y-114257938D01*
X112248126Y-114400632D01*
X112441000Y-114513338D01*
X112445825Y-114515180D01*
X112445826Y-114515181D01*
X112492351Y-114532947D01*
X112649692Y-114593030D01*
X112654760Y-114594061D01*
X112654763Y-114594062D01*
X112729076Y-114609181D01*
X112868597Y-114637567D01*
X112873772Y-114637757D01*
X112873774Y-114637757D01*
X113086673Y-114645564D01*
X113086677Y-114645564D01*
X113091837Y-114645753D01*
X113096957Y-114645097D01*
X113096959Y-114645097D01*
X113308288Y-114618025D01*
X113308289Y-114618025D01*
X113313416Y-114617368D01*
X113318366Y-114615883D01*
X113522429Y-114554661D01*
X113522434Y-114554659D01*
X113527384Y-114553174D01*
X113727994Y-114454896D01*
X113909860Y-114325173D01*
X114068096Y-114167489D01*
X114075408Y-114157314D01*
X114198453Y-113986077D01*
X114199776Y-113987028D01*
X114246645Y-113943857D01*
X114316580Y-113931625D01*
X114382026Y-113959144D01*
X114409875Y-113990994D01*
X114469987Y-114089088D01*
X114616250Y-114257938D01*
X114788126Y-114400632D01*
X114981000Y-114513338D01*
X114985825Y-114515180D01*
X114985826Y-114515181D01*
X115032351Y-114532947D01*
X115189692Y-114593030D01*
X115194760Y-114594061D01*
X115194763Y-114594062D01*
X115269076Y-114609181D01*
X115408597Y-114637567D01*
X115413772Y-114637757D01*
X115413774Y-114637757D01*
X115626673Y-114645564D01*
X115626677Y-114645564D01*
X115631837Y-114645753D01*
X115636957Y-114645097D01*
X115636959Y-114645097D01*
X115848288Y-114618025D01*
X115848289Y-114618025D01*
X115853416Y-114617368D01*
X115858366Y-114615883D01*
X116062429Y-114554661D01*
X116062434Y-114554659D01*
X116067384Y-114553174D01*
X116267994Y-114454896D01*
X116449860Y-114325173D01*
X116608096Y-114167489D01*
X116615408Y-114157314D01*
X116738453Y-113986077D01*
X116739776Y-113987028D01*
X116786645Y-113943857D01*
X116856580Y-113931625D01*
X116922026Y-113959144D01*
X116949875Y-113990994D01*
X117009987Y-114089088D01*
X117156250Y-114257938D01*
X117328126Y-114400632D01*
X117521000Y-114513338D01*
X117525825Y-114515180D01*
X117525826Y-114515181D01*
X117572351Y-114532947D01*
X117729692Y-114593030D01*
X117734760Y-114594061D01*
X117734763Y-114594062D01*
X117809076Y-114609181D01*
X117948597Y-114637567D01*
X117953772Y-114637757D01*
X117953774Y-114637757D01*
X118166673Y-114645564D01*
X118166677Y-114645564D01*
X118171837Y-114645753D01*
X118176957Y-114645097D01*
X118176959Y-114645097D01*
X118388288Y-114618025D01*
X118388289Y-114618025D01*
X118393416Y-114617368D01*
X118398366Y-114615883D01*
X118602429Y-114554661D01*
X118602434Y-114554659D01*
X118607384Y-114553174D01*
X118807994Y-114454896D01*
X118989860Y-114325173D01*
X119148096Y-114167489D01*
X119155408Y-114157314D01*
X119275435Y-113990277D01*
X119278453Y-113986077D01*
X119287465Y-113967844D01*
X119375136Y-113790453D01*
X119375137Y-113790451D01*
X119377430Y-113785811D01*
X119379001Y-113780640D01*
X146252463Y-113780640D01*
X146270163Y-113961160D01*
X146327418Y-114133273D01*
X146331065Y-114139295D01*
X146331066Y-114139297D01*
X146411774Y-114272562D01*
X146421380Y-114288424D01*
X146426269Y-114293487D01*
X146426270Y-114293488D01*
X146479057Y-114348150D01*
X146547382Y-114418902D01*
X146581356Y-114441134D01*
X146692758Y-114514033D01*
X146699159Y-114518222D01*
X146705763Y-114520678D01*
X146705765Y-114520679D01*
X146862558Y-114578990D01*
X146862560Y-114578990D01*
X146869168Y-114581448D01*
X146938530Y-114590703D01*
X147041980Y-114604507D01*
X147041984Y-114604507D01*
X147048961Y-114605438D01*
X147055972Y-114604800D01*
X147055976Y-114604800D01*
X147198459Y-114591832D01*
X147229600Y-114588998D01*
X147236302Y-114586820D01*
X147236304Y-114586820D01*
X147395409Y-114535124D01*
X147395412Y-114535123D01*
X147402108Y-114532947D01*
X147426727Y-114518271D01*
X147491245Y-114500500D01*
X150445800Y-114500500D01*
X150502609Y-114514033D01*
X150503260Y-114514362D01*
X150509159Y-114518222D01*
X150515766Y-114520679D01*
X150515768Y-114520680D01*
X150672558Y-114578990D01*
X150672560Y-114578990D01*
X150679168Y-114581448D01*
X150748530Y-114590703D01*
X150851980Y-114604507D01*
X150851984Y-114604507D01*
X150858961Y-114605438D01*
X150865972Y-114604800D01*
X150865976Y-114604800D01*
X151008459Y-114591832D01*
X151039600Y-114588998D01*
X151046302Y-114586820D01*
X151046304Y-114586820D01*
X151205409Y-114535124D01*
X151205412Y-114535123D01*
X151212108Y-114532947D01*
X151236727Y-114518271D01*
X151301245Y-114500500D01*
X153493800Y-114500500D01*
X153550609Y-114514033D01*
X153551260Y-114514362D01*
X153557159Y-114518222D01*
X153563766Y-114520679D01*
X153563768Y-114520680D01*
X153720558Y-114578990D01*
X153720560Y-114578990D01*
X153727168Y-114581448D01*
X153796530Y-114590703D01*
X153899980Y-114604507D01*
X153899984Y-114604507D01*
X153906961Y-114605438D01*
X153913972Y-114604800D01*
X153913976Y-114604800D01*
X154056459Y-114591832D01*
X154087600Y-114588998D01*
X154094302Y-114586820D01*
X154094304Y-114586820D01*
X154253409Y-114535124D01*
X154253412Y-114535123D01*
X154260108Y-114532947D01*
X154373766Y-114465193D01*
X154409860Y-114443677D01*
X154409862Y-114443676D01*
X154415912Y-114440069D01*
X154547266Y-114314982D01*
X154647643Y-114163902D01*
X154712055Y-113994338D01*
X154713035Y-113987366D01*
X154736748Y-113818639D01*
X154736748Y-113818636D01*
X154737299Y-113814717D01*
X154737616Y-113792000D01*
X154717397Y-113611745D01*
X154714167Y-113602469D01*
X154660064Y-113447106D01*
X154660062Y-113447103D01*
X154657745Y-113440448D01*
X154561626Y-113286624D01*
X154546371Y-113271262D01*
X154438778Y-113162915D01*
X154438774Y-113162912D01*
X154433815Y-113157918D01*
X154423548Y-113151402D01*
X154373517Y-113119652D01*
X154280666Y-113060727D01*
X154226350Y-113041386D01*
X154116425Y-113002243D01*
X154116420Y-113002242D01*
X154109790Y-112999881D01*
X154102802Y-112999048D01*
X154102799Y-112999047D01*
X153979698Y-112984368D01*
X153929680Y-112978404D01*
X153922677Y-112979140D01*
X153922676Y-112979140D01*
X153756288Y-112996628D01*
X153756286Y-112996629D01*
X153749288Y-112997364D01*
X153659094Y-113028068D01*
X153584249Y-113053547D01*
X153584246Y-113053548D01*
X153577579Y-113055818D01*
X153571576Y-113059511D01*
X153571574Y-113059512D01*
X153562949Y-113064818D01*
X153496928Y-113083500D01*
X151305158Y-113083500D01*
X151245624Y-113066205D01*
X151244948Y-113067590D01*
X151238609Y-113064498D01*
X151232666Y-113060727D01*
X151226033Y-113058365D01*
X151068425Y-113002243D01*
X151068420Y-113002242D01*
X151061790Y-112999881D01*
X151054802Y-112999048D01*
X151054799Y-112999047D01*
X150931698Y-112984368D01*
X150881680Y-112978404D01*
X150874677Y-112979140D01*
X150874676Y-112979140D01*
X150708288Y-112996628D01*
X150708286Y-112996629D01*
X150701288Y-112997364D01*
X150611094Y-113028068D01*
X150536249Y-113053547D01*
X150536246Y-113053548D01*
X150529579Y-113055818D01*
X150523576Y-113059511D01*
X150523574Y-113059512D01*
X150514949Y-113064818D01*
X150448928Y-113083500D01*
X147495158Y-113083500D01*
X147435624Y-113066205D01*
X147434948Y-113067590D01*
X147428609Y-113064498D01*
X147422666Y-113060727D01*
X147416033Y-113058365D01*
X147258425Y-113002243D01*
X147258420Y-113002242D01*
X147251790Y-112999881D01*
X147244802Y-112999048D01*
X147244799Y-112999047D01*
X147121698Y-112984368D01*
X147071680Y-112978404D01*
X147064677Y-112979140D01*
X147064676Y-112979140D01*
X146898288Y-112996628D01*
X146898286Y-112996629D01*
X146891288Y-112997364D01*
X146719579Y-113055818D01*
X146674583Y-113083500D01*
X146571095Y-113147166D01*
X146571092Y-113147168D01*
X146565088Y-113150862D01*
X146560053Y-113155793D01*
X146560050Y-113155795D01*
X146440525Y-113272843D01*
X146435493Y-113277771D01*
X146337235Y-113430238D01*
X146334826Y-113436858D01*
X146334824Y-113436861D01*
X146285612Y-113572069D01*
X146275197Y-113600685D01*
X146252463Y-113780640D01*
X119379001Y-113780640D01*
X119410867Y-113675757D01*
X119440865Y-113577023D01*
X119440865Y-113577021D01*
X119442370Y-113572069D01*
X119471529Y-113350590D01*
X119472946Y-113292598D01*
X119473074Y-113287365D01*
X119473074Y-113287361D01*
X119473156Y-113284000D01*
X119454852Y-113061361D01*
X119400431Y-112844702D01*
X119311354Y-112639840D01*
X119226278Y-112508332D01*
X119192822Y-112456617D01*
X119192820Y-112456614D01*
X119190014Y-112452277D01*
X119039670Y-112287051D01*
X119035619Y-112283852D01*
X119035615Y-112283848D01*
X118868414Y-112151800D01*
X118868410Y-112151798D01*
X118864359Y-112148598D01*
X118827260Y-112128118D01*
X118770543Y-112096809D01*
X118720572Y-112046376D01*
X118705800Y-111976933D01*
X118730916Y-111910528D01*
X118787947Y-111868243D01*
X118831436Y-111860500D01*
X125681864Y-111860500D01*
X125698307Y-111861578D01*
X125730000Y-111865750D01*
X125738189Y-111864672D01*
X125769874Y-111860501D01*
X125769884Y-111860500D01*
X125769885Y-111860500D01*
X125869457Y-111847391D01*
X125880664Y-111845916D01*
X125880666Y-111845915D01*
X125888851Y-111844838D01*
X126036876Y-111783524D01*
X126132072Y-111710477D01*
X126132075Y-111710474D01*
X126163987Y-111685987D01*
X126169017Y-111679432D01*
X126183452Y-111660621D01*
X126194319Y-111648230D01*
X126973144Y-110869405D01*
X127035456Y-110835379D01*
X127062239Y-110832500D01*
X127478826Y-110832500D01*
X127483443Y-110832585D01*
X127564673Y-110835564D01*
X127564677Y-110835564D01*
X127569837Y-110835753D01*
X127574957Y-110835097D01*
X127574959Y-110835097D01*
X127587261Y-110833521D01*
X127603271Y-110832500D01*
X128406134Y-110832500D01*
X128468316Y-110825745D01*
X128604705Y-110774615D01*
X128702436Y-110701370D01*
X128768941Y-110676522D01*
X128838324Y-110691575D01*
X128853562Y-110701368D01*
X128951295Y-110774615D01*
X129087684Y-110825745D01*
X129149866Y-110832500D01*
X130946134Y-110832500D01*
X131008316Y-110825745D01*
X131144705Y-110774615D01*
X131242436Y-110701370D01*
X131308941Y-110676522D01*
X131378324Y-110691575D01*
X131393562Y-110701368D01*
X131491295Y-110774615D01*
X131627684Y-110825745D01*
X131689866Y-110832500D01*
X132558826Y-110832500D01*
X132563443Y-110832585D01*
X132644673Y-110835564D01*
X132644677Y-110835564D01*
X132649837Y-110835753D01*
X132654957Y-110835097D01*
X132654959Y-110835097D01*
X132667261Y-110833521D01*
X132683271Y-110832500D01*
X133486134Y-110832500D01*
X133548316Y-110825745D01*
X133684705Y-110774615D01*
X133761159Y-110717316D01*
X133782852Y-110701058D01*
X133849358Y-110676210D01*
X133918741Y-110691263D01*
X133933982Y-110701058D01*
X134024351Y-110768786D01*
X134039946Y-110777324D01*
X134160394Y-110822478D01*
X134175649Y-110826105D01*
X134226514Y-110831631D01*
X134233328Y-110832000D01*
X134855885Y-110832000D01*
X134871124Y-110827525D01*
X134872329Y-110826135D01*
X134874000Y-110818452D01*
X134874000Y-106334116D01*
X134869525Y-106318877D01*
X134868135Y-106317672D01*
X134860452Y-106316001D01*
X134233331Y-106316001D01*
X134226510Y-106316371D01*
X134175648Y-106321895D01*
X134160396Y-106325521D01*
X134039946Y-106370676D01*
X134024351Y-106379214D01*
X133933982Y-106446942D01*
X133867475Y-106471790D01*
X133798093Y-106456737D01*
X133782852Y-106446942D01*
X133695474Y-106381456D01*
X133684705Y-106373385D01*
X133548316Y-106322255D01*
X133486134Y-106315500D01*
X131689866Y-106315500D01*
X131627684Y-106322255D01*
X131491295Y-106373385D01*
X131480526Y-106381456D01*
X131393565Y-106446630D01*
X131327059Y-106471478D01*
X131257676Y-106456425D01*
X131242435Y-106446630D01*
X131155474Y-106381456D01*
X131144705Y-106373385D01*
X131008316Y-106322255D01*
X130946134Y-106315500D01*
X129149866Y-106315500D01*
X129087684Y-106322255D01*
X128951295Y-106373385D01*
X128940526Y-106381456D01*
X128853565Y-106446630D01*
X128787059Y-106471478D01*
X128717676Y-106456425D01*
X128702435Y-106446630D01*
X128615474Y-106381456D01*
X128604705Y-106373385D01*
X128468316Y-106322255D01*
X128406134Y-106315500D01*
X126609866Y-106315500D01*
X126547684Y-106322255D01*
X126411295Y-106373385D01*
X126400526Y-106381456D01*
X126313565Y-106446630D01*
X126247059Y-106471478D01*
X126177676Y-106456425D01*
X126162435Y-106446630D01*
X126075474Y-106381456D01*
X126064705Y-106373385D01*
X125928316Y-106322255D01*
X125866134Y-106315500D01*
X124069866Y-106315500D01*
X124007684Y-106322255D01*
X123871295Y-106373385D01*
X123754739Y-106460739D01*
X123667385Y-106577295D01*
X123616255Y-106713684D01*
X123609500Y-106775866D01*
X123609500Y-109394219D01*
X123608787Y-109407607D01*
X123605251Y-109440695D01*
X123605548Y-109445848D01*
X123605548Y-109445851D01*
X123609291Y-109510763D01*
X123609500Y-109518016D01*
X123609500Y-110372134D01*
X123616255Y-110434316D01*
X123619027Y-110441712D01*
X123619029Y-110441718D01*
X123630858Y-110473271D01*
X123636041Y-110544078D01*
X123602120Y-110606447D01*
X123539864Y-110640576D01*
X123512876Y-110643500D01*
X110030136Y-110643500D01*
X110013693Y-110642422D01*
X109982000Y-110638250D01*
X109973811Y-110639328D01*
X109942126Y-110643499D01*
X109942117Y-110643500D01*
X109942115Y-110643500D01*
X109942109Y-110643501D01*
X109942107Y-110643501D01*
X109842543Y-110656609D01*
X109831336Y-110658084D01*
X109831334Y-110658085D01*
X109823149Y-110659162D01*
X109772646Y-110680081D01*
X109682752Y-110717316D01*
X109682750Y-110717317D01*
X109675124Y-110720476D01*
X109604570Y-110774615D01*
X109548013Y-110818013D01*
X109542987Y-110824563D01*
X109542984Y-110824566D01*
X109528548Y-110843380D01*
X109517681Y-110855771D01*
X108484856Y-111888595D01*
X108422544Y-111922621D01*
X108395761Y-111925500D01*
X107051866Y-111925500D01*
X106989684Y-111932255D01*
X106853295Y-111983385D01*
X106736739Y-112070739D01*
X106660399Y-112172600D01*
X106653326Y-112182037D01*
X106596467Y-112224552D01*
X106525648Y-112229578D01*
X106463355Y-112195518D01*
X106429365Y-112133187D01*
X106426500Y-112106472D01*
X106426500Y-109864134D01*
X111671500Y-109864134D01*
X111678255Y-109926316D01*
X111729385Y-110062705D01*
X111816739Y-110179261D01*
X111933295Y-110266615D01*
X112069684Y-110317745D01*
X112131866Y-110324500D01*
X113928134Y-110324500D01*
X113990316Y-110317745D01*
X114126705Y-110266615D01*
X114243261Y-110179261D01*
X114330615Y-110062705D01*
X114352799Y-110003529D01*
X114374598Y-109945382D01*
X114417240Y-109888618D01*
X114483802Y-109863918D01*
X114553150Y-109879126D01*
X114587817Y-109907114D01*
X114616250Y-109939938D01*
X114788126Y-110082632D01*
X114981000Y-110195338D01*
X115189692Y-110275030D01*
X115194760Y-110276061D01*
X115194763Y-110276062D01*
X115302017Y-110297883D01*
X115408597Y-110319567D01*
X115413772Y-110319757D01*
X115413774Y-110319757D01*
X115626673Y-110327564D01*
X115626677Y-110327564D01*
X115631837Y-110327753D01*
X115636957Y-110327097D01*
X115636959Y-110327097D01*
X115848288Y-110300025D01*
X115848289Y-110300025D01*
X115853416Y-110299368D01*
X115858366Y-110297883D01*
X116062429Y-110236661D01*
X116062434Y-110236659D01*
X116067384Y-110235174D01*
X116267994Y-110136896D01*
X116449860Y-110007173D01*
X116608096Y-109849489D01*
X116738453Y-109668077D01*
X116739776Y-109669028D01*
X116786645Y-109625857D01*
X116856580Y-109613625D01*
X116922026Y-109641144D01*
X116949875Y-109672994D01*
X117009987Y-109771088D01*
X117156250Y-109939938D01*
X117328126Y-110082632D01*
X117521000Y-110195338D01*
X117729692Y-110275030D01*
X117734760Y-110276061D01*
X117734763Y-110276062D01*
X117842017Y-110297883D01*
X117948597Y-110319567D01*
X117953772Y-110319757D01*
X117953774Y-110319757D01*
X118166673Y-110327564D01*
X118166677Y-110327564D01*
X118171837Y-110327753D01*
X118176957Y-110327097D01*
X118176959Y-110327097D01*
X118388288Y-110300025D01*
X118388289Y-110300025D01*
X118393416Y-110299368D01*
X118398366Y-110297883D01*
X118602429Y-110236661D01*
X118602434Y-110236659D01*
X118607384Y-110235174D01*
X118807994Y-110136896D01*
X118989860Y-110007173D01*
X119148096Y-109849489D01*
X119278453Y-109668077D01*
X119299320Y-109625857D01*
X119375136Y-109472453D01*
X119375137Y-109472451D01*
X119377430Y-109467811D01*
X119442370Y-109254069D01*
X119471529Y-109032590D01*
X119473156Y-108966000D01*
X119454852Y-108743361D01*
X119400431Y-108526702D01*
X119311354Y-108321840D01*
X119240645Y-108212540D01*
X119192822Y-108138617D01*
X119192820Y-108138614D01*
X119190014Y-108134277D01*
X119039670Y-107969051D01*
X119035619Y-107965852D01*
X119035615Y-107965848D01*
X118868414Y-107833800D01*
X118868410Y-107833798D01*
X118864359Y-107830598D01*
X118668789Y-107722638D01*
X118663920Y-107720914D01*
X118663916Y-107720912D01*
X118463087Y-107649795D01*
X118463083Y-107649794D01*
X118458212Y-107648069D01*
X118453119Y-107647162D01*
X118453116Y-107647161D01*
X118243373Y-107609800D01*
X118243367Y-107609799D01*
X118238284Y-107608894D01*
X118164452Y-107607992D01*
X118020081Y-107606228D01*
X118020079Y-107606228D01*
X118014911Y-107606165D01*
X117794091Y-107639955D01*
X117581756Y-107709357D01*
X117383607Y-107812507D01*
X117379474Y-107815610D01*
X117379471Y-107815612D01*
X117209100Y-107943530D01*
X117204965Y-107946635D01*
X117199504Y-107952350D01*
X117093729Y-108063037D01*
X117050629Y-108108138D01*
X116943201Y-108265621D01*
X116888293Y-108310621D01*
X116817768Y-108318792D01*
X116754021Y-108287538D01*
X116733324Y-108263054D01*
X116652822Y-108138617D01*
X116652820Y-108138614D01*
X116650014Y-108134277D01*
X116499670Y-107969051D01*
X116495619Y-107965852D01*
X116495615Y-107965848D01*
X116328414Y-107833800D01*
X116328410Y-107833798D01*
X116324359Y-107830598D01*
X116128789Y-107722638D01*
X116123920Y-107720914D01*
X116123916Y-107720912D01*
X115923087Y-107649795D01*
X115923083Y-107649794D01*
X115918212Y-107648069D01*
X115913119Y-107647162D01*
X115913116Y-107647161D01*
X115703373Y-107609800D01*
X115703367Y-107609799D01*
X115698284Y-107608894D01*
X115624452Y-107607992D01*
X115480081Y-107606228D01*
X115480079Y-107606228D01*
X115474911Y-107606165D01*
X115254091Y-107639955D01*
X115041756Y-107709357D01*
X114843607Y-107812507D01*
X114839474Y-107815610D01*
X114839471Y-107815612D01*
X114669100Y-107943530D01*
X114664965Y-107946635D01*
X114595812Y-108019000D01*
X114584283Y-108031064D01*
X114522759Y-108066494D01*
X114451846Y-108063037D01*
X114394060Y-108021791D01*
X114375207Y-107988243D01*
X114333767Y-107877703D01*
X114330615Y-107869295D01*
X114243261Y-107752739D01*
X114126705Y-107665385D01*
X113990316Y-107614255D01*
X113928134Y-107607500D01*
X112131866Y-107607500D01*
X112069684Y-107614255D01*
X111933295Y-107665385D01*
X111816739Y-107752739D01*
X111729385Y-107869295D01*
X111678255Y-108005684D01*
X111671500Y-108067866D01*
X111671500Y-109864134D01*
X106426500Y-109864134D01*
X106426500Y-102234500D01*
X106446502Y-102166379D01*
X106500158Y-102119886D01*
X106552500Y-102108500D01*
X186817500Y-102108500D01*
X186885621Y-102128502D01*
G37*
%TD.AperFunction*%
%TA.AperFunction,Conductor*%
G36*
X178341001Y-139022002D02*
G01*
X178361975Y-139038905D01*
X178987295Y-139664225D01*
X179021321Y-139726537D01*
X179023599Y-139741024D01*
X179026098Y-139766506D01*
X179036163Y-139869160D01*
X179054205Y-139923396D01*
X179073103Y-139980205D01*
X179075626Y-140051157D01*
X179039389Y-140112209D01*
X178975897Y-140143979D01*
X178942948Y-140143945D01*
X178942831Y-140145438D01*
X178907958Y-140142693D01*
X178907950Y-140142693D01*
X178905502Y-140142500D01*
X178472498Y-140142500D01*
X178470050Y-140142693D01*
X178470042Y-140142693D01*
X178441579Y-140144933D01*
X178441574Y-140144934D01*
X178435169Y-140145438D01*
X178370858Y-140164122D01*
X178283012Y-140189643D01*
X178283010Y-140189644D01*
X178275399Y-140191855D01*
X178132193Y-140276547D01*
X178129511Y-140279229D01*
X178065139Y-140304502D01*
X177995516Y-140290600D01*
X177979688Y-140280428D01*
X177975807Y-140276547D01*
X177832601Y-140191855D01*
X177824990Y-140189644D01*
X177824988Y-140189643D01*
X177737142Y-140164122D01*
X177672831Y-140145438D01*
X177666426Y-140144934D01*
X177666421Y-140144933D01*
X177637958Y-140142693D01*
X177637950Y-140142693D01*
X177635502Y-140142500D01*
X177202498Y-140142500D01*
X177200050Y-140142693D01*
X177200042Y-140142693D01*
X177171579Y-140144933D01*
X177171574Y-140144934D01*
X177165169Y-140145438D01*
X177100858Y-140164122D01*
X177013012Y-140189643D01*
X177013010Y-140189644D01*
X177005399Y-140191855D01*
X176862193Y-140276547D01*
X176859511Y-140279229D01*
X176795139Y-140304502D01*
X176725516Y-140290600D01*
X176709688Y-140280428D01*
X176705807Y-140276547D01*
X176562601Y-140191855D01*
X176554990Y-140189644D01*
X176554988Y-140189643D01*
X176467142Y-140164122D01*
X176402831Y-140145438D01*
X176396426Y-140144934D01*
X176396421Y-140144933D01*
X176367958Y-140142693D01*
X176367950Y-140142693D01*
X176365502Y-140142500D01*
X175932498Y-140142500D01*
X175930050Y-140142693D01*
X175930042Y-140142693D01*
X175901579Y-140144933D01*
X175901574Y-140144934D01*
X175895169Y-140145438D01*
X175830858Y-140164122D01*
X175743012Y-140189643D01*
X175743010Y-140189644D01*
X175735399Y-140191855D01*
X175592193Y-140276547D01*
X175589511Y-140279229D01*
X175525139Y-140304502D01*
X175455516Y-140290600D01*
X175439688Y-140280428D01*
X175435807Y-140276547D01*
X175292601Y-140191855D01*
X175284990Y-140189644D01*
X175284988Y-140189643D01*
X175197142Y-140164122D01*
X175132831Y-140145438D01*
X175126426Y-140144934D01*
X175126421Y-140144933D01*
X175097958Y-140142693D01*
X175097950Y-140142693D01*
X175095502Y-140142500D01*
X174662498Y-140142500D01*
X174660050Y-140142693D01*
X174660042Y-140142693D01*
X174631579Y-140144933D01*
X174631574Y-140144934D01*
X174625169Y-140145438D01*
X174560858Y-140164122D01*
X174473012Y-140189643D01*
X174473010Y-140189644D01*
X174465399Y-140191855D01*
X174322193Y-140276547D01*
X174319253Y-140279487D01*
X174254729Y-140304821D01*
X174185106Y-140290920D01*
X174166360Y-140278871D01*
X174158677Y-140272911D01*
X174029221Y-140196352D01*
X174014790Y-140190107D01*
X173880395Y-140151061D01*
X173866294Y-140151101D01*
X173863000Y-140158370D01*
X173863000Y-141766500D01*
X173842998Y-141834621D01*
X173789342Y-141881114D01*
X173737000Y-141892500D01*
X172819116Y-141892500D01*
X172803877Y-141896975D01*
X172802672Y-141898365D01*
X172801001Y-141906048D01*
X172801001Y-142118020D01*
X172780999Y-142186141D01*
X172727343Y-142232634D01*
X172675001Y-142244020D01*
X168528674Y-142244020D01*
X168460553Y-142224018D01*
X168414060Y-142170362D01*
X168403956Y-142100088D01*
X168421414Y-142051904D01*
X168500275Y-141923968D01*
X168500276Y-141923966D01*
X168504115Y-141917738D01*
X168554278Y-141766500D01*
X168557632Y-141756389D01*
X168557632Y-141756387D01*
X168559797Y-141749861D01*
X168563561Y-141713124D01*
X168565761Y-141691656D01*
X168592603Y-141625929D01*
X168650718Y-141585148D01*
X168691105Y-141578500D01*
X168833699Y-141578500D01*
X168902692Y-141599068D01*
X169032288Y-141683873D01*
X169051159Y-141696222D01*
X169057763Y-141698678D01*
X169057765Y-141698679D01*
X169214558Y-141756990D01*
X169214560Y-141756990D01*
X169221168Y-141759448D01*
X169294382Y-141769217D01*
X169393980Y-141782507D01*
X169393984Y-141782507D01*
X169400961Y-141783438D01*
X169407972Y-141782800D01*
X169407976Y-141782800D01*
X169557218Y-141769217D01*
X169581600Y-141766998D01*
X169588302Y-141764820D01*
X169588304Y-141764820D01*
X169747409Y-141713124D01*
X169747412Y-141713123D01*
X169754108Y-141710947D01*
X169864064Y-141645400D01*
X169903860Y-141621677D01*
X169903862Y-141621676D01*
X169909912Y-141618069D01*
X170041266Y-141492982D01*
X170125377Y-141366385D01*
X172801000Y-141366385D01*
X172805475Y-141381624D01*
X172806865Y-141382829D01*
X172814548Y-141384500D01*
X173336885Y-141384500D01*
X173352124Y-141380025D01*
X173353329Y-141378635D01*
X173355000Y-141370952D01*
X173355000Y-140164122D01*
X173351027Y-140150591D01*
X173343129Y-140149456D01*
X173203210Y-140190107D01*
X173188779Y-140196352D01*
X173059322Y-140272911D01*
X173046896Y-140282551D01*
X172940551Y-140388896D01*
X172930911Y-140401322D01*
X172854352Y-140530779D01*
X172848107Y-140545210D01*
X172805731Y-140691065D01*
X172803430Y-140703667D01*
X172801193Y-140732084D01*
X172801000Y-140737014D01*
X172801000Y-141366385D01*
X170125377Y-141366385D01*
X170141643Y-141341902D01*
X170194731Y-141202149D01*
X170203555Y-141178920D01*
X170203556Y-141178918D01*
X170206055Y-141172338D01*
X170218416Y-141084384D01*
X170230748Y-140996639D01*
X170230748Y-140996636D01*
X170231299Y-140992717D01*
X170231616Y-140970000D01*
X170211397Y-140789745D01*
X170192158Y-140734498D01*
X170154064Y-140625106D01*
X170154062Y-140625103D01*
X170151745Y-140618448D01*
X170103739Y-140541621D01*
X170059359Y-140470598D01*
X170055626Y-140464624D01*
X170050664Y-140459627D01*
X169932778Y-140340915D01*
X169932774Y-140340912D01*
X169927815Y-140335918D01*
X169916697Y-140328862D01*
X169843099Y-140282156D01*
X169774666Y-140238727D01*
X169730449Y-140222982D01*
X169610425Y-140180243D01*
X169610420Y-140180242D01*
X169603790Y-140177881D01*
X169596802Y-140177048D01*
X169596799Y-140177047D01*
X169473698Y-140162368D01*
X169423680Y-140156404D01*
X169416677Y-140157140D01*
X169416676Y-140157140D01*
X169250288Y-140174628D01*
X169250286Y-140174629D01*
X169243288Y-140175364D01*
X169071579Y-140233818D01*
X168917088Y-140328862D01*
X168912054Y-140333791D01*
X168910776Y-140334790D01*
X168844782Y-140360967D01*
X168833204Y-140361500D01*
X168691044Y-140361500D01*
X168622923Y-140341498D01*
X168576430Y-140287842D01*
X168565717Y-140248503D01*
X168565662Y-140247968D01*
X168561532Y-140208169D01*
X168560238Y-140195693D01*
X168560237Y-140195690D01*
X168559526Y-140188834D01*
X168554787Y-140174628D01*
X168505868Y-140028002D01*
X168503550Y-140021054D01*
X168410478Y-139870652D01*
X168355591Y-139815861D01*
X168328891Y-139789207D01*
X168294812Y-139726924D01*
X168299815Y-139656104D01*
X168328736Y-139611016D01*
X168406134Y-139533483D01*
X168411305Y-139528303D01*
X168482159Y-139413357D01*
X168500275Y-139383968D01*
X168500276Y-139383966D01*
X168504115Y-139377738D01*
X168559797Y-139209861D01*
X168569500Y-139115157D01*
X168596341Y-139049430D01*
X168654456Y-139008648D01*
X168694844Y-139002000D01*
X178272880Y-139002000D01*
X178341001Y-139022002D01*
G37*
%TD.AperFunction*%
%TA.AperFunction,Conductor*%
G36*
X148762122Y-134213982D02*
G01*
X148808615Y-134267638D01*
X148820001Y-134319980D01*
X148820001Y-134325984D01*
X148820195Y-134330920D01*
X148822430Y-134359336D01*
X148824730Y-134371931D01*
X148867107Y-134517790D01*
X148873352Y-134532221D01*
X148949911Y-134661677D01*
X148955871Y-134669360D01*
X148981820Y-134735444D01*
X148967922Y-134805067D01*
X148957579Y-134821161D01*
X148953547Y-134825193D01*
X148868855Y-134968399D01*
X148822438Y-135128169D01*
X148821934Y-135134574D01*
X148821933Y-135134579D01*
X148821174Y-135144223D01*
X148819500Y-135165498D01*
X148819500Y-135598502D01*
X148819693Y-135600950D01*
X148819693Y-135600958D01*
X148821644Y-135625740D01*
X148822438Y-135635831D01*
X148836909Y-135685641D01*
X148838430Y-135690876D01*
X148838227Y-135761873D01*
X148799673Y-135821489D01*
X148735008Y-135850797D01*
X148702514Y-135851143D01*
X148623698Y-135841745D01*
X148595680Y-135838404D01*
X148588677Y-135839140D01*
X148588676Y-135839140D01*
X148422288Y-135856628D01*
X148422286Y-135856629D01*
X148415288Y-135857364D01*
X148243579Y-135915818D01*
X148158809Y-135967969D01*
X148090312Y-135986627D01*
X148022598Y-135965289D01*
X148003695Y-135949746D01*
X147738836Y-135684887D01*
X147727969Y-135672496D01*
X147715004Y-135655599D01*
X147715001Y-135655596D01*
X147709975Y-135649046D01*
X147672413Y-135620223D01*
X147660844Y-135611346D01*
X147618976Y-135554009D01*
X147612773Y-135493848D01*
X147624748Y-135408642D01*
X147624749Y-135408632D01*
X147625299Y-135404717D01*
X147625483Y-135391531D01*
X147625561Y-135385962D01*
X147625561Y-135385957D01*
X147625616Y-135382000D01*
X147605397Y-135201745D01*
X147603080Y-135195091D01*
X147548064Y-135037106D01*
X147548062Y-135037103D01*
X147545745Y-135030448D01*
X147518847Y-134987402D01*
X147453359Y-134882598D01*
X147449626Y-134876624D01*
X147444664Y-134871627D01*
X147326778Y-134752915D01*
X147326774Y-134752912D01*
X147321815Y-134747918D01*
X147310697Y-134740862D01*
X147238190Y-134694848D01*
X147168666Y-134650727D01*
X147132534Y-134637861D01*
X147004425Y-134592243D01*
X147004420Y-134592242D01*
X146997790Y-134589881D01*
X146951560Y-134584368D01*
X146923676Y-134581043D01*
X146858403Y-134553115D01*
X146818591Y-134494331D01*
X146817599Y-134420776D01*
X146831768Y-134372008D01*
X146831769Y-134372003D01*
X146833562Y-134365831D01*
X146834074Y-134359336D01*
X146836307Y-134330958D01*
X146836307Y-134330950D01*
X146836500Y-134328502D01*
X146836500Y-134319980D01*
X146856502Y-134251859D01*
X146910158Y-134205366D01*
X146962500Y-134193980D01*
X148694001Y-134193980D01*
X148762122Y-134213982D01*
G37*
%TD.AperFunction*%
%TD*%
M02*
