%TF.GenerationSoftware,KiCad,Pcbnew,(6.0.5)*%
%TF.CreationDate,2022-11-12T13:55:10-06:00*%
%TF.ProjectId,ISA rev5,49534120-7265-4763-952e-6b696361645f,rev?*%
%TF.SameCoordinates,Original*%
%TF.FileFunction,Legend,Bot*%
%TF.FilePolarity,Positive*%
%FSLAX46Y46*%
G04 Gerber Fmt 4.6, Leading zero omitted, Abs format (unit mm)*
G04 Created by KiCad (PCBNEW (6.0.5)) date 2022-11-12 13:55:10*
%MOMM*%
%LPD*%
G01*
G04 APERTURE LIST*
%ADD10C,0.152400*%
%ADD11C,0.200000*%
%ADD12C,0.150000*%
%ADD13C,0.300000*%
%ADD14C,0.120000*%
G04 APERTURE END LIST*
D10*
X128845612Y-129482426D02*
X128458564Y-129482426D01*
X128923021Y-129714655D02*
X128652088Y-128901855D01*
X128381155Y-129714655D01*
X127761879Y-129714655D02*
X127761879Y-128901855D01*
X127761879Y-129675950D02*
X127839288Y-129714655D01*
X127994107Y-129714655D01*
X128071517Y-129675950D01*
X128110221Y-129637245D01*
X128148926Y-129559836D01*
X128148926Y-129327607D01*
X128110221Y-129250198D01*
X128071517Y-129211493D01*
X127994107Y-129172788D01*
X127839288Y-129172788D01*
X127761879Y-129211493D01*
X127026488Y-129714655D02*
X127026488Y-128901855D01*
X127026488Y-129675950D02*
X127103898Y-129714655D01*
X127258717Y-129714655D01*
X127336126Y-129675950D01*
X127374831Y-129637245D01*
X127413536Y-129559836D01*
X127413536Y-129327607D01*
X127374831Y-129250198D01*
X127336126Y-129211493D01*
X127258717Y-129172788D01*
X127103898Y-129172788D01*
X127026488Y-129211493D01*
X126639440Y-129714655D02*
X126639440Y-129172788D01*
X126639440Y-129327607D02*
X126600736Y-129250198D01*
X126562031Y-129211493D01*
X126484621Y-129172788D01*
X126407212Y-129172788D01*
X125826640Y-129675950D02*
X125904050Y-129714655D01*
X126058869Y-129714655D01*
X126136279Y-129675950D01*
X126174983Y-129598540D01*
X126174983Y-129288902D01*
X126136279Y-129211493D01*
X126058869Y-129172788D01*
X125904050Y-129172788D01*
X125826640Y-129211493D01*
X125787936Y-129288902D01*
X125787936Y-129366312D01*
X126174983Y-129443721D01*
X125478298Y-129675950D02*
X125400888Y-129714655D01*
X125246069Y-129714655D01*
X125168660Y-129675950D01*
X125129955Y-129598540D01*
X125129955Y-129559836D01*
X125168660Y-129482426D01*
X125246069Y-129443721D01*
X125362183Y-129443721D01*
X125439593Y-129405017D01*
X125478298Y-129327607D01*
X125478298Y-129288902D01*
X125439593Y-129211493D01*
X125362183Y-129172788D01*
X125246069Y-129172788D01*
X125168660Y-129211493D01*
X124820317Y-129675950D02*
X124742907Y-129714655D01*
X124588088Y-129714655D01*
X124510679Y-129675950D01*
X124471974Y-129598540D01*
X124471974Y-129559836D01*
X124510679Y-129482426D01*
X124588088Y-129443721D01*
X124704202Y-129443721D01*
X124781612Y-129405017D01*
X124820317Y-129327607D01*
X124820317Y-129288902D01*
X124781612Y-129211493D01*
X124704202Y-129172788D01*
X124588088Y-129172788D01*
X124510679Y-129211493D01*
X123039898Y-129714655D02*
X123310831Y-129327607D01*
X123504355Y-129714655D02*
X123504355Y-128901855D01*
X123194717Y-128901855D01*
X123117307Y-128940560D01*
X123078602Y-128979264D01*
X123039898Y-129056674D01*
X123039898Y-129172788D01*
X123078602Y-129250198D01*
X123117307Y-129288902D01*
X123194717Y-129327607D01*
X123504355Y-129327607D01*
X122343212Y-129714655D02*
X122343212Y-129288902D01*
X122381917Y-129211493D01*
X122459326Y-129172788D01*
X122614145Y-129172788D01*
X122691555Y-129211493D01*
X122343212Y-129675950D02*
X122420621Y-129714655D01*
X122614145Y-129714655D01*
X122691555Y-129675950D01*
X122730260Y-129598540D01*
X122730260Y-129521131D01*
X122691555Y-129443721D01*
X122614145Y-129405017D01*
X122420621Y-129405017D01*
X122343212Y-129366312D01*
X121956164Y-129172788D02*
X121956164Y-129714655D01*
X121956164Y-129250198D02*
X121917460Y-129211493D01*
X121840050Y-129172788D01*
X121723936Y-129172788D01*
X121646526Y-129211493D01*
X121607821Y-129288902D01*
X121607821Y-129714655D01*
X120872431Y-129172788D02*
X120872431Y-129830769D01*
X120911136Y-129908179D01*
X120949840Y-129946883D01*
X121027250Y-129985588D01*
X121143364Y-129985588D01*
X121220774Y-129946883D01*
X120872431Y-129675950D02*
X120949840Y-129714655D01*
X121104660Y-129714655D01*
X121182069Y-129675950D01*
X121220774Y-129637245D01*
X121259479Y-129559836D01*
X121259479Y-129327607D01*
X121220774Y-129250198D01*
X121182069Y-129211493D01*
X121104660Y-129172788D01*
X120949840Y-129172788D01*
X120872431Y-129211493D01*
X120175745Y-129675950D02*
X120253155Y-129714655D01*
X120407974Y-129714655D01*
X120485383Y-129675950D01*
X120524088Y-129598540D01*
X120524088Y-129288902D01*
X120485383Y-129211493D01*
X120407974Y-129172788D01*
X120253155Y-129172788D01*
X120175745Y-129211493D01*
X120137040Y-129288902D01*
X120137040Y-129366312D01*
X120524088Y-129443721D01*
X119788698Y-129637245D02*
X119749993Y-129675950D01*
X119788698Y-129714655D01*
X119827402Y-129675950D01*
X119788698Y-129637245D01*
X119788698Y-129714655D01*
X119788698Y-129211493D02*
X119749993Y-129250198D01*
X119788698Y-129288902D01*
X119827402Y-129250198D01*
X119788698Y-129211493D01*
X119788698Y-129288902D01*
X118627555Y-128901855D02*
X118550145Y-128901855D01*
X118472736Y-128940560D01*
X118434031Y-128979264D01*
X118395326Y-129056674D01*
X118356621Y-129211493D01*
X118356621Y-129405017D01*
X118395326Y-129559836D01*
X118434031Y-129637245D01*
X118472736Y-129675950D01*
X118550145Y-129714655D01*
X118627555Y-129714655D01*
X118704964Y-129675950D01*
X118743669Y-129637245D01*
X118782374Y-129559836D01*
X118821079Y-129405017D01*
X118821079Y-129211493D01*
X118782374Y-129056674D01*
X118743669Y-128979264D01*
X118704964Y-128940560D01*
X118627555Y-128901855D01*
X117853460Y-128901855D02*
X117776050Y-128901855D01*
X117698640Y-128940560D01*
X117659936Y-128979264D01*
X117621231Y-129056674D01*
X117582526Y-129211493D01*
X117582526Y-129405017D01*
X117621231Y-129559836D01*
X117659936Y-129637245D01*
X117698640Y-129675950D01*
X117776050Y-129714655D01*
X117853460Y-129714655D01*
X117930869Y-129675950D01*
X117969574Y-129637245D01*
X118008279Y-129559836D01*
X118046983Y-129405017D01*
X118046983Y-129211493D01*
X118008279Y-129056674D01*
X117969574Y-128979264D01*
X117930869Y-128940560D01*
X117853460Y-128901855D01*
X117079364Y-128901855D02*
X117001955Y-128901855D01*
X116924545Y-128940560D01*
X116885840Y-128979264D01*
X116847136Y-129056674D01*
X116808431Y-129211493D01*
X116808431Y-129405017D01*
X116847136Y-129559836D01*
X116885840Y-129637245D01*
X116924545Y-129675950D01*
X117001955Y-129714655D01*
X117079364Y-129714655D01*
X117156774Y-129675950D01*
X117195479Y-129637245D01*
X117234183Y-129559836D01*
X117272888Y-129405017D01*
X117272888Y-129211493D01*
X117234183Y-129056674D01*
X117195479Y-128979264D01*
X117156774Y-128940560D01*
X117079364Y-128901855D01*
X116305269Y-128901855D02*
X116227860Y-128901855D01*
X116150450Y-128940560D01*
X116111745Y-128979264D01*
X116073040Y-129056674D01*
X116034336Y-129211493D01*
X116034336Y-129405017D01*
X116073040Y-129559836D01*
X116111745Y-129637245D01*
X116150450Y-129675950D01*
X116227860Y-129714655D01*
X116305269Y-129714655D01*
X116382679Y-129675950D01*
X116421383Y-129637245D01*
X116460088Y-129559836D01*
X116498793Y-129405017D01*
X116498793Y-129211493D01*
X116460088Y-129056674D01*
X116421383Y-128979264D01*
X116382679Y-128940560D01*
X116305269Y-128901855D01*
X115685993Y-129405017D02*
X115066717Y-129405017D01*
X114408736Y-129288902D02*
X114679669Y-129288902D01*
X114679669Y-129714655D02*
X114679669Y-128901855D01*
X114292621Y-128901855D01*
X113712050Y-129288902D02*
X113982983Y-129288902D01*
X113982983Y-129714655D02*
X113982983Y-128901855D01*
X113595936Y-128901855D01*
X113015364Y-129288902D02*
X113286298Y-129288902D01*
X113286298Y-129714655D02*
X113286298Y-128901855D01*
X112899250Y-128901855D01*
X112318679Y-129288902D02*
X112589612Y-129288902D01*
X112589612Y-129714655D02*
X112589612Y-128901855D01*
X112202564Y-128901855D01*
X111892926Y-129714655D02*
X111892926Y-128901855D01*
X111544583Y-129714655D02*
X111544583Y-129288902D01*
X111583288Y-129211493D01*
X111660698Y-129172788D01*
X111776812Y-129172788D01*
X111854221Y-129211493D01*
X111892926Y-129250198D01*
X140844088Y-130597510D02*
X140727974Y-130636215D01*
X140689269Y-130674920D01*
X140650564Y-130752329D01*
X140650564Y-130868444D01*
X140689269Y-130945853D01*
X140727974Y-130984558D01*
X140805383Y-131023263D01*
X141115021Y-131023263D01*
X141115021Y-130210463D01*
X140844088Y-130210463D01*
X140766679Y-130249168D01*
X140727974Y-130287872D01*
X140689269Y-130365282D01*
X140689269Y-130442691D01*
X140727974Y-130520101D01*
X140766679Y-130558806D01*
X140844088Y-130597510D01*
X141115021Y-130597510D01*
X139953879Y-130481396D02*
X139953879Y-131023263D01*
X140302221Y-130481396D02*
X140302221Y-130907148D01*
X140263517Y-130984558D01*
X140186107Y-131023263D01*
X140069993Y-131023263D01*
X139992583Y-130984558D01*
X139953879Y-130945853D01*
X139605536Y-130984558D02*
X139528126Y-131023263D01*
X139373307Y-131023263D01*
X139295898Y-130984558D01*
X139257193Y-130907148D01*
X139257193Y-130868444D01*
X139295898Y-130791034D01*
X139373307Y-130752329D01*
X139489421Y-130752329D01*
X139566831Y-130713625D01*
X139605536Y-130636215D01*
X139605536Y-130597510D01*
X139566831Y-130520101D01*
X139489421Y-130481396D01*
X139373307Y-130481396D01*
X139295898Y-130520101D01*
X137825117Y-131023263D02*
X138096050Y-130636215D01*
X138289574Y-131023263D02*
X138289574Y-130210463D01*
X137979936Y-130210463D01*
X137902526Y-130249168D01*
X137863821Y-130287872D01*
X137825117Y-130365282D01*
X137825117Y-130481396D01*
X137863821Y-130558806D01*
X137902526Y-130597510D01*
X137979936Y-130636215D01*
X138289574Y-130636215D01*
X137167136Y-130984558D02*
X137244545Y-131023263D01*
X137399364Y-131023263D01*
X137476774Y-130984558D01*
X137515479Y-130907148D01*
X137515479Y-130597510D01*
X137476774Y-130520101D01*
X137399364Y-130481396D01*
X137244545Y-130481396D01*
X137167136Y-130520101D01*
X137128431Y-130597510D01*
X137128431Y-130674920D01*
X137515479Y-130752329D01*
X136431745Y-131023263D02*
X136431745Y-130597510D01*
X136470450Y-130520101D01*
X136547860Y-130481396D01*
X136702679Y-130481396D01*
X136780088Y-130520101D01*
X136431745Y-130984558D02*
X136509155Y-131023263D01*
X136702679Y-131023263D01*
X136780088Y-130984558D01*
X136818793Y-130907148D01*
X136818793Y-130829739D01*
X136780088Y-130752329D01*
X136702679Y-130713625D01*
X136509155Y-130713625D01*
X136431745Y-130674920D01*
X135696355Y-131023263D02*
X135696355Y-130210463D01*
X135696355Y-130984558D02*
X135773764Y-131023263D01*
X135928583Y-131023263D01*
X136005993Y-130984558D01*
X136044698Y-130945853D01*
X136083402Y-130868444D01*
X136083402Y-130636215D01*
X136044698Y-130558806D01*
X136005993Y-130520101D01*
X135928583Y-130481396D01*
X135773764Y-130481396D01*
X135696355Y-130520101D01*
X135386717Y-130481396D02*
X135193193Y-131023263D01*
X134999669Y-130481396D02*
X135193193Y-131023263D01*
X135270602Y-131216787D01*
X135309307Y-131255491D01*
X135386717Y-131294196D01*
X133954640Y-131023263D02*
X134032050Y-130984558D01*
X134070755Y-130945853D01*
X134109460Y-130868444D01*
X134109460Y-130636215D01*
X134070755Y-130558806D01*
X134032050Y-130520101D01*
X133954640Y-130481396D01*
X133838526Y-130481396D01*
X133761117Y-130520101D01*
X133722412Y-130558806D01*
X133683707Y-130636215D01*
X133683707Y-130868444D01*
X133722412Y-130945853D01*
X133761117Y-130984558D01*
X133838526Y-131023263D01*
X133954640Y-131023263D01*
X133335364Y-130481396D02*
X133335364Y-131023263D01*
X133335364Y-130558806D02*
X133296660Y-130520101D01*
X133219250Y-130481396D01*
X133103136Y-130481396D01*
X133025726Y-130520101D01*
X132987021Y-130597510D01*
X132987021Y-131023263D01*
X132019402Y-130791034D02*
X131632355Y-130791034D01*
X132096812Y-131023263D02*
X131825879Y-130210463D01*
X131554945Y-131023263D01*
X131284012Y-130597510D02*
X131013079Y-130597510D01*
X130896964Y-131023263D02*
X131284012Y-131023263D01*
X131284012Y-130210463D01*
X130896964Y-130210463D01*
X130548621Y-131023263D02*
X130548621Y-130210463D01*
X130084164Y-131023263D01*
X130084164Y-130210463D01*
X129077840Y-130481396D02*
X129077840Y-131023263D01*
X129077840Y-130558806D02*
X129039136Y-130520101D01*
X128961726Y-130481396D01*
X128845612Y-130481396D01*
X128768202Y-130520101D01*
X128729498Y-130597510D01*
X128729498Y-131023263D01*
X128226336Y-131023263D02*
X128303745Y-130984558D01*
X128342450Y-130945853D01*
X128381155Y-130868444D01*
X128381155Y-130636215D01*
X128342450Y-130558806D01*
X128303745Y-130520101D01*
X128226336Y-130481396D01*
X128110221Y-130481396D01*
X128032812Y-130520101D01*
X127994107Y-130558806D01*
X127955402Y-130636215D01*
X127955402Y-130868444D01*
X127994107Y-130945853D01*
X128032812Y-130984558D01*
X128110221Y-131023263D01*
X128226336Y-131023263D01*
X127607060Y-131023263D02*
X127607060Y-130481396D01*
X127607060Y-130636215D02*
X127568355Y-130558806D01*
X127529650Y-130520101D01*
X127452240Y-130481396D01*
X127374831Y-130481396D01*
X126484621Y-131023263D02*
X126484621Y-130210463D01*
X125942755Y-130210463D02*
X125787936Y-130210463D01*
X125710526Y-130249168D01*
X125633117Y-130326577D01*
X125594412Y-130481396D01*
X125594412Y-130752329D01*
X125633117Y-130907148D01*
X125710526Y-130984558D01*
X125787936Y-131023263D01*
X125942755Y-131023263D01*
X126020164Y-130984558D01*
X126097574Y-130907148D01*
X126136279Y-130752329D01*
X126136279Y-130481396D01*
X126097574Y-130326577D01*
X126020164Y-130249168D01*
X125942755Y-130210463D01*
X125323479Y-130210463D02*
X125129955Y-131023263D01*
X124975136Y-130442691D01*
X124820317Y-131023263D01*
X124626793Y-130210463D01*
X123697879Y-130713625D02*
X123078602Y-130713625D01*
X123388240Y-131023263D02*
X123388240Y-130403987D01*
X121723936Y-131023263D02*
X121723936Y-130597510D01*
X121762640Y-130520101D01*
X121840050Y-130481396D01*
X121994869Y-130481396D01*
X122072279Y-130520101D01*
X121723936Y-130984558D02*
X121801345Y-131023263D01*
X121994869Y-131023263D01*
X122072279Y-130984558D01*
X122110983Y-130907148D01*
X122110983Y-130829739D01*
X122072279Y-130752329D01*
X121994869Y-130713625D01*
X121801345Y-130713625D01*
X121723936Y-130674920D01*
X120988545Y-131023263D02*
X120988545Y-130210463D01*
X120988545Y-130984558D02*
X121065955Y-131023263D01*
X121220774Y-131023263D01*
X121298183Y-130984558D01*
X121336888Y-130945853D01*
X121375593Y-130868444D01*
X121375593Y-130636215D01*
X121336888Y-130558806D01*
X121298183Y-130520101D01*
X121220774Y-130481396D01*
X121065955Y-130481396D01*
X120988545Y-130520101D01*
X120253155Y-131023263D02*
X120253155Y-130210463D01*
X120253155Y-130984558D02*
X120330564Y-131023263D01*
X120485383Y-131023263D01*
X120562793Y-130984558D01*
X120601498Y-130945853D01*
X120640202Y-130868444D01*
X120640202Y-130636215D01*
X120601498Y-130558806D01*
X120562793Y-130520101D01*
X120485383Y-130481396D01*
X120330564Y-130481396D01*
X120253155Y-130520101D01*
X119866107Y-131023263D02*
X119866107Y-130481396D01*
X119866107Y-130636215D02*
X119827402Y-130558806D01*
X119788698Y-130520101D01*
X119711288Y-130481396D01*
X119633879Y-130481396D01*
X118821079Y-130481396D02*
X118666260Y-131023263D01*
X118511440Y-130636215D01*
X118356621Y-131023263D01*
X118201802Y-130481396D01*
X117892164Y-131023263D02*
X117892164Y-130481396D01*
X117892164Y-130210463D02*
X117930869Y-130249168D01*
X117892164Y-130287872D01*
X117853460Y-130249168D01*
X117892164Y-130210463D01*
X117892164Y-130287872D01*
X117621231Y-130481396D02*
X117311593Y-130481396D01*
X117505117Y-130210463D02*
X117505117Y-130907148D01*
X117466412Y-130984558D01*
X117389002Y-131023263D01*
X117311593Y-131023263D01*
X117040660Y-131023263D02*
X117040660Y-130210463D01*
X116692317Y-131023263D02*
X116692317Y-130597510D01*
X116731021Y-130520101D01*
X116808431Y-130481396D01*
X116924545Y-130481396D01*
X117001955Y-130520101D01*
X117040660Y-130558806D01*
X116305269Y-131023263D02*
X116305269Y-130481396D01*
X116305269Y-130210463D02*
X116343974Y-130249168D01*
X116305269Y-130287872D01*
X116266564Y-130249168D01*
X116305269Y-130210463D01*
X116305269Y-130287872D01*
X115918221Y-130481396D02*
X115918221Y-131023263D01*
X115918221Y-130558806D02*
X115879517Y-130520101D01*
X115802107Y-130481396D01*
X115685993Y-130481396D01*
X115608583Y-130520101D01*
X115569879Y-130597510D01*
X115569879Y-131023263D01*
X114563555Y-131023263D02*
X114563555Y-130481396D01*
X114563555Y-130636215D02*
X114524850Y-130558806D01*
X114486145Y-130520101D01*
X114408736Y-130481396D01*
X114331326Y-130481396D01*
X113712050Y-131023263D02*
X113712050Y-130597510D01*
X113750755Y-130520101D01*
X113828164Y-130481396D01*
X113982983Y-130481396D01*
X114060393Y-130520101D01*
X113712050Y-130984558D02*
X113789460Y-131023263D01*
X113982983Y-131023263D01*
X114060393Y-130984558D01*
X114099098Y-130907148D01*
X114099098Y-130829739D01*
X114060393Y-130752329D01*
X113982983Y-130713625D01*
X113789460Y-130713625D01*
X113712050Y-130674920D01*
X113325002Y-130481396D02*
X113325002Y-131023263D01*
X113325002Y-130558806D02*
X113286298Y-130520101D01*
X113208888Y-130481396D01*
X113092774Y-130481396D01*
X113015364Y-130520101D01*
X112976660Y-130597510D01*
X112976660Y-131023263D01*
X112241269Y-130481396D02*
X112241269Y-131139377D01*
X112279974Y-131216787D01*
X112318679Y-131255491D01*
X112396088Y-131294196D01*
X112512202Y-131294196D01*
X112589612Y-131255491D01*
X112241269Y-130984558D02*
X112318679Y-131023263D01*
X112473498Y-131023263D01*
X112550907Y-130984558D01*
X112589612Y-130945853D01*
X112628317Y-130868444D01*
X112628317Y-130636215D01*
X112589612Y-130558806D01*
X112550907Y-130520101D01*
X112473498Y-130481396D01*
X112318679Y-130481396D01*
X112241269Y-130520101D01*
X111544583Y-130984558D02*
X111621993Y-131023263D01*
X111776812Y-131023263D01*
X111854221Y-130984558D01*
X111892926Y-130907148D01*
X111892926Y-130597510D01*
X111854221Y-130520101D01*
X111776812Y-130481396D01*
X111621993Y-130481396D01*
X111544583Y-130520101D01*
X111505879Y-130597510D01*
X111505879Y-130674920D01*
X111892926Y-130752329D01*
X123697879Y-132827679D02*
X123543060Y-132827679D01*
X123465650Y-132866384D01*
X123388240Y-132943793D01*
X123349536Y-133098612D01*
X123349536Y-133369545D01*
X123388240Y-133524364D01*
X123465650Y-133601774D01*
X123543060Y-133640479D01*
X123697879Y-133640479D01*
X123775288Y-133601774D01*
X123852698Y-133524364D01*
X123891402Y-133369545D01*
X123891402Y-133098612D01*
X123852698Y-132943793D01*
X123775288Y-132866384D01*
X123697879Y-132827679D01*
X122614145Y-133640479D02*
X123001193Y-133640479D01*
X123001193Y-132827679D01*
X122343212Y-133214726D02*
X122072279Y-133214726D01*
X121956164Y-133640479D02*
X122343212Y-133640479D01*
X122343212Y-132827679D01*
X121956164Y-132827679D01*
X121607821Y-133640479D02*
X121607821Y-132827679D01*
X121414298Y-132827679D01*
X121298183Y-132866384D01*
X121220774Y-132943793D01*
X121182069Y-133021203D01*
X121143364Y-133176022D01*
X121143364Y-133292136D01*
X121182069Y-133446955D01*
X121220774Y-133524364D01*
X121298183Y-133601774D01*
X121414298Y-133640479D01*
X121607821Y-133640479D01*
X120795021Y-133563069D02*
X120756317Y-133601774D01*
X120795021Y-133640479D01*
X120833726Y-133601774D01*
X120795021Y-133563069D01*
X120795021Y-133640479D01*
X120795021Y-133137317D02*
X120756317Y-133176022D01*
X120795021Y-133214726D01*
X120833726Y-133176022D01*
X120795021Y-133137317D01*
X120795021Y-133214726D01*
X119788698Y-133640479D02*
X119788698Y-132827679D01*
X119440355Y-132905088D02*
X119401650Y-132866384D01*
X119324240Y-132827679D01*
X119130717Y-132827679D01*
X119053307Y-132866384D01*
X119014602Y-132905088D01*
X118975898Y-132982498D01*
X118975898Y-133059907D01*
X119014602Y-133176022D01*
X119479060Y-133640479D01*
X118975898Y-133640479D01*
X118163098Y-133563069D02*
X118201802Y-133601774D01*
X118317917Y-133640479D01*
X118395326Y-133640479D01*
X118511440Y-133601774D01*
X118588850Y-133524364D01*
X118627555Y-133446955D01*
X118666260Y-133292136D01*
X118666260Y-133176022D01*
X118627555Y-133021203D01*
X118588850Y-132943793D01*
X118511440Y-132866384D01*
X118395326Y-132827679D01*
X118317917Y-132827679D01*
X118201802Y-132866384D01*
X118163098Y-132905088D01*
X117659936Y-132827679D02*
X117582526Y-132827679D01*
X117505117Y-132866384D01*
X117466412Y-132905088D01*
X117427707Y-132982498D01*
X117389002Y-133137317D01*
X117389002Y-133330841D01*
X117427707Y-133485660D01*
X117466412Y-133563069D01*
X117505117Y-133601774D01*
X117582526Y-133640479D01*
X117659936Y-133640479D01*
X117737345Y-133601774D01*
X117776050Y-133563069D01*
X117814755Y-133485660D01*
X117853460Y-133330841D01*
X117853460Y-133137317D01*
X117814755Y-132982498D01*
X117776050Y-132905088D01*
X117737345Y-132866384D01*
X117659936Y-132827679D01*
X116189155Y-133950117D02*
X116227860Y-133911412D01*
X116305269Y-133795298D01*
X116343974Y-133717888D01*
X116382679Y-133601774D01*
X116421383Y-133408250D01*
X116421383Y-133253431D01*
X116382679Y-133059907D01*
X116343974Y-132943793D01*
X116305269Y-132866384D01*
X116227860Y-132750269D01*
X116189155Y-132711564D01*
X115453764Y-132866384D02*
X115531174Y-132827679D01*
X115647288Y-132827679D01*
X115763402Y-132866384D01*
X115840812Y-132943793D01*
X115879517Y-133021203D01*
X115918221Y-133176022D01*
X115918221Y-133292136D01*
X115879517Y-133446955D01*
X115840812Y-133524364D01*
X115763402Y-133601774D01*
X115647288Y-133640479D01*
X115569879Y-133640479D01*
X115453764Y-133601774D01*
X115415060Y-133563069D01*
X115415060Y-133292136D01*
X115569879Y-133292136D01*
X115066717Y-133640479D02*
X115066717Y-132827679D01*
X114757079Y-132827679D01*
X114679669Y-132866384D01*
X114640964Y-132905088D01*
X114602260Y-132982498D01*
X114602260Y-133098612D01*
X114640964Y-133176022D01*
X114679669Y-133214726D01*
X114757079Y-133253431D01*
X115066717Y-133253431D01*
X114099098Y-132827679D02*
X114021688Y-132827679D01*
X113944279Y-132866384D01*
X113905574Y-132905088D01*
X113866869Y-132982498D01*
X113828164Y-133137317D01*
X113828164Y-133330841D01*
X113866869Y-133485660D01*
X113905574Y-133563069D01*
X113944279Y-133601774D01*
X114021688Y-133640479D01*
X114099098Y-133640479D01*
X114176507Y-133601774D01*
X114215212Y-133563069D01*
X114253917Y-133485660D01*
X114292621Y-133330841D01*
X114292621Y-133137317D01*
X114253917Y-132982498D01*
X114215212Y-132905088D01*
X114176507Y-132866384D01*
X114099098Y-132827679D01*
X113479821Y-133330841D02*
X112860545Y-133330841D01*
X112047745Y-133640479D02*
X112512202Y-133640479D01*
X112279974Y-133640479D02*
X112279974Y-132827679D01*
X112357383Y-132943793D01*
X112434793Y-133021203D01*
X112512202Y-133059907D01*
X111776812Y-133950117D02*
X111738107Y-133911412D01*
X111660698Y-133795298D01*
X111621993Y-133717888D01*
X111583288Y-133601774D01*
X111544583Y-133408250D01*
X111544583Y-133253431D01*
X111583288Y-133059907D01*
X111621993Y-132943793D01*
X111660698Y-132866384D01*
X111738107Y-132750269D01*
X111776812Y-132711564D01*
X121917460Y-134949087D02*
X121917460Y-134136287D01*
X121723936Y-134136287D01*
X121607821Y-134174992D01*
X121530412Y-134252401D01*
X121491707Y-134329811D01*
X121453002Y-134484630D01*
X121453002Y-134600744D01*
X121491707Y-134755563D01*
X121530412Y-134832972D01*
X121607821Y-134910382D01*
X121723936Y-134949087D01*
X121917460Y-134949087D01*
X120756317Y-134949087D02*
X120756317Y-134523334D01*
X120795021Y-134445925D01*
X120872431Y-134407220D01*
X121027250Y-134407220D01*
X121104660Y-134445925D01*
X120756317Y-134910382D02*
X120833726Y-134949087D01*
X121027250Y-134949087D01*
X121104660Y-134910382D01*
X121143364Y-134832972D01*
X121143364Y-134755563D01*
X121104660Y-134678153D01*
X121027250Y-134639449D01*
X120833726Y-134639449D01*
X120756317Y-134600744D01*
X120485383Y-134407220D02*
X120175745Y-134407220D01*
X120369269Y-134136287D02*
X120369269Y-134832972D01*
X120330564Y-134910382D01*
X120253155Y-134949087D01*
X120175745Y-134949087D01*
X119556469Y-134949087D02*
X119556469Y-134523334D01*
X119595174Y-134445925D01*
X119672583Y-134407220D01*
X119827402Y-134407220D01*
X119904812Y-134445925D01*
X119556469Y-134910382D02*
X119633879Y-134949087D01*
X119827402Y-134949087D01*
X119904812Y-134910382D01*
X119943517Y-134832972D01*
X119943517Y-134755563D01*
X119904812Y-134678153D01*
X119827402Y-134639449D01*
X119633879Y-134639449D01*
X119556469Y-134600744D01*
X118279212Y-134523334D02*
X118163098Y-134562039D01*
X118124393Y-134600744D01*
X118085688Y-134678153D01*
X118085688Y-134794268D01*
X118124393Y-134871677D01*
X118163098Y-134910382D01*
X118240507Y-134949087D01*
X118550145Y-134949087D01*
X118550145Y-134136287D01*
X118279212Y-134136287D01*
X118201802Y-134174992D01*
X118163098Y-134213696D01*
X118124393Y-134291106D01*
X118124393Y-134368515D01*
X118163098Y-134445925D01*
X118201802Y-134484630D01*
X118279212Y-134523334D01*
X118550145Y-134523334D01*
X117389002Y-134407220D02*
X117389002Y-134949087D01*
X117737345Y-134407220D02*
X117737345Y-134832972D01*
X117698640Y-134910382D01*
X117621231Y-134949087D01*
X117505117Y-134949087D01*
X117427707Y-134910382D01*
X117389002Y-134871677D01*
X117040660Y-134910382D02*
X116963250Y-134949087D01*
X116808431Y-134949087D01*
X116731021Y-134910382D01*
X116692317Y-134832972D01*
X116692317Y-134794268D01*
X116731021Y-134716858D01*
X116808431Y-134678153D01*
X116924545Y-134678153D01*
X117001955Y-134639449D01*
X117040660Y-134562039D01*
X117040660Y-134523334D01*
X117001955Y-134445925D01*
X116924545Y-134407220D01*
X116808431Y-134407220D01*
X116731021Y-134445925D01*
X116343974Y-134871677D02*
X116305269Y-134910382D01*
X116343974Y-134949087D01*
X116382679Y-134910382D01*
X116343974Y-134871677D01*
X116343974Y-134949087D01*
X116343974Y-134445925D02*
X116305269Y-134484630D01*
X116343974Y-134523334D01*
X116382679Y-134484630D01*
X116343974Y-134445925D01*
X116343974Y-134523334D01*
X114911898Y-134174992D02*
X114989307Y-134136287D01*
X115105421Y-134136287D01*
X115221536Y-134174992D01*
X115298945Y-134252401D01*
X115337650Y-134329811D01*
X115376355Y-134484630D01*
X115376355Y-134600744D01*
X115337650Y-134755563D01*
X115298945Y-134832972D01*
X115221536Y-134910382D01*
X115105421Y-134949087D01*
X115028012Y-134949087D01*
X114911898Y-134910382D01*
X114873193Y-134871677D01*
X114873193Y-134600744D01*
X115028012Y-134600744D01*
X114524850Y-134949087D02*
X114524850Y-134136287D01*
X114215212Y-134136287D01*
X114137802Y-134174992D01*
X114099098Y-134213696D01*
X114060393Y-134291106D01*
X114060393Y-134407220D01*
X114099098Y-134484630D01*
X114137802Y-134523334D01*
X114215212Y-134562039D01*
X114524850Y-134562039D01*
X113750755Y-134213696D02*
X113712050Y-134174992D01*
X113634640Y-134136287D01*
X113441117Y-134136287D01*
X113363707Y-134174992D01*
X113325002Y-134213696D01*
X113286298Y-134291106D01*
X113286298Y-134368515D01*
X113325002Y-134484630D01*
X113789460Y-134949087D01*
X113286298Y-134949087D01*
X112937955Y-134639449D02*
X112318679Y-134639449D01*
X111892926Y-134949087D02*
X111738107Y-134949087D01*
X111660698Y-134910382D01*
X111621993Y-134871677D01*
X111544583Y-134755563D01*
X111505879Y-134600744D01*
X111505879Y-134291106D01*
X111544583Y-134213696D01*
X111583288Y-134174992D01*
X111660698Y-134136287D01*
X111815517Y-134136287D01*
X111892926Y-134174992D01*
X111931631Y-134213696D01*
X111970336Y-134291106D01*
X111970336Y-134484630D01*
X111931631Y-134562039D01*
X111892926Y-134600744D01*
X111815517Y-134639449D01*
X111660698Y-134639449D01*
X111583288Y-134600744D01*
X111544583Y-134562039D01*
X111505879Y-134484630D01*
X123426945Y-136025466D02*
X123039898Y-136025466D01*
X123504355Y-136257695D02*
X123233421Y-135444895D01*
X122962488Y-136257695D01*
X122343212Y-136257695D02*
X122343212Y-135444895D01*
X122343212Y-136218990D02*
X122420621Y-136257695D01*
X122575440Y-136257695D01*
X122652850Y-136218990D01*
X122691555Y-136180285D01*
X122730260Y-136102876D01*
X122730260Y-135870647D01*
X122691555Y-135793238D01*
X122652850Y-135754533D01*
X122575440Y-135715828D01*
X122420621Y-135715828D01*
X122343212Y-135754533D01*
X121607821Y-136257695D02*
X121607821Y-135444895D01*
X121607821Y-136218990D02*
X121685231Y-136257695D01*
X121840050Y-136257695D01*
X121917460Y-136218990D01*
X121956164Y-136180285D01*
X121994869Y-136102876D01*
X121994869Y-135870647D01*
X121956164Y-135793238D01*
X121917460Y-135754533D01*
X121840050Y-135715828D01*
X121685231Y-135715828D01*
X121607821Y-135754533D01*
X121220774Y-136257695D02*
X121220774Y-135715828D01*
X121220774Y-135870647D02*
X121182069Y-135793238D01*
X121143364Y-135754533D01*
X121065955Y-135715828D01*
X120988545Y-135715828D01*
X119827402Y-135831942D02*
X119711288Y-135870647D01*
X119672583Y-135909352D01*
X119633879Y-135986761D01*
X119633879Y-136102876D01*
X119672583Y-136180285D01*
X119711288Y-136218990D01*
X119788698Y-136257695D01*
X120098336Y-136257695D01*
X120098336Y-135444895D01*
X119827402Y-135444895D01*
X119749993Y-135483600D01*
X119711288Y-135522304D01*
X119672583Y-135599714D01*
X119672583Y-135677123D01*
X119711288Y-135754533D01*
X119749993Y-135793238D01*
X119827402Y-135831942D01*
X120098336Y-135831942D01*
X118937193Y-135715828D02*
X118937193Y-136257695D01*
X119285536Y-135715828D02*
X119285536Y-136141580D01*
X119246831Y-136218990D01*
X119169421Y-136257695D01*
X119053307Y-136257695D01*
X118975898Y-136218990D01*
X118937193Y-136180285D01*
X118588850Y-136218990D02*
X118511440Y-136257695D01*
X118356621Y-136257695D01*
X118279212Y-136218990D01*
X118240507Y-136141580D01*
X118240507Y-136102876D01*
X118279212Y-136025466D01*
X118356621Y-135986761D01*
X118472736Y-135986761D01*
X118550145Y-135948057D01*
X118588850Y-135870647D01*
X118588850Y-135831942D01*
X118550145Y-135754533D01*
X118472736Y-135715828D01*
X118356621Y-135715828D01*
X118279212Y-135754533D01*
X117892164Y-136180285D02*
X117853460Y-136218990D01*
X117892164Y-136257695D01*
X117930869Y-136218990D01*
X117892164Y-136180285D01*
X117892164Y-136257695D01*
X117892164Y-135754533D02*
X117853460Y-135793238D01*
X117892164Y-135831942D01*
X117930869Y-135793238D01*
X117892164Y-135754533D01*
X117892164Y-135831942D01*
X116460088Y-135483600D02*
X116537498Y-135444895D01*
X116653612Y-135444895D01*
X116769726Y-135483600D01*
X116847136Y-135561009D01*
X116885840Y-135638419D01*
X116924545Y-135793238D01*
X116924545Y-135909352D01*
X116885840Y-136064171D01*
X116847136Y-136141580D01*
X116769726Y-136218990D01*
X116653612Y-136257695D01*
X116576202Y-136257695D01*
X116460088Y-136218990D01*
X116421383Y-136180285D01*
X116421383Y-135909352D01*
X116576202Y-135909352D01*
X116073040Y-136257695D02*
X116073040Y-135444895D01*
X115763402Y-135444895D01*
X115685993Y-135483600D01*
X115647288Y-135522304D01*
X115608583Y-135599714D01*
X115608583Y-135715828D01*
X115647288Y-135793238D01*
X115685993Y-135831942D01*
X115763402Y-135870647D01*
X116073040Y-135870647D01*
X114834488Y-136257695D02*
X115298945Y-136257695D01*
X115066717Y-136257695D02*
X115066717Y-135444895D01*
X115144126Y-135561009D01*
X115221536Y-135638419D01*
X115298945Y-135677123D01*
X114331326Y-135444895D02*
X114253917Y-135444895D01*
X114176507Y-135483600D01*
X114137802Y-135522304D01*
X114099098Y-135599714D01*
X114060393Y-135754533D01*
X114060393Y-135948057D01*
X114099098Y-136102876D01*
X114137802Y-136180285D01*
X114176507Y-136218990D01*
X114253917Y-136257695D01*
X114331326Y-136257695D01*
X114408736Y-136218990D01*
X114447440Y-136180285D01*
X114486145Y-136102876D01*
X114524850Y-135948057D01*
X114524850Y-135754533D01*
X114486145Y-135599714D01*
X114447440Y-135522304D01*
X114408736Y-135483600D01*
X114331326Y-135444895D01*
X113712050Y-135948057D02*
X113092774Y-135948057D01*
X112279974Y-136257695D02*
X112744431Y-136257695D01*
X112512202Y-136257695D02*
X112512202Y-135444895D01*
X112589612Y-135561009D01*
X112667021Y-135638419D01*
X112744431Y-135677123D01*
X112009040Y-135444895D02*
X111467174Y-135444895D01*
X111815517Y-136257695D01*
X121491707Y-137140550D02*
X121375593Y-137179255D01*
X121336888Y-137217960D01*
X121298183Y-137295369D01*
X121298183Y-137411484D01*
X121336888Y-137488893D01*
X121375593Y-137527598D01*
X121453002Y-137566303D01*
X121762640Y-137566303D01*
X121762640Y-136753503D01*
X121491707Y-136753503D01*
X121414298Y-136792208D01*
X121375593Y-136830912D01*
X121336888Y-136908322D01*
X121336888Y-136985731D01*
X121375593Y-137063141D01*
X121414298Y-137101846D01*
X121491707Y-137140550D01*
X121762640Y-137140550D01*
X120601498Y-137024436D02*
X120601498Y-137566303D01*
X120949840Y-137024436D02*
X120949840Y-137450188D01*
X120911136Y-137527598D01*
X120833726Y-137566303D01*
X120717612Y-137566303D01*
X120640202Y-137527598D01*
X120601498Y-137488893D01*
X120253155Y-137527598D02*
X120175745Y-137566303D01*
X120020926Y-137566303D01*
X119943517Y-137527598D01*
X119904812Y-137450188D01*
X119904812Y-137411484D01*
X119943517Y-137334074D01*
X120020926Y-137295369D01*
X120137040Y-137295369D01*
X120214450Y-137256665D01*
X120253155Y-137179255D01*
X120253155Y-137140550D01*
X120214450Y-137063141D01*
X120137040Y-137024436D01*
X120020926Y-137024436D01*
X119943517Y-137063141D01*
X118472736Y-137566303D02*
X118743669Y-137179255D01*
X118937193Y-137566303D02*
X118937193Y-136753503D01*
X118627555Y-136753503D01*
X118550145Y-136792208D01*
X118511440Y-136830912D01*
X118472736Y-136908322D01*
X118472736Y-137024436D01*
X118511440Y-137101846D01*
X118550145Y-137140550D01*
X118627555Y-137179255D01*
X118937193Y-137179255D01*
X117814755Y-137527598D02*
X117892164Y-137566303D01*
X118046983Y-137566303D01*
X118124393Y-137527598D01*
X118163098Y-137450188D01*
X118163098Y-137140550D01*
X118124393Y-137063141D01*
X118046983Y-137024436D01*
X117892164Y-137024436D01*
X117814755Y-137063141D01*
X117776050Y-137140550D01*
X117776050Y-137217960D01*
X118163098Y-137295369D01*
X117079364Y-137566303D02*
X117079364Y-137140550D01*
X117118069Y-137063141D01*
X117195479Y-137024436D01*
X117350298Y-137024436D01*
X117427707Y-137063141D01*
X117079364Y-137527598D02*
X117156774Y-137566303D01*
X117350298Y-137566303D01*
X117427707Y-137527598D01*
X117466412Y-137450188D01*
X117466412Y-137372779D01*
X117427707Y-137295369D01*
X117350298Y-137256665D01*
X117156774Y-137256665D01*
X117079364Y-137217960D01*
X116343974Y-137566303D02*
X116343974Y-136753503D01*
X116343974Y-137527598D02*
X116421383Y-137566303D01*
X116576202Y-137566303D01*
X116653612Y-137527598D01*
X116692317Y-137488893D01*
X116731021Y-137411484D01*
X116731021Y-137179255D01*
X116692317Y-137101846D01*
X116653612Y-137063141D01*
X116576202Y-137024436D01*
X116421383Y-137024436D01*
X116343974Y-137063141D01*
X116034336Y-137024436D02*
X115840812Y-137566303D01*
X115647288Y-137024436D02*
X115840812Y-137566303D01*
X115918221Y-137759827D01*
X115956926Y-137798531D01*
X116034336Y-137837236D01*
X115337650Y-137488893D02*
X115298945Y-137527598D01*
X115337650Y-137566303D01*
X115376355Y-137527598D01*
X115337650Y-137488893D01*
X115337650Y-137566303D01*
X115337650Y-137063141D02*
X115298945Y-137101846D01*
X115337650Y-137140550D01*
X115376355Y-137101846D01*
X115337650Y-137063141D01*
X115337650Y-137140550D01*
X113905574Y-136792208D02*
X113982983Y-136753503D01*
X114099098Y-136753503D01*
X114215212Y-136792208D01*
X114292621Y-136869617D01*
X114331326Y-136947027D01*
X114370031Y-137101846D01*
X114370031Y-137217960D01*
X114331326Y-137372779D01*
X114292621Y-137450188D01*
X114215212Y-137527598D01*
X114099098Y-137566303D01*
X114021688Y-137566303D01*
X113905574Y-137527598D01*
X113866869Y-137488893D01*
X113866869Y-137217960D01*
X114021688Y-137217960D01*
X113518526Y-137566303D02*
X113518526Y-136753503D01*
X113208888Y-136753503D01*
X113131479Y-136792208D01*
X113092774Y-136830912D01*
X113054069Y-136908322D01*
X113054069Y-137024436D01*
X113092774Y-137101846D01*
X113131479Y-137140550D01*
X113208888Y-137179255D01*
X113518526Y-137179255D01*
X112279974Y-137566303D02*
X112744431Y-137566303D01*
X112512202Y-137566303D02*
X112512202Y-136753503D01*
X112589612Y-136869617D01*
X112667021Y-136947027D01*
X112744431Y-136985731D01*
X111815517Y-137101846D02*
X111892926Y-137063141D01*
X111931631Y-137024436D01*
X111970336Y-136947027D01*
X111970336Y-136908322D01*
X111931631Y-136830912D01*
X111892926Y-136792208D01*
X111815517Y-136753503D01*
X111660698Y-136753503D01*
X111583288Y-136792208D01*
X111544583Y-136830912D01*
X111505879Y-136908322D01*
X111505879Y-136947027D01*
X111544583Y-137024436D01*
X111583288Y-137063141D01*
X111660698Y-137101846D01*
X111815517Y-137101846D01*
X111892926Y-137140550D01*
X111931631Y-137179255D01*
X111970336Y-137256665D01*
X111970336Y-137411484D01*
X111931631Y-137488893D01*
X111892926Y-137527598D01*
X111815517Y-137566303D01*
X111660698Y-137566303D01*
X111583288Y-137527598D01*
X111544583Y-137488893D01*
X111505879Y-137411484D01*
X111505879Y-137256665D01*
X111544583Y-137179255D01*
X111583288Y-137140550D01*
X111660698Y-137101846D01*
X121259479Y-138642682D02*
X120872431Y-138642682D01*
X121336888Y-138874911D02*
X121065955Y-138062111D01*
X120795021Y-138874911D01*
X120175745Y-138874911D02*
X120175745Y-138062111D01*
X120175745Y-138836206D02*
X120253155Y-138874911D01*
X120407974Y-138874911D01*
X120485383Y-138836206D01*
X120524088Y-138797501D01*
X120562793Y-138720092D01*
X120562793Y-138487863D01*
X120524088Y-138410454D01*
X120485383Y-138371749D01*
X120407974Y-138333044D01*
X120253155Y-138333044D01*
X120175745Y-138371749D01*
X119440355Y-138874911D02*
X119440355Y-138062111D01*
X119440355Y-138836206D02*
X119517764Y-138874911D01*
X119672583Y-138874911D01*
X119749993Y-138836206D01*
X119788698Y-138797501D01*
X119827402Y-138720092D01*
X119827402Y-138487863D01*
X119788698Y-138410454D01*
X119749993Y-138371749D01*
X119672583Y-138333044D01*
X119517764Y-138333044D01*
X119440355Y-138371749D01*
X119053307Y-138874911D02*
X119053307Y-138333044D01*
X119053307Y-138487863D02*
X119014602Y-138410454D01*
X118975898Y-138371749D01*
X118898488Y-138333044D01*
X118821079Y-138333044D01*
X117659936Y-138449158D02*
X117543821Y-138487863D01*
X117505117Y-138526568D01*
X117466412Y-138603977D01*
X117466412Y-138720092D01*
X117505117Y-138797501D01*
X117543821Y-138836206D01*
X117621231Y-138874911D01*
X117930869Y-138874911D01*
X117930869Y-138062111D01*
X117659936Y-138062111D01*
X117582526Y-138100816D01*
X117543821Y-138139520D01*
X117505117Y-138216930D01*
X117505117Y-138294339D01*
X117543821Y-138371749D01*
X117582526Y-138410454D01*
X117659936Y-138449158D01*
X117930869Y-138449158D01*
X117195479Y-138333044D02*
X117001955Y-138874911D01*
X116808431Y-138333044D02*
X117001955Y-138874911D01*
X117079364Y-139068435D01*
X117118069Y-139107139D01*
X117195479Y-139145844D01*
X116614907Y-138333044D02*
X116305269Y-138333044D01*
X116498793Y-138062111D02*
X116498793Y-138758796D01*
X116460088Y-138836206D01*
X116382679Y-138874911D01*
X116305269Y-138874911D01*
X115724698Y-138836206D02*
X115802107Y-138874911D01*
X115956926Y-138874911D01*
X116034336Y-138836206D01*
X116073040Y-138758796D01*
X116073040Y-138449158D01*
X116034336Y-138371749D01*
X115956926Y-138333044D01*
X115802107Y-138333044D01*
X115724698Y-138371749D01*
X115685993Y-138449158D01*
X115685993Y-138526568D01*
X116073040Y-138603977D01*
X115337650Y-138797501D02*
X115298945Y-138836206D01*
X115337650Y-138874911D01*
X115376355Y-138836206D01*
X115337650Y-138797501D01*
X115337650Y-138874911D01*
X115337650Y-138371749D02*
X115298945Y-138410454D01*
X115337650Y-138449158D01*
X115376355Y-138410454D01*
X115337650Y-138371749D01*
X115337650Y-138449158D01*
X113905574Y-138100816D02*
X113982983Y-138062111D01*
X114099098Y-138062111D01*
X114215212Y-138100816D01*
X114292621Y-138178225D01*
X114331326Y-138255635D01*
X114370031Y-138410454D01*
X114370031Y-138526568D01*
X114331326Y-138681387D01*
X114292621Y-138758796D01*
X114215212Y-138836206D01*
X114099098Y-138874911D01*
X114021688Y-138874911D01*
X113905574Y-138836206D01*
X113866869Y-138797501D01*
X113866869Y-138526568D01*
X114021688Y-138526568D01*
X113518526Y-138874911D02*
X113518526Y-138062111D01*
X113208888Y-138062111D01*
X113131479Y-138100816D01*
X113092774Y-138139520D01*
X113054069Y-138216930D01*
X113054069Y-138333044D01*
X113092774Y-138410454D01*
X113131479Y-138449158D01*
X113208888Y-138487863D01*
X113518526Y-138487863D01*
X112279974Y-138874911D02*
X112744431Y-138874911D01*
X112512202Y-138874911D02*
X112512202Y-138062111D01*
X112589612Y-138178225D01*
X112667021Y-138255635D01*
X112744431Y-138294339D01*
X111892926Y-138874911D02*
X111738107Y-138874911D01*
X111660698Y-138836206D01*
X111621993Y-138797501D01*
X111544583Y-138681387D01*
X111505879Y-138526568D01*
X111505879Y-138216930D01*
X111544583Y-138139520D01*
X111583288Y-138100816D01*
X111660698Y-138062111D01*
X111815517Y-138062111D01*
X111892926Y-138100816D01*
X111931631Y-138139520D01*
X111970336Y-138216930D01*
X111970336Y-138410454D01*
X111931631Y-138487863D01*
X111892926Y-138526568D01*
X111815517Y-138565273D01*
X111660698Y-138565273D01*
X111583288Y-138526568D01*
X111544583Y-138487863D01*
X111505879Y-138410454D01*
X128458564Y-139370719D02*
X128458564Y-140028700D01*
X128419860Y-140106109D01*
X128381155Y-140144814D01*
X128303745Y-140183519D01*
X128148926Y-140183519D01*
X128071517Y-140144814D01*
X128032812Y-140106109D01*
X127994107Y-140028700D01*
X127994107Y-139370719D01*
X127607060Y-139641652D02*
X127607060Y-140454452D01*
X127607060Y-139680357D02*
X127529650Y-139641652D01*
X127374831Y-139641652D01*
X127297421Y-139680357D01*
X127258717Y-139719062D01*
X127220012Y-139796471D01*
X127220012Y-140028700D01*
X127258717Y-140106109D01*
X127297421Y-140144814D01*
X127374831Y-140183519D01*
X127529650Y-140183519D01*
X127607060Y-140144814D01*
X126291098Y-139332014D02*
X126987783Y-140377043D01*
X126020164Y-140183519D02*
X126020164Y-139370719D01*
X125826640Y-139370719D01*
X125710526Y-139409424D01*
X125633117Y-139486833D01*
X125594412Y-139564243D01*
X125555707Y-139719062D01*
X125555707Y-139835176D01*
X125594412Y-139989995D01*
X125633117Y-140067404D01*
X125710526Y-140144814D01*
X125826640Y-140183519D01*
X126020164Y-140183519D01*
X125091250Y-140183519D02*
X125168660Y-140144814D01*
X125207364Y-140106109D01*
X125246069Y-140028700D01*
X125246069Y-139796471D01*
X125207364Y-139719062D01*
X125168660Y-139680357D01*
X125091250Y-139641652D01*
X124975136Y-139641652D01*
X124897726Y-139680357D01*
X124859021Y-139719062D01*
X124820317Y-139796471D01*
X124820317Y-140028700D01*
X124859021Y-140106109D01*
X124897726Y-140144814D01*
X124975136Y-140183519D01*
X125091250Y-140183519D01*
X124549383Y-139641652D02*
X124394564Y-140183519D01*
X124239745Y-139796471D01*
X124084926Y-140183519D01*
X123930107Y-139641652D01*
X123620469Y-139641652D02*
X123620469Y-140183519D01*
X123620469Y-139719062D02*
X123581764Y-139680357D01*
X123504355Y-139641652D01*
X123388240Y-139641652D01*
X123310831Y-139680357D01*
X123272126Y-139757766D01*
X123272126Y-140183519D01*
X122304507Y-139332014D02*
X123001193Y-140377043D01*
X122072279Y-140144814D02*
X121956164Y-140183519D01*
X121762640Y-140183519D01*
X121685231Y-140144814D01*
X121646526Y-140106109D01*
X121607821Y-140028700D01*
X121607821Y-139951290D01*
X121646526Y-139873881D01*
X121685231Y-139835176D01*
X121762640Y-139796471D01*
X121917460Y-139757766D01*
X121994869Y-139719062D01*
X122033574Y-139680357D01*
X122072279Y-139602947D01*
X122072279Y-139525538D01*
X122033574Y-139448128D01*
X121994869Y-139409424D01*
X121917460Y-139370719D01*
X121723936Y-139370719D01*
X121607821Y-139409424D01*
X120949840Y-140144814D02*
X121027250Y-140183519D01*
X121182069Y-140183519D01*
X121259479Y-140144814D01*
X121298183Y-140067404D01*
X121298183Y-139757766D01*
X121259479Y-139680357D01*
X121182069Y-139641652D01*
X121027250Y-139641652D01*
X120949840Y-139680357D01*
X120911136Y-139757766D01*
X120911136Y-139835176D01*
X121298183Y-139912585D01*
X120446679Y-140183519D02*
X120524088Y-140144814D01*
X120562793Y-140067404D01*
X120562793Y-139370719D01*
X120137040Y-140106109D02*
X120098336Y-140144814D01*
X120137040Y-140183519D01*
X120175745Y-140144814D01*
X120137040Y-140106109D01*
X120137040Y-140183519D01*
X120137040Y-139680357D02*
X120098336Y-139719062D01*
X120137040Y-139757766D01*
X120175745Y-139719062D01*
X120137040Y-139680357D01*
X120137040Y-139757766D01*
X118704964Y-139409424D02*
X118782374Y-139370719D01*
X118898488Y-139370719D01*
X119014602Y-139409424D01*
X119092012Y-139486833D01*
X119130717Y-139564243D01*
X119169421Y-139719062D01*
X119169421Y-139835176D01*
X119130717Y-139989995D01*
X119092012Y-140067404D01*
X119014602Y-140144814D01*
X118898488Y-140183519D01*
X118821079Y-140183519D01*
X118704964Y-140144814D01*
X118666260Y-140106109D01*
X118666260Y-139835176D01*
X118821079Y-139835176D01*
X118317917Y-140183519D02*
X118317917Y-139370719D01*
X118008279Y-139370719D01*
X117930869Y-139409424D01*
X117892164Y-139448128D01*
X117853460Y-139525538D01*
X117853460Y-139641652D01*
X117892164Y-139719062D01*
X117930869Y-139757766D01*
X118008279Y-139796471D01*
X118317917Y-139796471D01*
X117543821Y-139448128D02*
X117505117Y-139409424D01*
X117427707Y-139370719D01*
X117234183Y-139370719D01*
X117156774Y-139409424D01*
X117118069Y-139448128D01*
X117079364Y-139525538D01*
X117079364Y-139602947D01*
X117118069Y-139719062D01*
X117582526Y-140183519D01*
X117079364Y-140183519D01*
X116576202Y-139370719D02*
X116498793Y-139370719D01*
X116421383Y-139409424D01*
X116382679Y-139448128D01*
X116343974Y-139525538D01*
X116305269Y-139680357D01*
X116305269Y-139873881D01*
X116343974Y-140028700D01*
X116382679Y-140106109D01*
X116421383Y-140144814D01*
X116498793Y-140183519D01*
X116576202Y-140183519D01*
X116653612Y-140144814D01*
X116692317Y-140106109D01*
X116731021Y-140028700D01*
X116769726Y-139873881D01*
X116769726Y-139680357D01*
X116731021Y-139525538D01*
X116692317Y-139448128D01*
X116653612Y-139409424D01*
X116576202Y-139370719D01*
X115376355Y-139332014D02*
X116073040Y-140377043D01*
X115144126Y-139448128D02*
X115105421Y-139409424D01*
X115028012Y-139370719D01*
X114834488Y-139370719D01*
X114757079Y-139409424D01*
X114718374Y-139448128D01*
X114679669Y-139525538D01*
X114679669Y-139602947D01*
X114718374Y-139719062D01*
X115182831Y-140183519D01*
X114679669Y-140183519D01*
X113905574Y-140183519D02*
X114370031Y-140183519D01*
X114137802Y-140183519D02*
X114137802Y-139370719D01*
X114215212Y-139486833D01*
X114292621Y-139564243D01*
X114370031Y-139602947D01*
X112976660Y-139332014D02*
X113673345Y-140377043D01*
X112744431Y-139448128D02*
X112705726Y-139409424D01*
X112628317Y-139370719D01*
X112434793Y-139370719D01*
X112357383Y-139409424D01*
X112318679Y-139448128D01*
X112279974Y-139525538D01*
X112279974Y-139602947D01*
X112318679Y-139719062D01*
X112783136Y-140183519D01*
X112279974Y-140183519D01*
X111970336Y-139448128D02*
X111931631Y-139409424D01*
X111854221Y-139370719D01*
X111660698Y-139370719D01*
X111583288Y-139409424D01*
X111544583Y-139448128D01*
X111505879Y-139525538D01*
X111505879Y-139602947D01*
X111544583Y-139719062D01*
X112009040Y-140183519D01*
X111505879Y-140183519D01*
X118201802Y-141492127D02*
X118472736Y-141105079D01*
X118666260Y-141492127D02*
X118666260Y-140679327D01*
X118356621Y-140679327D01*
X118279212Y-140718032D01*
X118240507Y-140756736D01*
X118201802Y-140834146D01*
X118201802Y-140950260D01*
X118240507Y-141027670D01*
X118279212Y-141066374D01*
X118356621Y-141105079D01*
X118666260Y-141105079D01*
X117543821Y-141453422D02*
X117621231Y-141492127D01*
X117776050Y-141492127D01*
X117853460Y-141453422D01*
X117892164Y-141376012D01*
X117892164Y-141066374D01*
X117853460Y-140988965D01*
X117776050Y-140950260D01*
X117621231Y-140950260D01*
X117543821Y-140988965D01*
X117505117Y-141066374D01*
X117505117Y-141143784D01*
X117892164Y-141221193D01*
X117195479Y-141453422D02*
X117118069Y-141492127D01*
X116963250Y-141492127D01*
X116885840Y-141453422D01*
X116847136Y-141376012D01*
X116847136Y-141337308D01*
X116885840Y-141259898D01*
X116963250Y-141221193D01*
X117079364Y-141221193D01*
X117156774Y-141182489D01*
X117195479Y-141105079D01*
X117195479Y-141066374D01*
X117156774Y-140988965D01*
X117079364Y-140950260D01*
X116963250Y-140950260D01*
X116885840Y-140988965D01*
X116189155Y-141453422D02*
X116266564Y-141492127D01*
X116421383Y-141492127D01*
X116498793Y-141453422D01*
X116537498Y-141376012D01*
X116537498Y-141066374D01*
X116498793Y-140988965D01*
X116421383Y-140950260D01*
X116266564Y-140950260D01*
X116189155Y-140988965D01*
X116150450Y-141066374D01*
X116150450Y-141143784D01*
X116537498Y-141221193D01*
X115918221Y-140950260D02*
X115608583Y-140950260D01*
X115802107Y-140679327D02*
X115802107Y-141376012D01*
X115763402Y-141453422D01*
X115685993Y-141492127D01*
X115608583Y-141492127D01*
X115337650Y-141414717D02*
X115298945Y-141453422D01*
X115337650Y-141492127D01*
X115376355Y-141453422D01*
X115337650Y-141414717D01*
X115337650Y-141492127D01*
X115337650Y-140988965D02*
X115298945Y-141027670D01*
X115337650Y-141066374D01*
X115376355Y-141027670D01*
X115337650Y-140988965D01*
X115337650Y-141066374D01*
X113905574Y-140718032D02*
X113982983Y-140679327D01*
X114099098Y-140679327D01*
X114215212Y-140718032D01*
X114292621Y-140795441D01*
X114331326Y-140872851D01*
X114370031Y-141027670D01*
X114370031Y-141143784D01*
X114331326Y-141298603D01*
X114292621Y-141376012D01*
X114215212Y-141453422D01*
X114099098Y-141492127D01*
X114021688Y-141492127D01*
X113905574Y-141453422D01*
X113866869Y-141414717D01*
X113866869Y-141143784D01*
X114021688Y-141143784D01*
X113518526Y-141492127D02*
X113518526Y-140679327D01*
X113208888Y-140679327D01*
X113131479Y-140718032D01*
X113092774Y-140756736D01*
X113054069Y-140834146D01*
X113054069Y-140950260D01*
X113092774Y-141027670D01*
X113131479Y-141066374D01*
X113208888Y-141105079D01*
X113518526Y-141105079D01*
X112744431Y-140756736D02*
X112705726Y-140718032D01*
X112628317Y-140679327D01*
X112434793Y-140679327D01*
X112357383Y-140718032D01*
X112318679Y-140756736D01*
X112279974Y-140834146D01*
X112279974Y-140911555D01*
X112318679Y-141027670D01*
X112783136Y-141492127D01*
X112279974Y-141492127D01*
X111583288Y-140679327D02*
X111738107Y-140679327D01*
X111815517Y-140718032D01*
X111854221Y-140756736D01*
X111931631Y-140872851D01*
X111970336Y-141027670D01*
X111970336Y-141337308D01*
X111931631Y-141414717D01*
X111892926Y-141453422D01*
X111815517Y-141492127D01*
X111660698Y-141492127D01*
X111583288Y-141453422D01*
X111544583Y-141414717D01*
X111505879Y-141337308D01*
X111505879Y-141143784D01*
X111544583Y-141066374D01*
X111583288Y-141027670D01*
X111660698Y-140988965D01*
X111815517Y-140988965D01*
X111892926Y-141027670D01*
X111931631Y-141066374D01*
X111970336Y-141143784D01*
X128342450Y-141987935D02*
X128729498Y-141987935D01*
X128768202Y-142374982D01*
X128729498Y-142336278D01*
X128652088Y-142297573D01*
X128458564Y-142297573D01*
X128381155Y-142336278D01*
X128342450Y-142374982D01*
X128303745Y-142452392D01*
X128303745Y-142645916D01*
X128342450Y-142723325D01*
X128381155Y-142762030D01*
X128458564Y-142800735D01*
X128652088Y-142800735D01*
X128729498Y-142762030D01*
X128768202Y-142723325D01*
X128071517Y-141987935D02*
X127800583Y-142800735D01*
X127529650Y-141987935D01*
X126678145Y-141949230D02*
X127374831Y-142994259D01*
X125981460Y-142800735D02*
X126445917Y-142800735D01*
X126213688Y-142800735D02*
X126213688Y-141987935D01*
X126291098Y-142104049D01*
X126368507Y-142181459D01*
X126445917Y-142220163D01*
X125671821Y-142065344D02*
X125633117Y-142026640D01*
X125555707Y-141987935D01*
X125362183Y-141987935D01*
X125284774Y-142026640D01*
X125246069Y-142065344D01*
X125207364Y-142142754D01*
X125207364Y-142220163D01*
X125246069Y-142336278D01*
X125710526Y-142800735D01*
X125207364Y-142800735D01*
X124975136Y-141987935D02*
X124704202Y-142800735D01*
X124433269Y-141987935D01*
X124162336Y-142723325D02*
X124123631Y-142762030D01*
X124162336Y-142800735D01*
X124201040Y-142762030D01*
X124162336Y-142723325D01*
X124162336Y-142800735D01*
X124162336Y-142297573D02*
X124123631Y-142336278D01*
X124162336Y-142374982D01*
X124201040Y-142336278D01*
X124162336Y-142297573D01*
X124162336Y-142374982D01*
X123194717Y-142568506D02*
X122807669Y-142568506D01*
X123272126Y-142800735D02*
X123001193Y-141987935D01*
X122730260Y-142800735D01*
X122459326Y-142800735D02*
X122459326Y-141987935D01*
X122265802Y-141987935D01*
X122149688Y-142026640D01*
X122072279Y-142104049D01*
X122033574Y-142181459D01*
X121994869Y-142336278D01*
X121994869Y-142452392D01*
X122033574Y-142607211D01*
X122072279Y-142684620D01*
X122149688Y-142762030D01*
X122265802Y-142800735D01*
X122459326Y-142800735D01*
X121182069Y-142723325D02*
X121220774Y-142762030D01*
X121336888Y-142800735D01*
X121414298Y-142800735D01*
X121530412Y-142762030D01*
X121607821Y-142684620D01*
X121646526Y-142607211D01*
X121685231Y-142452392D01*
X121685231Y-142336278D01*
X121646526Y-142181459D01*
X121607821Y-142104049D01*
X121530412Y-142026640D01*
X121414298Y-141987935D01*
X121336888Y-141987935D01*
X121220774Y-142026640D01*
X121182069Y-142065344D01*
X120407974Y-142800735D02*
X120872431Y-142800735D01*
X120640202Y-142800735D02*
X120640202Y-141987935D01*
X120717612Y-142104049D01*
X120795021Y-142181459D01*
X120872431Y-142220163D01*
X119479060Y-141949230D02*
X120175745Y-142994259D01*
X119246831Y-142065344D02*
X119208126Y-142026640D01*
X119130717Y-141987935D01*
X118937193Y-141987935D01*
X118859783Y-142026640D01*
X118821079Y-142065344D01*
X118782374Y-142142754D01*
X118782374Y-142220163D01*
X118821079Y-142336278D01*
X119285536Y-142800735D01*
X118782374Y-142800735D01*
X117582526Y-143110373D02*
X117621231Y-143071668D01*
X117698640Y-142955554D01*
X117737345Y-142878144D01*
X117776050Y-142762030D01*
X117814755Y-142568506D01*
X117814755Y-142413687D01*
X117776050Y-142220163D01*
X117737345Y-142104049D01*
X117698640Y-142026640D01*
X117621231Y-141910525D01*
X117582526Y-141871820D01*
X116847136Y-142026640D02*
X116924545Y-141987935D01*
X117040660Y-141987935D01*
X117156774Y-142026640D01*
X117234183Y-142104049D01*
X117272888Y-142181459D01*
X117311593Y-142336278D01*
X117311593Y-142452392D01*
X117272888Y-142607211D01*
X117234183Y-142684620D01*
X117156774Y-142762030D01*
X117040660Y-142800735D01*
X116963250Y-142800735D01*
X116847136Y-142762030D01*
X116808431Y-142723325D01*
X116808431Y-142452392D01*
X116963250Y-142452392D01*
X116460088Y-142800735D02*
X116460088Y-141987935D01*
X116150450Y-141987935D01*
X116073040Y-142026640D01*
X116034336Y-142065344D01*
X115995631Y-142142754D01*
X115995631Y-142258868D01*
X116034336Y-142336278D01*
X116073040Y-142374982D01*
X116150450Y-142413687D01*
X116460088Y-142413687D01*
X115685993Y-142065344D02*
X115647288Y-142026640D01*
X115569879Y-141987935D01*
X115376355Y-141987935D01*
X115298945Y-142026640D01*
X115260240Y-142065344D01*
X115221536Y-142142754D01*
X115221536Y-142220163D01*
X115260240Y-142336278D01*
X115724698Y-142800735D01*
X115221536Y-142800735D01*
X114950602Y-141987935D02*
X114408736Y-141987935D01*
X114757079Y-142800735D01*
X113518526Y-141949230D02*
X114215212Y-142994259D01*
X113286298Y-142065344D02*
X113247593Y-142026640D01*
X113170183Y-141987935D01*
X112976660Y-141987935D01*
X112899250Y-142026640D01*
X112860545Y-142065344D01*
X112821840Y-142142754D01*
X112821840Y-142220163D01*
X112860545Y-142336278D01*
X113325002Y-142800735D01*
X112821840Y-142800735D01*
X112357383Y-142336278D02*
X112434793Y-142297573D01*
X112473498Y-142258868D01*
X112512202Y-142181459D01*
X112512202Y-142142754D01*
X112473498Y-142065344D01*
X112434793Y-142026640D01*
X112357383Y-141987935D01*
X112202564Y-141987935D01*
X112125155Y-142026640D01*
X112086450Y-142065344D01*
X112047745Y-142142754D01*
X112047745Y-142181459D01*
X112086450Y-142258868D01*
X112125155Y-142297573D01*
X112202564Y-142336278D01*
X112357383Y-142336278D01*
X112434793Y-142374982D01*
X112473498Y-142413687D01*
X112512202Y-142491097D01*
X112512202Y-142645916D01*
X112473498Y-142723325D01*
X112434793Y-142762030D01*
X112357383Y-142800735D01*
X112202564Y-142800735D01*
X112125155Y-142762030D01*
X112086450Y-142723325D01*
X112047745Y-142645916D01*
X112047745Y-142491097D01*
X112086450Y-142413687D01*
X112125155Y-142374982D01*
X112202564Y-142336278D01*
X111776812Y-143110373D02*
X111738107Y-143071668D01*
X111660698Y-142955554D01*
X111621993Y-142878144D01*
X111583288Y-142762030D01*
X111544583Y-142568506D01*
X111544583Y-142413687D01*
X111583288Y-142220163D01*
X111621993Y-142104049D01*
X111660698Y-142026640D01*
X111738107Y-141910525D01*
X111776812Y-141871820D01*
D11*
X162813619Y-104501904D02*
X162813619Y-103701904D01*
X162508857Y-103701904D01*
X162432666Y-103740000D01*
X162394571Y-103778095D01*
X162356476Y-103854285D01*
X162356476Y-103968571D01*
X162394571Y-104044761D01*
X162432666Y-104082857D01*
X162508857Y-104120952D01*
X162813619Y-104120952D01*
X162013619Y-104501904D02*
X162013619Y-103968571D01*
X162013619Y-103701904D02*
X162051714Y-103740000D01*
X162013619Y-103778095D01*
X161975523Y-103740000D01*
X162013619Y-103701904D01*
X162013619Y-103778095D01*
X161289809Y-104463809D02*
X161366000Y-104501904D01*
X161518380Y-104501904D01*
X161594571Y-104463809D01*
X161632666Y-104425714D01*
X161670761Y-104349523D01*
X161670761Y-104120952D01*
X161632666Y-104044761D01*
X161594571Y-104006666D01*
X161518380Y-103968571D01*
X161366000Y-103968571D01*
X161289809Y-104006666D01*
X160832666Y-104501904D02*
X160908857Y-104463809D01*
X160946952Y-104425714D01*
X160985047Y-104349523D01*
X160985047Y-104120952D01*
X160946952Y-104044761D01*
X160908857Y-104006666D01*
X160832666Y-103968571D01*
X160718380Y-103968571D01*
X160642190Y-104006666D01*
X160604095Y-104044761D01*
X160566000Y-104120952D01*
X160566000Y-104349523D01*
X160604095Y-104425714D01*
X160642190Y-104463809D01*
X160718380Y-104501904D01*
X160832666Y-104501904D01*
X159156476Y-104501904D02*
X159423142Y-104120952D01*
X159613619Y-104501904D02*
X159613619Y-103701904D01*
X159308857Y-103701904D01*
X159232666Y-103740000D01*
X159194571Y-103778095D01*
X159156476Y-103854285D01*
X159156476Y-103968571D01*
X159194571Y-104044761D01*
X159232666Y-104082857D01*
X159308857Y-104120952D01*
X159613619Y-104120952D01*
X158508857Y-104463809D02*
X158585047Y-104501904D01*
X158737428Y-104501904D01*
X158813619Y-104463809D01*
X158851714Y-104387619D01*
X158851714Y-104082857D01*
X158813619Y-104006666D01*
X158737428Y-103968571D01*
X158585047Y-103968571D01*
X158508857Y-104006666D01*
X158470761Y-104082857D01*
X158470761Y-104159047D01*
X158851714Y-104235238D01*
X158166000Y-104463809D02*
X158089809Y-104501904D01*
X157937428Y-104501904D01*
X157861238Y-104463809D01*
X157823142Y-104387619D01*
X157823142Y-104349523D01*
X157861238Y-104273333D01*
X157937428Y-104235238D01*
X158051714Y-104235238D01*
X158127904Y-104197142D01*
X158166000Y-104120952D01*
X158166000Y-104082857D01*
X158127904Y-104006666D01*
X158051714Y-103968571D01*
X157937428Y-103968571D01*
X157861238Y-104006666D01*
X157175523Y-104463809D02*
X157251714Y-104501904D01*
X157404095Y-104501904D01*
X157480285Y-104463809D01*
X157518380Y-104387619D01*
X157518380Y-104082857D01*
X157480285Y-104006666D01*
X157404095Y-103968571D01*
X157251714Y-103968571D01*
X157175523Y-104006666D01*
X157137428Y-104082857D01*
X157137428Y-104159047D01*
X157518380Y-104235238D01*
X156908857Y-103968571D02*
X156604095Y-103968571D01*
X156794571Y-103701904D02*
X156794571Y-104387619D01*
X156756476Y-104463809D01*
X156680285Y-104501904D01*
X156604095Y-104501904D01*
D12*
%TO.C,TP1*%
X153915904Y-103592380D02*
X153344476Y-103592380D01*
X153630190Y-104592380D02*
X153630190Y-103592380D01*
X153011142Y-104592380D02*
X153011142Y-103592380D01*
X152630190Y-103592380D01*
X152534952Y-103640000D01*
X152487333Y-103687619D01*
X152439714Y-103782857D01*
X152439714Y-103925714D01*
X152487333Y-104020952D01*
X152534952Y-104068571D01*
X152630190Y-104116190D01*
X153011142Y-104116190D01*
X151487333Y-104592380D02*
X152058761Y-104592380D01*
X151773047Y-104592380D02*
X151773047Y-103592380D01*
X151868285Y-103735238D01*
X151963523Y-103830476D01*
X152058761Y-103878095D01*
%TO.C,C3*%
X171616666Y-134977142D02*
X171664285Y-135024761D01*
X171807142Y-135072380D01*
X171902380Y-135072380D01*
X172045238Y-135024761D01*
X172140476Y-134929523D01*
X172188095Y-134834285D01*
X172235714Y-134643809D01*
X172235714Y-134500952D01*
X172188095Y-134310476D01*
X172140476Y-134215238D01*
X172045238Y-134120000D01*
X171902380Y-134072380D01*
X171807142Y-134072380D01*
X171664285Y-134120000D01*
X171616666Y-134167619D01*
X171283333Y-134072380D02*
X170664285Y-134072380D01*
X170997619Y-134453333D01*
X170854761Y-134453333D01*
X170759523Y-134500952D01*
X170711904Y-134548571D01*
X170664285Y-134643809D01*
X170664285Y-134881904D01*
X170711904Y-134977142D01*
X170759523Y-135024761D01*
X170854761Y-135072380D01*
X171140476Y-135072380D01*
X171235714Y-135024761D01*
X171283333Y-134977142D01*
%TO.C,C7*%
X150035142Y-139279333D02*
X150082761Y-139231714D01*
X150130380Y-139088857D01*
X150130380Y-138993619D01*
X150082761Y-138850761D01*
X149987523Y-138755523D01*
X149892285Y-138707904D01*
X149701809Y-138660285D01*
X149558952Y-138660285D01*
X149368476Y-138707904D01*
X149273238Y-138755523D01*
X149178000Y-138850761D01*
X149130380Y-138993619D01*
X149130380Y-139088857D01*
X149178000Y-139231714D01*
X149225619Y-139279333D01*
X149130380Y-139612666D02*
X149130380Y-140279333D01*
X150130380Y-139850761D01*
%TO.C,C6*%
X152575142Y-135723333D02*
X152622761Y-135675714D01*
X152670380Y-135532857D01*
X152670380Y-135437619D01*
X152622761Y-135294761D01*
X152527523Y-135199523D01*
X152432285Y-135151904D01*
X152241809Y-135104285D01*
X152098952Y-135104285D01*
X151908476Y-135151904D01*
X151813238Y-135199523D01*
X151718000Y-135294761D01*
X151670380Y-135437619D01*
X151670380Y-135532857D01*
X151718000Y-135675714D01*
X151765619Y-135723333D01*
X151670380Y-136580476D02*
X151670380Y-136390000D01*
X151718000Y-136294761D01*
X151765619Y-136247142D01*
X151908476Y-136151904D01*
X152098952Y-136104285D01*
X152479904Y-136104285D01*
X152575142Y-136151904D01*
X152622761Y-136199523D01*
X152670380Y-136294761D01*
X152670380Y-136485238D01*
X152622761Y-136580476D01*
X152575142Y-136628095D01*
X152479904Y-136675714D01*
X152241809Y-136675714D01*
X152146571Y-136628095D01*
X152098952Y-136580476D01*
X152051333Y-136485238D01*
X152051333Y-136294761D01*
X152098952Y-136199523D01*
X152146571Y-136151904D01*
X152241809Y-136104285D01*
D13*
%TO.C,G\u002A\u002A\u002A*%
X139010571Y-140208000D02*
X139155714Y-140135428D01*
X139373428Y-140135428D01*
X139591142Y-140208000D01*
X139736285Y-140353142D01*
X139808857Y-140498285D01*
X139881428Y-140788571D01*
X139881428Y-141006285D01*
X139808857Y-141296571D01*
X139736285Y-141441714D01*
X139591142Y-141586857D01*
X139373428Y-141659428D01*
X139228285Y-141659428D01*
X139010571Y-141586857D01*
X138938000Y-141514285D01*
X138938000Y-141006285D01*
X139228285Y-141006285D01*
X138067142Y-140135428D02*
X138067142Y-140498285D01*
X138430000Y-140353142D02*
X138067142Y-140498285D01*
X137704285Y-140353142D01*
X138284857Y-140788571D02*
X138067142Y-140498285D01*
X137849428Y-140788571D01*
X136906000Y-140135428D02*
X136906000Y-140498285D01*
X137268857Y-140353142D02*
X136906000Y-140498285D01*
X136543142Y-140353142D01*
X137123714Y-140788571D02*
X136906000Y-140498285D01*
X136688285Y-140788571D01*
X135744857Y-140135428D02*
X135744857Y-140498285D01*
X136107714Y-140353142D02*
X135744857Y-140498285D01*
X135382000Y-140353142D01*
X135962571Y-140788571D02*
X135744857Y-140498285D01*
X135527142Y-140788571D01*
D12*
%TO.C,C1*%
X161530142Y-135723333D02*
X161577761Y-135675714D01*
X161625380Y-135532857D01*
X161625380Y-135437619D01*
X161577761Y-135294761D01*
X161482523Y-135199523D01*
X161387285Y-135151904D01*
X161196809Y-135104285D01*
X161053952Y-135104285D01*
X160863476Y-135151904D01*
X160768238Y-135199523D01*
X160673000Y-135294761D01*
X160625380Y-135437619D01*
X160625380Y-135532857D01*
X160673000Y-135675714D01*
X160720619Y-135723333D01*
X161625380Y-136675714D02*
X161625380Y-136104285D01*
X161625380Y-136390000D02*
X160625380Y-136390000D01*
X160768238Y-136294761D01*
X160863476Y-136199523D01*
X160911095Y-136104285D01*
%TO.C,C5*%
X109894666Y-133199142D02*
X109942285Y-133246761D01*
X110085142Y-133294380D01*
X110180380Y-133294380D01*
X110323238Y-133246761D01*
X110418476Y-133151523D01*
X110466095Y-133056285D01*
X110513714Y-132865809D01*
X110513714Y-132722952D01*
X110466095Y-132532476D01*
X110418476Y-132437238D01*
X110323238Y-132342000D01*
X110180380Y-132294380D01*
X110085142Y-132294380D01*
X109942285Y-132342000D01*
X109894666Y-132389619D01*
X108989904Y-132294380D02*
X109466095Y-132294380D01*
X109513714Y-132770571D01*
X109466095Y-132722952D01*
X109370857Y-132675333D01*
X109132761Y-132675333D01*
X109037523Y-132722952D01*
X108989904Y-132770571D01*
X108942285Y-132865809D01*
X108942285Y-133103904D01*
X108989904Y-133199142D01*
X109037523Y-133246761D01*
X109132761Y-133294380D01*
X109370857Y-133294380D01*
X109466095Y-133246761D01*
X109513714Y-133199142D01*
%TO.C,C4*%
X110148666Y-121515142D02*
X110196285Y-121562761D01*
X110339142Y-121610380D01*
X110434380Y-121610380D01*
X110577238Y-121562761D01*
X110672476Y-121467523D01*
X110720095Y-121372285D01*
X110767714Y-121181809D01*
X110767714Y-121038952D01*
X110720095Y-120848476D01*
X110672476Y-120753238D01*
X110577238Y-120658000D01*
X110434380Y-120610380D01*
X110339142Y-120610380D01*
X110196285Y-120658000D01*
X110148666Y-120705619D01*
X109291523Y-120943714D02*
X109291523Y-121610380D01*
X109529619Y-120562761D02*
X109767714Y-121277047D01*
X109148666Y-121277047D01*
D14*
%TO.C,TP1*%
X155884000Y-104974000D02*
X155854000Y-104974000D01*
X151354000Y-104974000D02*
X153954000Y-104974000D01*
X149454000Y-104974000D02*
X149424000Y-104974000D01*
%TO.C,C3*%
X176225252Y-135530000D02*
X174802748Y-135530000D01*
X176225252Y-133710000D02*
X174802748Y-133710000D01*
%TO.C,C7*%
X148738000Y-140157252D02*
X148738000Y-138734748D01*
X146918000Y-140157252D02*
X146918000Y-138734748D01*
%TO.C,C6*%
X151278000Y-136601252D02*
X151278000Y-135178748D01*
X149458000Y-136601252D02*
X149458000Y-135178748D01*
%TO.C,G\u002A\u002A\u002A*%
G36*
X137112072Y-136602594D02*
G01*
X137161215Y-136612276D01*
X137192355Y-136652965D01*
X137209560Y-136745003D01*
X137216900Y-136908732D01*
X137218443Y-137164495D01*
X137218433Y-137194591D01*
X137216497Y-137440303D01*
X137208359Y-137596003D01*
X137189952Y-137682031D01*
X137157206Y-137718730D01*
X137106053Y-137726442D01*
X137056274Y-137720244D01*
X137015779Y-137679345D01*
X136997765Y-137577589D01*
X136993664Y-137389274D01*
X136991598Y-137239936D01*
X136977965Y-137118451D01*
X136944046Y-137064408D01*
X136881274Y-137052106D01*
X136808621Y-137033635D01*
X136768885Y-136939717D01*
X136756159Y-136874846D01*
X136691165Y-136836752D01*
X136544106Y-136827327D01*
X136414365Y-136820964D01*
X136338177Y-136788467D01*
X136319327Y-136714938D01*
X136332054Y-136650067D01*
X136397048Y-136611973D01*
X136544106Y-136602548D01*
X136673848Y-136608911D01*
X136750035Y-136641409D01*
X136768885Y-136714938D01*
X136787356Y-136787591D01*
X136881274Y-136827327D01*
X136953928Y-136808856D01*
X136993664Y-136714938D01*
X137012135Y-136642284D01*
X137106053Y-136602548D01*
X137112072Y-136602594D01*
G37*
G36*
X139241451Y-138737947D02*
G01*
X139239385Y-138887285D01*
X139225752Y-139008770D01*
X139191834Y-139062812D01*
X139129062Y-139075115D01*
X139056408Y-139093586D01*
X139016673Y-139187504D01*
X139010474Y-139237283D01*
X138969575Y-139277778D01*
X138867820Y-139295793D01*
X138679504Y-139299894D01*
X138530166Y-139297827D01*
X138408681Y-139284194D01*
X138354639Y-139250276D01*
X138342336Y-139187504D01*
X138348535Y-139137725D01*
X138389434Y-139097230D01*
X138491189Y-139079216D01*
X138679504Y-139075115D01*
X138828842Y-139073049D01*
X138950328Y-139059416D01*
X139004370Y-139025497D01*
X139016673Y-138962725D01*
X139010474Y-138912946D01*
X138969575Y-138872451D01*
X138867820Y-138854437D01*
X138679504Y-138850336D01*
X138342336Y-138850336D01*
X138342336Y-138625557D01*
X138347848Y-138513168D01*
X138567115Y-138513168D01*
X138579841Y-138578039D01*
X138644835Y-138616132D01*
X138791894Y-138625557D01*
X138921636Y-138619194D01*
X138997823Y-138586697D01*
X139016673Y-138513168D01*
X139003946Y-138448297D01*
X138938952Y-138410203D01*
X138791894Y-138400778D01*
X138662152Y-138407142D01*
X138585965Y-138439639D01*
X138567115Y-138513168D01*
X138347848Y-138513168D01*
X138348699Y-138495815D01*
X138381197Y-138419628D01*
X138454726Y-138400778D01*
X138527379Y-138382308D01*
X138567115Y-138288389D01*
X138579841Y-138223518D01*
X138644835Y-138185425D01*
X138791894Y-138176000D01*
X138921636Y-138182363D01*
X138997823Y-138214860D01*
X139016673Y-138288389D01*
X139035143Y-138361043D01*
X139129062Y-138400778D01*
X139178841Y-138406977D01*
X139219336Y-138447876D01*
X139230895Y-138513168D01*
X139237351Y-138549631D01*
X139241451Y-138737947D01*
G37*
G36*
X139162150Y-134806715D02*
G01*
X139198976Y-134828083D01*
X139222215Y-134887337D01*
X139234971Y-135003101D01*
X139240349Y-135193998D01*
X139241451Y-135478655D01*
X139241052Y-135677180D01*
X139237491Y-135898137D01*
X139227615Y-136037572D01*
X139208321Y-136114110D01*
X139176505Y-136146375D01*
X139129062Y-136152991D01*
X139079283Y-136146792D01*
X139038788Y-136105894D01*
X139020773Y-136004138D01*
X139016673Y-135815823D01*
X139016673Y-135478655D01*
X138567115Y-135478655D01*
X138567115Y-135815823D01*
X138565049Y-135965161D01*
X138551416Y-136086646D01*
X138517497Y-136140688D01*
X138454726Y-136152991D01*
X138404946Y-136146792D01*
X138364451Y-136105894D01*
X138346437Y-136004138D01*
X138342336Y-135815823D01*
X138344403Y-135666485D01*
X138358035Y-135545000D01*
X138391954Y-135490957D01*
X138454726Y-135478655D01*
X138527379Y-135460184D01*
X138567115Y-135366265D01*
X138579841Y-135301394D01*
X138644835Y-135263301D01*
X138791894Y-135253876D01*
X139016673Y-135253876D01*
X139016673Y-135029097D01*
X139023036Y-134899355D01*
X139055533Y-134823168D01*
X139129062Y-134804318D01*
X139162150Y-134806715D01*
G37*
G36*
X138117558Y-135591044D02*
G01*
X138115491Y-135740382D01*
X138101859Y-135861867D01*
X138067940Y-135915910D01*
X138005168Y-135928212D01*
X137932514Y-135946683D01*
X137892779Y-136040601D01*
X137886580Y-136090381D01*
X137845682Y-136130876D01*
X137743926Y-136148890D01*
X137555611Y-136152991D01*
X137406273Y-136150925D01*
X137284788Y-136137292D01*
X137230745Y-136103373D01*
X137218443Y-136040601D01*
X137224641Y-135990822D01*
X137265540Y-135950327D01*
X137367295Y-135932313D01*
X137555611Y-135928212D01*
X137704949Y-135926146D01*
X137826434Y-135912513D01*
X137880476Y-135878594D01*
X137892779Y-135815823D01*
X137886580Y-135766043D01*
X137845682Y-135725548D01*
X137743926Y-135707534D01*
X137555611Y-135703433D01*
X137218443Y-135703433D01*
X137218443Y-135478655D01*
X137223955Y-135366265D01*
X137443221Y-135366265D01*
X137455948Y-135431136D01*
X137520942Y-135469230D01*
X137668000Y-135478655D01*
X137797742Y-135472291D01*
X137873929Y-135439794D01*
X137892779Y-135366265D01*
X137880053Y-135301394D01*
X137815058Y-135263301D01*
X137668000Y-135253876D01*
X137538258Y-135260239D01*
X137462071Y-135292736D01*
X137443221Y-135366265D01*
X137223955Y-135366265D01*
X137224806Y-135348913D01*
X137257303Y-135272726D01*
X137330832Y-135253876D01*
X137403486Y-135235405D01*
X137443221Y-135141486D01*
X137455948Y-135076616D01*
X137520942Y-135038522D01*
X137668000Y-135029097D01*
X137797742Y-135035460D01*
X137873929Y-135067957D01*
X137892779Y-135141486D01*
X137911250Y-135214140D01*
X138005168Y-135253876D01*
X138054948Y-135260074D01*
X138095443Y-135300973D01*
X138107002Y-135366265D01*
X138113457Y-135402729D01*
X138117558Y-135591044D01*
G37*
G36*
X139241451Y-137164495D02*
G01*
X139239385Y-137313833D01*
X139225752Y-137435318D01*
X139191834Y-137489361D01*
X139129062Y-137501663D01*
X139056408Y-137520134D01*
X139016673Y-137614053D01*
X139010474Y-137663832D01*
X138969575Y-137704327D01*
X138867820Y-137722341D01*
X138679504Y-137726442D01*
X138530166Y-137724376D01*
X138408681Y-137710743D01*
X138354639Y-137676825D01*
X138342336Y-137614053D01*
X138348535Y-137564273D01*
X138389434Y-137523778D01*
X138491189Y-137505764D01*
X138679504Y-137501663D01*
X138828842Y-137499597D01*
X138950328Y-137485964D01*
X139004370Y-137452046D01*
X139016673Y-137389274D01*
X139010474Y-137339495D01*
X138969575Y-137299000D01*
X138867820Y-137280985D01*
X138679504Y-137276885D01*
X138342336Y-137276885D01*
X138342336Y-137052106D01*
X138347848Y-136939717D01*
X138567115Y-136939717D01*
X138579841Y-137004587D01*
X138644835Y-137042681D01*
X138791894Y-137052106D01*
X138921636Y-137045743D01*
X138997823Y-137013246D01*
X139016673Y-136939717D01*
X139003946Y-136874846D01*
X138938952Y-136836752D01*
X138791894Y-136827327D01*
X138662152Y-136833690D01*
X138585965Y-136866187D01*
X138567115Y-136939717D01*
X138347848Y-136939717D01*
X138348699Y-136922364D01*
X138381197Y-136846177D01*
X138454726Y-136827327D01*
X138527379Y-136808856D01*
X138567115Y-136714938D01*
X138579841Y-136650067D01*
X138644835Y-136611973D01*
X138791894Y-136602548D01*
X138921636Y-136608911D01*
X138997823Y-136641409D01*
X139016673Y-136714938D01*
X139035143Y-136787591D01*
X139129062Y-136827327D01*
X139178841Y-136833526D01*
X139219336Y-136874424D01*
X139230896Y-136939717D01*
X139237351Y-136976180D01*
X139241451Y-137164495D01*
G37*
G36*
X140058273Y-134804327D02*
G01*
X140303985Y-134806264D01*
X140459684Y-134814402D01*
X140545712Y-134832809D01*
X140582411Y-134865555D01*
X140590124Y-134916708D01*
X140577398Y-134981579D01*
X140512404Y-135019672D01*
X140365345Y-135029097D01*
X140140566Y-135029097D01*
X140140566Y-135591044D01*
X140140557Y-135621140D01*
X140138621Y-135866852D01*
X140130483Y-136022551D01*
X140112076Y-136108579D01*
X140079330Y-136145278D01*
X140028177Y-136152991D01*
X140022158Y-136152945D01*
X139973015Y-136143263D01*
X139941876Y-136102575D01*
X139924670Y-136010537D01*
X139917330Y-135846807D01*
X139915788Y-135591044D01*
X139915788Y-135029097D01*
X139691009Y-135029097D01*
X139561267Y-135022734D01*
X139485080Y-134990237D01*
X139466230Y-134916708D01*
X139466276Y-134910689D01*
X139475958Y-134861546D01*
X139516646Y-134830406D01*
X139608684Y-134813201D01*
X139772414Y-134805861D01*
X140028177Y-134804318D01*
X140058273Y-134804327D01*
G37*
G36*
X140507367Y-137952875D02*
G01*
X140552051Y-137975445D01*
X140576970Y-138042548D01*
X140587778Y-138176790D01*
X140590124Y-138400778D01*
X140589710Y-138519308D01*
X140584068Y-138698044D01*
X140567292Y-138797722D01*
X140533732Y-138840950D01*
X140477735Y-138850336D01*
X140412864Y-138863062D01*
X140374770Y-138928056D01*
X140365345Y-139075115D01*
X140358982Y-139204856D01*
X140326485Y-139281044D01*
X140252956Y-139299894D01*
X140188085Y-139287167D01*
X140149991Y-139222173D01*
X140140566Y-139075115D01*
X140134203Y-138945373D01*
X140101706Y-138869186D01*
X140028177Y-138850336D01*
X139963306Y-138863062D01*
X139925213Y-138928056D01*
X139915788Y-139075115D01*
X139909425Y-139204856D01*
X139876928Y-139281044D01*
X139803398Y-139299894D01*
X139738527Y-139287167D01*
X139700434Y-139222173D01*
X139691009Y-139075115D01*
X139684646Y-138945373D01*
X139652149Y-138869186D01*
X139578620Y-138850336D01*
X139548987Y-138848682D01*
X139504303Y-138826112D01*
X139479384Y-138759009D01*
X139468577Y-138624767D01*
X139466230Y-138400778D01*
X139466644Y-138282249D01*
X139472286Y-138103513D01*
X139489062Y-138003835D01*
X139522622Y-137960607D01*
X139578620Y-137951221D01*
X139608252Y-137952875D01*
X139652936Y-137975445D01*
X139677855Y-138042548D01*
X139688663Y-138176790D01*
X139691009Y-138400778D01*
X139691422Y-138519308D01*
X139697065Y-138698044D01*
X139713841Y-138797722D01*
X139747401Y-138840950D01*
X139803398Y-138850336D01*
X139876052Y-138831865D01*
X139915788Y-138737947D01*
X139934258Y-138665293D01*
X140028177Y-138625557D01*
X140100831Y-138644028D01*
X140140566Y-138737947D01*
X140159037Y-138810600D01*
X140252956Y-138850336D01*
X140282588Y-138848682D01*
X140327272Y-138826112D01*
X140352192Y-138759009D01*
X140362999Y-138624767D01*
X140365345Y-138400778D01*
X140365759Y-138282249D01*
X140371401Y-138103513D01*
X140388177Y-138003835D01*
X140421737Y-137960607D01*
X140477735Y-137951221D01*
X140507367Y-137952875D01*
G37*
G36*
X140586163Y-137471588D02*
G01*
X140576287Y-137611024D01*
X140556994Y-137687562D01*
X140525177Y-137719826D01*
X140477735Y-137726442D01*
X140412864Y-137713716D01*
X140374770Y-137648722D01*
X140365345Y-137501663D01*
X140365345Y-137276885D01*
X140140566Y-137276885D01*
X140010825Y-137283248D01*
X139934637Y-137315745D01*
X139915788Y-137389274D01*
X139897317Y-137461928D01*
X139803398Y-137501663D01*
X139730745Y-137520134D01*
X139691009Y-137614053D01*
X139672538Y-137686707D01*
X139578620Y-137726442D01*
X139505966Y-137707971D01*
X139466230Y-137614053D01*
X139484701Y-137541399D01*
X139578620Y-137501663D01*
X139643490Y-137488937D01*
X139681584Y-137423943D01*
X139691009Y-137276885D01*
X139684646Y-137147143D01*
X139652149Y-137070956D01*
X139578620Y-137052106D01*
X139691009Y-137052106D01*
X140365345Y-137052106D01*
X140365345Y-136602548D01*
X139691009Y-136602548D01*
X139691009Y-137052106D01*
X139578620Y-137052106D01*
X139513749Y-137039380D01*
X139475655Y-136974386D01*
X139466230Y-136827327D01*
X139472593Y-136697585D01*
X139505090Y-136621398D01*
X139578620Y-136602548D01*
X139651273Y-136584078D01*
X139691009Y-136490159D01*
X139692663Y-136460527D01*
X139715233Y-136415843D01*
X139782336Y-136390923D01*
X139916578Y-136380116D01*
X140140566Y-136377770D01*
X140590124Y-136377770D01*
X140590124Y-137052106D01*
X140589725Y-137250631D01*
X140586163Y-137471588D01*
G37*
G36*
X136213078Y-139075528D02*
G01*
X136391814Y-139081171D01*
X136491492Y-139097946D01*
X136534721Y-139131507D01*
X136544106Y-139187504D01*
X136542452Y-139217136D01*
X136519882Y-139261820D01*
X136452780Y-139286740D01*
X136318538Y-139297547D01*
X136094549Y-139299894D01*
X135976019Y-139299480D01*
X135797284Y-139293837D01*
X135697605Y-139277062D01*
X135654377Y-139243501D01*
X135644991Y-139187504D01*
X135646645Y-139157872D01*
X135669216Y-139113188D01*
X135736318Y-139088268D01*
X135870560Y-139077461D01*
X136094549Y-139075115D01*
X136213078Y-139075528D01*
G37*
G36*
X135869770Y-137614053D02*
G01*
X135857044Y-137678924D01*
X135792050Y-137717017D01*
X135644991Y-137726442D01*
X135515249Y-137720079D01*
X135439062Y-137687582D01*
X135420212Y-137614053D01*
X135401742Y-137541399D01*
X135307823Y-137501663D01*
X135420212Y-137501663D01*
X135869770Y-137501663D01*
X135869770Y-136827327D01*
X135420212Y-136827327D01*
X135420212Y-137501663D01*
X135307823Y-137501663D01*
X135258044Y-137495465D01*
X135217549Y-137454566D01*
X135199535Y-137352811D01*
X135195434Y-137164495D01*
X135197500Y-137015157D01*
X135211133Y-136893672D01*
X135245051Y-136839630D01*
X135307823Y-136827327D01*
X135380477Y-136808856D01*
X135420212Y-136714938D01*
X135432939Y-136650067D01*
X135497933Y-136611973D01*
X135644991Y-136602548D01*
X135774733Y-136608911D01*
X135850920Y-136641409D01*
X135869770Y-136714938D01*
X135888241Y-136787591D01*
X135982159Y-136827327D01*
X136031939Y-136833526D01*
X136072434Y-136874424D01*
X136090448Y-136976180D01*
X136094549Y-137164495D01*
X136092483Y-137313833D01*
X136078850Y-137435318D01*
X136044931Y-137489361D01*
X135982159Y-137501663D01*
X135909506Y-137520134D01*
X135869770Y-137614053D01*
G37*
G36*
X142575084Y-141229897D02*
G01*
X142563825Y-141317576D01*
X142550642Y-141364914D01*
X142535395Y-141379097D01*
X142484714Y-141400161D01*
X142428266Y-141491486D01*
X142394483Y-141556700D01*
X142309323Y-141603876D01*
X142265155Y-141614914D01*
X142219770Y-141688168D01*
X142216753Y-141705007D01*
X142183966Y-141733664D01*
X142102249Y-141753098D01*
X141955745Y-141764948D01*
X141728596Y-141770855D01*
X141404947Y-141772460D01*
X141303702Y-141772501D01*
X141014929Y-141773936D01*
X140816729Y-141779165D01*
X140692125Y-141790529D01*
X140624140Y-141810370D01*
X140595799Y-141841030D01*
X140590124Y-141884849D01*
X140577398Y-141949720D01*
X140512404Y-141987814D01*
X140365345Y-141997239D01*
X140345770Y-141997289D01*
X140210705Y-142006982D01*
X140152835Y-142047212D01*
X140140566Y-142137725D01*
X140135503Y-142207887D01*
X140100675Y-142255291D01*
X140008507Y-142274565D01*
X139831496Y-142278212D01*
X139826769Y-142278212D01*
X139652124Y-142281217D01*
X139561627Y-142300256D01*
X139527615Y-142350419D01*
X139522425Y-142446796D01*
X139522428Y-142454487D01*
X139528442Y-142546947D01*
X139564546Y-142594774D01*
X139658174Y-142612681D01*
X139836757Y-142615380D01*
X139921734Y-142616168D01*
X140070042Y-142628235D01*
X140146657Y-142662285D01*
X140180479Y-142727770D01*
X140188183Y-142751561D01*
X140255744Y-142820609D01*
X140399997Y-142840159D01*
X140506322Y-142845992D01*
X140574735Y-142884472D01*
X140590124Y-142980646D01*
X140590204Y-142992880D01*
X140605714Y-143077296D01*
X140670082Y-143113464D01*
X140814903Y-143121132D01*
X140944644Y-143127496D01*
X141020832Y-143159993D01*
X141039681Y-143233522D01*
X141039610Y-143240087D01*
X141035821Y-143262442D01*
X141020149Y-143281404D01*
X140984216Y-143297253D01*
X140919647Y-143310267D01*
X140818068Y-143320726D01*
X140671103Y-143328908D01*
X140470376Y-143335094D01*
X140207513Y-143339563D01*
X139874136Y-143342593D01*
X139461873Y-143344463D01*
X138962345Y-143345454D01*
X138367180Y-143345843D01*
X137668000Y-143345911D01*
X137471030Y-143345909D01*
X136800388Y-143345783D01*
X136231529Y-143345260D01*
X135756076Y-143344062D01*
X135365654Y-143341910D01*
X135051888Y-143338524D01*
X134806402Y-143333625D01*
X134620822Y-143326934D01*
X134486771Y-143318172D01*
X134395873Y-143307060D01*
X134339755Y-143293318D01*
X134310040Y-143276667D01*
X134298353Y-143256828D01*
X134296319Y-143233522D01*
X134309045Y-143168651D01*
X134374039Y-143130557D01*
X134521097Y-143121132D01*
X134540673Y-143121082D01*
X134675738Y-143111389D01*
X134733607Y-143071159D01*
X134745876Y-142980646D01*
X134753770Y-142902081D01*
X134805848Y-142851530D01*
X134936004Y-142840159D01*
X134976480Y-142839283D01*
X135100940Y-142810019D01*
X135155521Y-142727770D01*
X135165651Y-142697460D01*
X135212971Y-142645560D01*
X135314535Y-142621350D01*
X135499244Y-142615380D01*
X135513583Y-142615379D01*
X135685979Y-142612153D01*
X135775154Y-142592789D01*
X135808542Y-142542575D01*
X135813575Y-142446796D01*
X135813575Y-142444218D01*
X135808067Y-142348957D01*
X135773162Y-142299595D01*
X135681195Y-142281043D01*
X135504504Y-142278212D01*
X135350149Y-142275911D01*
X135245861Y-142260080D01*
X135203457Y-142218185D01*
X135195434Y-142137725D01*
X135195353Y-142125491D01*
X135179844Y-142041075D01*
X135115476Y-142004907D01*
X134970655Y-141997239D01*
X134840913Y-141990876D01*
X134764726Y-141958378D01*
X134745876Y-141884849D01*
X134745783Y-141876496D01*
X134737320Y-141834426D01*
X134702828Y-141805539D01*
X134625037Y-141787366D01*
X134486675Y-141777440D01*
X134270470Y-141773294D01*
X133959151Y-141772460D01*
X133900676Y-141772447D01*
X133606189Y-141771238D01*
X133403976Y-141766310D01*
X133276765Y-141755197D01*
X133207284Y-141735431D01*
X133178261Y-141704545D01*
X133172425Y-141660070D01*
X133153954Y-141587417D01*
X133060035Y-141547681D01*
X132987382Y-141529210D01*
X132947646Y-141435292D01*
X132929175Y-141362638D01*
X132835257Y-141322902D01*
X132827248Y-141322778D01*
X132806629Y-141318705D01*
X132788921Y-141303052D01*
X132773902Y-141268063D01*
X132761352Y-141205985D01*
X132751049Y-141109062D01*
X132750400Y-141098124D01*
X134296319Y-141098124D01*
X134970655Y-141098124D01*
X134970655Y-140985734D01*
X136768885Y-140985734D01*
X136781611Y-141050605D01*
X136846605Y-141088699D01*
X136993664Y-141098124D01*
X137123406Y-141091760D01*
X137199593Y-141059263D01*
X137218443Y-140985734D01*
X137443221Y-140985734D01*
X137455948Y-141050605D01*
X137520942Y-141088699D01*
X137668000Y-141098124D01*
X137797742Y-141091760D01*
X137873929Y-141059263D01*
X137892779Y-140985734D01*
X138117558Y-140985734D01*
X138130284Y-141050605D01*
X138195278Y-141088699D01*
X138342336Y-141098124D01*
X138472078Y-141091760D01*
X138548265Y-141059263D01*
X138567115Y-140985734D01*
X138554389Y-140920863D01*
X138489395Y-140882770D01*
X138342336Y-140873345D01*
X138212595Y-140879708D01*
X138136407Y-140912205D01*
X138117558Y-140985734D01*
X137892779Y-140985734D01*
X137880053Y-140920863D01*
X137815058Y-140882770D01*
X137668000Y-140873345D01*
X137538258Y-140879708D01*
X137462071Y-140912205D01*
X137443221Y-140985734D01*
X137218443Y-140985734D01*
X137205716Y-140920863D01*
X137140722Y-140882770D01*
X136993664Y-140873345D01*
X136863922Y-140879708D01*
X136787735Y-140912205D01*
X136768885Y-140985734D01*
X134970655Y-140985734D01*
X134970655Y-140423787D01*
X134296319Y-140423787D01*
X134296319Y-141098124D01*
X132750400Y-141098124D01*
X132742771Y-140969541D01*
X132736297Y-140779666D01*
X132731405Y-140531684D01*
X132727873Y-140217840D01*
X132725480Y-139830378D01*
X132724005Y-139361545D01*
X132723225Y-138803587D01*
X132722920Y-138148748D01*
X132722867Y-137389274D01*
X132722870Y-137164495D01*
X134071540Y-137164495D01*
X134071565Y-137526340D01*
X134071902Y-138071570D01*
X134072966Y-138519482D01*
X134075175Y-138879640D01*
X134078944Y-139161609D01*
X134084688Y-139374951D01*
X134092824Y-139529232D01*
X134103767Y-139634015D01*
X134117933Y-139698864D01*
X134135738Y-139733344D01*
X134157598Y-139747018D01*
X134183929Y-139749451D01*
X134256583Y-139767922D01*
X134296319Y-139861840D01*
X134296390Y-139868406D01*
X134300179Y-139890761D01*
X134315852Y-139909723D01*
X134351784Y-139925571D01*
X134416353Y-139938585D01*
X134517932Y-139949044D01*
X134664897Y-139957227D01*
X134865624Y-139963413D01*
X135128487Y-139967881D01*
X135461864Y-139970911D01*
X135874128Y-139972782D01*
X136373655Y-139973772D01*
X136968820Y-139974162D01*
X137668000Y-139974230D01*
X137864970Y-139974227D01*
X138535612Y-139974101D01*
X139104471Y-139973579D01*
X139579924Y-139972381D01*
X139970346Y-139970229D01*
X140284112Y-139966843D01*
X140529598Y-139961944D01*
X140715178Y-139955253D01*
X140849230Y-139946491D01*
X140940127Y-139935378D01*
X140996245Y-139921636D01*
X141025960Y-139904985D01*
X141037647Y-139885146D01*
X141039681Y-139861840D01*
X141058152Y-139789187D01*
X141152071Y-139749451D01*
X141167803Y-139748869D01*
X141191509Y-139741131D01*
X141210983Y-139716644D01*
X141226642Y-139665844D01*
X141238902Y-139579167D01*
X141248178Y-139447049D01*
X141254885Y-139259927D01*
X141259441Y-139008235D01*
X141262261Y-138682410D01*
X141263760Y-138272888D01*
X141264354Y-137770104D01*
X141264460Y-137164495D01*
X141264435Y-136802651D01*
X141264098Y-136257421D01*
X141263034Y-135809509D01*
X141260825Y-135449350D01*
X141257057Y-135167382D01*
X141251312Y-134954040D01*
X141243177Y-134799759D01*
X141232233Y-134694976D01*
X141218067Y-134630126D01*
X141200262Y-134595646D01*
X141178402Y-134581972D01*
X141152071Y-134579540D01*
X141079417Y-134561069D01*
X141039681Y-134467150D01*
X141039610Y-134460584D01*
X141035821Y-134438230D01*
X141020149Y-134419268D01*
X140984216Y-134403419D01*
X140919647Y-134390405D01*
X140818068Y-134379946D01*
X140671103Y-134371764D01*
X140470376Y-134365578D01*
X140207513Y-134361109D01*
X139874136Y-134358079D01*
X139461873Y-134356209D01*
X138962345Y-134355218D01*
X138367180Y-134354829D01*
X137668000Y-134354761D01*
X137471030Y-134354763D01*
X136800388Y-134354889D01*
X136231529Y-134355412D01*
X135756076Y-134356610D01*
X135365654Y-134358762D01*
X135051888Y-134362148D01*
X134806402Y-134367047D01*
X134620822Y-134373738D01*
X134486771Y-134382500D01*
X134395873Y-134393612D01*
X134339755Y-134407354D01*
X134310040Y-134424005D01*
X134298353Y-134443844D01*
X134296319Y-134467150D01*
X134277848Y-134539804D01*
X134183929Y-134579540D01*
X134168197Y-134580122D01*
X134144491Y-134587860D01*
X134125017Y-134612347D01*
X134109358Y-134663147D01*
X134097098Y-134749823D01*
X134087822Y-134881941D01*
X134081115Y-135069064D01*
X134076559Y-135320756D01*
X134073739Y-135646581D01*
X134072240Y-136056103D01*
X134071646Y-136558886D01*
X134071540Y-137164495D01*
X132722870Y-137164495D01*
X132722871Y-137108977D01*
X132722987Y-136387293D01*
X132723434Y-135767509D01*
X132724434Y-135241871D01*
X132726208Y-134802623D01*
X132728977Y-134442011D01*
X132732963Y-134152281D01*
X132738388Y-133925679D01*
X132745474Y-133754449D01*
X132754441Y-133630838D01*
X132765511Y-133547090D01*
X132778906Y-133495451D01*
X132794848Y-133468167D01*
X132813557Y-133457484D01*
X132835257Y-133455646D01*
X132907910Y-133437175D01*
X132947646Y-133343256D01*
X132966117Y-133270603D01*
X133060035Y-133230867D01*
X133132689Y-133212396D01*
X133172425Y-133118478D01*
X133172545Y-133110775D01*
X133176365Y-133091358D01*
X133191020Y-133074504D01*
X133223763Y-133060031D01*
X133281848Y-133047758D01*
X133372530Y-133037503D01*
X133503062Y-133029086D01*
X133680697Y-133022325D01*
X133912691Y-133017039D01*
X134206297Y-133013045D01*
X134568768Y-133010164D01*
X135007359Y-133008213D01*
X135529324Y-133007011D01*
X136141917Y-133006378D01*
X136852391Y-133006130D01*
X137668000Y-133006088D01*
X137976091Y-133006091D01*
X138752773Y-133006187D01*
X139426947Y-133006553D01*
X140005868Y-133007372D01*
X140496789Y-133008824D01*
X140906965Y-133011091D01*
X141243649Y-133014354D01*
X141514095Y-133018795D01*
X141725557Y-133024595D01*
X141885290Y-133031935D01*
X142000546Y-133040997D01*
X142078580Y-133051962D01*
X142126647Y-133065011D01*
X142151998Y-133080325D01*
X142161890Y-133098087D01*
X142163575Y-133118478D01*
X142182046Y-133191131D01*
X142275965Y-133230867D01*
X142348618Y-133249338D01*
X142388354Y-133343256D01*
X142406825Y-133415910D01*
X142500743Y-133455646D01*
X142509871Y-133455820D01*
X142530270Y-133460285D01*
X142547789Y-133476690D01*
X142562647Y-133512759D01*
X142575062Y-133576221D01*
X142585255Y-133674803D01*
X142593444Y-133816232D01*
X142599849Y-134008233D01*
X142604688Y-134258536D01*
X142608182Y-134574866D01*
X142610549Y-134964950D01*
X142612008Y-135436516D01*
X142612779Y-135997290D01*
X142613081Y-136654999D01*
X142613116Y-137164495D01*
X142613133Y-137417371D01*
X142613133Y-137439883D01*
X142612839Y-138213966D01*
X142611890Y-138883040D01*
X142610146Y-139454292D01*
X142607466Y-139934907D01*
X142603708Y-140332068D01*
X142598732Y-140652963D01*
X142592397Y-140904776D01*
X142589057Y-140985734D01*
X142584561Y-141094692D01*
X142575084Y-141229897D01*
G37*
G36*
X138011187Y-136377816D02*
G01*
X138060330Y-136387497D01*
X138091470Y-136428186D01*
X138108675Y-136520224D01*
X138116015Y-136683953D01*
X138117558Y-136939717D01*
X138117548Y-136969812D01*
X138115612Y-137215525D01*
X138107474Y-137371224D01*
X138089067Y-137457252D01*
X138056321Y-137493951D01*
X138005168Y-137501663D01*
X137932514Y-137520134D01*
X137892779Y-137614053D01*
X137880053Y-137678924D01*
X137815058Y-137717017D01*
X137668000Y-137726442D01*
X137538258Y-137720079D01*
X137462071Y-137687582D01*
X137443221Y-137614053D01*
X137455948Y-137549182D01*
X137520942Y-137511088D01*
X137668000Y-137501663D01*
X137892779Y-137501663D01*
X137892779Y-137052106D01*
X137668000Y-137052106D01*
X137538258Y-137045743D01*
X137462071Y-137013246D01*
X137443221Y-136939717D01*
X137455948Y-136874846D01*
X137520942Y-136836752D01*
X137668000Y-136827327D01*
X137892779Y-136827327D01*
X137892779Y-136602548D01*
X137899142Y-136472807D01*
X137931639Y-136396619D01*
X138005168Y-136377770D01*
X138011187Y-136377816D01*
G37*
G36*
X137780389Y-139299894D02*
G01*
X137631051Y-139297827D01*
X137509566Y-139284194D01*
X137455524Y-139250276D01*
X137443221Y-139187504D01*
X137424751Y-139114850D01*
X137330832Y-139075115D01*
X137443221Y-139075115D01*
X137892779Y-139075115D01*
X137892779Y-138625557D01*
X137443221Y-138625557D01*
X137443221Y-139075115D01*
X137330832Y-139075115D01*
X137265961Y-139062389D01*
X137227867Y-138997394D01*
X137218443Y-138850336D01*
X137224806Y-138720594D01*
X137257303Y-138644407D01*
X137330832Y-138625557D01*
X137403486Y-138607086D01*
X137443221Y-138513168D01*
X137455948Y-138448297D01*
X137520942Y-138410203D01*
X137668000Y-138400778D01*
X137892779Y-138400778D01*
X137892779Y-138176000D01*
X137899142Y-138046258D01*
X137931639Y-137970071D01*
X138005168Y-137951221D01*
X138038256Y-137953617D01*
X138075082Y-137974986D01*
X138098321Y-138034240D01*
X138111077Y-138150003D01*
X138116455Y-138340901D01*
X138117558Y-138625557D01*
X138117558Y-139299894D01*
X137780389Y-139299894D01*
G37*
%TO.C,C1*%
X158413000Y-136601252D02*
X158413000Y-135178748D01*
X160233000Y-136601252D02*
X160233000Y-135178748D01*
%TO.C,C5*%
X108352000Y-133299252D02*
X108352000Y-131876748D01*
X106532000Y-133299252D02*
X106532000Y-131876748D01*
%TO.C,C4*%
X108860000Y-121615252D02*
X108860000Y-120192748D01*
X107040000Y-121615252D02*
X107040000Y-120192748D01*
%TD*%
M02*
