M48
; DRILL file {KiCad (6.0.5)} date Sun Nov 13 19:37:52 2022
; FORMAT={-:-/ absolute / inch / decimal}
; #@! TF.CreationDate,2022-11-13T19:37:52-06:00
; #@! TF.GenerationSoftware,Kicad,Pcbnew,(6.0.5)
; #@! TF.FileFunction,Plated,1,2,PTH
FMAT,2
INCH
; #@! TA.AperFunction,Plated,PTH,ViaDrill
T1C0.0118
; #@! TA.AperFunction,Plated,PTH,ComponentDrill
T2C0.0354
; #@! TA.AperFunction,Plated,PTH,ComponentDrill
T3C0.0394
; #@! TA.AperFunction,Plated,PTH,ComponentDrill
T4C0.0402
%
G90
G05
T1
X4.19Y-4.69
X4.26Y-5.02
X4.27Y-4.76
X4.29Y-5.18
X4.32Y-4.69
X4.32Y-5.14
X4.37Y-4.69
X4.37Y-5.14
X4.42Y-4.69
X4.42Y-5.14
X4.47Y-4.69
X4.47Y-5.14
X4.52Y-4.69
X4.52Y-5.14
X4.57Y-4.69
X4.57Y-5.14
X4.62Y-4.69
X4.62Y-5.14
X4.66Y-5.19
X4.67Y-4.69
X4.67Y-5.14
X4.6963Y-5.3563
X4.71Y-4.82
X4.72Y-4.9
X4.89Y-5.19
X4.89Y-5.24
X5.09Y-5.26
X5.28Y-5.25
X5.52Y-5.42
X5.61Y-5.52
X5.65Y-5.5
X5.66Y-5.56
X5.78Y-5.33
X5.79Y-4.48
X5.825Y-4.105
X5.85Y-5.28
X5.85Y-5.38
X5.86Y-5.47
X5.94Y-4.48
X5.98Y-5.33
X5.98Y-5.39
X5.98Y-5.43
X5.99Y-5.58
X6.01Y-4.66
X6.06Y-4.48
X6.06Y-4.71
X6.13Y-5.53
X6.13Y-5.56
X6.1526Y-5.58
X6.21Y-5.28
X6.2126Y-5.33
X6.2126Y-5.48
X6.28Y-5.67
X6.29Y-5.61
X6.41Y-5.31
X6.42Y-5.61
X6.66Y-5.37
X6.67Y-5.55
X6.72Y-5.41
X6.72Y-5.49
X6.85Y-5.36
X6.91Y-5.38
X6.96Y-4.85
X7.02Y-4.44
X7.03Y-4.67
X7.08Y-5.5
X7.11Y-4.73
X7.235Y-5.12
X7.34Y-5.6
T2
X7.235Y-4.74
X7.235Y-4.84
X7.24Y-4.2998
X7.24Y-4.3998
X7.24Y-4.51
X7.24Y-4.61
T3
X4.25Y-4.46
X4.35Y-4.46
X4.45Y-4.29
X4.45Y-4.46
X4.55Y-4.29
X4.55Y-4.46
X4.65Y-4.29
X4.65Y-4.46
T4
X4.92Y-4.31
X4.92Y-5.01
X5.02Y-4.31
X5.02Y-5.01
X5.12Y-4.31
X5.12Y-5.01
X5.22Y-4.31
X5.22Y-5.01
X5.32Y-4.31
X5.32Y-5.01
X5.42Y-4.31
X5.42Y-5.01
X5.52Y-4.31
X5.52Y-5.01
X5.62Y-4.31
X5.62Y-5.01
X5.72Y-4.31
X5.72Y-5.01
X5.82Y-4.31
X5.82Y-5.01
X5.92Y-4.31
X5.92Y-5.01
X6.02Y-4.31
X6.02Y-5.01
X6.12Y-4.31
X6.12Y-5.01
X6.22Y-4.31
X6.22Y-5.01
X6.32Y-4.31
X6.32Y-5.01
X6.42Y-4.31
X6.42Y-5.01
X6.52Y-4.31
X6.52Y-5.01
X6.62Y-4.31
X6.62Y-5.01
X6.72Y-4.31
X6.72Y-5.01
X6.8109Y-4.56
X6.8109Y-4.66
X6.8109Y-4.76
X6.82Y-4.31
X6.82Y-5.01
T0
M30
