M48
; DRILL file {KiCad (6.0.5)} date Sat Nov 12 13:49:20 2022
; FORMAT={-:-/ absolute / inch / decimal}
; #@! TF.CreationDate,2022-11-12T13:49:20-06:00
; #@! TF.GenerationSoftware,Kicad,Pcbnew,(6.0.5)
; #@! TF.FileFunction,Plated,1,2,PTH
FMAT,2
INCH
; #@! TA.AperFunction,Plated,PTH,ViaDrill
T1C0.0118
; #@! TA.AperFunction,Plated,PTH,ComponentDrill
T2C0.0394
; #@! TA.AperFunction,Plated,PTH,ComponentDrill
T3C0.0433
%
G90
G05
T1
X3.62Y-5.03
T2
X3.31Y-5.13
X3.41Y-5.13
X3.51Y-5.13
X3.61Y-5.13
X3.61Y-5.33
X3.71Y-5.13
X3.71Y-5.33
X3.81Y-5.13
X3.81Y-5.33
X3.91Y-5.13
X3.91Y-5.33
X4.01Y-5.13
X4.01Y-5.33
T3
X3.3414Y-4.562
X3.3414Y-4.818
X3.5186Y-4.562
X3.5186Y-4.818
X3.5914Y-4.122
X3.5914Y-4.378
X3.7686Y-4.122
X3.7686Y-4.378
X3.8414Y-4.562
X3.8414Y-4.818
X4.0186Y-4.562
X4.0186Y-4.818
T0
M30
