%TF.GenerationSoftware,KiCad,Pcbnew,(6.0.5)*%
%TF.CreationDate,2022-06-17T21:55:06-05:00*%
%TF.ProjectId,ISA card rev2,49534120-6361-4726-9420-726576322e6b,rev?*%
%TF.SameCoordinates,Original*%
%TF.FileFunction,Soldermask,Bot*%
%TF.FilePolarity,Negative*%
%FSLAX46Y46*%
G04 Gerber Fmt 4.6, Leading zero omitted, Abs format (unit mm)*
G04 Created by KiCad (PCBNEW (6.0.5)) date 2022-06-17 21:55:06*
%MOMM*%
%LPD*%
G01*
G04 APERTURE LIST*
%ADD10O,1.700000X1.700000*%
%ADD11R,1.700000X1.700000*%
%ADD12O,1.500000X1.500000*%
%ADD13O,1.800000X1.800000*%
%ADD14C,2.000000*%
%ADD15R,1.780000X7.620000*%
%ADD16R,1.800000X1.800000*%
%ADD17C,1.800000*%
G04 APERTURE END LIST*
D10*
%TO.C,U5*%
X149630000Y-101600000D03*
D11*
X149630000Y-104140000D03*
D10*
X149630000Y-106680000D03*
X101600000Y-95250000D03*
X104140000Y-95250000D03*
D11*
X106680000Y-95250000D03*
D10*
X109220000Y-95250000D03*
X111760000Y-95250000D03*
X114300000Y-95250000D03*
X116840000Y-95250000D03*
D11*
X119380000Y-95250000D03*
D10*
X121920000Y-95250000D03*
X124460000Y-95250000D03*
X127000000Y-95250000D03*
X129540000Y-95250000D03*
D11*
X132080000Y-95250000D03*
D10*
X134620000Y-95250000D03*
X137160000Y-95250000D03*
X139700000Y-95250000D03*
X142240000Y-95250000D03*
D11*
X144780000Y-95250000D03*
D10*
X147320000Y-95250000D03*
X149860000Y-95250000D03*
X149860000Y-113030000D03*
X147320000Y-113030000D03*
D11*
X144780000Y-113030000D03*
D10*
X142240000Y-113030000D03*
X139700000Y-113030000D03*
X137160000Y-113030000D03*
X134620000Y-113030000D03*
D11*
X132080000Y-113030000D03*
D10*
X129540000Y-113030000D03*
X127000000Y-113030000D03*
X124460000Y-113030000D03*
X121920000Y-113030000D03*
D11*
X119380000Y-113030000D03*
D10*
X116840000Y-113030000D03*
X114300000Y-113030000D03*
X111760000Y-113030000D03*
X109220000Y-113030000D03*
D11*
X106680000Y-113030000D03*
D10*
X104140000Y-113030000D03*
X101600000Y-113030000D03*
D12*
X104760000Y-101715000D03*
X104760000Y-106565000D03*
D13*
X101730000Y-106865000D03*
X101730000Y-101415000D03*
%TD*%
D14*
%TO.C,SW3*%
X169395000Y-72335000D03*
X175895000Y-72335000D03*
X169395000Y-76835000D03*
X175895000Y-76835000D03*
%TD*%
%TO.C,SW2*%
X158600000Y-77415000D03*
X165100000Y-77415000D03*
X158600000Y-81915000D03*
X165100000Y-81915000D03*
%TD*%
%TO.C,SW1*%
X165100000Y-70485000D03*
X158600000Y-70485000D03*
X165100000Y-65985000D03*
X158600000Y-65985000D03*
%TD*%
D10*
%TO.C,J5*%
X175895000Y-108565000D03*
X175895000Y-111105000D03*
D11*
X175895000Y-113645000D03*
%TD*%
%TO.C,J4*%
X140870000Y-82810000D03*
D10*
X140870000Y-80270000D03*
X140870000Y-77730000D03*
X140870000Y-75190000D03*
X140870000Y-72650000D03*
%TD*%
D11*
%TO.C,J3*%
X147295000Y-65075000D03*
D10*
X147295000Y-67615000D03*
X147295000Y-70155000D03*
X147295000Y-72695000D03*
X147295000Y-75235000D03*
X147295000Y-77775000D03*
X147295000Y-80315000D03*
X147295000Y-82855000D03*
%TD*%
%TO.C,J2*%
X175895000Y-95880000D03*
X175895000Y-98420000D03*
X175895000Y-100960000D03*
X175895000Y-103500000D03*
D11*
X175895000Y-106040000D03*
%TD*%
D15*
%TO.C,J1*%
X178440000Y-144145000D03*
X175900000Y-144145000D03*
X173360000Y-144145000D03*
X170820000Y-144145000D03*
X168280000Y-144145000D03*
X165740000Y-144145000D03*
X163200000Y-144145000D03*
X160660000Y-144145000D03*
X158120000Y-144145000D03*
X155580000Y-144145000D03*
X153040000Y-144145000D03*
X150500000Y-144145000D03*
X147960000Y-144145000D03*
X145420000Y-144145000D03*
X142880000Y-144145000D03*
X140340000Y-144145000D03*
X137800000Y-144145000D03*
X135260000Y-144145000D03*
X132720000Y-144145000D03*
X130180000Y-144145000D03*
X127640000Y-144145000D03*
X125100000Y-144145000D03*
X122560000Y-144145000D03*
X120020000Y-144145000D03*
X117480000Y-144145000D03*
X114940000Y-144145000D03*
X112400000Y-144145000D03*
X109860000Y-144145000D03*
X107320000Y-144145000D03*
X104780000Y-144145000D03*
X102240000Y-144145000D03*
%TD*%
D16*
%TO.C,D4*%
X165735000Y-95255000D03*
D17*
X165735000Y-92715000D03*
%TD*%
D16*
%TO.C,D1*%
X157480000Y-92705000D03*
D17*
X157480000Y-95245000D03*
%TD*%
M02*
