%TF.GenerationSoftware,KiCad,Pcbnew,(6.0.5)*%
%TF.CreationDate,2022-06-17T21:55:06-05:00*%
%TF.ProjectId,ISA card rev2,49534120-6361-4726-9420-726576322e6b,rev?*%
%TF.SameCoordinates,Original*%
%TF.FileFunction,Soldermask,Top*%
%TF.FilePolarity,Negative*%
%FSLAX46Y46*%
G04 Gerber Fmt 4.6, Leading zero omitted, Abs format (unit mm)*
G04 Created by KiCad (PCBNEW (6.0.5)) date 2022-06-17 21:55:06*
%MOMM*%
%LPD*%
G01*
G04 APERTURE LIST*
G04 Aperture macros list*
%AMRoundRect*
0 Rectangle with rounded corners*
0 $1 Rounding radius*
0 $2 $3 $4 $5 $6 $7 $8 $9 X,Y pos of 4 corners*
0 Add a 4 corners polygon primitive as box body*
4,1,4,$2,$3,$4,$5,$6,$7,$8,$9,$2,$3,0*
0 Add four circle primitives for the rounded corners*
1,1,$1+$1,$2,$3*
1,1,$1+$1,$4,$5*
1,1,$1+$1,$6,$7*
1,1,$1+$1,$8,$9*
0 Add four rect primitives between the rounded corners*
20,1,$1+$1,$2,$3,$4,$5,0*
20,1,$1+$1,$4,$5,$6,$7,0*
20,1,$1+$1,$6,$7,$8,$9,0*
20,1,$1+$1,$8,$9,$2,$3,0*%
G04 Aperture macros list end*
%ADD10RoundRect,0.150000X-0.150000X0.825000X-0.150000X-0.825000X0.150000X-0.825000X0.150000X0.825000X0*%
%ADD11R,3.500000X1.700000*%
%ADD12O,1.700000X1.700000*%
%ADD13R,1.700000X1.700000*%
%ADD14R,1.700000X3.500000*%
%ADD15O,1.500000X1.500000*%
%ADD16O,1.800000X1.800000*%
%ADD17RoundRect,0.250000X0.400000X0.625000X-0.400000X0.625000X-0.400000X-0.625000X0.400000X-0.625000X0*%
%ADD18RoundRect,0.250000X0.625000X-0.400000X0.625000X0.400000X-0.625000X0.400000X-0.625000X-0.400000X0*%
%ADD19RoundRect,0.250000X-0.625000X0.400000X-0.625000X-0.400000X0.625000X-0.400000X0.625000X0.400000X0*%
%ADD20RoundRect,0.150000X0.150000X-0.837500X0.150000X0.837500X-0.150000X0.837500X-0.150000X-0.837500X0*%
%ADD21C,2.000000*%
%ADD22R,1.780000X7.620000*%
%ADD23R,1.800000X1.800000*%
%ADD24C,1.800000*%
G04 APERTURE END LIST*
D10*
%TO.C,U1*%
X152400000Y-134620000D03*
X151130000Y-134620000D03*
X149860000Y-134620000D03*
X148590000Y-134620000D03*
X147320000Y-134620000D03*
X146050000Y-134620000D03*
X144780000Y-134620000D03*
X144780000Y-129670000D03*
X146050000Y-129670000D03*
X147320000Y-129670000D03*
X148590000Y-129670000D03*
X149860000Y-129670000D03*
X151130000Y-129670000D03*
X152400000Y-129670000D03*
%TD*%
D11*
%TO.C,U5*%
X150530000Y-101600000D03*
D12*
X149630000Y-101600000D03*
D11*
X150530000Y-104140000D03*
D13*
X149630000Y-104140000D03*
D12*
X149630000Y-106680000D03*
D11*
X150530000Y-106680000D03*
D14*
X101600000Y-94350000D03*
D12*
X101600000Y-95250000D03*
X104140000Y-95250000D03*
D14*
X104140000Y-94350000D03*
D13*
X106680000Y-95250000D03*
D14*
X106680000Y-94350000D03*
D12*
X109220000Y-95250000D03*
D14*
X109220000Y-94350000D03*
X111760000Y-94350000D03*
D12*
X111760000Y-95250000D03*
X114300000Y-95250000D03*
D14*
X114300000Y-94350000D03*
D12*
X116840000Y-95250000D03*
D14*
X116840000Y-94350000D03*
D13*
X119380000Y-95250000D03*
D14*
X119380000Y-94350000D03*
X121920000Y-94350000D03*
D12*
X121920000Y-95250000D03*
D14*
X124460000Y-94350000D03*
D12*
X124460000Y-95250000D03*
X127000000Y-95250000D03*
D14*
X127000000Y-94350000D03*
X129540000Y-94350000D03*
D12*
X129540000Y-95250000D03*
D14*
X132080000Y-94350000D03*
D13*
X132080000Y-95250000D03*
D14*
X134620000Y-94350000D03*
D12*
X134620000Y-95250000D03*
X137160000Y-95250000D03*
D14*
X137160000Y-94350000D03*
D12*
X139700000Y-95250000D03*
D14*
X139700000Y-94350000D03*
X142240000Y-94350000D03*
D12*
X142240000Y-95250000D03*
D13*
X144780000Y-95250000D03*
D14*
X144780000Y-94350000D03*
D12*
X147320000Y-95250000D03*
D14*
X147320000Y-94350000D03*
D12*
X149860000Y-95250000D03*
D14*
X149860000Y-94350000D03*
D12*
X149860000Y-113030000D03*
D14*
X149860000Y-113930000D03*
X147320000Y-113930000D03*
D12*
X147320000Y-113030000D03*
D13*
X144780000Y-113030000D03*
D14*
X144780000Y-113930000D03*
D12*
X142240000Y-113030000D03*
D14*
X142240000Y-113930000D03*
D12*
X139700000Y-113030000D03*
D14*
X139700000Y-113930000D03*
X137160000Y-113930000D03*
D12*
X137160000Y-113030000D03*
X134620000Y-113030000D03*
D14*
X134620000Y-113930000D03*
X132080000Y-113930000D03*
D13*
X132080000Y-113030000D03*
D14*
X129540000Y-113930000D03*
D12*
X129540000Y-113030000D03*
X127000000Y-113030000D03*
D14*
X127000000Y-113930000D03*
X124460000Y-113930000D03*
D12*
X124460000Y-113030000D03*
X121920000Y-113030000D03*
D14*
X121920000Y-113930000D03*
X119380000Y-113930000D03*
D13*
X119380000Y-113030000D03*
D12*
X116840000Y-113030000D03*
D14*
X116840000Y-113930000D03*
X114300000Y-113930000D03*
D12*
X114300000Y-113030000D03*
D14*
X111760000Y-113930000D03*
D12*
X111760000Y-113030000D03*
D14*
X109220000Y-113930000D03*
D12*
X109220000Y-113030000D03*
D13*
X106680000Y-113030000D03*
D14*
X106680000Y-113930000D03*
X104140000Y-113930000D03*
D12*
X104140000Y-113030000D03*
D14*
X101600000Y-113930000D03*
D12*
X101600000Y-113030000D03*
D15*
X104760000Y-101715000D03*
X104760000Y-106565000D03*
D16*
X101730000Y-106865000D03*
X101730000Y-101415000D03*
%TD*%
D17*
%TO.C,R13*%
X153875000Y-77760000D03*
X150775000Y-77760000D03*
%TD*%
D18*
%TO.C,R12*%
X156845000Y-110770000D03*
X156845000Y-107670000D03*
%TD*%
%TO.C,R11*%
X156845000Y-117120000D03*
X156845000Y-114020000D03*
%TD*%
%TO.C,R10*%
X161925000Y-110770000D03*
X161925000Y-107670000D03*
%TD*%
%TO.C,R9*%
X161925000Y-117120000D03*
X161925000Y-114020000D03*
%TD*%
D19*
%TO.C,R8*%
X104140000Y-134340000D03*
X104140000Y-137440000D03*
%TD*%
%TO.C,R7*%
X109220000Y-134340000D03*
X109220000Y-137440000D03*
%TD*%
%TO.C,R6*%
X114300000Y-134340000D03*
X114300000Y-137440000D03*
%TD*%
%TO.C,R5*%
X119380000Y-134340000D03*
X119380000Y-137440000D03*
%TD*%
D18*
%TO.C,R4*%
X167005000Y-110770000D03*
X167005000Y-107670000D03*
%TD*%
%TO.C,R3*%
X165735000Y-102515000D03*
X165735000Y-99415000D03*
%TD*%
%TO.C,R2*%
X167005000Y-117120000D03*
X167005000Y-114020000D03*
%TD*%
D19*
%TO.C,R1*%
X157480000Y-102515000D03*
X157480000Y-99415000D03*
%TD*%
D20*
%TO.C,U4*%
X106045000Y-130462500D03*
X107315000Y-130462500D03*
X108585000Y-130462500D03*
X109855000Y-130462500D03*
X111125000Y-130462500D03*
X112395000Y-130462500D03*
X113665000Y-130462500D03*
X114935000Y-130462500D03*
X116205000Y-130462500D03*
X117475000Y-130462500D03*
X117475000Y-123537500D03*
X116205000Y-123537500D03*
X114935000Y-123537500D03*
X113665000Y-123537500D03*
X112395000Y-123537500D03*
X111125000Y-123537500D03*
X109855000Y-123537500D03*
X108585000Y-123537500D03*
X107315000Y-123537500D03*
X106045000Y-123537500D03*
%TD*%
%TO.C,U3*%
X127000000Y-136812500D03*
X128270000Y-136812500D03*
X129540000Y-136812500D03*
X130810000Y-136812500D03*
X132080000Y-136812500D03*
X133350000Y-136812500D03*
X134620000Y-136812500D03*
X135890000Y-136812500D03*
X137160000Y-136812500D03*
X138430000Y-136812500D03*
X138430000Y-129887500D03*
X137160000Y-129887500D03*
X135890000Y-129887500D03*
X134620000Y-129887500D03*
X133350000Y-129887500D03*
X132080000Y-129887500D03*
X130810000Y-129887500D03*
X129540000Y-129887500D03*
X128270000Y-129887500D03*
X127000000Y-129887500D03*
%TD*%
%TO.C,U2*%
X158750000Y-129887500D03*
X160020000Y-129887500D03*
X161290000Y-129887500D03*
X162560000Y-129887500D03*
X163830000Y-129887500D03*
X165100000Y-129887500D03*
X166370000Y-129887500D03*
X167640000Y-129887500D03*
X168910000Y-129887500D03*
X170180000Y-129887500D03*
X170180000Y-136812500D03*
X168910000Y-136812500D03*
X167640000Y-136812500D03*
X166370000Y-136812500D03*
X165100000Y-136812500D03*
X163830000Y-136812500D03*
X162560000Y-136812500D03*
X161290000Y-136812500D03*
X160020000Y-136812500D03*
X158750000Y-136812500D03*
%TD*%
D21*
%TO.C,SW3*%
X169395000Y-72335000D03*
X175895000Y-72335000D03*
X169395000Y-76835000D03*
X175895000Y-76835000D03*
%TD*%
%TO.C,SW2*%
X158600000Y-77415000D03*
X165100000Y-77415000D03*
X158600000Y-81915000D03*
X165100000Y-81915000D03*
%TD*%
%TO.C,SW1*%
X165100000Y-70485000D03*
X158600000Y-70485000D03*
X165100000Y-65985000D03*
X158600000Y-65985000D03*
%TD*%
D12*
%TO.C,J5*%
X175895000Y-108565000D03*
X175895000Y-111105000D03*
D13*
X175895000Y-113645000D03*
%TD*%
%TO.C,J4*%
X140870000Y-82810000D03*
D12*
X140870000Y-80270000D03*
X140870000Y-77730000D03*
X140870000Y-75190000D03*
X140870000Y-72650000D03*
%TD*%
D13*
%TO.C,J3*%
X147295000Y-65075000D03*
D12*
X147295000Y-67615000D03*
X147295000Y-70155000D03*
X147295000Y-72695000D03*
X147295000Y-75235000D03*
X147295000Y-77775000D03*
X147295000Y-80315000D03*
X147295000Y-82855000D03*
%TD*%
%TO.C,J2*%
X175895000Y-95880000D03*
X175895000Y-98420000D03*
X175895000Y-100960000D03*
X175895000Y-103500000D03*
D13*
X175895000Y-106040000D03*
%TD*%
D22*
%TO.C,J1*%
X178440000Y-144145000D03*
X175900000Y-144145000D03*
X173360000Y-144145000D03*
X170820000Y-144145000D03*
X168280000Y-144145000D03*
X165740000Y-144145000D03*
X163200000Y-144145000D03*
X160660000Y-144145000D03*
X158120000Y-144145000D03*
X155580000Y-144145000D03*
X153040000Y-144145000D03*
X150500000Y-144145000D03*
X147960000Y-144145000D03*
X145420000Y-144145000D03*
X142880000Y-144145000D03*
X140340000Y-144145000D03*
X137800000Y-144145000D03*
X135260000Y-144145000D03*
X132720000Y-144145000D03*
X130180000Y-144145000D03*
X127640000Y-144145000D03*
X125100000Y-144145000D03*
X122560000Y-144145000D03*
X120020000Y-144145000D03*
X117480000Y-144145000D03*
X114940000Y-144145000D03*
X112400000Y-144145000D03*
X109860000Y-144145000D03*
X107320000Y-144145000D03*
X104780000Y-144145000D03*
X102240000Y-144145000D03*
%TD*%
D23*
%TO.C,D4*%
X165735000Y-95255000D03*
D24*
X165735000Y-92715000D03*
%TD*%
D23*
%TO.C,D1*%
X157480000Y-92705000D03*
D24*
X157480000Y-95245000D03*
%TD*%
M02*
