%TF.GenerationSoftware,KiCad,Pcbnew,(6.0.5)*%
%TF.CreationDate,2022-06-17T21:55:06-05:00*%
%TF.ProjectId,ISA card rev2,49534120-6361-4726-9420-726576322e6b,rev?*%
%TF.SameCoordinates,Original*%
%TF.FileFunction,Paste,Top*%
%TF.FilePolarity,Positive*%
%FSLAX46Y46*%
G04 Gerber Fmt 4.6, Leading zero omitted, Abs format (unit mm)*
G04 Created by KiCad (PCBNEW (6.0.5)) date 2022-06-17 21:55:06*
%MOMM*%
%LPD*%
G01*
G04 APERTURE LIST*
G04 Aperture macros list*
%AMRoundRect*
0 Rectangle with rounded corners*
0 $1 Rounding radius*
0 $2 $3 $4 $5 $6 $7 $8 $9 X,Y pos of 4 corners*
0 Add a 4 corners polygon primitive as box body*
4,1,4,$2,$3,$4,$5,$6,$7,$8,$9,$2,$3,0*
0 Add four circle primitives for the rounded corners*
1,1,$1+$1,$2,$3*
1,1,$1+$1,$4,$5*
1,1,$1+$1,$6,$7*
1,1,$1+$1,$8,$9*
0 Add four rect primitives between the rounded corners*
20,1,$1+$1,$2,$3,$4,$5,0*
20,1,$1+$1,$4,$5,$6,$7,0*
20,1,$1+$1,$6,$7,$8,$9,0*
20,1,$1+$1,$8,$9,$2,$3,0*%
G04 Aperture macros list end*
%ADD10RoundRect,0.150000X-0.150000X0.825000X-0.150000X-0.825000X0.150000X-0.825000X0.150000X0.825000X0*%
%ADD11RoundRect,0.250000X0.400000X0.625000X-0.400000X0.625000X-0.400000X-0.625000X0.400000X-0.625000X0*%
%ADD12RoundRect,0.250000X0.625000X-0.400000X0.625000X0.400000X-0.625000X0.400000X-0.625000X-0.400000X0*%
%ADD13RoundRect,0.250000X-0.625000X0.400000X-0.625000X-0.400000X0.625000X-0.400000X0.625000X0.400000X0*%
%ADD14RoundRect,0.150000X0.150000X-0.837500X0.150000X0.837500X-0.150000X0.837500X-0.150000X-0.837500X0*%
G04 APERTURE END LIST*
D10*
%TO.C,U1*%
X152400000Y-134620000D03*
X151130000Y-134620000D03*
X149860000Y-134620000D03*
X148590000Y-134620000D03*
X147320000Y-134620000D03*
X146050000Y-134620000D03*
X144780000Y-134620000D03*
X144780000Y-129670000D03*
X146050000Y-129670000D03*
X147320000Y-129670000D03*
X148590000Y-129670000D03*
X149860000Y-129670000D03*
X151130000Y-129670000D03*
X152400000Y-129670000D03*
%TD*%
D11*
%TO.C,R13*%
X153875000Y-77760000D03*
X150775000Y-77760000D03*
%TD*%
D12*
%TO.C,R12*%
X156845000Y-110770000D03*
X156845000Y-107670000D03*
%TD*%
%TO.C,R11*%
X156845000Y-117120000D03*
X156845000Y-114020000D03*
%TD*%
%TO.C,R10*%
X161925000Y-110770000D03*
X161925000Y-107670000D03*
%TD*%
%TO.C,R9*%
X161925000Y-117120000D03*
X161925000Y-114020000D03*
%TD*%
D13*
%TO.C,R8*%
X104140000Y-134340000D03*
X104140000Y-137440000D03*
%TD*%
%TO.C,R7*%
X109220000Y-134340000D03*
X109220000Y-137440000D03*
%TD*%
%TO.C,R6*%
X114300000Y-134340000D03*
X114300000Y-137440000D03*
%TD*%
%TO.C,R5*%
X119380000Y-134340000D03*
X119380000Y-137440000D03*
%TD*%
D12*
%TO.C,R4*%
X167005000Y-110770000D03*
X167005000Y-107670000D03*
%TD*%
%TO.C,R3*%
X165735000Y-102515000D03*
X165735000Y-99415000D03*
%TD*%
%TO.C,R2*%
X167005000Y-117120000D03*
X167005000Y-114020000D03*
%TD*%
D13*
%TO.C,R1*%
X157480000Y-102515000D03*
X157480000Y-99415000D03*
%TD*%
D14*
%TO.C,U4*%
X106045000Y-130462500D03*
X107315000Y-130462500D03*
X108585000Y-130462500D03*
X109855000Y-130462500D03*
X111125000Y-130462500D03*
X112395000Y-130462500D03*
X113665000Y-130462500D03*
X114935000Y-130462500D03*
X116205000Y-130462500D03*
X117475000Y-130462500D03*
X117475000Y-123537500D03*
X116205000Y-123537500D03*
X114935000Y-123537500D03*
X113665000Y-123537500D03*
X112395000Y-123537500D03*
X111125000Y-123537500D03*
X109855000Y-123537500D03*
X108585000Y-123537500D03*
X107315000Y-123537500D03*
X106045000Y-123537500D03*
%TD*%
%TO.C,U3*%
X127000000Y-136812500D03*
X128270000Y-136812500D03*
X129540000Y-136812500D03*
X130810000Y-136812500D03*
X132080000Y-136812500D03*
X133350000Y-136812500D03*
X134620000Y-136812500D03*
X135890000Y-136812500D03*
X137160000Y-136812500D03*
X138430000Y-136812500D03*
X138430000Y-129887500D03*
X137160000Y-129887500D03*
X135890000Y-129887500D03*
X134620000Y-129887500D03*
X133350000Y-129887500D03*
X132080000Y-129887500D03*
X130810000Y-129887500D03*
X129540000Y-129887500D03*
X128270000Y-129887500D03*
X127000000Y-129887500D03*
%TD*%
%TO.C,U2*%
X158750000Y-129887500D03*
X160020000Y-129887500D03*
X161290000Y-129887500D03*
X162560000Y-129887500D03*
X163830000Y-129887500D03*
X165100000Y-129887500D03*
X166370000Y-129887500D03*
X167640000Y-129887500D03*
X168910000Y-129887500D03*
X170180000Y-129887500D03*
X170180000Y-136812500D03*
X168910000Y-136812500D03*
X167640000Y-136812500D03*
X166370000Y-136812500D03*
X165100000Y-136812500D03*
X163830000Y-136812500D03*
X162560000Y-136812500D03*
X161290000Y-136812500D03*
X160020000Y-136812500D03*
X158750000Y-136812500D03*
%TD*%
M02*
