M48
; DRILL file {KiCad (6.0.5)} date Fri Jun 17 20:08:45 2022
; FORMAT={-:-/ absolute / inch / decimal}
; #@! TF.CreationDate,2022-06-17T20:08:45-05:00
; #@! TF.GenerationSoftware,Kicad,Pcbnew,(6.0.5)
; #@! TF.FileFunction,Plated,1,2,PTH
FMAT,2
INCH
; #@! TA.AperFunction,Plated,PTH,ViaDrill
T1C0.0118
; #@! TA.AperFunction,Plated,PTH,ComponentDrill
T2C0.0354
; #@! TA.AperFunction,Plated,PTH,ComponentDrill
T3C0.0394
; #@! TA.AperFunction,Plated,PTH,ComponentDrill
T4C0.0402
; #@! TA.AperFunction,Plated,PTH,ComponentDrill
T5C0.0433
%
G90
G05
T1
X3.98Y-5.18
X4.175Y-5.05
X4.25Y-4.925
X4.275Y-4.8
X4.325Y-4.8
X4.375Y-4.8
X4.425Y-4.8
X4.475Y-4.8
X4.525Y-4.8
X4.575Y-4.8
X4.625Y-4.925
X4.625Y-5.2
X4.95Y-5.125
X5.0Y-5.3
X5.1Y-4.875
X5.15Y-4.9
X5.2Y-4.925
X5.25Y-4.95
X5.3Y-4.975
X5.35Y-5.0
X5.4Y-5.025
X5.45Y-5.05
X5.5Y-3.925
X5.5Y-5.4
X5.55Y-5.025
X5.575Y-5.0
X5.6Y-3.925
X5.6Y-4.975
X5.625Y-4.95
X5.65Y-4.925
X5.65Y-5.125
X5.675Y-4.9
X5.7Y-4.875
X5.725Y-4.85
X5.725Y-5.175
X5.775Y-5.175
X5.94Y-5.36
X5.95Y-5.175
X6.05Y-5.125
X6.1Y-4.375
X6.125Y-5.45
X6.15Y-4.175
X6.175Y-4.675
X6.25Y-4.675
X6.3Y-4.35
X6.35Y-5.2
X6.375Y-4.675
X6.393Y-4.168
X6.5Y-4.225
X6.5Y-4.3
X6.575Y-4.675
X6.75Y-5.4
X6.88Y-5.38
X6.925Y-5.45
T2
X6.2Y-3.6498
X6.2Y-3.7498
X6.525Y-3.6502
X6.525Y-3.7502
T3
X5.5461Y-2.8602
X5.5461Y-2.9602
X5.5461Y-3.0602
X5.5461Y-3.1602
X5.5461Y-3.2602
X5.799Y-2.562
X5.799Y-2.662
X5.799Y-2.762
X5.799Y-2.862
X5.799Y-2.962
X5.799Y-3.062
X5.799Y-3.162
X5.799Y-3.262
X6.925Y-3.7748
X6.925Y-3.8748
X6.925Y-3.9748
X6.925Y-4.0748
X6.925Y-4.1748
X6.925Y-4.2742
X6.925Y-4.3742
X6.925Y-4.4742
T4
X4.0Y-3.75
X4.0Y-4.45
X4.1Y-3.75
X4.1Y-4.45
X4.2Y-3.75
X4.2Y-4.45
X4.3Y-3.75
X4.3Y-4.45
X4.4Y-3.75
X4.4Y-4.45
X4.5Y-3.75
X4.5Y-4.45
X4.6Y-3.75
X4.6Y-4.45
X4.7Y-3.75
X4.7Y-4.45
X4.8Y-3.75
X4.8Y-4.45
X4.9Y-3.75
X4.9Y-4.45
X5.0Y-3.75
X5.0Y-4.45
X5.1Y-3.75
X5.1Y-4.45
X5.2Y-3.75
X5.2Y-4.45
X5.3Y-3.75
X5.3Y-4.45
X5.4Y-3.75
X5.4Y-4.45
X5.5Y-3.75
X5.5Y-4.45
X5.6Y-3.75
X5.6Y-4.45
X5.7Y-3.75
X5.7Y-4.45
X5.8Y-3.75
X5.8Y-4.45
X5.8909Y-4.0
X5.8909Y-4.1
X5.8909Y-4.2
X5.9Y-3.75
X5.9Y-4.45
T5
X6.2441Y-2.5978
X6.2441Y-2.775
X6.2441Y-3.0478
X6.2441Y-3.225
X6.5Y-2.5978
X6.5Y-2.775
X6.5Y-3.0478
X6.5Y-3.225
X6.6691Y-2.8478
X6.6691Y-3.025
X6.925Y-2.8478
X6.925Y-3.025
T0
M30
