%TF.GenerationSoftware,KiCad,Pcbnew,(6.0.5)*%
%TF.CreationDate,2022-06-17T20:08:42-05:00*%
%TF.ProjectId,ISA card rev2,49534120-6361-4726-9420-726576322e6b,rev?*%
%TF.SameCoordinates,Original*%
%TF.FileFunction,Copper,L2,Bot*%
%TF.FilePolarity,Positive*%
%FSLAX46Y46*%
G04 Gerber Fmt 4.6, Leading zero omitted, Abs format (unit mm)*
G04 Created by KiCad (PCBNEW (6.0.5)) date 2022-06-17 20:08:42*
%MOMM*%
%LPD*%
G01*
G04 APERTURE LIST*
%TA.AperFunction,ComponentPad*%
%ADD10O,1.700000X1.700000*%
%TD*%
%TA.AperFunction,ComponentPad*%
%ADD11R,1.700000X1.700000*%
%TD*%
%TA.AperFunction,ComponentPad*%
%ADD12C,2.000000*%
%TD*%
%TA.AperFunction,ConnectorPad*%
%ADD13R,1.780000X7.620000*%
%TD*%
%TA.AperFunction,ComponentPad*%
%ADD14R,1.800000X1.800000*%
%TD*%
%TA.AperFunction,ComponentPad*%
%ADD15C,1.800000*%
%TD*%
%TA.AperFunction,ViaPad*%
%ADD16C,0.600000*%
%TD*%
%TA.AperFunction,Conductor*%
%ADD17C,0.200000*%
%TD*%
%TA.AperFunction,Conductor*%
%ADD18C,0.127000*%
%TD*%
G04 APERTURE END LIST*
D10*
%TO.P,U5,43,SWDIO*%
%TO.N,unconnected-(U5-Pad43)*%
X149630000Y-101600000D03*
D11*
%TO.P,U5,42,GND*%
%TO.N,unconnected-(U5-Pad42)*%
X149630000Y-104140000D03*
D10*
%TO.P,U5,41,SWCLK*%
%TO.N,unconnected-(U5-Pad41)*%
X149630000Y-106680000D03*
%TO.P,U5,40,VBUS*%
%TO.N,unconnected-(U5-Pad40)*%
X101600000Y-95250000D03*
%TO.P,U5,39,VSYS*%
%TO.N,+5V*%
X104140000Y-95250000D03*
D11*
%TO.P,U5,38,GND*%
%TO.N,GND*%
X106680000Y-95250000D03*
D10*
%TO.P,U5,37,3V3_EN*%
%TO.N,unconnected-(U5-Pad37)*%
X109220000Y-95250000D03*
%TO.P,U5,36,3V3*%
%TO.N,+3V3*%
X111760000Y-95250000D03*
%TO.P,U5,35,ADC_VREF*%
%TO.N,unconnected-(U5-Pad35)*%
X114300000Y-95250000D03*
%TO.P,U5,34,GPIO28_ADC2*%
%TO.N,/+12Vmon*%
X116840000Y-95250000D03*
D11*
%TO.P,U5,33,AGND*%
%TO.N,GND*%
X119380000Y-95250000D03*
D10*
%TO.P,U5,32,GPIO27_ADC1*%
%TO.N,/-5Vmon*%
X121920000Y-95250000D03*
%TO.P,U5,31,GPIO26_ADC0*%
%TO.N,/+5Vmon*%
X124460000Y-95250000D03*
%TO.P,U5,30,RUN*%
%TO.N,unconnected-(U5-Pad30)*%
X127000000Y-95250000D03*
%TO.P,U5,29,GPIO22*%
%TO.N,Net-(U5-Pad29)*%
X129540000Y-95250000D03*
D11*
%TO.P,U5,28,GND*%
%TO.N,GND*%
X132080000Y-95250000D03*
D10*
%TO.P,U5,27,GPIO21*%
%TO.N,Net-(U5-Pad27)*%
X134620000Y-95250000D03*
%TO.P,U5,26,GPIO20*%
%TO.N,Net-(U5-Pad26)*%
X137160000Y-95250000D03*
%TO.P,U5,25,GPIO19*%
%TO.N,/addr_byte*%
X139700000Y-95250000D03*
%TO.P,U5,24,GPIO18*%
%TO.N,/bus_ready*%
X142240000Y-95250000D03*
D11*
%TO.P,U5,23,GND*%
%TO.N,unconnected-(U5-Pad23)*%
X144780000Y-95250000D03*
D10*
%TO.P,U5,22,GPIO17*%
%TO.N,/PA7*%
X147320000Y-95250000D03*
%TO.P,U5,21,GPIO16*%
%TO.N,/PA6*%
X149860000Y-95250000D03*
%TO.P,U5,20,GPIO15*%
%TO.N,/PA5*%
X149860000Y-113030000D03*
%TO.P,U5,19,GPIO14*%
%TO.N,/PA4*%
X147320000Y-113030000D03*
D11*
%TO.P,U5,18,GND*%
%TO.N,GND*%
X144780000Y-113030000D03*
D10*
%TO.P,U5,17,GPIO13*%
%TO.N,/PA3*%
X142240000Y-113030000D03*
%TO.P,U5,16,GPIO12*%
%TO.N,/PA2*%
X139700000Y-113030000D03*
%TO.P,U5,15,GPIO11*%
%TO.N,/PA1*%
X137160000Y-113030000D03*
%TO.P,U5,14,GPIO10*%
%TO.N,/PA0*%
X134620000Y-113030000D03*
D11*
%TO.P,U5,13,GND*%
%TO.N,unconnected-(U5-Pad13)*%
X132080000Y-113030000D03*
D10*
%TO.P,U5,12,GPIO9*%
%TO.N,/PD7*%
X129540000Y-113030000D03*
%TO.P,U5,11,GPIO8*%
%TO.N,/PD6*%
X127000000Y-113030000D03*
%TO.P,U5,10,GPIO7*%
%TO.N,/PD5*%
X124460000Y-113030000D03*
%TO.P,U5,9,GPIO6*%
%TO.N,/PD4*%
X121920000Y-113030000D03*
D11*
%TO.P,U5,8,GND*%
%TO.N,unconnected-(U5-Pad8)*%
X119380000Y-113030000D03*
D10*
%TO.P,U5,7,GPIO5*%
%TO.N,/PD3*%
X116840000Y-113030000D03*
%TO.P,U5,6,GPIO4*%
%TO.N,/PD2*%
X114300000Y-113030000D03*
%TO.P,U5,5,GPIO3*%
%TO.N,/PD1*%
X111760000Y-113030000D03*
%TO.P,U5,4,GPIO2*%
%TO.N,/PD0*%
X109220000Y-113030000D03*
D11*
%TO.P,U5,3,GND*%
%TO.N,GND*%
X106680000Y-113030000D03*
D10*
%TO.P,U5,2,GPIO1*%
%TO.N,/OLED_SCL*%
X104140000Y-113030000D03*
%TO.P,U5,1,GPIO0*%
%TO.N,/OLED_SDA*%
X101600000Y-113030000D03*
%TD*%
D12*
%TO.P,SW3,1,1*%
%TO.N,Net-(SW1-Pad1)*%
X169395000Y-72335000D03*
X175895000Y-72335000D03*
%TO.P,SW3,2,2*%
%TO.N,Net-(SW3-Pad2)*%
X169395000Y-76835000D03*
X175895000Y-76835000D03*
%TD*%
%TO.P,SW2,1,1*%
%TO.N,Net-(SW1-Pad1)*%
X158600000Y-77415000D03*
X165100000Y-77415000D03*
%TO.P,SW2,2,2*%
%TO.N,Net-(SW2-Pad2)*%
X158600000Y-81915000D03*
X165100000Y-81915000D03*
%TD*%
%TO.P,SW1,1,1*%
%TO.N,Net-(SW1-Pad1)*%
X165100000Y-70485000D03*
X158600000Y-70485000D03*
%TO.P,SW1,2,2*%
%TO.N,Net-(SW1-Pad2)*%
X165100000Y-65985000D03*
X158600000Y-65985000D03*
%TD*%
D10*
%TO.P,J5,3,Pin_3*%
%TO.N,Net-(U5-Pad29)*%
X175895000Y-108565000D03*
%TO.P,J5,2,Pin_2*%
%TO.N,Net-(U5-Pad27)*%
X175895000Y-111105000D03*
D11*
%TO.P,J5,1,Pin_1*%
%TO.N,Net-(U5-Pad26)*%
X175895000Y-113645000D03*
%TD*%
%TO.P,J4,1,Pin_1*%
%TO.N,Net-(J3-Pad8)*%
X140870000Y-82810000D03*
D10*
%TO.P,J4,2,Pin_2*%
%TO.N,Net-(J3-Pad7)*%
X140870000Y-80270000D03*
%TO.P,J4,3,Pin_3*%
%TO.N,/remote_GND*%
X140870000Y-77730000D03*
%TO.P,J4,4,Pin_4*%
%TO.N,Net-(J3-Pad5)*%
X140870000Y-75190000D03*
%TO.P,J4,5,Pin_5*%
%TO.N,Net-(J3-Pad4)*%
X140870000Y-72650000D03*
%TD*%
D11*
%TO.P,J3,1,Pin_1*%
%TO.N,Net-(SW1-Pad2)*%
X147295000Y-65075000D03*
D10*
%TO.P,J3,2,Pin_2*%
%TO.N,Net-(SW2-Pad2)*%
X147295000Y-67615000D03*
%TO.P,J3,3,Pin_3*%
%TO.N,Net-(SW3-Pad2)*%
X147295000Y-70155000D03*
%TO.P,J3,4,Pin_4*%
%TO.N,Net-(J3-Pad4)*%
X147295000Y-72695000D03*
%TO.P,J3,5,Pin_5*%
%TO.N,Net-(J3-Pad5)*%
X147295000Y-75235000D03*
%TO.P,J3,6,Pin_6*%
%TO.N,/remote_GND*%
X147295000Y-77775000D03*
%TO.P,J3,7,Pin_7*%
%TO.N,Net-(J3-Pad7)*%
X147295000Y-80315000D03*
%TO.P,J3,8,Pin_8*%
%TO.N,Net-(J3-Pad8)*%
X147295000Y-82855000D03*
%TD*%
%TO.P,J2,5,Pin_5*%
%TO.N,/OLED_SCL*%
X175895000Y-95880000D03*
%TO.P,J2,4,Pin_4*%
%TO.N,/OLED_SDA*%
X175895000Y-98420000D03*
%TO.P,J2,3,Pin_3*%
%TO.N,GND*%
X175895000Y-100960000D03*
%TO.P,J2,2,Pin_2*%
%TO.N,+3V3*%
X175895000Y-103500000D03*
D11*
%TO.P,J2,1,Pin_1*%
%TO.N,+5V*%
X175895000Y-106040000D03*
%TD*%
D13*
%TO.P,J1,1,GND*%
%TO.N,GND*%
X178440000Y-144145000D03*
%TO.P,J1,2,RESET*%
%TO.N,Net-(D4-Pad2)*%
X175900000Y-144145000D03*
%TO.P,J1,3,VCC*%
%TO.N,+5V*%
X173360000Y-144145000D03*
%TO.P,J1,4,IRQ2*%
%TO.N,unconnected-(J1-Pad4)*%
X170820000Y-144145000D03*
%TO.P,J1,5,-5V*%
%TO.N,Net-(J1-Pad5)*%
X168280000Y-144145000D03*
%TO.P,J1,6,DRQ2*%
%TO.N,unconnected-(J1-Pad6)*%
X165740000Y-144145000D03*
%TO.P,J1,7,-12V*%
%TO.N,Net-(J1-Pad7)*%
X163200000Y-144145000D03*
%TO.P,J1,8,UNUSED*%
%TO.N,unconnected-(J1-Pad8)*%
X160660000Y-144145000D03*
%TO.P,J1,9,+12V*%
%TO.N,Net-(J1-Pad9)*%
X158120000Y-144145000D03*
%TO.P,J1,10,GND*%
%TO.N,GND*%
X155580000Y-144145000D03*
%TO.P,J1,11,~{SMEMW}*%
%TO.N,unconnected-(J1-Pad11)*%
X153040000Y-144145000D03*
%TO.P,J1,12,~{SMEMR}*%
%TO.N,unconnected-(J1-Pad12)*%
X150500000Y-144145000D03*
%TO.P,J1,13,~{IOW}*%
%TO.N,Net-(J1-Pad13)*%
X147960000Y-144145000D03*
%TO.P,J1,14,~{IOR}*%
%TO.N,unconnected-(J1-Pad14)*%
X145420000Y-144145000D03*
%TO.P,J1,15,~{DACK3}*%
%TO.N,unconnected-(J1-Pad15)*%
X142880000Y-144145000D03*
%TO.P,J1,16,DRQ3*%
%TO.N,unconnected-(J1-Pad16)*%
X140340000Y-144145000D03*
%TO.P,J1,17,~{DACK1}*%
%TO.N,unconnected-(J1-Pad17)*%
X137800000Y-144145000D03*
%TO.P,J1,18,DRQ1*%
%TO.N,unconnected-(J1-Pad18)*%
X135260000Y-144145000D03*
%TO.P,J1,19,~{DACK0}*%
%TO.N,unconnected-(J1-Pad19)*%
X132720000Y-144145000D03*
%TO.P,J1,20,CLK*%
%TO.N,unconnected-(J1-Pad20)*%
X130180000Y-144145000D03*
%TO.P,J1,21,IRQ7*%
%TO.N,unconnected-(J1-Pad21)*%
X127640000Y-144145000D03*
%TO.P,J1,22,IRQ6*%
%TO.N,unconnected-(J1-Pad22)*%
X125100000Y-144145000D03*
%TO.P,J1,23,IRQ5*%
%TO.N,unconnected-(J1-Pad23)*%
X122560000Y-144145000D03*
%TO.P,J1,24,IRQ4*%
%TO.N,unconnected-(J1-Pad24)*%
X120020000Y-144145000D03*
%TO.P,J1,25,IRQ3*%
%TO.N,unconnected-(J1-Pad25)*%
X117480000Y-144145000D03*
%TO.P,J1,26,~{DACK2}*%
%TO.N,unconnected-(J1-Pad26)*%
X114940000Y-144145000D03*
%TO.P,J1,27,TC*%
%TO.N,unconnected-(J1-Pad27)*%
X112400000Y-144145000D03*
%TO.P,J1,28,ALE*%
%TO.N,unconnected-(J1-Pad28)*%
X109860000Y-144145000D03*
%TO.P,J1,29,VCC*%
%TO.N,unconnected-(J1-Pad29)*%
X107320000Y-144145000D03*
%TO.P,J1,30,OSC*%
%TO.N,unconnected-(J1-Pad30)*%
X104780000Y-144145000D03*
%TO.P,J1,31,GND*%
%TO.N,GND*%
X102240000Y-144145000D03*
%TD*%
D14*
%TO.P,D4,1,K*%
%TO.N,Net-(D4-Pad1)*%
X165735000Y-95255000D03*
D15*
%TO.P,D4,2,A*%
%TO.N,Net-(D4-Pad2)*%
X165735000Y-92715000D03*
%TD*%
D14*
%TO.P,D1,1,K*%
%TO.N,GND*%
X157480000Y-92705000D03*
D15*
%TO.P,D1,2,A*%
%TO.N,Net-(D1-Pad2)*%
X157480000Y-95245000D03*
%TD*%
D16*
%TO.N,GND*%
X174752000Y-136652000D03*
X101092000Y-131572000D03*
%TO.N,+3V3*%
X150876000Y-136144000D03*
%TO.N,GND*%
X155575000Y-138430000D03*
X139700000Y-137160000D03*
X165100000Y-107315000D03*
X156210000Y-106045000D03*
X161290000Y-132080000D03*
X143510000Y-130175000D03*
X146685000Y-131445000D03*
X171450000Y-137160000D03*
X117475000Y-132080000D03*
%TO.N,/addr_byte*%
X139700000Y-99695000D03*
%TO.N,/bus_ready*%
X142240000Y-99695000D03*
X153670000Y-130175000D03*
%TO.N,/PD0*%
X140970000Y-127635000D03*
%TO.N,/PD1*%
X141605000Y-127000000D03*
%TO.N,/PD2*%
X142240000Y-126365000D03*
%TO.N,/PD3*%
X142875000Y-125730000D03*
%TO.N,/PD4*%
X143510000Y-125095000D03*
%TO.N,/PD5*%
X144145000Y-124460000D03*
%TO.N,/PD6*%
X144780000Y-123825000D03*
%TO.N,/PD7*%
X145415000Y-123190000D03*
%TO.N,Net-(J1-Pad13)*%
X151130000Y-131445000D03*
%TO.N,+3V3*%
X127000000Y-134620000D03*
X125730000Y-130175000D03*
X106045000Y-128270000D03*
%TO.N,/addr_byte*%
X107950000Y-125095000D03*
X145415000Y-131445000D03*
%TO.N,+5V*%
X162382500Y-105867500D03*
X167005000Y-118745000D03*
%TO.N,Net-(J1-Pad5)*%
X161925000Y-118745000D03*
%TO.N,Net-(J1-Pad7)*%
X158750000Y-118745000D03*
%TO.N,Net-(J1-Pad9)*%
X156845000Y-118745000D03*
%TO.N,Net-(D4-Pad2)*%
X175895000Y-138430000D03*
%TO.N,/-5Vmon*%
X160020000Y-110490000D03*
%TO.N,/+12Vmon*%
X154940000Y-111125000D03*
%TO.N,/+5Vmon*%
X165100000Y-109220000D03*
%TO.N,/PA0*%
X108585000Y-121920000D03*
%TO.N,/PA1*%
X109855000Y-121920000D03*
%TO.N,/PA2*%
X111125000Y-121920000D03*
%TO.N,/PA3*%
X112395000Y-121920000D03*
%TO.N,/PA4*%
X113665000Y-121920000D03*
%TO.N,/PA5*%
X114935000Y-121920000D03*
%TO.N,/PA6*%
X116205000Y-121920000D03*
%TO.N,/PA7*%
X117475000Y-125095000D03*
%TO.N,/PA0*%
X129540000Y-123825000D03*
%TO.N,/PA1*%
X130810000Y-124460000D03*
%TO.N,/PA2*%
X132080000Y-125095000D03*
%TO.N,/PA3*%
X133350000Y-125730000D03*
%TO.N,/PA4*%
X134620000Y-126365000D03*
%TO.N,/PA5*%
X135890000Y-127000000D03*
%TO.N,/PA6*%
X137160000Y-127635000D03*
%TO.N,/PA7*%
X138430000Y-128270000D03*
%TD*%
D17*
%TO.N,GND*%
X176657000Y-136652000D02*
X174752000Y-136652000D01*
X178435000Y-138430000D02*
X176657000Y-136652000D01*
X100965000Y-131699000D02*
X101092000Y-131572000D01*
X100965000Y-137795000D02*
X100965000Y-131699000D01*
X102240000Y-139070000D02*
X100965000Y-137795000D01*
X102240000Y-144145000D02*
X102240000Y-139070000D01*
%TO.N,+3V3*%
X149352000Y-134620000D02*
X150876000Y-136144000D01*
X127000000Y-134620000D02*
X149352000Y-134620000D01*
%TO.N,GND*%
X155575000Y-139065000D02*
X155575000Y-138430000D01*
X155580000Y-139070000D02*
X155575000Y-139065000D01*
X155580000Y-144145000D02*
X155580000Y-139070000D01*
X178435000Y-140130000D02*
X178435000Y-138430000D01*
X178440000Y-140135000D02*
X178435000Y-140130000D01*
X178440000Y-144145000D02*
X178440000Y-140135000D01*
D18*
%TO.N,Net-(SW3-Pad2)*%
X154845000Y-75835000D02*
X149150000Y-70140000D01*
X149150000Y-70140000D02*
X149135000Y-70155000D01*
X149135000Y-70155000D02*
X147295000Y-70155000D01*
X168395000Y-75835000D02*
X154845000Y-75835000D01*
X169395000Y-76835000D02*
X168395000Y-75835000D01*
X175895000Y-76835000D02*
X169395000Y-76835000D01*
%TO.N,Net-(SW2-Pad2)*%
X165100000Y-81915000D02*
X158600000Y-81915000D01*
%TO.N,Net-(SW1-Pad2)*%
X165100000Y-65985000D02*
X158600000Y-65985000D01*
X148205000Y-65985000D02*
X147295000Y-65075000D01*
X158600000Y-65985000D02*
X148205000Y-65985000D01*
%TO.N,Net-(SW2-Pad2)*%
X145960000Y-67615000D02*
X147295000Y-67615000D01*
X144705000Y-68870000D02*
X145960000Y-67615000D01*
X144705000Y-70775000D02*
X144705000Y-68870000D01*
X148095000Y-71410000D02*
X145340000Y-71410000D01*
X145340000Y-71410000D02*
X144705000Y-70775000D01*
X158600000Y-81915000D02*
X148095000Y-71410000D01*
%TO.N,/addr_byte*%
X146685000Y-109220000D02*
X139700000Y-102235000D01*
X139700000Y-102235000D02*
X139700000Y-99695000D01*
X151765000Y-109220000D02*
X146685000Y-109220000D01*
X153035000Y-120015000D02*
X153035000Y-110490000D01*
X145415000Y-127635000D02*
X153035000Y-120015000D01*
X153035000Y-110490000D02*
X151765000Y-109220000D01*
X145415000Y-131445000D02*
X145415000Y-127635000D01*
%TO.N,/bus_ready*%
X142240000Y-102235000D02*
X142240000Y-99695000D01*
X148590000Y-108585000D02*
X142240000Y-102235000D01*
X151765000Y-108585000D02*
X148590000Y-108585000D01*
X153670000Y-110490000D02*
X151765000Y-108585000D01*
X153670000Y-130175000D02*
X153670000Y-110490000D01*
%TO.N,/PD0*%
X137852982Y-127635000D02*
X140970000Y-127635000D01*
X137823991Y-127606009D02*
X137852982Y-127635000D01*
X137823991Y-127606009D02*
X133407981Y-123190000D01*
X137852981Y-127635000D02*
X137823991Y-127606009D01*
%TO.N,/PD1*%
X137795000Y-127000000D02*
X141605000Y-127000000D01*
%TO.N,/PD2*%
X137795000Y-126365000D02*
X142240000Y-126365000D01*
%TO.N,/PD3*%
X137795000Y-125730000D02*
X142875000Y-125730000D01*
%TO.N,/PD4*%
X137795000Y-125095000D02*
X143510000Y-125095000D01*
%TO.N,/PD5*%
X137795000Y-124460000D02*
X144145000Y-124460000D01*
%TO.N,/PD6*%
X144780000Y-123825000D02*
X137795000Y-123825000D01*
%TO.N,/PD7*%
X133350000Y-118745000D02*
X137795000Y-123190000D01*
X129540000Y-118745000D02*
X133350000Y-118745000D01*
X137795000Y-123190000D02*
X145415000Y-123190000D01*
X129540000Y-113030000D02*
X129540000Y-118745000D01*
%TO.N,Net-(J1-Pad13)*%
X153670000Y-133985000D02*
X151130000Y-131445000D01*
X147960000Y-141225000D02*
X153670000Y-135515000D01*
X147960000Y-144145000D02*
X147960000Y-141225000D01*
X153670000Y-135515000D02*
X153670000Y-133985000D01*
%TO.N,/PD3*%
X121920000Y-121285000D02*
X116840000Y-116205000D01*
X116840000Y-116205000D02*
X116840000Y-113030000D01*
D17*
%TO.N,+3V3*%
X120015000Y-130175000D02*
X125730000Y-130175000D01*
X118110000Y-128270000D02*
X120015000Y-130175000D01*
X106045000Y-128270000D02*
X118110000Y-128270000D01*
D18*
%TO.N,/addr_byte*%
X141605000Y-131445000D02*
X145415000Y-131445000D01*
X120015000Y-128905000D02*
X139065000Y-128905000D01*
X139065000Y-128905000D02*
X141605000Y-131445000D01*
X116205000Y-125095000D02*
X120015000Y-128905000D01*
X107950000Y-125095000D02*
X116205000Y-125095000D01*
D17*
%TO.N,+3V3*%
X177165000Y-103505000D02*
X177160000Y-103500000D01*
X177800000Y-102870000D02*
X177165000Y-103505000D01*
X177160000Y-103500000D02*
X175895000Y-103500000D01*
X113665000Y-90170000D02*
X172720000Y-90170000D01*
X172720000Y-90170000D02*
X177800000Y-95250000D01*
X111760000Y-95250000D02*
X111760000Y-92075000D01*
X111760000Y-92075000D02*
X113665000Y-90170000D01*
X177800000Y-95250000D02*
X177800000Y-102870000D01*
D18*
%TO.N,/OLED_SDA*%
X176535000Y-98420000D02*
X175895000Y-98420000D01*
X177165000Y-97790000D02*
X176535000Y-98420000D01*
X177165000Y-95679201D02*
X177165000Y-97790000D01*
X114300000Y-90805000D02*
X172290799Y-90805000D01*
X113030000Y-92075000D02*
X114300000Y-90805000D01*
X172290799Y-90805000D02*
X177165000Y-95679201D01*
X113030000Y-101600000D02*
X113030000Y-92075000D01*
X101600000Y-113030000D02*
X113030000Y-101600000D01*
%TO.N,/OLED_SCL*%
X171455000Y-91440000D02*
X175895000Y-95880000D01*
X115570000Y-92075000D02*
X116205000Y-91440000D01*
X116205000Y-91440000D02*
X171455000Y-91440000D01*
X115570000Y-101600000D02*
X115570000Y-92075000D01*
X104140000Y-113030000D02*
X115570000Y-101600000D01*
D17*
%TO.N,+5V*%
X162555000Y-106040000D02*
X175895000Y-106040000D01*
X162382500Y-105867500D02*
X162555000Y-106040000D01*
X173360000Y-141225000D02*
X173360000Y-144145000D01*
X171835000Y-139700000D02*
X173360000Y-141225000D01*
X169545000Y-139700000D02*
X171835000Y-139700000D01*
X168275000Y-138430000D02*
X169545000Y-139700000D01*
X165735000Y-138430000D02*
X168275000Y-138430000D01*
X163195000Y-135890000D02*
X165735000Y-138430000D01*
X160655000Y-135890000D02*
X163195000Y-135890000D01*
X160020000Y-135255000D02*
X160655000Y-135890000D01*
X160020000Y-120015000D02*
X160020000Y-135255000D01*
X160655000Y-119380000D02*
X160020000Y-120015000D01*
X166370000Y-119380000D02*
X160655000Y-119380000D01*
X167005000Y-118745000D02*
X166370000Y-119380000D01*
%TO.N,Net-(J1-Pad5)*%
X168280000Y-140340000D02*
X168280000Y-144145000D01*
X167005000Y-139065000D02*
X168280000Y-140340000D01*
X165100000Y-139065000D02*
X167005000Y-139065000D01*
X162560000Y-136525000D02*
X165100000Y-139065000D01*
X160020000Y-136525000D02*
X162560000Y-136525000D01*
X159385000Y-135890000D02*
X160020000Y-136525000D01*
X159385000Y-119380000D02*
X159385000Y-135890000D01*
X160020000Y-118745000D02*
X159385000Y-119380000D01*
X161925000Y-118745000D02*
X160020000Y-118745000D01*
%TO.N,Net-(J1-Pad7)*%
X163200000Y-138435000D02*
X163200000Y-144145000D01*
X161925000Y-137160000D02*
X163200000Y-138435000D01*
X158750000Y-136525000D02*
X159385000Y-137160000D01*
X159385000Y-137160000D02*
X161925000Y-137160000D01*
X158750000Y-118745000D02*
X158750000Y-136525000D01*
%TO.N,Net-(J1-Pad9)*%
X156845000Y-118745000D02*
X158120000Y-120020000D01*
X158120000Y-120020000D02*
X158120000Y-144145000D01*
D18*
%TO.N,Net-(D4-Pad2)*%
X175900000Y-138435000D02*
X175900000Y-144145000D01*
X175895000Y-138430000D02*
X175900000Y-138435000D01*
%TO.N,/+5Vmon*%
X154940000Y-109220000D02*
X165100000Y-109220000D01*
X154305000Y-99695000D02*
X154305000Y-108585000D01*
X154305000Y-108585000D02*
X154940000Y-109220000D01*
X151765000Y-97155000D02*
X154305000Y-99695000D01*
X125095000Y-97155000D02*
X151765000Y-97155000D01*
X124460000Y-95250000D02*
X124460000Y-96520000D01*
X124460000Y-96520000D02*
X125095000Y-97155000D01*
%TO.N,/-5Vmon*%
X123190000Y-97790000D02*
X121920000Y-96520000D01*
X121920000Y-96520000D02*
X121920000Y-95250000D01*
X153670000Y-99695000D02*
X151765000Y-97790000D01*
X151765000Y-97790000D02*
X123190000Y-97790000D01*
X154940000Y-110490000D02*
X153670000Y-109220000D01*
X160020000Y-110490000D02*
X154940000Y-110490000D01*
X153670000Y-109220000D02*
X153670000Y-99695000D01*
%TO.N,/+12Vmon*%
X116840000Y-97155000D02*
X116840000Y-95250000D01*
X153035000Y-99695000D02*
X151765000Y-98425000D01*
X151765000Y-98425000D02*
X118110000Y-98425000D01*
X153035000Y-109220000D02*
X153035000Y-99695000D01*
X154940000Y-111125000D02*
X153035000Y-109220000D01*
X118110000Y-98425000D02*
X116840000Y-97155000D01*
%TO.N,/PD6*%
X137795000Y-123825000D02*
X133350000Y-119380000D01*
X127635000Y-119380000D02*
X127000000Y-118745000D01*
X133350000Y-119380000D02*
X127635000Y-119380000D01*
X127000000Y-118745000D02*
X127000000Y-113030000D01*
%TO.N,/PD5*%
X124460000Y-118745000D02*
X124460000Y-113030000D01*
X125730000Y-120015000D02*
X124460000Y-118745000D01*
X133350000Y-120015000D02*
X125730000Y-120015000D01*
%TO.N,/PD4*%
X123825000Y-120650000D02*
X121920000Y-118745000D01*
X121920000Y-118745000D02*
X121920000Y-113030000D01*
X133350000Y-120650000D02*
X123825000Y-120650000D01*
%TO.N,/PD2*%
X114300000Y-115570000D02*
X114300000Y-113030000D01*
X114935000Y-116205000D02*
X114300000Y-115570000D01*
X116205000Y-116205000D02*
X114935000Y-116205000D01*
X121920000Y-121920000D02*
X116205000Y-116205000D01*
%TO.N,/PD1*%
X112395000Y-116840000D02*
X111760000Y-116205000D01*
X111760000Y-116205000D02*
X111760000Y-113030000D01*
%TO.N,/PD0*%
X109220000Y-114300000D02*
X109220000Y-113030000D01*
X112395000Y-117475000D02*
X109220000Y-114300000D01*
%TO.N,/PD5*%
X137795000Y-124460000D02*
X133350000Y-120015000D01*
%TO.N,/PD4*%
X137795000Y-125095000D02*
X133350000Y-120650000D01*
%TO.N,/PD3*%
X137795000Y-125730000D02*
X133350000Y-121285000D01*
X133350000Y-121285000D02*
X121920000Y-121285000D01*
%TO.N,/PD2*%
X133350000Y-121920000D02*
X121920000Y-121920000D01*
X137795000Y-126365000D02*
X133350000Y-121920000D01*
%TO.N,/PD1*%
X116205000Y-116840000D02*
X112395000Y-116840000D01*
X133350000Y-122555000D02*
X121920000Y-122555000D01*
X137795000Y-127000000D02*
X133350000Y-122555000D01*
X121920000Y-122555000D02*
X116205000Y-116840000D01*
%TO.N,/PD0*%
X121920000Y-123190000D02*
X116205000Y-117475000D01*
X133407981Y-123190000D02*
X121920000Y-123190000D01*
X116205000Y-117475000D02*
X112395000Y-117475000D01*
%TO.N,/PA0*%
X121920000Y-123825000D02*
X129540000Y-123825000D01*
X112395000Y-118110000D02*
X116205000Y-118110000D01*
X116205000Y-118110000D02*
X121920000Y-123825000D01*
X108585000Y-121920000D02*
X112395000Y-118110000D01*
%TO.N,/PA1*%
X121920000Y-124460000D02*
X130810000Y-124460000D01*
X116205000Y-118745000D02*
X121920000Y-124460000D01*
X113030000Y-118745000D02*
X116205000Y-118745000D01*
X109855000Y-121920000D02*
X113030000Y-118745000D01*
%TO.N,/PA2*%
X121920000Y-125095000D02*
X132080000Y-125095000D01*
X116205000Y-119380000D02*
X121920000Y-125095000D01*
X113665000Y-119380000D02*
X116205000Y-119380000D01*
X111125000Y-121920000D02*
X113665000Y-119380000D01*
%TO.N,/PA3*%
X120650000Y-125730000D02*
X133350000Y-125730000D01*
X120015000Y-125095000D02*
X120650000Y-125730000D01*
X114300000Y-120015000D02*
X116205000Y-120015000D01*
X120015000Y-123825000D02*
X120015000Y-125095000D01*
X116205000Y-120015000D02*
X120015000Y-123825000D01*
X112395000Y-121920000D02*
X114300000Y-120015000D01*
%TO.N,/PA4*%
X119380000Y-123825000D02*
X119380000Y-125095000D01*
X116205000Y-120650000D02*
X119380000Y-123825000D01*
X119380000Y-125095000D02*
X120650000Y-126365000D01*
X120650000Y-126365000D02*
X134620000Y-126365000D01*
X113665000Y-121920000D02*
X114935000Y-120650000D01*
X114935000Y-120650000D02*
X116205000Y-120650000D01*
%TO.N,/PA5*%
X118745000Y-123767019D02*
X118745000Y-125095000D01*
X118745000Y-125095000D02*
X120650000Y-127000000D01*
X120650000Y-127000000D02*
X135890000Y-127000000D01*
X116262981Y-121285000D02*
X118745000Y-123767019D01*
X115570000Y-121285000D02*
X116262981Y-121285000D01*
X114935000Y-121920000D02*
X115570000Y-121285000D01*
%TO.N,/PA6*%
X120650000Y-127635000D02*
X137160000Y-127635000D01*
X118110000Y-125095000D02*
X120650000Y-127635000D01*
X118110000Y-123825000D02*
X118110000Y-125095000D01*
X116205000Y-121920000D02*
X118110000Y-123825000D01*
%TO.N,/PA7*%
X120650000Y-128270000D02*
X138430000Y-128270000D01*
X117475000Y-125095000D02*
X120650000Y-128270000D01*
%TD*%
%TA.AperFunction,Conductor*%
%TO.N,GND*%
G36*
X180282121Y-88285002D02*
G01*
X180328614Y-88338658D01*
X180340000Y-88391000D01*
X180340000Y-138939000D01*
X180319998Y-139007121D01*
X180266342Y-139053614D01*
X180214000Y-139065000D01*
X176678830Y-139065000D01*
X176610709Y-139044998D01*
X176564216Y-138991342D01*
X176554112Y-138921068D01*
X176573882Y-138869273D01*
X176614742Y-138807773D01*
X176618643Y-138801902D01*
X176683055Y-138632338D01*
X176684035Y-138625366D01*
X176707748Y-138456639D01*
X176707748Y-138456636D01*
X176708299Y-138452717D01*
X176708616Y-138430000D01*
X176688397Y-138249745D01*
X176686080Y-138243091D01*
X176631064Y-138085106D01*
X176631062Y-138085103D01*
X176628745Y-138078448D01*
X176561933Y-137971526D01*
X176536359Y-137930598D01*
X176532626Y-137924624D01*
X176503522Y-137895316D01*
X176409778Y-137800915D01*
X176409774Y-137800912D01*
X176404815Y-137795918D01*
X176393697Y-137788862D01*
X176338630Y-137753916D01*
X176251666Y-137698727D01*
X176222463Y-137688328D01*
X176087425Y-137640243D01*
X176087420Y-137640242D01*
X176080790Y-137637881D01*
X176073802Y-137637048D01*
X176073799Y-137637047D01*
X175950698Y-137622368D01*
X175900680Y-137616404D01*
X175893677Y-137617140D01*
X175893676Y-137617140D01*
X175727288Y-137634628D01*
X175727286Y-137634629D01*
X175720288Y-137635364D01*
X175548579Y-137693818D01*
X175542575Y-137697512D01*
X175400095Y-137785166D01*
X175400092Y-137785168D01*
X175394088Y-137788862D01*
X175389053Y-137793793D01*
X175389050Y-137793795D01*
X175269525Y-137910843D01*
X175264493Y-137915771D01*
X175166235Y-138068238D01*
X175163826Y-138074858D01*
X175163824Y-138074861D01*
X175106606Y-138232066D01*
X175104197Y-138238685D01*
X175081463Y-138418640D01*
X175099163Y-138599160D01*
X175156418Y-138771273D01*
X175160065Y-138777295D01*
X175160066Y-138777297D01*
X175218467Y-138873729D01*
X175236646Y-138942359D01*
X175214835Y-139009922D01*
X175159959Y-139054968D01*
X175110691Y-139065000D01*
X169822739Y-139065000D01*
X169754618Y-139044998D01*
X169733644Y-139028095D01*
X168739315Y-138033766D01*
X168728448Y-138021375D01*
X168714013Y-138002563D01*
X168708987Y-137996013D01*
X168677075Y-137971526D01*
X168677072Y-137971523D01*
X168623738Y-137930598D01*
X168588429Y-137903504D01*
X168588427Y-137903503D01*
X168581876Y-137898476D01*
X168433851Y-137837162D01*
X168425664Y-137836084D01*
X168425663Y-137836084D01*
X168414458Y-137834609D01*
X168383262Y-137830502D01*
X168314885Y-137821500D01*
X168314882Y-137821500D01*
X168314874Y-137821499D01*
X168283189Y-137817328D01*
X168275000Y-137816250D01*
X168243307Y-137820422D01*
X168226864Y-137821500D01*
X166039239Y-137821500D01*
X165971118Y-137801498D01*
X165950144Y-137784595D01*
X163659315Y-135493766D01*
X163648448Y-135481375D01*
X163634013Y-135462563D01*
X163628987Y-135456013D01*
X163597075Y-135431526D01*
X163597072Y-135431523D01*
X163501876Y-135358476D01*
X163353851Y-135297162D01*
X163345664Y-135296084D01*
X163345663Y-135296084D01*
X163334458Y-135294609D01*
X163303262Y-135290502D01*
X163234885Y-135281500D01*
X163234882Y-135281500D01*
X163234874Y-135281499D01*
X163203189Y-135277328D01*
X163195000Y-135276250D01*
X163163307Y-135280422D01*
X163146864Y-135281500D01*
X160959239Y-135281500D01*
X160891118Y-135261498D01*
X160870144Y-135244595D01*
X160665405Y-135039856D01*
X160631379Y-134977544D01*
X160628500Y-134950761D01*
X160628500Y-120319239D01*
X160648502Y-120251118D01*
X160665405Y-120230144D01*
X160870144Y-120025405D01*
X160932456Y-119991379D01*
X160959239Y-119988500D01*
X166321864Y-119988500D01*
X166338307Y-119989578D01*
X166370000Y-119993750D01*
X166378189Y-119992672D01*
X166409874Y-119988501D01*
X166409884Y-119988500D01*
X166409885Y-119988500D01*
X166509457Y-119975391D01*
X166520664Y-119973916D01*
X166520666Y-119973915D01*
X166528851Y-119972838D01*
X166676876Y-119911524D01*
X166772072Y-119838477D01*
X166772075Y-119838474D01*
X166803987Y-119813987D01*
X166809017Y-119807432D01*
X166823452Y-119788621D01*
X166834319Y-119776230D01*
X167026282Y-119584267D01*
X167088594Y-119550241D01*
X167103955Y-119547881D01*
X167168600Y-119541998D01*
X167175302Y-119539820D01*
X167175304Y-119539820D01*
X167334409Y-119488124D01*
X167334412Y-119488123D01*
X167341108Y-119485947D01*
X167446706Y-119422998D01*
X167490860Y-119396677D01*
X167490862Y-119396676D01*
X167496912Y-119393069D01*
X167628266Y-119267982D01*
X167728643Y-119116902D01*
X167793055Y-118947338D01*
X167794035Y-118940366D01*
X167817748Y-118771639D01*
X167817748Y-118771636D01*
X167818299Y-118767717D01*
X167818502Y-118753188D01*
X167818561Y-118748962D01*
X167818561Y-118748957D01*
X167818616Y-118745000D01*
X167798397Y-118564745D01*
X167796080Y-118558091D01*
X167741064Y-118400106D01*
X167741062Y-118400103D01*
X167738745Y-118393448D01*
X167700302Y-118331926D01*
X167646359Y-118245598D01*
X167646356Y-118245594D01*
X167642626Y-118239624D01*
X167591086Y-118187723D01*
X167519778Y-118115915D01*
X167519774Y-118115912D01*
X167514815Y-118110918D01*
X167503697Y-118103862D01*
X167414096Y-118047000D01*
X167361666Y-118013727D01*
X167332463Y-118003328D01*
X167197425Y-117955243D01*
X167197420Y-117955242D01*
X167190790Y-117952881D01*
X167183802Y-117952048D01*
X167183799Y-117952047D01*
X167060698Y-117937368D01*
X167010680Y-117931404D01*
X167003677Y-117932140D01*
X167003676Y-117932140D01*
X166837288Y-117949628D01*
X166837286Y-117949629D01*
X166830288Y-117950364D01*
X166658579Y-118008818D01*
X166652575Y-118012512D01*
X166510095Y-118100166D01*
X166510092Y-118100168D01*
X166504088Y-118103862D01*
X166499053Y-118108793D01*
X166499050Y-118108795D01*
X166379525Y-118225843D01*
X166374493Y-118230771D01*
X166276235Y-118383238D01*
X166273826Y-118389858D01*
X166273824Y-118389861D01*
X166217367Y-118544975D01*
X166214197Y-118553685D01*
X166213314Y-118560675D01*
X166202025Y-118650034D01*
X166173643Y-118715111D01*
X166166114Y-118723337D01*
X166154856Y-118734595D01*
X166092544Y-118768621D01*
X166065761Y-118771500D01*
X162854246Y-118771500D01*
X162786125Y-118751498D01*
X162739632Y-118697842D01*
X162729031Y-118659546D01*
X162719182Y-118571743D01*
X162718397Y-118564745D01*
X162716080Y-118558091D01*
X162661064Y-118400106D01*
X162661062Y-118400103D01*
X162658745Y-118393448D01*
X162620302Y-118331926D01*
X162566359Y-118245598D01*
X162566356Y-118245594D01*
X162562626Y-118239624D01*
X162511086Y-118187723D01*
X162439778Y-118115915D01*
X162439774Y-118115912D01*
X162434815Y-118110918D01*
X162423697Y-118103862D01*
X162334096Y-118047000D01*
X162281666Y-118013727D01*
X162252463Y-118003328D01*
X162117425Y-117955243D01*
X162117420Y-117955242D01*
X162110790Y-117952881D01*
X162103802Y-117952048D01*
X162103799Y-117952047D01*
X161980698Y-117937368D01*
X161930680Y-117931404D01*
X161923677Y-117932140D01*
X161923676Y-117932140D01*
X161757288Y-117949628D01*
X161757286Y-117949629D01*
X161750288Y-117950364D01*
X161578579Y-118008818D01*
X161424088Y-118103862D01*
X161419054Y-118108791D01*
X161417776Y-118109790D01*
X161351782Y-118135967D01*
X161340204Y-118136500D01*
X160068144Y-118136500D01*
X160051698Y-118135422D01*
X160028188Y-118132327D01*
X160020000Y-118131249D01*
X159861149Y-118152162D01*
X159713124Y-118213476D01*
X159617929Y-118286522D01*
X159617925Y-118286526D01*
X159617920Y-118286530D01*
X159592121Y-118306326D01*
X159525901Y-118331926D01*
X159456352Y-118317661D01*
X159408565Y-118273134D01*
X159387626Y-118239624D01*
X159336086Y-118187723D01*
X159264778Y-118115915D01*
X159264774Y-118115912D01*
X159259815Y-118110918D01*
X159248697Y-118103862D01*
X159159096Y-118047000D01*
X159106666Y-118013727D01*
X159077463Y-118003328D01*
X158942425Y-117955243D01*
X158942420Y-117955242D01*
X158935790Y-117952881D01*
X158928802Y-117952048D01*
X158928799Y-117952047D01*
X158805698Y-117937368D01*
X158755680Y-117931404D01*
X158748677Y-117932140D01*
X158748676Y-117932140D01*
X158582288Y-117949628D01*
X158582286Y-117949629D01*
X158575288Y-117950364D01*
X158403579Y-118008818D01*
X158397575Y-118012512D01*
X158255095Y-118100166D01*
X158255092Y-118100168D01*
X158249088Y-118103862D01*
X158244053Y-118108793D01*
X158244050Y-118108795D01*
X158124525Y-118225843D01*
X158119493Y-118230771D01*
X158021235Y-118383238D01*
X158018826Y-118389858D01*
X158018824Y-118389861D01*
X157962367Y-118544975D01*
X157959197Y-118553685D01*
X157945824Y-118659546D01*
X157941525Y-118693572D01*
X157913143Y-118758649D01*
X157854084Y-118798050D01*
X157783097Y-118799267D01*
X157727424Y-118766875D01*
X157683888Y-118723339D01*
X157649862Y-118661027D01*
X157647768Y-118648289D01*
X157639182Y-118571744D01*
X157639182Y-118571743D01*
X157638397Y-118564745D01*
X157636080Y-118558091D01*
X157581064Y-118400106D01*
X157581062Y-118400103D01*
X157578745Y-118393448D01*
X157540302Y-118331926D01*
X157486359Y-118245598D01*
X157486356Y-118245594D01*
X157482626Y-118239624D01*
X157431086Y-118187723D01*
X157359778Y-118115915D01*
X157359774Y-118115912D01*
X157354815Y-118110918D01*
X157343697Y-118103862D01*
X157254096Y-118047000D01*
X157201666Y-118013727D01*
X157172463Y-118003328D01*
X157037425Y-117955243D01*
X157037420Y-117955242D01*
X157030790Y-117952881D01*
X157023802Y-117952048D01*
X157023799Y-117952047D01*
X156900698Y-117937368D01*
X156850680Y-117931404D01*
X156843677Y-117932140D01*
X156843676Y-117932140D01*
X156677288Y-117949628D01*
X156677286Y-117949629D01*
X156670288Y-117950364D01*
X156498579Y-118008818D01*
X156492575Y-118012512D01*
X156350095Y-118100166D01*
X156350092Y-118100168D01*
X156344088Y-118103862D01*
X156339053Y-118108793D01*
X156339050Y-118108795D01*
X156219525Y-118225843D01*
X156214493Y-118230771D01*
X156116235Y-118383238D01*
X156113826Y-118389858D01*
X156113824Y-118389861D01*
X156057367Y-118544975D01*
X156054197Y-118553685D01*
X156031463Y-118733640D01*
X156049163Y-118914160D01*
X156106418Y-119086273D01*
X156110065Y-119092295D01*
X156110066Y-119092297D01*
X156192193Y-119227905D01*
X156200380Y-119241424D01*
X156326382Y-119371902D01*
X156478159Y-119471222D01*
X156484763Y-119473678D01*
X156484765Y-119473679D01*
X156641558Y-119531990D01*
X156641560Y-119531990D01*
X156648168Y-119534448D01*
X156655153Y-119535380D01*
X156655157Y-119535381D01*
X156704750Y-119541998D01*
X156750986Y-119548167D01*
X156815862Y-119577003D01*
X156823416Y-119583965D01*
X157474595Y-120235144D01*
X157508621Y-120297456D01*
X157511500Y-120324239D01*
X157511500Y-138939000D01*
X157491498Y-139007121D01*
X157437842Y-139053614D01*
X157385500Y-139065000D01*
X151233120Y-139065000D01*
X151164999Y-139044998D01*
X151118506Y-138991342D01*
X151108402Y-138921068D01*
X151137896Y-138856488D01*
X151144025Y-138849905D01*
X151198617Y-138795314D01*
X154042119Y-135951812D01*
X154054510Y-135940945D01*
X154071405Y-135927981D01*
X154077955Y-135922955D01*
X154100971Y-135892960D01*
X154100976Y-135892955D01*
X154100988Y-135892939D01*
X154100999Y-135892926D01*
X154164612Y-135810022D01*
X154169641Y-135803468D01*
X154227277Y-135664322D01*
X154242000Y-135552492D01*
X154242000Y-135552486D01*
X154246935Y-135515000D01*
X154243078Y-135485702D01*
X154242000Y-135469256D01*
X154242000Y-134030744D01*
X154243078Y-134014298D01*
X154245857Y-133993189D01*
X154245857Y-133993188D01*
X154246935Y-133985000D01*
X154242000Y-133947514D01*
X154242000Y-133947508D01*
X154227277Y-133835678D01*
X154169641Y-133696532D01*
X154164612Y-133689978D01*
X154100999Y-133607074D01*
X154100988Y-133607061D01*
X154100976Y-133607045D01*
X154100971Y-133607040D01*
X154077955Y-133577045D01*
X154054510Y-133559055D01*
X154042119Y-133548188D01*
X151975409Y-131481478D01*
X151941383Y-131419166D01*
X151939289Y-131406428D01*
X151924182Y-131271744D01*
X151923397Y-131264745D01*
X151921080Y-131258091D01*
X151866064Y-131100106D01*
X151866062Y-131100103D01*
X151863745Y-131093448D01*
X151767626Y-130939624D01*
X151740532Y-130912340D01*
X151644778Y-130815915D01*
X151644774Y-130815912D01*
X151639815Y-130810918D01*
X151631688Y-130805760D01*
X151573630Y-130768916D01*
X151486666Y-130713727D01*
X151456094Y-130702841D01*
X151322425Y-130655243D01*
X151322420Y-130655242D01*
X151315790Y-130652881D01*
X151308802Y-130652048D01*
X151308799Y-130652047D01*
X151185698Y-130637368D01*
X151135680Y-130631404D01*
X151128677Y-130632140D01*
X151128676Y-130632140D01*
X150962288Y-130649628D01*
X150962286Y-130649629D01*
X150955288Y-130650364D01*
X150783579Y-130708818D01*
X150777575Y-130712512D01*
X150635095Y-130800166D01*
X150635092Y-130800168D01*
X150629088Y-130803862D01*
X150624053Y-130808793D01*
X150624050Y-130808795D01*
X150504525Y-130925843D01*
X150499493Y-130930771D01*
X150401235Y-131083238D01*
X150398826Y-131089858D01*
X150398824Y-131089861D01*
X150341606Y-131247066D01*
X150339197Y-131253685D01*
X150316463Y-131433640D01*
X150334163Y-131614160D01*
X150391418Y-131786273D01*
X150395065Y-131792295D01*
X150395066Y-131792297D01*
X150445758Y-131875999D01*
X150485380Y-131941424D01*
X150611382Y-132071902D01*
X150763159Y-132171222D01*
X150769763Y-132173678D01*
X150769765Y-132173679D01*
X150926558Y-132231990D01*
X150926560Y-132231990D01*
X150933168Y-132234448D01*
X151095552Y-132256115D01*
X151160428Y-132284951D01*
X151167982Y-132291913D01*
X153061095Y-134185026D01*
X153095121Y-134247338D01*
X153098000Y-134274121D01*
X153098000Y-135225879D01*
X153077998Y-135294000D01*
X153061095Y-135314974D01*
X151855652Y-136520417D01*
X151793340Y-136554443D01*
X151722525Y-136549378D01*
X151665689Y-136506831D01*
X151640878Y-136440311D01*
X151648769Y-136386578D01*
X151661555Y-136352920D01*
X151661556Y-136352918D01*
X151664055Y-136346338D01*
X151665035Y-136339366D01*
X151688748Y-136170639D01*
X151688748Y-136170636D01*
X151689299Y-136166717D01*
X151689616Y-136144000D01*
X151669397Y-135963745D01*
X151667080Y-135957091D01*
X151612064Y-135799106D01*
X151612062Y-135799103D01*
X151609745Y-135792448D01*
X151513626Y-135638624D01*
X151508664Y-135633627D01*
X151390778Y-135514915D01*
X151390774Y-135514912D01*
X151385815Y-135509918D01*
X151360364Y-135493766D01*
X151263834Y-135432507D01*
X151232666Y-135412727D01*
X151203463Y-135402328D01*
X151068425Y-135354243D01*
X151068420Y-135354242D01*
X151061790Y-135351881D01*
X151054804Y-135351048D01*
X151054800Y-135351047D01*
X150971864Y-135341158D01*
X150906591Y-135313231D01*
X150897688Y-135305139D01*
X149816315Y-134223766D01*
X149805448Y-134211375D01*
X149791013Y-134192563D01*
X149785987Y-134186013D01*
X149754075Y-134161526D01*
X149754072Y-134161523D01*
X149658876Y-134088476D01*
X149510851Y-134027162D01*
X149502664Y-134026084D01*
X149502663Y-134026084D01*
X149491458Y-134024609D01*
X149460262Y-134020502D01*
X149391885Y-134011500D01*
X149391882Y-134011500D01*
X149391874Y-134011499D01*
X149360189Y-134007328D01*
X149352000Y-134006250D01*
X149320307Y-134010422D01*
X149303864Y-134011500D01*
X127584751Y-134011500D01*
X127516630Y-133991498D01*
X127512157Y-133988276D01*
X127509815Y-133985918D01*
X127498697Y-133978862D01*
X127449290Y-133947508D01*
X127356666Y-133888727D01*
X127327463Y-133878328D01*
X127192425Y-133830243D01*
X127192420Y-133830242D01*
X127185790Y-133827881D01*
X127178802Y-133827048D01*
X127178799Y-133827047D01*
X127055698Y-133812368D01*
X127005680Y-133806404D01*
X126998677Y-133807140D01*
X126998676Y-133807140D01*
X126832288Y-133824628D01*
X126832286Y-133824629D01*
X126825288Y-133825364D01*
X126653579Y-133883818D01*
X126647575Y-133887512D01*
X126505095Y-133975166D01*
X126505092Y-133975168D01*
X126499088Y-133978862D01*
X126494053Y-133983793D01*
X126494050Y-133983795D01*
X126374525Y-134100843D01*
X126369493Y-134105771D01*
X126271235Y-134258238D01*
X126209197Y-134428685D01*
X126186463Y-134608640D01*
X126204163Y-134789160D01*
X126261418Y-134961273D01*
X126355380Y-135116424D01*
X126481382Y-135246902D01*
X126553355Y-135294000D01*
X126570378Y-135305139D01*
X126633159Y-135346222D01*
X126639763Y-135348678D01*
X126639765Y-135348679D01*
X126796558Y-135406990D01*
X126796560Y-135406990D01*
X126803168Y-135409448D01*
X126886995Y-135420633D01*
X126975980Y-135432507D01*
X126975984Y-135432507D01*
X126982961Y-135433438D01*
X126989972Y-135432800D01*
X126989976Y-135432800D01*
X127132459Y-135419832D01*
X127163600Y-135416998D01*
X127170302Y-135414820D01*
X127170304Y-135414820D01*
X127329409Y-135363124D01*
X127329412Y-135363123D01*
X127336108Y-135360947D01*
X127491912Y-135268069D01*
X127497013Y-135263212D01*
X127502626Y-135258951D01*
X127503385Y-135259952D01*
X127560090Y-135230762D01*
X127583860Y-135228500D01*
X149047761Y-135228500D01*
X149115882Y-135248502D01*
X149136856Y-135265405D01*
X150036907Y-136165456D01*
X150070933Y-136227768D01*
X150073211Y-136242256D01*
X150080163Y-136313160D01*
X150137418Y-136485273D01*
X150231380Y-136640424D01*
X150357382Y-136770902D01*
X150509159Y-136870222D01*
X150515763Y-136872678D01*
X150515765Y-136872679D01*
X150672558Y-136930990D01*
X150672560Y-136930990D01*
X150679168Y-136933448D01*
X150762995Y-136944633D01*
X150851980Y-136956507D01*
X150851984Y-136956507D01*
X150858961Y-136957438D01*
X150865972Y-136956800D01*
X150865976Y-136956800D01*
X151008459Y-136943832D01*
X151039600Y-136940998D01*
X151046300Y-136938821D01*
X151046305Y-136938820D01*
X151126275Y-136912836D01*
X151197243Y-136910809D01*
X151258041Y-136947471D01*
X151289366Y-137011184D01*
X151281272Y-137081718D01*
X151254307Y-137121762D01*
X150307832Y-138068238D01*
X149347975Y-139028095D01*
X149285663Y-139062121D01*
X149258880Y-139065000D01*
X100456000Y-139065000D01*
X100387879Y-139044998D01*
X100341386Y-138991342D01*
X100330000Y-138939000D01*
X100330000Y-113976750D01*
X100350002Y-113908629D01*
X100403658Y-113862136D01*
X100473932Y-113852032D01*
X100538512Y-113881526D01*
X100551234Y-113894249D01*
X100585845Y-113934205D01*
X100642866Y-114000032D01*
X100642869Y-114000035D01*
X100646250Y-114003938D01*
X100818126Y-114146632D01*
X101011000Y-114259338D01*
X101015825Y-114261180D01*
X101015826Y-114261181D01*
X101076707Y-114284429D01*
X101219692Y-114339030D01*
X101224760Y-114340061D01*
X101224763Y-114340062D01*
X101332017Y-114361883D01*
X101438597Y-114383567D01*
X101443772Y-114383757D01*
X101443774Y-114383757D01*
X101656673Y-114391564D01*
X101656677Y-114391564D01*
X101661837Y-114391753D01*
X101666957Y-114391097D01*
X101666959Y-114391097D01*
X101878288Y-114364025D01*
X101878289Y-114364025D01*
X101883416Y-114363368D01*
X101888366Y-114361883D01*
X102092429Y-114300661D01*
X102092434Y-114300659D01*
X102097384Y-114299174D01*
X102297994Y-114200896D01*
X102479860Y-114071173D01*
X102638096Y-113913489D01*
X102651919Y-113894253D01*
X102768453Y-113732077D01*
X102769776Y-113733028D01*
X102816645Y-113689857D01*
X102886580Y-113677625D01*
X102952026Y-113705144D01*
X102979875Y-113736994D01*
X103039987Y-113835088D01*
X103186250Y-114003938D01*
X103358126Y-114146632D01*
X103551000Y-114259338D01*
X103555825Y-114261180D01*
X103555826Y-114261181D01*
X103616707Y-114284429D01*
X103759692Y-114339030D01*
X103764760Y-114340061D01*
X103764763Y-114340062D01*
X103872017Y-114361883D01*
X103978597Y-114383567D01*
X103983772Y-114383757D01*
X103983774Y-114383757D01*
X104196673Y-114391564D01*
X104196677Y-114391564D01*
X104201837Y-114391753D01*
X104206957Y-114391097D01*
X104206959Y-114391097D01*
X104418288Y-114364025D01*
X104418289Y-114364025D01*
X104423416Y-114363368D01*
X104428366Y-114361883D01*
X104632429Y-114300661D01*
X104632434Y-114300659D01*
X104637384Y-114299174D01*
X104837994Y-114200896D01*
X105019860Y-114071173D01*
X105087331Y-114003938D01*
X105128479Y-113962933D01*
X105190851Y-113929017D01*
X105261658Y-113934205D01*
X105318419Y-113976851D01*
X105335401Y-114007954D01*
X105376676Y-114118054D01*
X105385214Y-114133649D01*
X105461715Y-114235724D01*
X105474276Y-114248285D01*
X105576351Y-114324786D01*
X105591946Y-114333324D01*
X105712394Y-114378478D01*
X105727649Y-114382105D01*
X105778514Y-114387631D01*
X105785328Y-114388000D01*
X106407885Y-114388000D01*
X106423124Y-114383525D01*
X106424329Y-114382135D01*
X106426000Y-114374452D01*
X106426000Y-111690118D01*
X106415923Y-111655800D01*
X106415923Y-111584804D01*
X106447724Y-111531206D01*
X115942114Y-102036816D01*
X115954505Y-102025949D01*
X115971402Y-102012984D01*
X115971405Y-102012981D01*
X115977955Y-102007955D01*
X116010842Y-101965097D01*
X116069641Y-101888468D01*
X116119251Y-101768699D01*
X116124118Y-101756949D01*
X116124118Y-101756948D01*
X116127277Y-101749322D01*
X116129115Y-101735359D01*
X116142000Y-101637492D01*
X116142000Y-101637486D01*
X116146935Y-101600000D01*
X116143078Y-101570702D01*
X116142000Y-101554256D01*
X116142000Y-97556145D01*
X116162002Y-97488024D01*
X116215658Y-97441531D01*
X116285932Y-97431427D01*
X116350512Y-97460921D01*
X116367962Y-97479441D01*
X116432045Y-97562955D01*
X116438595Y-97567981D01*
X116455495Y-97580949D01*
X116467886Y-97591816D01*
X117673180Y-98797110D01*
X117684047Y-98809500D01*
X117702045Y-98832955D01*
X117732045Y-98855975D01*
X117732046Y-98855976D01*
X117732063Y-98855989D01*
X117732069Y-98855994D01*
X117789892Y-98900363D01*
X117789894Y-98900364D01*
X117821532Y-98924641D01*
X117829158Y-98927800D01*
X117829160Y-98927801D01*
X117919311Y-98965142D01*
X117960678Y-98982277D01*
X117991375Y-98986318D01*
X118072497Y-98996999D01*
X118072506Y-98997000D01*
X118072509Y-98997000D01*
X118072521Y-98997001D01*
X118101811Y-99000857D01*
X118101812Y-99000857D01*
X118110000Y-99001935D01*
X118118188Y-99000857D01*
X118118189Y-99000857D01*
X118139298Y-98998078D01*
X118155744Y-98997000D01*
X138956826Y-98997000D01*
X139024947Y-99017002D01*
X139071440Y-99070658D01*
X139081544Y-99140932D01*
X139062738Y-99191253D01*
X138971235Y-99333238D01*
X138968826Y-99339858D01*
X138968824Y-99339861D01*
X138924670Y-99461173D01*
X138909197Y-99503685D01*
X138886463Y-99683640D01*
X138904163Y-99864160D01*
X138961418Y-100036273D01*
X138965065Y-100042295D01*
X138965066Y-100042297D01*
X139039960Y-100165962D01*
X139055380Y-100191424D01*
X139075357Y-100212111D01*
X139092637Y-100230005D01*
X139125569Y-100292902D01*
X139128000Y-100317532D01*
X139128000Y-102189256D01*
X139126922Y-102205702D01*
X139125749Y-102214616D01*
X139123065Y-102235000D01*
X139128000Y-102272486D01*
X139128000Y-102272492D01*
X139142723Y-102384322D01*
X139200359Y-102523468D01*
X139292045Y-102642955D01*
X139298595Y-102647981D01*
X139315495Y-102660949D01*
X139327886Y-102671816D01*
X146248180Y-109592110D01*
X146259047Y-109604500D01*
X146277045Y-109627955D01*
X146307045Y-109650975D01*
X146307046Y-109650976D01*
X146396532Y-109719641D01*
X146535678Y-109777277D01*
X146685000Y-109796936D01*
X146693188Y-109795858D01*
X146714304Y-109793078D01*
X146730751Y-109792000D01*
X151475880Y-109792000D01*
X151544001Y-109812002D01*
X151564975Y-109828905D01*
X152426095Y-110690025D01*
X152460121Y-110752337D01*
X152463000Y-110779120D01*
X152463000Y-119725880D01*
X152442998Y-119794001D01*
X152426095Y-119814975D01*
X145042886Y-127198184D01*
X145030495Y-127209051D01*
X145007045Y-127227045D01*
X144984025Y-127257045D01*
X144984024Y-127257046D01*
X144984018Y-127257053D01*
X144984015Y-127257057D01*
X144963765Y-127283448D01*
X144915359Y-127346532D01*
X144857723Y-127485678D01*
X144843000Y-127597508D01*
X144843000Y-127597514D01*
X144838065Y-127635000D01*
X144839143Y-127643188D01*
X144839143Y-127643189D01*
X144841922Y-127664298D01*
X144843000Y-127680744D01*
X144843000Y-130747000D01*
X144822998Y-130815121D01*
X144769342Y-130861614D01*
X144717000Y-130873000D01*
X141894121Y-130873000D01*
X141826000Y-130852998D01*
X141805026Y-130836095D01*
X139501816Y-128532886D01*
X139490949Y-128520495D01*
X139477984Y-128503598D01*
X139477981Y-128503595D01*
X139472955Y-128497045D01*
X139440757Y-128472338D01*
X139440750Y-128472332D01*
X139389443Y-128432963D01*
X139347575Y-128375625D01*
X139343353Y-128304754D01*
X139378117Y-128242851D01*
X139440829Y-128209570D01*
X139466146Y-128207000D01*
X140344880Y-128207000D01*
X140413001Y-128227002D01*
X140435515Y-128245472D01*
X140440209Y-128250333D01*
X140446489Y-128256836D01*
X140446493Y-128256839D01*
X140451382Y-128261902D01*
X140457278Y-128265760D01*
X140595239Y-128356039D01*
X140603159Y-128361222D01*
X140609763Y-128363678D01*
X140609765Y-128363679D01*
X140766558Y-128421990D01*
X140766560Y-128421990D01*
X140773168Y-128424448D01*
X140836984Y-128432963D01*
X140945980Y-128447507D01*
X140945984Y-128447507D01*
X140952961Y-128448438D01*
X140959972Y-128447800D01*
X140959976Y-128447800D01*
X141102459Y-128434832D01*
X141133600Y-128431998D01*
X141140302Y-128429820D01*
X141140304Y-128429820D01*
X141299409Y-128378124D01*
X141299412Y-128378123D01*
X141306108Y-128375947D01*
X141425535Y-128304754D01*
X141455860Y-128286677D01*
X141455862Y-128286676D01*
X141461912Y-128283069D01*
X141593266Y-128157982D01*
X141693643Y-128006902D01*
X141752614Y-127851661D01*
X141795503Y-127795083D01*
X141831466Y-127776572D01*
X141934409Y-127743124D01*
X141934412Y-127743123D01*
X141941108Y-127740947D01*
X142069688Y-127664298D01*
X142090860Y-127651677D01*
X142090862Y-127651676D01*
X142096912Y-127648069D01*
X142228266Y-127522982D01*
X142328643Y-127371902D01*
X142387614Y-127216661D01*
X142430503Y-127160083D01*
X142466466Y-127141572D01*
X142569409Y-127108124D01*
X142569412Y-127108123D01*
X142576108Y-127105947D01*
X142731912Y-127013069D01*
X142863266Y-126887982D01*
X142963643Y-126736902D01*
X143022614Y-126581661D01*
X143065503Y-126525083D01*
X143101466Y-126506572D01*
X143204409Y-126473124D01*
X143204412Y-126473123D01*
X143211108Y-126470947D01*
X143366912Y-126378069D01*
X143498266Y-126252982D01*
X143598643Y-126101902D01*
X143657614Y-125946661D01*
X143700503Y-125890083D01*
X143736466Y-125871572D01*
X143839409Y-125838124D01*
X143839412Y-125838123D01*
X143846108Y-125835947D01*
X143942513Y-125778478D01*
X143995860Y-125746677D01*
X143995862Y-125746676D01*
X144001912Y-125743069D01*
X144133266Y-125617982D01*
X144233643Y-125466902D01*
X144292614Y-125311661D01*
X144335503Y-125255083D01*
X144371466Y-125236572D01*
X144474409Y-125203124D01*
X144474412Y-125203123D01*
X144481108Y-125200947D01*
X144636912Y-125108069D01*
X144768266Y-124982982D01*
X144868643Y-124831902D01*
X144927614Y-124676661D01*
X144970503Y-124620083D01*
X145006466Y-124601572D01*
X145109409Y-124568124D01*
X145109412Y-124568123D01*
X145116108Y-124565947D01*
X145221706Y-124502998D01*
X145265860Y-124476677D01*
X145265862Y-124476676D01*
X145271912Y-124473069D01*
X145403266Y-124347982D01*
X145503643Y-124196902D01*
X145562614Y-124041661D01*
X145605503Y-123985083D01*
X145641466Y-123966572D01*
X145744409Y-123933124D01*
X145744412Y-123933123D01*
X145751108Y-123930947D01*
X145906912Y-123838069D01*
X146038266Y-123712982D01*
X146138643Y-123561902D01*
X146203055Y-123392338D01*
X146228299Y-123212717D01*
X146228616Y-123190000D01*
X146208397Y-123009745D01*
X146148745Y-122838448D01*
X146052626Y-122684624D01*
X146010660Y-122642364D01*
X145929778Y-122560915D01*
X145929774Y-122560912D01*
X145924815Y-122555918D01*
X145916688Y-122550760D01*
X145809922Y-122483005D01*
X145771666Y-122458727D01*
X145727449Y-122442982D01*
X145607425Y-122400243D01*
X145607420Y-122400242D01*
X145600790Y-122397881D01*
X145593802Y-122397048D01*
X145593799Y-122397047D01*
X145470698Y-122382368D01*
X145420680Y-122376404D01*
X145413677Y-122377140D01*
X145413676Y-122377140D01*
X145247288Y-122394628D01*
X145247286Y-122394629D01*
X145240288Y-122395364D01*
X145068579Y-122453818D01*
X145010095Y-122489798D01*
X144920095Y-122545166D01*
X144920092Y-122545168D01*
X144914088Y-122548862D01*
X144909053Y-122553793D01*
X144909050Y-122553795D01*
X144880224Y-122582024D01*
X144817559Y-122615394D01*
X144792067Y-122618000D01*
X138084120Y-122618000D01*
X138015999Y-122597998D01*
X137995025Y-122581095D01*
X133786816Y-118372886D01*
X133775949Y-118360495D01*
X133762984Y-118343598D01*
X133762981Y-118343595D01*
X133757955Y-118337045D01*
X133724029Y-118311012D01*
X133638468Y-118245359D01*
X133499322Y-118187723D01*
X133468625Y-118183682D01*
X133387503Y-118173001D01*
X133387494Y-118173000D01*
X133387491Y-118173000D01*
X133387479Y-118172999D01*
X133358189Y-118169143D01*
X133358188Y-118169143D01*
X133350000Y-118168065D01*
X133341812Y-118169143D01*
X133341811Y-118169143D01*
X133320702Y-118171922D01*
X133304256Y-118173000D01*
X130238000Y-118173000D01*
X130169879Y-118152998D01*
X130123386Y-118099342D01*
X130112000Y-118047000D01*
X130112000Y-114341200D01*
X130132002Y-114273079D01*
X130182568Y-114228049D01*
X130233346Y-114203173D01*
X130237994Y-114200896D01*
X130419860Y-114071173D01*
X130528091Y-113963319D01*
X130590462Y-113929404D01*
X130661268Y-113934592D01*
X130718030Y-113977238D01*
X130735012Y-114008341D01*
X130757201Y-114067529D01*
X130779385Y-114126705D01*
X130866739Y-114243261D01*
X130983295Y-114330615D01*
X131119684Y-114381745D01*
X131181866Y-114388500D01*
X132978134Y-114388500D01*
X133040316Y-114381745D01*
X133176705Y-114330615D01*
X133293261Y-114243261D01*
X133380615Y-114126705D01*
X133402799Y-114067529D01*
X133424598Y-114009382D01*
X133467240Y-113952618D01*
X133533802Y-113927918D01*
X133603150Y-113943126D01*
X133637817Y-113971114D01*
X133666250Y-114003938D01*
X133838126Y-114146632D01*
X134031000Y-114259338D01*
X134035825Y-114261180D01*
X134035826Y-114261181D01*
X134096707Y-114284429D01*
X134239692Y-114339030D01*
X134244760Y-114340061D01*
X134244763Y-114340062D01*
X134352017Y-114361883D01*
X134458597Y-114383567D01*
X134463772Y-114383757D01*
X134463774Y-114383757D01*
X134676673Y-114391564D01*
X134676677Y-114391564D01*
X134681837Y-114391753D01*
X134686957Y-114391097D01*
X134686959Y-114391097D01*
X134898288Y-114364025D01*
X134898289Y-114364025D01*
X134903416Y-114363368D01*
X134908366Y-114361883D01*
X135112429Y-114300661D01*
X135112434Y-114300659D01*
X135117384Y-114299174D01*
X135317994Y-114200896D01*
X135499860Y-114071173D01*
X135658096Y-113913489D01*
X135671919Y-113894253D01*
X135788453Y-113732077D01*
X135789776Y-113733028D01*
X135836645Y-113689857D01*
X135906580Y-113677625D01*
X135972026Y-113705144D01*
X135999875Y-113736994D01*
X136059987Y-113835088D01*
X136206250Y-114003938D01*
X136378126Y-114146632D01*
X136571000Y-114259338D01*
X136575825Y-114261180D01*
X136575826Y-114261181D01*
X136636707Y-114284429D01*
X136779692Y-114339030D01*
X136784760Y-114340061D01*
X136784763Y-114340062D01*
X136892017Y-114361883D01*
X136998597Y-114383567D01*
X137003772Y-114383757D01*
X137003774Y-114383757D01*
X137216673Y-114391564D01*
X137216677Y-114391564D01*
X137221837Y-114391753D01*
X137226957Y-114391097D01*
X137226959Y-114391097D01*
X137438288Y-114364025D01*
X137438289Y-114364025D01*
X137443416Y-114363368D01*
X137448366Y-114361883D01*
X137652429Y-114300661D01*
X137652434Y-114300659D01*
X137657384Y-114299174D01*
X137857994Y-114200896D01*
X138039860Y-114071173D01*
X138198096Y-113913489D01*
X138211919Y-113894253D01*
X138328453Y-113732077D01*
X138329776Y-113733028D01*
X138376645Y-113689857D01*
X138446580Y-113677625D01*
X138512026Y-113705144D01*
X138539875Y-113736994D01*
X138599987Y-113835088D01*
X138746250Y-114003938D01*
X138918126Y-114146632D01*
X139111000Y-114259338D01*
X139115825Y-114261180D01*
X139115826Y-114261181D01*
X139176707Y-114284429D01*
X139319692Y-114339030D01*
X139324760Y-114340061D01*
X139324763Y-114340062D01*
X139432017Y-114361883D01*
X139538597Y-114383567D01*
X139543772Y-114383757D01*
X139543774Y-114383757D01*
X139756673Y-114391564D01*
X139756677Y-114391564D01*
X139761837Y-114391753D01*
X139766957Y-114391097D01*
X139766959Y-114391097D01*
X139978288Y-114364025D01*
X139978289Y-114364025D01*
X139983416Y-114363368D01*
X139988366Y-114361883D01*
X140192429Y-114300661D01*
X140192434Y-114300659D01*
X140197384Y-114299174D01*
X140397994Y-114200896D01*
X140579860Y-114071173D01*
X140738096Y-113913489D01*
X140751919Y-113894253D01*
X140868453Y-113732077D01*
X140869776Y-113733028D01*
X140916645Y-113689857D01*
X140986580Y-113677625D01*
X141052026Y-113705144D01*
X141079875Y-113736994D01*
X141139987Y-113835088D01*
X141286250Y-114003938D01*
X141458126Y-114146632D01*
X141651000Y-114259338D01*
X141655825Y-114261180D01*
X141655826Y-114261181D01*
X141716707Y-114284429D01*
X141859692Y-114339030D01*
X141864760Y-114340061D01*
X141864763Y-114340062D01*
X141972017Y-114361883D01*
X142078597Y-114383567D01*
X142083772Y-114383757D01*
X142083774Y-114383757D01*
X142296673Y-114391564D01*
X142296677Y-114391564D01*
X142301837Y-114391753D01*
X142306957Y-114391097D01*
X142306959Y-114391097D01*
X142518288Y-114364025D01*
X142518289Y-114364025D01*
X142523416Y-114363368D01*
X142528366Y-114361883D01*
X142732429Y-114300661D01*
X142732434Y-114300659D01*
X142737384Y-114299174D01*
X142937994Y-114200896D01*
X143119860Y-114071173D01*
X143187331Y-114003938D01*
X143228479Y-113962933D01*
X143290851Y-113929017D01*
X143361658Y-113934205D01*
X143418419Y-113976851D01*
X143435401Y-114007954D01*
X143476676Y-114118054D01*
X143485214Y-114133649D01*
X143561715Y-114235724D01*
X143574276Y-114248285D01*
X143676351Y-114324786D01*
X143691946Y-114333324D01*
X143812394Y-114378478D01*
X143827649Y-114382105D01*
X143878514Y-114387631D01*
X143885328Y-114388000D01*
X144507885Y-114388000D01*
X144523124Y-114383525D01*
X144524329Y-114382135D01*
X144526000Y-114374452D01*
X144526000Y-114369884D01*
X145034000Y-114369884D01*
X145038475Y-114385123D01*
X145039865Y-114386328D01*
X145047548Y-114387999D01*
X145674669Y-114387999D01*
X145681490Y-114387629D01*
X145732352Y-114382105D01*
X145747604Y-114378479D01*
X145868054Y-114333324D01*
X145883649Y-114324786D01*
X145985724Y-114248285D01*
X145998285Y-114235724D01*
X146074786Y-114133649D01*
X146083324Y-114118054D01*
X146124225Y-114008952D01*
X146166867Y-113952188D01*
X146233428Y-113927488D01*
X146302777Y-113942696D01*
X146337444Y-113970684D01*
X146362865Y-114000031D01*
X146362869Y-114000035D01*
X146366250Y-114003938D01*
X146538126Y-114146632D01*
X146731000Y-114259338D01*
X146735825Y-114261180D01*
X146735826Y-114261181D01*
X146796707Y-114284429D01*
X146939692Y-114339030D01*
X146944760Y-114340061D01*
X146944763Y-114340062D01*
X147052017Y-114361883D01*
X147158597Y-114383567D01*
X147163772Y-114383757D01*
X147163774Y-114383757D01*
X147376673Y-114391564D01*
X147376677Y-114391564D01*
X147381837Y-114391753D01*
X147386957Y-114391097D01*
X147386959Y-114391097D01*
X147598288Y-114364025D01*
X147598289Y-114364025D01*
X147603416Y-114363368D01*
X147608366Y-114361883D01*
X147812429Y-114300661D01*
X147812434Y-114300659D01*
X147817384Y-114299174D01*
X148017994Y-114200896D01*
X148199860Y-114071173D01*
X148358096Y-113913489D01*
X148371919Y-113894253D01*
X148488453Y-113732077D01*
X148489776Y-113733028D01*
X148536645Y-113689857D01*
X148606580Y-113677625D01*
X148672026Y-113705144D01*
X148699875Y-113736994D01*
X148759987Y-113835088D01*
X148906250Y-114003938D01*
X149078126Y-114146632D01*
X149271000Y-114259338D01*
X149275825Y-114261180D01*
X149275826Y-114261181D01*
X149336707Y-114284429D01*
X149479692Y-114339030D01*
X149484760Y-114340061D01*
X149484763Y-114340062D01*
X149592017Y-114361883D01*
X149698597Y-114383567D01*
X149703772Y-114383757D01*
X149703774Y-114383757D01*
X149916673Y-114391564D01*
X149916677Y-114391564D01*
X149921837Y-114391753D01*
X149926957Y-114391097D01*
X149926959Y-114391097D01*
X150138288Y-114364025D01*
X150138289Y-114364025D01*
X150143416Y-114363368D01*
X150148366Y-114361883D01*
X150352429Y-114300661D01*
X150352434Y-114300659D01*
X150357384Y-114299174D01*
X150557994Y-114200896D01*
X150739860Y-114071173D01*
X150898096Y-113913489D01*
X150911919Y-113894253D01*
X151025435Y-113736277D01*
X151028453Y-113732077D01*
X151049320Y-113689857D01*
X151125136Y-113536453D01*
X151125137Y-113536451D01*
X151127430Y-113531811D01*
X151192370Y-113318069D01*
X151221529Y-113096590D01*
X151223156Y-113030000D01*
X151204852Y-112807361D01*
X151150431Y-112590702D01*
X151061354Y-112385840D01*
X150990228Y-112275896D01*
X150942822Y-112202617D01*
X150942820Y-112202614D01*
X150940014Y-112198277D01*
X150789670Y-112033051D01*
X150785619Y-112029852D01*
X150785615Y-112029848D01*
X150618414Y-111897800D01*
X150618410Y-111897798D01*
X150614359Y-111894598D01*
X150418789Y-111786638D01*
X150413920Y-111784914D01*
X150413916Y-111784912D01*
X150213087Y-111713795D01*
X150213083Y-111713794D01*
X150208212Y-111712069D01*
X150203119Y-111711162D01*
X150203116Y-111711161D01*
X149993373Y-111673800D01*
X149993367Y-111673799D01*
X149988284Y-111672894D01*
X149914452Y-111671992D01*
X149770081Y-111670228D01*
X149770079Y-111670228D01*
X149764911Y-111670165D01*
X149544091Y-111703955D01*
X149331756Y-111773357D01*
X149301443Y-111789137D01*
X149149711Y-111868124D01*
X149133607Y-111876507D01*
X149129474Y-111879610D01*
X149129471Y-111879612D01*
X148979602Y-111992137D01*
X148954965Y-112010635D01*
X148915525Y-112051907D01*
X148843729Y-112127037D01*
X148800629Y-112172138D01*
X148693201Y-112329621D01*
X148638293Y-112374621D01*
X148567768Y-112382792D01*
X148504021Y-112351538D01*
X148483324Y-112327054D01*
X148402822Y-112202617D01*
X148402820Y-112202614D01*
X148400014Y-112198277D01*
X148249670Y-112033051D01*
X148245619Y-112029852D01*
X148245615Y-112029848D01*
X148078414Y-111897800D01*
X148078410Y-111897798D01*
X148074359Y-111894598D01*
X147878789Y-111786638D01*
X147873920Y-111784914D01*
X147873916Y-111784912D01*
X147673087Y-111713795D01*
X147673083Y-111713794D01*
X147668212Y-111712069D01*
X147663119Y-111711162D01*
X147663116Y-111711161D01*
X147453373Y-111673800D01*
X147453367Y-111673799D01*
X147448284Y-111672894D01*
X147374452Y-111671992D01*
X147230081Y-111670228D01*
X147230079Y-111670228D01*
X147224911Y-111670165D01*
X147004091Y-111703955D01*
X146791756Y-111773357D01*
X146761443Y-111789137D01*
X146609711Y-111868124D01*
X146593607Y-111876507D01*
X146589474Y-111879610D01*
X146589471Y-111879612D01*
X146439602Y-111992137D01*
X146414965Y-112010635D01*
X146411393Y-112014373D01*
X146333898Y-112095466D01*
X146272374Y-112130895D01*
X146201462Y-112127438D01*
X146143676Y-112086192D01*
X146124823Y-112052644D01*
X146083324Y-111941946D01*
X146074786Y-111926351D01*
X145998285Y-111824276D01*
X145985724Y-111811715D01*
X145883649Y-111735214D01*
X145868054Y-111726676D01*
X145747606Y-111681522D01*
X145732351Y-111677895D01*
X145681486Y-111672369D01*
X145674672Y-111672000D01*
X145052115Y-111672000D01*
X145036876Y-111676475D01*
X145035671Y-111677865D01*
X145034000Y-111685548D01*
X145034000Y-114369884D01*
X144526000Y-114369884D01*
X144526000Y-111690116D01*
X144521525Y-111674877D01*
X144520135Y-111673672D01*
X144512452Y-111672001D01*
X143885331Y-111672001D01*
X143878510Y-111672371D01*
X143827648Y-111677895D01*
X143812396Y-111681521D01*
X143691946Y-111726676D01*
X143676351Y-111735214D01*
X143574276Y-111811715D01*
X143561715Y-111824276D01*
X143485214Y-111926351D01*
X143476676Y-111941946D01*
X143435297Y-112052322D01*
X143392655Y-112109087D01*
X143326093Y-112133786D01*
X143256744Y-112118578D01*
X143224121Y-112092891D01*
X143173151Y-112036876D01*
X143173145Y-112036870D01*
X143169670Y-112033051D01*
X143165619Y-112029852D01*
X143165615Y-112029848D01*
X142998414Y-111897800D01*
X142998410Y-111897798D01*
X142994359Y-111894598D01*
X142798789Y-111786638D01*
X142793920Y-111784914D01*
X142793916Y-111784912D01*
X142593087Y-111713795D01*
X142593083Y-111713794D01*
X142588212Y-111712069D01*
X142583119Y-111711162D01*
X142583116Y-111711161D01*
X142373373Y-111673800D01*
X142373367Y-111673799D01*
X142368284Y-111672894D01*
X142294452Y-111671992D01*
X142150081Y-111670228D01*
X142150079Y-111670228D01*
X142144911Y-111670165D01*
X141924091Y-111703955D01*
X141711756Y-111773357D01*
X141681443Y-111789137D01*
X141529711Y-111868124D01*
X141513607Y-111876507D01*
X141509474Y-111879610D01*
X141509471Y-111879612D01*
X141359602Y-111992137D01*
X141334965Y-112010635D01*
X141295525Y-112051907D01*
X141223729Y-112127037D01*
X141180629Y-112172138D01*
X141073201Y-112329621D01*
X141018293Y-112374621D01*
X140947768Y-112382792D01*
X140884021Y-112351538D01*
X140863324Y-112327054D01*
X140782822Y-112202617D01*
X140782820Y-112202614D01*
X140780014Y-112198277D01*
X140629670Y-112033051D01*
X140625619Y-112029852D01*
X140625615Y-112029848D01*
X140458414Y-111897800D01*
X140458410Y-111897798D01*
X140454359Y-111894598D01*
X140258789Y-111786638D01*
X140253920Y-111784914D01*
X140253916Y-111784912D01*
X140053087Y-111713795D01*
X140053083Y-111713794D01*
X140048212Y-111712069D01*
X140043119Y-111711162D01*
X140043116Y-111711161D01*
X139833373Y-111673800D01*
X139833367Y-111673799D01*
X139828284Y-111672894D01*
X139754452Y-111671992D01*
X139610081Y-111670228D01*
X139610079Y-111670228D01*
X139604911Y-111670165D01*
X139384091Y-111703955D01*
X139171756Y-111773357D01*
X139141443Y-111789137D01*
X138989711Y-111868124D01*
X138973607Y-111876507D01*
X138969474Y-111879610D01*
X138969471Y-111879612D01*
X138819602Y-111992137D01*
X138794965Y-112010635D01*
X138755525Y-112051907D01*
X138683729Y-112127037D01*
X138640629Y-112172138D01*
X138533201Y-112329621D01*
X138478293Y-112374621D01*
X138407768Y-112382792D01*
X138344021Y-112351538D01*
X138323324Y-112327054D01*
X138242822Y-112202617D01*
X138242820Y-112202614D01*
X138240014Y-112198277D01*
X138089670Y-112033051D01*
X138085619Y-112029852D01*
X138085615Y-112029848D01*
X137918414Y-111897800D01*
X137918410Y-111897798D01*
X137914359Y-111894598D01*
X137718789Y-111786638D01*
X137713920Y-111784914D01*
X137713916Y-111784912D01*
X137513087Y-111713795D01*
X137513083Y-111713794D01*
X137508212Y-111712069D01*
X137503119Y-111711162D01*
X137503116Y-111711161D01*
X137293373Y-111673800D01*
X137293367Y-111673799D01*
X137288284Y-111672894D01*
X137214452Y-111671992D01*
X137070081Y-111670228D01*
X137070079Y-111670228D01*
X137064911Y-111670165D01*
X136844091Y-111703955D01*
X136631756Y-111773357D01*
X136601443Y-111789137D01*
X136449711Y-111868124D01*
X136433607Y-111876507D01*
X136429474Y-111879610D01*
X136429471Y-111879612D01*
X136279602Y-111992137D01*
X136254965Y-112010635D01*
X136215525Y-112051907D01*
X136143729Y-112127037D01*
X136100629Y-112172138D01*
X135993201Y-112329621D01*
X135938293Y-112374621D01*
X135867768Y-112382792D01*
X135804021Y-112351538D01*
X135783324Y-112327054D01*
X135702822Y-112202617D01*
X135702820Y-112202614D01*
X135700014Y-112198277D01*
X135549670Y-112033051D01*
X135545619Y-112029852D01*
X135545615Y-112029848D01*
X135378414Y-111897800D01*
X135378410Y-111897798D01*
X135374359Y-111894598D01*
X135178789Y-111786638D01*
X135173920Y-111784914D01*
X135173916Y-111784912D01*
X134973087Y-111713795D01*
X134973083Y-111713794D01*
X134968212Y-111712069D01*
X134963119Y-111711162D01*
X134963116Y-111711161D01*
X134753373Y-111673800D01*
X134753367Y-111673799D01*
X134748284Y-111672894D01*
X134674452Y-111671992D01*
X134530081Y-111670228D01*
X134530079Y-111670228D01*
X134524911Y-111670165D01*
X134304091Y-111703955D01*
X134091756Y-111773357D01*
X134061443Y-111789137D01*
X133909711Y-111868124D01*
X133893607Y-111876507D01*
X133889474Y-111879610D01*
X133889471Y-111879612D01*
X133739602Y-111992137D01*
X133714965Y-112010635D01*
X133636360Y-112092891D01*
X133634283Y-112095064D01*
X133572759Y-112130494D01*
X133501846Y-112127037D01*
X133444060Y-112085791D01*
X133425207Y-112052243D01*
X133383767Y-111941703D01*
X133380615Y-111933295D01*
X133293261Y-111816739D01*
X133176705Y-111729385D01*
X133040316Y-111678255D01*
X132978134Y-111671500D01*
X131181866Y-111671500D01*
X131119684Y-111678255D01*
X130983295Y-111729385D01*
X130866739Y-111816739D01*
X130779385Y-111933295D01*
X130776233Y-111941703D01*
X130734919Y-112051907D01*
X130692277Y-112108671D01*
X130625716Y-112133371D01*
X130556367Y-112118163D01*
X130523743Y-112092476D01*
X130473151Y-112036875D01*
X130473142Y-112036866D01*
X130469670Y-112033051D01*
X130465619Y-112029852D01*
X130465615Y-112029848D01*
X130298414Y-111897800D01*
X130298410Y-111897798D01*
X130294359Y-111894598D01*
X130098789Y-111786638D01*
X130093920Y-111784914D01*
X130093916Y-111784912D01*
X129893087Y-111713795D01*
X129893083Y-111713794D01*
X129888212Y-111712069D01*
X129883119Y-111711162D01*
X129883116Y-111711161D01*
X129673373Y-111673800D01*
X129673367Y-111673799D01*
X129668284Y-111672894D01*
X129594452Y-111671992D01*
X129450081Y-111670228D01*
X129450079Y-111670228D01*
X129444911Y-111670165D01*
X129224091Y-111703955D01*
X129011756Y-111773357D01*
X128981443Y-111789137D01*
X128829711Y-111868124D01*
X128813607Y-111876507D01*
X128809474Y-111879610D01*
X128809471Y-111879612D01*
X128659602Y-111992137D01*
X128634965Y-112010635D01*
X128595525Y-112051907D01*
X128523729Y-112127037D01*
X128480629Y-112172138D01*
X128373201Y-112329621D01*
X128318293Y-112374621D01*
X128247768Y-112382792D01*
X128184021Y-112351538D01*
X128163324Y-112327054D01*
X128082822Y-112202617D01*
X128082820Y-112202614D01*
X128080014Y-112198277D01*
X127929670Y-112033051D01*
X127925619Y-112029852D01*
X127925615Y-112029848D01*
X127758414Y-111897800D01*
X127758410Y-111897798D01*
X127754359Y-111894598D01*
X127558789Y-111786638D01*
X127553920Y-111784914D01*
X127553916Y-111784912D01*
X127353087Y-111713795D01*
X127353083Y-111713794D01*
X127348212Y-111712069D01*
X127343119Y-111711162D01*
X127343116Y-111711161D01*
X127133373Y-111673800D01*
X127133367Y-111673799D01*
X127128284Y-111672894D01*
X127054452Y-111671992D01*
X126910081Y-111670228D01*
X126910079Y-111670228D01*
X126904911Y-111670165D01*
X126684091Y-111703955D01*
X126471756Y-111773357D01*
X126441443Y-111789137D01*
X126289711Y-111868124D01*
X126273607Y-111876507D01*
X126269474Y-111879610D01*
X126269471Y-111879612D01*
X126119602Y-111992137D01*
X126094965Y-112010635D01*
X126055525Y-112051907D01*
X125983729Y-112127037D01*
X125940629Y-112172138D01*
X125833201Y-112329621D01*
X125778293Y-112374621D01*
X125707768Y-112382792D01*
X125644021Y-112351538D01*
X125623324Y-112327054D01*
X125542822Y-112202617D01*
X125542820Y-112202614D01*
X125540014Y-112198277D01*
X125389670Y-112033051D01*
X125385619Y-112029852D01*
X125385615Y-112029848D01*
X125218414Y-111897800D01*
X125218410Y-111897798D01*
X125214359Y-111894598D01*
X125018789Y-111786638D01*
X125013920Y-111784914D01*
X125013916Y-111784912D01*
X124813087Y-111713795D01*
X124813083Y-111713794D01*
X124808212Y-111712069D01*
X124803119Y-111711162D01*
X124803116Y-111711161D01*
X124593373Y-111673800D01*
X124593367Y-111673799D01*
X124588284Y-111672894D01*
X124514452Y-111671992D01*
X124370081Y-111670228D01*
X124370079Y-111670228D01*
X124364911Y-111670165D01*
X124144091Y-111703955D01*
X123931756Y-111773357D01*
X123901443Y-111789137D01*
X123749711Y-111868124D01*
X123733607Y-111876507D01*
X123729474Y-111879610D01*
X123729471Y-111879612D01*
X123579602Y-111992137D01*
X123554965Y-112010635D01*
X123515525Y-112051907D01*
X123443729Y-112127037D01*
X123400629Y-112172138D01*
X123293201Y-112329621D01*
X123238293Y-112374621D01*
X123167768Y-112382792D01*
X123104021Y-112351538D01*
X123083324Y-112327054D01*
X123002822Y-112202617D01*
X123002820Y-112202614D01*
X123000014Y-112198277D01*
X122849670Y-112033051D01*
X122845619Y-112029852D01*
X122845615Y-112029848D01*
X122678414Y-111897800D01*
X122678410Y-111897798D01*
X122674359Y-111894598D01*
X122478789Y-111786638D01*
X122473920Y-111784914D01*
X122473916Y-111784912D01*
X122273087Y-111713795D01*
X122273083Y-111713794D01*
X122268212Y-111712069D01*
X122263119Y-111711162D01*
X122263116Y-111711161D01*
X122053373Y-111673800D01*
X122053367Y-111673799D01*
X122048284Y-111672894D01*
X121974452Y-111671992D01*
X121830081Y-111670228D01*
X121830079Y-111670228D01*
X121824911Y-111670165D01*
X121604091Y-111703955D01*
X121391756Y-111773357D01*
X121361443Y-111789137D01*
X121209711Y-111868124D01*
X121193607Y-111876507D01*
X121189474Y-111879610D01*
X121189471Y-111879612D01*
X121039602Y-111992137D01*
X121014965Y-112010635D01*
X120936360Y-112092891D01*
X120934283Y-112095064D01*
X120872759Y-112130494D01*
X120801846Y-112127037D01*
X120744060Y-112085791D01*
X120725207Y-112052243D01*
X120683767Y-111941703D01*
X120680615Y-111933295D01*
X120593261Y-111816739D01*
X120476705Y-111729385D01*
X120340316Y-111678255D01*
X120278134Y-111671500D01*
X118481866Y-111671500D01*
X118419684Y-111678255D01*
X118283295Y-111729385D01*
X118166739Y-111816739D01*
X118079385Y-111933295D01*
X118076233Y-111941703D01*
X118034919Y-112051907D01*
X117992277Y-112108671D01*
X117925716Y-112133371D01*
X117856367Y-112118163D01*
X117823743Y-112092476D01*
X117773151Y-112036875D01*
X117773142Y-112036866D01*
X117769670Y-112033051D01*
X117765619Y-112029852D01*
X117765615Y-112029848D01*
X117598414Y-111897800D01*
X117598410Y-111897798D01*
X117594359Y-111894598D01*
X117398789Y-111786638D01*
X117393920Y-111784914D01*
X117393916Y-111784912D01*
X117193087Y-111713795D01*
X117193083Y-111713794D01*
X117188212Y-111712069D01*
X117183119Y-111711162D01*
X117183116Y-111711161D01*
X116973373Y-111673800D01*
X116973367Y-111673799D01*
X116968284Y-111672894D01*
X116894452Y-111671992D01*
X116750081Y-111670228D01*
X116750079Y-111670228D01*
X116744911Y-111670165D01*
X116524091Y-111703955D01*
X116311756Y-111773357D01*
X116281443Y-111789137D01*
X116129711Y-111868124D01*
X116113607Y-111876507D01*
X116109474Y-111879610D01*
X116109471Y-111879612D01*
X115959602Y-111992137D01*
X115934965Y-112010635D01*
X115895525Y-112051907D01*
X115823729Y-112127037D01*
X115780629Y-112172138D01*
X115673201Y-112329621D01*
X115618293Y-112374621D01*
X115547768Y-112382792D01*
X115484021Y-112351538D01*
X115463324Y-112327054D01*
X115382822Y-112202617D01*
X115382820Y-112202614D01*
X115380014Y-112198277D01*
X115229670Y-112033051D01*
X115225619Y-112029852D01*
X115225615Y-112029848D01*
X115058414Y-111897800D01*
X115058410Y-111897798D01*
X115054359Y-111894598D01*
X114858789Y-111786638D01*
X114853920Y-111784914D01*
X114853916Y-111784912D01*
X114653087Y-111713795D01*
X114653083Y-111713794D01*
X114648212Y-111712069D01*
X114643119Y-111711162D01*
X114643116Y-111711161D01*
X114433373Y-111673800D01*
X114433367Y-111673799D01*
X114428284Y-111672894D01*
X114354452Y-111671992D01*
X114210081Y-111670228D01*
X114210079Y-111670228D01*
X114204911Y-111670165D01*
X113984091Y-111703955D01*
X113771756Y-111773357D01*
X113741443Y-111789137D01*
X113589711Y-111868124D01*
X113573607Y-111876507D01*
X113569474Y-111879610D01*
X113569471Y-111879612D01*
X113419602Y-111992137D01*
X113394965Y-112010635D01*
X113355525Y-112051907D01*
X113283729Y-112127037D01*
X113240629Y-112172138D01*
X113133201Y-112329621D01*
X113078293Y-112374621D01*
X113007768Y-112382792D01*
X112944021Y-112351538D01*
X112923324Y-112327054D01*
X112842822Y-112202617D01*
X112842820Y-112202614D01*
X112840014Y-112198277D01*
X112689670Y-112033051D01*
X112685619Y-112029852D01*
X112685615Y-112029848D01*
X112518414Y-111897800D01*
X112518410Y-111897798D01*
X112514359Y-111894598D01*
X112318789Y-111786638D01*
X112313920Y-111784914D01*
X112313916Y-111784912D01*
X112113087Y-111713795D01*
X112113083Y-111713794D01*
X112108212Y-111712069D01*
X112103119Y-111711162D01*
X112103116Y-111711161D01*
X111893373Y-111673800D01*
X111893367Y-111673799D01*
X111888284Y-111672894D01*
X111814452Y-111671992D01*
X111670081Y-111670228D01*
X111670079Y-111670228D01*
X111664911Y-111670165D01*
X111444091Y-111703955D01*
X111231756Y-111773357D01*
X111201443Y-111789137D01*
X111049711Y-111868124D01*
X111033607Y-111876507D01*
X111029474Y-111879610D01*
X111029471Y-111879612D01*
X110879602Y-111992137D01*
X110854965Y-112010635D01*
X110815525Y-112051907D01*
X110743729Y-112127037D01*
X110700629Y-112172138D01*
X110593201Y-112329621D01*
X110538293Y-112374621D01*
X110467768Y-112382792D01*
X110404021Y-112351538D01*
X110383324Y-112327054D01*
X110302822Y-112202617D01*
X110302820Y-112202614D01*
X110300014Y-112198277D01*
X110149670Y-112033051D01*
X110145619Y-112029852D01*
X110145615Y-112029848D01*
X109978414Y-111897800D01*
X109978410Y-111897798D01*
X109974359Y-111894598D01*
X109778789Y-111786638D01*
X109773920Y-111784914D01*
X109773916Y-111784912D01*
X109573087Y-111713795D01*
X109573083Y-111713794D01*
X109568212Y-111712069D01*
X109563119Y-111711162D01*
X109563116Y-111711161D01*
X109353373Y-111673800D01*
X109353367Y-111673799D01*
X109348284Y-111672894D01*
X109274452Y-111671992D01*
X109130081Y-111670228D01*
X109130079Y-111670228D01*
X109124911Y-111670165D01*
X108904091Y-111703955D01*
X108691756Y-111773357D01*
X108661443Y-111789137D01*
X108509711Y-111868124D01*
X108493607Y-111876507D01*
X108489474Y-111879610D01*
X108489471Y-111879612D01*
X108339602Y-111992137D01*
X108314965Y-112010635D01*
X108311393Y-112014373D01*
X108233898Y-112095466D01*
X108172374Y-112130895D01*
X108101462Y-112127438D01*
X108043676Y-112086192D01*
X108024823Y-112052644D01*
X107983324Y-111941946D01*
X107974786Y-111926351D01*
X107898285Y-111824276D01*
X107885724Y-111811715D01*
X107783649Y-111735214D01*
X107768054Y-111726676D01*
X107647606Y-111681522D01*
X107632351Y-111677895D01*
X107581486Y-111672369D01*
X107574672Y-111672000D01*
X106952115Y-111672000D01*
X106936876Y-111676475D01*
X106935671Y-111677865D01*
X106934000Y-111685548D01*
X106934000Y-114369884D01*
X106938475Y-114385123D01*
X106939865Y-114386328D01*
X106947548Y-114387999D01*
X107574669Y-114387999D01*
X107581490Y-114387629D01*
X107632352Y-114382105D01*
X107647604Y-114378479D01*
X107768054Y-114333324D01*
X107783649Y-114324786D01*
X107885724Y-114248285D01*
X107898285Y-114235724D01*
X107974786Y-114133649D01*
X107983324Y-114118054D01*
X108024225Y-114008952D01*
X108066867Y-113952188D01*
X108133428Y-113927488D01*
X108202777Y-113942696D01*
X108237444Y-113970684D01*
X108262865Y-114000031D01*
X108262869Y-114000035D01*
X108266250Y-114003938D01*
X108438126Y-114146632D01*
X108474842Y-114168087D01*
X108584976Y-114232444D01*
X108633700Y-114284083D01*
X108646328Y-114324786D01*
X108648000Y-114337486D01*
X108648000Y-114337492D01*
X108662723Y-114449322D01*
X108720359Y-114588468D01*
X108812045Y-114707955D01*
X108818595Y-114712981D01*
X108835495Y-114725949D01*
X108847886Y-114736816D01*
X111814475Y-117703405D01*
X111848501Y-117765717D01*
X111843436Y-117836532D01*
X111814475Y-117881595D01*
X108621098Y-121074972D01*
X108558786Y-121108998D01*
X108545177Y-121111186D01*
X108493507Y-121116617D01*
X108417288Y-121124628D01*
X108417286Y-121124629D01*
X108410288Y-121125364D01*
X108238579Y-121183818D01*
X108232575Y-121187512D01*
X108090095Y-121275166D01*
X108090092Y-121275168D01*
X108084088Y-121278862D01*
X108079053Y-121283793D01*
X108079050Y-121283795D01*
X107959525Y-121400843D01*
X107954493Y-121405771D01*
X107856235Y-121558238D01*
X107794197Y-121728685D01*
X107771463Y-121908640D01*
X107789163Y-122089160D01*
X107846418Y-122261273D01*
X107850065Y-122267295D01*
X107850066Y-122267297D01*
X107930581Y-122400243D01*
X107940380Y-122416424D01*
X108066382Y-122546902D01*
X108218159Y-122646222D01*
X108224763Y-122648678D01*
X108224765Y-122648679D01*
X108381558Y-122706990D01*
X108381560Y-122706990D01*
X108388168Y-122709448D01*
X108471995Y-122720633D01*
X108560980Y-122732507D01*
X108560984Y-122732507D01*
X108567961Y-122733438D01*
X108574972Y-122732800D01*
X108574976Y-122732800D01*
X108717459Y-122719832D01*
X108748600Y-122716998D01*
X108755302Y-122714820D01*
X108755304Y-122714820D01*
X108914409Y-122663124D01*
X108914412Y-122663123D01*
X108921108Y-122660947D01*
X109026706Y-122597998D01*
X109070860Y-122571677D01*
X109070862Y-122571676D01*
X109076912Y-122568069D01*
X109132118Y-122515497D01*
X109195243Y-122483005D01*
X109265914Y-122489798D01*
X109309643Y-122519214D01*
X109336382Y-122546902D01*
X109488159Y-122646222D01*
X109494763Y-122648678D01*
X109494765Y-122648679D01*
X109651558Y-122706990D01*
X109651560Y-122706990D01*
X109658168Y-122709448D01*
X109741995Y-122720633D01*
X109830980Y-122732507D01*
X109830984Y-122732507D01*
X109837961Y-122733438D01*
X109844972Y-122732800D01*
X109844976Y-122732800D01*
X109987459Y-122719832D01*
X110018600Y-122716998D01*
X110025302Y-122714820D01*
X110025304Y-122714820D01*
X110184409Y-122663124D01*
X110184412Y-122663123D01*
X110191108Y-122660947D01*
X110296706Y-122597998D01*
X110340860Y-122571677D01*
X110340862Y-122571676D01*
X110346912Y-122568069D01*
X110402118Y-122515497D01*
X110465243Y-122483005D01*
X110535914Y-122489798D01*
X110579643Y-122519214D01*
X110606382Y-122546902D01*
X110758159Y-122646222D01*
X110764763Y-122648678D01*
X110764765Y-122648679D01*
X110921558Y-122706990D01*
X110921560Y-122706990D01*
X110928168Y-122709448D01*
X111011995Y-122720633D01*
X111100980Y-122732507D01*
X111100984Y-122732507D01*
X111107961Y-122733438D01*
X111114972Y-122732800D01*
X111114976Y-122732800D01*
X111257459Y-122719832D01*
X111288600Y-122716998D01*
X111295302Y-122714820D01*
X111295304Y-122714820D01*
X111454409Y-122663124D01*
X111454412Y-122663123D01*
X111461108Y-122660947D01*
X111566706Y-122597998D01*
X111610860Y-122571677D01*
X111610862Y-122571676D01*
X111616912Y-122568069D01*
X111672118Y-122515497D01*
X111735243Y-122483005D01*
X111805914Y-122489798D01*
X111849643Y-122519214D01*
X111876382Y-122546902D01*
X112028159Y-122646222D01*
X112034763Y-122648678D01*
X112034765Y-122648679D01*
X112191558Y-122706990D01*
X112191560Y-122706990D01*
X112198168Y-122709448D01*
X112281995Y-122720633D01*
X112370980Y-122732507D01*
X112370984Y-122732507D01*
X112377961Y-122733438D01*
X112384972Y-122732800D01*
X112384976Y-122732800D01*
X112527459Y-122719832D01*
X112558600Y-122716998D01*
X112565302Y-122714820D01*
X112565304Y-122714820D01*
X112724409Y-122663124D01*
X112724412Y-122663123D01*
X112731108Y-122660947D01*
X112836706Y-122597998D01*
X112880860Y-122571677D01*
X112880862Y-122571676D01*
X112886912Y-122568069D01*
X112942118Y-122515497D01*
X113005243Y-122483005D01*
X113075914Y-122489798D01*
X113119643Y-122519214D01*
X113146382Y-122546902D01*
X113298159Y-122646222D01*
X113304763Y-122648678D01*
X113304765Y-122648679D01*
X113461558Y-122706990D01*
X113461560Y-122706990D01*
X113468168Y-122709448D01*
X113551995Y-122720633D01*
X113640980Y-122732507D01*
X113640984Y-122732507D01*
X113647961Y-122733438D01*
X113654972Y-122732800D01*
X113654976Y-122732800D01*
X113797459Y-122719832D01*
X113828600Y-122716998D01*
X113835302Y-122714820D01*
X113835304Y-122714820D01*
X113994409Y-122663124D01*
X113994412Y-122663123D01*
X114001108Y-122660947D01*
X114106706Y-122597998D01*
X114150860Y-122571677D01*
X114150862Y-122571676D01*
X114156912Y-122568069D01*
X114212118Y-122515497D01*
X114275243Y-122483005D01*
X114345914Y-122489798D01*
X114389643Y-122519214D01*
X114416382Y-122546902D01*
X114568159Y-122646222D01*
X114574763Y-122648678D01*
X114574765Y-122648679D01*
X114731558Y-122706990D01*
X114731560Y-122706990D01*
X114738168Y-122709448D01*
X114821995Y-122720633D01*
X114910980Y-122732507D01*
X114910984Y-122732507D01*
X114917961Y-122733438D01*
X114924972Y-122732800D01*
X114924976Y-122732800D01*
X115067459Y-122719832D01*
X115098600Y-122716998D01*
X115105302Y-122714820D01*
X115105304Y-122714820D01*
X115264409Y-122663124D01*
X115264412Y-122663123D01*
X115271108Y-122660947D01*
X115376706Y-122597998D01*
X115420860Y-122571677D01*
X115420862Y-122571676D01*
X115426912Y-122568069D01*
X115482118Y-122515497D01*
X115545243Y-122483005D01*
X115615914Y-122489798D01*
X115659643Y-122519214D01*
X115686382Y-122546902D01*
X115838159Y-122646222D01*
X115844763Y-122648678D01*
X115844765Y-122648679D01*
X116001558Y-122706990D01*
X116001560Y-122706990D01*
X116008168Y-122709448D01*
X116015153Y-122710380D01*
X116015157Y-122710381D01*
X116143229Y-122727469D01*
X116170552Y-122731115D01*
X116235429Y-122759951D01*
X116242983Y-122766913D01*
X117501095Y-124025025D01*
X117535121Y-124087337D01*
X117538000Y-124114120D01*
X117538000Y-124161928D01*
X117517998Y-124230049D01*
X117464342Y-124276542D01*
X117425171Y-124287238D01*
X117307288Y-124299628D01*
X117307286Y-124299629D01*
X117300288Y-124300364D01*
X117128579Y-124358818D01*
X117122575Y-124362512D01*
X116980095Y-124450166D01*
X116980092Y-124450168D01*
X116974088Y-124453862D01*
X116969053Y-124458793D01*
X116969050Y-124458795D01*
X116854542Y-124570930D01*
X116844493Y-124580771D01*
X116835092Y-124595359D01*
X116796098Y-124655865D01*
X116742384Y-124702290D01*
X116672097Y-124712305D01*
X116614000Y-124685683D01*
X116612955Y-124687045D01*
X116580757Y-124662338D01*
X116500019Y-124600386D01*
X116493468Y-124595359D01*
X116354322Y-124537723D01*
X116323625Y-124533682D01*
X116242503Y-124523001D01*
X116242494Y-124523000D01*
X116242491Y-124523000D01*
X116242479Y-124522999D01*
X116213189Y-124519143D01*
X116213188Y-124519143D01*
X116205000Y-124518065D01*
X116196812Y-124519143D01*
X116196811Y-124519143D01*
X116175702Y-124521922D01*
X116159256Y-124523000D01*
X108573914Y-124523000D01*
X108505793Y-124502998D01*
X108484508Y-124485784D01*
X108464778Y-124465915D01*
X108464774Y-124465912D01*
X108459815Y-124460918D01*
X108448697Y-124453862D01*
X108400538Y-124423300D01*
X108306666Y-124363727D01*
X108245961Y-124342111D01*
X108142425Y-124305243D01*
X108142420Y-124305242D01*
X108135790Y-124302881D01*
X108128802Y-124302048D01*
X108128799Y-124302047D01*
X108004605Y-124287238D01*
X107955680Y-124281404D01*
X107948677Y-124282140D01*
X107948676Y-124282140D01*
X107782288Y-124299628D01*
X107782286Y-124299629D01*
X107775288Y-124300364D01*
X107603579Y-124358818D01*
X107597575Y-124362512D01*
X107455095Y-124450166D01*
X107455092Y-124450168D01*
X107449088Y-124453862D01*
X107444053Y-124458793D01*
X107444050Y-124458795D01*
X107329542Y-124570930D01*
X107319493Y-124580771D01*
X107221235Y-124733238D01*
X107218826Y-124739858D01*
X107218824Y-124739861D01*
X107161606Y-124897066D01*
X107159197Y-124903685D01*
X107136463Y-125083640D01*
X107154163Y-125264160D01*
X107211418Y-125436273D01*
X107215065Y-125442295D01*
X107215066Y-125442297D01*
X107292626Y-125570364D01*
X107305380Y-125591424D01*
X107431382Y-125721902D01*
X107583159Y-125821222D01*
X107589763Y-125823678D01*
X107589765Y-125823679D01*
X107746558Y-125881990D01*
X107746560Y-125881990D01*
X107753168Y-125884448D01*
X107836995Y-125895633D01*
X107925980Y-125907507D01*
X107925984Y-125907507D01*
X107932961Y-125908438D01*
X107939972Y-125907800D01*
X107939976Y-125907800D01*
X108082459Y-125894832D01*
X108113600Y-125891998D01*
X108120302Y-125889820D01*
X108120304Y-125889820D01*
X108279409Y-125838124D01*
X108279412Y-125838123D01*
X108286108Y-125835947D01*
X108441912Y-125743069D01*
X108485298Y-125701753D01*
X108548421Y-125669262D01*
X108572188Y-125667000D01*
X115915880Y-125667000D01*
X115984001Y-125687002D01*
X116004975Y-125703905D01*
X117747475Y-127446405D01*
X117781501Y-127508717D01*
X117776436Y-127579532D01*
X117733889Y-127636368D01*
X117667369Y-127661179D01*
X117658380Y-127661500D01*
X106629751Y-127661500D01*
X106561630Y-127641498D01*
X106557157Y-127638276D01*
X106554815Y-127635918D01*
X106543697Y-127628862D01*
X106494290Y-127597508D01*
X106401666Y-127538727D01*
X106340961Y-127517111D01*
X106237425Y-127480243D01*
X106237420Y-127480242D01*
X106230790Y-127477881D01*
X106223802Y-127477048D01*
X106223799Y-127477047D01*
X106100698Y-127462368D01*
X106050680Y-127456404D01*
X106043677Y-127457140D01*
X106043676Y-127457140D01*
X105877288Y-127474628D01*
X105877286Y-127474629D01*
X105870288Y-127475364D01*
X105698579Y-127533818D01*
X105692575Y-127537512D01*
X105550095Y-127625166D01*
X105550092Y-127625168D01*
X105544088Y-127628862D01*
X105539053Y-127633793D01*
X105539050Y-127633795D01*
X105419525Y-127750843D01*
X105414493Y-127755771D01*
X105316235Y-127908238D01*
X105254197Y-128078685D01*
X105231463Y-128258640D01*
X105249163Y-128439160D01*
X105306418Y-128611273D01*
X105400380Y-128766424D01*
X105526382Y-128896902D01*
X105678159Y-128996222D01*
X105684763Y-128998678D01*
X105684765Y-128998679D01*
X105841558Y-129056990D01*
X105841560Y-129056990D01*
X105848168Y-129059448D01*
X105931995Y-129070633D01*
X106020980Y-129082507D01*
X106020984Y-129082507D01*
X106027961Y-129083438D01*
X106034972Y-129082800D01*
X106034976Y-129082800D01*
X106177459Y-129069832D01*
X106208600Y-129066998D01*
X106215302Y-129064820D01*
X106215304Y-129064820D01*
X106374409Y-129013124D01*
X106374412Y-129013123D01*
X106381108Y-129010947D01*
X106536912Y-128918069D01*
X106542013Y-128913212D01*
X106547626Y-128908951D01*
X106548385Y-128909952D01*
X106605090Y-128880762D01*
X106628860Y-128878500D01*
X117805761Y-128878500D01*
X117873882Y-128898502D01*
X117894856Y-128915405D01*
X119550685Y-130571234D01*
X119561552Y-130583625D01*
X119581013Y-130608987D01*
X119587563Y-130614013D01*
X119612921Y-130633471D01*
X119612937Y-130633485D01*
X119654532Y-130665401D01*
X119708124Y-130706524D01*
X119856149Y-130767838D01*
X119864336Y-130768916D01*
X119864337Y-130768916D01*
X119875542Y-130770391D01*
X119906738Y-130774498D01*
X119975115Y-130783500D01*
X119975118Y-130783500D01*
X119975126Y-130783501D01*
X120006811Y-130787672D01*
X120015000Y-130788750D01*
X120046693Y-130784578D01*
X120063136Y-130783500D01*
X125145699Y-130783500D01*
X125214692Y-130804068D01*
X125302632Y-130861614D01*
X125363159Y-130901222D01*
X125369763Y-130903678D01*
X125369765Y-130903679D01*
X125526558Y-130961990D01*
X125526560Y-130961990D01*
X125533168Y-130964448D01*
X125616995Y-130975633D01*
X125705980Y-130987507D01*
X125705984Y-130987507D01*
X125712961Y-130988438D01*
X125719972Y-130987800D01*
X125719976Y-130987800D01*
X125862459Y-130974832D01*
X125893600Y-130971998D01*
X125900302Y-130969820D01*
X125900304Y-130969820D01*
X126059409Y-130918124D01*
X126059412Y-130918123D01*
X126066108Y-130915947D01*
X126221912Y-130823069D01*
X126353266Y-130697982D01*
X126453643Y-130546902D01*
X126518055Y-130377338D01*
X126519035Y-130370366D01*
X126542748Y-130201639D01*
X126542748Y-130201636D01*
X126543299Y-130197717D01*
X126543616Y-130175000D01*
X126523397Y-129994745D01*
X126521080Y-129988091D01*
X126466064Y-129830106D01*
X126466062Y-129830103D01*
X126463745Y-129823448D01*
X126367717Y-129669769D01*
X126348581Y-129601400D01*
X126369447Y-129533539D01*
X126423688Y-129487731D01*
X126474571Y-129477000D01*
X138775880Y-129477000D01*
X138844001Y-129497002D01*
X138864975Y-129513905D01*
X140022493Y-130671424D01*
X141168188Y-131817119D01*
X141179055Y-131829510D01*
X141197045Y-131852955D01*
X141227040Y-131875971D01*
X141227045Y-131875976D01*
X141227061Y-131875988D01*
X141227074Y-131875999D01*
X141304490Y-131935401D01*
X141316532Y-131944641D01*
X141455678Y-132002277D01*
X141486375Y-132006318D01*
X141567497Y-132016999D01*
X141567506Y-132017000D01*
X141567509Y-132017000D01*
X141567521Y-132017001D01*
X141596811Y-132020857D01*
X141596812Y-132020857D01*
X141605000Y-132021935D01*
X141613188Y-132020857D01*
X141613189Y-132020857D01*
X141634298Y-132018078D01*
X141650744Y-132017000D01*
X144789880Y-132017000D01*
X144858001Y-132037002D01*
X144880515Y-132055472D01*
X144885209Y-132060333D01*
X144891489Y-132066836D01*
X144891493Y-132066839D01*
X144896382Y-132071902D01*
X145048159Y-132171222D01*
X145054763Y-132173678D01*
X145054765Y-132173679D01*
X145211558Y-132231990D01*
X145211560Y-132231990D01*
X145218168Y-132234448D01*
X145301995Y-132245633D01*
X145390980Y-132257507D01*
X145390984Y-132257507D01*
X145397961Y-132258438D01*
X145404972Y-132257800D01*
X145404976Y-132257800D01*
X145547459Y-132244832D01*
X145578600Y-132241998D01*
X145585302Y-132239820D01*
X145585304Y-132239820D01*
X145744409Y-132188124D01*
X145744412Y-132188123D01*
X145751108Y-132185947D01*
X145906912Y-132093069D01*
X146038266Y-131967982D01*
X146138643Y-131816902D01*
X146203055Y-131647338D01*
X146204035Y-131640366D01*
X146227748Y-131471639D01*
X146227748Y-131471636D01*
X146228299Y-131467717D01*
X146228616Y-131445000D01*
X146208397Y-131264745D01*
X146206080Y-131258091D01*
X146151064Y-131100106D01*
X146151062Y-131100103D01*
X146148745Y-131093448D01*
X146052626Y-130939624D01*
X146023594Y-130910389D01*
X145989787Y-130847959D01*
X145987000Y-130821605D01*
X145987000Y-127924120D01*
X146007002Y-127855999D01*
X146023905Y-127835025D01*
X152882905Y-120976025D01*
X152945217Y-120941999D01*
X153016032Y-120947064D01*
X153072868Y-120989611D01*
X153097679Y-121056131D01*
X153098000Y-121065120D01*
X153098000Y-129550511D01*
X153077998Y-129618632D01*
X153060158Y-129640534D01*
X153039493Y-129660771D01*
X152941235Y-129813238D01*
X152938826Y-129819858D01*
X152938824Y-129819861D01*
X152881606Y-129977066D01*
X152879197Y-129983685D01*
X152856463Y-130163640D01*
X152874163Y-130344160D01*
X152931418Y-130516273D01*
X152935065Y-130522295D01*
X152935066Y-130522297D01*
X153015581Y-130655243D01*
X153025380Y-130671424D01*
X153030269Y-130676487D01*
X153030270Y-130676488D01*
X153063948Y-130711362D01*
X153151382Y-130801902D01*
X153303159Y-130901222D01*
X153309763Y-130903678D01*
X153309765Y-130903679D01*
X153466558Y-130961990D01*
X153466560Y-130961990D01*
X153473168Y-130964448D01*
X153556995Y-130975633D01*
X153645980Y-130987507D01*
X153645984Y-130987507D01*
X153652961Y-130988438D01*
X153659972Y-130987800D01*
X153659976Y-130987800D01*
X153802459Y-130974832D01*
X153833600Y-130971998D01*
X153840302Y-130969820D01*
X153840304Y-130969820D01*
X153999409Y-130918124D01*
X153999412Y-130918123D01*
X154006108Y-130915947D01*
X154161912Y-130823069D01*
X154293266Y-130697982D01*
X154393643Y-130546902D01*
X154458055Y-130377338D01*
X154459035Y-130370366D01*
X154482748Y-130201639D01*
X154482748Y-130201636D01*
X154483299Y-130197717D01*
X154483616Y-130175000D01*
X154463397Y-129994745D01*
X154461080Y-129988091D01*
X154406064Y-129830106D01*
X154406062Y-129830103D01*
X154403745Y-129823448D01*
X154307626Y-129669624D01*
X154278594Y-129640389D01*
X154244787Y-129577959D01*
X154242000Y-129551605D01*
X154242000Y-111867550D01*
X154262002Y-111799429D01*
X154315658Y-111752936D01*
X154385932Y-111742832D01*
X154436993Y-111762118D01*
X154474464Y-111786638D01*
X154573159Y-111851222D01*
X154579763Y-111853678D01*
X154579765Y-111853679D01*
X154736558Y-111911990D01*
X154736560Y-111911990D01*
X154743168Y-111914448D01*
X154826995Y-111925633D01*
X154915980Y-111937507D01*
X154915984Y-111937507D01*
X154922961Y-111938438D01*
X154929972Y-111937800D01*
X154929976Y-111937800D01*
X155072459Y-111924832D01*
X155103600Y-111921998D01*
X155110302Y-111919820D01*
X155110304Y-111919820D01*
X155269409Y-111868124D01*
X155269412Y-111868123D01*
X155276108Y-111865947D01*
X155409150Y-111786638D01*
X155425860Y-111776677D01*
X155425862Y-111776676D01*
X155431912Y-111773069D01*
X155563266Y-111647982D01*
X155663643Y-111496902D01*
X155728055Y-111327338D01*
X155734031Y-111284820D01*
X155744213Y-111212364D01*
X155750102Y-111170464D01*
X155779390Y-111105790D01*
X155838994Y-111067217D01*
X155874876Y-111062000D01*
X159394880Y-111062000D01*
X159463001Y-111082002D01*
X159485515Y-111100472D01*
X159489888Y-111105000D01*
X159496489Y-111111836D01*
X159496493Y-111111839D01*
X159501382Y-111116902D01*
X159507278Y-111120760D01*
X159590025Y-111174908D01*
X159653159Y-111216222D01*
X159659763Y-111218678D01*
X159659765Y-111218679D01*
X159816558Y-111276990D01*
X159816560Y-111276990D01*
X159823168Y-111279448D01*
X159898855Y-111289547D01*
X159995980Y-111302507D01*
X159995984Y-111302507D01*
X160002961Y-111303438D01*
X160009972Y-111302800D01*
X160009976Y-111302800D01*
X160155592Y-111289547D01*
X160183600Y-111286998D01*
X160190302Y-111284820D01*
X160190304Y-111284820D01*
X160349409Y-111233124D01*
X160349412Y-111233123D01*
X160356108Y-111230947D01*
X160461300Y-111168240D01*
X160505860Y-111141677D01*
X160505862Y-111141676D01*
X160511912Y-111138069D01*
X160643266Y-111012982D01*
X160743643Y-110861902D01*
X160808055Y-110692338D01*
X160811093Y-110670720D01*
X160832748Y-110516639D01*
X160832748Y-110516636D01*
X160833299Y-110512717D01*
X160833616Y-110490000D01*
X160813397Y-110309745D01*
X160802209Y-110277617D01*
X160756064Y-110145106D01*
X160756062Y-110145103D01*
X160753745Y-110138448D01*
X160688128Y-110033438D01*
X160657717Y-109984769D01*
X160638581Y-109916400D01*
X160659447Y-109848539D01*
X160713688Y-109802731D01*
X160764571Y-109792000D01*
X164474880Y-109792000D01*
X164543001Y-109812002D01*
X164565515Y-109830472D01*
X164569062Y-109834144D01*
X164576489Y-109841836D01*
X164576493Y-109841839D01*
X164581382Y-109846902D01*
X164733159Y-109946222D01*
X164739763Y-109948678D01*
X164739765Y-109948679D01*
X164896558Y-110006990D01*
X164896560Y-110006990D01*
X164903168Y-110009448D01*
X164986995Y-110020633D01*
X165075980Y-110032507D01*
X165075984Y-110032507D01*
X165082961Y-110033438D01*
X165089972Y-110032800D01*
X165089976Y-110032800D01*
X165232459Y-110019832D01*
X165263600Y-110016998D01*
X165270302Y-110014820D01*
X165270304Y-110014820D01*
X165429409Y-109963124D01*
X165429412Y-109963123D01*
X165436108Y-109960947D01*
X165591912Y-109868069D01*
X165723266Y-109742982D01*
X165823643Y-109591902D01*
X165878121Y-109448489D01*
X165885555Y-109428920D01*
X165885556Y-109428918D01*
X165888055Y-109422338D01*
X165895398Y-109370088D01*
X165912748Y-109246639D01*
X165912748Y-109246636D01*
X165913299Y-109242717D01*
X165913616Y-109220000D01*
X165893397Y-109039745D01*
X165833745Y-108868448D01*
X165737626Y-108714624D01*
X165732664Y-108709627D01*
X165614778Y-108590915D01*
X165614774Y-108590912D01*
X165609815Y-108585918D01*
X165598697Y-108578862D01*
X165550538Y-108548300D01*
X165456666Y-108488727D01*
X165415504Y-108474070D01*
X165292425Y-108430243D01*
X165292420Y-108430242D01*
X165285790Y-108427881D01*
X165278802Y-108427048D01*
X165278799Y-108427047D01*
X165155698Y-108412368D01*
X165105680Y-108406404D01*
X165098677Y-108407140D01*
X165098676Y-108407140D01*
X164932288Y-108424628D01*
X164932286Y-108424629D01*
X164925288Y-108425364D01*
X164753579Y-108483818D01*
X164691109Y-108522250D01*
X164605095Y-108575166D01*
X164605092Y-108575168D01*
X164599088Y-108578862D01*
X164594053Y-108583793D01*
X164594050Y-108583795D01*
X164565224Y-108612024D01*
X164502559Y-108645394D01*
X164477067Y-108648000D01*
X155229120Y-108648000D01*
X155160999Y-108627998D01*
X155140025Y-108611095D01*
X154913905Y-108384975D01*
X154879879Y-108322663D01*
X154877000Y-108295880D01*
X154877000Y-99740744D01*
X154878078Y-99724298D01*
X154880857Y-99703189D01*
X154880857Y-99703188D01*
X154881935Y-99695000D01*
X154877000Y-99657514D01*
X154877000Y-99657508D01*
X154862277Y-99545678D01*
X154804641Y-99406532D01*
X154794977Y-99393938D01*
X154761344Y-99350106D01*
X154735999Y-99317074D01*
X154735988Y-99317061D01*
X154735976Y-99317045D01*
X154735971Y-99317040D01*
X154712955Y-99287045D01*
X154689510Y-99269055D01*
X154677119Y-99258188D01*
X152201816Y-96782886D01*
X152190949Y-96770495D01*
X152177981Y-96753595D01*
X152172955Y-96747045D01*
X152092212Y-96685088D01*
X152053468Y-96655359D01*
X151914322Y-96597723D01*
X151883625Y-96593682D01*
X151802503Y-96583001D01*
X151802494Y-96583000D01*
X151802491Y-96583000D01*
X151802479Y-96582999D01*
X151773189Y-96579143D01*
X151773188Y-96579143D01*
X151765000Y-96578065D01*
X151756812Y-96579143D01*
X151756811Y-96579143D01*
X151735702Y-96581922D01*
X151719256Y-96583000D01*
X150724357Y-96583000D01*
X150656236Y-96562998D01*
X150609743Y-96509342D01*
X150599639Y-96439068D01*
X150629133Y-96374488D01*
X150651189Y-96354421D01*
X150652273Y-96353648D01*
X150739860Y-96291173D01*
X150776377Y-96254784D01*
X150840701Y-96190684D01*
X150898096Y-96133489D01*
X150911919Y-96114253D01*
X151025435Y-95956277D01*
X151028453Y-95952077D01*
X151049320Y-95909857D01*
X151125136Y-95756453D01*
X151125137Y-95756451D01*
X151127430Y-95751811D01*
X151192370Y-95538069D01*
X151221529Y-95316590D01*
X151223156Y-95250000D01*
X151219906Y-95210469D01*
X156067095Y-95210469D01*
X156067392Y-95215622D01*
X156067392Y-95215625D01*
X156073258Y-95317359D01*
X156080427Y-95441697D01*
X156081564Y-95446743D01*
X156081565Y-95446749D01*
X156113741Y-95589523D01*
X156131346Y-95667642D01*
X156133288Y-95672424D01*
X156133289Y-95672428D01*
X156211329Y-95864616D01*
X156218484Y-95882237D01*
X156245105Y-95925678D01*
X156333371Y-96069715D01*
X156339501Y-96079719D01*
X156491147Y-96254784D01*
X156669349Y-96402730D01*
X156869322Y-96519584D01*
X156874147Y-96521426D01*
X156874148Y-96521427D01*
X156884814Y-96525500D01*
X157085694Y-96602209D01*
X157090760Y-96603240D01*
X157090761Y-96603240D01*
X157129380Y-96611097D01*
X157312656Y-96648385D01*
X157443324Y-96653176D01*
X157538949Y-96656683D01*
X157538953Y-96656683D01*
X157544113Y-96656872D01*
X157549233Y-96656216D01*
X157549235Y-96656216D01*
X157622270Y-96646860D01*
X157773847Y-96627442D01*
X157778795Y-96625957D01*
X157778802Y-96625956D01*
X157990747Y-96562369D01*
X157995690Y-96560886D01*
X158002618Y-96557492D01*
X158199049Y-96461262D01*
X158199052Y-96461260D01*
X158203684Y-96458991D01*
X158392243Y-96324494D01*
X158556303Y-96161005D01*
X158691458Y-95972917D01*
X158704051Y-95947438D01*
X158791784Y-95769922D01*
X158791785Y-95769920D01*
X158794078Y-95765280D01*
X158861408Y-95543671D01*
X158891640Y-95314041D01*
X158892029Y-95298136D01*
X158893245Y-95248365D01*
X158893245Y-95248361D01*
X158893327Y-95245000D01*
X158880051Y-95083522D01*
X158874773Y-95019318D01*
X158874772Y-95019312D01*
X158874349Y-95014167D01*
X158832591Y-94847921D01*
X158819184Y-94794544D01*
X158819183Y-94794540D01*
X158817925Y-94789533D01*
X158813478Y-94779305D01*
X158727630Y-94581868D01*
X158727628Y-94581865D01*
X158725570Y-94577131D01*
X158599764Y-94382665D01*
X158593791Y-94376100D01*
X158538252Y-94315064D01*
X158509486Y-94283450D01*
X158478434Y-94219605D01*
X158486829Y-94149106D01*
X158532005Y-94094338D01*
X158558449Y-94080669D01*
X158618054Y-94058324D01*
X158633649Y-94049786D01*
X158735724Y-93973285D01*
X158748285Y-93960724D01*
X158824786Y-93858649D01*
X158833324Y-93843054D01*
X158878478Y-93722606D01*
X158882105Y-93707351D01*
X158887631Y-93656486D01*
X158888000Y-93649672D01*
X158888000Y-92977115D01*
X158883525Y-92961876D01*
X158882135Y-92960671D01*
X158874452Y-92959000D01*
X156090116Y-92959000D01*
X156074877Y-92963475D01*
X156073672Y-92964865D01*
X156072001Y-92972548D01*
X156072001Y-93649669D01*
X156072371Y-93656490D01*
X156077895Y-93707352D01*
X156081521Y-93722604D01*
X156126676Y-93843054D01*
X156135214Y-93858649D01*
X156211715Y-93960724D01*
X156224276Y-93973285D01*
X156326351Y-94049786D01*
X156341946Y-94058324D01*
X156401540Y-94080665D01*
X156458304Y-94123307D01*
X156483004Y-94189868D01*
X156467796Y-94259217D01*
X156448404Y-94285698D01*
X156431422Y-94303469D01*
X156381639Y-94355564D01*
X156378725Y-94359836D01*
X156378724Y-94359837D01*
X156305348Y-94467402D01*
X156251119Y-94546899D01*
X156153602Y-94756981D01*
X156091707Y-94980169D01*
X156067095Y-95210469D01*
X151219906Y-95210469D01*
X151204852Y-95027361D01*
X151150431Y-94810702D01*
X151061354Y-94605840D01*
X150940014Y-94418277D01*
X150789670Y-94253051D01*
X150785619Y-94249852D01*
X150785615Y-94249848D01*
X150618414Y-94117800D01*
X150618410Y-94117798D01*
X150614359Y-94114598D01*
X150418789Y-94006638D01*
X150413920Y-94004914D01*
X150413916Y-94004912D01*
X150213087Y-93933795D01*
X150213083Y-93933794D01*
X150208212Y-93932069D01*
X150203119Y-93931162D01*
X150203116Y-93931161D01*
X149993373Y-93893800D01*
X149993367Y-93893799D01*
X149988284Y-93892894D01*
X149914452Y-93891992D01*
X149770081Y-93890228D01*
X149770079Y-93890228D01*
X149764911Y-93890165D01*
X149544091Y-93923955D01*
X149331756Y-93993357D01*
X149133607Y-94096507D01*
X149129474Y-94099610D01*
X149129471Y-94099612D01*
X148959100Y-94227530D01*
X148954965Y-94230635D01*
X148927651Y-94259217D01*
X148809682Y-94382665D01*
X148800629Y-94392138D01*
X148693201Y-94549621D01*
X148638293Y-94594621D01*
X148567768Y-94602792D01*
X148504021Y-94571538D01*
X148483324Y-94547054D01*
X148402822Y-94422617D01*
X148402820Y-94422614D01*
X148400014Y-94418277D01*
X148249670Y-94253051D01*
X148245619Y-94249852D01*
X148245615Y-94249848D01*
X148078414Y-94117800D01*
X148078410Y-94117798D01*
X148074359Y-94114598D01*
X147878789Y-94006638D01*
X147873920Y-94004914D01*
X147873916Y-94004912D01*
X147673087Y-93933795D01*
X147673083Y-93933794D01*
X147668212Y-93932069D01*
X147663119Y-93931162D01*
X147663116Y-93931161D01*
X147453373Y-93893800D01*
X147453367Y-93893799D01*
X147448284Y-93892894D01*
X147374452Y-93891992D01*
X147230081Y-93890228D01*
X147230079Y-93890228D01*
X147224911Y-93890165D01*
X147004091Y-93923955D01*
X146791756Y-93993357D01*
X146593607Y-94096507D01*
X146589474Y-94099610D01*
X146589471Y-94099612D01*
X146419100Y-94227530D01*
X146414965Y-94230635D01*
X146336360Y-94312891D01*
X146334283Y-94315064D01*
X146272759Y-94350494D01*
X146201846Y-94347037D01*
X146144060Y-94305791D01*
X146125207Y-94272243D01*
X146083767Y-94161703D01*
X146080615Y-94153295D01*
X145993261Y-94036739D01*
X145876705Y-93949385D01*
X145740316Y-93898255D01*
X145678134Y-93891500D01*
X143881866Y-93891500D01*
X143819684Y-93898255D01*
X143683295Y-93949385D01*
X143566739Y-94036739D01*
X143479385Y-94153295D01*
X143476233Y-94161703D01*
X143434919Y-94271907D01*
X143392277Y-94328671D01*
X143325716Y-94353371D01*
X143256367Y-94338163D01*
X143223743Y-94312476D01*
X143173151Y-94256875D01*
X143173142Y-94256866D01*
X143169670Y-94253051D01*
X143165619Y-94249852D01*
X143165615Y-94249848D01*
X142998414Y-94117800D01*
X142998410Y-94117798D01*
X142994359Y-94114598D01*
X142798789Y-94006638D01*
X142793920Y-94004914D01*
X142793916Y-94004912D01*
X142593087Y-93933795D01*
X142593083Y-93933794D01*
X142588212Y-93932069D01*
X142583119Y-93931162D01*
X142583116Y-93931161D01*
X142373373Y-93893800D01*
X142373367Y-93893799D01*
X142368284Y-93892894D01*
X142294452Y-93891992D01*
X142150081Y-93890228D01*
X142150079Y-93890228D01*
X142144911Y-93890165D01*
X141924091Y-93923955D01*
X141711756Y-93993357D01*
X141513607Y-94096507D01*
X141509474Y-94099610D01*
X141509471Y-94099612D01*
X141339100Y-94227530D01*
X141334965Y-94230635D01*
X141307651Y-94259217D01*
X141189682Y-94382665D01*
X141180629Y-94392138D01*
X141073201Y-94549621D01*
X141018293Y-94594621D01*
X140947768Y-94602792D01*
X140884021Y-94571538D01*
X140863324Y-94547054D01*
X140782822Y-94422617D01*
X140782820Y-94422614D01*
X140780014Y-94418277D01*
X140629670Y-94253051D01*
X140625619Y-94249852D01*
X140625615Y-94249848D01*
X140458414Y-94117800D01*
X140458410Y-94117798D01*
X140454359Y-94114598D01*
X140258789Y-94006638D01*
X140253920Y-94004914D01*
X140253916Y-94004912D01*
X140053087Y-93933795D01*
X140053083Y-93933794D01*
X140048212Y-93932069D01*
X140043119Y-93931162D01*
X140043116Y-93931161D01*
X139833373Y-93893800D01*
X139833367Y-93893799D01*
X139828284Y-93892894D01*
X139754452Y-93891992D01*
X139610081Y-93890228D01*
X139610079Y-93890228D01*
X139604911Y-93890165D01*
X139384091Y-93923955D01*
X139171756Y-93993357D01*
X138973607Y-94096507D01*
X138969474Y-94099610D01*
X138969471Y-94099612D01*
X138799100Y-94227530D01*
X138794965Y-94230635D01*
X138767651Y-94259217D01*
X138649682Y-94382665D01*
X138640629Y-94392138D01*
X138533201Y-94549621D01*
X138478293Y-94594621D01*
X138407768Y-94602792D01*
X138344021Y-94571538D01*
X138323324Y-94547054D01*
X138242822Y-94422617D01*
X138242820Y-94422614D01*
X138240014Y-94418277D01*
X138089670Y-94253051D01*
X138085619Y-94249852D01*
X138085615Y-94249848D01*
X137918414Y-94117800D01*
X137918410Y-94117798D01*
X137914359Y-94114598D01*
X137718789Y-94006638D01*
X137713920Y-94004914D01*
X137713916Y-94004912D01*
X137513087Y-93933795D01*
X137513083Y-93933794D01*
X137508212Y-93932069D01*
X137503119Y-93931162D01*
X137503116Y-93931161D01*
X137293373Y-93893800D01*
X137293367Y-93893799D01*
X137288284Y-93892894D01*
X137214452Y-93891992D01*
X137070081Y-93890228D01*
X137070079Y-93890228D01*
X137064911Y-93890165D01*
X136844091Y-93923955D01*
X136631756Y-93993357D01*
X136433607Y-94096507D01*
X136429474Y-94099610D01*
X136429471Y-94099612D01*
X136259100Y-94227530D01*
X136254965Y-94230635D01*
X136227651Y-94259217D01*
X136109682Y-94382665D01*
X136100629Y-94392138D01*
X135993201Y-94549621D01*
X135938293Y-94594621D01*
X135867768Y-94602792D01*
X135804021Y-94571538D01*
X135783324Y-94547054D01*
X135702822Y-94422617D01*
X135702820Y-94422614D01*
X135700014Y-94418277D01*
X135549670Y-94253051D01*
X135545619Y-94249852D01*
X135545615Y-94249848D01*
X135378414Y-94117800D01*
X135378410Y-94117798D01*
X135374359Y-94114598D01*
X135178789Y-94006638D01*
X135173920Y-94004914D01*
X135173916Y-94004912D01*
X134973087Y-93933795D01*
X134973083Y-93933794D01*
X134968212Y-93932069D01*
X134963119Y-93931162D01*
X134963116Y-93931161D01*
X134753373Y-93893800D01*
X134753367Y-93893799D01*
X134748284Y-93892894D01*
X134674452Y-93891992D01*
X134530081Y-93890228D01*
X134530079Y-93890228D01*
X134524911Y-93890165D01*
X134304091Y-93923955D01*
X134091756Y-93993357D01*
X133893607Y-94096507D01*
X133889474Y-94099610D01*
X133889471Y-94099612D01*
X133719100Y-94227530D01*
X133714965Y-94230635D01*
X133711393Y-94234373D01*
X133633898Y-94315466D01*
X133572374Y-94350895D01*
X133501462Y-94347438D01*
X133443676Y-94306192D01*
X133424823Y-94272644D01*
X133383324Y-94161946D01*
X133374786Y-94146351D01*
X133298285Y-94044276D01*
X133285724Y-94031715D01*
X133183649Y-93955214D01*
X133168054Y-93946676D01*
X133047606Y-93901522D01*
X133032351Y-93897895D01*
X132981486Y-93892369D01*
X132974672Y-93892000D01*
X132352115Y-93892000D01*
X132336876Y-93896475D01*
X132335671Y-93897865D01*
X132334000Y-93905548D01*
X132334000Y-95378000D01*
X132313998Y-95446121D01*
X132260342Y-95492614D01*
X132208000Y-95504000D01*
X131952000Y-95504000D01*
X131883879Y-95483998D01*
X131837386Y-95430342D01*
X131826000Y-95378000D01*
X131826000Y-93910116D01*
X131821525Y-93894877D01*
X131820135Y-93893672D01*
X131812452Y-93892001D01*
X131185331Y-93892001D01*
X131178510Y-93892371D01*
X131127648Y-93897895D01*
X131112396Y-93901521D01*
X130991946Y-93946676D01*
X130976351Y-93955214D01*
X130874276Y-94031715D01*
X130861715Y-94044276D01*
X130785214Y-94146351D01*
X130776676Y-94161946D01*
X130735297Y-94272322D01*
X130692655Y-94329087D01*
X130626093Y-94353786D01*
X130556744Y-94338578D01*
X130524121Y-94312891D01*
X130473151Y-94256876D01*
X130473145Y-94256870D01*
X130469670Y-94253051D01*
X130465619Y-94249852D01*
X130465615Y-94249848D01*
X130298414Y-94117800D01*
X130298410Y-94117798D01*
X130294359Y-94114598D01*
X130098789Y-94006638D01*
X130093920Y-94004914D01*
X130093916Y-94004912D01*
X129893087Y-93933795D01*
X129893083Y-93933794D01*
X129888212Y-93932069D01*
X129883119Y-93931162D01*
X129883116Y-93931161D01*
X129673373Y-93893800D01*
X129673367Y-93893799D01*
X129668284Y-93892894D01*
X129594452Y-93891992D01*
X129450081Y-93890228D01*
X129450079Y-93890228D01*
X129444911Y-93890165D01*
X129224091Y-93923955D01*
X129011756Y-93993357D01*
X128813607Y-94096507D01*
X128809474Y-94099610D01*
X128809471Y-94099612D01*
X128639100Y-94227530D01*
X128634965Y-94230635D01*
X128607651Y-94259217D01*
X128489682Y-94382665D01*
X128480629Y-94392138D01*
X128373201Y-94549621D01*
X128318293Y-94594621D01*
X128247768Y-94602792D01*
X128184021Y-94571538D01*
X128163324Y-94547054D01*
X128082822Y-94422617D01*
X128082820Y-94422614D01*
X128080014Y-94418277D01*
X127929670Y-94253051D01*
X127925619Y-94249852D01*
X127925615Y-94249848D01*
X127758414Y-94117800D01*
X127758410Y-94117798D01*
X127754359Y-94114598D01*
X127558789Y-94006638D01*
X127553920Y-94004914D01*
X127553916Y-94004912D01*
X127353087Y-93933795D01*
X127353083Y-93933794D01*
X127348212Y-93932069D01*
X127343119Y-93931162D01*
X127343116Y-93931161D01*
X127133373Y-93893800D01*
X127133367Y-93893799D01*
X127128284Y-93892894D01*
X127054452Y-93891992D01*
X126910081Y-93890228D01*
X126910079Y-93890228D01*
X126904911Y-93890165D01*
X126684091Y-93923955D01*
X126471756Y-93993357D01*
X126273607Y-94096507D01*
X126269474Y-94099610D01*
X126269471Y-94099612D01*
X126099100Y-94227530D01*
X126094965Y-94230635D01*
X126067651Y-94259217D01*
X125949682Y-94382665D01*
X125940629Y-94392138D01*
X125833201Y-94549621D01*
X125778293Y-94594621D01*
X125707768Y-94602792D01*
X125644021Y-94571538D01*
X125623324Y-94547054D01*
X125542822Y-94422617D01*
X125542820Y-94422614D01*
X125540014Y-94418277D01*
X125389670Y-94253051D01*
X125385619Y-94249852D01*
X125385615Y-94249848D01*
X125218414Y-94117800D01*
X125218410Y-94117798D01*
X125214359Y-94114598D01*
X125018789Y-94006638D01*
X125013920Y-94004914D01*
X125013916Y-94004912D01*
X124813087Y-93933795D01*
X124813083Y-93933794D01*
X124808212Y-93932069D01*
X124803119Y-93931162D01*
X124803116Y-93931161D01*
X124593373Y-93893800D01*
X124593367Y-93893799D01*
X124588284Y-93892894D01*
X124514452Y-93891992D01*
X124370081Y-93890228D01*
X124370079Y-93890228D01*
X124364911Y-93890165D01*
X124144091Y-93923955D01*
X123931756Y-93993357D01*
X123733607Y-94096507D01*
X123729474Y-94099610D01*
X123729471Y-94099612D01*
X123559100Y-94227530D01*
X123554965Y-94230635D01*
X123527651Y-94259217D01*
X123409682Y-94382665D01*
X123400629Y-94392138D01*
X123293201Y-94549621D01*
X123238293Y-94594621D01*
X123167768Y-94602792D01*
X123104021Y-94571538D01*
X123083324Y-94547054D01*
X123002822Y-94422617D01*
X123002820Y-94422614D01*
X123000014Y-94418277D01*
X122849670Y-94253051D01*
X122845619Y-94249852D01*
X122845615Y-94249848D01*
X122678414Y-94117800D01*
X122678410Y-94117798D01*
X122674359Y-94114598D01*
X122478789Y-94006638D01*
X122473920Y-94004914D01*
X122473916Y-94004912D01*
X122273087Y-93933795D01*
X122273083Y-93933794D01*
X122268212Y-93932069D01*
X122263119Y-93931162D01*
X122263116Y-93931161D01*
X122053373Y-93893800D01*
X122053367Y-93893799D01*
X122048284Y-93892894D01*
X121974452Y-93891992D01*
X121830081Y-93890228D01*
X121830079Y-93890228D01*
X121824911Y-93890165D01*
X121604091Y-93923955D01*
X121391756Y-93993357D01*
X121193607Y-94096507D01*
X121189474Y-94099610D01*
X121189471Y-94099612D01*
X121019100Y-94227530D01*
X121014965Y-94230635D01*
X121011393Y-94234373D01*
X120933898Y-94315466D01*
X120872374Y-94350895D01*
X120801462Y-94347438D01*
X120743676Y-94306192D01*
X120724823Y-94272644D01*
X120683324Y-94161946D01*
X120674786Y-94146351D01*
X120598285Y-94044276D01*
X120585724Y-94031715D01*
X120483649Y-93955214D01*
X120468054Y-93946676D01*
X120347606Y-93901522D01*
X120332351Y-93897895D01*
X120281486Y-93892369D01*
X120274672Y-93892000D01*
X119652115Y-93892000D01*
X119636876Y-93896475D01*
X119635671Y-93897865D01*
X119634000Y-93905548D01*
X119634000Y-96589884D01*
X119638475Y-96605123D01*
X119639865Y-96606328D01*
X119647548Y-96607999D01*
X120274669Y-96607999D01*
X120281490Y-96607629D01*
X120332352Y-96602105D01*
X120347604Y-96598479D01*
X120468054Y-96553324D01*
X120483649Y-96544786D01*
X120585724Y-96468285D01*
X120598285Y-96455724D01*
X120674786Y-96353649D01*
X120683324Y-96338054D01*
X120724225Y-96228952D01*
X120766867Y-96172188D01*
X120833428Y-96147488D01*
X120902777Y-96162696D01*
X120937444Y-96190684D01*
X120962865Y-96220031D01*
X120962869Y-96220035D01*
X120966250Y-96223938D01*
X121138126Y-96366632D01*
X121199901Y-96402730D01*
X121284976Y-96452444D01*
X121333700Y-96504083D01*
X121346328Y-96544786D01*
X121348000Y-96557486D01*
X121348000Y-96557492D01*
X121358350Y-96636106D01*
X121362723Y-96669322D01*
X121370870Y-96688990D01*
X121409763Y-96782886D01*
X121420359Y-96808468D01*
X121425385Y-96815018D01*
X121455249Y-96853937D01*
X121484965Y-96892663D01*
X121512045Y-96927955D01*
X121518595Y-96932981D01*
X121518598Y-96932984D01*
X121535495Y-96945949D01*
X121547886Y-96956816D01*
X122228975Y-97637905D01*
X122263001Y-97700217D01*
X122257936Y-97771032D01*
X122215389Y-97827868D01*
X122148869Y-97852679D01*
X122139880Y-97853000D01*
X118399120Y-97853000D01*
X118330999Y-97832998D01*
X118310025Y-97816095D01*
X117448905Y-96954975D01*
X117414879Y-96892663D01*
X117412000Y-96865880D01*
X117412000Y-96561200D01*
X117432002Y-96493079D01*
X117482568Y-96448049D01*
X117533346Y-96423173D01*
X117537994Y-96420896D01*
X117719860Y-96291173D01*
X117756377Y-96254784D01*
X117828479Y-96182933D01*
X117890851Y-96149017D01*
X117961658Y-96154205D01*
X118018419Y-96196851D01*
X118035401Y-96227954D01*
X118076676Y-96338054D01*
X118085214Y-96353649D01*
X118161715Y-96455724D01*
X118174276Y-96468285D01*
X118276351Y-96544786D01*
X118291946Y-96553324D01*
X118412394Y-96598478D01*
X118427649Y-96602105D01*
X118478514Y-96607631D01*
X118485328Y-96608000D01*
X119107885Y-96608000D01*
X119123124Y-96603525D01*
X119124329Y-96602135D01*
X119126000Y-96594452D01*
X119126000Y-93910116D01*
X119121525Y-93894877D01*
X119120135Y-93893672D01*
X119112452Y-93892001D01*
X118485331Y-93892001D01*
X118478510Y-93892371D01*
X118427648Y-93897895D01*
X118412396Y-93901521D01*
X118291946Y-93946676D01*
X118276351Y-93955214D01*
X118174276Y-94031715D01*
X118161715Y-94044276D01*
X118085214Y-94146351D01*
X118076676Y-94161946D01*
X118035297Y-94272322D01*
X117992655Y-94329087D01*
X117926093Y-94353786D01*
X117856744Y-94338578D01*
X117824121Y-94312891D01*
X117773151Y-94256876D01*
X117773145Y-94256870D01*
X117769670Y-94253051D01*
X117765619Y-94249852D01*
X117765615Y-94249848D01*
X117598414Y-94117800D01*
X117598410Y-94117798D01*
X117594359Y-94114598D01*
X117398789Y-94006638D01*
X117393920Y-94004914D01*
X117393916Y-94004912D01*
X117193087Y-93933795D01*
X117193083Y-93933794D01*
X117188212Y-93932069D01*
X117183119Y-93931162D01*
X117183116Y-93931161D01*
X116973373Y-93893800D01*
X116973367Y-93893799D01*
X116968284Y-93892894D01*
X116894452Y-93891992D01*
X116750081Y-93890228D01*
X116750079Y-93890228D01*
X116744911Y-93890165D01*
X116524091Y-93923955D01*
X116311756Y-93993357D01*
X116311410Y-93992297D01*
X116246271Y-93999642D01*
X116182620Y-93968192D01*
X116146077Y-93907323D01*
X116142000Y-93875530D01*
X116142000Y-92364120D01*
X116162002Y-92295999D01*
X116178905Y-92275025D01*
X116405025Y-92048905D01*
X116467337Y-92014879D01*
X116494120Y-92012000D01*
X155946000Y-92012000D01*
X156014121Y-92032002D01*
X156060614Y-92085658D01*
X156072000Y-92138000D01*
X156072000Y-92432885D01*
X156076475Y-92448124D01*
X156077865Y-92449329D01*
X156085548Y-92451000D01*
X158869884Y-92451000D01*
X158885123Y-92446525D01*
X158886328Y-92445135D01*
X158887999Y-92437452D01*
X158887999Y-92138000D01*
X158908001Y-92069879D01*
X158961657Y-92023386D01*
X159013999Y-92012000D01*
X164310992Y-92012000D01*
X164379113Y-92032002D01*
X164425606Y-92085658D01*
X164435710Y-92155932D01*
X164425280Y-92191050D01*
X164410776Y-92222296D01*
X164410773Y-92222303D01*
X164408602Y-92226981D01*
X164346707Y-92450169D01*
X164322095Y-92680469D01*
X164322392Y-92685622D01*
X164322392Y-92685625D01*
X164328067Y-92784041D01*
X164335427Y-92911697D01*
X164336564Y-92916743D01*
X164336565Y-92916749D01*
X164368741Y-93059523D01*
X164386346Y-93137642D01*
X164388288Y-93142424D01*
X164388289Y-93142428D01*
X164471540Y-93347450D01*
X164473484Y-93352237D01*
X164594501Y-93549719D01*
X164597882Y-93553622D01*
X164706304Y-93678788D01*
X164735786Y-93743373D01*
X164725671Y-93813646D01*
X164679170Y-93867294D01*
X164655296Y-93879267D01*
X164609395Y-93896475D01*
X164588295Y-93904385D01*
X164471739Y-93991739D01*
X164384385Y-94108295D01*
X164333255Y-94244684D01*
X164326500Y-94306866D01*
X164326500Y-96203134D01*
X164333255Y-96265316D01*
X164384385Y-96401705D01*
X164471739Y-96518261D01*
X164588295Y-96605615D01*
X164724684Y-96656745D01*
X164786866Y-96663500D01*
X166683134Y-96663500D01*
X166745316Y-96656745D01*
X166881705Y-96605615D01*
X166998261Y-96518261D01*
X167085615Y-96401705D01*
X167136745Y-96265316D01*
X167143500Y-96203134D01*
X167143500Y-94306866D01*
X167136745Y-94244684D01*
X167085615Y-94108295D01*
X166998261Y-93991739D01*
X166881705Y-93904385D01*
X166873296Y-93901233D01*
X166873295Y-93901232D01*
X166814804Y-93879305D01*
X166758039Y-93836664D01*
X166733339Y-93770103D01*
X166748546Y-93700754D01*
X166770093Y-93672073D01*
X166807636Y-93634660D01*
X166807640Y-93634655D01*
X166811303Y-93631005D01*
X166946458Y-93442917D01*
X166993641Y-93347450D01*
X167046784Y-93239922D01*
X167046785Y-93239920D01*
X167049078Y-93235280D01*
X167116408Y-93013671D01*
X167146640Y-92784041D01*
X167148327Y-92715000D01*
X167142032Y-92638434D01*
X167129773Y-92489318D01*
X167129772Y-92489312D01*
X167129349Y-92484167D01*
X167082085Y-92295999D01*
X167074184Y-92264544D01*
X167074183Y-92264540D01*
X167072925Y-92259533D01*
X167070869Y-92254803D01*
X167070866Y-92254796D01*
X167041927Y-92188242D01*
X167033107Y-92117795D01*
X167063774Y-92053764D01*
X167124191Y-92016476D01*
X167157477Y-92012000D01*
X171165880Y-92012000D01*
X171234001Y-92032002D01*
X171254975Y-92048905D01*
X174563661Y-95357591D01*
X174597687Y-95419903D01*
X174595983Y-95480358D01*
X174555989Y-95624570D01*
X174532251Y-95846695D01*
X174532548Y-95851848D01*
X174532548Y-95851851D01*
X174535893Y-95909857D01*
X174545110Y-96069715D01*
X174546247Y-96074761D01*
X174546248Y-96074767D01*
X174570304Y-96181508D01*
X174594222Y-96287639D01*
X174647112Y-96417892D01*
X174672811Y-96481181D01*
X174678266Y-96494616D01*
X174694565Y-96521214D01*
X174785326Y-96669322D01*
X174794987Y-96685088D01*
X174941250Y-96853938D01*
X175113126Y-96996632D01*
X175123861Y-97002905D01*
X175186445Y-97039476D01*
X175235169Y-97091114D01*
X175248240Y-97160897D01*
X175221509Y-97226669D01*
X175181055Y-97260027D01*
X175168607Y-97266507D01*
X175164474Y-97269610D01*
X175164471Y-97269612D01*
X175118242Y-97304322D01*
X174989965Y-97400635D01*
X174950884Y-97441531D01*
X174841108Y-97556405D01*
X174835629Y-97562138D01*
X174832715Y-97566410D01*
X174832714Y-97566411D01*
X174815384Y-97591816D01*
X174709743Y-97746680D01*
X174615688Y-97949305D01*
X174555989Y-98164570D01*
X174532251Y-98386695D01*
X174545110Y-98609715D01*
X174546247Y-98614761D01*
X174546248Y-98614767D01*
X174570304Y-98721508D01*
X174594222Y-98827639D01*
X174632461Y-98921811D01*
X174663430Y-98998078D01*
X174678266Y-99034616D01*
X174729942Y-99118944D01*
X174790631Y-99217979D01*
X174794987Y-99225088D01*
X174941250Y-99393938D01*
X175113126Y-99536632D01*
X175186955Y-99579774D01*
X175235679Y-99631412D01*
X175248750Y-99701195D01*
X175222019Y-99766967D01*
X175181562Y-99800327D01*
X175173457Y-99804546D01*
X175164738Y-99810036D01*
X174994433Y-99937905D01*
X174986726Y-99944748D01*
X174839590Y-100098717D01*
X174833104Y-100106727D01*
X174713098Y-100282649D01*
X174708000Y-100291623D01*
X174618338Y-100484783D01*
X174614775Y-100494470D01*
X174559389Y-100694183D01*
X174560912Y-100702607D01*
X174573292Y-100706000D01*
X176023000Y-100706000D01*
X176091121Y-100726002D01*
X176137614Y-100779658D01*
X176149000Y-100832000D01*
X176149000Y-101088000D01*
X176128998Y-101156121D01*
X176075342Y-101202614D01*
X176023000Y-101214000D01*
X174578225Y-101214000D01*
X174564694Y-101217973D01*
X174563257Y-101227966D01*
X174593565Y-101362446D01*
X174596645Y-101372275D01*
X174676770Y-101569603D01*
X174681413Y-101578794D01*
X174792694Y-101760388D01*
X174798777Y-101768699D01*
X174938213Y-101929667D01*
X174945580Y-101936883D01*
X175109434Y-102072916D01*
X175117881Y-102078831D01*
X175186969Y-102119203D01*
X175235693Y-102170842D01*
X175248764Y-102240625D01*
X175222033Y-102306396D01*
X175181584Y-102339752D01*
X175168607Y-102346507D01*
X175164474Y-102349610D01*
X175164471Y-102349612D01*
X174994100Y-102477530D01*
X174989965Y-102480635D01*
X174956324Y-102515838D01*
X174841108Y-102636405D01*
X174835629Y-102642138D01*
X174832715Y-102646410D01*
X174832714Y-102646411D01*
X174802407Y-102690839D01*
X174709743Y-102826680D01*
X174689635Y-102870000D01*
X174648930Y-102957692D01*
X174615688Y-103029305D01*
X174555989Y-103244570D01*
X174532251Y-103466695D01*
X174545110Y-103689715D01*
X174546247Y-103694761D01*
X174546248Y-103694767D01*
X174570304Y-103801508D01*
X174594222Y-103907639D01*
X174678266Y-104114616D01*
X174794987Y-104305088D01*
X174941250Y-104473938D01*
X174945230Y-104477242D01*
X174949981Y-104481187D01*
X174989616Y-104540090D01*
X174991113Y-104611071D01*
X174953997Y-104671593D01*
X174913724Y-104696112D01*
X174798295Y-104739385D01*
X174681739Y-104826739D01*
X174594385Y-104943295D01*
X174543255Y-105079684D01*
X174536500Y-105141866D01*
X174536500Y-105305500D01*
X174516498Y-105373621D01*
X174462842Y-105420114D01*
X174410500Y-105431500D01*
X163133320Y-105431500D01*
X163065199Y-105411498D01*
X163026466Y-105372270D01*
X163026207Y-105371855D01*
X163020126Y-105362124D01*
X162955947Y-105297496D01*
X162897278Y-105238415D01*
X162897274Y-105238412D01*
X162892315Y-105233418D01*
X162881197Y-105226362D01*
X162833038Y-105195800D01*
X162739166Y-105136227D01*
X162659095Y-105107715D01*
X162574925Y-105077743D01*
X162574920Y-105077742D01*
X162568290Y-105075381D01*
X162561302Y-105074548D01*
X162561299Y-105074547D01*
X162438198Y-105059868D01*
X162388180Y-105053904D01*
X162381177Y-105054640D01*
X162381176Y-105054640D01*
X162214788Y-105072128D01*
X162214786Y-105072129D01*
X162207788Y-105072864D01*
X162036079Y-105131318D01*
X161973609Y-105169750D01*
X161887595Y-105222666D01*
X161887592Y-105222668D01*
X161881588Y-105226362D01*
X161876553Y-105231293D01*
X161876550Y-105231295D01*
X161785064Y-105320885D01*
X161751993Y-105353271D01*
X161653735Y-105505738D01*
X161651326Y-105512358D01*
X161651324Y-105512361D01*
X161620427Y-105597251D01*
X161591697Y-105676185D01*
X161568963Y-105856140D01*
X161586663Y-106036660D01*
X161643918Y-106208773D01*
X161647565Y-106214795D01*
X161647566Y-106214797D01*
X161666294Y-106245720D01*
X161737880Y-106363924D01*
X161742769Y-106368987D01*
X161742770Y-106368988D01*
X161801406Y-106429707D01*
X161863882Y-106494402D01*
X162015659Y-106593722D01*
X162022263Y-106596178D01*
X162022265Y-106596179D01*
X162179058Y-106654490D01*
X162179060Y-106654490D01*
X162185668Y-106656948D01*
X162269495Y-106668133D01*
X162358480Y-106680007D01*
X162358484Y-106680007D01*
X162365461Y-106680938D01*
X162372472Y-106680300D01*
X162372476Y-106680300D01*
X162514959Y-106667332D01*
X162546100Y-106664498D01*
X162552800Y-106662321D01*
X162552805Y-106662320D01*
X162576357Y-106654667D01*
X162615293Y-106648500D01*
X174410500Y-106648500D01*
X174478621Y-106668502D01*
X174525114Y-106722158D01*
X174536500Y-106774500D01*
X174536500Y-106938134D01*
X174543255Y-107000316D01*
X174594385Y-107136705D01*
X174681739Y-107253261D01*
X174798295Y-107340615D01*
X174806703Y-107343767D01*
X174904898Y-107380579D01*
X174961662Y-107423221D01*
X174986362Y-107489782D01*
X174971154Y-107559131D01*
X174951762Y-107585612D01*
X174885555Y-107654894D01*
X174835629Y-107707138D01*
X174709743Y-107891680D01*
X174694003Y-107925590D01*
X174619841Y-108085359D01*
X174615688Y-108094305D01*
X174555989Y-108309570D01*
X174532251Y-108531695D01*
X174532548Y-108536848D01*
X174532548Y-108536851D01*
X174538011Y-108631590D01*
X174545110Y-108754715D01*
X174546247Y-108759761D01*
X174546248Y-108759767D01*
X174566119Y-108847939D01*
X174594222Y-108972639D01*
X174678266Y-109179616D01*
X174794987Y-109370088D01*
X174941250Y-109538938D01*
X175113126Y-109681632D01*
X175169568Y-109714614D01*
X175186445Y-109724476D01*
X175235169Y-109776114D01*
X175248240Y-109845897D01*
X175221509Y-109911669D01*
X175181055Y-109945027D01*
X175174040Y-109948679D01*
X175168607Y-109951507D01*
X175164474Y-109954610D01*
X175164471Y-109954612D01*
X174994100Y-110082530D01*
X174989965Y-110085635D01*
X174835629Y-110247138D01*
X174709743Y-110431680D01*
X174615688Y-110634305D01*
X174555989Y-110849570D01*
X174532251Y-111071695D01*
X174532548Y-111076848D01*
X174532548Y-111076851D01*
X174537946Y-111170464D01*
X174545110Y-111294715D01*
X174546247Y-111299761D01*
X174546248Y-111299767D01*
X174552462Y-111327338D01*
X174594222Y-111512639D01*
X174632461Y-111606811D01*
X174675202Y-111712069D01*
X174678266Y-111719616D01*
X174712663Y-111775747D01*
X174785495Y-111894598D01*
X174794987Y-111910088D01*
X174941250Y-112078938D01*
X174945230Y-112082242D01*
X174949981Y-112086187D01*
X174989616Y-112145090D01*
X174991113Y-112216071D01*
X174953997Y-112276593D01*
X174913724Y-112301112D01*
X174798295Y-112344385D01*
X174681739Y-112431739D01*
X174594385Y-112548295D01*
X174543255Y-112684684D01*
X174536500Y-112746866D01*
X174536500Y-114543134D01*
X174543255Y-114605316D01*
X174594385Y-114741705D01*
X174681739Y-114858261D01*
X174798295Y-114945615D01*
X174934684Y-114996745D01*
X174996866Y-115003500D01*
X176793134Y-115003500D01*
X176855316Y-114996745D01*
X176991705Y-114945615D01*
X177108261Y-114858261D01*
X177195615Y-114741705D01*
X177246745Y-114605316D01*
X177253500Y-114543134D01*
X177253500Y-112746866D01*
X177246745Y-112684684D01*
X177195615Y-112548295D01*
X177108261Y-112431739D01*
X176991705Y-112344385D01*
X176945475Y-112327054D01*
X176873203Y-112299960D01*
X176816439Y-112257318D01*
X176791739Y-112190756D01*
X176806947Y-112121408D01*
X176828493Y-112092727D01*
X176842330Y-112078938D01*
X176933096Y-111988489D01*
X176977747Y-111926351D01*
X177060435Y-111811277D01*
X177063453Y-111807077D01*
X177072320Y-111789137D01*
X177160136Y-111611453D01*
X177160137Y-111611451D01*
X177162430Y-111606811D01*
X177227370Y-111393069D01*
X177256529Y-111171590D01*
X177257467Y-111133211D01*
X177258074Y-111108365D01*
X177258074Y-111108361D01*
X177258156Y-111105000D01*
X177239852Y-110882361D01*
X177185431Y-110665702D01*
X177096354Y-110460840D01*
X176975014Y-110273277D01*
X176824670Y-110108051D01*
X176820619Y-110104852D01*
X176820615Y-110104848D01*
X176653414Y-109972800D01*
X176653410Y-109972798D01*
X176649359Y-109969598D01*
X176608053Y-109946796D01*
X176558084Y-109896364D01*
X176543312Y-109826921D01*
X176568428Y-109760516D01*
X176595780Y-109733909D01*
X176639603Y-109702650D01*
X176774860Y-109606173D01*
X176783290Y-109597773D01*
X176929435Y-109452137D01*
X176933096Y-109448489D01*
X176992594Y-109365689D01*
X177060435Y-109271277D01*
X177063453Y-109267077D01*
X177075493Y-109242717D01*
X177160136Y-109071453D01*
X177160137Y-109071451D01*
X177162430Y-109066811D01*
X177220675Y-108875106D01*
X177225865Y-108858023D01*
X177225865Y-108858021D01*
X177227370Y-108853069D01*
X177256529Y-108631590D01*
X177257737Y-108582143D01*
X177258074Y-108568365D01*
X177258074Y-108568361D01*
X177258156Y-108565000D01*
X177239852Y-108342361D01*
X177185431Y-108125702D01*
X177096354Y-107920840D01*
X177023155Y-107807692D01*
X176977822Y-107737617D01*
X176977820Y-107737614D01*
X176975014Y-107733277D01*
X176837974Y-107582672D01*
X176806923Y-107518826D01*
X176815318Y-107448327D01*
X176860494Y-107393559D01*
X176886939Y-107379890D01*
X176983295Y-107343768D01*
X176983296Y-107343767D01*
X176991705Y-107340615D01*
X177108261Y-107253261D01*
X177195615Y-107136705D01*
X177246745Y-107000316D01*
X177253500Y-106938134D01*
X177253500Y-105141866D01*
X177246745Y-105079684D01*
X177195615Y-104943295D01*
X177108261Y-104826739D01*
X176991705Y-104739385D01*
X176979132Y-104734672D01*
X176873203Y-104694960D01*
X176816439Y-104652318D01*
X176791739Y-104585756D01*
X176806947Y-104516408D01*
X176828493Y-104487727D01*
X176929435Y-104387137D01*
X176933096Y-104383489D01*
X176992594Y-104300689D01*
X177060435Y-104206277D01*
X177063453Y-104202077D01*
X177070626Y-104187562D01*
X177118741Y-104135356D01*
X177167137Y-104118469D01*
X177315664Y-104098916D01*
X177315666Y-104098916D01*
X177323851Y-104097838D01*
X177471876Y-104036524D01*
X177567072Y-103963477D01*
X177567074Y-103963475D01*
X177598987Y-103938987D01*
X177604010Y-103932441D01*
X177604013Y-103932438D01*
X177618452Y-103913621D01*
X177629319Y-103901230D01*
X178196234Y-103334315D01*
X178208625Y-103323448D01*
X178227437Y-103309013D01*
X178233987Y-103303987D01*
X178258474Y-103272075D01*
X178258478Y-103272071D01*
X178331524Y-103176876D01*
X178392838Y-103028851D01*
X178413751Y-102870000D01*
X178409578Y-102838301D01*
X178408500Y-102821856D01*
X178408500Y-95298136D01*
X178409578Y-95281690D01*
X178412672Y-95258188D01*
X178413750Y-95250000D01*
X178408500Y-95210120D01*
X178408500Y-95210115D01*
X178392838Y-95091150D01*
X178388774Y-95081338D01*
X178331524Y-94943124D01*
X178258478Y-94847929D01*
X178258474Y-94847925D01*
X178258471Y-94847921D01*
X178239016Y-94822566D01*
X178239013Y-94822563D01*
X178233987Y-94816013D01*
X178220878Y-94805954D01*
X178208621Y-94796548D01*
X178196230Y-94785681D01*
X173184315Y-89773766D01*
X173173448Y-89761375D01*
X173159013Y-89742563D01*
X173153987Y-89736013D01*
X173122075Y-89711526D01*
X173122069Y-89711520D01*
X173033429Y-89643504D01*
X173033427Y-89643503D01*
X173026876Y-89638476D01*
X172878851Y-89577162D01*
X172870664Y-89576084D01*
X172870663Y-89576084D01*
X172859458Y-89574609D01*
X172828262Y-89570502D01*
X172759885Y-89561500D01*
X172759882Y-89561500D01*
X172759874Y-89561499D01*
X172728189Y-89557328D01*
X172720000Y-89556250D01*
X172688307Y-89560422D01*
X172671864Y-89561500D01*
X113713136Y-89561500D01*
X113696693Y-89560422D01*
X113665000Y-89556250D01*
X113656811Y-89557328D01*
X113625126Y-89561499D01*
X113625117Y-89561500D01*
X113625115Y-89561500D01*
X113625109Y-89561501D01*
X113625107Y-89561501D01*
X113525543Y-89574609D01*
X113514336Y-89576084D01*
X113514334Y-89576085D01*
X113506149Y-89577162D01*
X113358124Y-89638476D01*
X113312305Y-89673634D01*
X113262937Y-89711515D01*
X113262921Y-89711529D01*
X113237566Y-89730984D01*
X113237563Y-89730987D01*
X113231013Y-89736013D01*
X113225983Y-89742568D01*
X113211548Y-89761379D01*
X113200681Y-89773770D01*
X111363766Y-91610685D01*
X111351375Y-91621552D01*
X111326013Y-91641013D01*
X111301526Y-91672925D01*
X111301523Y-91672928D01*
X111228476Y-91768124D01*
X111207836Y-91817954D01*
X111167162Y-91916150D01*
X111166084Y-91924338D01*
X111154543Y-92012000D01*
X111151500Y-92035115D01*
X111151500Y-92035120D01*
X111146250Y-92075000D01*
X111147328Y-92083188D01*
X111150422Y-92106690D01*
X111151500Y-92123136D01*
X111151500Y-93958678D01*
X111131498Y-94026799D01*
X111083683Y-94070439D01*
X111033607Y-94096507D01*
X111029474Y-94099610D01*
X111029471Y-94099612D01*
X110859100Y-94227530D01*
X110854965Y-94230635D01*
X110827651Y-94259217D01*
X110709682Y-94382665D01*
X110700629Y-94392138D01*
X110593201Y-94549621D01*
X110538293Y-94594621D01*
X110467768Y-94602792D01*
X110404021Y-94571538D01*
X110383324Y-94547054D01*
X110302822Y-94422617D01*
X110302820Y-94422614D01*
X110300014Y-94418277D01*
X110149670Y-94253051D01*
X110145619Y-94249852D01*
X110145615Y-94249848D01*
X109978414Y-94117800D01*
X109978410Y-94117798D01*
X109974359Y-94114598D01*
X109778789Y-94006638D01*
X109773920Y-94004914D01*
X109773916Y-94004912D01*
X109573087Y-93933795D01*
X109573083Y-93933794D01*
X109568212Y-93932069D01*
X109563119Y-93931162D01*
X109563116Y-93931161D01*
X109353373Y-93893800D01*
X109353367Y-93893799D01*
X109348284Y-93892894D01*
X109274452Y-93891992D01*
X109130081Y-93890228D01*
X109130079Y-93890228D01*
X109124911Y-93890165D01*
X108904091Y-93923955D01*
X108691756Y-93993357D01*
X108493607Y-94096507D01*
X108489474Y-94099610D01*
X108489471Y-94099612D01*
X108319100Y-94227530D01*
X108314965Y-94230635D01*
X108311393Y-94234373D01*
X108233898Y-94315466D01*
X108172374Y-94350895D01*
X108101462Y-94347438D01*
X108043676Y-94306192D01*
X108024823Y-94272644D01*
X107983324Y-94161946D01*
X107974786Y-94146351D01*
X107898285Y-94044276D01*
X107885724Y-94031715D01*
X107783649Y-93955214D01*
X107768054Y-93946676D01*
X107647606Y-93901522D01*
X107632351Y-93897895D01*
X107581486Y-93892369D01*
X107574672Y-93892000D01*
X106952115Y-93892000D01*
X106936876Y-93896475D01*
X106935671Y-93897865D01*
X106934000Y-93905548D01*
X106934000Y-96589884D01*
X106938475Y-96605123D01*
X106939865Y-96606328D01*
X106947548Y-96607999D01*
X107574669Y-96607999D01*
X107581490Y-96607629D01*
X107632352Y-96602105D01*
X107647604Y-96598479D01*
X107768054Y-96553324D01*
X107783649Y-96544786D01*
X107885724Y-96468285D01*
X107898285Y-96455724D01*
X107974786Y-96353649D01*
X107983324Y-96338054D01*
X108024225Y-96228952D01*
X108066867Y-96172188D01*
X108133428Y-96147488D01*
X108202777Y-96162696D01*
X108237444Y-96190684D01*
X108262865Y-96220031D01*
X108262869Y-96220035D01*
X108266250Y-96223938D01*
X108438126Y-96366632D01*
X108631000Y-96479338D01*
X108635825Y-96481180D01*
X108635826Y-96481181D01*
X108701056Y-96506090D01*
X108839692Y-96559030D01*
X108844760Y-96560061D01*
X108844763Y-96560062D01*
X108933251Y-96578065D01*
X109058597Y-96603567D01*
X109063772Y-96603757D01*
X109063774Y-96603757D01*
X109276673Y-96611564D01*
X109276677Y-96611564D01*
X109281837Y-96611753D01*
X109286957Y-96611097D01*
X109286959Y-96611097D01*
X109498288Y-96584025D01*
X109498289Y-96584025D01*
X109503416Y-96583368D01*
X109508366Y-96581883D01*
X109712429Y-96520661D01*
X109712434Y-96520659D01*
X109717384Y-96519174D01*
X109917994Y-96420896D01*
X110099860Y-96291173D01*
X110136377Y-96254784D01*
X110200701Y-96190684D01*
X110258096Y-96133489D01*
X110271919Y-96114253D01*
X110388453Y-95952077D01*
X110389776Y-95953028D01*
X110436645Y-95909857D01*
X110506580Y-95897625D01*
X110572026Y-95925144D01*
X110599875Y-95956994D01*
X110659987Y-96055088D01*
X110806250Y-96223938D01*
X110978126Y-96366632D01*
X111171000Y-96479338D01*
X111175825Y-96481180D01*
X111175826Y-96481181D01*
X111241056Y-96506090D01*
X111379692Y-96559030D01*
X111384760Y-96560061D01*
X111384763Y-96560062D01*
X111473251Y-96578065D01*
X111598597Y-96603567D01*
X111603772Y-96603757D01*
X111603774Y-96603757D01*
X111816673Y-96611564D01*
X111816677Y-96611564D01*
X111821837Y-96611753D01*
X111826957Y-96611097D01*
X111826959Y-96611097D01*
X112038288Y-96584025D01*
X112038289Y-96584025D01*
X112043416Y-96583368D01*
X112048366Y-96581883D01*
X112252429Y-96520661D01*
X112252434Y-96520659D01*
X112257384Y-96519174D01*
X112276571Y-96509775D01*
X112346542Y-96497769D01*
X112411899Y-96525500D01*
X112451889Y-96584163D01*
X112458000Y-96622927D01*
X112458000Y-101310880D01*
X112437998Y-101379001D01*
X112421095Y-101399975D01*
X102123168Y-111697902D01*
X102060856Y-111731928D01*
X101992014Y-111727580D01*
X101953084Y-111713794D01*
X101953081Y-111713793D01*
X101948212Y-111712069D01*
X101943123Y-111711162D01*
X101943121Y-111711162D01*
X101733373Y-111673800D01*
X101733367Y-111673799D01*
X101728284Y-111672894D01*
X101654452Y-111671992D01*
X101510081Y-111670228D01*
X101510079Y-111670228D01*
X101504911Y-111670165D01*
X101284091Y-111703955D01*
X101071756Y-111773357D01*
X101041443Y-111789137D01*
X100889711Y-111868124D01*
X100873607Y-111876507D01*
X100869474Y-111879610D01*
X100869471Y-111879612D01*
X100719602Y-111992137D01*
X100694965Y-112010635D01*
X100583346Y-112127438D01*
X100547094Y-112165373D01*
X100485570Y-112200803D01*
X100414657Y-112197346D01*
X100356871Y-112156100D01*
X100330557Y-112090160D01*
X100330000Y-112078322D01*
X100330000Y-107723015D01*
X100350002Y-107654894D01*
X100403658Y-107608401D01*
X100473932Y-107598297D01*
X100538512Y-107627791D01*
X100563433Y-107657180D01*
X100589501Y-107699719D01*
X100741147Y-107874784D01*
X100919349Y-108022730D01*
X101119322Y-108139584D01*
X101335694Y-108222209D01*
X101340760Y-108223240D01*
X101340761Y-108223240D01*
X101393846Y-108234040D01*
X101562656Y-108268385D01*
X101693324Y-108273176D01*
X101788949Y-108276683D01*
X101788953Y-108276683D01*
X101794113Y-108276872D01*
X101799233Y-108276216D01*
X101799235Y-108276216D01*
X101885975Y-108265104D01*
X102023847Y-108247442D01*
X102028795Y-108245957D01*
X102028802Y-108245956D01*
X102240747Y-108182369D01*
X102245690Y-108180886D01*
X102250324Y-108178616D01*
X102449049Y-108081262D01*
X102449052Y-108081260D01*
X102453684Y-108078991D01*
X102642243Y-107944494D01*
X102806303Y-107781005D01*
X102941458Y-107592917D01*
X102945069Y-107585612D01*
X103041784Y-107389922D01*
X103041785Y-107389920D01*
X103044078Y-107385280D01*
X103111408Y-107163671D01*
X103141640Y-106934041D01*
X103141722Y-106930691D01*
X103143245Y-106868365D01*
X103143245Y-106868361D01*
X103143327Y-106865000D01*
X103133592Y-106746590D01*
X103124773Y-106639318D01*
X103124772Y-106639312D01*
X103124349Y-106634167D01*
X103106976Y-106565000D01*
X103496693Y-106565000D01*
X103515885Y-106784371D01*
X103572880Y-106997076D01*
X103575205Y-107002061D01*
X103663618Y-107191666D01*
X103663621Y-107191671D01*
X103665944Y-107196653D01*
X103669100Y-107201160D01*
X103669101Y-107201162D01*
X103783953Y-107365187D01*
X103792251Y-107377038D01*
X103947962Y-107532749D01*
X104128346Y-107659056D01*
X104327924Y-107752120D01*
X104540629Y-107809115D01*
X104760000Y-107828307D01*
X104979371Y-107809115D01*
X105192076Y-107752120D01*
X105391654Y-107659056D01*
X105572038Y-107532749D01*
X105727749Y-107377038D01*
X105736048Y-107365187D01*
X105850899Y-107201162D01*
X105850900Y-107201160D01*
X105854056Y-107196653D01*
X105856379Y-107191671D01*
X105856382Y-107191666D01*
X105944795Y-107002061D01*
X105947120Y-106997076D01*
X106004115Y-106784371D01*
X106023307Y-106565000D01*
X106004115Y-106345629D01*
X105947120Y-106132924D01*
X105903585Y-106039562D01*
X105856382Y-105938334D01*
X105856379Y-105938329D01*
X105854056Y-105933347D01*
X105799995Y-105856140D01*
X105730908Y-105757473D01*
X105730906Y-105757470D01*
X105727749Y-105752962D01*
X105572038Y-105597251D01*
X105525260Y-105564496D01*
X105450803Y-105512361D01*
X105391654Y-105470944D01*
X105192076Y-105377880D01*
X104979371Y-105320885D01*
X104760000Y-105301693D01*
X104540629Y-105320885D01*
X104327924Y-105377880D01*
X104255830Y-105411498D01*
X104133334Y-105468618D01*
X104133329Y-105468621D01*
X104128347Y-105470944D01*
X104123840Y-105474100D01*
X104123838Y-105474101D01*
X103952473Y-105594092D01*
X103952470Y-105594094D01*
X103947962Y-105597251D01*
X103792251Y-105752962D01*
X103789094Y-105757470D01*
X103789092Y-105757473D01*
X103720005Y-105856140D01*
X103665944Y-105933347D01*
X103663621Y-105938329D01*
X103663618Y-105938334D01*
X103616415Y-106039562D01*
X103572880Y-106132924D01*
X103515885Y-106345629D01*
X103496693Y-106565000D01*
X103106976Y-106565000D01*
X103078678Y-106452342D01*
X103069184Y-106414544D01*
X103069183Y-106414540D01*
X103067925Y-106409533D01*
X102992451Y-106235954D01*
X102977630Y-106201868D01*
X102977628Y-106201865D01*
X102975570Y-106197131D01*
X102849764Y-106002665D01*
X102693887Y-105831358D01*
X102689836Y-105828159D01*
X102689832Y-105828155D01*
X102516177Y-105691011D01*
X102516172Y-105691008D01*
X102512123Y-105687810D01*
X102507607Y-105685317D01*
X102507604Y-105685315D01*
X102313879Y-105578373D01*
X102313875Y-105578371D01*
X102309355Y-105575876D01*
X102304486Y-105574152D01*
X102304482Y-105574150D01*
X102095903Y-105500288D01*
X102095899Y-105500287D01*
X102091028Y-105498562D01*
X102085935Y-105497655D01*
X102085932Y-105497654D01*
X101868095Y-105458851D01*
X101868089Y-105458850D01*
X101863006Y-105457945D01*
X101790096Y-105457054D01*
X101636581Y-105455179D01*
X101636579Y-105455179D01*
X101631411Y-105455116D01*
X101402464Y-105490150D01*
X101182314Y-105562106D01*
X101177726Y-105564494D01*
X101177722Y-105564496D01*
X100981461Y-105666663D01*
X100976872Y-105669052D01*
X100972739Y-105672155D01*
X100972736Y-105672157D01*
X100865114Y-105752962D01*
X100791655Y-105808117D01*
X100631639Y-105975564D01*
X100628725Y-105979836D01*
X100628724Y-105979837D01*
X100560088Y-106080454D01*
X100505177Y-106125457D01*
X100434652Y-106133628D01*
X100370905Y-106102374D01*
X100334175Y-106041617D01*
X100330000Y-106009450D01*
X100330000Y-102273015D01*
X100350002Y-102204894D01*
X100403658Y-102158401D01*
X100473932Y-102148297D01*
X100538512Y-102177791D01*
X100563433Y-102207180D01*
X100589501Y-102249719D01*
X100741147Y-102424784D01*
X100919349Y-102572730D01*
X101119322Y-102689584D01*
X101124147Y-102691426D01*
X101124148Y-102691427D01*
X101190153Y-102716632D01*
X101335694Y-102772209D01*
X101340760Y-102773240D01*
X101340761Y-102773240D01*
X101381361Y-102781500D01*
X101562656Y-102818385D01*
X101693324Y-102823176D01*
X101788949Y-102826683D01*
X101788953Y-102826683D01*
X101794113Y-102826872D01*
X101799233Y-102826216D01*
X101799235Y-102826216D01*
X101872270Y-102816860D01*
X102023847Y-102797442D01*
X102028795Y-102795957D01*
X102028802Y-102795956D01*
X102240747Y-102732369D01*
X102245690Y-102730886D01*
X102286138Y-102711071D01*
X102449049Y-102631262D01*
X102449052Y-102631260D01*
X102453684Y-102628991D01*
X102642243Y-102494494D01*
X102806303Y-102331005D01*
X102941458Y-102142917D01*
X102976055Y-102072916D01*
X103041784Y-101939922D01*
X103041785Y-101939920D01*
X103044078Y-101935280D01*
X103111004Y-101715000D01*
X103496693Y-101715000D01*
X103515885Y-101934371D01*
X103572880Y-102147076D01*
X103592549Y-102189256D01*
X103663618Y-102341666D01*
X103663621Y-102341671D01*
X103665944Y-102346653D01*
X103669100Y-102351160D01*
X103669101Y-102351162D01*
X103784409Y-102515838D01*
X103792251Y-102527038D01*
X103947962Y-102682749D01*
X103952471Y-102685906D01*
X103952473Y-102685908D01*
X104013466Y-102728616D01*
X104128346Y-102809056D01*
X104327924Y-102902120D01*
X104540629Y-102959115D01*
X104760000Y-102978307D01*
X104979371Y-102959115D01*
X105192076Y-102902120D01*
X105391654Y-102809056D01*
X105506534Y-102728616D01*
X105567527Y-102685908D01*
X105567529Y-102685906D01*
X105572038Y-102682749D01*
X105727749Y-102527038D01*
X105735592Y-102515838D01*
X105850899Y-102351162D01*
X105850900Y-102351160D01*
X105854056Y-102346653D01*
X105856379Y-102341671D01*
X105856382Y-102341666D01*
X105927451Y-102189256D01*
X105947120Y-102147076D01*
X106004115Y-101934371D01*
X106023307Y-101715000D01*
X106004115Y-101495629D01*
X105947120Y-101282924D01*
X105885216Y-101150169D01*
X105856382Y-101088334D01*
X105856379Y-101088329D01*
X105854056Y-101083347D01*
X105850899Y-101078838D01*
X105730908Y-100907473D01*
X105730906Y-100907470D01*
X105727749Y-100902962D01*
X105572038Y-100747251D01*
X105565672Y-100742793D01*
X105436540Y-100652374D01*
X105391654Y-100620944D01*
X105192076Y-100527880D01*
X104979371Y-100470885D01*
X104760000Y-100451693D01*
X104540629Y-100470885D01*
X104327924Y-100527880D01*
X104260222Y-100559450D01*
X104133334Y-100618618D01*
X104133329Y-100618621D01*
X104128347Y-100620944D01*
X104123840Y-100624100D01*
X104123838Y-100624101D01*
X103952473Y-100744092D01*
X103952470Y-100744094D01*
X103947962Y-100747251D01*
X103792251Y-100902962D01*
X103789094Y-100907470D01*
X103789092Y-100907473D01*
X103669101Y-101078838D01*
X103665944Y-101083347D01*
X103663621Y-101088329D01*
X103663618Y-101088334D01*
X103634784Y-101150169D01*
X103572880Y-101282924D01*
X103515885Y-101495629D01*
X103496693Y-101715000D01*
X103111004Y-101715000D01*
X103111408Y-101713671D01*
X103141640Y-101484041D01*
X103143327Y-101415000D01*
X103132905Y-101288235D01*
X103124773Y-101189318D01*
X103124772Y-101189312D01*
X103124349Y-101184167D01*
X103067925Y-100959533D01*
X103045289Y-100907473D01*
X102977630Y-100751868D01*
X102977628Y-100751865D01*
X102975570Y-100747131D01*
X102849764Y-100552665D01*
X102827212Y-100527880D01*
X102767357Y-100462101D01*
X102693887Y-100381358D01*
X102689836Y-100378159D01*
X102689832Y-100378155D01*
X102516177Y-100241011D01*
X102516172Y-100241008D01*
X102512123Y-100237810D01*
X102507607Y-100235317D01*
X102507604Y-100235315D01*
X102313879Y-100128373D01*
X102313875Y-100128371D01*
X102309355Y-100125876D01*
X102304486Y-100124152D01*
X102304482Y-100124150D01*
X102095903Y-100050288D01*
X102095899Y-100050287D01*
X102091028Y-100048562D01*
X102085935Y-100047655D01*
X102085932Y-100047654D01*
X101868095Y-100008851D01*
X101868089Y-100008850D01*
X101863006Y-100007945D01*
X101790096Y-100007054D01*
X101636581Y-100005179D01*
X101636579Y-100005179D01*
X101631411Y-100005116D01*
X101402464Y-100040150D01*
X101182314Y-100112106D01*
X101177726Y-100114494D01*
X101177722Y-100114496D01*
X100981461Y-100216663D01*
X100976872Y-100219052D01*
X100972739Y-100222155D01*
X100972736Y-100222157D01*
X100795790Y-100355012D01*
X100791655Y-100358117D01*
X100788083Y-100361855D01*
X100686840Y-100467800D01*
X100631639Y-100525564D01*
X100628725Y-100529836D01*
X100628724Y-100529837D01*
X100560088Y-100630454D01*
X100505177Y-100675457D01*
X100434652Y-100683628D01*
X100370905Y-100652374D01*
X100334175Y-100591617D01*
X100330000Y-100559450D01*
X100330000Y-96196750D01*
X100350002Y-96128629D01*
X100403658Y-96082136D01*
X100473932Y-96072032D01*
X100538512Y-96101526D01*
X100551234Y-96114249D01*
X100585845Y-96154205D01*
X100642866Y-96220032D01*
X100642869Y-96220035D01*
X100646250Y-96223938D01*
X100818126Y-96366632D01*
X101011000Y-96479338D01*
X101015825Y-96481180D01*
X101015826Y-96481181D01*
X101081056Y-96506090D01*
X101219692Y-96559030D01*
X101224760Y-96560061D01*
X101224763Y-96560062D01*
X101313251Y-96578065D01*
X101438597Y-96603567D01*
X101443772Y-96603757D01*
X101443774Y-96603757D01*
X101656673Y-96611564D01*
X101656677Y-96611564D01*
X101661837Y-96611753D01*
X101666957Y-96611097D01*
X101666959Y-96611097D01*
X101878288Y-96584025D01*
X101878289Y-96584025D01*
X101883416Y-96583368D01*
X101888366Y-96581883D01*
X102092429Y-96520661D01*
X102092434Y-96520659D01*
X102097384Y-96519174D01*
X102297994Y-96420896D01*
X102479860Y-96291173D01*
X102516377Y-96254784D01*
X102580701Y-96190684D01*
X102638096Y-96133489D01*
X102651919Y-96114253D01*
X102768453Y-95952077D01*
X102769776Y-95953028D01*
X102816645Y-95909857D01*
X102886580Y-95897625D01*
X102952026Y-95925144D01*
X102979875Y-95956994D01*
X103039987Y-96055088D01*
X103186250Y-96223938D01*
X103358126Y-96366632D01*
X103551000Y-96479338D01*
X103555825Y-96481180D01*
X103555826Y-96481181D01*
X103621056Y-96506090D01*
X103759692Y-96559030D01*
X103764760Y-96560061D01*
X103764763Y-96560062D01*
X103853251Y-96578065D01*
X103978597Y-96603567D01*
X103983772Y-96603757D01*
X103983774Y-96603757D01*
X104196673Y-96611564D01*
X104196677Y-96611564D01*
X104201837Y-96611753D01*
X104206957Y-96611097D01*
X104206959Y-96611097D01*
X104418288Y-96584025D01*
X104418289Y-96584025D01*
X104423416Y-96583368D01*
X104428366Y-96581883D01*
X104632429Y-96520661D01*
X104632434Y-96520659D01*
X104637384Y-96519174D01*
X104837994Y-96420896D01*
X105019860Y-96291173D01*
X105056377Y-96254784D01*
X105128479Y-96182933D01*
X105190851Y-96149017D01*
X105261658Y-96154205D01*
X105318419Y-96196851D01*
X105335401Y-96227954D01*
X105376676Y-96338054D01*
X105385214Y-96353649D01*
X105461715Y-96455724D01*
X105474276Y-96468285D01*
X105576351Y-96544786D01*
X105591946Y-96553324D01*
X105712394Y-96598478D01*
X105727649Y-96602105D01*
X105778514Y-96607631D01*
X105785328Y-96608000D01*
X106407885Y-96608000D01*
X106423124Y-96603525D01*
X106424329Y-96602135D01*
X106426000Y-96594452D01*
X106426000Y-93910116D01*
X106421525Y-93894877D01*
X106420135Y-93893672D01*
X106412452Y-93892001D01*
X105785331Y-93892001D01*
X105778510Y-93892371D01*
X105727648Y-93897895D01*
X105712396Y-93901521D01*
X105591946Y-93946676D01*
X105576351Y-93955214D01*
X105474276Y-94031715D01*
X105461715Y-94044276D01*
X105385214Y-94146351D01*
X105376676Y-94161946D01*
X105335297Y-94272322D01*
X105292655Y-94329087D01*
X105226093Y-94353786D01*
X105156744Y-94338578D01*
X105124121Y-94312891D01*
X105073151Y-94256876D01*
X105073145Y-94256870D01*
X105069670Y-94253051D01*
X105065619Y-94249852D01*
X105065615Y-94249848D01*
X104898414Y-94117800D01*
X104898410Y-94117798D01*
X104894359Y-94114598D01*
X104698789Y-94006638D01*
X104693920Y-94004914D01*
X104693916Y-94004912D01*
X104493087Y-93933795D01*
X104493083Y-93933794D01*
X104488212Y-93932069D01*
X104483119Y-93931162D01*
X104483116Y-93931161D01*
X104273373Y-93893800D01*
X104273367Y-93893799D01*
X104268284Y-93892894D01*
X104194452Y-93891992D01*
X104050081Y-93890228D01*
X104050079Y-93890228D01*
X104044911Y-93890165D01*
X103824091Y-93923955D01*
X103611756Y-93993357D01*
X103413607Y-94096507D01*
X103409474Y-94099610D01*
X103409471Y-94099612D01*
X103239100Y-94227530D01*
X103234965Y-94230635D01*
X103207651Y-94259217D01*
X103089682Y-94382665D01*
X103080629Y-94392138D01*
X102973201Y-94549621D01*
X102918293Y-94594621D01*
X102847768Y-94602792D01*
X102784021Y-94571538D01*
X102763324Y-94547054D01*
X102682822Y-94422617D01*
X102682820Y-94422614D01*
X102680014Y-94418277D01*
X102529670Y-94253051D01*
X102525619Y-94249852D01*
X102525615Y-94249848D01*
X102358414Y-94117800D01*
X102358410Y-94117798D01*
X102354359Y-94114598D01*
X102158789Y-94006638D01*
X102153920Y-94004914D01*
X102153916Y-94004912D01*
X101953087Y-93933795D01*
X101953083Y-93933794D01*
X101948212Y-93932069D01*
X101943119Y-93931162D01*
X101943116Y-93931161D01*
X101733373Y-93893800D01*
X101733367Y-93893799D01*
X101728284Y-93892894D01*
X101654452Y-93891992D01*
X101510081Y-93890228D01*
X101510079Y-93890228D01*
X101504911Y-93890165D01*
X101284091Y-93923955D01*
X101071756Y-93993357D01*
X100873607Y-94096507D01*
X100869474Y-94099610D01*
X100869471Y-94099612D01*
X100699100Y-94227530D01*
X100694965Y-94230635D01*
X100583346Y-94347438D01*
X100547094Y-94385373D01*
X100485570Y-94420803D01*
X100414657Y-94417346D01*
X100356871Y-94376100D01*
X100330557Y-94310160D01*
X100330000Y-94298322D01*
X100330000Y-88391000D01*
X100350002Y-88322879D01*
X100403658Y-88276386D01*
X100456000Y-88265000D01*
X180214000Y-88265000D01*
X180282121Y-88285002D01*
G37*
%TD.AperFunction*%
%TD*%
%TA.AperFunction,Conductor*%
%TO.N,/remote_GND*%
G36*
X180282121Y-61615002D02*
G01*
X180328614Y-61668658D01*
X180340000Y-61721000D01*
X180340000Y-86869000D01*
X180319998Y-86937121D01*
X180266342Y-86983614D01*
X180214000Y-86995000D01*
X136651000Y-86995000D01*
X136582879Y-86974998D01*
X136536386Y-86921342D01*
X136525000Y-86869000D01*
X136525000Y-80236695D01*
X139507251Y-80236695D01*
X139507548Y-80241848D01*
X139507548Y-80241851D01*
X139517847Y-80420465D01*
X139520110Y-80459715D01*
X139521247Y-80464761D01*
X139521248Y-80464767D01*
X139541119Y-80552939D01*
X139569222Y-80677639D01*
X139653266Y-80884616D01*
X139680842Y-80929616D01*
X139737348Y-81021825D01*
X139769987Y-81075088D01*
X139916250Y-81243938D01*
X139920230Y-81247242D01*
X139924981Y-81251187D01*
X139964616Y-81310090D01*
X139966113Y-81381071D01*
X139928997Y-81441593D01*
X139888725Y-81466112D01*
X139841252Y-81483909D01*
X139773295Y-81509385D01*
X139656739Y-81596739D01*
X139569385Y-81713295D01*
X139518255Y-81849684D01*
X139511500Y-81911866D01*
X139511500Y-83708134D01*
X139518255Y-83770316D01*
X139569385Y-83906705D01*
X139656739Y-84023261D01*
X139773295Y-84110615D01*
X139909684Y-84161745D01*
X139971866Y-84168500D01*
X141768134Y-84168500D01*
X141830316Y-84161745D01*
X141966705Y-84110615D01*
X142083261Y-84023261D01*
X142170615Y-83906705D01*
X142221745Y-83770316D01*
X142228500Y-83708134D01*
X142228500Y-82821695D01*
X145932251Y-82821695D01*
X145932548Y-82826848D01*
X145932548Y-82826851D01*
X145941665Y-82984969D01*
X145945110Y-83044715D01*
X145946247Y-83049761D01*
X145946248Y-83049767D01*
X145965674Y-83135965D01*
X145994222Y-83262639D01*
X146078266Y-83469616D01*
X146194987Y-83660088D01*
X146341250Y-83828938D01*
X146513126Y-83971632D01*
X146706000Y-84084338D01*
X146914692Y-84164030D01*
X146919760Y-84165061D01*
X146919763Y-84165062D01*
X147027017Y-84186883D01*
X147133597Y-84208567D01*
X147138772Y-84208757D01*
X147138774Y-84208757D01*
X147351673Y-84216564D01*
X147351677Y-84216564D01*
X147356837Y-84216753D01*
X147361957Y-84216097D01*
X147361959Y-84216097D01*
X147573288Y-84189025D01*
X147573289Y-84189025D01*
X147578416Y-84188368D01*
X147583366Y-84186883D01*
X147787429Y-84125661D01*
X147787434Y-84125659D01*
X147792384Y-84124174D01*
X147992994Y-84025896D01*
X148174860Y-83896173D01*
X148333096Y-83738489D01*
X148392594Y-83655689D01*
X148460435Y-83561277D01*
X148463453Y-83557077D01*
X148536373Y-83409535D01*
X148560136Y-83361453D01*
X148560137Y-83361451D01*
X148562430Y-83356811D01*
X148627370Y-83143069D01*
X148656529Y-82921590D01*
X148658156Y-82855000D01*
X148639852Y-82632361D01*
X148585431Y-82415702D01*
X148496354Y-82210840D01*
X148375014Y-82023277D01*
X148224670Y-81858051D01*
X148220619Y-81854852D01*
X148220615Y-81854848D01*
X148053414Y-81722800D01*
X148053410Y-81722798D01*
X148049359Y-81719598D01*
X148008053Y-81696796D01*
X147958084Y-81646364D01*
X147943312Y-81576921D01*
X147968428Y-81510516D01*
X147995780Y-81483909D01*
X148056082Y-81440896D01*
X148174860Y-81356173D01*
X148195882Y-81335225D01*
X148273651Y-81257727D01*
X148333096Y-81198489D01*
X148368448Y-81149292D01*
X148460435Y-81021277D01*
X148463453Y-81017077D01*
X148483618Y-80976277D01*
X148560136Y-80821453D01*
X148560137Y-80821451D01*
X148562430Y-80816811D01*
X148627370Y-80603069D01*
X148656529Y-80381590D01*
X148656611Y-80378240D01*
X148658074Y-80318365D01*
X148658074Y-80318361D01*
X148658156Y-80315000D01*
X148639852Y-80092361D01*
X148585431Y-79875702D01*
X148496354Y-79670840D01*
X148375014Y-79483277D01*
X148224670Y-79318051D01*
X148220619Y-79314852D01*
X148220615Y-79314848D01*
X148053414Y-79182800D01*
X148053410Y-79182798D01*
X148049359Y-79179598D01*
X148007569Y-79156529D01*
X147957598Y-79106097D01*
X147942826Y-79036654D01*
X147967942Y-78970248D01*
X147995294Y-78943641D01*
X148170328Y-78818792D01*
X148178200Y-78812139D01*
X148329052Y-78661812D01*
X148335730Y-78653965D01*
X148460003Y-78481020D01*
X148465313Y-78472183D01*
X148559670Y-78281267D01*
X148563469Y-78271672D01*
X148625377Y-78067910D01*
X148627555Y-78057837D01*
X148628986Y-78046962D01*
X148626775Y-78032778D01*
X148613617Y-78029000D01*
X145978225Y-78029000D01*
X145964694Y-78032973D01*
X145963257Y-78042966D01*
X145993565Y-78177446D01*
X145996645Y-78187275D01*
X146076770Y-78384603D01*
X146081413Y-78393794D01*
X146192694Y-78575388D01*
X146198777Y-78583699D01*
X146338213Y-78744667D01*
X146345580Y-78751883D01*
X146509434Y-78887916D01*
X146517881Y-78893831D01*
X146586969Y-78934203D01*
X146635693Y-78985842D01*
X146648764Y-79055625D01*
X146622033Y-79121396D01*
X146581584Y-79154752D01*
X146568607Y-79161507D01*
X146564474Y-79164610D01*
X146564471Y-79164612D01*
X146394100Y-79292530D01*
X146389965Y-79295635D01*
X146386393Y-79299373D01*
X146249506Y-79442617D01*
X146235629Y-79457138D01*
X146109743Y-79641680D01*
X146094003Y-79675590D01*
X146038756Y-79794610D01*
X146015688Y-79844305D01*
X145955989Y-80059570D01*
X145932251Y-80281695D01*
X145932548Y-80286848D01*
X145932548Y-80286851D01*
X145938011Y-80381590D01*
X145945110Y-80504715D01*
X145946247Y-80509761D01*
X145946248Y-80509767D01*
X145959675Y-80569346D01*
X145994222Y-80722639D01*
X146032461Y-80816811D01*
X146059994Y-80884616D01*
X146078266Y-80929616D01*
X146194987Y-81120088D01*
X146341250Y-81288938D01*
X146513126Y-81431632D01*
X146532305Y-81442839D01*
X146586445Y-81474476D01*
X146635169Y-81526114D01*
X146648240Y-81595897D01*
X146621509Y-81661669D01*
X146581055Y-81695027D01*
X146568607Y-81701507D01*
X146564474Y-81704610D01*
X146564471Y-81704612D01*
X146541708Y-81721703D01*
X146389965Y-81835635D01*
X146235629Y-81997138D01*
X146109743Y-82181680D01*
X146015688Y-82384305D01*
X145955989Y-82599570D01*
X145932251Y-82821695D01*
X142228500Y-82821695D01*
X142228500Y-81911866D01*
X142221745Y-81849684D01*
X142170615Y-81713295D01*
X142083261Y-81596739D01*
X141966705Y-81509385D01*
X141954132Y-81504672D01*
X141848203Y-81464960D01*
X141791439Y-81422318D01*
X141766739Y-81355756D01*
X141781947Y-81286408D01*
X141803493Y-81257727D01*
X141904435Y-81157137D01*
X141908096Y-81153489D01*
X141967594Y-81070689D01*
X142035435Y-80976277D01*
X142038453Y-80972077D01*
X142059439Y-80929616D01*
X142135136Y-80776453D01*
X142135137Y-80776451D01*
X142137430Y-80771811D01*
X142198944Y-80569346D01*
X142200865Y-80563023D01*
X142200865Y-80563021D01*
X142202370Y-80558069D01*
X142231529Y-80336590D01*
X142232057Y-80315000D01*
X142233074Y-80273365D01*
X142233074Y-80273361D01*
X142233156Y-80270000D01*
X142214852Y-80047361D01*
X142160431Y-79830702D01*
X142071354Y-79625840D01*
X142031906Y-79564862D01*
X141952822Y-79442617D01*
X141952820Y-79442614D01*
X141950014Y-79438277D01*
X141799670Y-79273051D01*
X141795619Y-79269852D01*
X141795615Y-79269848D01*
X141628414Y-79137800D01*
X141628410Y-79137798D01*
X141624359Y-79134598D01*
X141582569Y-79111529D01*
X141532598Y-79061097D01*
X141517826Y-78991654D01*
X141542942Y-78925248D01*
X141570294Y-78898641D01*
X141745328Y-78773792D01*
X141753200Y-78767139D01*
X141904052Y-78616812D01*
X141910730Y-78608965D01*
X142035003Y-78436020D01*
X142040313Y-78427183D01*
X142134670Y-78236267D01*
X142138469Y-78226672D01*
X142200377Y-78022910D01*
X142202555Y-78012837D01*
X142203986Y-78001962D01*
X142201775Y-77987778D01*
X142188617Y-77984000D01*
X139553225Y-77984000D01*
X139539694Y-77987973D01*
X139538257Y-77997966D01*
X139568565Y-78132446D01*
X139571645Y-78142275D01*
X139651770Y-78339603D01*
X139656413Y-78348794D01*
X139767694Y-78530388D01*
X139773777Y-78538699D01*
X139913213Y-78699667D01*
X139920580Y-78706883D01*
X140084434Y-78842916D01*
X140092881Y-78848831D01*
X140161969Y-78889203D01*
X140210693Y-78940842D01*
X140223764Y-79010625D01*
X140197033Y-79076396D01*
X140156584Y-79109752D01*
X140143607Y-79116507D01*
X140139474Y-79119610D01*
X140139471Y-79119612D01*
X139969100Y-79247530D01*
X139964965Y-79250635D01*
X139810629Y-79412138D01*
X139684743Y-79596680D01*
X139590688Y-79799305D01*
X139530989Y-80014570D01*
X139507251Y-80236695D01*
X136525000Y-80236695D01*
X136525000Y-75156695D01*
X139507251Y-75156695D01*
X139507548Y-75161848D01*
X139507548Y-75161851D01*
X139517847Y-75340465D01*
X139520110Y-75379715D01*
X139521247Y-75384761D01*
X139521248Y-75384767D01*
X139529198Y-75420043D01*
X139569222Y-75597639D01*
X139653266Y-75804616D01*
X139680842Y-75849616D01*
X139737348Y-75941825D01*
X139769987Y-75995088D01*
X139916250Y-76163938D01*
X140088126Y-76306632D01*
X140127452Y-76329612D01*
X140161955Y-76349774D01*
X140210679Y-76401412D01*
X140223750Y-76471195D01*
X140197019Y-76536967D01*
X140156562Y-76570327D01*
X140148457Y-76574546D01*
X140139738Y-76580036D01*
X139969433Y-76707905D01*
X139961726Y-76714748D01*
X139814590Y-76868717D01*
X139808104Y-76876727D01*
X139688098Y-77052649D01*
X139683000Y-77061623D01*
X139593338Y-77254783D01*
X139589775Y-77264470D01*
X139534389Y-77464183D01*
X139535912Y-77472607D01*
X139548292Y-77476000D01*
X142188344Y-77476000D01*
X142201875Y-77472027D01*
X142203180Y-77462947D01*
X142161214Y-77295875D01*
X142157894Y-77286124D01*
X142072972Y-77090814D01*
X142068105Y-77081739D01*
X141952426Y-76902926D01*
X141946136Y-76894757D01*
X141802806Y-76737240D01*
X141795273Y-76730215D01*
X141628139Y-76598222D01*
X141619556Y-76592520D01*
X141582602Y-76572120D01*
X141532631Y-76521687D01*
X141517859Y-76452245D01*
X141542975Y-76385839D01*
X141570327Y-76359232D01*
X141611853Y-76329612D01*
X141749860Y-76231173D01*
X141908096Y-76073489D01*
X141967594Y-75990689D01*
X142035435Y-75896277D01*
X142038453Y-75892077D01*
X142059439Y-75849616D01*
X142135136Y-75696453D01*
X142135137Y-75696451D01*
X142137430Y-75691811D01*
X142198944Y-75489346D01*
X142200865Y-75483023D01*
X142200865Y-75483021D01*
X142202370Y-75478069D01*
X142231529Y-75256590D01*
X142232057Y-75235000D01*
X142233074Y-75193365D01*
X142233074Y-75193361D01*
X142233156Y-75190000D01*
X142214852Y-74967361D01*
X142160431Y-74750702D01*
X142071354Y-74545840D01*
X142031906Y-74484862D01*
X141952822Y-74362617D01*
X141952820Y-74362614D01*
X141950014Y-74358277D01*
X141799670Y-74193051D01*
X141795619Y-74189852D01*
X141795615Y-74189848D01*
X141628414Y-74057800D01*
X141628410Y-74057798D01*
X141624359Y-74054598D01*
X141583053Y-74031796D01*
X141533084Y-73981364D01*
X141518312Y-73911921D01*
X141543428Y-73845516D01*
X141570780Y-73818909D01*
X141636248Y-73772211D01*
X141749860Y-73691173D01*
X141908096Y-73533489D01*
X141967594Y-73450689D01*
X142035435Y-73356277D01*
X142038453Y-73352077D01*
X142059439Y-73309616D01*
X142135136Y-73156453D01*
X142135137Y-73156451D01*
X142137430Y-73151811D01*
X142178271Y-73017389D01*
X142200865Y-72943023D01*
X142200865Y-72943021D01*
X142202370Y-72938069D01*
X142231529Y-72716590D01*
X142233156Y-72650000D01*
X142214852Y-72427361D01*
X142160431Y-72210702D01*
X142071354Y-72005840D01*
X141950014Y-71818277D01*
X141799670Y-71653051D01*
X141795619Y-71649852D01*
X141795615Y-71649848D01*
X141628414Y-71517800D01*
X141628410Y-71517798D01*
X141624359Y-71514598D01*
X141428789Y-71406638D01*
X141423920Y-71404914D01*
X141423916Y-71404912D01*
X141223087Y-71333795D01*
X141223083Y-71333794D01*
X141218212Y-71332069D01*
X141213119Y-71331162D01*
X141213116Y-71331161D01*
X141003373Y-71293800D01*
X141003367Y-71293799D01*
X140998284Y-71292894D01*
X140924452Y-71291992D01*
X140780081Y-71290228D01*
X140780079Y-71290228D01*
X140774911Y-71290165D01*
X140554091Y-71323955D01*
X140341756Y-71393357D01*
X140143607Y-71496507D01*
X140139474Y-71499610D01*
X140139471Y-71499612D01*
X140061470Y-71558177D01*
X139964965Y-71630635D01*
X139810629Y-71792138D01*
X139807715Y-71796410D01*
X139807714Y-71796411D01*
X139795404Y-71814457D01*
X139684743Y-71976680D01*
X139590688Y-72179305D01*
X139530989Y-72394570D01*
X139507251Y-72616695D01*
X139507548Y-72621848D01*
X139507548Y-72621851D01*
X139513011Y-72716590D01*
X139520110Y-72839715D01*
X139521247Y-72844761D01*
X139521248Y-72844767D01*
X139541119Y-72932939D01*
X139569222Y-73057639D01*
X139653266Y-73264616D01*
X139769987Y-73455088D01*
X139916250Y-73623938D01*
X140088126Y-73766632D01*
X140158595Y-73807811D01*
X140161445Y-73809476D01*
X140210169Y-73861114D01*
X140223240Y-73930897D01*
X140196509Y-73996669D01*
X140156055Y-74030027D01*
X140143607Y-74036507D01*
X140139474Y-74039610D01*
X140139471Y-74039612D01*
X139969100Y-74167530D01*
X139964965Y-74170635D01*
X139810629Y-74332138D01*
X139684743Y-74516680D01*
X139590688Y-74719305D01*
X139530989Y-74934570D01*
X139507251Y-75156695D01*
X136525000Y-75156695D01*
X136525000Y-70775000D01*
X144128065Y-70775000D01*
X144133000Y-70812486D01*
X144133000Y-70812492D01*
X144147723Y-70924322D01*
X144205359Y-71063468D01*
X144297045Y-71182955D01*
X144303595Y-71187981D01*
X144320495Y-71200949D01*
X144332886Y-71211816D01*
X144903180Y-71782110D01*
X144914047Y-71794500D01*
X144932045Y-71817955D01*
X144938595Y-71822981D01*
X144938598Y-71822984D01*
X144954434Y-71835135D01*
X145051532Y-71909641D01*
X145190678Y-71967277D01*
X145340000Y-71986936D01*
X145348188Y-71985858D01*
X145369304Y-71983078D01*
X145385751Y-71982000D01*
X145930762Y-71982000D01*
X145998883Y-72002002D01*
X146045376Y-72055658D01*
X146055480Y-72125932D01*
X146045051Y-72161047D01*
X146015688Y-72224305D01*
X145955989Y-72439570D01*
X145932251Y-72661695D01*
X145932548Y-72666848D01*
X145932548Y-72666851D01*
X145940375Y-72802594D01*
X145945110Y-72884715D01*
X145946247Y-72889761D01*
X145946248Y-72889767D01*
X145955058Y-72928858D01*
X145994222Y-73102639D01*
X146055673Y-73253976D01*
X146059994Y-73264616D01*
X146078266Y-73309616D01*
X146194987Y-73500088D01*
X146341250Y-73668938D01*
X146513126Y-73811632D01*
X146571112Y-73845516D01*
X146586445Y-73854476D01*
X146635169Y-73906114D01*
X146648240Y-73975897D01*
X146621509Y-74041669D01*
X146581055Y-74075027D01*
X146568607Y-74081507D01*
X146564474Y-74084610D01*
X146564471Y-74084612D01*
X146394100Y-74212530D01*
X146389965Y-74215635D01*
X146386393Y-74219373D01*
X146249506Y-74362617D01*
X146235629Y-74377138D01*
X146109743Y-74561680D01*
X146094003Y-74595590D01*
X146038756Y-74714610D01*
X146015688Y-74764305D01*
X145955989Y-74979570D01*
X145932251Y-75201695D01*
X145932548Y-75206848D01*
X145932548Y-75206851D01*
X145938011Y-75301590D01*
X145945110Y-75424715D01*
X145946247Y-75429761D01*
X145946248Y-75429767D01*
X145959675Y-75489346D01*
X145994222Y-75642639D01*
X146032461Y-75736811D01*
X146059994Y-75804616D01*
X146078266Y-75849616D01*
X146194987Y-76040088D01*
X146341250Y-76208938D01*
X146513126Y-76351632D01*
X146582682Y-76392277D01*
X146586955Y-76394774D01*
X146635679Y-76446412D01*
X146648750Y-76516195D01*
X146622019Y-76581967D01*
X146581562Y-76615327D01*
X146573457Y-76619546D01*
X146564738Y-76625036D01*
X146394433Y-76752905D01*
X146386726Y-76759748D01*
X146239590Y-76913717D01*
X146233104Y-76921727D01*
X146113098Y-77097649D01*
X146108000Y-77106623D01*
X146018338Y-77299783D01*
X146014775Y-77309470D01*
X145959389Y-77509183D01*
X145960912Y-77517607D01*
X145973292Y-77521000D01*
X148613344Y-77521000D01*
X148626875Y-77517027D01*
X148628180Y-77507947D01*
X148586214Y-77340875D01*
X148582894Y-77331124D01*
X148497972Y-77135814D01*
X148493105Y-77126739D01*
X148377426Y-76947926D01*
X148371136Y-76939757D01*
X148227806Y-76782240D01*
X148220273Y-76775215D01*
X148053139Y-76643222D01*
X148044556Y-76637520D01*
X148007602Y-76617120D01*
X147957631Y-76566687D01*
X147942859Y-76497245D01*
X147967975Y-76430839D01*
X147995327Y-76404232D01*
X148058415Y-76359232D01*
X148174860Y-76276173D01*
X148333096Y-76118489D01*
X148368448Y-76069292D01*
X148460435Y-75941277D01*
X148463453Y-75937077D01*
X148483618Y-75896277D01*
X148560136Y-75741453D01*
X148560137Y-75741451D01*
X148562430Y-75736811D01*
X148627370Y-75523069D01*
X148656529Y-75301590D01*
X148657112Y-75277723D01*
X148658074Y-75238365D01*
X148658074Y-75238361D01*
X148658156Y-75235000D01*
X148639852Y-75012361D01*
X148585431Y-74795702D01*
X148496354Y-74590840D01*
X148375014Y-74403277D01*
X148224670Y-74238051D01*
X148220619Y-74234852D01*
X148220615Y-74234848D01*
X148053414Y-74102800D01*
X148053410Y-74102798D01*
X148049359Y-74099598D01*
X148008053Y-74076796D01*
X147958084Y-74026364D01*
X147943312Y-73956921D01*
X147968428Y-73890516D01*
X147995780Y-73863909D01*
X148058868Y-73818909D01*
X148174860Y-73736173D01*
X148333096Y-73578489D01*
X148368448Y-73529292D01*
X148460435Y-73401277D01*
X148463453Y-73397077D01*
X148483618Y-73356277D01*
X148560136Y-73201453D01*
X148560137Y-73201451D01*
X148562430Y-73196811D01*
X148620298Y-73006347D01*
X148659239Y-72946983D01*
X148724093Y-72918096D01*
X148794269Y-72928858D01*
X148829951Y-72953881D01*
X153002808Y-77126739D01*
X157148982Y-81272913D01*
X157183008Y-81335225D01*
X157176296Y-81410224D01*
X157160895Y-81447406D01*
X157159742Y-81452210D01*
X157159740Y-81452215D01*
X157123320Y-81603919D01*
X157105465Y-81678289D01*
X157086835Y-81915000D01*
X157105465Y-82151711D01*
X157106619Y-82156518D01*
X157106620Y-82156524D01*
X157120801Y-82215590D01*
X157160895Y-82382594D01*
X157162788Y-82387165D01*
X157162789Y-82387167D01*
X157174609Y-82415702D01*
X157251760Y-82601963D01*
X157254346Y-82606183D01*
X157373241Y-82800202D01*
X157373245Y-82800208D01*
X157375824Y-82804416D01*
X157530031Y-82984969D01*
X157710584Y-83139176D01*
X157714792Y-83141755D01*
X157714798Y-83141759D01*
X157903827Y-83257596D01*
X157913037Y-83263240D01*
X157917607Y-83265133D01*
X157917611Y-83265135D01*
X158127833Y-83352211D01*
X158132406Y-83354105D01*
X158163013Y-83361453D01*
X158358476Y-83408380D01*
X158358482Y-83408381D01*
X158363289Y-83409535D01*
X158600000Y-83428165D01*
X158836711Y-83409535D01*
X158841518Y-83408381D01*
X158841524Y-83408380D01*
X159036987Y-83361453D01*
X159067594Y-83354105D01*
X159072167Y-83352211D01*
X159282389Y-83265135D01*
X159282393Y-83265133D01*
X159286963Y-83263240D01*
X159296173Y-83257596D01*
X159485202Y-83141759D01*
X159485208Y-83141755D01*
X159489416Y-83139176D01*
X159669969Y-82984969D01*
X159824176Y-82804416D01*
X159826755Y-82800208D01*
X159826759Y-82800202D01*
X159945654Y-82606183D01*
X159948240Y-82601963D01*
X159963641Y-82564782D01*
X160008190Y-82509501D01*
X160080050Y-82487000D01*
X163619950Y-82487000D01*
X163688071Y-82507002D01*
X163736359Y-82564782D01*
X163751760Y-82601963D01*
X163754346Y-82606183D01*
X163873241Y-82800202D01*
X163873245Y-82800208D01*
X163875824Y-82804416D01*
X164030031Y-82984969D01*
X164210584Y-83139176D01*
X164214792Y-83141755D01*
X164214798Y-83141759D01*
X164403827Y-83257596D01*
X164413037Y-83263240D01*
X164417607Y-83265133D01*
X164417611Y-83265135D01*
X164627833Y-83352211D01*
X164632406Y-83354105D01*
X164663013Y-83361453D01*
X164858476Y-83408380D01*
X164858482Y-83408381D01*
X164863289Y-83409535D01*
X165100000Y-83428165D01*
X165336711Y-83409535D01*
X165341518Y-83408381D01*
X165341524Y-83408380D01*
X165536987Y-83361453D01*
X165567594Y-83354105D01*
X165572167Y-83352211D01*
X165782389Y-83265135D01*
X165782393Y-83265133D01*
X165786963Y-83263240D01*
X165796173Y-83257596D01*
X165985202Y-83141759D01*
X165985208Y-83141755D01*
X165989416Y-83139176D01*
X166169969Y-82984969D01*
X166324176Y-82804416D01*
X166326755Y-82800208D01*
X166326759Y-82800202D01*
X166445654Y-82606183D01*
X166448240Y-82601963D01*
X166525392Y-82415702D01*
X166537211Y-82387167D01*
X166537212Y-82387165D01*
X166539105Y-82382594D01*
X166579199Y-82215590D01*
X166593380Y-82156524D01*
X166593381Y-82156518D01*
X166594535Y-82151711D01*
X166613165Y-81915000D01*
X166594535Y-81678289D01*
X166576681Y-81603919D01*
X166553228Y-81506233D01*
X166539105Y-81447406D01*
X166536697Y-81441593D01*
X166450135Y-81232611D01*
X166450133Y-81232607D01*
X166448240Y-81228037D01*
X166384480Y-81123990D01*
X166326759Y-81029798D01*
X166326755Y-81029792D01*
X166324176Y-81025584D01*
X166169969Y-80845031D01*
X165989416Y-80690824D01*
X165985208Y-80688245D01*
X165985202Y-80688241D01*
X165791183Y-80569346D01*
X165786963Y-80566760D01*
X165782393Y-80564867D01*
X165782389Y-80564865D01*
X165572167Y-80477789D01*
X165572165Y-80477788D01*
X165567594Y-80475895D01*
X165478673Y-80454547D01*
X165341524Y-80421620D01*
X165341518Y-80421619D01*
X165336711Y-80420465D01*
X165100000Y-80401835D01*
X164863289Y-80420465D01*
X164858482Y-80421619D01*
X164858476Y-80421620D01*
X164721327Y-80454547D01*
X164632406Y-80475895D01*
X164627835Y-80477788D01*
X164627833Y-80477789D01*
X164417611Y-80564865D01*
X164417607Y-80564867D01*
X164413037Y-80566760D01*
X164408817Y-80569346D01*
X164214798Y-80688241D01*
X164214792Y-80688245D01*
X164210584Y-80690824D01*
X164030031Y-80845031D01*
X163875824Y-81025584D01*
X163873245Y-81029792D01*
X163873241Y-81029798D01*
X163815520Y-81123990D01*
X163751760Y-81228037D01*
X163749865Y-81232612D01*
X163736359Y-81265218D01*
X163691810Y-81320499D01*
X163619950Y-81343000D01*
X160080050Y-81343000D01*
X160011929Y-81322998D01*
X159963641Y-81265218D01*
X159950135Y-81232612D01*
X159948240Y-81228037D01*
X159884480Y-81123990D01*
X159826759Y-81029798D01*
X159826755Y-81029792D01*
X159824176Y-81025584D01*
X159669969Y-80845031D01*
X159489416Y-80690824D01*
X159485208Y-80688245D01*
X159485202Y-80688241D01*
X159291183Y-80569346D01*
X159286963Y-80566760D01*
X159282393Y-80564867D01*
X159282389Y-80564865D01*
X159072167Y-80477789D01*
X159072165Y-80477788D01*
X159067594Y-80475895D01*
X158978673Y-80454547D01*
X158841524Y-80421620D01*
X158841518Y-80421619D01*
X158836711Y-80420465D01*
X158600000Y-80401835D01*
X158363289Y-80420465D01*
X158358482Y-80421619D01*
X158358476Y-80421620D01*
X158137215Y-80474740D01*
X158137210Y-80474742D01*
X158132406Y-80475895D01*
X158095223Y-80491296D01*
X158024637Y-80498885D01*
X157957913Y-80463982D01*
X148531816Y-71037886D01*
X148520949Y-71025495D01*
X148507980Y-71008594D01*
X148502955Y-71002045D01*
X148496408Y-70997021D01*
X148491967Y-70992580D01*
X148457943Y-70930267D01*
X148463009Y-70859452D01*
X148468107Y-70847660D01*
X148472881Y-70838000D01*
X148493060Y-70797172D01*
X148541172Y-70744966D01*
X148606016Y-70727000D01*
X148875880Y-70727000D01*
X148944001Y-70747002D01*
X148964975Y-70763905D01*
X154408180Y-76207110D01*
X154419047Y-76219500D01*
X154437045Y-76242955D01*
X154443595Y-76247981D01*
X154443598Y-76247984D01*
X154475586Y-76272529D01*
X154556532Y-76334641D01*
X154695678Y-76392277D01*
X154726375Y-76396318D01*
X154807497Y-76406999D01*
X154807506Y-76407000D01*
X154807509Y-76407000D01*
X154807521Y-76407001D01*
X154836811Y-76410857D01*
X154836812Y-76410857D01*
X154845000Y-76411935D01*
X154853188Y-76410857D01*
X154853189Y-76410857D01*
X154874298Y-76408078D01*
X154890744Y-76407000D01*
X157223502Y-76407000D01*
X157291623Y-76427002D01*
X157338116Y-76480658D01*
X157348220Y-76550932D01*
X157330935Y-76598835D01*
X157254346Y-76723817D01*
X157251760Y-76728037D01*
X157249867Y-76732607D01*
X157249865Y-76732611D01*
X157164063Y-76939757D01*
X157160895Y-76947406D01*
X157159740Y-76952218D01*
X157128645Y-77081739D01*
X157105465Y-77178289D01*
X157086835Y-77415000D01*
X157105465Y-77651711D01*
X157160895Y-77882594D01*
X157162788Y-77887165D01*
X157162789Y-77887167D01*
X157233483Y-78057837D01*
X157251760Y-78101963D01*
X157254346Y-78106183D01*
X157373241Y-78300202D01*
X157373245Y-78300208D01*
X157375824Y-78304416D01*
X157530031Y-78484969D01*
X157710584Y-78639176D01*
X157714792Y-78641755D01*
X157714798Y-78641759D01*
X157821071Y-78706883D01*
X157913037Y-78763240D01*
X157917607Y-78765133D01*
X157917611Y-78765135D01*
X158031090Y-78812139D01*
X158132406Y-78854105D01*
X158212609Y-78873360D01*
X158358476Y-78908380D01*
X158358482Y-78908381D01*
X158363289Y-78909535D01*
X158600000Y-78928165D01*
X158836711Y-78909535D01*
X158841518Y-78908381D01*
X158841524Y-78908380D01*
X158987391Y-78873360D01*
X159067594Y-78854105D01*
X159168910Y-78812139D01*
X159282389Y-78765135D01*
X159282393Y-78765133D01*
X159286963Y-78763240D01*
X159378929Y-78706883D01*
X159485202Y-78641759D01*
X159485208Y-78641755D01*
X159489416Y-78639176D01*
X159669969Y-78484969D01*
X159824176Y-78304416D01*
X159826755Y-78300208D01*
X159826759Y-78300202D01*
X159945654Y-78106183D01*
X159948240Y-78101963D01*
X159966518Y-78057837D01*
X160037211Y-77887167D01*
X160037212Y-77887165D01*
X160039105Y-77882594D01*
X160094535Y-77651711D01*
X160113165Y-77415000D01*
X160094535Y-77178289D01*
X160071356Y-77081739D01*
X160040260Y-76952218D01*
X160039105Y-76947406D01*
X160035937Y-76939757D01*
X159950135Y-76732611D01*
X159950133Y-76732607D01*
X159948240Y-76728037D01*
X159945654Y-76723817D01*
X159869065Y-76598835D01*
X159850527Y-76530301D01*
X159871983Y-76462625D01*
X159926623Y-76417292D01*
X159976498Y-76407000D01*
X163723502Y-76407000D01*
X163791623Y-76427002D01*
X163838116Y-76480658D01*
X163848220Y-76550932D01*
X163830935Y-76598835D01*
X163754346Y-76723817D01*
X163751760Y-76728037D01*
X163749867Y-76732607D01*
X163749865Y-76732611D01*
X163664063Y-76939757D01*
X163660895Y-76947406D01*
X163659740Y-76952218D01*
X163628645Y-77081739D01*
X163605465Y-77178289D01*
X163586835Y-77415000D01*
X163605465Y-77651711D01*
X163660895Y-77882594D01*
X163662788Y-77887165D01*
X163662789Y-77887167D01*
X163733483Y-78057837D01*
X163751760Y-78101963D01*
X163754346Y-78106183D01*
X163873241Y-78300202D01*
X163873245Y-78300208D01*
X163875824Y-78304416D01*
X164030031Y-78484969D01*
X164210584Y-78639176D01*
X164214792Y-78641755D01*
X164214798Y-78641759D01*
X164321071Y-78706883D01*
X164413037Y-78763240D01*
X164417607Y-78765133D01*
X164417611Y-78765135D01*
X164531090Y-78812139D01*
X164632406Y-78854105D01*
X164712609Y-78873360D01*
X164858476Y-78908380D01*
X164858482Y-78908381D01*
X164863289Y-78909535D01*
X165100000Y-78928165D01*
X165336711Y-78909535D01*
X165341518Y-78908381D01*
X165341524Y-78908380D01*
X165487391Y-78873360D01*
X165567594Y-78854105D01*
X165668910Y-78812139D01*
X165782389Y-78765135D01*
X165782393Y-78765133D01*
X165786963Y-78763240D01*
X165878929Y-78706883D01*
X165985202Y-78641759D01*
X165985208Y-78641755D01*
X165989416Y-78639176D01*
X166169969Y-78484969D01*
X166324176Y-78304416D01*
X166326755Y-78300208D01*
X166326759Y-78300202D01*
X166445654Y-78106183D01*
X166448240Y-78101963D01*
X166466518Y-78057837D01*
X166537211Y-77887167D01*
X166537212Y-77887165D01*
X166539105Y-77882594D01*
X166594535Y-77651711D01*
X166613165Y-77415000D01*
X166594535Y-77178289D01*
X166571356Y-77081739D01*
X166540260Y-76952218D01*
X166539105Y-76947406D01*
X166535937Y-76939757D01*
X166450135Y-76732611D01*
X166450133Y-76732607D01*
X166448240Y-76728037D01*
X166445654Y-76723817D01*
X166369065Y-76598835D01*
X166350527Y-76530301D01*
X166371983Y-76462625D01*
X166426623Y-76417292D01*
X166476498Y-76407000D01*
X167786559Y-76407000D01*
X167854680Y-76427002D01*
X167901173Y-76480658D01*
X167911277Y-76550932D01*
X167909077Y-76562415D01*
X167901622Y-76593467D01*
X167901621Y-76593475D01*
X167900465Y-76598289D01*
X167881835Y-76835000D01*
X167900465Y-77071711D01*
X167901619Y-77076518D01*
X167901620Y-77076524D01*
X167936640Y-77222391D01*
X167955895Y-77302594D01*
X167957788Y-77307165D01*
X167957789Y-77307167D01*
X168027722Y-77476000D01*
X168046760Y-77521963D01*
X168049346Y-77526183D01*
X168168241Y-77720202D01*
X168168245Y-77720208D01*
X168170824Y-77724416D01*
X168325031Y-77904969D01*
X168505584Y-78059176D01*
X168509792Y-78061755D01*
X168509798Y-78061759D01*
X168698582Y-78177446D01*
X168708037Y-78183240D01*
X168712607Y-78185133D01*
X168712611Y-78185135D01*
X168836056Y-78236267D01*
X168927406Y-78274105D01*
X169007609Y-78293360D01*
X169153476Y-78328380D01*
X169153482Y-78328381D01*
X169158289Y-78329535D01*
X169395000Y-78348165D01*
X169631711Y-78329535D01*
X169636518Y-78328381D01*
X169636524Y-78328380D01*
X169782391Y-78293360D01*
X169862594Y-78274105D01*
X169953944Y-78236267D01*
X170077389Y-78185135D01*
X170077393Y-78185133D01*
X170081963Y-78183240D01*
X170091418Y-78177446D01*
X170280202Y-78061759D01*
X170280208Y-78061755D01*
X170284416Y-78059176D01*
X170464969Y-77904969D01*
X170619176Y-77724416D01*
X170621755Y-77720208D01*
X170621759Y-77720202D01*
X170740654Y-77526183D01*
X170743240Y-77521963D01*
X170758641Y-77484782D01*
X170803190Y-77429501D01*
X170875050Y-77407000D01*
X174414950Y-77407000D01*
X174483071Y-77427002D01*
X174531359Y-77484782D01*
X174546760Y-77521963D01*
X174549346Y-77526183D01*
X174668241Y-77720202D01*
X174668245Y-77720208D01*
X174670824Y-77724416D01*
X174825031Y-77904969D01*
X175005584Y-78059176D01*
X175009792Y-78061755D01*
X175009798Y-78061759D01*
X175198582Y-78177446D01*
X175208037Y-78183240D01*
X175212607Y-78185133D01*
X175212611Y-78185135D01*
X175336056Y-78236267D01*
X175427406Y-78274105D01*
X175507609Y-78293360D01*
X175653476Y-78328380D01*
X175653482Y-78328381D01*
X175658289Y-78329535D01*
X175895000Y-78348165D01*
X176131711Y-78329535D01*
X176136518Y-78328381D01*
X176136524Y-78328380D01*
X176282391Y-78293360D01*
X176362594Y-78274105D01*
X176453944Y-78236267D01*
X176577389Y-78185135D01*
X176577393Y-78185133D01*
X176581963Y-78183240D01*
X176591418Y-78177446D01*
X176780202Y-78061759D01*
X176780208Y-78061755D01*
X176784416Y-78059176D01*
X176964969Y-77904969D01*
X177119176Y-77724416D01*
X177121755Y-77720208D01*
X177121759Y-77720202D01*
X177240654Y-77526183D01*
X177243240Y-77521963D01*
X177262279Y-77476000D01*
X177332211Y-77307167D01*
X177332212Y-77307165D01*
X177334105Y-77302594D01*
X177353360Y-77222391D01*
X177388380Y-77076524D01*
X177388381Y-77076518D01*
X177389535Y-77071711D01*
X177408165Y-76835000D01*
X177389535Y-76598289D01*
X177388378Y-76593467D01*
X177346573Y-76419338D01*
X177334105Y-76367406D01*
X177332211Y-76362833D01*
X177245135Y-76152611D01*
X177245133Y-76152607D01*
X177243240Y-76148037D01*
X177179480Y-76043990D01*
X177121759Y-75949798D01*
X177121755Y-75949792D01*
X177119176Y-75945584D01*
X176964969Y-75765031D01*
X176784416Y-75610824D01*
X176780208Y-75608245D01*
X176780202Y-75608241D01*
X176586183Y-75489346D01*
X176581963Y-75486760D01*
X176577393Y-75484867D01*
X176577389Y-75484865D01*
X176367167Y-75397789D01*
X176367165Y-75397788D01*
X176362594Y-75395895D01*
X176273673Y-75374547D01*
X176136524Y-75341620D01*
X176136518Y-75341619D01*
X176131711Y-75340465D01*
X175895000Y-75321835D01*
X175658289Y-75340465D01*
X175653482Y-75341619D01*
X175653476Y-75341620D01*
X175516327Y-75374547D01*
X175427406Y-75395895D01*
X175422835Y-75397788D01*
X175422833Y-75397789D01*
X175212611Y-75484865D01*
X175212607Y-75484867D01*
X175208037Y-75486760D01*
X175203817Y-75489346D01*
X175009798Y-75608241D01*
X175009792Y-75608245D01*
X175005584Y-75610824D01*
X174825031Y-75765031D01*
X174670824Y-75945584D01*
X174668245Y-75949792D01*
X174668241Y-75949798D01*
X174610520Y-76043990D01*
X174546760Y-76148037D01*
X174544865Y-76152612D01*
X174531359Y-76185218D01*
X174486810Y-76240499D01*
X174414950Y-76263000D01*
X170875050Y-76263000D01*
X170806929Y-76242998D01*
X170758641Y-76185218D01*
X170745135Y-76152612D01*
X170743240Y-76148037D01*
X170679480Y-76043990D01*
X170621759Y-75949798D01*
X170621755Y-75949792D01*
X170619176Y-75945584D01*
X170464969Y-75765031D01*
X170284416Y-75610824D01*
X170280208Y-75608245D01*
X170280202Y-75608241D01*
X170086183Y-75489346D01*
X170081963Y-75486760D01*
X170077393Y-75484867D01*
X170077389Y-75484865D01*
X169867167Y-75397789D01*
X169867165Y-75397788D01*
X169862594Y-75395895D01*
X169773673Y-75374547D01*
X169636524Y-75341620D01*
X169636518Y-75341619D01*
X169631711Y-75340465D01*
X169395000Y-75321835D01*
X169158289Y-75340465D01*
X169153482Y-75341619D01*
X169153476Y-75341620D01*
X169016327Y-75374547D01*
X168927406Y-75395895D01*
X168922835Y-75397788D01*
X168922833Y-75397789D01*
X168887429Y-75412454D01*
X168816839Y-75420043D01*
X168762507Y-75396007D01*
X168690024Y-75340389D01*
X168690021Y-75340387D01*
X168683468Y-75335359D01*
X168544322Y-75277723D01*
X168513625Y-75273682D01*
X168432503Y-75263001D01*
X168432494Y-75263000D01*
X168432491Y-75263000D01*
X168432479Y-75262999D01*
X168403189Y-75259143D01*
X168403188Y-75259143D01*
X168395000Y-75258065D01*
X168386812Y-75259143D01*
X168386811Y-75259143D01*
X168365702Y-75261922D01*
X168349256Y-75263000D01*
X155134120Y-75263000D01*
X155065999Y-75242998D01*
X155045025Y-75226095D01*
X152153930Y-72335000D01*
X167881835Y-72335000D01*
X167900465Y-72571711D01*
X167901619Y-72576518D01*
X167901620Y-72576524D01*
X167918455Y-72646646D01*
X167955895Y-72802594D01*
X167957788Y-72807165D01*
X167957789Y-72807167D01*
X168040292Y-73006347D01*
X168046760Y-73021963D01*
X168049346Y-73026183D01*
X168168241Y-73220202D01*
X168168245Y-73220208D01*
X168170824Y-73224416D01*
X168243592Y-73309616D01*
X168314329Y-73392438D01*
X168325031Y-73404969D01*
X168505584Y-73559176D01*
X168509792Y-73561755D01*
X168509798Y-73561759D01*
X168678323Y-73665031D01*
X168708037Y-73683240D01*
X168712607Y-73685133D01*
X168712611Y-73685135D01*
X168922833Y-73772211D01*
X168927406Y-73774105D01*
X169007609Y-73793360D01*
X169153476Y-73828380D01*
X169153482Y-73828381D01*
X169158289Y-73829535D01*
X169395000Y-73848165D01*
X169631711Y-73829535D01*
X169636518Y-73828381D01*
X169636524Y-73828380D01*
X169782391Y-73793360D01*
X169862594Y-73774105D01*
X169867167Y-73772211D01*
X170077389Y-73685135D01*
X170077393Y-73685133D01*
X170081963Y-73683240D01*
X170111677Y-73665031D01*
X170280202Y-73561759D01*
X170280208Y-73561755D01*
X170284416Y-73559176D01*
X170464969Y-73404969D01*
X170475672Y-73392438D01*
X170546408Y-73309616D01*
X170619176Y-73224416D01*
X170621755Y-73220208D01*
X170621759Y-73220202D01*
X170740654Y-73026183D01*
X170743240Y-73021963D01*
X170749709Y-73006347D01*
X170832211Y-72807167D01*
X170832212Y-72807165D01*
X170834105Y-72802594D01*
X170871545Y-72646646D01*
X170888380Y-72576524D01*
X170888381Y-72576518D01*
X170889535Y-72571711D01*
X170908165Y-72335000D01*
X174381835Y-72335000D01*
X174400465Y-72571711D01*
X174401619Y-72576518D01*
X174401620Y-72576524D01*
X174418455Y-72646646D01*
X174455895Y-72802594D01*
X174457788Y-72807165D01*
X174457789Y-72807167D01*
X174540292Y-73006347D01*
X174546760Y-73021963D01*
X174549346Y-73026183D01*
X174668241Y-73220202D01*
X174668245Y-73220208D01*
X174670824Y-73224416D01*
X174743592Y-73309616D01*
X174814329Y-73392438D01*
X174825031Y-73404969D01*
X175005584Y-73559176D01*
X175009792Y-73561755D01*
X175009798Y-73561759D01*
X175178323Y-73665031D01*
X175208037Y-73683240D01*
X175212607Y-73685133D01*
X175212611Y-73685135D01*
X175422833Y-73772211D01*
X175427406Y-73774105D01*
X175507609Y-73793360D01*
X175653476Y-73828380D01*
X175653482Y-73828381D01*
X175658289Y-73829535D01*
X175895000Y-73848165D01*
X176131711Y-73829535D01*
X176136518Y-73828381D01*
X176136524Y-73828380D01*
X176282391Y-73793360D01*
X176362594Y-73774105D01*
X176367167Y-73772211D01*
X176577389Y-73685135D01*
X176577393Y-73685133D01*
X176581963Y-73683240D01*
X176611677Y-73665031D01*
X176780202Y-73561759D01*
X176780208Y-73561755D01*
X176784416Y-73559176D01*
X176964969Y-73404969D01*
X176975672Y-73392438D01*
X177046408Y-73309616D01*
X177119176Y-73224416D01*
X177121755Y-73220208D01*
X177121759Y-73220202D01*
X177240654Y-73026183D01*
X177243240Y-73021963D01*
X177249709Y-73006347D01*
X177332211Y-72807167D01*
X177332212Y-72807165D01*
X177334105Y-72802594D01*
X177371545Y-72646646D01*
X177388380Y-72576524D01*
X177388381Y-72576518D01*
X177389535Y-72571711D01*
X177408165Y-72335000D01*
X177389535Y-72098289D01*
X177379301Y-72055658D01*
X177335260Y-71872218D01*
X177334105Y-71867406D01*
X177312173Y-71814457D01*
X177245135Y-71652611D01*
X177245133Y-71652607D01*
X177243240Y-71648037D01*
X177230673Y-71627530D01*
X177121759Y-71449798D01*
X177121755Y-71449792D01*
X177119176Y-71445584D01*
X176964969Y-71265031D01*
X176784416Y-71110824D01*
X176780208Y-71108245D01*
X176780202Y-71108241D01*
X176586183Y-70989346D01*
X176581963Y-70986760D01*
X176577393Y-70984867D01*
X176577389Y-70984865D01*
X176367167Y-70897789D01*
X176367165Y-70897788D01*
X176362594Y-70895895D01*
X176282391Y-70876640D01*
X176136524Y-70841620D01*
X176136518Y-70841619D01*
X176131711Y-70840465D01*
X175895000Y-70821835D01*
X175658289Y-70840465D01*
X175653482Y-70841619D01*
X175653476Y-70841620D01*
X175507609Y-70876640D01*
X175427406Y-70895895D01*
X175422835Y-70897788D01*
X175422833Y-70897789D01*
X175212611Y-70984865D01*
X175212607Y-70984867D01*
X175208037Y-70986760D01*
X175203817Y-70989346D01*
X175009798Y-71108241D01*
X175009792Y-71108245D01*
X175005584Y-71110824D01*
X174825031Y-71265031D01*
X174670824Y-71445584D01*
X174668245Y-71449792D01*
X174668241Y-71449798D01*
X174559327Y-71627530D01*
X174546760Y-71648037D01*
X174544867Y-71652607D01*
X174544865Y-71652611D01*
X174477827Y-71814457D01*
X174455895Y-71867406D01*
X174454740Y-71872218D01*
X174410700Y-72055658D01*
X174400465Y-72098289D01*
X174381835Y-72335000D01*
X170908165Y-72335000D01*
X170889535Y-72098289D01*
X170879301Y-72055658D01*
X170835260Y-71872218D01*
X170834105Y-71867406D01*
X170812173Y-71814457D01*
X170745135Y-71652611D01*
X170745133Y-71652607D01*
X170743240Y-71648037D01*
X170730673Y-71627530D01*
X170621759Y-71449798D01*
X170621755Y-71449792D01*
X170619176Y-71445584D01*
X170464969Y-71265031D01*
X170284416Y-71110824D01*
X170280208Y-71108245D01*
X170280202Y-71108241D01*
X170086183Y-70989346D01*
X170081963Y-70986760D01*
X170077393Y-70984867D01*
X170077389Y-70984865D01*
X169867167Y-70897789D01*
X169867165Y-70897788D01*
X169862594Y-70895895D01*
X169782391Y-70876640D01*
X169636524Y-70841620D01*
X169636518Y-70841619D01*
X169631711Y-70840465D01*
X169395000Y-70821835D01*
X169158289Y-70840465D01*
X169153482Y-70841619D01*
X169153476Y-70841620D01*
X169007609Y-70876640D01*
X168927406Y-70895895D01*
X168922835Y-70897788D01*
X168922833Y-70897789D01*
X168712611Y-70984865D01*
X168712607Y-70984867D01*
X168708037Y-70986760D01*
X168703817Y-70989346D01*
X168509798Y-71108241D01*
X168509792Y-71108245D01*
X168505584Y-71110824D01*
X168325031Y-71265031D01*
X168170824Y-71445584D01*
X168168245Y-71449792D01*
X168168241Y-71449798D01*
X168059327Y-71627530D01*
X168046760Y-71648037D01*
X168044867Y-71652607D01*
X168044865Y-71652611D01*
X167977827Y-71814457D01*
X167955895Y-71867406D01*
X167954740Y-71872218D01*
X167910700Y-72055658D01*
X167900465Y-72098289D01*
X167881835Y-72335000D01*
X152153930Y-72335000D01*
X150303930Y-70485000D01*
X157086835Y-70485000D01*
X157105465Y-70721711D01*
X157106619Y-70726518D01*
X157106620Y-70726524D01*
X157135703Y-70847660D01*
X157160895Y-70952594D01*
X157162788Y-70957165D01*
X157162789Y-70957167D01*
X157227766Y-71114035D01*
X157251760Y-71171963D01*
X157254346Y-71176183D01*
X157373241Y-71370202D01*
X157373245Y-71370208D01*
X157375824Y-71374416D01*
X157530031Y-71554969D01*
X157710584Y-71709176D01*
X157714792Y-71711755D01*
X157714798Y-71711759D01*
X157845965Y-71792138D01*
X157913037Y-71833240D01*
X157917607Y-71835133D01*
X157917611Y-71835135D01*
X158127833Y-71922211D01*
X158132406Y-71924105D01*
X158212609Y-71943360D01*
X158358476Y-71978380D01*
X158358482Y-71978381D01*
X158363289Y-71979535D01*
X158600000Y-71998165D01*
X158836711Y-71979535D01*
X158841518Y-71978381D01*
X158841524Y-71978380D01*
X158987391Y-71943360D01*
X159067594Y-71924105D01*
X159072167Y-71922211D01*
X159282389Y-71835135D01*
X159282393Y-71835133D01*
X159286963Y-71833240D01*
X159354035Y-71792138D01*
X159485202Y-71711759D01*
X159485208Y-71711755D01*
X159489416Y-71709176D01*
X159669969Y-71554969D01*
X159824176Y-71374416D01*
X159826755Y-71370208D01*
X159826759Y-71370202D01*
X159945654Y-71176183D01*
X159948240Y-71171963D01*
X159972235Y-71114035D01*
X160037211Y-70957167D01*
X160037212Y-70957165D01*
X160039105Y-70952594D01*
X160064297Y-70847660D01*
X160093380Y-70726524D01*
X160093381Y-70726518D01*
X160094535Y-70721711D01*
X160113165Y-70485000D01*
X163586835Y-70485000D01*
X163605465Y-70721711D01*
X163606619Y-70726518D01*
X163606620Y-70726524D01*
X163635703Y-70847660D01*
X163660895Y-70952594D01*
X163662788Y-70957165D01*
X163662789Y-70957167D01*
X163727766Y-71114035D01*
X163751760Y-71171963D01*
X163754346Y-71176183D01*
X163873241Y-71370202D01*
X163873245Y-71370208D01*
X163875824Y-71374416D01*
X164030031Y-71554969D01*
X164210584Y-71709176D01*
X164214792Y-71711755D01*
X164214798Y-71711759D01*
X164345965Y-71792138D01*
X164413037Y-71833240D01*
X164417607Y-71835133D01*
X164417611Y-71835135D01*
X164627833Y-71922211D01*
X164632406Y-71924105D01*
X164712609Y-71943360D01*
X164858476Y-71978380D01*
X164858482Y-71978381D01*
X164863289Y-71979535D01*
X165100000Y-71998165D01*
X165336711Y-71979535D01*
X165341518Y-71978381D01*
X165341524Y-71978380D01*
X165487391Y-71943360D01*
X165567594Y-71924105D01*
X165572167Y-71922211D01*
X165782389Y-71835135D01*
X165782393Y-71835133D01*
X165786963Y-71833240D01*
X165854035Y-71792138D01*
X165985202Y-71711759D01*
X165985208Y-71711755D01*
X165989416Y-71709176D01*
X166169969Y-71554969D01*
X166324176Y-71374416D01*
X166326755Y-71370208D01*
X166326759Y-71370202D01*
X166445654Y-71176183D01*
X166448240Y-71171963D01*
X166472235Y-71114035D01*
X166537211Y-70957167D01*
X166537212Y-70957165D01*
X166539105Y-70952594D01*
X166564297Y-70847660D01*
X166593380Y-70726524D01*
X166593381Y-70726518D01*
X166594535Y-70721711D01*
X166613165Y-70485000D01*
X166594535Y-70248289D01*
X166539105Y-70017406D01*
X166490296Y-69899570D01*
X166450135Y-69802611D01*
X166450133Y-69802607D01*
X166448240Y-69798037D01*
X166407800Y-69732045D01*
X166326759Y-69599798D01*
X166326755Y-69599792D01*
X166324176Y-69595584D01*
X166169969Y-69415031D01*
X165989416Y-69260824D01*
X165985208Y-69258245D01*
X165985202Y-69258241D01*
X165791183Y-69139346D01*
X165786963Y-69136760D01*
X165782393Y-69134867D01*
X165782389Y-69134865D01*
X165572167Y-69047789D01*
X165572165Y-69047788D01*
X165567594Y-69045895D01*
X165447671Y-69017104D01*
X165341524Y-68991620D01*
X165341518Y-68991619D01*
X165336711Y-68990465D01*
X165100000Y-68971835D01*
X164863289Y-68990465D01*
X164858482Y-68991619D01*
X164858476Y-68991620D01*
X164752329Y-69017104D01*
X164632406Y-69045895D01*
X164627835Y-69047788D01*
X164627833Y-69047789D01*
X164417611Y-69134865D01*
X164417607Y-69134867D01*
X164413037Y-69136760D01*
X164408817Y-69139346D01*
X164214798Y-69258241D01*
X164214792Y-69258245D01*
X164210584Y-69260824D01*
X164030031Y-69415031D01*
X163875824Y-69595584D01*
X163873245Y-69599792D01*
X163873241Y-69599798D01*
X163792200Y-69732045D01*
X163751760Y-69798037D01*
X163749867Y-69802607D01*
X163749865Y-69802611D01*
X163709704Y-69899570D01*
X163660895Y-70017406D01*
X163605465Y-70248289D01*
X163586835Y-70485000D01*
X160113165Y-70485000D01*
X160094535Y-70248289D01*
X160039105Y-70017406D01*
X159990296Y-69899570D01*
X159950135Y-69802611D01*
X159950133Y-69802607D01*
X159948240Y-69798037D01*
X159907800Y-69732045D01*
X159826759Y-69599798D01*
X159826755Y-69599792D01*
X159824176Y-69595584D01*
X159669969Y-69415031D01*
X159489416Y-69260824D01*
X159485208Y-69258245D01*
X159485202Y-69258241D01*
X159291183Y-69139346D01*
X159286963Y-69136760D01*
X159282393Y-69134867D01*
X159282389Y-69134865D01*
X159072167Y-69047789D01*
X159072165Y-69047788D01*
X159067594Y-69045895D01*
X158947671Y-69017104D01*
X158841524Y-68991620D01*
X158841518Y-68991619D01*
X158836711Y-68990465D01*
X158600000Y-68971835D01*
X158363289Y-68990465D01*
X158358482Y-68991619D01*
X158358476Y-68991620D01*
X158252329Y-69017104D01*
X158132406Y-69045895D01*
X158127835Y-69047788D01*
X158127833Y-69047789D01*
X157917611Y-69134865D01*
X157917607Y-69134867D01*
X157913037Y-69136760D01*
X157908817Y-69139346D01*
X157714798Y-69258241D01*
X157714792Y-69258245D01*
X157710584Y-69260824D01*
X157530031Y-69415031D01*
X157375824Y-69595584D01*
X157373245Y-69599792D01*
X157373241Y-69599798D01*
X157292200Y-69732045D01*
X157251760Y-69798037D01*
X157249867Y-69802607D01*
X157249865Y-69802611D01*
X157209704Y-69899570D01*
X157160895Y-70017406D01*
X157105465Y-70248289D01*
X157086835Y-70485000D01*
X150303930Y-70485000D01*
X149586816Y-69767886D01*
X149575949Y-69755495D01*
X149562984Y-69738598D01*
X149562981Y-69738595D01*
X149557955Y-69732045D01*
X149495740Y-69684305D01*
X149438468Y-69640359D01*
X149340545Y-69599798D01*
X149306952Y-69585883D01*
X149306949Y-69585882D01*
X149299322Y-69582723D01*
X149150000Y-69563065D01*
X149141812Y-69564143D01*
X149141811Y-69564143D01*
X149006762Y-69581922D01*
X148990316Y-69583000D01*
X148609975Y-69583000D01*
X148541854Y-69562998D01*
X148498933Y-69516545D01*
X148498413Y-69515574D01*
X148496354Y-69510840D01*
X148474722Y-69477401D01*
X148377822Y-69327617D01*
X148377820Y-69327614D01*
X148375014Y-69323277D01*
X148224670Y-69158051D01*
X148220619Y-69154852D01*
X148220615Y-69154848D01*
X148053414Y-69022800D01*
X148053410Y-69022798D01*
X148049359Y-69019598D01*
X148008053Y-68996796D01*
X147958084Y-68946364D01*
X147943312Y-68876921D01*
X147968428Y-68810516D01*
X147995780Y-68783909D01*
X148039603Y-68752650D01*
X148174860Y-68656173D01*
X148333096Y-68498489D01*
X148372214Y-68444051D01*
X148460435Y-68321277D01*
X148463453Y-68317077D01*
X148483375Y-68276769D01*
X148560136Y-68121453D01*
X148560137Y-68121451D01*
X148562430Y-68116811D01*
X148627370Y-67903069D01*
X148656529Y-67681590D01*
X148658156Y-67615000D01*
X148639852Y-67392361D01*
X148585431Y-67175702D01*
X148496354Y-66970840D01*
X148436406Y-66878175D01*
X148377822Y-66787617D01*
X148377820Y-66787614D01*
X148375014Y-66783277D01*
X148371532Y-66779450D01*
X148360932Y-66767800D01*
X148329880Y-66703954D01*
X148338275Y-66633455D01*
X148383451Y-66578687D01*
X148454125Y-66557000D01*
X157119950Y-66557000D01*
X157188071Y-66577002D01*
X157236359Y-66634782D01*
X157251760Y-66671963D01*
X157254346Y-66676183D01*
X157373241Y-66870202D01*
X157373245Y-66870208D01*
X157375824Y-66874416D01*
X157530031Y-67054969D01*
X157533787Y-67058177D01*
X157554618Y-67075968D01*
X157710584Y-67209176D01*
X157714792Y-67211755D01*
X157714798Y-67211759D01*
X157765593Y-67242886D01*
X157913037Y-67333240D01*
X157917607Y-67335133D01*
X157917611Y-67335135D01*
X158127833Y-67422211D01*
X158132406Y-67424105D01*
X158212609Y-67443360D01*
X158358476Y-67478380D01*
X158358482Y-67478381D01*
X158363289Y-67479535D01*
X158600000Y-67498165D01*
X158836711Y-67479535D01*
X158841518Y-67478381D01*
X158841524Y-67478380D01*
X158987391Y-67443360D01*
X159067594Y-67424105D01*
X159072167Y-67422211D01*
X159282389Y-67335135D01*
X159282393Y-67335133D01*
X159286963Y-67333240D01*
X159434407Y-67242886D01*
X159485202Y-67211759D01*
X159485208Y-67211755D01*
X159489416Y-67209176D01*
X159645382Y-67075968D01*
X159666213Y-67058177D01*
X159669969Y-67054969D01*
X159824176Y-66874416D01*
X159826755Y-66870208D01*
X159826759Y-66870202D01*
X159945654Y-66676183D01*
X159948240Y-66671963D01*
X159963641Y-66634782D01*
X160008190Y-66579501D01*
X160080050Y-66557000D01*
X163619950Y-66557000D01*
X163688071Y-66577002D01*
X163736359Y-66634782D01*
X163751760Y-66671963D01*
X163754346Y-66676183D01*
X163873241Y-66870202D01*
X163873245Y-66870208D01*
X163875824Y-66874416D01*
X164030031Y-67054969D01*
X164033787Y-67058177D01*
X164054618Y-67075968D01*
X164210584Y-67209176D01*
X164214792Y-67211755D01*
X164214798Y-67211759D01*
X164265593Y-67242886D01*
X164413037Y-67333240D01*
X164417607Y-67335133D01*
X164417611Y-67335135D01*
X164627833Y-67422211D01*
X164632406Y-67424105D01*
X164712609Y-67443360D01*
X164858476Y-67478380D01*
X164858482Y-67478381D01*
X164863289Y-67479535D01*
X165100000Y-67498165D01*
X165336711Y-67479535D01*
X165341518Y-67478381D01*
X165341524Y-67478380D01*
X165487391Y-67443360D01*
X165567594Y-67424105D01*
X165572167Y-67422211D01*
X165782389Y-67335135D01*
X165782393Y-67335133D01*
X165786963Y-67333240D01*
X165934407Y-67242886D01*
X165985202Y-67211759D01*
X165985208Y-67211755D01*
X165989416Y-67209176D01*
X166145382Y-67075968D01*
X166166213Y-67058177D01*
X166169969Y-67054969D01*
X166324176Y-66874416D01*
X166326755Y-66870208D01*
X166326759Y-66870202D01*
X166445654Y-66676183D01*
X166448240Y-66671963D01*
X166464191Y-66633455D01*
X166537211Y-66457167D01*
X166537212Y-66457165D01*
X166539105Y-66452594D01*
X166594535Y-66221711D01*
X166613165Y-65985000D01*
X166594535Y-65748289D01*
X166539105Y-65517406D01*
X166448240Y-65298037D01*
X166445654Y-65293817D01*
X166326759Y-65099798D01*
X166326755Y-65099792D01*
X166324176Y-65095584D01*
X166169969Y-64915031D01*
X165989416Y-64760824D01*
X165985208Y-64758245D01*
X165985202Y-64758241D01*
X165791183Y-64639346D01*
X165786963Y-64636760D01*
X165782393Y-64634867D01*
X165782389Y-64634865D01*
X165572167Y-64547789D01*
X165572165Y-64547788D01*
X165567594Y-64545895D01*
X165487391Y-64526640D01*
X165341524Y-64491620D01*
X165341518Y-64491619D01*
X165336711Y-64490465D01*
X165100000Y-64471835D01*
X164863289Y-64490465D01*
X164858482Y-64491619D01*
X164858476Y-64491620D01*
X164712609Y-64526640D01*
X164632406Y-64545895D01*
X164627835Y-64547788D01*
X164627833Y-64547789D01*
X164417611Y-64634865D01*
X164417607Y-64634867D01*
X164413037Y-64636760D01*
X164408817Y-64639346D01*
X164214798Y-64758241D01*
X164214792Y-64758245D01*
X164210584Y-64760824D01*
X164030031Y-64915031D01*
X163875824Y-65095584D01*
X163873245Y-65099792D01*
X163873241Y-65099798D01*
X163754346Y-65293817D01*
X163751760Y-65298037D01*
X163749865Y-65302612D01*
X163736359Y-65335218D01*
X163691810Y-65390499D01*
X163619950Y-65413000D01*
X160080050Y-65413000D01*
X160011929Y-65392998D01*
X159963641Y-65335218D01*
X159950135Y-65302612D01*
X159948240Y-65298037D01*
X159945654Y-65293817D01*
X159826759Y-65099798D01*
X159826755Y-65099792D01*
X159824176Y-65095584D01*
X159669969Y-64915031D01*
X159489416Y-64760824D01*
X159485208Y-64758245D01*
X159485202Y-64758241D01*
X159291183Y-64639346D01*
X159286963Y-64636760D01*
X159282393Y-64634867D01*
X159282389Y-64634865D01*
X159072167Y-64547789D01*
X159072165Y-64547788D01*
X159067594Y-64545895D01*
X158987391Y-64526640D01*
X158841524Y-64491620D01*
X158841518Y-64491619D01*
X158836711Y-64490465D01*
X158600000Y-64471835D01*
X158363289Y-64490465D01*
X158358482Y-64491619D01*
X158358476Y-64491620D01*
X158212609Y-64526640D01*
X158132406Y-64545895D01*
X158127835Y-64547788D01*
X158127833Y-64547789D01*
X157917611Y-64634865D01*
X157917607Y-64634867D01*
X157913037Y-64636760D01*
X157908817Y-64639346D01*
X157714798Y-64758241D01*
X157714792Y-64758245D01*
X157710584Y-64760824D01*
X157530031Y-64915031D01*
X157375824Y-65095584D01*
X157373245Y-65099792D01*
X157373241Y-65099798D01*
X157254346Y-65293817D01*
X157251760Y-65298037D01*
X157249865Y-65302612D01*
X157236359Y-65335218D01*
X157191810Y-65390499D01*
X157119950Y-65413000D01*
X148779500Y-65413000D01*
X148711379Y-65392998D01*
X148664886Y-65339342D01*
X148653500Y-65287000D01*
X148653500Y-64176866D01*
X148646745Y-64114684D01*
X148595615Y-63978295D01*
X148508261Y-63861739D01*
X148391705Y-63774385D01*
X148255316Y-63723255D01*
X148193134Y-63716500D01*
X146396866Y-63716500D01*
X146334684Y-63723255D01*
X146198295Y-63774385D01*
X146081739Y-63861739D01*
X145994385Y-63978295D01*
X145943255Y-64114684D01*
X145936500Y-64176866D01*
X145936500Y-65973134D01*
X145943255Y-66035316D01*
X145994385Y-66171705D01*
X146081739Y-66288261D01*
X146198295Y-66375615D01*
X146206704Y-66378767D01*
X146206705Y-66378768D01*
X146315451Y-66419535D01*
X146372216Y-66462176D01*
X146396916Y-66528738D01*
X146381709Y-66598087D01*
X146362316Y-66624568D01*
X146235629Y-66757138D01*
X146109743Y-66941680D01*
X146107564Y-66946375D01*
X146097925Y-66967140D01*
X146051101Y-67020507D01*
X145982858Y-67040088D01*
X145969107Y-67039143D01*
X145968188Y-67039143D01*
X145960000Y-67038065D01*
X145951812Y-67039143D01*
X145951811Y-67039143D01*
X145922521Y-67042999D01*
X145922509Y-67043000D01*
X145922506Y-67043000D01*
X145922497Y-67043001D01*
X145860125Y-67051213D01*
X145810678Y-67057723D01*
X145671532Y-67115359D01*
X145592892Y-67175702D01*
X145552045Y-67207045D01*
X145547019Y-67213595D01*
X145534051Y-67230495D01*
X145523184Y-67242886D01*
X144332886Y-68433184D01*
X144320495Y-68444051D01*
X144297045Y-68462045D01*
X144205359Y-68581532D01*
X144147723Y-68720678D01*
X144133000Y-68832508D01*
X144133000Y-68832514D01*
X144128065Y-68870000D01*
X144129143Y-68878188D01*
X144129143Y-68878189D01*
X144131922Y-68899298D01*
X144133000Y-68915744D01*
X144133000Y-70729256D01*
X144131922Y-70745702D01*
X144128065Y-70775000D01*
X136525000Y-70775000D01*
X136525000Y-61721000D01*
X136545002Y-61652879D01*
X136598658Y-61606386D01*
X136651000Y-61595000D01*
X180214000Y-61595000D01*
X180282121Y-61615002D01*
G37*
%TD.AperFunction*%
%TD*%
M02*
