%TF.GenerationSoftware,KiCad,Pcbnew,7.0.8*%
%TF.CreationDate,2024-01-15T19:48:56-06:00*%
%TF.ProjectId,ISA rev8,49534120-7265-4763-982e-6b696361645f,rev?*%
%TF.SameCoordinates,Original*%
%TF.FileFunction,Soldermask,Top*%
%TF.FilePolarity,Negative*%
%FSLAX46Y46*%
G04 Gerber Fmt 4.6, Leading zero omitted, Abs format (unit mm)*
G04 Created by KiCad (PCBNEW 7.0.8) date 2024-01-15 19:48:56*
%MOMM*%
%LPD*%
G01*
G04 APERTURE LIST*
G04 APERTURE END LIST*
G36*
X104273000Y-130302000D02*
G01*
X102493000Y-130302000D01*
X102493000Y-122682000D01*
X104273000Y-122682000D01*
X104273000Y-130302000D01*
G37*
G36*
X106813000Y-130302000D02*
G01*
X105033000Y-130302000D01*
X105033000Y-122682000D01*
X106813000Y-122682000D01*
X106813000Y-130302000D01*
G37*
G36*
X109353000Y-130302000D02*
G01*
X107573000Y-130302000D01*
X107573000Y-122682000D01*
X109353000Y-122682000D01*
X109353000Y-130302000D01*
G37*
G36*
X111893000Y-130302000D02*
G01*
X110113000Y-130302000D01*
X110113000Y-122682000D01*
X111893000Y-122682000D01*
X111893000Y-130302000D01*
G37*
G36*
X114433000Y-130302000D02*
G01*
X112653000Y-130302000D01*
X112653000Y-122682000D01*
X114433000Y-122682000D01*
X114433000Y-130302000D01*
G37*
G36*
X116973000Y-130302000D02*
G01*
X115193000Y-130302000D01*
X115193000Y-122682000D01*
X116973000Y-122682000D01*
X116973000Y-130302000D01*
G37*
G36*
X119513000Y-130302000D02*
G01*
X117733000Y-130302000D01*
X117733000Y-122682000D01*
X119513000Y-122682000D01*
X119513000Y-130302000D01*
G37*
G36*
X122053000Y-130302000D02*
G01*
X120273000Y-130302000D01*
X120273000Y-122682000D01*
X122053000Y-122682000D01*
X122053000Y-130302000D01*
G37*
G36*
X124593000Y-130302000D02*
G01*
X122813000Y-130302000D01*
X122813000Y-122682000D01*
X124593000Y-122682000D01*
X124593000Y-130302000D01*
G37*
G36*
X127133000Y-130302000D02*
G01*
X125353000Y-130302000D01*
X125353000Y-122682000D01*
X127133000Y-122682000D01*
X127133000Y-130302000D01*
G37*
G36*
X129673000Y-130302000D02*
G01*
X127893000Y-130302000D01*
X127893000Y-122682000D01*
X129673000Y-122682000D01*
X129673000Y-130302000D01*
G37*
G36*
X132213000Y-130302000D02*
G01*
X130433000Y-130302000D01*
X130433000Y-122682000D01*
X132213000Y-122682000D01*
X132213000Y-130302000D01*
G37*
G36*
X134753000Y-130302000D02*
G01*
X132973000Y-130302000D01*
X132973000Y-122682000D01*
X134753000Y-122682000D01*
X134753000Y-130302000D01*
G37*
G36*
X137293000Y-130302000D02*
G01*
X135513000Y-130302000D01*
X135513000Y-122682000D01*
X137293000Y-122682000D01*
X137293000Y-130302000D01*
G37*
G36*
X139833000Y-130302000D02*
G01*
X138053000Y-130302000D01*
X138053000Y-122682000D01*
X139833000Y-122682000D01*
X139833000Y-130302000D01*
G37*
G36*
X142373000Y-130302000D02*
G01*
X140593000Y-130302000D01*
X140593000Y-122682000D01*
X142373000Y-122682000D01*
X142373000Y-130302000D01*
G37*
G36*
X144913000Y-130302000D02*
G01*
X143133000Y-130302000D01*
X143133000Y-122682000D01*
X144913000Y-122682000D01*
X144913000Y-130302000D01*
G37*
G36*
X147453000Y-130302000D02*
G01*
X145673000Y-130302000D01*
X145673000Y-122682000D01*
X147453000Y-122682000D01*
X147453000Y-130302000D01*
G37*
G36*
X149993000Y-130302000D02*
G01*
X148213000Y-130302000D01*
X148213000Y-122682000D01*
X149993000Y-122682000D01*
X149993000Y-130302000D01*
G37*
G36*
X152533000Y-130302000D02*
G01*
X150753000Y-130302000D01*
X150753000Y-122682000D01*
X152533000Y-122682000D01*
X152533000Y-130302000D01*
G37*
G36*
X155073000Y-130302000D02*
G01*
X153293000Y-130302000D01*
X153293000Y-122682000D01*
X155073000Y-122682000D01*
X155073000Y-130302000D01*
G37*
G36*
X157613000Y-130302000D02*
G01*
X155833000Y-130302000D01*
X155833000Y-122682000D01*
X157613000Y-122682000D01*
X157613000Y-130302000D01*
G37*
G36*
X160153000Y-130302000D02*
G01*
X158373000Y-130302000D01*
X158373000Y-122682000D01*
X160153000Y-122682000D01*
X160153000Y-130302000D01*
G37*
G36*
X162693000Y-130302000D02*
G01*
X160913000Y-130302000D01*
X160913000Y-122682000D01*
X162693000Y-122682000D01*
X162693000Y-130302000D01*
G37*
G36*
X165233000Y-130302000D02*
G01*
X163453000Y-130302000D01*
X163453000Y-122682000D01*
X165233000Y-122682000D01*
X165233000Y-130302000D01*
G37*
G36*
X167773000Y-130302000D02*
G01*
X165993000Y-130302000D01*
X165993000Y-122682000D01*
X167773000Y-122682000D01*
X167773000Y-130302000D01*
G37*
G36*
X170313000Y-130302000D02*
G01*
X168533000Y-130302000D01*
X168533000Y-122682000D01*
X170313000Y-122682000D01*
X170313000Y-130302000D01*
G37*
G36*
X172853000Y-130302000D02*
G01*
X171073000Y-130302000D01*
X171073000Y-122682000D01*
X172853000Y-122682000D01*
X172853000Y-130302000D01*
G37*
G36*
X175393000Y-130302000D02*
G01*
X173613000Y-130302000D01*
X173613000Y-122682000D01*
X175393000Y-122682000D01*
X175393000Y-130302000D01*
G37*
G36*
X177933000Y-130302000D02*
G01*
X176153000Y-130302000D01*
X176153000Y-122682000D01*
X177933000Y-122682000D01*
X177933000Y-130302000D01*
G37*
G36*
X180473000Y-130302000D02*
G01*
X178693000Y-130302000D01*
X178693000Y-122682000D01*
X180473000Y-122682000D01*
X180473000Y-130302000D01*
G37*
G36*
X110352850Y-119264964D02*
G01*
X110403040Y-119270787D01*
X110420189Y-119278359D01*
X110443671Y-119283030D01*
X110468810Y-119299827D01*
X110488696Y-119308608D01*
X110502277Y-119322189D01*
X110524777Y-119337223D01*
X110539810Y-119359722D01*
X110553391Y-119373303D01*
X110562170Y-119393186D01*
X110578970Y-119418329D01*
X110583641Y-119441812D01*
X110591212Y-119458959D01*
X110597033Y-119509139D01*
X110598000Y-119514000D01*
X110598000Y-120314000D01*
X110597032Y-120318863D01*
X110591212Y-120369040D01*
X110583641Y-120386185D01*
X110578970Y-120409671D01*
X110562169Y-120434815D01*
X110553391Y-120454696D01*
X110539812Y-120468274D01*
X110524777Y-120490777D01*
X110502274Y-120505812D01*
X110488696Y-120519391D01*
X110468815Y-120528169D01*
X110443671Y-120544970D01*
X110420185Y-120549641D01*
X110403040Y-120557212D01*
X110352861Y-120563032D01*
X110348000Y-120564000D01*
X109098000Y-120564000D01*
X109093138Y-120563032D01*
X109042959Y-120557212D01*
X109025812Y-120549641D01*
X109002329Y-120544970D01*
X108977186Y-120528170D01*
X108957303Y-120519391D01*
X108943722Y-120505810D01*
X108921223Y-120490777D01*
X108906189Y-120468277D01*
X108892608Y-120454696D01*
X108883827Y-120434810D01*
X108867030Y-120409671D01*
X108862359Y-120386189D01*
X108854787Y-120369040D01*
X108848964Y-120318849D01*
X108848000Y-120314000D01*
X108848000Y-119514000D01*
X108848964Y-119509150D01*
X108854787Y-119458959D01*
X108862359Y-119441808D01*
X108867030Y-119418329D01*
X108883826Y-119393191D01*
X108892608Y-119373303D01*
X108906191Y-119359719D01*
X108921223Y-119337223D01*
X108943719Y-119322191D01*
X108957303Y-119308608D01*
X108977191Y-119299826D01*
X109002329Y-119283030D01*
X109025808Y-119278359D01*
X109042959Y-119270787D01*
X109093151Y-119264964D01*
X109098000Y-119264000D01*
X110348000Y-119264000D01*
X110352850Y-119264964D01*
G37*
G36*
X113908850Y-119264964D02*
G01*
X113959040Y-119270787D01*
X113976189Y-119278359D01*
X113999671Y-119283030D01*
X114024810Y-119299827D01*
X114044696Y-119308608D01*
X114058277Y-119322189D01*
X114080777Y-119337223D01*
X114095810Y-119359722D01*
X114109391Y-119373303D01*
X114118170Y-119393186D01*
X114134970Y-119418329D01*
X114139641Y-119441812D01*
X114147212Y-119458959D01*
X114153033Y-119509139D01*
X114154000Y-119514000D01*
X114154000Y-120314000D01*
X114153032Y-120318863D01*
X114147212Y-120369040D01*
X114139641Y-120386185D01*
X114134970Y-120409671D01*
X114118169Y-120434815D01*
X114109391Y-120454696D01*
X114095812Y-120468274D01*
X114080777Y-120490777D01*
X114058274Y-120505812D01*
X114044696Y-120519391D01*
X114024815Y-120528169D01*
X113999671Y-120544970D01*
X113976185Y-120549641D01*
X113959040Y-120557212D01*
X113908861Y-120563032D01*
X113904000Y-120564000D01*
X112654000Y-120564000D01*
X112649138Y-120563032D01*
X112598959Y-120557212D01*
X112581812Y-120549641D01*
X112558329Y-120544970D01*
X112533186Y-120528170D01*
X112513303Y-120519391D01*
X112499722Y-120505810D01*
X112477223Y-120490777D01*
X112462189Y-120468277D01*
X112448608Y-120454696D01*
X112439827Y-120434810D01*
X112423030Y-120409671D01*
X112418359Y-120386189D01*
X112410787Y-120369040D01*
X112404964Y-120318849D01*
X112404000Y-120314000D01*
X112404000Y-119514000D01*
X112404964Y-119509150D01*
X112410787Y-119458959D01*
X112418359Y-119441808D01*
X112423030Y-119418329D01*
X112439826Y-119393191D01*
X112448608Y-119373303D01*
X112462191Y-119359719D01*
X112477223Y-119337223D01*
X112499719Y-119322191D01*
X112513303Y-119308608D01*
X112533191Y-119299826D01*
X112558329Y-119283030D01*
X112581808Y-119278359D01*
X112598959Y-119270787D01*
X112649151Y-119264964D01*
X112654000Y-119264000D01*
X113904000Y-119264000D01*
X113908850Y-119264964D01*
G37*
G36*
X106796850Y-119238964D02*
G01*
X106847040Y-119244787D01*
X106864189Y-119252359D01*
X106887671Y-119257030D01*
X106912810Y-119273827D01*
X106932696Y-119282608D01*
X106946277Y-119296189D01*
X106968777Y-119311223D01*
X106983810Y-119333722D01*
X106997391Y-119347303D01*
X107006170Y-119367186D01*
X107022970Y-119392329D01*
X107027641Y-119415812D01*
X107035212Y-119432959D01*
X107041033Y-119483139D01*
X107042000Y-119488000D01*
X107042000Y-120288000D01*
X107041032Y-120292863D01*
X107035212Y-120343040D01*
X107027641Y-120360185D01*
X107022970Y-120383671D01*
X107006169Y-120408815D01*
X106997391Y-120428696D01*
X106983812Y-120442274D01*
X106968777Y-120464777D01*
X106946274Y-120479812D01*
X106932696Y-120493391D01*
X106912815Y-120502169D01*
X106887671Y-120518970D01*
X106864185Y-120523641D01*
X106847040Y-120531212D01*
X106796861Y-120537032D01*
X106792000Y-120538000D01*
X105542000Y-120538000D01*
X105537138Y-120537032D01*
X105486959Y-120531212D01*
X105469812Y-120523641D01*
X105446329Y-120518970D01*
X105421186Y-120502170D01*
X105401303Y-120493391D01*
X105387722Y-120479810D01*
X105365223Y-120464777D01*
X105350189Y-120442277D01*
X105336608Y-120428696D01*
X105327827Y-120408810D01*
X105311030Y-120383671D01*
X105306359Y-120360189D01*
X105298787Y-120343040D01*
X105292964Y-120292849D01*
X105292000Y-120288000D01*
X105292000Y-119488000D01*
X105292964Y-119483150D01*
X105298787Y-119432959D01*
X105306359Y-119415808D01*
X105311030Y-119392329D01*
X105327826Y-119367191D01*
X105336608Y-119347303D01*
X105350191Y-119333719D01*
X105365223Y-119311223D01*
X105387719Y-119296191D01*
X105401303Y-119282608D01*
X105421191Y-119273826D01*
X105446329Y-119257030D01*
X105469808Y-119252359D01*
X105486959Y-119244787D01*
X105537151Y-119238964D01*
X105542000Y-119238000D01*
X106792000Y-119238000D01*
X106796850Y-119238964D01*
G37*
G36*
X165307403Y-118437418D02*
G01*
X165356066Y-118469934D01*
X165388582Y-118518597D01*
X165400000Y-118576000D01*
X165400000Y-120251000D01*
X165388582Y-120308403D01*
X165356066Y-120357066D01*
X165307403Y-120389582D01*
X165250000Y-120401000D01*
X164950000Y-120401000D01*
X164892597Y-120389582D01*
X164843934Y-120357066D01*
X164811418Y-120308403D01*
X164800000Y-120251000D01*
X164800000Y-118576000D01*
X164811418Y-118518597D01*
X164843934Y-118469934D01*
X164892597Y-118437418D01*
X164950000Y-118426000D01*
X165250000Y-118426000D01*
X165307403Y-118437418D01*
G37*
G36*
X166577403Y-118437418D02*
G01*
X166626066Y-118469934D01*
X166658582Y-118518597D01*
X166670000Y-118576000D01*
X166670000Y-120251000D01*
X166658582Y-120308403D01*
X166626066Y-120357066D01*
X166577403Y-120389582D01*
X166520000Y-120401000D01*
X166220000Y-120401000D01*
X166162597Y-120389582D01*
X166113934Y-120357066D01*
X166081418Y-120308403D01*
X166070000Y-120251000D01*
X166070000Y-118576000D01*
X166081418Y-118518597D01*
X166113934Y-118469934D01*
X166162597Y-118437418D01*
X166220000Y-118426000D01*
X166520000Y-118426000D01*
X166577403Y-118437418D01*
G37*
G36*
X167847403Y-118437418D02*
G01*
X167896066Y-118469934D01*
X167928582Y-118518597D01*
X167940000Y-118576000D01*
X167940000Y-120251000D01*
X167928582Y-120308403D01*
X167896066Y-120357066D01*
X167847403Y-120389582D01*
X167790000Y-120401000D01*
X167490000Y-120401000D01*
X167432597Y-120389582D01*
X167383934Y-120357066D01*
X167351418Y-120308403D01*
X167340000Y-120251000D01*
X167340000Y-118576000D01*
X167351418Y-118518597D01*
X167383934Y-118469934D01*
X167432597Y-118437418D01*
X167490000Y-118426000D01*
X167790000Y-118426000D01*
X167847403Y-118437418D01*
G37*
G36*
X169117403Y-118437418D02*
G01*
X169166066Y-118469934D01*
X169198582Y-118518597D01*
X169210000Y-118576000D01*
X169210000Y-120251000D01*
X169198582Y-120308403D01*
X169166066Y-120357066D01*
X169117403Y-120389582D01*
X169060000Y-120401000D01*
X168760000Y-120401000D01*
X168702597Y-120389582D01*
X168653934Y-120357066D01*
X168621418Y-120308403D01*
X168610000Y-120251000D01*
X168610000Y-118576000D01*
X168621418Y-118518597D01*
X168653934Y-118469934D01*
X168702597Y-118437418D01*
X168760000Y-118426000D01*
X169060000Y-118426000D01*
X169117403Y-118437418D01*
G37*
G36*
X170387403Y-118437418D02*
G01*
X170436066Y-118469934D01*
X170468582Y-118518597D01*
X170480000Y-118576000D01*
X170480000Y-120251000D01*
X170468582Y-120308403D01*
X170436066Y-120357066D01*
X170387403Y-120389582D01*
X170330000Y-120401000D01*
X170030000Y-120401000D01*
X169972597Y-120389582D01*
X169923934Y-120357066D01*
X169891418Y-120308403D01*
X169880000Y-120251000D01*
X169880000Y-118576000D01*
X169891418Y-118518597D01*
X169923934Y-118469934D01*
X169972597Y-118437418D01*
X170030000Y-118426000D01*
X170330000Y-118426000D01*
X170387403Y-118437418D01*
G37*
G36*
X171657403Y-118437418D02*
G01*
X171706066Y-118469934D01*
X171738582Y-118518597D01*
X171750000Y-118576000D01*
X171750000Y-120251000D01*
X171738582Y-120308403D01*
X171706066Y-120357066D01*
X171657403Y-120389582D01*
X171600000Y-120401000D01*
X171300000Y-120401000D01*
X171242597Y-120389582D01*
X171193934Y-120357066D01*
X171161418Y-120308403D01*
X171150000Y-120251000D01*
X171150000Y-118576000D01*
X171161418Y-118518597D01*
X171193934Y-118469934D01*
X171242597Y-118437418D01*
X171300000Y-118426000D01*
X171600000Y-118426000D01*
X171657403Y-118437418D01*
G37*
G36*
X172927403Y-118437418D02*
G01*
X172976066Y-118469934D01*
X173008582Y-118518597D01*
X173020000Y-118576000D01*
X173020000Y-120251000D01*
X173008582Y-120308403D01*
X172976066Y-120357066D01*
X172927403Y-120389582D01*
X172870000Y-120401000D01*
X172570000Y-120401000D01*
X172512597Y-120389582D01*
X172463934Y-120357066D01*
X172431418Y-120308403D01*
X172420000Y-120251000D01*
X172420000Y-118576000D01*
X172431418Y-118518597D01*
X172463934Y-118469934D01*
X172512597Y-118437418D01*
X172570000Y-118426000D01*
X172870000Y-118426000D01*
X172927403Y-118437418D01*
G37*
G36*
X174197403Y-118437418D02*
G01*
X174246066Y-118469934D01*
X174278582Y-118518597D01*
X174290000Y-118576000D01*
X174290000Y-120251000D01*
X174278582Y-120308403D01*
X174246066Y-120357066D01*
X174197403Y-120389582D01*
X174140000Y-120401000D01*
X173840000Y-120401000D01*
X173782597Y-120389582D01*
X173733934Y-120357066D01*
X173701418Y-120308403D01*
X173690000Y-120251000D01*
X173690000Y-118576000D01*
X173701418Y-118518597D01*
X173733934Y-118469934D01*
X173782597Y-118437418D01*
X173840000Y-118426000D01*
X174140000Y-118426000D01*
X174197403Y-118437418D01*
G37*
G36*
X175467403Y-118437418D02*
G01*
X175516066Y-118469934D01*
X175548582Y-118518597D01*
X175560000Y-118576000D01*
X175560000Y-120251000D01*
X175548582Y-120308403D01*
X175516066Y-120357066D01*
X175467403Y-120389582D01*
X175410000Y-120401000D01*
X175110000Y-120401000D01*
X175052597Y-120389582D01*
X175003934Y-120357066D01*
X174971418Y-120308403D01*
X174960000Y-120251000D01*
X174960000Y-118576000D01*
X174971418Y-118518597D01*
X175003934Y-118469934D01*
X175052597Y-118437418D01*
X175110000Y-118426000D01*
X175410000Y-118426000D01*
X175467403Y-118437418D01*
G37*
G36*
X176737403Y-118437418D02*
G01*
X176786066Y-118469934D01*
X176818582Y-118518597D01*
X176830000Y-118576000D01*
X176830000Y-120251000D01*
X176818582Y-120308403D01*
X176786066Y-120357066D01*
X176737403Y-120389582D01*
X176680000Y-120401000D01*
X176380000Y-120401000D01*
X176322597Y-120389582D01*
X176273934Y-120357066D01*
X176241418Y-120308403D01*
X176230000Y-120251000D01*
X176230000Y-118576000D01*
X176241418Y-118518597D01*
X176273934Y-118469934D01*
X176322597Y-118437418D01*
X176380000Y-118426000D01*
X176680000Y-118426000D01*
X176737403Y-118437418D01*
G37*
G36*
X148521403Y-119599418D02*
G01*
X148570066Y-119631934D01*
X148602582Y-119680597D01*
X148614000Y-119738000D01*
X148614000Y-120038000D01*
X148602582Y-120095403D01*
X148570066Y-120144066D01*
X148521403Y-120176582D01*
X148464000Y-120188000D01*
X146814000Y-120188000D01*
X146756597Y-120176582D01*
X146707934Y-120144066D01*
X146675418Y-120095403D01*
X146664000Y-120038000D01*
X146664000Y-119738000D01*
X146675418Y-119680597D01*
X146707934Y-119631934D01*
X146756597Y-119599418D01*
X146814000Y-119588000D01*
X148464000Y-119588000D01*
X148521403Y-119599418D01*
G37*
G36*
X153471403Y-119599418D02*
G01*
X153520066Y-119631934D01*
X153552582Y-119680597D01*
X153564000Y-119738000D01*
X153564000Y-120038000D01*
X153552582Y-120095403D01*
X153520066Y-120144066D01*
X153471403Y-120176582D01*
X153414000Y-120188000D01*
X151764000Y-120188000D01*
X151706597Y-120176582D01*
X151657934Y-120144066D01*
X151625418Y-120095403D01*
X151614000Y-120038000D01*
X151614000Y-119738000D01*
X151625418Y-119680597D01*
X151657934Y-119631934D01*
X151706597Y-119599418D01*
X151764000Y-119588000D01*
X153414000Y-119588000D01*
X153471403Y-119599418D01*
G37*
G36*
X157030403Y-119599418D02*
G01*
X157079066Y-119631934D01*
X157111582Y-119680597D01*
X157123000Y-119738000D01*
X157123000Y-120038000D01*
X157111582Y-120095403D01*
X157079066Y-120144066D01*
X157030403Y-120176582D01*
X156973000Y-120188000D01*
X155323000Y-120188000D01*
X155265597Y-120176582D01*
X155216934Y-120144066D01*
X155184418Y-120095403D01*
X155173000Y-120038000D01*
X155173000Y-119738000D01*
X155184418Y-119680597D01*
X155216934Y-119631934D01*
X155265597Y-119599418D01*
X155323000Y-119588000D01*
X156973000Y-119588000D01*
X157030403Y-119599418D01*
G37*
G36*
X161980403Y-119599418D02*
G01*
X162029066Y-119631934D01*
X162061582Y-119680597D01*
X162073000Y-119738000D01*
X162073000Y-120038000D01*
X162061582Y-120095403D01*
X162029066Y-120144066D01*
X161980403Y-120176582D01*
X161923000Y-120188000D01*
X160273000Y-120188000D01*
X160215597Y-120176582D01*
X160166934Y-120144066D01*
X160134418Y-120095403D01*
X160123000Y-120038000D01*
X160123000Y-119738000D01*
X160134418Y-119680597D01*
X160166934Y-119631934D01*
X160215597Y-119599418D01*
X160273000Y-119588000D01*
X161923000Y-119588000D01*
X161980403Y-119599418D01*
G37*
G36*
X184492000Y-119199000D02*
G01*
X182792000Y-119199000D01*
X182792000Y-117499000D01*
X184492000Y-117499000D01*
X184492000Y-119199000D01*
G37*
G36*
X148521403Y-118329418D02*
G01*
X148570066Y-118361934D01*
X148602582Y-118410597D01*
X148614000Y-118468000D01*
X148614000Y-118768000D01*
X148602582Y-118825403D01*
X148570066Y-118874066D01*
X148521403Y-118906582D01*
X148464000Y-118918000D01*
X146814000Y-118918000D01*
X146756597Y-118906582D01*
X146707934Y-118874066D01*
X146675418Y-118825403D01*
X146664000Y-118768000D01*
X146664000Y-118468000D01*
X146675418Y-118410597D01*
X146707934Y-118361934D01*
X146756597Y-118329418D01*
X146814000Y-118318000D01*
X148464000Y-118318000D01*
X148521403Y-118329418D01*
G37*
G36*
X153471403Y-118329418D02*
G01*
X153520066Y-118361934D01*
X153552582Y-118410597D01*
X153564000Y-118468000D01*
X153564000Y-118768000D01*
X153552582Y-118825403D01*
X153520066Y-118874066D01*
X153471403Y-118906582D01*
X153414000Y-118918000D01*
X151764000Y-118918000D01*
X151706597Y-118906582D01*
X151657934Y-118874066D01*
X151625418Y-118825403D01*
X151614000Y-118768000D01*
X151614000Y-118468000D01*
X151625418Y-118410597D01*
X151657934Y-118361934D01*
X151706597Y-118329418D01*
X151764000Y-118318000D01*
X153414000Y-118318000D01*
X153471403Y-118329418D01*
G37*
G36*
X157030403Y-118329418D02*
G01*
X157079066Y-118361934D01*
X157111582Y-118410597D01*
X157123000Y-118468000D01*
X157123000Y-118768000D01*
X157111582Y-118825403D01*
X157079066Y-118874066D01*
X157030403Y-118906582D01*
X156973000Y-118918000D01*
X155323000Y-118918000D01*
X155265597Y-118906582D01*
X155216934Y-118874066D01*
X155184418Y-118825403D01*
X155173000Y-118768000D01*
X155173000Y-118468000D01*
X155184418Y-118410597D01*
X155216934Y-118361934D01*
X155265597Y-118329418D01*
X155323000Y-118318000D01*
X156973000Y-118318000D01*
X157030403Y-118329418D01*
G37*
G36*
X161980403Y-118329418D02*
G01*
X162029066Y-118361934D01*
X162061582Y-118410597D01*
X162073000Y-118468000D01*
X162073000Y-118768000D01*
X162061582Y-118825403D01*
X162029066Y-118874066D01*
X161980403Y-118906582D01*
X161923000Y-118918000D01*
X160273000Y-118918000D01*
X160215597Y-118906582D01*
X160166934Y-118874066D01*
X160134418Y-118825403D01*
X160123000Y-118768000D01*
X160123000Y-118468000D01*
X160134418Y-118410597D01*
X160166934Y-118361934D01*
X160215597Y-118329418D01*
X160273000Y-118318000D01*
X161923000Y-118318000D01*
X161980403Y-118329418D01*
G37*
G36*
X148521403Y-117059418D02*
G01*
X148570066Y-117091934D01*
X148602582Y-117140597D01*
X148614000Y-117198000D01*
X148614000Y-117498000D01*
X148602582Y-117555403D01*
X148570066Y-117604066D01*
X148521403Y-117636582D01*
X148464000Y-117648000D01*
X146814000Y-117648000D01*
X146756597Y-117636582D01*
X146707934Y-117604066D01*
X146675418Y-117555403D01*
X146664000Y-117498000D01*
X146664000Y-117198000D01*
X146675418Y-117140597D01*
X146707934Y-117091934D01*
X146756597Y-117059418D01*
X146814000Y-117048000D01*
X148464000Y-117048000D01*
X148521403Y-117059418D01*
G37*
G36*
X153471403Y-117059418D02*
G01*
X153520066Y-117091934D01*
X153552582Y-117140597D01*
X153564000Y-117198000D01*
X153564000Y-117498000D01*
X153552582Y-117555403D01*
X153520066Y-117604066D01*
X153471403Y-117636582D01*
X153414000Y-117648000D01*
X151764000Y-117648000D01*
X151706597Y-117636582D01*
X151657934Y-117604066D01*
X151625418Y-117555403D01*
X151614000Y-117498000D01*
X151614000Y-117198000D01*
X151625418Y-117140597D01*
X151657934Y-117091934D01*
X151706597Y-117059418D01*
X151764000Y-117048000D01*
X153414000Y-117048000D01*
X153471403Y-117059418D01*
G37*
G36*
X157030403Y-117059418D02*
G01*
X157079066Y-117091934D01*
X157111582Y-117140597D01*
X157123000Y-117198000D01*
X157123000Y-117498000D01*
X157111582Y-117555403D01*
X157079066Y-117604066D01*
X157030403Y-117636582D01*
X156973000Y-117648000D01*
X155323000Y-117648000D01*
X155265597Y-117636582D01*
X155216934Y-117604066D01*
X155184418Y-117555403D01*
X155173000Y-117498000D01*
X155173000Y-117198000D01*
X155184418Y-117140597D01*
X155216934Y-117091934D01*
X155265597Y-117059418D01*
X155323000Y-117048000D01*
X156973000Y-117048000D01*
X157030403Y-117059418D01*
G37*
G36*
X161980403Y-117059418D02*
G01*
X162029066Y-117091934D01*
X162061582Y-117140597D01*
X162073000Y-117198000D01*
X162073000Y-117498000D01*
X162061582Y-117555403D01*
X162029066Y-117604066D01*
X161980403Y-117636582D01*
X161923000Y-117648000D01*
X160273000Y-117648000D01*
X160215597Y-117636582D01*
X160166934Y-117604066D01*
X160134418Y-117555403D01*
X160123000Y-117498000D01*
X160123000Y-117198000D01*
X160134418Y-117140597D01*
X160166934Y-117091934D01*
X160215597Y-117059418D01*
X160273000Y-117048000D01*
X161923000Y-117048000D01*
X161980403Y-117059418D01*
G37*
G36*
X110352850Y-116164964D02*
G01*
X110403040Y-116170787D01*
X110420189Y-116178359D01*
X110443671Y-116183030D01*
X110468810Y-116199827D01*
X110488696Y-116208608D01*
X110502277Y-116222189D01*
X110524777Y-116237223D01*
X110539810Y-116259722D01*
X110553391Y-116273303D01*
X110562170Y-116293186D01*
X110578970Y-116318329D01*
X110583641Y-116341812D01*
X110591212Y-116358959D01*
X110597033Y-116409139D01*
X110598000Y-116414000D01*
X110598000Y-117214000D01*
X110597032Y-117218863D01*
X110591212Y-117269040D01*
X110583641Y-117286185D01*
X110578970Y-117309671D01*
X110562169Y-117334815D01*
X110553391Y-117354696D01*
X110539812Y-117368274D01*
X110524777Y-117390777D01*
X110502274Y-117405812D01*
X110488696Y-117419391D01*
X110468815Y-117428169D01*
X110443671Y-117444970D01*
X110420185Y-117449641D01*
X110403040Y-117457212D01*
X110352861Y-117463032D01*
X110348000Y-117464000D01*
X109098000Y-117464000D01*
X109093138Y-117463032D01*
X109042959Y-117457212D01*
X109025812Y-117449641D01*
X109002329Y-117444970D01*
X108977186Y-117428170D01*
X108957303Y-117419391D01*
X108943722Y-117405810D01*
X108921223Y-117390777D01*
X108906189Y-117368277D01*
X108892608Y-117354696D01*
X108883827Y-117334810D01*
X108867030Y-117309671D01*
X108862359Y-117286189D01*
X108854787Y-117269040D01*
X108848964Y-117218849D01*
X108848000Y-117214000D01*
X108848000Y-116414000D01*
X108848964Y-116409150D01*
X108854787Y-116358959D01*
X108862359Y-116341808D01*
X108867030Y-116318329D01*
X108883826Y-116293191D01*
X108892608Y-116273303D01*
X108906191Y-116259719D01*
X108921223Y-116237223D01*
X108943719Y-116222191D01*
X108957303Y-116208608D01*
X108977191Y-116199826D01*
X109002329Y-116183030D01*
X109025808Y-116178359D01*
X109042959Y-116170787D01*
X109093151Y-116164964D01*
X109098000Y-116164000D01*
X110348000Y-116164000D01*
X110352850Y-116164964D01*
G37*
G36*
X113908850Y-116164964D02*
G01*
X113959040Y-116170787D01*
X113976189Y-116178359D01*
X113999671Y-116183030D01*
X114024810Y-116199827D01*
X114044696Y-116208608D01*
X114058277Y-116222189D01*
X114080777Y-116237223D01*
X114095810Y-116259722D01*
X114109391Y-116273303D01*
X114118170Y-116293186D01*
X114134970Y-116318329D01*
X114139641Y-116341812D01*
X114147212Y-116358959D01*
X114153033Y-116409139D01*
X114154000Y-116414000D01*
X114154000Y-117214000D01*
X114153032Y-117218863D01*
X114147212Y-117269040D01*
X114139641Y-117286185D01*
X114134970Y-117309671D01*
X114118169Y-117334815D01*
X114109391Y-117354696D01*
X114095812Y-117368274D01*
X114080777Y-117390777D01*
X114058274Y-117405812D01*
X114044696Y-117419391D01*
X114024815Y-117428169D01*
X113999671Y-117444970D01*
X113976185Y-117449641D01*
X113959040Y-117457212D01*
X113908861Y-117463032D01*
X113904000Y-117464000D01*
X112654000Y-117464000D01*
X112649138Y-117463032D01*
X112598959Y-117457212D01*
X112581812Y-117449641D01*
X112558329Y-117444970D01*
X112533186Y-117428170D01*
X112513303Y-117419391D01*
X112499722Y-117405810D01*
X112477223Y-117390777D01*
X112462189Y-117368277D01*
X112448608Y-117354696D01*
X112439827Y-117334810D01*
X112423030Y-117309671D01*
X112418359Y-117286189D01*
X112410787Y-117269040D01*
X112404964Y-117218849D01*
X112404000Y-117214000D01*
X112404000Y-116414000D01*
X112404964Y-116409150D01*
X112410787Y-116358959D01*
X112418359Y-116341808D01*
X112423030Y-116318329D01*
X112439826Y-116293191D01*
X112448608Y-116273303D01*
X112462191Y-116259719D01*
X112477223Y-116237223D01*
X112499719Y-116222191D01*
X112513303Y-116208608D01*
X112533191Y-116199826D01*
X112558329Y-116183030D01*
X112581808Y-116178359D01*
X112598959Y-116170787D01*
X112649151Y-116164964D01*
X112654000Y-116164000D01*
X113904000Y-116164000D01*
X113908850Y-116164964D01*
G37*
G36*
X106796850Y-116138964D02*
G01*
X106847040Y-116144787D01*
X106864189Y-116152359D01*
X106887671Y-116157030D01*
X106912810Y-116173827D01*
X106932696Y-116182608D01*
X106946277Y-116196189D01*
X106968777Y-116211223D01*
X106983810Y-116233722D01*
X106997391Y-116247303D01*
X107006170Y-116267186D01*
X107022970Y-116292329D01*
X107027641Y-116315812D01*
X107035212Y-116332959D01*
X107041033Y-116383139D01*
X107042000Y-116388000D01*
X107042000Y-117188000D01*
X107041032Y-117192863D01*
X107035212Y-117243040D01*
X107027641Y-117260185D01*
X107022970Y-117283671D01*
X107006169Y-117308815D01*
X106997391Y-117328696D01*
X106983812Y-117342274D01*
X106968777Y-117364777D01*
X106946274Y-117379812D01*
X106932696Y-117393391D01*
X106912815Y-117402169D01*
X106887671Y-117418970D01*
X106864185Y-117423641D01*
X106847040Y-117431212D01*
X106796861Y-117437032D01*
X106792000Y-117438000D01*
X105542000Y-117438000D01*
X105537138Y-117437032D01*
X105486959Y-117431212D01*
X105469812Y-117423641D01*
X105446329Y-117418970D01*
X105421186Y-117402170D01*
X105401303Y-117393391D01*
X105387722Y-117379810D01*
X105365223Y-117364777D01*
X105350189Y-117342277D01*
X105336608Y-117328696D01*
X105327827Y-117308810D01*
X105311030Y-117283671D01*
X105306359Y-117260189D01*
X105298787Y-117243040D01*
X105292964Y-117192849D01*
X105292000Y-117188000D01*
X105292000Y-116388000D01*
X105292964Y-116383150D01*
X105298787Y-116332959D01*
X105306359Y-116315808D01*
X105311030Y-116292329D01*
X105327826Y-116267191D01*
X105336608Y-116247303D01*
X105350191Y-116233719D01*
X105365223Y-116211223D01*
X105387719Y-116196191D01*
X105401303Y-116182608D01*
X105421191Y-116173826D01*
X105446329Y-116157030D01*
X105469808Y-116152359D01*
X105486959Y-116144787D01*
X105537151Y-116138964D01*
X105542000Y-116138000D01*
X106792000Y-116138000D01*
X106796850Y-116138964D01*
G37*
G36*
X183904664Y-115000602D02*
G01*
X184067000Y-115072878D01*
X184210761Y-115177327D01*
X184329664Y-115309383D01*
X184418514Y-115463274D01*
X184473425Y-115632275D01*
X184492000Y-115809000D01*
X184473425Y-115985725D01*
X184418514Y-116154726D01*
X184329664Y-116308617D01*
X184210761Y-116440673D01*
X184067000Y-116545122D01*
X183904664Y-116617398D01*
X183730849Y-116654344D01*
X183553151Y-116654344D01*
X183379336Y-116617398D01*
X183217000Y-116545122D01*
X183073239Y-116440673D01*
X182954336Y-116308617D01*
X182865486Y-116154726D01*
X182810575Y-115985725D01*
X182792000Y-115809000D01*
X182810575Y-115632275D01*
X182865486Y-115463274D01*
X182954336Y-115309383D01*
X183073239Y-115177327D01*
X183217000Y-115072878D01*
X183379336Y-115000602D01*
X183553151Y-114963656D01*
X183730849Y-114963656D01*
X183904664Y-115000602D01*
G37*
G36*
X148521403Y-115789418D02*
G01*
X148570066Y-115821934D01*
X148602582Y-115870597D01*
X148614000Y-115928000D01*
X148614000Y-116228000D01*
X148602582Y-116285403D01*
X148570066Y-116334066D01*
X148521403Y-116366582D01*
X148464000Y-116378000D01*
X146814000Y-116378000D01*
X146756597Y-116366582D01*
X146707934Y-116334066D01*
X146675418Y-116285403D01*
X146664000Y-116228000D01*
X146664000Y-115928000D01*
X146675418Y-115870597D01*
X146707934Y-115821934D01*
X146756597Y-115789418D01*
X146814000Y-115778000D01*
X148464000Y-115778000D01*
X148521403Y-115789418D01*
G37*
G36*
X153471403Y-115789418D02*
G01*
X153520066Y-115821934D01*
X153552582Y-115870597D01*
X153564000Y-115928000D01*
X153564000Y-116228000D01*
X153552582Y-116285403D01*
X153520066Y-116334066D01*
X153471403Y-116366582D01*
X153414000Y-116378000D01*
X151764000Y-116378000D01*
X151706597Y-116366582D01*
X151657934Y-116334066D01*
X151625418Y-116285403D01*
X151614000Y-116228000D01*
X151614000Y-115928000D01*
X151625418Y-115870597D01*
X151657934Y-115821934D01*
X151706597Y-115789418D01*
X151764000Y-115778000D01*
X153414000Y-115778000D01*
X153471403Y-115789418D01*
G37*
G36*
X157030403Y-115789418D02*
G01*
X157079066Y-115821934D01*
X157111582Y-115870597D01*
X157123000Y-115928000D01*
X157123000Y-116228000D01*
X157111582Y-116285403D01*
X157079066Y-116334066D01*
X157030403Y-116366582D01*
X156973000Y-116378000D01*
X155323000Y-116378000D01*
X155265597Y-116366582D01*
X155216934Y-116334066D01*
X155184418Y-116285403D01*
X155173000Y-116228000D01*
X155173000Y-115928000D01*
X155184418Y-115870597D01*
X155216934Y-115821934D01*
X155265597Y-115789418D01*
X155323000Y-115778000D01*
X156973000Y-115778000D01*
X157030403Y-115789418D01*
G37*
G36*
X161980403Y-115789418D02*
G01*
X162029066Y-115821934D01*
X162061582Y-115870597D01*
X162073000Y-115928000D01*
X162073000Y-116228000D01*
X162061582Y-116285403D01*
X162029066Y-116334066D01*
X161980403Y-116366582D01*
X161923000Y-116378000D01*
X160273000Y-116378000D01*
X160215597Y-116366582D01*
X160166934Y-116334066D01*
X160134418Y-116285403D01*
X160123000Y-116228000D01*
X160123000Y-115928000D01*
X160134418Y-115870597D01*
X160166934Y-115821934D01*
X160215597Y-115789418D01*
X160273000Y-115778000D01*
X161923000Y-115778000D01*
X161980403Y-115789418D01*
G37*
G36*
X136229000Y-115650000D02*
G01*
X134329000Y-115650000D01*
X134329000Y-114850000D01*
X136229000Y-114850000D01*
X136229000Y-115650000D01*
G37*
G36*
X103199403Y-113357418D02*
G01*
X103248066Y-113389934D01*
X103280582Y-113438597D01*
X103292000Y-113496000D01*
X103292000Y-115171000D01*
X103280582Y-115228403D01*
X103248066Y-115277066D01*
X103199403Y-115309582D01*
X103142000Y-115321000D01*
X102842000Y-115321000D01*
X102784597Y-115309582D01*
X102735934Y-115277066D01*
X102703418Y-115228403D01*
X102692000Y-115171000D01*
X102692000Y-113496000D01*
X102703418Y-113438597D01*
X102735934Y-113389934D01*
X102784597Y-113357418D01*
X102842000Y-113346000D01*
X103142000Y-113346000D01*
X103199403Y-113357418D01*
G37*
G36*
X104469403Y-113357418D02*
G01*
X104518066Y-113389934D01*
X104550582Y-113438597D01*
X104562000Y-113496000D01*
X104562000Y-115171000D01*
X104550582Y-115228403D01*
X104518066Y-115277066D01*
X104469403Y-115309582D01*
X104412000Y-115321000D01*
X104112000Y-115321000D01*
X104054597Y-115309582D01*
X104005934Y-115277066D01*
X103973418Y-115228403D01*
X103962000Y-115171000D01*
X103962000Y-113496000D01*
X103973418Y-113438597D01*
X104005934Y-113389934D01*
X104054597Y-113357418D01*
X104112000Y-113346000D01*
X104412000Y-113346000D01*
X104469403Y-113357418D01*
G37*
G36*
X105739403Y-113357418D02*
G01*
X105788066Y-113389934D01*
X105820582Y-113438597D01*
X105832000Y-113496000D01*
X105832000Y-115171000D01*
X105820582Y-115228403D01*
X105788066Y-115277066D01*
X105739403Y-115309582D01*
X105682000Y-115321000D01*
X105382000Y-115321000D01*
X105324597Y-115309582D01*
X105275934Y-115277066D01*
X105243418Y-115228403D01*
X105232000Y-115171000D01*
X105232000Y-113496000D01*
X105243418Y-113438597D01*
X105275934Y-113389934D01*
X105324597Y-113357418D01*
X105382000Y-113346000D01*
X105682000Y-113346000D01*
X105739403Y-113357418D01*
G37*
G36*
X107009403Y-113357418D02*
G01*
X107058066Y-113389934D01*
X107090582Y-113438597D01*
X107102000Y-113496000D01*
X107102000Y-115171000D01*
X107090582Y-115228403D01*
X107058066Y-115277066D01*
X107009403Y-115309582D01*
X106952000Y-115321000D01*
X106652000Y-115321000D01*
X106594597Y-115309582D01*
X106545934Y-115277066D01*
X106513418Y-115228403D01*
X106502000Y-115171000D01*
X106502000Y-113496000D01*
X106513418Y-113438597D01*
X106545934Y-113389934D01*
X106594597Y-113357418D01*
X106652000Y-113346000D01*
X106952000Y-113346000D01*
X107009403Y-113357418D01*
G37*
G36*
X108279403Y-113357418D02*
G01*
X108328066Y-113389934D01*
X108360582Y-113438597D01*
X108372000Y-113496000D01*
X108372000Y-115171000D01*
X108360582Y-115228403D01*
X108328066Y-115277066D01*
X108279403Y-115309582D01*
X108222000Y-115321000D01*
X107922000Y-115321000D01*
X107864597Y-115309582D01*
X107815934Y-115277066D01*
X107783418Y-115228403D01*
X107772000Y-115171000D01*
X107772000Y-113496000D01*
X107783418Y-113438597D01*
X107815934Y-113389934D01*
X107864597Y-113357418D01*
X107922000Y-113346000D01*
X108222000Y-113346000D01*
X108279403Y-113357418D01*
G37*
G36*
X109549403Y-113357418D02*
G01*
X109598066Y-113389934D01*
X109630582Y-113438597D01*
X109642000Y-113496000D01*
X109642000Y-115171000D01*
X109630582Y-115228403D01*
X109598066Y-115277066D01*
X109549403Y-115309582D01*
X109492000Y-115321000D01*
X109192000Y-115321000D01*
X109134597Y-115309582D01*
X109085934Y-115277066D01*
X109053418Y-115228403D01*
X109042000Y-115171000D01*
X109042000Y-113496000D01*
X109053418Y-113438597D01*
X109085934Y-113389934D01*
X109134597Y-113357418D01*
X109192000Y-113346000D01*
X109492000Y-113346000D01*
X109549403Y-113357418D01*
G37*
G36*
X110819403Y-113357418D02*
G01*
X110868066Y-113389934D01*
X110900582Y-113438597D01*
X110912000Y-113496000D01*
X110912000Y-115171000D01*
X110900582Y-115228403D01*
X110868066Y-115277066D01*
X110819403Y-115309582D01*
X110762000Y-115321000D01*
X110462000Y-115321000D01*
X110404597Y-115309582D01*
X110355934Y-115277066D01*
X110323418Y-115228403D01*
X110312000Y-115171000D01*
X110312000Y-113496000D01*
X110323418Y-113438597D01*
X110355934Y-113389934D01*
X110404597Y-113357418D01*
X110462000Y-113346000D01*
X110762000Y-113346000D01*
X110819403Y-113357418D01*
G37*
G36*
X112089403Y-113357418D02*
G01*
X112138066Y-113389934D01*
X112170582Y-113438597D01*
X112182000Y-113496000D01*
X112182000Y-115171000D01*
X112170582Y-115228403D01*
X112138066Y-115277066D01*
X112089403Y-115309582D01*
X112032000Y-115321000D01*
X111732000Y-115321000D01*
X111674597Y-115309582D01*
X111625934Y-115277066D01*
X111593418Y-115228403D01*
X111582000Y-115171000D01*
X111582000Y-113496000D01*
X111593418Y-113438597D01*
X111625934Y-113389934D01*
X111674597Y-113357418D01*
X111732000Y-113346000D01*
X112032000Y-113346000D01*
X112089403Y-113357418D01*
G37*
G36*
X113359403Y-113357418D02*
G01*
X113408066Y-113389934D01*
X113440582Y-113438597D01*
X113452000Y-113496000D01*
X113452000Y-115171000D01*
X113440582Y-115228403D01*
X113408066Y-115277066D01*
X113359403Y-115309582D01*
X113302000Y-115321000D01*
X113002000Y-115321000D01*
X112944597Y-115309582D01*
X112895934Y-115277066D01*
X112863418Y-115228403D01*
X112852000Y-115171000D01*
X112852000Y-113496000D01*
X112863418Y-113438597D01*
X112895934Y-113389934D01*
X112944597Y-113357418D01*
X113002000Y-113346000D01*
X113302000Y-113346000D01*
X113359403Y-113357418D01*
G37*
G36*
X114629403Y-113357418D02*
G01*
X114678066Y-113389934D01*
X114710582Y-113438597D01*
X114722000Y-113496000D01*
X114722000Y-115171000D01*
X114710582Y-115228403D01*
X114678066Y-115277066D01*
X114629403Y-115309582D01*
X114572000Y-115321000D01*
X114272000Y-115321000D01*
X114214597Y-115309582D01*
X114165934Y-115277066D01*
X114133418Y-115228403D01*
X114122000Y-115171000D01*
X114122000Y-113496000D01*
X114133418Y-113438597D01*
X114165934Y-113389934D01*
X114214597Y-113357418D01*
X114272000Y-113346000D01*
X114572000Y-113346000D01*
X114629403Y-113357418D01*
G37*
G36*
X141348850Y-113425964D02*
G01*
X141399040Y-113431787D01*
X141416189Y-113439359D01*
X141439671Y-113444030D01*
X141464810Y-113460827D01*
X141484696Y-113469608D01*
X141498277Y-113483189D01*
X141520777Y-113498223D01*
X141535810Y-113520722D01*
X141549391Y-113534303D01*
X141558170Y-113554186D01*
X141574970Y-113579329D01*
X141579641Y-113602812D01*
X141587212Y-113619959D01*
X141593033Y-113670139D01*
X141594000Y-113675000D01*
X141594000Y-114925000D01*
X141593032Y-114929863D01*
X141587212Y-114980040D01*
X141579641Y-114997185D01*
X141574970Y-115020671D01*
X141558169Y-115045815D01*
X141549391Y-115065696D01*
X141535812Y-115079274D01*
X141520777Y-115101777D01*
X141498274Y-115116812D01*
X141484696Y-115130391D01*
X141464815Y-115139169D01*
X141439671Y-115155970D01*
X141416185Y-115160641D01*
X141399040Y-115168212D01*
X141348861Y-115174032D01*
X141344000Y-115175000D01*
X140544000Y-115175000D01*
X140539138Y-115174032D01*
X140488959Y-115168212D01*
X140471812Y-115160641D01*
X140448329Y-115155970D01*
X140423186Y-115139170D01*
X140403303Y-115130391D01*
X140389722Y-115116810D01*
X140367223Y-115101777D01*
X140352189Y-115079277D01*
X140338608Y-115065696D01*
X140329827Y-115045810D01*
X140313030Y-115020671D01*
X140308359Y-114997189D01*
X140300787Y-114980040D01*
X140294964Y-114929849D01*
X140294000Y-114925000D01*
X140294000Y-113675000D01*
X140294964Y-113670150D01*
X140300787Y-113619959D01*
X140308359Y-113602808D01*
X140313030Y-113579329D01*
X140329826Y-113554191D01*
X140338608Y-113534303D01*
X140352191Y-113520719D01*
X140367223Y-113498223D01*
X140389719Y-113483191D01*
X140403303Y-113469608D01*
X140423191Y-113460826D01*
X140448329Y-113444030D01*
X140471808Y-113439359D01*
X140488959Y-113431787D01*
X140539151Y-113425964D01*
X140544000Y-113425000D01*
X141344000Y-113425000D01*
X141348850Y-113425964D01*
G37*
G36*
X144448850Y-113425964D02*
G01*
X144499040Y-113431787D01*
X144516189Y-113439359D01*
X144539671Y-113444030D01*
X144564810Y-113460827D01*
X144584696Y-113469608D01*
X144598277Y-113483189D01*
X144620777Y-113498223D01*
X144635810Y-113520722D01*
X144649391Y-113534303D01*
X144658170Y-113554186D01*
X144674970Y-113579329D01*
X144679641Y-113602812D01*
X144687212Y-113619959D01*
X144693033Y-113670139D01*
X144694000Y-113675000D01*
X144694000Y-114925000D01*
X144693032Y-114929863D01*
X144687212Y-114980040D01*
X144679641Y-114997185D01*
X144674970Y-115020671D01*
X144658169Y-115045815D01*
X144649391Y-115065696D01*
X144635812Y-115079274D01*
X144620777Y-115101777D01*
X144598274Y-115116812D01*
X144584696Y-115130391D01*
X144564815Y-115139169D01*
X144539671Y-115155970D01*
X144516185Y-115160641D01*
X144499040Y-115168212D01*
X144448861Y-115174032D01*
X144444000Y-115175000D01*
X143644000Y-115175000D01*
X143639138Y-115174032D01*
X143588959Y-115168212D01*
X143571812Y-115160641D01*
X143548329Y-115155970D01*
X143523186Y-115139170D01*
X143503303Y-115130391D01*
X143489722Y-115116810D01*
X143467223Y-115101777D01*
X143452189Y-115079277D01*
X143438608Y-115065696D01*
X143429827Y-115045810D01*
X143413030Y-115020671D01*
X143408359Y-114997189D01*
X143400787Y-114980040D01*
X143394964Y-114929849D01*
X143394000Y-114925000D01*
X143394000Y-113675000D01*
X143394964Y-113670150D01*
X143400787Y-113619959D01*
X143408359Y-113602808D01*
X143413030Y-113579329D01*
X143429826Y-113554191D01*
X143438608Y-113534303D01*
X143452191Y-113520719D01*
X143467223Y-113498223D01*
X143489719Y-113483191D01*
X143503303Y-113469608D01*
X143523191Y-113460826D01*
X143548329Y-113444030D01*
X143571808Y-113439359D01*
X143588959Y-113431787D01*
X143639151Y-113425964D01*
X143644000Y-113425000D01*
X144444000Y-113425000D01*
X144448850Y-113425964D01*
G37*
G36*
X148521403Y-114519418D02*
G01*
X148570066Y-114551934D01*
X148602582Y-114600597D01*
X148614000Y-114658000D01*
X148614000Y-114958000D01*
X148602582Y-115015403D01*
X148570066Y-115064066D01*
X148521403Y-115096582D01*
X148464000Y-115108000D01*
X146814000Y-115108000D01*
X146756597Y-115096582D01*
X146707934Y-115064066D01*
X146675418Y-115015403D01*
X146664000Y-114958000D01*
X146664000Y-114658000D01*
X146675418Y-114600597D01*
X146707934Y-114551934D01*
X146756597Y-114519418D01*
X146814000Y-114508000D01*
X148464000Y-114508000D01*
X148521403Y-114519418D01*
G37*
G36*
X153471403Y-114519418D02*
G01*
X153520066Y-114551934D01*
X153552582Y-114600597D01*
X153564000Y-114658000D01*
X153564000Y-114958000D01*
X153552582Y-115015403D01*
X153520066Y-115064066D01*
X153471403Y-115096582D01*
X153414000Y-115108000D01*
X151764000Y-115108000D01*
X151706597Y-115096582D01*
X151657934Y-115064066D01*
X151625418Y-115015403D01*
X151614000Y-114958000D01*
X151614000Y-114658000D01*
X151625418Y-114600597D01*
X151657934Y-114551934D01*
X151706597Y-114519418D01*
X151764000Y-114508000D01*
X153414000Y-114508000D01*
X153471403Y-114519418D01*
G37*
G36*
X157030403Y-114519418D02*
G01*
X157079066Y-114551934D01*
X157111582Y-114600597D01*
X157123000Y-114658000D01*
X157123000Y-114958000D01*
X157111582Y-115015403D01*
X157079066Y-115064066D01*
X157030403Y-115096582D01*
X156973000Y-115108000D01*
X155323000Y-115108000D01*
X155265597Y-115096582D01*
X155216934Y-115064066D01*
X155184418Y-115015403D01*
X155173000Y-114958000D01*
X155173000Y-114658000D01*
X155184418Y-114600597D01*
X155216934Y-114551934D01*
X155265597Y-114519418D01*
X155323000Y-114508000D01*
X156973000Y-114508000D01*
X157030403Y-114519418D01*
G37*
G36*
X161980403Y-114519418D02*
G01*
X162029066Y-114551934D01*
X162061582Y-114600597D01*
X162073000Y-114658000D01*
X162073000Y-114958000D01*
X162061582Y-115015403D01*
X162029066Y-115064066D01*
X161980403Y-115096582D01*
X161923000Y-115108000D01*
X160273000Y-115108000D01*
X160215597Y-115096582D01*
X160166934Y-115064066D01*
X160134418Y-115015403D01*
X160123000Y-114958000D01*
X160123000Y-114658000D01*
X160134418Y-114600597D01*
X160166934Y-114551934D01*
X160215597Y-114519418D01*
X160273000Y-114508000D01*
X161923000Y-114508000D01*
X161980403Y-114519418D01*
G37*
G36*
X139229000Y-114700000D02*
G01*
X137329000Y-114700000D01*
X137329000Y-113900000D01*
X139229000Y-113900000D01*
X139229000Y-114700000D01*
G37*
G36*
X192442000Y-114634000D02*
G01*
X190542000Y-114634000D01*
X190542000Y-113834000D01*
X192442000Y-113834000D01*
X192442000Y-114634000D01*
G37*
G36*
X183904664Y-112460602D02*
G01*
X184067000Y-112532878D01*
X184210761Y-112637327D01*
X184329664Y-112769383D01*
X184418514Y-112923274D01*
X184473425Y-113092275D01*
X184492000Y-113269000D01*
X184473425Y-113445725D01*
X184418514Y-113614726D01*
X184329664Y-113768617D01*
X184210761Y-113900673D01*
X184067000Y-114005122D01*
X183904664Y-114077398D01*
X183730849Y-114114344D01*
X183553151Y-114114344D01*
X183379336Y-114077398D01*
X183217000Y-114005122D01*
X183073239Y-113900673D01*
X182954336Y-113768617D01*
X182865486Y-113614726D01*
X182810575Y-113445725D01*
X182792000Y-113269000D01*
X182810575Y-113092275D01*
X182865486Y-112923274D01*
X182954336Y-112769383D01*
X183073239Y-112637327D01*
X183217000Y-112532878D01*
X183379336Y-112460602D01*
X183553151Y-112423656D01*
X183730849Y-112423656D01*
X183904664Y-112460602D01*
G37*
G36*
X148521403Y-113249418D02*
G01*
X148570066Y-113281934D01*
X148602582Y-113330597D01*
X148614000Y-113388000D01*
X148614000Y-113688000D01*
X148602582Y-113745403D01*
X148570066Y-113794066D01*
X148521403Y-113826582D01*
X148464000Y-113838000D01*
X146814000Y-113838000D01*
X146756597Y-113826582D01*
X146707934Y-113794066D01*
X146675418Y-113745403D01*
X146664000Y-113688000D01*
X146664000Y-113388000D01*
X146675418Y-113330597D01*
X146707934Y-113281934D01*
X146756597Y-113249418D01*
X146814000Y-113238000D01*
X148464000Y-113238000D01*
X148521403Y-113249418D01*
G37*
G36*
X153471403Y-113249418D02*
G01*
X153520066Y-113281934D01*
X153552582Y-113330597D01*
X153564000Y-113388000D01*
X153564000Y-113688000D01*
X153552582Y-113745403D01*
X153520066Y-113794066D01*
X153471403Y-113826582D01*
X153414000Y-113838000D01*
X151764000Y-113838000D01*
X151706597Y-113826582D01*
X151657934Y-113794066D01*
X151625418Y-113745403D01*
X151614000Y-113688000D01*
X151614000Y-113388000D01*
X151625418Y-113330597D01*
X151657934Y-113281934D01*
X151706597Y-113249418D01*
X151764000Y-113238000D01*
X153414000Y-113238000D01*
X153471403Y-113249418D01*
G37*
G36*
X157030403Y-113249418D02*
G01*
X157079066Y-113281934D01*
X157111582Y-113330597D01*
X157123000Y-113388000D01*
X157123000Y-113688000D01*
X157111582Y-113745403D01*
X157079066Y-113794066D01*
X157030403Y-113826582D01*
X156973000Y-113838000D01*
X155323000Y-113838000D01*
X155265597Y-113826582D01*
X155216934Y-113794066D01*
X155184418Y-113745403D01*
X155173000Y-113688000D01*
X155173000Y-113388000D01*
X155184418Y-113330597D01*
X155216934Y-113281934D01*
X155265597Y-113249418D01*
X155323000Y-113238000D01*
X156973000Y-113238000D01*
X157030403Y-113249418D01*
G37*
G36*
X161980403Y-113249418D02*
G01*
X162029066Y-113281934D01*
X162061582Y-113330597D01*
X162073000Y-113388000D01*
X162073000Y-113688000D01*
X162061582Y-113745403D01*
X162029066Y-113794066D01*
X161980403Y-113826582D01*
X161923000Y-113838000D01*
X160273000Y-113838000D01*
X160215597Y-113826582D01*
X160166934Y-113794066D01*
X160134418Y-113745403D01*
X160123000Y-113688000D01*
X160123000Y-113388000D01*
X160134418Y-113330597D01*
X160166934Y-113281934D01*
X160215597Y-113249418D01*
X160273000Y-113238000D01*
X161923000Y-113238000D01*
X161980403Y-113249418D01*
G37*
G36*
X136229000Y-113750000D02*
G01*
X134329000Y-113750000D01*
X134329000Y-112950000D01*
X136229000Y-112950000D01*
X136229000Y-113750000D01*
G37*
G36*
X189442000Y-113684000D02*
G01*
X187542000Y-113684000D01*
X187542000Y-112884000D01*
X189442000Y-112884000D01*
X189442000Y-113684000D01*
G37*
G36*
X165307403Y-111512418D02*
G01*
X165356066Y-111544934D01*
X165388582Y-111593597D01*
X165400000Y-111651000D01*
X165400000Y-113326000D01*
X165388582Y-113383403D01*
X165356066Y-113432066D01*
X165307403Y-113464582D01*
X165250000Y-113476000D01*
X164950000Y-113476000D01*
X164892597Y-113464582D01*
X164843934Y-113432066D01*
X164811418Y-113383403D01*
X164800000Y-113326000D01*
X164800000Y-111651000D01*
X164811418Y-111593597D01*
X164843934Y-111544934D01*
X164892597Y-111512418D01*
X164950000Y-111501000D01*
X165250000Y-111501000D01*
X165307403Y-111512418D01*
G37*
G36*
X166577403Y-111512418D02*
G01*
X166626066Y-111544934D01*
X166658582Y-111593597D01*
X166670000Y-111651000D01*
X166670000Y-113326000D01*
X166658582Y-113383403D01*
X166626066Y-113432066D01*
X166577403Y-113464582D01*
X166520000Y-113476000D01*
X166220000Y-113476000D01*
X166162597Y-113464582D01*
X166113934Y-113432066D01*
X166081418Y-113383403D01*
X166070000Y-113326000D01*
X166070000Y-111651000D01*
X166081418Y-111593597D01*
X166113934Y-111544934D01*
X166162597Y-111512418D01*
X166220000Y-111501000D01*
X166520000Y-111501000D01*
X166577403Y-111512418D01*
G37*
G36*
X167847403Y-111512418D02*
G01*
X167896066Y-111544934D01*
X167928582Y-111593597D01*
X167940000Y-111651000D01*
X167940000Y-113326000D01*
X167928582Y-113383403D01*
X167896066Y-113432066D01*
X167847403Y-113464582D01*
X167790000Y-113476000D01*
X167490000Y-113476000D01*
X167432597Y-113464582D01*
X167383934Y-113432066D01*
X167351418Y-113383403D01*
X167340000Y-113326000D01*
X167340000Y-111651000D01*
X167351418Y-111593597D01*
X167383934Y-111544934D01*
X167432597Y-111512418D01*
X167490000Y-111501000D01*
X167790000Y-111501000D01*
X167847403Y-111512418D01*
G37*
G36*
X169117403Y-111512418D02*
G01*
X169166066Y-111544934D01*
X169198582Y-111593597D01*
X169210000Y-111651000D01*
X169210000Y-113326000D01*
X169198582Y-113383403D01*
X169166066Y-113432066D01*
X169117403Y-113464582D01*
X169060000Y-113476000D01*
X168760000Y-113476000D01*
X168702597Y-113464582D01*
X168653934Y-113432066D01*
X168621418Y-113383403D01*
X168610000Y-113326000D01*
X168610000Y-111651000D01*
X168621418Y-111593597D01*
X168653934Y-111544934D01*
X168702597Y-111512418D01*
X168760000Y-111501000D01*
X169060000Y-111501000D01*
X169117403Y-111512418D01*
G37*
G36*
X170387403Y-111512418D02*
G01*
X170436066Y-111544934D01*
X170468582Y-111593597D01*
X170480000Y-111651000D01*
X170480000Y-113326000D01*
X170468582Y-113383403D01*
X170436066Y-113432066D01*
X170387403Y-113464582D01*
X170330000Y-113476000D01*
X170030000Y-113476000D01*
X169972597Y-113464582D01*
X169923934Y-113432066D01*
X169891418Y-113383403D01*
X169880000Y-113326000D01*
X169880000Y-111651000D01*
X169891418Y-111593597D01*
X169923934Y-111544934D01*
X169972597Y-111512418D01*
X170030000Y-111501000D01*
X170330000Y-111501000D01*
X170387403Y-111512418D01*
G37*
G36*
X171657403Y-111512418D02*
G01*
X171706066Y-111544934D01*
X171738582Y-111593597D01*
X171750000Y-111651000D01*
X171750000Y-113326000D01*
X171738582Y-113383403D01*
X171706066Y-113432066D01*
X171657403Y-113464582D01*
X171600000Y-113476000D01*
X171300000Y-113476000D01*
X171242597Y-113464582D01*
X171193934Y-113432066D01*
X171161418Y-113383403D01*
X171150000Y-113326000D01*
X171150000Y-111651000D01*
X171161418Y-111593597D01*
X171193934Y-111544934D01*
X171242597Y-111512418D01*
X171300000Y-111501000D01*
X171600000Y-111501000D01*
X171657403Y-111512418D01*
G37*
G36*
X172927403Y-111512418D02*
G01*
X172976066Y-111544934D01*
X173008582Y-111593597D01*
X173020000Y-111651000D01*
X173020000Y-113326000D01*
X173008582Y-113383403D01*
X172976066Y-113432066D01*
X172927403Y-113464582D01*
X172870000Y-113476000D01*
X172570000Y-113476000D01*
X172512597Y-113464582D01*
X172463934Y-113432066D01*
X172431418Y-113383403D01*
X172420000Y-113326000D01*
X172420000Y-111651000D01*
X172431418Y-111593597D01*
X172463934Y-111544934D01*
X172512597Y-111512418D01*
X172570000Y-111501000D01*
X172870000Y-111501000D01*
X172927403Y-111512418D01*
G37*
G36*
X174197403Y-111512418D02*
G01*
X174246066Y-111544934D01*
X174278582Y-111593597D01*
X174290000Y-111651000D01*
X174290000Y-113326000D01*
X174278582Y-113383403D01*
X174246066Y-113432066D01*
X174197403Y-113464582D01*
X174140000Y-113476000D01*
X173840000Y-113476000D01*
X173782597Y-113464582D01*
X173733934Y-113432066D01*
X173701418Y-113383403D01*
X173690000Y-113326000D01*
X173690000Y-111651000D01*
X173701418Y-111593597D01*
X173733934Y-111544934D01*
X173782597Y-111512418D01*
X173840000Y-111501000D01*
X174140000Y-111501000D01*
X174197403Y-111512418D01*
G37*
G36*
X175467403Y-111512418D02*
G01*
X175516066Y-111544934D01*
X175548582Y-111593597D01*
X175560000Y-111651000D01*
X175560000Y-113326000D01*
X175548582Y-113383403D01*
X175516066Y-113432066D01*
X175467403Y-113464582D01*
X175410000Y-113476000D01*
X175110000Y-113476000D01*
X175052597Y-113464582D01*
X175003934Y-113432066D01*
X174971418Y-113383403D01*
X174960000Y-113326000D01*
X174960000Y-111651000D01*
X174971418Y-111593597D01*
X175003934Y-111544934D01*
X175052597Y-111512418D01*
X175110000Y-111501000D01*
X175410000Y-111501000D01*
X175467403Y-111512418D01*
G37*
G36*
X176737403Y-111512418D02*
G01*
X176786066Y-111544934D01*
X176818582Y-111593597D01*
X176830000Y-111651000D01*
X176830000Y-113326000D01*
X176818582Y-113383403D01*
X176786066Y-113432066D01*
X176737403Y-113464582D01*
X176680000Y-113476000D01*
X176380000Y-113476000D01*
X176322597Y-113464582D01*
X176273934Y-113432066D01*
X176241418Y-113383403D01*
X176230000Y-113326000D01*
X176230000Y-111651000D01*
X176241418Y-111593597D01*
X176273934Y-111544934D01*
X176322597Y-111512418D01*
X176380000Y-111501000D01*
X176680000Y-111501000D01*
X176737403Y-111512418D01*
G37*
G36*
X117210850Y-111898964D02*
G01*
X117261040Y-111904787D01*
X117278189Y-111912359D01*
X117301671Y-111917030D01*
X117326810Y-111933827D01*
X117346696Y-111942608D01*
X117360277Y-111956189D01*
X117382777Y-111971223D01*
X117397810Y-111993722D01*
X117411391Y-112007303D01*
X117420170Y-112027186D01*
X117436970Y-112052329D01*
X117441641Y-112075812D01*
X117449212Y-112092959D01*
X117455033Y-112143139D01*
X117456000Y-112148000D01*
X117456000Y-112948000D01*
X117455032Y-112952863D01*
X117449212Y-113003040D01*
X117441641Y-113020185D01*
X117436970Y-113043671D01*
X117420169Y-113068815D01*
X117411391Y-113088696D01*
X117397812Y-113102274D01*
X117382777Y-113124777D01*
X117360274Y-113139812D01*
X117346696Y-113153391D01*
X117326815Y-113162169D01*
X117301671Y-113178970D01*
X117278185Y-113183641D01*
X117261040Y-113191212D01*
X117210861Y-113197032D01*
X117206000Y-113198000D01*
X115956000Y-113198000D01*
X115951138Y-113197032D01*
X115900959Y-113191212D01*
X115883812Y-113183641D01*
X115860329Y-113178970D01*
X115835186Y-113162170D01*
X115815303Y-113153391D01*
X115801722Y-113139810D01*
X115779223Y-113124777D01*
X115764189Y-113102277D01*
X115750608Y-113088696D01*
X115741827Y-113068810D01*
X115725030Y-113043671D01*
X115720359Y-113020189D01*
X115712787Y-113003040D01*
X115706964Y-112952849D01*
X115706000Y-112948000D01*
X115706000Y-112148000D01*
X115706964Y-112143150D01*
X115712787Y-112092959D01*
X115720359Y-112075808D01*
X115725030Y-112052329D01*
X115741826Y-112027191D01*
X115750608Y-112007303D01*
X115764191Y-111993719D01*
X115779223Y-111971223D01*
X115801719Y-111956191D01*
X115815303Y-111942608D01*
X115835191Y-111933826D01*
X115860329Y-111917030D01*
X115883808Y-111912359D01*
X115900959Y-111904787D01*
X115951151Y-111898964D01*
X115956000Y-111898000D01*
X117206000Y-111898000D01*
X117210850Y-111898964D01*
G37*
G36*
X192442000Y-112734000D02*
G01*
X190542000Y-112734000D01*
X190542000Y-111934000D01*
X192442000Y-111934000D01*
X192442000Y-112734000D01*
G37*
G36*
X148521403Y-111979418D02*
G01*
X148570066Y-112011934D01*
X148602582Y-112060597D01*
X148614000Y-112118000D01*
X148614000Y-112418000D01*
X148602582Y-112475403D01*
X148570066Y-112524066D01*
X148521403Y-112556582D01*
X148464000Y-112568000D01*
X146814000Y-112568000D01*
X146756597Y-112556582D01*
X146707934Y-112524066D01*
X146675418Y-112475403D01*
X146664000Y-112418000D01*
X146664000Y-112118000D01*
X146675418Y-112060597D01*
X146707934Y-112011934D01*
X146756597Y-111979418D01*
X146814000Y-111968000D01*
X148464000Y-111968000D01*
X148521403Y-111979418D01*
G37*
G36*
X153471403Y-111979418D02*
G01*
X153520066Y-112011934D01*
X153552582Y-112060597D01*
X153564000Y-112118000D01*
X153564000Y-112418000D01*
X153552582Y-112475403D01*
X153520066Y-112524066D01*
X153471403Y-112556582D01*
X153414000Y-112568000D01*
X151764000Y-112568000D01*
X151706597Y-112556582D01*
X151657934Y-112524066D01*
X151625418Y-112475403D01*
X151614000Y-112418000D01*
X151614000Y-112118000D01*
X151625418Y-112060597D01*
X151657934Y-112011934D01*
X151706597Y-111979418D01*
X151764000Y-111968000D01*
X153414000Y-111968000D01*
X153471403Y-111979418D01*
G37*
G36*
X157030403Y-111979418D02*
G01*
X157079066Y-112011934D01*
X157111582Y-112060597D01*
X157123000Y-112118000D01*
X157123000Y-112418000D01*
X157111582Y-112475403D01*
X157079066Y-112524066D01*
X157030403Y-112556582D01*
X156973000Y-112568000D01*
X155323000Y-112568000D01*
X155265597Y-112556582D01*
X155216934Y-112524066D01*
X155184418Y-112475403D01*
X155173000Y-112418000D01*
X155173000Y-112118000D01*
X155184418Y-112060597D01*
X155216934Y-112011934D01*
X155265597Y-111979418D01*
X155323000Y-111968000D01*
X156973000Y-111968000D01*
X157030403Y-111979418D01*
G37*
G36*
X161980403Y-111979418D02*
G01*
X162029066Y-112011934D01*
X162061582Y-112060597D01*
X162073000Y-112118000D01*
X162073000Y-112418000D01*
X162061582Y-112475403D01*
X162029066Y-112524066D01*
X161980403Y-112556582D01*
X161923000Y-112568000D01*
X160273000Y-112568000D01*
X160215597Y-112556582D01*
X160166934Y-112524066D01*
X160134418Y-112475403D01*
X160123000Y-112418000D01*
X160123000Y-112118000D01*
X160134418Y-112060597D01*
X160166934Y-112011934D01*
X160215597Y-111979418D01*
X160273000Y-111968000D01*
X161923000Y-111968000D01*
X161980403Y-111979418D01*
G37*
G36*
X117210850Y-108798964D02*
G01*
X117261040Y-108804787D01*
X117278189Y-108812359D01*
X117301671Y-108817030D01*
X117326810Y-108833827D01*
X117346696Y-108842608D01*
X117360277Y-108856189D01*
X117382777Y-108871223D01*
X117397810Y-108893722D01*
X117411391Y-108907303D01*
X117420170Y-108927186D01*
X117436970Y-108952329D01*
X117441641Y-108975812D01*
X117449212Y-108992959D01*
X117455033Y-109043139D01*
X117456000Y-109048000D01*
X117456000Y-109848000D01*
X117455032Y-109852863D01*
X117449212Y-109903040D01*
X117441641Y-109920185D01*
X117436970Y-109943671D01*
X117420169Y-109968815D01*
X117411391Y-109988696D01*
X117397812Y-110002274D01*
X117382777Y-110024777D01*
X117360274Y-110039812D01*
X117346696Y-110053391D01*
X117326815Y-110062169D01*
X117301671Y-110078970D01*
X117278185Y-110083641D01*
X117261040Y-110091212D01*
X117210861Y-110097032D01*
X117206000Y-110098000D01*
X115956000Y-110098000D01*
X115951138Y-110097032D01*
X115900959Y-110091212D01*
X115883812Y-110083641D01*
X115860329Y-110078970D01*
X115835186Y-110062170D01*
X115815303Y-110053391D01*
X115801722Y-110039810D01*
X115779223Y-110024777D01*
X115764189Y-110002277D01*
X115750608Y-109988696D01*
X115741827Y-109968810D01*
X115725030Y-109943671D01*
X115720359Y-109920189D01*
X115712787Y-109903040D01*
X115706964Y-109852849D01*
X115706000Y-109848000D01*
X115706000Y-109048000D01*
X115706964Y-109043150D01*
X115712787Y-108992959D01*
X115720359Y-108975808D01*
X115725030Y-108952329D01*
X115741826Y-108927191D01*
X115750608Y-108907303D01*
X115764191Y-108893719D01*
X115779223Y-108871223D01*
X115801719Y-108856191D01*
X115815303Y-108842608D01*
X115835191Y-108833826D01*
X115860329Y-108817030D01*
X115883808Y-108812359D01*
X115900959Y-108804787D01*
X115951151Y-108798964D01*
X115956000Y-108798000D01*
X117206000Y-108798000D01*
X117210850Y-108798964D01*
G37*
G36*
X103199403Y-106432418D02*
G01*
X103248066Y-106464934D01*
X103280582Y-106513597D01*
X103292000Y-106571000D01*
X103292000Y-108246000D01*
X103280582Y-108303403D01*
X103248066Y-108352066D01*
X103199403Y-108384582D01*
X103142000Y-108396000D01*
X102842000Y-108396000D01*
X102784597Y-108384582D01*
X102735934Y-108352066D01*
X102703418Y-108303403D01*
X102692000Y-108246000D01*
X102692000Y-106571000D01*
X102703418Y-106513597D01*
X102735934Y-106464934D01*
X102784597Y-106432418D01*
X102842000Y-106421000D01*
X103142000Y-106421000D01*
X103199403Y-106432418D01*
G37*
G36*
X104469403Y-106432418D02*
G01*
X104518066Y-106464934D01*
X104550582Y-106513597D01*
X104562000Y-106571000D01*
X104562000Y-108246000D01*
X104550582Y-108303403D01*
X104518066Y-108352066D01*
X104469403Y-108384582D01*
X104412000Y-108396000D01*
X104112000Y-108396000D01*
X104054597Y-108384582D01*
X104005934Y-108352066D01*
X103973418Y-108303403D01*
X103962000Y-108246000D01*
X103962000Y-106571000D01*
X103973418Y-106513597D01*
X104005934Y-106464934D01*
X104054597Y-106432418D01*
X104112000Y-106421000D01*
X104412000Y-106421000D01*
X104469403Y-106432418D01*
G37*
G36*
X105739403Y-106432418D02*
G01*
X105788066Y-106464934D01*
X105820582Y-106513597D01*
X105832000Y-106571000D01*
X105832000Y-108246000D01*
X105820582Y-108303403D01*
X105788066Y-108352066D01*
X105739403Y-108384582D01*
X105682000Y-108396000D01*
X105382000Y-108396000D01*
X105324597Y-108384582D01*
X105275934Y-108352066D01*
X105243418Y-108303403D01*
X105232000Y-108246000D01*
X105232000Y-106571000D01*
X105243418Y-106513597D01*
X105275934Y-106464934D01*
X105324597Y-106432418D01*
X105382000Y-106421000D01*
X105682000Y-106421000D01*
X105739403Y-106432418D01*
G37*
G36*
X107009403Y-106432418D02*
G01*
X107058066Y-106464934D01*
X107090582Y-106513597D01*
X107102000Y-106571000D01*
X107102000Y-108246000D01*
X107090582Y-108303403D01*
X107058066Y-108352066D01*
X107009403Y-108384582D01*
X106952000Y-108396000D01*
X106652000Y-108396000D01*
X106594597Y-108384582D01*
X106545934Y-108352066D01*
X106513418Y-108303403D01*
X106502000Y-108246000D01*
X106502000Y-106571000D01*
X106513418Y-106513597D01*
X106545934Y-106464934D01*
X106594597Y-106432418D01*
X106652000Y-106421000D01*
X106952000Y-106421000D01*
X107009403Y-106432418D01*
G37*
G36*
X108279403Y-106432418D02*
G01*
X108328066Y-106464934D01*
X108360582Y-106513597D01*
X108372000Y-106571000D01*
X108372000Y-108246000D01*
X108360582Y-108303403D01*
X108328066Y-108352066D01*
X108279403Y-108384582D01*
X108222000Y-108396000D01*
X107922000Y-108396000D01*
X107864597Y-108384582D01*
X107815934Y-108352066D01*
X107783418Y-108303403D01*
X107772000Y-108246000D01*
X107772000Y-106571000D01*
X107783418Y-106513597D01*
X107815934Y-106464934D01*
X107864597Y-106432418D01*
X107922000Y-106421000D01*
X108222000Y-106421000D01*
X108279403Y-106432418D01*
G37*
G36*
X109549403Y-106432418D02*
G01*
X109598066Y-106464934D01*
X109630582Y-106513597D01*
X109642000Y-106571000D01*
X109642000Y-108246000D01*
X109630582Y-108303403D01*
X109598066Y-108352066D01*
X109549403Y-108384582D01*
X109492000Y-108396000D01*
X109192000Y-108396000D01*
X109134597Y-108384582D01*
X109085934Y-108352066D01*
X109053418Y-108303403D01*
X109042000Y-108246000D01*
X109042000Y-106571000D01*
X109053418Y-106513597D01*
X109085934Y-106464934D01*
X109134597Y-106432418D01*
X109192000Y-106421000D01*
X109492000Y-106421000D01*
X109549403Y-106432418D01*
G37*
G36*
X110819403Y-106432418D02*
G01*
X110868066Y-106464934D01*
X110900582Y-106513597D01*
X110912000Y-106571000D01*
X110912000Y-108246000D01*
X110900582Y-108303403D01*
X110868066Y-108352066D01*
X110819403Y-108384582D01*
X110762000Y-108396000D01*
X110462000Y-108396000D01*
X110404597Y-108384582D01*
X110355934Y-108352066D01*
X110323418Y-108303403D01*
X110312000Y-108246000D01*
X110312000Y-106571000D01*
X110323418Y-106513597D01*
X110355934Y-106464934D01*
X110404597Y-106432418D01*
X110462000Y-106421000D01*
X110762000Y-106421000D01*
X110819403Y-106432418D01*
G37*
G36*
X112089403Y-106432418D02*
G01*
X112138066Y-106464934D01*
X112170582Y-106513597D01*
X112182000Y-106571000D01*
X112182000Y-108246000D01*
X112170582Y-108303403D01*
X112138066Y-108352066D01*
X112089403Y-108384582D01*
X112032000Y-108396000D01*
X111732000Y-108396000D01*
X111674597Y-108384582D01*
X111625934Y-108352066D01*
X111593418Y-108303403D01*
X111582000Y-108246000D01*
X111582000Y-106571000D01*
X111593418Y-106513597D01*
X111625934Y-106464934D01*
X111674597Y-106432418D01*
X111732000Y-106421000D01*
X112032000Y-106421000D01*
X112089403Y-106432418D01*
G37*
G36*
X113359403Y-106432418D02*
G01*
X113408066Y-106464934D01*
X113440582Y-106513597D01*
X113452000Y-106571000D01*
X113452000Y-108246000D01*
X113440582Y-108303403D01*
X113408066Y-108352066D01*
X113359403Y-108384582D01*
X113302000Y-108396000D01*
X113002000Y-108396000D01*
X112944597Y-108384582D01*
X112895934Y-108352066D01*
X112863418Y-108303403D01*
X112852000Y-108246000D01*
X112852000Y-106571000D01*
X112863418Y-106513597D01*
X112895934Y-106464934D01*
X112944597Y-106432418D01*
X113002000Y-106421000D01*
X113302000Y-106421000D01*
X113359403Y-106432418D01*
G37*
G36*
X114629403Y-106432418D02*
G01*
X114678066Y-106464934D01*
X114710582Y-106513597D01*
X114722000Y-106571000D01*
X114722000Y-108246000D01*
X114710582Y-108303403D01*
X114678066Y-108352066D01*
X114629403Y-108384582D01*
X114572000Y-108396000D01*
X114272000Y-108396000D01*
X114214597Y-108384582D01*
X114165934Y-108352066D01*
X114133418Y-108303403D01*
X114122000Y-108246000D01*
X114122000Y-106571000D01*
X114133418Y-106513597D01*
X114165934Y-106464934D01*
X114214597Y-106432418D01*
X114272000Y-106421000D01*
X114572000Y-106421000D01*
X114629403Y-106432418D01*
G37*
G36*
X150202000Y-106536000D02*
G01*
X148502000Y-106536000D01*
X148502000Y-103036000D01*
X150202000Y-103036000D01*
X150202000Y-106536000D01*
G37*
G36*
X152742000Y-106536000D02*
G01*
X151042000Y-106536000D01*
X151042000Y-103036000D01*
X152742000Y-103036000D01*
X152742000Y-106536000D01*
G37*
G36*
X155282000Y-106536000D02*
G01*
X153582000Y-106536000D01*
X153582000Y-103036000D01*
X155282000Y-103036000D01*
X155282000Y-106536000D01*
G37*
G36*
X157822000Y-106536000D02*
G01*
X156122000Y-106536000D01*
X156122000Y-103036000D01*
X157822000Y-103036000D01*
X157822000Y-106536000D01*
G37*
G36*
X160362000Y-106536000D02*
G01*
X158662000Y-106536000D01*
X158662000Y-103036000D01*
X160362000Y-103036000D01*
X160362000Y-106536000D01*
G37*
G36*
X162902000Y-106536000D02*
G01*
X161202000Y-106536000D01*
X161202000Y-103036000D01*
X162902000Y-103036000D01*
X162902000Y-106536000D01*
G37*
G36*
X165442000Y-106536000D02*
G01*
X163742000Y-106536000D01*
X163742000Y-103036000D01*
X165442000Y-103036000D01*
X165442000Y-106536000D01*
G37*
G36*
X167982000Y-106536000D02*
G01*
X166282000Y-106536000D01*
X166282000Y-103036000D01*
X167982000Y-103036000D01*
X167982000Y-106536000D01*
G37*
G36*
X170522000Y-106536000D02*
G01*
X168822000Y-106536000D01*
X168822000Y-103036000D01*
X170522000Y-103036000D01*
X170522000Y-106536000D01*
G37*
G36*
X173062000Y-106536000D02*
G01*
X171362000Y-106536000D01*
X171362000Y-103036000D01*
X173062000Y-103036000D01*
X173062000Y-106536000D01*
G37*
G36*
X175602000Y-106536000D02*
G01*
X173902000Y-106536000D01*
X173902000Y-103036000D01*
X175602000Y-103036000D01*
X175602000Y-106536000D01*
G37*
G36*
X178142000Y-106536000D02*
G01*
X176442000Y-106536000D01*
X176442000Y-103036000D01*
X178142000Y-103036000D01*
X178142000Y-106536000D01*
G37*
G36*
X180682000Y-106536000D02*
G01*
X178982000Y-106536000D01*
X178982000Y-103036000D01*
X180682000Y-103036000D01*
X180682000Y-106536000D01*
G37*
G36*
X183222000Y-106536000D02*
G01*
X181522000Y-106536000D01*
X181522000Y-103036000D01*
X183222000Y-103036000D01*
X183222000Y-106536000D01*
G37*
G36*
X185762000Y-106536000D02*
G01*
X184062000Y-106536000D01*
X184062000Y-103036000D01*
X185762000Y-103036000D01*
X185762000Y-106536000D01*
G37*
G36*
X188302000Y-106536000D02*
G01*
X186602000Y-106536000D01*
X186602000Y-103036000D01*
X188302000Y-103036000D01*
X188302000Y-106536000D01*
G37*
G36*
X190842000Y-106536000D02*
G01*
X189142000Y-106536000D01*
X189142000Y-103036000D01*
X190842000Y-103036000D01*
X190842000Y-106536000D01*
G37*
G36*
X193382000Y-106536000D02*
G01*
X191682000Y-106536000D01*
X191682000Y-103036000D01*
X193382000Y-103036000D01*
X193382000Y-106536000D01*
G37*
G36*
X195922000Y-106536000D02*
G01*
X194222000Y-106536000D01*
X194222000Y-103036000D01*
X195922000Y-103036000D01*
X195922000Y-106536000D01*
G37*
G36*
X198462000Y-106536000D02*
G01*
X196762000Y-106536000D01*
X196762000Y-103036000D01*
X198462000Y-103036000D01*
X198462000Y-106536000D01*
G37*
G36*
X103199403Y-101419418D02*
G01*
X103248066Y-101451934D01*
X103280582Y-101500597D01*
X103292000Y-101558000D01*
X103292000Y-103233000D01*
X103280582Y-103290403D01*
X103248066Y-103339066D01*
X103199403Y-103371582D01*
X103142000Y-103383000D01*
X102842000Y-103383000D01*
X102784597Y-103371582D01*
X102735934Y-103339066D01*
X102703418Y-103290403D01*
X102692000Y-103233000D01*
X102692000Y-101558000D01*
X102703418Y-101500597D01*
X102735934Y-101451934D01*
X102784597Y-101419418D01*
X102842000Y-101408000D01*
X103142000Y-101408000D01*
X103199403Y-101419418D01*
G37*
G36*
X104469403Y-101419418D02*
G01*
X104518066Y-101451934D01*
X104550582Y-101500597D01*
X104562000Y-101558000D01*
X104562000Y-103233000D01*
X104550582Y-103290403D01*
X104518066Y-103339066D01*
X104469403Y-103371582D01*
X104412000Y-103383000D01*
X104112000Y-103383000D01*
X104054597Y-103371582D01*
X104005934Y-103339066D01*
X103973418Y-103290403D01*
X103962000Y-103233000D01*
X103962000Y-101558000D01*
X103973418Y-101500597D01*
X104005934Y-101451934D01*
X104054597Y-101419418D01*
X104112000Y-101408000D01*
X104412000Y-101408000D01*
X104469403Y-101419418D01*
G37*
G36*
X105739403Y-101419418D02*
G01*
X105788066Y-101451934D01*
X105820582Y-101500597D01*
X105832000Y-101558000D01*
X105832000Y-103233000D01*
X105820582Y-103290403D01*
X105788066Y-103339066D01*
X105739403Y-103371582D01*
X105682000Y-103383000D01*
X105382000Y-103383000D01*
X105324597Y-103371582D01*
X105275934Y-103339066D01*
X105243418Y-103290403D01*
X105232000Y-103233000D01*
X105232000Y-101558000D01*
X105243418Y-101500597D01*
X105275934Y-101451934D01*
X105324597Y-101419418D01*
X105382000Y-101408000D01*
X105682000Y-101408000D01*
X105739403Y-101419418D01*
G37*
G36*
X107009403Y-101419418D02*
G01*
X107058066Y-101451934D01*
X107090582Y-101500597D01*
X107102000Y-101558000D01*
X107102000Y-103233000D01*
X107090582Y-103290403D01*
X107058066Y-103339066D01*
X107009403Y-103371582D01*
X106952000Y-103383000D01*
X106652000Y-103383000D01*
X106594597Y-103371582D01*
X106545934Y-103339066D01*
X106513418Y-103290403D01*
X106502000Y-103233000D01*
X106502000Y-101558000D01*
X106513418Y-101500597D01*
X106545934Y-101451934D01*
X106594597Y-101419418D01*
X106652000Y-101408000D01*
X106952000Y-101408000D01*
X107009403Y-101419418D01*
G37*
G36*
X108279403Y-101419418D02*
G01*
X108328066Y-101451934D01*
X108360582Y-101500597D01*
X108372000Y-101558000D01*
X108372000Y-103233000D01*
X108360582Y-103290403D01*
X108328066Y-103339066D01*
X108279403Y-103371582D01*
X108222000Y-103383000D01*
X107922000Y-103383000D01*
X107864597Y-103371582D01*
X107815934Y-103339066D01*
X107783418Y-103290403D01*
X107772000Y-103233000D01*
X107772000Y-101558000D01*
X107783418Y-101500597D01*
X107815934Y-101451934D01*
X107864597Y-101419418D01*
X107922000Y-101408000D01*
X108222000Y-101408000D01*
X108279403Y-101419418D01*
G37*
G36*
X109549403Y-101419418D02*
G01*
X109598066Y-101451934D01*
X109630582Y-101500597D01*
X109642000Y-101558000D01*
X109642000Y-103233000D01*
X109630582Y-103290403D01*
X109598066Y-103339066D01*
X109549403Y-103371582D01*
X109492000Y-103383000D01*
X109192000Y-103383000D01*
X109134597Y-103371582D01*
X109085934Y-103339066D01*
X109053418Y-103290403D01*
X109042000Y-103233000D01*
X109042000Y-101558000D01*
X109053418Y-101500597D01*
X109085934Y-101451934D01*
X109134597Y-101419418D01*
X109192000Y-101408000D01*
X109492000Y-101408000D01*
X109549403Y-101419418D01*
G37*
G36*
X110819403Y-101419418D02*
G01*
X110868066Y-101451934D01*
X110900582Y-101500597D01*
X110912000Y-101558000D01*
X110912000Y-103233000D01*
X110900582Y-103290403D01*
X110868066Y-103339066D01*
X110819403Y-103371582D01*
X110762000Y-103383000D01*
X110462000Y-103383000D01*
X110404597Y-103371582D01*
X110355934Y-103339066D01*
X110323418Y-103290403D01*
X110312000Y-103233000D01*
X110312000Y-101558000D01*
X110323418Y-101500597D01*
X110355934Y-101451934D01*
X110404597Y-101419418D01*
X110462000Y-101408000D01*
X110762000Y-101408000D01*
X110819403Y-101419418D01*
G37*
G36*
X112089403Y-101419418D02*
G01*
X112138066Y-101451934D01*
X112170582Y-101500597D01*
X112182000Y-101558000D01*
X112182000Y-103233000D01*
X112170582Y-103290403D01*
X112138066Y-103339066D01*
X112089403Y-103371582D01*
X112032000Y-103383000D01*
X111732000Y-103383000D01*
X111674597Y-103371582D01*
X111625934Y-103339066D01*
X111593418Y-103290403D01*
X111582000Y-103233000D01*
X111582000Y-101558000D01*
X111593418Y-101500597D01*
X111625934Y-101451934D01*
X111674597Y-101419418D01*
X111732000Y-101408000D01*
X112032000Y-101408000D01*
X112089403Y-101419418D01*
G37*
G36*
X113359403Y-101419418D02*
G01*
X113408066Y-101451934D01*
X113440582Y-101500597D01*
X113452000Y-101558000D01*
X113452000Y-103233000D01*
X113440582Y-103290403D01*
X113408066Y-103339066D01*
X113359403Y-103371582D01*
X113302000Y-103383000D01*
X113002000Y-103383000D01*
X112944597Y-103371582D01*
X112895934Y-103339066D01*
X112863418Y-103290403D01*
X112852000Y-103233000D01*
X112852000Y-101558000D01*
X112863418Y-101500597D01*
X112895934Y-101451934D01*
X112944597Y-101419418D01*
X113002000Y-101408000D01*
X113302000Y-101408000D01*
X113359403Y-101419418D01*
G37*
G36*
X114629403Y-101419418D02*
G01*
X114678066Y-101451934D01*
X114710582Y-101500597D01*
X114722000Y-101558000D01*
X114722000Y-103233000D01*
X114710582Y-103290403D01*
X114678066Y-103339066D01*
X114629403Y-103371582D01*
X114572000Y-103383000D01*
X114272000Y-103383000D01*
X114214597Y-103371582D01*
X114165934Y-103339066D01*
X114133418Y-103290403D01*
X114122000Y-103233000D01*
X114122000Y-101558000D01*
X114133418Y-101500597D01*
X114165934Y-101451934D01*
X114214597Y-101419418D01*
X114272000Y-101408000D01*
X114572000Y-101408000D01*
X114629403Y-101419418D01*
G37*
G36*
X197529113Y-96825930D02*
G01*
X197576076Y-96825930D01*
X197616622Y-96834548D01*
X197657526Y-96838577D01*
X197708916Y-96854166D01*
X197760115Y-96865049D01*
X197792879Y-96879636D01*
X197826304Y-96889776D01*
X197879420Y-96918166D01*
X197932000Y-96941577D01*
X197956445Y-96959337D01*
X197981849Y-96972916D01*
X198033669Y-97015444D01*
X198084218Y-97052170D01*
X198100631Y-97070398D01*
X198118190Y-97084809D01*
X198165379Y-97142308D01*
X198210115Y-97191993D01*
X198219512Y-97208269D01*
X198230083Y-97221150D01*
X198269183Y-97294302D01*
X198304191Y-97354937D01*
X198308218Y-97367331D01*
X198313223Y-97376695D01*
X198340821Y-97467672D01*
X198362333Y-97533879D01*
X198363090Y-97541082D01*
X198364422Y-97545473D01*
X198377377Y-97677021D01*
X198382000Y-97721000D01*
X198377377Y-97764982D01*
X198364422Y-97896526D01*
X198363090Y-97900916D01*
X198362333Y-97908121D01*
X198340816Y-97974341D01*
X198313223Y-98065304D01*
X198308219Y-98074665D01*
X198304191Y-98087063D01*
X198269176Y-98147709D01*
X198230083Y-98220849D01*
X198219514Y-98233726D01*
X198210115Y-98250007D01*
X198165369Y-98299701D01*
X198118190Y-98357190D01*
X198100634Y-98371597D01*
X198084218Y-98389830D01*
X198033659Y-98426563D01*
X197981849Y-98469083D01*
X197956450Y-98482658D01*
X197932000Y-98500423D01*
X197879408Y-98523838D01*
X197826304Y-98552223D01*
X197792886Y-98562360D01*
X197760115Y-98576951D01*
X197708905Y-98587836D01*
X197657526Y-98603422D01*
X197616631Y-98607449D01*
X197576076Y-98616070D01*
X197529103Y-98616070D01*
X197482000Y-98620709D01*
X197434897Y-98616070D01*
X197387924Y-98616070D01*
X197347368Y-98607449D01*
X197306473Y-98603422D01*
X197255091Y-98587835D01*
X197203885Y-98576951D01*
X197171115Y-98562361D01*
X197137695Y-98552223D01*
X197084585Y-98523835D01*
X197032000Y-98500423D01*
X197007552Y-98482660D01*
X196982150Y-98469083D01*
X196930332Y-98426556D01*
X196879782Y-98389830D01*
X196863368Y-98371600D01*
X196845809Y-98357190D01*
X196798618Y-98299688D01*
X196753885Y-98250007D01*
X196744487Y-98233730D01*
X196733916Y-98220849D01*
X196694810Y-98147686D01*
X196659809Y-98087063D01*
X196655782Y-98074670D01*
X196650776Y-98065304D01*
X196623168Y-97974294D01*
X196601667Y-97908121D01*
X196600910Y-97900921D01*
X196599577Y-97896526D01*
X196586606Y-97764831D01*
X196582000Y-97721000D01*
X196586606Y-97677172D01*
X196599577Y-97545473D01*
X196600910Y-97541077D01*
X196601667Y-97533879D01*
X196623163Y-97467719D01*
X196650776Y-97376695D01*
X196655783Y-97367327D01*
X196659809Y-97354937D01*
X196694802Y-97294326D01*
X196733916Y-97221150D01*
X196744489Y-97208265D01*
X196753885Y-97191993D01*
X196798609Y-97142321D01*
X196845809Y-97084809D01*
X196863371Y-97070395D01*
X196879782Y-97052170D01*
X196930321Y-97015450D01*
X196982150Y-96972916D01*
X197007557Y-96959335D01*
X197032000Y-96941577D01*
X197084573Y-96918169D01*
X197137695Y-96889776D01*
X197171122Y-96879635D01*
X197203885Y-96865049D01*
X197255080Y-96854166D01*
X197306473Y-96838577D01*
X197347377Y-96834548D01*
X197387924Y-96825930D01*
X197434887Y-96825930D01*
X197482000Y-96821290D01*
X197529113Y-96825930D01*
G37*
G36*
X150432000Y-98386000D02*
G01*
X146932000Y-98386000D01*
X146932000Y-96686000D01*
X150432000Y-96686000D01*
X150432000Y-98386000D01*
G37*
G36*
X194618891Y-96689804D02*
G01*
X194777413Y-96745273D01*
X194919617Y-96834626D01*
X195038374Y-96953383D01*
X195127727Y-97095587D01*
X195183196Y-97254109D01*
X195202000Y-97421000D01*
X195183196Y-97587891D01*
X195127727Y-97746413D01*
X195038374Y-97888617D01*
X194919617Y-98007374D01*
X194777413Y-98096727D01*
X194618891Y-98152196D01*
X194452000Y-98171000D01*
X194285109Y-98152196D01*
X194126587Y-98096727D01*
X193984383Y-98007374D01*
X193865626Y-97888617D01*
X193776273Y-97746413D01*
X193720804Y-97587891D01*
X193702000Y-97421000D01*
X193720804Y-97254109D01*
X193776273Y-97095587D01*
X193865626Y-96953383D01*
X193984383Y-96834626D01*
X194126587Y-96745273D01*
X194285109Y-96689804D01*
X194452000Y-96671000D01*
X194618891Y-96689804D01*
G37*
G36*
X103199403Y-94494418D02*
G01*
X103248066Y-94526934D01*
X103280582Y-94575597D01*
X103292000Y-94633000D01*
X103292000Y-96308000D01*
X103280582Y-96365403D01*
X103248066Y-96414066D01*
X103199403Y-96446582D01*
X103142000Y-96458000D01*
X102842000Y-96458000D01*
X102784597Y-96446582D01*
X102735934Y-96414066D01*
X102703418Y-96365403D01*
X102692000Y-96308000D01*
X102692000Y-94633000D01*
X102703418Y-94575597D01*
X102735934Y-94526934D01*
X102784597Y-94494418D01*
X102842000Y-94483000D01*
X103142000Y-94483000D01*
X103199403Y-94494418D01*
G37*
G36*
X104469403Y-94494418D02*
G01*
X104518066Y-94526934D01*
X104550582Y-94575597D01*
X104562000Y-94633000D01*
X104562000Y-96308000D01*
X104550582Y-96365403D01*
X104518066Y-96414066D01*
X104469403Y-96446582D01*
X104412000Y-96458000D01*
X104112000Y-96458000D01*
X104054597Y-96446582D01*
X104005934Y-96414066D01*
X103973418Y-96365403D01*
X103962000Y-96308000D01*
X103962000Y-94633000D01*
X103973418Y-94575597D01*
X104005934Y-94526934D01*
X104054597Y-94494418D01*
X104112000Y-94483000D01*
X104412000Y-94483000D01*
X104469403Y-94494418D01*
G37*
G36*
X105739403Y-94494418D02*
G01*
X105788066Y-94526934D01*
X105820582Y-94575597D01*
X105832000Y-94633000D01*
X105832000Y-96308000D01*
X105820582Y-96365403D01*
X105788066Y-96414066D01*
X105739403Y-96446582D01*
X105682000Y-96458000D01*
X105382000Y-96458000D01*
X105324597Y-96446582D01*
X105275934Y-96414066D01*
X105243418Y-96365403D01*
X105232000Y-96308000D01*
X105232000Y-94633000D01*
X105243418Y-94575597D01*
X105275934Y-94526934D01*
X105324597Y-94494418D01*
X105382000Y-94483000D01*
X105682000Y-94483000D01*
X105739403Y-94494418D01*
G37*
G36*
X107009403Y-94494418D02*
G01*
X107058066Y-94526934D01*
X107090582Y-94575597D01*
X107102000Y-94633000D01*
X107102000Y-96308000D01*
X107090582Y-96365403D01*
X107058066Y-96414066D01*
X107009403Y-96446582D01*
X106952000Y-96458000D01*
X106652000Y-96458000D01*
X106594597Y-96446582D01*
X106545934Y-96414066D01*
X106513418Y-96365403D01*
X106502000Y-96308000D01*
X106502000Y-94633000D01*
X106513418Y-94575597D01*
X106545934Y-94526934D01*
X106594597Y-94494418D01*
X106652000Y-94483000D01*
X106952000Y-94483000D01*
X107009403Y-94494418D01*
G37*
G36*
X108279403Y-94494418D02*
G01*
X108328066Y-94526934D01*
X108360582Y-94575597D01*
X108372000Y-94633000D01*
X108372000Y-96308000D01*
X108360582Y-96365403D01*
X108328066Y-96414066D01*
X108279403Y-96446582D01*
X108222000Y-96458000D01*
X107922000Y-96458000D01*
X107864597Y-96446582D01*
X107815934Y-96414066D01*
X107783418Y-96365403D01*
X107772000Y-96308000D01*
X107772000Y-94633000D01*
X107783418Y-94575597D01*
X107815934Y-94526934D01*
X107864597Y-94494418D01*
X107922000Y-94483000D01*
X108222000Y-94483000D01*
X108279403Y-94494418D01*
G37*
G36*
X109549403Y-94494418D02*
G01*
X109598066Y-94526934D01*
X109630582Y-94575597D01*
X109642000Y-94633000D01*
X109642000Y-96308000D01*
X109630582Y-96365403D01*
X109598066Y-96414066D01*
X109549403Y-96446582D01*
X109492000Y-96458000D01*
X109192000Y-96458000D01*
X109134597Y-96446582D01*
X109085934Y-96414066D01*
X109053418Y-96365403D01*
X109042000Y-96308000D01*
X109042000Y-94633000D01*
X109053418Y-94575597D01*
X109085934Y-94526934D01*
X109134597Y-94494418D01*
X109192000Y-94483000D01*
X109492000Y-94483000D01*
X109549403Y-94494418D01*
G37*
G36*
X110819403Y-94494418D02*
G01*
X110868066Y-94526934D01*
X110900582Y-94575597D01*
X110912000Y-94633000D01*
X110912000Y-96308000D01*
X110900582Y-96365403D01*
X110868066Y-96414066D01*
X110819403Y-96446582D01*
X110762000Y-96458000D01*
X110462000Y-96458000D01*
X110404597Y-96446582D01*
X110355934Y-96414066D01*
X110323418Y-96365403D01*
X110312000Y-96308000D01*
X110312000Y-94633000D01*
X110323418Y-94575597D01*
X110355934Y-94526934D01*
X110404597Y-94494418D01*
X110462000Y-94483000D01*
X110762000Y-94483000D01*
X110819403Y-94494418D01*
G37*
G36*
X112089403Y-94494418D02*
G01*
X112138066Y-94526934D01*
X112170582Y-94575597D01*
X112182000Y-94633000D01*
X112182000Y-96308000D01*
X112170582Y-96365403D01*
X112138066Y-96414066D01*
X112089403Y-96446582D01*
X112032000Y-96458000D01*
X111732000Y-96458000D01*
X111674597Y-96446582D01*
X111625934Y-96414066D01*
X111593418Y-96365403D01*
X111582000Y-96308000D01*
X111582000Y-94633000D01*
X111593418Y-94575597D01*
X111625934Y-94526934D01*
X111674597Y-94494418D01*
X111732000Y-94483000D01*
X112032000Y-94483000D01*
X112089403Y-94494418D01*
G37*
G36*
X113359403Y-94494418D02*
G01*
X113408066Y-94526934D01*
X113440582Y-94575597D01*
X113452000Y-94633000D01*
X113452000Y-96308000D01*
X113440582Y-96365403D01*
X113408066Y-96414066D01*
X113359403Y-96446582D01*
X113302000Y-96458000D01*
X113002000Y-96458000D01*
X112944597Y-96446582D01*
X112895934Y-96414066D01*
X112863418Y-96365403D01*
X112852000Y-96308000D01*
X112852000Y-94633000D01*
X112863418Y-94575597D01*
X112895934Y-94526934D01*
X112944597Y-94494418D01*
X113002000Y-94483000D01*
X113302000Y-94483000D01*
X113359403Y-94494418D01*
G37*
G36*
X114629403Y-94494418D02*
G01*
X114678066Y-94526934D01*
X114710582Y-94575597D01*
X114722000Y-94633000D01*
X114722000Y-96308000D01*
X114710582Y-96365403D01*
X114678066Y-96414066D01*
X114629403Y-96446582D01*
X114572000Y-96458000D01*
X114272000Y-96458000D01*
X114214597Y-96446582D01*
X114165934Y-96414066D01*
X114133418Y-96365403D01*
X114122000Y-96308000D01*
X114122000Y-94633000D01*
X114133418Y-94575597D01*
X114165934Y-94526934D01*
X114214597Y-94494418D01*
X114272000Y-94483000D01*
X114572000Y-94483000D01*
X114629403Y-94494418D01*
G37*
G36*
X150432000Y-95846000D02*
G01*
X148732000Y-95846000D01*
X146932000Y-95846000D01*
X146932000Y-94146000D01*
X150432000Y-94146000D01*
X150432000Y-95846000D01*
G37*
G36*
X194618891Y-91839804D02*
G01*
X194777413Y-91895273D01*
X194919617Y-91984626D01*
X195038374Y-92103383D01*
X195127727Y-92245587D01*
X195183196Y-92404109D01*
X195202000Y-92571000D01*
X195183196Y-92737891D01*
X195127727Y-92896413D01*
X195038374Y-93038617D01*
X194919617Y-93157374D01*
X194777413Y-93246727D01*
X194618891Y-93302196D01*
X194452000Y-93321000D01*
X194285109Y-93302196D01*
X194126587Y-93246727D01*
X193984383Y-93157374D01*
X193865626Y-93038617D01*
X193776273Y-92896413D01*
X193720804Y-92737891D01*
X193702000Y-92571000D01*
X193720804Y-92404109D01*
X193776273Y-92245587D01*
X193865626Y-92103383D01*
X193984383Y-91984626D01*
X194126587Y-91895273D01*
X194285109Y-91839804D01*
X194452000Y-91821000D01*
X194618891Y-91839804D01*
G37*
G36*
X150432000Y-93306000D02*
G01*
X146932000Y-93306000D01*
X146932000Y-91606000D01*
X150432000Y-91606000D01*
X150432000Y-93306000D01*
G37*
G36*
X197529113Y-91375930D02*
G01*
X197576076Y-91375930D01*
X197616622Y-91384548D01*
X197657526Y-91388577D01*
X197708916Y-91404166D01*
X197760115Y-91415049D01*
X197792879Y-91429636D01*
X197826304Y-91439776D01*
X197879420Y-91468166D01*
X197932000Y-91491577D01*
X197956445Y-91509337D01*
X197981849Y-91522916D01*
X198033669Y-91565444D01*
X198084218Y-91602170D01*
X198100631Y-91620398D01*
X198118190Y-91634809D01*
X198165379Y-91692308D01*
X198210115Y-91741993D01*
X198219512Y-91758269D01*
X198230083Y-91771150D01*
X198269183Y-91844302D01*
X198304191Y-91904937D01*
X198308218Y-91917331D01*
X198313223Y-91926695D01*
X198340821Y-92017672D01*
X198362333Y-92083879D01*
X198363090Y-92091082D01*
X198364422Y-92095473D01*
X198377377Y-92227021D01*
X198382000Y-92271000D01*
X198377377Y-92314982D01*
X198364422Y-92446526D01*
X198363090Y-92450916D01*
X198362333Y-92458121D01*
X198340816Y-92524341D01*
X198313223Y-92615304D01*
X198308219Y-92624665D01*
X198304191Y-92637063D01*
X198269176Y-92697709D01*
X198230083Y-92770849D01*
X198219514Y-92783726D01*
X198210115Y-92800007D01*
X198165369Y-92849701D01*
X198118190Y-92907190D01*
X198100634Y-92921597D01*
X198084218Y-92939830D01*
X198033659Y-92976563D01*
X197981849Y-93019083D01*
X197956450Y-93032658D01*
X197932000Y-93050423D01*
X197879408Y-93073838D01*
X197826304Y-93102223D01*
X197792886Y-93112360D01*
X197760115Y-93126951D01*
X197708905Y-93137836D01*
X197657526Y-93153422D01*
X197616631Y-93157449D01*
X197576076Y-93166070D01*
X197529103Y-93166070D01*
X197482000Y-93170709D01*
X197434897Y-93166070D01*
X197387924Y-93166070D01*
X197347368Y-93157449D01*
X197306473Y-93153422D01*
X197255091Y-93137835D01*
X197203885Y-93126951D01*
X197171115Y-93112361D01*
X197137695Y-93102223D01*
X197084585Y-93073835D01*
X197032000Y-93050423D01*
X197007552Y-93032660D01*
X196982150Y-93019083D01*
X196930332Y-92976556D01*
X196879782Y-92939830D01*
X196863368Y-92921600D01*
X196845809Y-92907190D01*
X196798618Y-92849688D01*
X196753885Y-92800007D01*
X196744487Y-92783730D01*
X196733916Y-92770849D01*
X196694810Y-92697686D01*
X196659809Y-92637063D01*
X196655782Y-92624670D01*
X196650776Y-92615304D01*
X196623168Y-92524294D01*
X196601667Y-92458121D01*
X196600910Y-92450921D01*
X196599577Y-92446526D01*
X196586606Y-92314831D01*
X196582000Y-92271000D01*
X196586606Y-92227172D01*
X196599577Y-92095473D01*
X196600910Y-92091077D01*
X196601667Y-92083879D01*
X196623163Y-92017719D01*
X196650776Y-91926695D01*
X196655783Y-91917327D01*
X196659809Y-91904937D01*
X196694802Y-91844326D01*
X196733916Y-91771150D01*
X196744489Y-91758265D01*
X196753885Y-91741993D01*
X196798609Y-91692321D01*
X196845809Y-91634809D01*
X196863371Y-91620395D01*
X196879782Y-91602170D01*
X196930321Y-91565450D01*
X196982150Y-91522916D01*
X197007557Y-91509335D01*
X197032000Y-91491577D01*
X197084573Y-91468169D01*
X197137695Y-91439776D01*
X197171122Y-91429635D01*
X197203885Y-91415049D01*
X197255080Y-91404166D01*
X197306473Y-91388577D01*
X197347377Y-91384548D01*
X197387924Y-91375930D01*
X197434887Y-91375930D01*
X197482000Y-91371290D01*
X197529113Y-91375930D01*
G37*
G36*
X108334174Y-87751447D02*
G01*
X108496510Y-87823723D01*
X108640271Y-87928172D01*
X108759174Y-88060228D01*
X108848024Y-88214119D01*
X108902935Y-88383120D01*
X108921510Y-88559845D01*
X108902935Y-88736570D01*
X108848024Y-88905571D01*
X108759174Y-89059462D01*
X108640271Y-89191518D01*
X108496510Y-89295967D01*
X108334174Y-89368243D01*
X108160359Y-89405189D01*
X107982661Y-89405189D01*
X107808846Y-89368243D01*
X107646510Y-89295967D01*
X107502749Y-89191518D01*
X107383846Y-89059462D01*
X107294996Y-88905571D01*
X107240085Y-88736570D01*
X107221510Y-88559845D01*
X107240085Y-88383120D01*
X107294996Y-88214119D01*
X107383846Y-88060228D01*
X107502749Y-87928172D01*
X107646510Y-87823723D01*
X107808846Y-87751447D01*
X107982661Y-87714501D01*
X108160359Y-87714501D01*
X108334174Y-87751447D01*
G37*
G36*
X111069643Y-86763794D02*
G01*
X109867561Y-87965876D01*
X108665479Y-86763794D01*
X109867561Y-85561712D01*
X111069643Y-86763794D01*
G37*
G36*
X150202000Y-86956000D02*
G01*
X148502000Y-86956000D01*
X148502000Y-83456000D01*
X150202000Y-83456000D01*
X150202000Y-86956000D01*
G37*
G36*
X152742000Y-86956000D02*
G01*
X151042000Y-86956000D01*
X151042000Y-83456000D01*
X152742000Y-83456000D01*
X152742000Y-86956000D01*
G37*
G36*
X155282000Y-86956000D02*
G01*
X153582000Y-86956000D01*
X153582000Y-83456000D01*
X155282000Y-83456000D01*
X155282000Y-86956000D01*
G37*
G36*
X157822000Y-86956000D02*
G01*
X156122000Y-86956000D01*
X156122000Y-83456000D01*
X157822000Y-83456000D01*
X157822000Y-86956000D01*
G37*
G36*
X160362000Y-86956000D02*
G01*
X158662000Y-86956000D01*
X158662000Y-83456000D01*
X160362000Y-83456000D01*
X160362000Y-86956000D01*
G37*
G36*
X162902000Y-86956000D02*
G01*
X161202000Y-86956000D01*
X161202000Y-83456000D01*
X162902000Y-83456000D01*
X162902000Y-86956000D01*
G37*
G36*
X165442000Y-86956000D02*
G01*
X163742000Y-86956000D01*
X163742000Y-83456000D01*
X165442000Y-83456000D01*
X165442000Y-86956000D01*
G37*
G36*
X167982000Y-86956000D02*
G01*
X166282000Y-86956000D01*
X166282000Y-83456000D01*
X167982000Y-83456000D01*
X167982000Y-86956000D01*
G37*
G36*
X170522000Y-86956000D02*
G01*
X168822000Y-86956000D01*
X168822000Y-83456000D01*
X170522000Y-83456000D01*
X170522000Y-86956000D01*
G37*
G36*
X173062000Y-86956000D02*
G01*
X171362000Y-86956000D01*
X171362000Y-83456000D01*
X173062000Y-83456000D01*
X173062000Y-86956000D01*
G37*
G36*
X175602000Y-86956000D02*
G01*
X173902000Y-86956000D01*
X173902000Y-83456000D01*
X175602000Y-83456000D01*
X175602000Y-86956000D01*
G37*
G36*
X178142000Y-86956000D02*
G01*
X176442000Y-86956000D01*
X176442000Y-83456000D01*
X178142000Y-83456000D01*
X178142000Y-86956000D01*
G37*
G36*
X180682000Y-86956000D02*
G01*
X178982000Y-86956000D01*
X178982000Y-83456000D01*
X180682000Y-83456000D01*
X180682000Y-86956000D01*
G37*
G36*
X183222000Y-86956000D02*
G01*
X181522000Y-86956000D01*
X181522000Y-83456000D01*
X183222000Y-83456000D01*
X183222000Y-86956000D01*
G37*
G36*
X185762000Y-86956000D02*
G01*
X184062000Y-86956000D01*
X184062000Y-83456000D01*
X185762000Y-83456000D01*
X185762000Y-86956000D01*
G37*
G36*
X188302000Y-86956000D02*
G01*
X186602000Y-86956000D01*
X186602000Y-83456000D01*
X188302000Y-83456000D01*
X188302000Y-86956000D01*
G37*
G36*
X190842000Y-86956000D02*
G01*
X189142000Y-86956000D01*
X189142000Y-83456000D01*
X190842000Y-83456000D01*
X190842000Y-86956000D01*
G37*
G36*
X193382000Y-86956000D02*
G01*
X191682000Y-86956000D01*
X191682000Y-83456000D01*
X193382000Y-83456000D01*
X193382000Y-86956000D01*
G37*
G36*
X195922000Y-86956000D02*
G01*
X194222000Y-86956000D01*
X194222000Y-83456000D01*
X195922000Y-83456000D01*
X195922000Y-86956000D01*
G37*
G36*
X198462000Y-86956000D02*
G01*
X196762000Y-86956000D01*
X196762000Y-83456000D01*
X198462000Y-83456000D01*
X198462000Y-86956000D01*
G37*
G36*
X121318027Y-78127794D02*
G01*
X119903813Y-79542008D01*
X117782493Y-77420688D01*
X118834648Y-76368533D01*
X119192532Y-76010648D01*
X119192535Y-76010645D01*
X119196707Y-76006474D01*
X121318027Y-78127794D01*
G37*
G36*
X191824000Y-78648000D02*
G01*
X189524000Y-78648000D01*
X189524000Y-76348000D01*
X191824000Y-76348000D01*
X191824000Y-78648000D01*
G37*
G36*
X158617850Y-76338964D02*
G01*
X158668040Y-76344787D01*
X158685189Y-76352359D01*
X158708671Y-76357030D01*
X158733810Y-76373827D01*
X158753696Y-76382608D01*
X158767277Y-76396189D01*
X158789777Y-76411223D01*
X158804810Y-76433722D01*
X158818391Y-76447303D01*
X158827170Y-76467186D01*
X158843970Y-76492329D01*
X158848641Y-76515812D01*
X158856212Y-76532959D01*
X158862033Y-76583139D01*
X158863000Y-76588000D01*
X158863000Y-77388000D01*
X158862032Y-77392863D01*
X158856212Y-77443040D01*
X158848641Y-77460185D01*
X158843970Y-77483671D01*
X158827169Y-77508815D01*
X158818391Y-77528696D01*
X158804812Y-77542274D01*
X158789777Y-77564777D01*
X158767274Y-77579812D01*
X158753696Y-77593391D01*
X158733815Y-77602169D01*
X158708671Y-77618970D01*
X158685185Y-77623641D01*
X158668040Y-77631212D01*
X158617861Y-77637032D01*
X158613000Y-77638000D01*
X157363000Y-77638000D01*
X157358138Y-77637032D01*
X157307959Y-77631212D01*
X157290812Y-77623641D01*
X157267329Y-77618970D01*
X157242186Y-77602170D01*
X157222303Y-77593391D01*
X157208722Y-77579810D01*
X157186223Y-77564777D01*
X157171189Y-77542277D01*
X157157608Y-77528696D01*
X157148827Y-77508810D01*
X157132030Y-77483671D01*
X157127359Y-77460189D01*
X157119787Y-77443040D01*
X157113964Y-77392849D01*
X157113000Y-77388000D01*
X157113000Y-76588000D01*
X157113964Y-76583150D01*
X157119787Y-76532959D01*
X157127359Y-76515808D01*
X157132030Y-76492329D01*
X157148826Y-76467191D01*
X157157608Y-76447303D01*
X157171191Y-76433719D01*
X157186223Y-76411223D01*
X157208719Y-76396191D01*
X157222303Y-76382608D01*
X157242191Y-76373826D01*
X157267329Y-76357030D01*
X157290808Y-76352359D01*
X157307959Y-76344787D01*
X157358151Y-76338964D01*
X157363000Y-76338000D01*
X158613000Y-76338000D01*
X158617850Y-76338964D01*
G37*
G36*
X163443850Y-75830964D02*
G01*
X163494040Y-75836787D01*
X163511189Y-75844359D01*
X163534671Y-75849030D01*
X163559810Y-75865827D01*
X163579696Y-75874608D01*
X163593277Y-75888189D01*
X163615777Y-75903223D01*
X163630810Y-75925722D01*
X163644391Y-75939303D01*
X163653170Y-75959186D01*
X163669970Y-75984329D01*
X163674641Y-76007812D01*
X163682212Y-76024959D01*
X163688033Y-76075139D01*
X163689000Y-76080000D01*
X163689000Y-76880000D01*
X163688032Y-76884863D01*
X163682212Y-76935040D01*
X163674641Y-76952185D01*
X163669970Y-76975671D01*
X163653169Y-77000815D01*
X163644391Y-77020696D01*
X163630812Y-77034274D01*
X163615777Y-77056777D01*
X163593274Y-77071812D01*
X163579696Y-77085391D01*
X163559815Y-77094169D01*
X163534671Y-77110970D01*
X163511185Y-77115641D01*
X163494040Y-77123212D01*
X163443861Y-77129032D01*
X163439000Y-77130000D01*
X162189000Y-77130000D01*
X162184138Y-77129032D01*
X162133959Y-77123212D01*
X162116812Y-77115641D01*
X162093329Y-77110970D01*
X162068186Y-77094170D01*
X162048303Y-77085391D01*
X162034722Y-77071810D01*
X162012223Y-77056777D01*
X161997189Y-77034277D01*
X161983608Y-77020696D01*
X161974827Y-77000810D01*
X161958030Y-76975671D01*
X161953359Y-76952189D01*
X161945787Y-76935040D01*
X161939964Y-76884849D01*
X161939000Y-76880000D01*
X161939000Y-76080000D01*
X161939964Y-76075150D01*
X161945787Y-76024959D01*
X161953359Y-76007808D01*
X161958030Y-75984329D01*
X161974826Y-75959191D01*
X161983608Y-75939303D01*
X161997191Y-75925719D01*
X162012223Y-75903223D01*
X162034719Y-75888191D01*
X162048303Y-75874608D01*
X162068191Y-75865826D01*
X162093329Y-75849030D01*
X162116808Y-75844359D01*
X162133959Y-75836787D01*
X162184151Y-75830964D01*
X162189000Y-75830000D01*
X163439000Y-75830000D01*
X163443850Y-75830964D01*
G37*
G36*
X168269850Y-75322964D02*
G01*
X168320040Y-75328787D01*
X168337189Y-75336359D01*
X168360671Y-75341030D01*
X168385810Y-75357827D01*
X168405696Y-75366608D01*
X168419277Y-75380189D01*
X168441777Y-75395223D01*
X168456810Y-75417722D01*
X168470391Y-75431303D01*
X168479170Y-75451186D01*
X168495970Y-75476329D01*
X168500641Y-75499812D01*
X168508212Y-75516959D01*
X168514033Y-75567139D01*
X168515000Y-75572000D01*
X168515000Y-76372000D01*
X168514032Y-76376863D01*
X168508212Y-76427040D01*
X168500641Y-76444185D01*
X168495970Y-76467671D01*
X168479169Y-76492815D01*
X168470391Y-76512696D01*
X168456812Y-76526274D01*
X168441777Y-76548777D01*
X168419274Y-76563812D01*
X168405696Y-76577391D01*
X168385815Y-76586169D01*
X168360671Y-76602970D01*
X168337185Y-76607641D01*
X168320040Y-76615212D01*
X168269861Y-76621032D01*
X168265000Y-76622000D01*
X167015000Y-76622000D01*
X167010138Y-76621032D01*
X166959959Y-76615212D01*
X166942812Y-76607641D01*
X166919329Y-76602970D01*
X166894186Y-76586170D01*
X166874303Y-76577391D01*
X166860722Y-76563810D01*
X166838223Y-76548777D01*
X166823189Y-76526277D01*
X166809608Y-76512696D01*
X166800827Y-76492810D01*
X166784030Y-76467671D01*
X166779359Y-76444189D01*
X166771787Y-76427040D01*
X166765964Y-76376849D01*
X166765000Y-76372000D01*
X166765000Y-75572000D01*
X166765964Y-75567150D01*
X166771787Y-75516959D01*
X166779359Y-75499808D01*
X166784030Y-75476329D01*
X166800826Y-75451191D01*
X166809608Y-75431303D01*
X166823191Y-75417719D01*
X166838223Y-75395223D01*
X166860719Y-75380191D01*
X166874303Y-75366608D01*
X166894191Y-75357826D01*
X166919329Y-75341030D01*
X166942808Y-75336359D01*
X166959959Y-75328787D01*
X167010151Y-75322964D01*
X167015000Y-75322000D01*
X168265000Y-75322000D01*
X168269850Y-75322964D01*
G37*
G36*
X189314000Y-75388000D02*
G01*
X187314000Y-75388000D01*
X187314000Y-74488000D01*
X189314000Y-74488000D01*
X189314000Y-75388000D01*
G37*
G36*
X133474850Y-73547964D02*
G01*
X133525040Y-73553787D01*
X133542189Y-73561359D01*
X133565671Y-73566030D01*
X133590810Y-73582827D01*
X133610696Y-73591608D01*
X133624277Y-73605189D01*
X133646777Y-73620223D01*
X133661810Y-73642722D01*
X133675391Y-73656303D01*
X133684170Y-73676186D01*
X133700970Y-73701329D01*
X133705641Y-73724812D01*
X133713212Y-73741959D01*
X133719033Y-73792139D01*
X133720000Y-73797000D01*
X133720000Y-75047000D01*
X133719032Y-75051863D01*
X133713212Y-75102040D01*
X133705641Y-75119185D01*
X133700970Y-75142671D01*
X133684169Y-75167815D01*
X133675391Y-75187696D01*
X133661812Y-75201274D01*
X133646777Y-75223777D01*
X133624274Y-75238812D01*
X133610696Y-75252391D01*
X133590815Y-75261169D01*
X133565671Y-75277970D01*
X133542185Y-75282641D01*
X133525040Y-75290212D01*
X133474861Y-75296032D01*
X133470000Y-75297000D01*
X132670000Y-75297000D01*
X132665138Y-75296032D01*
X132614959Y-75290212D01*
X132597812Y-75282641D01*
X132574329Y-75277970D01*
X132549186Y-75261170D01*
X132529303Y-75252391D01*
X132515722Y-75238810D01*
X132493223Y-75223777D01*
X132478189Y-75201277D01*
X132464608Y-75187696D01*
X132455827Y-75167810D01*
X132439030Y-75142671D01*
X132434359Y-75119189D01*
X132426787Y-75102040D01*
X132420964Y-75051849D01*
X132420000Y-75047000D01*
X132420000Y-73797000D01*
X132420964Y-73792150D01*
X132426787Y-73741959D01*
X132434359Y-73724808D01*
X132439030Y-73701329D01*
X132455826Y-73676191D01*
X132464608Y-73656303D01*
X132478191Y-73642719D01*
X132493223Y-73620223D01*
X132515719Y-73605191D01*
X132529303Y-73591608D01*
X132549191Y-73582826D01*
X132574329Y-73566030D01*
X132597808Y-73561359D01*
X132614959Y-73553787D01*
X132665151Y-73547964D01*
X132670000Y-73547000D01*
X133470000Y-73547000D01*
X133474850Y-73547964D01*
G37*
G36*
X136574850Y-73547964D02*
G01*
X136625040Y-73553787D01*
X136642189Y-73561359D01*
X136665671Y-73566030D01*
X136690810Y-73582827D01*
X136710696Y-73591608D01*
X136724277Y-73605189D01*
X136746777Y-73620223D01*
X136761810Y-73642722D01*
X136775391Y-73656303D01*
X136784170Y-73676186D01*
X136800970Y-73701329D01*
X136805641Y-73724812D01*
X136813212Y-73741959D01*
X136819033Y-73792139D01*
X136820000Y-73797000D01*
X136820000Y-75047000D01*
X136819032Y-75051863D01*
X136813212Y-75102040D01*
X136805641Y-75119185D01*
X136800970Y-75142671D01*
X136784169Y-75167815D01*
X136775391Y-75187696D01*
X136761812Y-75201274D01*
X136746777Y-75223777D01*
X136724274Y-75238812D01*
X136710696Y-75252391D01*
X136690815Y-75261169D01*
X136665671Y-75277970D01*
X136642185Y-75282641D01*
X136625040Y-75290212D01*
X136574861Y-75296032D01*
X136570000Y-75297000D01*
X135770000Y-75297000D01*
X135765138Y-75296032D01*
X135714959Y-75290212D01*
X135697812Y-75282641D01*
X135674329Y-75277970D01*
X135649186Y-75261170D01*
X135629303Y-75252391D01*
X135615722Y-75238810D01*
X135593223Y-75223777D01*
X135578189Y-75201277D01*
X135564608Y-75187696D01*
X135555827Y-75167810D01*
X135539030Y-75142671D01*
X135534359Y-75119189D01*
X135526787Y-75102040D01*
X135520964Y-75051849D01*
X135520000Y-75047000D01*
X135520000Y-73797000D01*
X135520964Y-73792150D01*
X135526787Y-73741959D01*
X135534359Y-73724808D01*
X135539030Y-73701329D01*
X135555826Y-73676191D01*
X135564608Y-73656303D01*
X135578191Y-73642719D01*
X135593223Y-73620223D01*
X135615719Y-73605191D01*
X135629303Y-73591608D01*
X135649191Y-73582826D01*
X135674329Y-73566030D01*
X135697808Y-73561359D01*
X135714959Y-73553787D01*
X135765151Y-73547964D01*
X135770000Y-73547000D01*
X136570000Y-73547000D01*
X136574850Y-73547964D01*
G37*
G36*
X141348850Y-73547964D02*
G01*
X141399040Y-73553787D01*
X141416189Y-73561359D01*
X141439671Y-73566030D01*
X141464810Y-73582827D01*
X141484696Y-73591608D01*
X141498277Y-73605189D01*
X141520777Y-73620223D01*
X141535810Y-73642722D01*
X141549391Y-73656303D01*
X141558170Y-73676186D01*
X141574970Y-73701329D01*
X141579641Y-73724812D01*
X141587212Y-73741959D01*
X141593033Y-73792139D01*
X141594000Y-73797000D01*
X141594000Y-75047000D01*
X141593032Y-75051863D01*
X141587212Y-75102040D01*
X141579641Y-75119185D01*
X141574970Y-75142671D01*
X141558169Y-75167815D01*
X141549391Y-75187696D01*
X141535812Y-75201274D01*
X141520777Y-75223777D01*
X141498274Y-75238812D01*
X141484696Y-75252391D01*
X141464815Y-75261169D01*
X141439671Y-75277970D01*
X141416185Y-75282641D01*
X141399040Y-75290212D01*
X141348861Y-75296032D01*
X141344000Y-75297000D01*
X140544000Y-75297000D01*
X140539138Y-75296032D01*
X140488959Y-75290212D01*
X140471812Y-75282641D01*
X140448329Y-75277970D01*
X140423186Y-75261170D01*
X140403303Y-75252391D01*
X140389722Y-75238810D01*
X140367223Y-75223777D01*
X140352189Y-75201277D01*
X140338608Y-75187696D01*
X140329827Y-75167810D01*
X140313030Y-75142671D01*
X140308359Y-75119189D01*
X140300787Y-75102040D01*
X140294964Y-75051849D01*
X140294000Y-75047000D01*
X140294000Y-73797000D01*
X140294964Y-73792150D01*
X140300787Y-73741959D01*
X140308359Y-73724808D01*
X140313030Y-73701329D01*
X140329826Y-73676191D01*
X140338608Y-73656303D01*
X140352191Y-73642719D01*
X140367223Y-73620223D01*
X140389719Y-73605191D01*
X140403303Y-73591608D01*
X140423191Y-73582826D01*
X140448329Y-73566030D01*
X140471808Y-73561359D01*
X140488959Y-73553787D01*
X140539151Y-73547964D01*
X140544000Y-73547000D01*
X141344000Y-73547000D01*
X141348850Y-73547964D01*
G37*
G36*
X144448850Y-73547964D02*
G01*
X144499040Y-73553787D01*
X144516189Y-73561359D01*
X144539671Y-73566030D01*
X144564810Y-73582827D01*
X144584696Y-73591608D01*
X144598277Y-73605189D01*
X144620777Y-73620223D01*
X144635810Y-73642722D01*
X144649391Y-73656303D01*
X144658170Y-73676186D01*
X144674970Y-73701329D01*
X144679641Y-73724812D01*
X144687212Y-73741959D01*
X144693033Y-73792139D01*
X144694000Y-73797000D01*
X144694000Y-75047000D01*
X144693032Y-75051863D01*
X144687212Y-75102040D01*
X144679641Y-75119185D01*
X144674970Y-75142671D01*
X144658169Y-75167815D01*
X144649391Y-75187696D01*
X144635812Y-75201274D01*
X144620777Y-75223777D01*
X144598274Y-75238812D01*
X144584696Y-75252391D01*
X144564815Y-75261169D01*
X144539671Y-75277970D01*
X144516185Y-75282641D01*
X144499040Y-75290212D01*
X144448861Y-75296032D01*
X144444000Y-75297000D01*
X143644000Y-75297000D01*
X143639138Y-75296032D01*
X143588959Y-75290212D01*
X143571812Y-75282641D01*
X143548329Y-75277970D01*
X143523186Y-75261170D01*
X143503303Y-75252391D01*
X143489722Y-75238810D01*
X143467223Y-75223777D01*
X143452189Y-75201277D01*
X143438608Y-75187696D01*
X143429827Y-75167810D01*
X143413030Y-75142671D01*
X143408359Y-75119189D01*
X143400787Y-75102040D01*
X143394964Y-75051849D01*
X143394000Y-75047000D01*
X143394000Y-73797000D01*
X143394964Y-73792150D01*
X143400787Y-73741959D01*
X143408359Y-73724808D01*
X143413030Y-73701329D01*
X143429826Y-73676191D01*
X143438608Y-73656303D01*
X143452191Y-73642719D01*
X143467223Y-73620223D01*
X143489719Y-73605191D01*
X143503303Y-73591608D01*
X143523191Y-73582826D01*
X143548329Y-73566030D01*
X143571808Y-73561359D01*
X143588959Y-73553787D01*
X143639151Y-73547964D01*
X143644000Y-73547000D01*
X144444000Y-73547000D01*
X144448850Y-73547964D01*
G37*
G36*
X158617850Y-73238964D02*
G01*
X158668040Y-73244787D01*
X158685189Y-73252359D01*
X158708671Y-73257030D01*
X158733810Y-73273827D01*
X158753696Y-73282608D01*
X158767277Y-73296189D01*
X158789777Y-73311223D01*
X158804810Y-73333722D01*
X158818391Y-73347303D01*
X158827170Y-73367186D01*
X158843970Y-73392329D01*
X158848641Y-73415812D01*
X158856212Y-73432959D01*
X158862033Y-73483139D01*
X158863000Y-73488000D01*
X158863000Y-74288000D01*
X158862032Y-74292863D01*
X158856212Y-74343040D01*
X158848641Y-74360185D01*
X158843970Y-74383671D01*
X158827169Y-74408815D01*
X158818391Y-74428696D01*
X158804812Y-74442274D01*
X158789777Y-74464777D01*
X158767274Y-74479812D01*
X158753696Y-74493391D01*
X158733815Y-74502169D01*
X158708671Y-74518970D01*
X158685185Y-74523641D01*
X158668040Y-74531212D01*
X158617861Y-74537032D01*
X158613000Y-74538000D01*
X157363000Y-74538000D01*
X157358138Y-74537032D01*
X157307959Y-74531212D01*
X157290812Y-74523641D01*
X157267329Y-74518970D01*
X157242186Y-74502170D01*
X157222303Y-74493391D01*
X157208722Y-74479810D01*
X157186223Y-74464777D01*
X157171189Y-74442277D01*
X157157608Y-74428696D01*
X157148827Y-74408810D01*
X157132030Y-74383671D01*
X157127359Y-74360189D01*
X157119787Y-74343040D01*
X157113964Y-74292849D01*
X157113000Y-74288000D01*
X157113000Y-73488000D01*
X157113964Y-73483150D01*
X157119787Y-73432959D01*
X157127359Y-73415808D01*
X157132030Y-73392329D01*
X157148826Y-73367191D01*
X157157608Y-73347303D01*
X157171191Y-73333719D01*
X157186223Y-73311223D01*
X157208719Y-73296191D01*
X157222303Y-73282608D01*
X157242191Y-73273826D01*
X157267329Y-73257030D01*
X157290808Y-73252359D01*
X157307959Y-73244787D01*
X157358151Y-73238964D01*
X157363000Y-73238000D01*
X158613000Y-73238000D01*
X158617850Y-73238964D01*
G37*
G36*
X126689635Y-72774006D02*
G01*
X125275421Y-74188220D01*
X123154101Y-72066900D01*
X124207214Y-71013787D01*
X124564140Y-70656860D01*
X124564143Y-70656857D01*
X124568315Y-70652686D01*
X126689635Y-72774006D01*
G37*
G36*
X189314000Y-74118000D02*
G01*
X187314000Y-74118000D01*
X187314000Y-73218000D01*
X189314000Y-73218000D01*
X189314000Y-74118000D01*
G37*
G36*
X163443850Y-72730964D02*
G01*
X163494040Y-72736787D01*
X163511189Y-72744359D01*
X163534671Y-72749030D01*
X163559810Y-72765827D01*
X163579696Y-72774608D01*
X163593277Y-72788189D01*
X163615777Y-72803223D01*
X163630810Y-72825722D01*
X163644391Y-72839303D01*
X163653170Y-72859186D01*
X163669970Y-72884329D01*
X163674641Y-72907812D01*
X163682212Y-72924959D01*
X163688033Y-72975139D01*
X163689000Y-72980000D01*
X163689000Y-73780000D01*
X163688032Y-73784863D01*
X163682212Y-73835040D01*
X163674641Y-73852185D01*
X163669970Y-73875671D01*
X163653169Y-73900815D01*
X163644391Y-73920696D01*
X163630812Y-73934274D01*
X163615777Y-73956777D01*
X163593274Y-73971812D01*
X163579696Y-73985391D01*
X163559815Y-73994169D01*
X163534671Y-74010970D01*
X163511185Y-74015641D01*
X163494040Y-74023212D01*
X163443861Y-74029032D01*
X163439000Y-74030000D01*
X162189000Y-74030000D01*
X162184138Y-74029032D01*
X162133959Y-74023212D01*
X162116812Y-74015641D01*
X162093329Y-74010970D01*
X162068186Y-73994170D01*
X162048303Y-73985391D01*
X162034722Y-73971810D01*
X162012223Y-73956777D01*
X161997189Y-73934277D01*
X161983608Y-73920696D01*
X161974827Y-73900810D01*
X161958030Y-73875671D01*
X161953359Y-73852189D01*
X161945787Y-73835040D01*
X161939964Y-73784849D01*
X161939000Y-73780000D01*
X161939000Y-72980000D01*
X161939964Y-72975150D01*
X161945787Y-72924959D01*
X161953359Y-72907808D01*
X161958030Y-72884329D01*
X161974826Y-72859191D01*
X161983608Y-72839303D01*
X161997191Y-72825719D01*
X162012223Y-72803223D01*
X162034719Y-72788191D01*
X162048303Y-72774608D01*
X162068191Y-72765826D01*
X162093329Y-72749030D01*
X162116808Y-72744359D01*
X162133959Y-72736787D01*
X162184151Y-72730964D01*
X162189000Y-72730000D01*
X163439000Y-72730000D01*
X163443850Y-72730964D01*
G37*
G36*
X168269850Y-72222964D02*
G01*
X168320040Y-72228787D01*
X168337189Y-72236359D01*
X168360671Y-72241030D01*
X168385810Y-72257827D01*
X168405696Y-72266608D01*
X168419277Y-72280189D01*
X168441777Y-72295223D01*
X168456810Y-72317722D01*
X168470391Y-72331303D01*
X168479170Y-72351186D01*
X168495970Y-72376329D01*
X168500641Y-72399812D01*
X168508212Y-72416959D01*
X168514033Y-72467139D01*
X168515000Y-72472000D01*
X168515000Y-73272000D01*
X168514032Y-73276863D01*
X168508212Y-73327040D01*
X168500641Y-73344185D01*
X168495970Y-73367671D01*
X168479169Y-73392815D01*
X168470391Y-73412696D01*
X168456812Y-73426274D01*
X168441777Y-73448777D01*
X168419274Y-73463812D01*
X168405696Y-73477391D01*
X168385815Y-73486169D01*
X168360671Y-73502970D01*
X168337185Y-73507641D01*
X168320040Y-73515212D01*
X168269861Y-73521032D01*
X168265000Y-73522000D01*
X167015000Y-73522000D01*
X167010138Y-73521032D01*
X166959959Y-73515212D01*
X166942812Y-73507641D01*
X166919329Y-73502970D01*
X166894186Y-73486170D01*
X166874303Y-73477391D01*
X166860722Y-73463810D01*
X166838223Y-73448777D01*
X166823189Y-73426277D01*
X166809608Y-73412696D01*
X166800827Y-73392810D01*
X166784030Y-73367671D01*
X166779359Y-73344189D01*
X166771787Y-73327040D01*
X166765964Y-73276849D01*
X166765000Y-73272000D01*
X166765000Y-72472000D01*
X166765964Y-72467150D01*
X166771787Y-72416959D01*
X166779359Y-72399808D01*
X166784030Y-72376329D01*
X166800826Y-72351191D01*
X166809608Y-72331303D01*
X166823191Y-72317719D01*
X166838223Y-72295223D01*
X166860719Y-72280191D01*
X166874303Y-72266608D01*
X166894191Y-72257826D01*
X166919329Y-72241030D01*
X166942808Y-72236359D01*
X166959959Y-72228787D01*
X167010151Y-72222964D01*
X167015000Y-72222000D01*
X168265000Y-72222000D01*
X168269850Y-72222964D01*
G37*
G36*
X189314000Y-72848000D02*
G01*
X187314000Y-72848000D01*
X187314000Y-71948000D01*
X189314000Y-71948000D01*
X189314000Y-72848000D01*
G37*
G36*
X133474850Y-71007964D02*
G01*
X133525040Y-71013787D01*
X133542189Y-71021359D01*
X133565671Y-71026030D01*
X133590810Y-71042827D01*
X133610696Y-71051608D01*
X133624277Y-71065189D01*
X133646777Y-71080223D01*
X133661810Y-71102722D01*
X133675391Y-71116303D01*
X133684170Y-71136186D01*
X133700970Y-71161329D01*
X133705641Y-71184812D01*
X133713212Y-71201959D01*
X133719033Y-71252139D01*
X133720000Y-71257000D01*
X133720000Y-72507000D01*
X133719032Y-72511863D01*
X133713212Y-72562040D01*
X133705641Y-72579185D01*
X133700970Y-72602671D01*
X133684169Y-72627815D01*
X133675391Y-72647696D01*
X133661812Y-72661274D01*
X133646777Y-72683777D01*
X133624274Y-72698812D01*
X133610696Y-72712391D01*
X133590815Y-72721169D01*
X133565671Y-72737970D01*
X133542185Y-72742641D01*
X133525040Y-72750212D01*
X133474861Y-72756032D01*
X133470000Y-72757000D01*
X132670000Y-72757000D01*
X132665138Y-72756032D01*
X132614959Y-72750212D01*
X132597812Y-72742641D01*
X132574329Y-72737970D01*
X132549186Y-72721170D01*
X132529303Y-72712391D01*
X132515722Y-72698810D01*
X132493223Y-72683777D01*
X132478189Y-72661277D01*
X132464608Y-72647696D01*
X132455827Y-72627810D01*
X132439030Y-72602671D01*
X132434359Y-72579189D01*
X132426787Y-72562040D01*
X132420964Y-72511849D01*
X132420000Y-72507000D01*
X132420000Y-71257000D01*
X132420964Y-71252150D01*
X132426787Y-71201959D01*
X132434359Y-71184808D01*
X132439030Y-71161329D01*
X132455826Y-71136191D01*
X132464608Y-71116303D01*
X132478191Y-71102719D01*
X132493223Y-71080223D01*
X132515719Y-71065191D01*
X132529303Y-71051608D01*
X132549191Y-71042826D01*
X132574329Y-71026030D01*
X132597808Y-71021359D01*
X132614959Y-71013787D01*
X132665151Y-71007964D01*
X132670000Y-71007000D01*
X133470000Y-71007000D01*
X133474850Y-71007964D01*
G37*
G36*
X136574850Y-71007964D02*
G01*
X136625040Y-71013787D01*
X136642189Y-71021359D01*
X136665671Y-71026030D01*
X136690810Y-71042827D01*
X136710696Y-71051608D01*
X136724277Y-71065189D01*
X136746777Y-71080223D01*
X136761810Y-71102722D01*
X136775391Y-71116303D01*
X136784170Y-71136186D01*
X136800970Y-71161329D01*
X136805641Y-71184812D01*
X136813212Y-71201959D01*
X136819033Y-71252139D01*
X136820000Y-71257000D01*
X136820000Y-72507000D01*
X136819032Y-72511863D01*
X136813212Y-72562040D01*
X136805641Y-72579185D01*
X136800970Y-72602671D01*
X136784169Y-72627815D01*
X136775391Y-72647696D01*
X136761812Y-72661274D01*
X136746777Y-72683777D01*
X136724274Y-72698812D01*
X136710696Y-72712391D01*
X136690815Y-72721169D01*
X136665671Y-72737970D01*
X136642185Y-72742641D01*
X136625040Y-72750212D01*
X136574861Y-72756032D01*
X136570000Y-72757000D01*
X135770000Y-72757000D01*
X135765138Y-72756032D01*
X135714959Y-72750212D01*
X135697812Y-72742641D01*
X135674329Y-72737970D01*
X135649186Y-72721170D01*
X135629303Y-72712391D01*
X135615722Y-72698810D01*
X135593223Y-72683777D01*
X135578189Y-72661277D01*
X135564608Y-72647696D01*
X135555827Y-72627810D01*
X135539030Y-72602671D01*
X135534359Y-72579189D01*
X135526787Y-72562040D01*
X135520964Y-72511849D01*
X135520000Y-72507000D01*
X135520000Y-71257000D01*
X135520964Y-71252150D01*
X135526787Y-71201959D01*
X135534359Y-71184808D01*
X135539030Y-71161329D01*
X135555826Y-71136191D01*
X135564608Y-71116303D01*
X135578191Y-71102719D01*
X135593223Y-71080223D01*
X135615719Y-71065191D01*
X135629303Y-71051608D01*
X135649191Y-71042826D01*
X135674329Y-71026030D01*
X135697808Y-71021359D01*
X135714959Y-71013787D01*
X135765151Y-71007964D01*
X135770000Y-71007000D01*
X136570000Y-71007000D01*
X136574850Y-71007964D01*
G37*
G36*
X141348850Y-71007964D02*
G01*
X141399040Y-71013787D01*
X141416189Y-71021359D01*
X141439671Y-71026030D01*
X141464810Y-71042827D01*
X141484696Y-71051608D01*
X141498277Y-71065189D01*
X141520777Y-71080223D01*
X141535810Y-71102722D01*
X141549391Y-71116303D01*
X141558170Y-71136186D01*
X141574970Y-71161329D01*
X141579641Y-71184812D01*
X141587212Y-71201959D01*
X141593033Y-71252139D01*
X141594000Y-71257000D01*
X141594000Y-72507000D01*
X141593032Y-72511863D01*
X141587212Y-72562040D01*
X141579641Y-72579185D01*
X141574970Y-72602671D01*
X141558169Y-72627815D01*
X141549391Y-72647696D01*
X141535812Y-72661274D01*
X141520777Y-72683777D01*
X141498274Y-72698812D01*
X141484696Y-72712391D01*
X141464815Y-72721169D01*
X141439671Y-72737970D01*
X141416185Y-72742641D01*
X141399040Y-72750212D01*
X141348861Y-72756032D01*
X141344000Y-72757000D01*
X140544000Y-72757000D01*
X140539138Y-72756032D01*
X140488959Y-72750212D01*
X140471812Y-72742641D01*
X140448329Y-72737970D01*
X140423186Y-72721170D01*
X140403303Y-72712391D01*
X140389722Y-72698810D01*
X140367223Y-72683777D01*
X140352189Y-72661277D01*
X140338608Y-72647696D01*
X140329827Y-72627810D01*
X140313030Y-72602671D01*
X140308359Y-72579189D01*
X140300787Y-72562040D01*
X140294964Y-72511849D01*
X140294000Y-72507000D01*
X140294000Y-71257000D01*
X140294964Y-71252150D01*
X140300787Y-71201959D01*
X140308359Y-71184808D01*
X140313030Y-71161329D01*
X140329826Y-71136191D01*
X140338608Y-71116303D01*
X140352191Y-71102719D01*
X140367223Y-71080223D01*
X140389719Y-71065191D01*
X140403303Y-71051608D01*
X140423191Y-71042826D01*
X140448329Y-71026030D01*
X140471808Y-71021359D01*
X140488959Y-71013787D01*
X140539151Y-71007964D01*
X140544000Y-71007000D01*
X141344000Y-71007000D01*
X141348850Y-71007964D01*
G37*
G36*
X144448850Y-71007964D02*
G01*
X144499040Y-71013787D01*
X144516189Y-71021359D01*
X144539671Y-71026030D01*
X144564810Y-71042827D01*
X144584696Y-71051608D01*
X144598277Y-71065189D01*
X144620777Y-71080223D01*
X144635810Y-71102722D01*
X144649391Y-71116303D01*
X144658170Y-71136186D01*
X144674970Y-71161329D01*
X144679641Y-71184812D01*
X144687212Y-71201959D01*
X144693033Y-71252139D01*
X144694000Y-71257000D01*
X144694000Y-72507000D01*
X144693032Y-72511863D01*
X144687212Y-72562040D01*
X144679641Y-72579185D01*
X144674970Y-72602671D01*
X144658169Y-72627815D01*
X144649391Y-72647696D01*
X144635812Y-72661274D01*
X144620777Y-72683777D01*
X144598274Y-72698812D01*
X144584696Y-72712391D01*
X144564815Y-72721169D01*
X144539671Y-72737970D01*
X144516185Y-72742641D01*
X144499040Y-72750212D01*
X144448861Y-72756032D01*
X144444000Y-72757000D01*
X143644000Y-72757000D01*
X143639138Y-72756032D01*
X143588959Y-72750212D01*
X143571812Y-72742641D01*
X143548329Y-72737970D01*
X143523186Y-72721170D01*
X143503303Y-72712391D01*
X143489722Y-72698810D01*
X143467223Y-72683777D01*
X143452189Y-72661277D01*
X143438608Y-72647696D01*
X143429827Y-72627810D01*
X143413030Y-72602671D01*
X143408359Y-72579189D01*
X143400787Y-72562040D01*
X143394964Y-72511849D01*
X143394000Y-72507000D01*
X143394000Y-71257000D01*
X143394964Y-71252150D01*
X143400787Y-71201959D01*
X143408359Y-71184808D01*
X143413030Y-71161329D01*
X143429826Y-71136191D01*
X143438608Y-71116303D01*
X143452191Y-71102719D01*
X143467223Y-71080223D01*
X143489719Y-71065191D01*
X143503303Y-71051608D01*
X143523191Y-71042826D01*
X143548329Y-71026030D01*
X143571808Y-71021359D01*
X143588959Y-71013787D01*
X143639151Y-71007964D01*
X143644000Y-71007000D01*
X144444000Y-71007000D01*
X144448850Y-71007964D01*
G37*
G36*
X189314000Y-71578000D02*
G01*
X187314000Y-71578000D01*
X187314000Y-70678000D01*
X189314000Y-70678000D01*
X189314000Y-71578000D01*
G37*
G36*
X153554000Y-70496000D02*
G01*
X151754000Y-70496000D01*
X151754000Y-68696000D01*
X153554000Y-68696000D01*
X153554000Y-70496000D01*
G37*
G36*
X159904000Y-70496000D02*
G01*
X158104000Y-70496000D01*
X158104000Y-68696000D01*
X159904000Y-68696000D01*
X159904000Y-70496000D01*
G37*
G36*
X166254000Y-70496000D02*
G01*
X164454000Y-70496000D01*
X164454000Y-68696000D01*
X166254000Y-68696000D01*
X166254000Y-70496000D01*
G37*
G36*
X189314000Y-70308000D02*
G01*
X187314000Y-70308000D01*
X187314000Y-69408000D01*
X189314000Y-69408000D01*
X189314000Y-70308000D01*
G37*
G36*
X137197000Y-70057000D02*
G01*
X135297000Y-70057000D01*
X135297000Y-69257000D01*
X137197000Y-69257000D01*
X137197000Y-70057000D01*
G37*
G36*
X144944000Y-70057000D02*
G01*
X143044000Y-70057000D01*
X143044000Y-69257000D01*
X144944000Y-69257000D01*
X144944000Y-70057000D01*
G37*
G36*
X134197000Y-69107000D02*
G01*
X132297000Y-69107000D01*
X132297000Y-68307000D01*
X134197000Y-68307000D01*
X134197000Y-69107000D01*
G37*
G36*
X141944000Y-69107000D02*
G01*
X140044000Y-69107000D01*
X140044000Y-68307000D01*
X141944000Y-68307000D01*
X141944000Y-69107000D01*
G37*
G36*
X189314000Y-69038000D02*
G01*
X187314000Y-69038000D01*
X187314000Y-68138000D01*
X189314000Y-68138000D01*
X189314000Y-69038000D01*
G37*
G36*
X137197000Y-68157000D02*
G01*
X135297000Y-68157000D01*
X135297000Y-67357000D01*
X137197000Y-67357000D01*
X137197000Y-68157000D01*
G37*
G36*
X144944000Y-68157000D02*
G01*
X143044000Y-68157000D01*
X143044000Y-67357000D01*
X144944000Y-67357000D01*
X144944000Y-68157000D01*
G37*
G36*
X152701113Y-66160930D02*
G01*
X152748076Y-66160930D01*
X152788622Y-66169548D01*
X152829526Y-66173577D01*
X152880916Y-66189166D01*
X152932115Y-66200049D01*
X152964879Y-66214636D01*
X152998304Y-66224776D01*
X153051420Y-66253166D01*
X153104000Y-66276577D01*
X153128445Y-66294337D01*
X153153849Y-66307916D01*
X153205669Y-66350444D01*
X153256218Y-66387170D01*
X153272631Y-66405398D01*
X153290190Y-66419809D01*
X153337379Y-66477308D01*
X153382115Y-66526993D01*
X153391512Y-66543269D01*
X153402083Y-66556150D01*
X153441183Y-66629302D01*
X153476191Y-66689937D01*
X153480218Y-66702331D01*
X153485223Y-66711695D01*
X153512821Y-66802672D01*
X153534333Y-66868879D01*
X153535090Y-66876082D01*
X153536422Y-66880473D01*
X153549377Y-67012021D01*
X153554000Y-67056000D01*
X153549377Y-67099982D01*
X153536422Y-67231526D01*
X153535090Y-67235916D01*
X153534333Y-67243121D01*
X153512816Y-67309341D01*
X153485223Y-67400304D01*
X153480219Y-67409665D01*
X153476191Y-67422063D01*
X153441176Y-67482709D01*
X153402083Y-67555849D01*
X153391514Y-67568726D01*
X153382115Y-67585007D01*
X153337369Y-67634701D01*
X153290190Y-67692190D01*
X153272634Y-67706597D01*
X153256218Y-67724830D01*
X153205659Y-67761563D01*
X153153849Y-67804083D01*
X153128450Y-67817658D01*
X153104000Y-67835423D01*
X153051408Y-67858838D01*
X152998304Y-67887223D01*
X152964886Y-67897360D01*
X152932115Y-67911951D01*
X152880905Y-67922836D01*
X152829526Y-67938422D01*
X152788631Y-67942449D01*
X152748076Y-67951070D01*
X152701103Y-67951070D01*
X152654000Y-67955709D01*
X152606897Y-67951070D01*
X152559924Y-67951070D01*
X152519368Y-67942449D01*
X152478473Y-67938422D01*
X152427091Y-67922835D01*
X152375885Y-67911951D01*
X152343115Y-67897361D01*
X152309695Y-67887223D01*
X152256585Y-67858835D01*
X152204000Y-67835423D01*
X152179552Y-67817660D01*
X152154150Y-67804083D01*
X152102332Y-67761556D01*
X152051782Y-67724830D01*
X152035368Y-67706600D01*
X152017809Y-67692190D01*
X151970618Y-67634688D01*
X151925885Y-67585007D01*
X151916487Y-67568730D01*
X151905916Y-67555849D01*
X151866810Y-67482686D01*
X151831809Y-67422063D01*
X151827782Y-67409670D01*
X151822776Y-67400304D01*
X151795168Y-67309294D01*
X151773667Y-67243121D01*
X151772910Y-67235921D01*
X151771577Y-67231526D01*
X151758606Y-67099831D01*
X151754000Y-67056000D01*
X151758606Y-67012172D01*
X151771577Y-66880473D01*
X151772910Y-66876077D01*
X151773667Y-66868879D01*
X151795163Y-66802719D01*
X151822776Y-66711695D01*
X151827783Y-66702327D01*
X151831809Y-66689937D01*
X151866802Y-66629326D01*
X151905916Y-66556150D01*
X151916489Y-66543265D01*
X151925885Y-66526993D01*
X151970609Y-66477321D01*
X152017809Y-66419809D01*
X152035371Y-66405395D01*
X152051782Y-66387170D01*
X152102321Y-66350450D01*
X152154150Y-66307916D01*
X152179557Y-66294335D01*
X152204000Y-66276577D01*
X152256573Y-66253169D01*
X152309695Y-66224776D01*
X152343122Y-66214635D01*
X152375885Y-66200049D01*
X152427080Y-66189166D01*
X152478473Y-66173577D01*
X152519377Y-66169548D01*
X152559924Y-66160930D01*
X152606887Y-66160930D01*
X152654000Y-66156290D01*
X152701113Y-66160930D01*
G37*
G36*
X159051113Y-66160930D02*
G01*
X159098076Y-66160930D01*
X159138622Y-66169548D01*
X159179526Y-66173577D01*
X159230916Y-66189166D01*
X159282115Y-66200049D01*
X159314879Y-66214636D01*
X159348304Y-66224776D01*
X159401420Y-66253166D01*
X159454000Y-66276577D01*
X159478445Y-66294337D01*
X159503849Y-66307916D01*
X159555669Y-66350444D01*
X159606218Y-66387170D01*
X159622631Y-66405398D01*
X159640190Y-66419809D01*
X159687379Y-66477308D01*
X159732115Y-66526993D01*
X159741512Y-66543269D01*
X159752083Y-66556150D01*
X159791183Y-66629302D01*
X159826191Y-66689937D01*
X159830218Y-66702331D01*
X159835223Y-66711695D01*
X159862821Y-66802672D01*
X159884333Y-66868879D01*
X159885090Y-66876082D01*
X159886422Y-66880473D01*
X159899377Y-67012021D01*
X159904000Y-67056000D01*
X159899377Y-67099982D01*
X159886422Y-67231526D01*
X159885090Y-67235916D01*
X159884333Y-67243121D01*
X159862816Y-67309341D01*
X159835223Y-67400304D01*
X159830219Y-67409665D01*
X159826191Y-67422063D01*
X159791176Y-67482709D01*
X159752083Y-67555849D01*
X159741514Y-67568726D01*
X159732115Y-67585007D01*
X159687369Y-67634701D01*
X159640190Y-67692190D01*
X159622634Y-67706597D01*
X159606218Y-67724830D01*
X159555659Y-67761563D01*
X159503849Y-67804083D01*
X159478450Y-67817658D01*
X159454000Y-67835423D01*
X159401408Y-67858838D01*
X159348304Y-67887223D01*
X159314886Y-67897360D01*
X159282115Y-67911951D01*
X159230905Y-67922836D01*
X159179526Y-67938422D01*
X159138631Y-67942449D01*
X159098076Y-67951070D01*
X159051103Y-67951070D01*
X159004000Y-67955709D01*
X158956897Y-67951070D01*
X158909924Y-67951070D01*
X158869368Y-67942449D01*
X158828473Y-67938422D01*
X158777091Y-67922835D01*
X158725885Y-67911951D01*
X158693115Y-67897361D01*
X158659695Y-67887223D01*
X158606585Y-67858835D01*
X158554000Y-67835423D01*
X158529552Y-67817660D01*
X158504150Y-67804083D01*
X158452332Y-67761556D01*
X158401782Y-67724830D01*
X158385368Y-67706600D01*
X158367809Y-67692190D01*
X158320618Y-67634688D01*
X158275885Y-67585007D01*
X158266487Y-67568730D01*
X158255916Y-67555849D01*
X158216810Y-67482686D01*
X158181809Y-67422063D01*
X158177782Y-67409670D01*
X158172776Y-67400304D01*
X158145168Y-67309294D01*
X158123667Y-67243121D01*
X158122910Y-67235921D01*
X158121577Y-67231526D01*
X158108606Y-67099831D01*
X158104000Y-67056000D01*
X158108606Y-67012172D01*
X158121577Y-66880473D01*
X158122910Y-66876077D01*
X158123667Y-66868879D01*
X158145163Y-66802719D01*
X158172776Y-66711695D01*
X158177783Y-66702327D01*
X158181809Y-66689937D01*
X158216802Y-66629326D01*
X158255916Y-66556150D01*
X158266489Y-66543265D01*
X158275885Y-66526993D01*
X158320609Y-66477321D01*
X158367809Y-66419809D01*
X158385371Y-66405395D01*
X158401782Y-66387170D01*
X158452321Y-66350450D01*
X158504150Y-66307916D01*
X158529557Y-66294335D01*
X158554000Y-66276577D01*
X158606573Y-66253169D01*
X158659695Y-66224776D01*
X158693122Y-66214635D01*
X158725885Y-66200049D01*
X158777080Y-66189166D01*
X158828473Y-66173577D01*
X158869377Y-66169548D01*
X158909924Y-66160930D01*
X158956887Y-66160930D01*
X159004000Y-66156290D01*
X159051113Y-66160930D01*
G37*
G36*
X165401113Y-66160930D02*
G01*
X165448076Y-66160930D01*
X165488622Y-66169548D01*
X165529526Y-66173577D01*
X165580916Y-66189166D01*
X165632115Y-66200049D01*
X165664879Y-66214636D01*
X165698304Y-66224776D01*
X165751420Y-66253166D01*
X165804000Y-66276577D01*
X165828445Y-66294337D01*
X165853849Y-66307916D01*
X165905669Y-66350444D01*
X165956218Y-66387170D01*
X165972631Y-66405398D01*
X165990190Y-66419809D01*
X166037379Y-66477308D01*
X166082115Y-66526993D01*
X166091512Y-66543269D01*
X166102083Y-66556150D01*
X166141183Y-66629302D01*
X166176191Y-66689937D01*
X166180218Y-66702331D01*
X166185223Y-66711695D01*
X166212821Y-66802672D01*
X166234333Y-66868879D01*
X166235090Y-66876082D01*
X166236422Y-66880473D01*
X166249377Y-67012021D01*
X166254000Y-67056000D01*
X166249377Y-67099982D01*
X166236422Y-67231526D01*
X166235090Y-67235916D01*
X166234333Y-67243121D01*
X166212816Y-67309341D01*
X166185223Y-67400304D01*
X166180219Y-67409665D01*
X166176191Y-67422063D01*
X166141176Y-67482709D01*
X166102083Y-67555849D01*
X166091514Y-67568726D01*
X166082115Y-67585007D01*
X166037369Y-67634701D01*
X165990190Y-67692190D01*
X165972634Y-67706597D01*
X165956218Y-67724830D01*
X165905659Y-67761563D01*
X165853849Y-67804083D01*
X165828450Y-67817658D01*
X165804000Y-67835423D01*
X165751408Y-67858838D01*
X165698304Y-67887223D01*
X165664886Y-67897360D01*
X165632115Y-67911951D01*
X165580905Y-67922836D01*
X165529526Y-67938422D01*
X165488631Y-67942449D01*
X165448076Y-67951070D01*
X165401103Y-67951070D01*
X165354000Y-67955709D01*
X165306897Y-67951070D01*
X165259924Y-67951070D01*
X165219368Y-67942449D01*
X165178473Y-67938422D01*
X165127091Y-67922835D01*
X165075885Y-67911951D01*
X165043115Y-67897361D01*
X165009695Y-67887223D01*
X164956585Y-67858835D01*
X164904000Y-67835423D01*
X164879552Y-67817660D01*
X164854150Y-67804083D01*
X164802332Y-67761556D01*
X164751782Y-67724830D01*
X164735368Y-67706600D01*
X164717809Y-67692190D01*
X164670618Y-67634688D01*
X164625885Y-67585007D01*
X164616487Y-67568730D01*
X164605916Y-67555849D01*
X164566810Y-67482686D01*
X164531809Y-67422063D01*
X164527782Y-67409670D01*
X164522776Y-67400304D01*
X164495168Y-67309294D01*
X164473667Y-67243121D01*
X164472910Y-67235921D01*
X164471577Y-67231526D01*
X164458606Y-67099831D01*
X164454000Y-67056000D01*
X164458606Y-67012172D01*
X164471577Y-66880473D01*
X164472910Y-66876077D01*
X164473667Y-66868879D01*
X164495163Y-66802719D01*
X164522776Y-66711695D01*
X164527783Y-66702327D01*
X164531809Y-66689937D01*
X164566802Y-66629326D01*
X164605916Y-66556150D01*
X164616489Y-66543265D01*
X164625885Y-66526993D01*
X164670609Y-66477321D01*
X164717809Y-66419809D01*
X164735371Y-66405395D01*
X164751782Y-66387170D01*
X164802321Y-66350450D01*
X164854150Y-66307916D01*
X164879557Y-66294335D01*
X164904000Y-66276577D01*
X164956573Y-66253169D01*
X165009695Y-66224776D01*
X165043122Y-66214635D01*
X165075885Y-66200049D01*
X165127080Y-66189166D01*
X165178473Y-66173577D01*
X165219377Y-66169548D01*
X165259924Y-66160930D01*
X165306887Y-66160930D01*
X165354000Y-66156290D01*
X165401113Y-66160930D01*
G37*
G36*
X189314000Y-67768000D02*
G01*
X187314000Y-67768000D01*
X187314000Y-66868000D01*
X189314000Y-66868000D01*
X189314000Y-67768000D01*
G37*
G36*
X182988000Y-66718000D02*
G01*
X181288000Y-66718000D01*
X181288000Y-65018000D01*
X182988000Y-65018000D01*
X182988000Y-66718000D01*
G37*
G36*
X172240664Y-65059602D02*
G01*
X172403000Y-65131878D01*
X172546761Y-65236327D01*
X172665664Y-65368383D01*
X172754514Y-65522274D01*
X172809425Y-65691275D01*
X172828000Y-65868000D01*
X172809425Y-66044725D01*
X172754514Y-66213726D01*
X172665664Y-66367617D01*
X172546761Y-66499673D01*
X172403000Y-66604122D01*
X172240664Y-66676398D01*
X172066849Y-66713344D01*
X171889151Y-66713344D01*
X171715336Y-66676398D01*
X171553000Y-66604122D01*
X171409239Y-66499673D01*
X171290336Y-66367617D01*
X171201486Y-66213726D01*
X171146575Y-66044725D01*
X171128000Y-65868000D01*
X171146575Y-65691275D01*
X171201486Y-65522274D01*
X171290336Y-65368383D01*
X171409239Y-65236327D01*
X171553000Y-65131878D01*
X171715336Y-65059602D01*
X171889151Y-65022656D01*
X172066849Y-65022656D01*
X172240664Y-65059602D01*
G37*
G36*
X174780664Y-65059602D02*
G01*
X174943000Y-65131878D01*
X175086761Y-65236327D01*
X175205664Y-65368383D01*
X175294514Y-65522274D01*
X175349425Y-65691275D01*
X175368000Y-65868000D01*
X175349425Y-66044725D01*
X175294514Y-66213726D01*
X175205664Y-66367617D01*
X175086761Y-66499673D01*
X174943000Y-66604122D01*
X174780664Y-66676398D01*
X174606849Y-66713344D01*
X174429151Y-66713344D01*
X174255336Y-66676398D01*
X174093000Y-66604122D01*
X173949239Y-66499673D01*
X173830336Y-66367617D01*
X173741486Y-66213726D01*
X173686575Y-66044725D01*
X173668000Y-65868000D01*
X173686575Y-65691275D01*
X173741486Y-65522274D01*
X173830336Y-65368383D01*
X173949239Y-65236327D01*
X174093000Y-65131878D01*
X174255336Y-65059602D01*
X174429151Y-65022656D01*
X174606849Y-65022656D01*
X174780664Y-65059602D01*
G37*
G36*
X177320664Y-65059602D02*
G01*
X177483000Y-65131878D01*
X177626761Y-65236327D01*
X177745664Y-65368383D01*
X177834514Y-65522274D01*
X177889425Y-65691275D01*
X177908000Y-65868000D01*
X177889425Y-66044725D01*
X177834514Y-66213726D01*
X177745664Y-66367617D01*
X177626761Y-66499673D01*
X177483000Y-66604122D01*
X177320664Y-66676398D01*
X177146849Y-66713344D01*
X176969151Y-66713344D01*
X176795336Y-66676398D01*
X176633000Y-66604122D01*
X176489239Y-66499673D01*
X176370336Y-66367617D01*
X176281486Y-66213726D01*
X176226575Y-66044725D01*
X176208000Y-65868000D01*
X176226575Y-65691275D01*
X176281486Y-65522274D01*
X176370336Y-65368383D01*
X176489239Y-65236327D01*
X176633000Y-65131878D01*
X176795336Y-65059602D01*
X176969151Y-65022656D01*
X177146849Y-65022656D01*
X177320664Y-65059602D01*
G37*
G36*
X179860664Y-65059602D02*
G01*
X180023000Y-65131878D01*
X180166761Y-65236327D01*
X180285664Y-65368383D01*
X180374514Y-65522274D01*
X180429425Y-65691275D01*
X180448000Y-65868000D01*
X180429425Y-66044725D01*
X180374514Y-66213726D01*
X180285664Y-66367617D01*
X180166761Y-66499673D01*
X180023000Y-66604122D01*
X179860664Y-66676398D01*
X179686849Y-66713344D01*
X179509151Y-66713344D01*
X179335336Y-66676398D01*
X179173000Y-66604122D01*
X179029239Y-66499673D01*
X178910336Y-66367617D01*
X178821486Y-66213726D01*
X178766575Y-66044725D01*
X178748000Y-65868000D01*
X178766575Y-65691275D01*
X178821486Y-65522274D01*
X178910336Y-65368383D01*
X179029239Y-65236327D01*
X179173000Y-65131878D01*
X179335336Y-65059602D01*
X179509151Y-65022656D01*
X179686849Y-65022656D01*
X179860664Y-65059602D01*
G37*
G36*
X191824000Y-65908000D02*
G01*
X189524000Y-65908000D01*
X189524000Y-63608000D01*
X191824000Y-63608000D01*
X191824000Y-65908000D01*
G37*
M02*
