%TF.GenerationSoftware,KiCad,Pcbnew,7.0.8*%
%TF.CreationDate,2024-01-15T19:48:56-06:00*%
%TF.ProjectId,ISA rev8,49534120-7265-4763-982e-6b696361645f,rev?*%
%TF.SameCoordinates,Original*%
%TF.FileFunction,Soldermask,Bot*%
%TF.FilePolarity,Negative*%
%FSLAX46Y46*%
G04 Gerber Fmt 4.6, Leading zero omitted, Abs format (unit mm)*
G04 Created by KiCad (PCBNEW 7.0.8) date 2024-01-15 19:48:56*
%MOMM*%
%LPD*%
G01*
G04 APERTURE LIST*
G04 APERTURE END LIST*
G36*
X104273000Y-130302000D02*
G01*
X102493000Y-130302000D01*
X102493000Y-122682000D01*
X104273000Y-122682000D01*
X104273000Y-130302000D01*
G37*
G36*
X106813000Y-130302000D02*
G01*
X105033000Y-130302000D01*
X105033000Y-122682000D01*
X106813000Y-122682000D01*
X106813000Y-130302000D01*
G37*
G36*
X109353000Y-130302000D02*
G01*
X107573000Y-130302000D01*
X107573000Y-122682000D01*
X109353000Y-122682000D01*
X109353000Y-130302000D01*
G37*
G36*
X111893000Y-130302000D02*
G01*
X110113000Y-130302000D01*
X110113000Y-122682000D01*
X111893000Y-122682000D01*
X111893000Y-130302000D01*
G37*
G36*
X114433000Y-130302000D02*
G01*
X112653000Y-130302000D01*
X112653000Y-122682000D01*
X114433000Y-122682000D01*
X114433000Y-130302000D01*
G37*
G36*
X116973000Y-130302000D02*
G01*
X115193000Y-130302000D01*
X115193000Y-122682000D01*
X116973000Y-122682000D01*
X116973000Y-130302000D01*
G37*
G36*
X119513000Y-130302000D02*
G01*
X117733000Y-130302000D01*
X117733000Y-122682000D01*
X119513000Y-122682000D01*
X119513000Y-130302000D01*
G37*
G36*
X122053000Y-130302000D02*
G01*
X120273000Y-130302000D01*
X120273000Y-122682000D01*
X122053000Y-122682000D01*
X122053000Y-130302000D01*
G37*
G36*
X124593000Y-130302000D02*
G01*
X122813000Y-130302000D01*
X122813000Y-122682000D01*
X124593000Y-122682000D01*
X124593000Y-130302000D01*
G37*
G36*
X127133000Y-130302000D02*
G01*
X125353000Y-130302000D01*
X125353000Y-122682000D01*
X127133000Y-122682000D01*
X127133000Y-130302000D01*
G37*
G36*
X129673000Y-130302000D02*
G01*
X127893000Y-130302000D01*
X127893000Y-122682000D01*
X129673000Y-122682000D01*
X129673000Y-130302000D01*
G37*
G36*
X132213000Y-130302000D02*
G01*
X130433000Y-130302000D01*
X130433000Y-122682000D01*
X132213000Y-122682000D01*
X132213000Y-130302000D01*
G37*
G36*
X134753000Y-130302000D02*
G01*
X132973000Y-130302000D01*
X132973000Y-122682000D01*
X134753000Y-122682000D01*
X134753000Y-130302000D01*
G37*
G36*
X137293000Y-130302000D02*
G01*
X135513000Y-130302000D01*
X135513000Y-122682000D01*
X137293000Y-122682000D01*
X137293000Y-130302000D01*
G37*
G36*
X139833000Y-130302000D02*
G01*
X138053000Y-130302000D01*
X138053000Y-122682000D01*
X139833000Y-122682000D01*
X139833000Y-130302000D01*
G37*
G36*
X142373000Y-130302000D02*
G01*
X140593000Y-130302000D01*
X140593000Y-122682000D01*
X142373000Y-122682000D01*
X142373000Y-130302000D01*
G37*
G36*
X144913000Y-130302000D02*
G01*
X143133000Y-130302000D01*
X143133000Y-122682000D01*
X144913000Y-122682000D01*
X144913000Y-130302000D01*
G37*
G36*
X147453000Y-130302000D02*
G01*
X145673000Y-130302000D01*
X145673000Y-122682000D01*
X147453000Y-122682000D01*
X147453000Y-130302000D01*
G37*
G36*
X149993000Y-130302000D02*
G01*
X148213000Y-130302000D01*
X148213000Y-122682000D01*
X149993000Y-122682000D01*
X149993000Y-130302000D01*
G37*
G36*
X152533000Y-130302000D02*
G01*
X150753000Y-130302000D01*
X150753000Y-122682000D01*
X152533000Y-122682000D01*
X152533000Y-130302000D01*
G37*
G36*
X155073000Y-130302000D02*
G01*
X153293000Y-130302000D01*
X153293000Y-122682000D01*
X155073000Y-122682000D01*
X155073000Y-130302000D01*
G37*
G36*
X157613000Y-130302000D02*
G01*
X155833000Y-130302000D01*
X155833000Y-122682000D01*
X157613000Y-122682000D01*
X157613000Y-130302000D01*
G37*
G36*
X160153000Y-130302000D02*
G01*
X158373000Y-130302000D01*
X158373000Y-122682000D01*
X160153000Y-122682000D01*
X160153000Y-130302000D01*
G37*
G36*
X162693000Y-130302000D02*
G01*
X160913000Y-130302000D01*
X160913000Y-122682000D01*
X162693000Y-122682000D01*
X162693000Y-130302000D01*
G37*
G36*
X165233000Y-130302000D02*
G01*
X163453000Y-130302000D01*
X163453000Y-122682000D01*
X165233000Y-122682000D01*
X165233000Y-130302000D01*
G37*
G36*
X167773000Y-130302000D02*
G01*
X165993000Y-130302000D01*
X165993000Y-122682000D01*
X167773000Y-122682000D01*
X167773000Y-130302000D01*
G37*
G36*
X170313000Y-130302000D02*
G01*
X168533000Y-130302000D01*
X168533000Y-122682000D01*
X170313000Y-122682000D01*
X170313000Y-130302000D01*
G37*
G36*
X172853000Y-130302000D02*
G01*
X171073000Y-130302000D01*
X171073000Y-122682000D01*
X172853000Y-122682000D01*
X172853000Y-130302000D01*
G37*
G36*
X175393000Y-130302000D02*
G01*
X173613000Y-130302000D01*
X173613000Y-122682000D01*
X175393000Y-122682000D01*
X175393000Y-130302000D01*
G37*
G36*
X177933000Y-130302000D02*
G01*
X176153000Y-130302000D01*
X176153000Y-122682000D01*
X177933000Y-122682000D01*
X177933000Y-130302000D01*
G37*
G36*
X180473000Y-130302000D02*
G01*
X178693000Y-130302000D01*
X178693000Y-122682000D01*
X180473000Y-122682000D01*
X180473000Y-130302000D01*
G37*
G36*
X184492000Y-119199000D02*
G01*
X182792000Y-119199000D01*
X182792000Y-117499000D01*
X184492000Y-117499000D01*
X184492000Y-119199000D01*
G37*
G36*
X198704500Y-118470000D02*
G01*
X197154500Y-118470000D01*
X197154500Y-117170000D01*
X198704500Y-117170000D01*
X198704500Y-118470000D01*
G37*
G36*
X159277850Y-116978964D02*
G01*
X159328040Y-116984787D01*
X159345189Y-116992359D01*
X159368671Y-116997030D01*
X159393810Y-117013827D01*
X159413696Y-117022608D01*
X159427277Y-117036189D01*
X159449777Y-117051223D01*
X159464810Y-117073722D01*
X159478391Y-117087303D01*
X159487170Y-117107186D01*
X159503970Y-117132329D01*
X159508641Y-117155812D01*
X159516212Y-117172959D01*
X159522033Y-117223139D01*
X159523000Y-117228000D01*
X159523000Y-118053000D01*
X159522032Y-118057863D01*
X159516212Y-118108040D01*
X159508641Y-118125185D01*
X159503970Y-118148671D01*
X159487169Y-118173815D01*
X159478391Y-118193696D01*
X159464812Y-118207274D01*
X159449777Y-118229777D01*
X159427274Y-118244812D01*
X159413696Y-118258391D01*
X159393815Y-118267169D01*
X159368671Y-118283970D01*
X159345185Y-118288641D01*
X159328040Y-118296212D01*
X159277861Y-118302032D01*
X159273000Y-118303000D01*
X157973000Y-118303000D01*
X157968138Y-118302032D01*
X157917959Y-118296212D01*
X157900812Y-118288641D01*
X157877329Y-118283970D01*
X157852186Y-118267170D01*
X157832303Y-118258391D01*
X157818722Y-118244810D01*
X157796223Y-118229777D01*
X157781189Y-118207277D01*
X157767608Y-118193696D01*
X157758827Y-118173810D01*
X157742030Y-118148671D01*
X157737359Y-118125189D01*
X157729787Y-118108040D01*
X157723964Y-118057849D01*
X157723000Y-118053000D01*
X157723000Y-117228000D01*
X157723964Y-117223150D01*
X157729787Y-117172959D01*
X157737359Y-117155808D01*
X157742030Y-117132329D01*
X157758826Y-117107191D01*
X157767608Y-117087303D01*
X157781191Y-117073719D01*
X157796223Y-117051223D01*
X157818719Y-117036191D01*
X157832303Y-117022608D01*
X157852191Y-117013826D01*
X157877329Y-116997030D01*
X157900808Y-116992359D01*
X157917959Y-116984787D01*
X157968151Y-116978964D01*
X157973000Y-116978000D01*
X159273000Y-116978000D01*
X159277850Y-116978964D01*
G37*
G36*
X150895850Y-116851964D02*
G01*
X150946040Y-116857787D01*
X150963189Y-116865359D01*
X150986671Y-116870030D01*
X151011810Y-116886827D01*
X151031696Y-116895608D01*
X151045277Y-116909189D01*
X151067777Y-116924223D01*
X151082810Y-116946722D01*
X151096391Y-116960303D01*
X151105170Y-116980186D01*
X151121970Y-117005329D01*
X151126641Y-117028812D01*
X151134212Y-117045959D01*
X151140033Y-117096139D01*
X151141000Y-117101000D01*
X151141000Y-117926000D01*
X151140032Y-117930863D01*
X151134212Y-117981040D01*
X151126641Y-117998185D01*
X151121970Y-118021671D01*
X151105169Y-118046815D01*
X151096391Y-118066696D01*
X151082812Y-118080274D01*
X151067777Y-118102777D01*
X151045274Y-118117812D01*
X151031696Y-118131391D01*
X151011815Y-118140169D01*
X150986671Y-118156970D01*
X150963185Y-118161641D01*
X150946040Y-118169212D01*
X150895861Y-118175032D01*
X150891000Y-118176000D01*
X149591000Y-118176000D01*
X149586138Y-118175032D01*
X149535959Y-118169212D01*
X149518812Y-118161641D01*
X149495329Y-118156970D01*
X149470186Y-118140170D01*
X149450303Y-118131391D01*
X149436722Y-118117810D01*
X149414223Y-118102777D01*
X149399189Y-118080277D01*
X149385608Y-118066696D01*
X149376827Y-118046810D01*
X149360030Y-118021671D01*
X149355359Y-117998189D01*
X149347787Y-117981040D01*
X149341964Y-117930849D01*
X149341000Y-117926000D01*
X149341000Y-117101000D01*
X149341964Y-117096150D01*
X149347787Y-117045959D01*
X149355359Y-117028808D01*
X149360030Y-117005329D01*
X149376826Y-116980191D01*
X149385608Y-116960303D01*
X149399191Y-116946719D01*
X149414223Y-116924223D01*
X149436719Y-116909191D01*
X149450303Y-116895608D01*
X149470191Y-116886826D01*
X149495329Y-116870030D01*
X149518808Y-116865359D01*
X149535959Y-116857787D01*
X149586151Y-116851964D01*
X149591000Y-116851000D01*
X150891000Y-116851000D01*
X150895850Y-116851964D01*
G37*
G36*
X166262850Y-116851964D02*
G01*
X166313040Y-116857787D01*
X166330189Y-116865359D01*
X166353671Y-116870030D01*
X166378810Y-116886827D01*
X166398696Y-116895608D01*
X166412277Y-116909189D01*
X166434777Y-116924223D01*
X166449810Y-116946722D01*
X166463391Y-116960303D01*
X166472170Y-116980186D01*
X166488970Y-117005329D01*
X166493641Y-117028812D01*
X166501212Y-117045959D01*
X166507033Y-117096139D01*
X166508000Y-117101000D01*
X166508000Y-117926000D01*
X166507032Y-117930863D01*
X166501212Y-117981040D01*
X166493641Y-117998185D01*
X166488970Y-118021671D01*
X166472169Y-118046815D01*
X166463391Y-118066696D01*
X166449812Y-118080274D01*
X166434777Y-118102777D01*
X166412274Y-118117812D01*
X166398696Y-118131391D01*
X166378815Y-118140169D01*
X166353671Y-118156970D01*
X166330185Y-118161641D01*
X166313040Y-118169212D01*
X166262861Y-118175032D01*
X166258000Y-118176000D01*
X164958000Y-118176000D01*
X164953138Y-118175032D01*
X164902959Y-118169212D01*
X164885812Y-118161641D01*
X164862329Y-118156970D01*
X164837186Y-118140170D01*
X164817303Y-118131391D01*
X164803722Y-118117810D01*
X164781223Y-118102777D01*
X164766189Y-118080277D01*
X164752608Y-118066696D01*
X164743827Y-118046810D01*
X164727030Y-118021671D01*
X164722359Y-117998189D01*
X164714787Y-117981040D01*
X164708964Y-117930849D01*
X164708000Y-117926000D01*
X164708000Y-117101000D01*
X164708964Y-117096150D01*
X164714787Y-117045959D01*
X164722359Y-117028808D01*
X164727030Y-117005329D01*
X164743826Y-116980191D01*
X164752608Y-116960303D01*
X164766191Y-116946719D01*
X164781223Y-116924223D01*
X164803719Y-116909191D01*
X164817303Y-116895608D01*
X164837191Y-116886826D01*
X164862329Y-116870030D01*
X164885808Y-116865359D01*
X164902959Y-116857787D01*
X164953151Y-116851964D01*
X164958000Y-116851000D01*
X166258000Y-116851000D01*
X166262850Y-116851964D01*
G37*
G36*
X183904664Y-115000602D02*
G01*
X184067000Y-115072878D01*
X184210761Y-115177327D01*
X184329664Y-115309383D01*
X184418514Y-115463274D01*
X184473425Y-115632275D01*
X184492000Y-115809000D01*
X184473425Y-115985725D01*
X184418514Y-116154726D01*
X184329664Y-116308617D01*
X184210761Y-116440673D01*
X184067000Y-116545122D01*
X183904664Y-116617398D01*
X183730849Y-116654344D01*
X183553151Y-116654344D01*
X183379336Y-116617398D01*
X183217000Y-116545122D01*
X183073239Y-116440673D01*
X182954336Y-116308617D01*
X182865486Y-116154726D01*
X182810575Y-115985725D01*
X182792000Y-115809000D01*
X182810575Y-115632275D01*
X182865486Y-115463274D01*
X182954336Y-115309383D01*
X183073239Y-115177327D01*
X183217000Y-115072878D01*
X183379336Y-115000602D01*
X183553151Y-114963656D01*
X183730849Y-114963656D01*
X183904664Y-115000602D01*
G37*
G36*
X159277850Y-113853964D02*
G01*
X159328040Y-113859787D01*
X159345189Y-113867359D01*
X159368671Y-113872030D01*
X159393810Y-113888827D01*
X159413696Y-113897608D01*
X159427277Y-113911189D01*
X159449777Y-113926223D01*
X159464810Y-113948722D01*
X159478391Y-113962303D01*
X159487170Y-113982186D01*
X159503970Y-114007329D01*
X159508641Y-114030812D01*
X159516212Y-114047959D01*
X159522033Y-114098139D01*
X159523000Y-114103000D01*
X159523000Y-114928000D01*
X159522032Y-114932863D01*
X159516212Y-114983040D01*
X159508641Y-115000185D01*
X159503970Y-115023671D01*
X159487169Y-115048815D01*
X159478391Y-115068696D01*
X159464812Y-115082274D01*
X159449777Y-115104777D01*
X159427274Y-115119812D01*
X159413696Y-115133391D01*
X159393815Y-115142169D01*
X159368671Y-115158970D01*
X159345185Y-115163641D01*
X159328040Y-115171212D01*
X159277861Y-115177032D01*
X159273000Y-115178000D01*
X157973000Y-115178000D01*
X157968138Y-115177032D01*
X157917959Y-115171212D01*
X157900812Y-115163641D01*
X157877329Y-115158970D01*
X157852186Y-115142170D01*
X157832303Y-115133391D01*
X157818722Y-115119810D01*
X157796223Y-115104777D01*
X157781189Y-115082277D01*
X157767608Y-115068696D01*
X157758827Y-115048810D01*
X157742030Y-115023671D01*
X157737359Y-115000189D01*
X157729787Y-114983040D01*
X157723964Y-114932849D01*
X157723000Y-114928000D01*
X157723000Y-114103000D01*
X157723964Y-114098150D01*
X157729787Y-114047959D01*
X157737359Y-114030808D01*
X157742030Y-114007329D01*
X157758826Y-113982191D01*
X157767608Y-113962303D01*
X157781191Y-113948719D01*
X157796223Y-113926223D01*
X157818719Y-113911191D01*
X157832303Y-113897608D01*
X157852191Y-113888826D01*
X157877329Y-113872030D01*
X157900808Y-113867359D01*
X157917959Y-113859787D01*
X157968151Y-113853964D01*
X157973000Y-113853000D01*
X159273000Y-113853000D01*
X159277850Y-113853964D01*
G37*
G36*
X150895850Y-113726964D02*
G01*
X150946040Y-113732787D01*
X150963189Y-113740359D01*
X150986671Y-113745030D01*
X151011810Y-113761827D01*
X151031696Y-113770608D01*
X151045277Y-113784189D01*
X151067777Y-113799223D01*
X151082810Y-113821722D01*
X151096391Y-113835303D01*
X151105170Y-113855186D01*
X151121970Y-113880329D01*
X151126641Y-113903812D01*
X151134212Y-113920959D01*
X151140033Y-113971139D01*
X151141000Y-113976000D01*
X151141000Y-114801000D01*
X151140032Y-114805863D01*
X151134212Y-114856040D01*
X151126641Y-114873185D01*
X151121970Y-114896671D01*
X151105169Y-114921815D01*
X151096391Y-114941696D01*
X151082812Y-114955274D01*
X151067777Y-114977777D01*
X151045274Y-114992812D01*
X151031696Y-115006391D01*
X151011815Y-115015169D01*
X150986671Y-115031970D01*
X150963185Y-115036641D01*
X150946040Y-115044212D01*
X150895861Y-115050032D01*
X150891000Y-115051000D01*
X149591000Y-115051000D01*
X149586138Y-115050032D01*
X149535959Y-115044212D01*
X149518812Y-115036641D01*
X149495329Y-115031970D01*
X149470186Y-115015170D01*
X149450303Y-115006391D01*
X149436722Y-114992810D01*
X149414223Y-114977777D01*
X149399189Y-114955277D01*
X149385608Y-114941696D01*
X149376827Y-114921810D01*
X149360030Y-114896671D01*
X149355359Y-114873189D01*
X149347787Y-114856040D01*
X149341964Y-114805849D01*
X149341000Y-114801000D01*
X149341000Y-113976000D01*
X149341964Y-113971150D01*
X149347787Y-113920959D01*
X149355359Y-113903808D01*
X149360030Y-113880329D01*
X149376826Y-113855191D01*
X149385608Y-113835303D01*
X149399191Y-113821719D01*
X149414223Y-113799223D01*
X149436719Y-113784191D01*
X149450303Y-113770608D01*
X149470191Y-113761826D01*
X149495329Y-113745030D01*
X149518808Y-113740359D01*
X149535959Y-113732787D01*
X149586151Y-113726964D01*
X149591000Y-113726000D01*
X150891000Y-113726000D01*
X150895850Y-113726964D01*
G37*
G36*
X166262850Y-113726964D02*
G01*
X166313040Y-113732787D01*
X166330189Y-113740359D01*
X166353671Y-113745030D01*
X166378810Y-113761827D01*
X166398696Y-113770608D01*
X166412277Y-113784189D01*
X166434777Y-113799223D01*
X166449810Y-113821722D01*
X166463391Y-113835303D01*
X166472170Y-113855186D01*
X166488970Y-113880329D01*
X166493641Y-113903812D01*
X166501212Y-113920959D01*
X166507033Y-113971139D01*
X166508000Y-113976000D01*
X166508000Y-114801000D01*
X166507032Y-114805863D01*
X166501212Y-114856040D01*
X166493641Y-114873185D01*
X166488970Y-114896671D01*
X166472169Y-114921815D01*
X166463391Y-114941696D01*
X166449812Y-114955274D01*
X166434777Y-114977777D01*
X166412274Y-114992812D01*
X166398696Y-115006391D01*
X166378815Y-115015169D01*
X166353671Y-115031970D01*
X166330185Y-115036641D01*
X166313040Y-115044212D01*
X166262861Y-115050032D01*
X166258000Y-115051000D01*
X164958000Y-115051000D01*
X164953138Y-115050032D01*
X164902959Y-115044212D01*
X164885812Y-115036641D01*
X164862329Y-115031970D01*
X164837186Y-115015170D01*
X164817303Y-115006391D01*
X164803722Y-114992810D01*
X164781223Y-114977777D01*
X164766189Y-114955277D01*
X164752608Y-114941696D01*
X164743827Y-114921810D01*
X164727030Y-114896671D01*
X164722359Y-114873189D01*
X164714787Y-114856040D01*
X164708964Y-114805849D01*
X164708000Y-114801000D01*
X164708000Y-113976000D01*
X164708964Y-113971150D01*
X164714787Y-113920959D01*
X164722359Y-113903808D01*
X164727030Y-113880329D01*
X164743826Y-113855191D01*
X164752608Y-113835303D01*
X164766191Y-113821719D01*
X164781223Y-113799223D01*
X164803719Y-113784191D01*
X164817303Y-113770608D01*
X164837191Y-113761826D01*
X164862329Y-113745030D01*
X164885808Y-113740359D01*
X164902959Y-113732787D01*
X164953151Y-113726964D01*
X164958000Y-113726000D01*
X166258000Y-113726000D01*
X166262850Y-113726964D01*
G37*
G36*
X183904664Y-112460602D02*
G01*
X184067000Y-112532878D01*
X184210761Y-112637327D01*
X184329664Y-112769383D01*
X184418514Y-112923274D01*
X184473425Y-113092275D01*
X184492000Y-113269000D01*
X184473425Y-113445725D01*
X184418514Y-113614726D01*
X184329664Y-113768617D01*
X184210761Y-113900673D01*
X184067000Y-114005122D01*
X183904664Y-114077398D01*
X183730849Y-114114344D01*
X183553151Y-114114344D01*
X183379336Y-114077398D01*
X183217000Y-114005122D01*
X183073239Y-113900673D01*
X182954336Y-113768617D01*
X182865486Y-113614726D01*
X182810575Y-113445725D01*
X182792000Y-113269000D01*
X182810575Y-113092275D01*
X182865486Y-112923274D01*
X182954336Y-112769383D01*
X183073239Y-112637327D01*
X183217000Y-112532878D01*
X183379336Y-112460602D01*
X183553151Y-112423656D01*
X183730849Y-112423656D01*
X183904664Y-112460602D01*
G37*
G36*
X198704500Y-113970000D02*
G01*
X197154500Y-113970000D01*
X197154500Y-112670000D01*
X198704500Y-112670000D01*
X198704500Y-113970000D01*
G37*
G36*
X104027850Y-111644964D02*
G01*
X104078040Y-111650787D01*
X104095189Y-111658359D01*
X104118671Y-111663030D01*
X104143810Y-111679827D01*
X104163696Y-111688608D01*
X104177277Y-111702189D01*
X104199777Y-111717223D01*
X104214810Y-111739722D01*
X104228391Y-111753303D01*
X104237170Y-111773186D01*
X104253970Y-111798329D01*
X104258641Y-111821812D01*
X104266212Y-111838959D01*
X104272033Y-111889139D01*
X104273000Y-111894000D01*
X104273000Y-112719000D01*
X104272032Y-112723863D01*
X104266212Y-112774040D01*
X104258641Y-112791185D01*
X104253970Y-112814671D01*
X104237169Y-112839815D01*
X104228391Y-112859696D01*
X104214812Y-112873274D01*
X104199777Y-112895777D01*
X104177274Y-112910812D01*
X104163696Y-112924391D01*
X104143815Y-112933169D01*
X104118671Y-112949970D01*
X104095185Y-112954641D01*
X104078040Y-112962212D01*
X104027861Y-112968032D01*
X104023000Y-112969000D01*
X102723000Y-112969000D01*
X102718138Y-112968032D01*
X102667959Y-112962212D01*
X102650812Y-112954641D01*
X102627329Y-112949970D01*
X102602186Y-112933170D01*
X102582303Y-112924391D01*
X102568722Y-112910810D01*
X102546223Y-112895777D01*
X102531189Y-112873277D01*
X102517608Y-112859696D01*
X102508827Y-112839810D01*
X102492030Y-112814671D01*
X102487359Y-112791189D01*
X102479787Y-112774040D01*
X102473964Y-112723849D01*
X102473000Y-112719000D01*
X102473000Y-111894000D01*
X102473964Y-111889150D01*
X102479787Y-111838959D01*
X102487359Y-111821808D01*
X102492030Y-111798329D01*
X102508826Y-111773191D01*
X102517608Y-111753303D01*
X102531191Y-111739719D01*
X102546223Y-111717223D01*
X102568719Y-111702191D01*
X102582303Y-111688608D01*
X102602191Y-111679826D01*
X102627329Y-111663030D01*
X102650808Y-111658359D01*
X102667959Y-111650787D01*
X102718151Y-111644964D01*
X102723000Y-111644000D01*
X104023000Y-111644000D01*
X104027850Y-111644964D01*
G37*
G36*
X104027850Y-108519964D02*
G01*
X104078040Y-108525787D01*
X104095189Y-108533359D01*
X104118671Y-108538030D01*
X104143810Y-108554827D01*
X104163696Y-108563608D01*
X104177277Y-108577189D01*
X104199777Y-108592223D01*
X104214810Y-108614722D01*
X104228391Y-108628303D01*
X104237170Y-108648186D01*
X104253970Y-108673329D01*
X104258641Y-108696812D01*
X104266212Y-108713959D01*
X104272033Y-108764139D01*
X104273000Y-108769000D01*
X104273000Y-109594000D01*
X104272032Y-109598863D01*
X104266212Y-109649040D01*
X104258641Y-109666185D01*
X104253970Y-109689671D01*
X104237169Y-109714815D01*
X104228391Y-109734696D01*
X104214812Y-109748274D01*
X104199777Y-109770777D01*
X104177274Y-109785812D01*
X104163696Y-109799391D01*
X104143815Y-109808169D01*
X104118671Y-109824970D01*
X104095185Y-109829641D01*
X104078040Y-109837212D01*
X104027861Y-109843032D01*
X104023000Y-109844000D01*
X102723000Y-109844000D01*
X102718138Y-109843032D01*
X102667959Y-109837212D01*
X102650812Y-109829641D01*
X102627329Y-109824970D01*
X102602186Y-109808170D01*
X102582303Y-109799391D01*
X102568722Y-109785810D01*
X102546223Y-109770777D01*
X102531189Y-109748277D01*
X102517608Y-109734696D01*
X102508827Y-109714810D01*
X102492030Y-109689671D01*
X102487359Y-109666189D01*
X102479787Y-109649040D01*
X102473964Y-109598849D01*
X102473000Y-109594000D01*
X102473000Y-108769000D01*
X102473964Y-108764150D01*
X102479787Y-108713959D01*
X102487359Y-108696808D01*
X102492030Y-108673329D01*
X102508826Y-108648191D01*
X102517608Y-108628303D01*
X102531191Y-108614719D01*
X102546223Y-108592223D01*
X102568719Y-108577191D01*
X102582303Y-108563608D01*
X102602191Y-108554826D01*
X102627329Y-108538030D01*
X102650808Y-108533359D01*
X102667959Y-108525787D01*
X102718151Y-108519964D01*
X102723000Y-108519000D01*
X104023000Y-108519000D01*
X104027850Y-108519964D01*
G37*
G36*
X155282000Y-104736000D02*
G01*
X153582000Y-104736000D01*
X153582000Y-103036000D01*
X155282000Y-103036000D01*
X155282000Y-104736000D01*
G37*
G36*
X167982000Y-104736000D02*
G01*
X166282000Y-104736000D01*
X166282000Y-103036000D01*
X167982000Y-103036000D01*
X167982000Y-104736000D01*
G37*
G36*
X180682000Y-104736000D02*
G01*
X178982000Y-104736000D01*
X178982000Y-103036000D01*
X180682000Y-103036000D01*
X180682000Y-104736000D01*
G37*
G36*
X193382000Y-104736000D02*
G01*
X191682000Y-104736000D01*
X191682000Y-103036000D01*
X193382000Y-103036000D01*
X193382000Y-104736000D01*
G37*
G36*
X149614664Y-103077602D02*
G01*
X149777000Y-103149878D01*
X149920761Y-103254327D01*
X150039664Y-103386383D01*
X150128514Y-103540274D01*
X150183425Y-103709275D01*
X150202000Y-103886000D01*
X150183425Y-104062725D01*
X150128514Y-104231726D01*
X150039664Y-104385617D01*
X149920761Y-104517673D01*
X149777000Y-104622122D01*
X149614664Y-104694398D01*
X149440849Y-104731344D01*
X149263151Y-104731344D01*
X149089336Y-104694398D01*
X148927000Y-104622122D01*
X148783239Y-104517673D01*
X148664336Y-104385617D01*
X148575486Y-104231726D01*
X148520575Y-104062725D01*
X148502000Y-103886000D01*
X148520575Y-103709275D01*
X148575486Y-103540274D01*
X148664336Y-103386383D01*
X148783239Y-103254327D01*
X148927000Y-103149878D01*
X149089336Y-103077602D01*
X149263151Y-103040656D01*
X149440849Y-103040656D01*
X149614664Y-103077602D01*
G37*
G36*
X152154664Y-103077602D02*
G01*
X152317000Y-103149878D01*
X152460761Y-103254327D01*
X152579664Y-103386383D01*
X152668514Y-103540274D01*
X152723425Y-103709275D01*
X152742000Y-103886000D01*
X152723425Y-104062725D01*
X152668514Y-104231726D01*
X152579664Y-104385617D01*
X152460761Y-104517673D01*
X152317000Y-104622122D01*
X152154664Y-104694398D01*
X151980849Y-104731344D01*
X151803151Y-104731344D01*
X151629336Y-104694398D01*
X151467000Y-104622122D01*
X151323239Y-104517673D01*
X151204336Y-104385617D01*
X151115486Y-104231726D01*
X151060575Y-104062725D01*
X151042000Y-103886000D01*
X151060575Y-103709275D01*
X151115486Y-103540274D01*
X151204336Y-103386383D01*
X151323239Y-103254327D01*
X151467000Y-103149878D01*
X151629336Y-103077602D01*
X151803151Y-103040656D01*
X151980849Y-103040656D01*
X152154664Y-103077602D01*
G37*
G36*
X157234664Y-103077602D02*
G01*
X157397000Y-103149878D01*
X157540761Y-103254327D01*
X157659664Y-103386383D01*
X157748514Y-103540274D01*
X157803425Y-103709275D01*
X157822000Y-103886000D01*
X157803425Y-104062725D01*
X157748514Y-104231726D01*
X157659664Y-104385617D01*
X157540761Y-104517673D01*
X157397000Y-104622122D01*
X157234664Y-104694398D01*
X157060849Y-104731344D01*
X156883151Y-104731344D01*
X156709336Y-104694398D01*
X156547000Y-104622122D01*
X156403239Y-104517673D01*
X156284336Y-104385617D01*
X156195486Y-104231726D01*
X156140575Y-104062725D01*
X156122000Y-103886000D01*
X156140575Y-103709275D01*
X156195486Y-103540274D01*
X156284336Y-103386383D01*
X156403239Y-103254327D01*
X156547000Y-103149878D01*
X156709336Y-103077602D01*
X156883151Y-103040656D01*
X157060849Y-103040656D01*
X157234664Y-103077602D01*
G37*
G36*
X159774664Y-103077602D02*
G01*
X159937000Y-103149878D01*
X160080761Y-103254327D01*
X160199664Y-103386383D01*
X160288514Y-103540274D01*
X160343425Y-103709275D01*
X160362000Y-103886000D01*
X160343425Y-104062725D01*
X160288514Y-104231726D01*
X160199664Y-104385617D01*
X160080761Y-104517673D01*
X159937000Y-104622122D01*
X159774664Y-104694398D01*
X159600849Y-104731344D01*
X159423151Y-104731344D01*
X159249336Y-104694398D01*
X159087000Y-104622122D01*
X158943239Y-104517673D01*
X158824336Y-104385617D01*
X158735486Y-104231726D01*
X158680575Y-104062725D01*
X158662000Y-103886000D01*
X158680575Y-103709275D01*
X158735486Y-103540274D01*
X158824336Y-103386383D01*
X158943239Y-103254327D01*
X159087000Y-103149878D01*
X159249336Y-103077602D01*
X159423151Y-103040656D01*
X159600849Y-103040656D01*
X159774664Y-103077602D01*
G37*
G36*
X162314664Y-103077602D02*
G01*
X162477000Y-103149878D01*
X162620761Y-103254327D01*
X162739664Y-103386383D01*
X162828514Y-103540274D01*
X162883425Y-103709275D01*
X162902000Y-103886000D01*
X162883425Y-104062725D01*
X162828514Y-104231726D01*
X162739664Y-104385617D01*
X162620761Y-104517673D01*
X162477000Y-104622122D01*
X162314664Y-104694398D01*
X162140849Y-104731344D01*
X161963151Y-104731344D01*
X161789336Y-104694398D01*
X161627000Y-104622122D01*
X161483239Y-104517673D01*
X161364336Y-104385617D01*
X161275486Y-104231726D01*
X161220575Y-104062725D01*
X161202000Y-103886000D01*
X161220575Y-103709275D01*
X161275486Y-103540274D01*
X161364336Y-103386383D01*
X161483239Y-103254327D01*
X161627000Y-103149878D01*
X161789336Y-103077602D01*
X161963151Y-103040656D01*
X162140849Y-103040656D01*
X162314664Y-103077602D01*
G37*
G36*
X164854664Y-103077602D02*
G01*
X165017000Y-103149878D01*
X165160761Y-103254327D01*
X165279664Y-103386383D01*
X165368514Y-103540274D01*
X165423425Y-103709275D01*
X165442000Y-103886000D01*
X165423425Y-104062725D01*
X165368514Y-104231726D01*
X165279664Y-104385617D01*
X165160761Y-104517673D01*
X165017000Y-104622122D01*
X164854664Y-104694398D01*
X164680849Y-104731344D01*
X164503151Y-104731344D01*
X164329336Y-104694398D01*
X164167000Y-104622122D01*
X164023239Y-104517673D01*
X163904336Y-104385617D01*
X163815486Y-104231726D01*
X163760575Y-104062725D01*
X163742000Y-103886000D01*
X163760575Y-103709275D01*
X163815486Y-103540274D01*
X163904336Y-103386383D01*
X164023239Y-103254327D01*
X164167000Y-103149878D01*
X164329336Y-103077602D01*
X164503151Y-103040656D01*
X164680849Y-103040656D01*
X164854664Y-103077602D01*
G37*
G36*
X169934664Y-103077602D02*
G01*
X170097000Y-103149878D01*
X170240761Y-103254327D01*
X170359664Y-103386383D01*
X170448514Y-103540274D01*
X170503425Y-103709275D01*
X170522000Y-103886000D01*
X170503425Y-104062725D01*
X170448514Y-104231726D01*
X170359664Y-104385617D01*
X170240761Y-104517673D01*
X170097000Y-104622122D01*
X169934664Y-104694398D01*
X169760849Y-104731344D01*
X169583151Y-104731344D01*
X169409336Y-104694398D01*
X169247000Y-104622122D01*
X169103239Y-104517673D01*
X168984336Y-104385617D01*
X168895486Y-104231726D01*
X168840575Y-104062725D01*
X168822000Y-103886000D01*
X168840575Y-103709275D01*
X168895486Y-103540274D01*
X168984336Y-103386383D01*
X169103239Y-103254327D01*
X169247000Y-103149878D01*
X169409336Y-103077602D01*
X169583151Y-103040656D01*
X169760849Y-103040656D01*
X169934664Y-103077602D01*
G37*
G36*
X172474664Y-103077602D02*
G01*
X172637000Y-103149878D01*
X172780761Y-103254327D01*
X172899664Y-103386383D01*
X172988514Y-103540274D01*
X173043425Y-103709275D01*
X173062000Y-103886000D01*
X173043425Y-104062725D01*
X172988514Y-104231726D01*
X172899664Y-104385617D01*
X172780761Y-104517673D01*
X172637000Y-104622122D01*
X172474664Y-104694398D01*
X172300849Y-104731344D01*
X172123151Y-104731344D01*
X171949336Y-104694398D01*
X171787000Y-104622122D01*
X171643239Y-104517673D01*
X171524336Y-104385617D01*
X171435486Y-104231726D01*
X171380575Y-104062725D01*
X171362000Y-103886000D01*
X171380575Y-103709275D01*
X171435486Y-103540274D01*
X171524336Y-103386383D01*
X171643239Y-103254327D01*
X171787000Y-103149878D01*
X171949336Y-103077602D01*
X172123151Y-103040656D01*
X172300849Y-103040656D01*
X172474664Y-103077602D01*
G37*
G36*
X175014664Y-103077602D02*
G01*
X175177000Y-103149878D01*
X175320761Y-103254327D01*
X175439664Y-103386383D01*
X175528514Y-103540274D01*
X175583425Y-103709275D01*
X175602000Y-103886000D01*
X175583425Y-104062725D01*
X175528514Y-104231726D01*
X175439664Y-104385617D01*
X175320761Y-104517673D01*
X175177000Y-104622122D01*
X175014664Y-104694398D01*
X174840849Y-104731344D01*
X174663151Y-104731344D01*
X174489336Y-104694398D01*
X174327000Y-104622122D01*
X174183239Y-104517673D01*
X174064336Y-104385617D01*
X173975486Y-104231726D01*
X173920575Y-104062725D01*
X173902000Y-103886000D01*
X173920575Y-103709275D01*
X173975486Y-103540274D01*
X174064336Y-103386383D01*
X174183239Y-103254327D01*
X174327000Y-103149878D01*
X174489336Y-103077602D01*
X174663151Y-103040656D01*
X174840849Y-103040656D01*
X175014664Y-103077602D01*
G37*
G36*
X177554664Y-103077602D02*
G01*
X177717000Y-103149878D01*
X177860761Y-103254327D01*
X177979664Y-103386383D01*
X178068514Y-103540274D01*
X178123425Y-103709275D01*
X178142000Y-103886000D01*
X178123425Y-104062725D01*
X178068514Y-104231726D01*
X177979664Y-104385617D01*
X177860761Y-104517673D01*
X177717000Y-104622122D01*
X177554664Y-104694398D01*
X177380849Y-104731344D01*
X177203151Y-104731344D01*
X177029336Y-104694398D01*
X176867000Y-104622122D01*
X176723239Y-104517673D01*
X176604336Y-104385617D01*
X176515486Y-104231726D01*
X176460575Y-104062725D01*
X176442000Y-103886000D01*
X176460575Y-103709275D01*
X176515486Y-103540274D01*
X176604336Y-103386383D01*
X176723239Y-103254327D01*
X176867000Y-103149878D01*
X177029336Y-103077602D01*
X177203151Y-103040656D01*
X177380849Y-103040656D01*
X177554664Y-103077602D01*
G37*
G36*
X182634664Y-103077602D02*
G01*
X182797000Y-103149878D01*
X182940761Y-103254327D01*
X183059664Y-103386383D01*
X183148514Y-103540274D01*
X183203425Y-103709275D01*
X183222000Y-103886000D01*
X183203425Y-104062725D01*
X183148514Y-104231726D01*
X183059664Y-104385617D01*
X182940761Y-104517673D01*
X182797000Y-104622122D01*
X182634664Y-104694398D01*
X182460849Y-104731344D01*
X182283151Y-104731344D01*
X182109336Y-104694398D01*
X181947000Y-104622122D01*
X181803239Y-104517673D01*
X181684336Y-104385617D01*
X181595486Y-104231726D01*
X181540575Y-104062725D01*
X181522000Y-103886000D01*
X181540575Y-103709275D01*
X181595486Y-103540274D01*
X181684336Y-103386383D01*
X181803239Y-103254327D01*
X181947000Y-103149878D01*
X182109336Y-103077602D01*
X182283151Y-103040656D01*
X182460849Y-103040656D01*
X182634664Y-103077602D01*
G37*
G36*
X185174664Y-103077602D02*
G01*
X185337000Y-103149878D01*
X185480761Y-103254327D01*
X185599664Y-103386383D01*
X185688514Y-103540274D01*
X185743425Y-103709275D01*
X185762000Y-103886000D01*
X185743425Y-104062725D01*
X185688514Y-104231726D01*
X185599664Y-104385617D01*
X185480761Y-104517673D01*
X185337000Y-104622122D01*
X185174664Y-104694398D01*
X185000849Y-104731344D01*
X184823151Y-104731344D01*
X184649336Y-104694398D01*
X184487000Y-104622122D01*
X184343239Y-104517673D01*
X184224336Y-104385617D01*
X184135486Y-104231726D01*
X184080575Y-104062725D01*
X184062000Y-103886000D01*
X184080575Y-103709275D01*
X184135486Y-103540274D01*
X184224336Y-103386383D01*
X184343239Y-103254327D01*
X184487000Y-103149878D01*
X184649336Y-103077602D01*
X184823151Y-103040656D01*
X185000849Y-103040656D01*
X185174664Y-103077602D01*
G37*
G36*
X187714664Y-103077602D02*
G01*
X187877000Y-103149878D01*
X188020761Y-103254327D01*
X188139664Y-103386383D01*
X188228514Y-103540274D01*
X188283425Y-103709275D01*
X188302000Y-103886000D01*
X188283425Y-104062725D01*
X188228514Y-104231726D01*
X188139664Y-104385617D01*
X188020761Y-104517673D01*
X187877000Y-104622122D01*
X187714664Y-104694398D01*
X187540849Y-104731344D01*
X187363151Y-104731344D01*
X187189336Y-104694398D01*
X187027000Y-104622122D01*
X186883239Y-104517673D01*
X186764336Y-104385617D01*
X186675486Y-104231726D01*
X186620575Y-104062725D01*
X186602000Y-103886000D01*
X186620575Y-103709275D01*
X186675486Y-103540274D01*
X186764336Y-103386383D01*
X186883239Y-103254327D01*
X187027000Y-103149878D01*
X187189336Y-103077602D01*
X187363151Y-103040656D01*
X187540849Y-103040656D01*
X187714664Y-103077602D01*
G37*
G36*
X190254664Y-103077602D02*
G01*
X190417000Y-103149878D01*
X190560761Y-103254327D01*
X190679664Y-103386383D01*
X190768514Y-103540274D01*
X190823425Y-103709275D01*
X190842000Y-103886000D01*
X190823425Y-104062725D01*
X190768514Y-104231726D01*
X190679664Y-104385617D01*
X190560761Y-104517673D01*
X190417000Y-104622122D01*
X190254664Y-104694398D01*
X190080849Y-104731344D01*
X189903151Y-104731344D01*
X189729336Y-104694398D01*
X189567000Y-104622122D01*
X189423239Y-104517673D01*
X189304336Y-104385617D01*
X189215486Y-104231726D01*
X189160575Y-104062725D01*
X189142000Y-103886000D01*
X189160575Y-103709275D01*
X189215486Y-103540274D01*
X189304336Y-103386383D01*
X189423239Y-103254327D01*
X189567000Y-103149878D01*
X189729336Y-103077602D01*
X189903151Y-103040656D01*
X190080849Y-103040656D01*
X190254664Y-103077602D01*
G37*
G36*
X195334664Y-103077602D02*
G01*
X195497000Y-103149878D01*
X195640761Y-103254327D01*
X195759664Y-103386383D01*
X195848514Y-103540274D01*
X195903425Y-103709275D01*
X195922000Y-103886000D01*
X195903425Y-104062725D01*
X195848514Y-104231726D01*
X195759664Y-104385617D01*
X195640761Y-104517673D01*
X195497000Y-104622122D01*
X195334664Y-104694398D01*
X195160849Y-104731344D01*
X194983151Y-104731344D01*
X194809336Y-104694398D01*
X194647000Y-104622122D01*
X194503239Y-104517673D01*
X194384336Y-104385617D01*
X194295486Y-104231726D01*
X194240575Y-104062725D01*
X194222000Y-103886000D01*
X194240575Y-103709275D01*
X194295486Y-103540274D01*
X194384336Y-103386383D01*
X194503239Y-103254327D01*
X194647000Y-103149878D01*
X194809336Y-103077602D01*
X194983151Y-103040656D01*
X195160849Y-103040656D01*
X195334664Y-103077602D01*
G37*
G36*
X197874664Y-103077602D02*
G01*
X198037000Y-103149878D01*
X198180761Y-103254327D01*
X198299664Y-103386383D01*
X198388514Y-103540274D01*
X198443425Y-103709275D01*
X198462000Y-103886000D01*
X198443425Y-104062725D01*
X198388514Y-104231726D01*
X198299664Y-104385617D01*
X198180761Y-104517673D01*
X198037000Y-104622122D01*
X197874664Y-104694398D01*
X197700849Y-104731344D01*
X197523151Y-104731344D01*
X197349336Y-104694398D01*
X197187000Y-104622122D01*
X197043239Y-104517673D01*
X196924336Y-104385617D01*
X196835486Y-104231726D01*
X196780575Y-104062725D01*
X196762000Y-103886000D01*
X196780575Y-103709275D01*
X196835486Y-103540274D01*
X196924336Y-103386383D01*
X197043239Y-103254327D01*
X197187000Y-103149878D01*
X197349336Y-103077602D01*
X197523151Y-103040656D01*
X197700849Y-103040656D01*
X197874664Y-103077602D01*
G37*
G36*
X160906850Y-99938964D02*
G01*
X160957040Y-99944787D01*
X160974189Y-99952359D01*
X160997671Y-99957030D01*
X161022810Y-99973827D01*
X161042696Y-99982608D01*
X161056277Y-99996189D01*
X161078777Y-100011223D01*
X161093810Y-100033722D01*
X161107391Y-100047303D01*
X161116170Y-100067186D01*
X161132970Y-100092329D01*
X161137641Y-100115812D01*
X161145212Y-100132959D01*
X161151033Y-100183139D01*
X161152000Y-100188000D01*
X161152000Y-101488000D01*
X161151032Y-101492863D01*
X161145212Y-101543040D01*
X161137641Y-101560185D01*
X161132970Y-101583671D01*
X161116169Y-101608815D01*
X161107391Y-101628696D01*
X161093812Y-101642274D01*
X161078777Y-101664777D01*
X161056274Y-101679812D01*
X161042696Y-101693391D01*
X161022815Y-101702169D01*
X160997671Y-101718970D01*
X160974185Y-101723641D01*
X160957040Y-101731212D01*
X160906861Y-101737032D01*
X160902000Y-101738000D01*
X160077000Y-101738000D01*
X160072138Y-101737032D01*
X160021959Y-101731212D01*
X160004812Y-101723641D01*
X159981329Y-101718970D01*
X159956186Y-101702170D01*
X159936303Y-101693391D01*
X159922722Y-101679810D01*
X159900223Y-101664777D01*
X159885189Y-101642277D01*
X159871608Y-101628696D01*
X159862827Y-101608810D01*
X159846030Y-101583671D01*
X159841359Y-101560189D01*
X159833787Y-101543040D01*
X159827964Y-101492849D01*
X159827000Y-101488000D01*
X159827000Y-100188000D01*
X159827964Y-100183150D01*
X159833787Y-100132959D01*
X159841359Y-100115808D01*
X159846030Y-100092329D01*
X159862826Y-100067191D01*
X159871608Y-100047303D01*
X159885191Y-100033719D01*
X159900223Y-100011223D01*
X159922719Y-99996191D01*
X159936303Y-99982608D01*
X159956191Y-99973826D01*
X159981329Y-99957030D01*
X160004808Y-99952359D01*
X160021959Y-99944787D01*
X160072151Y-99938964D01*
X160077000Y-99938000D01*
X160902000Y-99938000D01*
X160906850Y-99938964D01*
G37*
G36*
X164031850Y-99938964D02*
G01*
X164082040Y-99944787D01*
X164099189Y-99952359D01*
X164122671Y-99957030D01*
X164147810Y-99973827D01*
X164167696Y-99982608D01*
X164181277Y-99996189D01*
X164203777Y-100011223D01*
X164218810Y-100033722D01*
X164232391Y-100047303D01*
X164241170Y-100067186D01*
X164257970Y-100092329D01*
X164262641Y-100115812D01*
X164270212Y-100132959D01*
X164276033Y-100183139D01*
X164277000Y-100188000D01*
X164277000Y-101488000D01*
X164276032Y-101492863D01*
X164270212Y-101543040D01*
X164262641Y-101560185D01*
X164257970Y-101583671D01*
X164241169Y-101608815D01*
X164232391Y-101628696D01*
X164218812Y-101642274D01*
X164203777Y-101664777D01*
X164181274Y-101679812D01*
X164167696Y-101693391D01*
X164147815Y-101702169D01*
X164122671Y-101718970D01*
X164099185Y-101723641D01*
X164082040Y-101731212D01*
X164031861Y-101737032D01*
X164027000Y-101738000D01*
X163202000Y-101738000D01*
X163197138Y-101737032D01*
X163146959Y-101731212D01*
X163129812Y-101723641D01*
X163106329Y-101718970D01*
X163081186Y-101702170D01*
X163061303Y-101693391D01*
X163047722Y-101679810D01*
X163025223Y-101664777D01*
X163010189Y-101642277D01*
X162996608Y-101628696D01*
X162987827Y-101608810D01*
X162971030Y-101583671D01*
X162966359Y-101560189D01*
X162958787Y-101543040D01*
X162952964Y-101492849D01*
X162952000Y-101488000D01*
X162952000Y-100188000D01*
X162952964Y-100183150D01*
X162958787Y-100132959D01*
X162966359Y-100115808D01*
X162971030Y-100092329D01*
X162987826Y-100067191D01*
X162996608Y-100047303D01*
X163010191Y-100033719D01*
X163025223Y-100011223D01*
X163047719Y-99996191D01*
X163061303Y-99982608D01*
X163081191Y-99973826D01*
X163106329Y-99957030D01*
X163129808Y-99952359D01*
X163146959Y-99944787D01*
X163197151Y-99938964D01*
X163202000Y-99938000D01*
X164027000Y-99938000D01*
X164031850Y-99938964D01*
G37*
G36*
X104027850Y-99960964D02*
G01*
X104078040Y-99966787D01*
X104095189Y-99974359D01*
X104118671Y-99979030D01*
X104143810Y-99995827D01*
X104163696Y-100004608D01*
X104177277Y-100018189D01*
X104199777Y-100033223D01*
X104214810Y-100055722D01*
X104228391Y-100069303D01*
X104237170Y-100089186D01*
X104253970Y-100114329D01*
X104258641Y-100137812D01*
X104266212Y-100154959D01*
X104272033Y-100205139D01*
X104273000Y-100210000D01*
X104273000Y-101035000D01*
X104272032Y-101039863D01*
X104266212Y-101090040D01*
X104258641Y-101107185D01*
X104253970Y-101130671D01*
X104237169Y-101155815D01*
X104228391Y-101175696D01*
X104214812Y-101189274D01*
X104199777Y-101211777D01*
X104177274Y-101226812D01*
X104163696Y-101240391D01*
X104143815Y-101249169D01*
X104118671Y-101265970D01*
X104095185Y-101270641D01*
X104078040Y-101278212D01*
X104027861Y-101284032D01*
X104023000Y-101285000D01*
X102723000Y-101285000D01*
X102718138Y-101284032D01*
X102667959Y-101278212D01*
X102650812Y-101270641D01*
X102627329Y-101265970D01*
X102602186Y-101249170D01*
X102582303Y-101240391D01*
X102568722Y-101226810D01*
X102546223Y-101211777D01*
X102531189Y-101189277D01*
X102517608Y-101175696D01*
X102508827Y-101155810D01*
X102492030Y-101130671D01*
X102487359Y-101107189D01*
X102479787Y-101090040D01*
X102473964Y-101039849D01*
X102473000Y-101035000D01*
X102473000Y-100210000D01*
X102473964Y-100205150D01*
X102479787Y-100154959D01*
X102487359Y-100137808D01*
X102492030Y-100114329D01*
X102508826Y-100089191D01*
X102517608Y-100069303D01*
X102531191Y-100055719D01*
X102546223Y-100033223D01*
X102568719Y-100018191D01*
X102582303Y-100004608D01*
X102602191Y-99995826D01*
X102627329Y-99979030D01*
X102650808Y-99974359D01*
X102667959Y-99966787D01*
X102718151Y-99960964D01*
X102723000Y-99960000D01*
X104023000Y-99960000D01*
X104027850Y-99960964D01*
G37*
G36*
X197529113Y-96825930D02*
G01*
X197576076Y-96825930D01*
X197616622Y-96834548D01*
X197657526Y-96838577D01*
X197708916Y-96854166D01*
X197760115Y-96865049D01*
X197792879Y-96879636D01*
X197826304Y-96889776D01*
X197879420Y-96918166D01*
X197932000Y-96941577D01*
X197956445Y-96959337D01*
X197981849Y-96972916D01*
X198033669Y-97015444D01*
X198084218Y-97052170D01*
X198100631Y-97070398D01*
X198118190Y-97084809D01*
X198165379Y-97142308D01*
X198210115Y-97191993D01*
X198219512Y-97208269D01*
X198230083Y-97221150D01*
X198269183Y-97294302D01*
X198304191Y-97354937D01*
X198308218Y-97367331D01*
X198313223Y-97376695D01*
X198340821Y-97467672D01*
X198362333Y-97533879D01*
X198363090Y-97541082D01*
X198364422Y-97545473D01*
X198377377Y-97677021D01*
X198382000Y-97721000D01*
X198377377Y-97764982D01*
X198364422Y-97896526D01*
X198363090Y-97900916D01*
X198362333Y-97908121D01*
X198340816Y-97974341D01*
X198313223Y-98065304D01*
X198308219Y-98074665D01*
X198304191Y-98087063D01*
X198269176Y-98147709D01*
X198230083Y-98220849D01*
X198219514Y-98233726D01*
X198210115Y-98250007D01*
X198165369Y-98299701D01*
X198118190Y-98357190D01*
X198100634Y-98371597D01*
X198084218Y-98389830D01*
X198033659Y-98426563D01*
X197981849Y-98469083D01*
X197956450Y-98482658D01*
X197932000Y-98500423D01*
X197879408Y-98523838D01*
X197826304Y-98552223D01*
X197792886Y-98562360D01*
X197760115Y-98576951D01*
X197708905Y-98587836D01*
X197657526Y-98603422D01*
X197616631Y-98607449D01*
X197576076Y-98616070D01*
X197529103Y-98616070D01*
X197482000Y-98620709D01*
X197434897Y-98616070D01*
X197387924Y-98616070D01*
X197347368Y-98607449D01*
X197306473Y-98603422D01*
X197255091Y-98587835D01*
X197203885Y-98576951D01*
X197171115Y-98562361D01*
X197137695Y-98552223D01*
X197084585Y-98523835D01*
X197032000Y-98500423D01*
X197007552Y-98482660D01*
X196982150Y-98469083D01*
X196930332Y-98426556D01*
X196879782Y-98389830D01*
X196863368Y-98371600D01*
X196845809Y-98357190D01*
X196798618Y-98299688D01*
X196753885Y-98250007D01*
X196744487Y-98233730D01*
X196733916Y-98220849D01*
X196694810Y-98147686D01*
X196659809Y-98087063D01*
X196655782Y-98074670D01*
X196650776Y-98065304D01*
X196623168Y-97974294D01*
X196601667Y-97908121D01*
X196600910Y-97900921D01*
X196599577Y-97896526D01*
X196586606Y-97764831D01*
X196582000Y-97721000D01*
X196586606Y-97677172D01*
X196599577Y-97545473D01*
X196600910Y-97541077D01*
X196601667Y-97533879D01*
X196623163Y-97467719D01*
X196650776Y-97376695D01*
X196655783Y-97367327D01*
X196659809Y-97354937D01*
X196694802Y-97294326D01*
X196733916Y-97221150D01*
X196744489Y-97208265D01*
X196753885Y-97191993D01*
X196798609Y-97142321D01*
X196845809Y-97084809D01*
X196863371Y-97070395D01*
X196879782Y-97052170D01*
X196930321Y-97015450D01*
X196982150Y-96972916D01*
X197007557Y-96959335D01*
X197032000Y-96941577D01*
X197084573Y-96918169D01*
X197137695Y-96889776D01*
X197171122Y-96879635D01*
X197203885Y-96865049D01*
X197255080Y-96854166D01*
X197306473Y-96838577D01*
X197347377Y-96834548D01*
X197387924Y-96825930D01*
X197434887Y-96825930D01*
X197482000Y-96821290D01*
X197529113Y-96825930D01*
G37*
G36*
X149844664Y-96727602D02*
G01*
X150007000Y-96799878D01*
X150150761Y-96904327D01*
X150269664Y-97036383D01*
X150358514Y-97190274D01*
X150413425Y-97359275D01*
X150432000Y-97536000D01*
X150413425Y-97712725D01*
X150358514Y-97881726D01*
X150269664Y-98035617D01*
X150150761Y-98167673D01*
X150007000Y-98272122D01*
X149844664Y-98344398D01*
X149670849Y-98381344D01*
X149493151Y-98381344D01*
X149319336Y-98344398D01*
X149157000Y-98272122D01*
X149013239Y-98167673D01*
X148894336Y-98035617D01*
X148805486Y-97881726D01*
X148750575Y-97712725D01*
X148732000Y-97536000D01*
X148750575Y-97359275D01*
X148805486Y-97190274D01*
X148894336Y-97036383D01*
X149013239Y-96904327D01*
X149157000Y-96799878D01*
X149319336Y-96727602D01*
X149493151Y-96690656D01*
X149670849Y-96690656D01*
X149844664Y-96727602D01*
G37*
G36*
X194618891Y-96689804D02*
G01*
X194777413Y-96745273D01*
X194919617Y-96834626D01*
X195038374Y-96953383D01*
X195127727Y-97095587D01*
X195183196Y-97254109D01*
X195202000Y-97421000D01*
X195183196Y-97587891D01*
X195127727Y-97746413D01*
X195038374Y-97888617D01*
X194919617Y-98007374D01*
X194777413Y-98096727D01*
X194618891Y-98152196D01*
X194452000Y-98171000D01*
X194285109Y-98152196D01*
X194126587Y-98096727D01*
X193984383Y-98007374D01*
X193865626Y-97888617D01*
X193776273Y-97746413D01*
X193720804Y-97587891D01*
X193702000Y-97421000D01*
X193720804Y-97254109D01*
X193776273Y-97095587D01*
X193865626Y-96953383D01*
X193984383Y-96834626D01*
X194126587Y-96745273D01*
X194285109Y-96689804D01*
X194452000Y-96671000D01*
X194618891Y-96689804D01*
G37*
G36*
X104027850Y-96835964D02*
G01*
X104078040Y-96841787D01*
X104095189Y-96849359D01*
X104118671Y-96854030D01*
X104143810Y-96870827D01*
X104163696Y-96879608D01*
X104177277Y-96893189D01*
X104199777Y-96908223D01*
X104214810Y-96930722D01*
X104228391Y-96944303D01*
X104237170Y-96964186D01*
X104253970Y-96989329D01*
X104258641Y-97012812D01*
X104266212Y-97029959D01*
X104272033Y-97080139D01*
X104273000Y-97085000D01*
X104273000Y-97910000D01*
X104272032Y-97914863D01*
X104266212Y-97965040D01*
X104258641Y-97982185D01*
X104253970Y-98005671D01*
X104237169Y-98030815D01*
X104228391Y-98050696D01*
X104214812Y-98064274D01*
X104199777Y-98086777D01*
X104177274Y-98101812D01*
X104163696Y-98115391D01*
X104143815Y-98124169D01*
X104118671Y-98140970D01*
X104095185Y-98145641D01*
X104078040Y-98153212D01*
X104027861Y-98159032D01*
X104023000Y-98160000D01*
X102723000Y-98160000D01*
X102718138Y-98159032D01*
X102667959Y-98153212D01*
X102650812Y-98145641D01*
X102627329Y-98140970D01*
X102602186Y-98124170D01*
X102582303Y-98115391D01*
X102568722Y-98101810D01*
X102546223Y-98086777D01*
X102531189Y-98064277D01*
X102517608Y-98050696D01*
X102508827Y-98030810D01*
X102492030Y-98005671D01*
X102487359Y-97982189D01*
X102479787Y-97965040D01*
X102473964Y-97914849D01*
X102473000Y-97910000D01*
X102473000Y-97085000D01*
X102473964Y-97080150D01*
X102479787Y-97029959D01*
X102487359Y-97012808D01*
X102492030Y-96989329D01*
X102508826Y-96964191D01*
X102517608Y-96944303D01*
X102531191Y-96930719D01*
X102546223Y-96908223D01*
X102568719Y-96893191D01*
X102582303Y-96879608D01*
X102602191Y-96870826D01*
X102627329Y-96854030D01*
X102650808Y-96849359D01*
X102667959Y-96841787D01*
X102718151Y-96835964D01*
X102723000Y-96835000D01*
X104023000Y-96835000D01*
X104027850Y-96835964D01*
G37*
G36*
X174111850Y-95896964D02*
G01*
X174162040Y-95902787D01*
X174179189Y-95910359D01*
X174202671Y-95915030D01*
X174227810Y-95931827D01*
X174247696Y-95940608D01*
X174261277Y-95954189D01*
X174283777Y-95969223D01*
X174298810Y-95991722D01*
X174312391Y-96005303D01*
X174321170Y-96025186D01*
X174337970Y-96050329D01*
X174342641Y-96073812D01*
X174350212Y-96090959D01*
X174356033Y-96141139D01*
X174357000Y-96146000D01*
X174357000Y-96946000D01*
X174356032Y-96950863D01*
X174350212Y-97001040D01*
X174342641Y-97018185D01*
X174337970Y-97041671D01*
X174321169Y-97066815D01*
X174312391Y-97086696D01*
X174298812Y-97100274D01*
X174283777Y-97122777D01*
X174261274Y-97137812D01*
X174247696Y-97151391D01*
X174227815Y-97160169D01*
X174202671Y-97176970D01*
X174179185Y-97181641D01*
X174162040Y-97189212D01*
X174111861Y-97195032D01*
X174107000Y-97196000D01*
X172857000Y-97196000D01*
X172852138Y-97195032D01*
X172801959Y-97189212D01*
X172784812Y-97181641D01*
X172761329Y-97176970D01*
X172736186Y-97160170D01*
X172716303Y-97151391D01*
X172702722Y-97137810D01*
X172680223Y-97122777D01*
X172665189Y-97100277D01*
X172651608Y-97086696D01*
X172642827Y-97066810D01*
X172626030Y-97041671D01*
X172621359Y-97018189D01*
X172613787Y-97001040D01*
X172607964Y-96950849D01*
X172607000Y-96946000D01*
X172607000Y-96146000D01*
X172607964Y-96141150D01*
X172613787Y-96090959D01*
X172621359Y-96073808D01*
X172626030Y-96050329D01*
X172642826Y-96025191D01*
X172651608Y-96005303D01*
X172665191Y-95991719D01*
X172680223Y-95969223D01*
X172702719Y-95954191D01*
X172716303Y-95940608D01*
X172736191Y-95931826D01*
X172761329Y-95915030D01*
X172784808Y-95910359D01*
X172801959Y-95902787D01*
X172852151Y-95896964D01*
X172857000Y-95896000D01*
X174107000Y-95896000D01*
X174111850Y-95896964D01*
G37*
G36*
X176905850Y-95896964D02*
G01*
X176956040Y-95902787D01*
X176973189Y-95910359D01*
X176996671Y-95915030D01*
X177021810Y-95931827D01*
X177041696Y-95940608D01*
X177055277Y-95954189D01*
X177077777Y-95969223D01*
X177092810Y-95991722D01*
X177106391Y-96005303D01*
X177115170Y-96025186D01*
X177131970Y-96050329D01*
X177136641Y-96073812D01*
X177144212Y-96090959D01*
X177150033Y-96141139D01*
X177151000Y-96146000D01*
X177151000Y-96946000D01*
X177150032Y-96950863D01*
X177144212Y-97001040D01*
X177136641Y-97018185D01*
X177131970Y-97041671D01*
X177115169Y-97066815D01*
X177106391Y-97086696D01*
X177092812Y-97100274D01*
X177077777Y-97122777D01*
X177055274Y-97137812D01*
X177041696Y-97151391D01*
X177021815Y-97160169D01*
X176996671Y-97176970D01*
X176973185Y-97181641D01*
X176956040Y-97189212D01*
X176905861Y-97195032D01*
X176901000Y-97196000D01*
X175651000Y-97196000D01*
X175646138Y-97195032D01*
X175595959Y-97189212D01*
X175578812Y-97181641D01*
X175555329Y-97176970D01*
X175530186Y-97160170D01*
X175510303Y-97151391D01*
X175496722Y-97137810D01*
X175474223Y-97122777D01*
X175459189Y-97100277D01*
X175445608Y-97086696D01*
X175436827Y-97066810D01*
X175420030Y-97041671D01*
X175415359Y-97018189D01*
X175407787Y-97001040D01*
X175401964Y-96950849D01*
X175401000Y-96946000D01*
X175401000Y-96146000D01*
X175401964Y-96141150D01*
X175407787Y-96090959D01*
X175415359Y-96073808D01*
X175420030Y-96050329D01*
X175436826Y-96025191D01*
X175445608Y-96005303D01*
X175459191Y-95991719D01*
X175474223Y-95969223D01*
X175496719Y-95954191D01*
X175510303Y-95940608D01*
X175530191Y-95931826D01*
X175555329Y-95915030D01*
X175578808Y-95910359D01*
X175595959Y-95902787D01*
X175646151Y-95896964D01*
X175651000Y-95896000D01*
X176901000Y-95896000D01*
X176905850Y-95896964D01*
G37*
G36*
X150432000Y-95846000D02*
G01*
X148732000Y-95846000D01*
X148732000Y-94146000D01*
X150432000Y-94146000D01*
X150432000Y-95846000D01*
G37*
G36*
X174111850Y-92796964D02*
G01*
X174162040Y-92802787D01*
X174179189Y-92810359D01*
X174202671Y-92815030D01*
X174227810Y-92831827D01*
X174247696Y-92840608D01*
X174261277Y-92854189D01*
X174283777Y-92869223D01*
X174298810Y-92891722D01*
X174312391Y-92905303D01*
X174321170Y-92925186D01*
X174337970Y-92950329D01*
X174342641Y-92973812D01*
X174350212Y-92990959D01*
X174356033Y-93041139D01*
X174357000Y-93046000D01*
X174357000Y-93846000D01*
X174356032Y-93850863D01*
X174350212Y-93901040D01*
X174342641Y-93918185D01*
X174337970Y-93941671D01*
X174321169Y-93966815D01*
X174312391Y-93986696D01*
X174298812Y-94000274D01*
X174283777Y-94022777D01*
X174261274Y-94037812D01*
X174247696Y-94051391D01*
X174227815Y-94060169D01*
X174202671Y-94076970D01*
X174179185Y-94081641D01*
X174162040Y-94089212D01*
X174111861Y-94095032D01*
X174107000Y-94096000D01*
X172857000Y-94096000D01*
X172852138Y-94095032D01*
X172801959Y-94089212D01*
X172784812Y-94081641D01*
X172761329Y-94076970D01*
X172736186Y-94060170D01*
X172716303Y-94051391D01*
X172702722Y-94037810D01*
X172680223Y-94022777D01*
X172665189Y-94000277D01*
X172651608Y-93986696D01*
X172642827Y-93966810D01*
X172626030Y-93941671D01*
X172621359Y-93918189D01*
X172613787Y-93901040D01*
X172607964Y-93850849D01*
X172607000Y-93846000D01*
X172607000Y-93046000D01*
X172607964Y-93041150D01*
X172613787Y-92990959D01*
X172621359Y-92973808D01*
X172626030Y-92950329D01*
X172642826Y-92925191D01*
X172651608Y-92905303D01*
X172665191Y-92891719D01*
X172680223Y-92869223D01*
X172702719Y-92854191D01*
X172716303Y-92840608D01*
X172736191Y-92831826D01*
X172761329Y-92815030D01*
X172784808Y-92810359D01*
X172801959Y-92802787D01*
X172852151Y-92796964D01*
X172857000Y-92796000D01*
X174107000Y-92796000D01*
X174111850Y-92796964D01*
G37*
G36*
X176905850Y-92796964D02*
G01*
X176956040Y-92802787D01*
X176973189Y-92810359D01*
X176996671Y-92815030D01*
X177021810Y-92831827D01*
X177041696Y-92840608D01*
X177055277Y-92854189D01*
X177077777Y-92869223D01*
X177092810Y-92891722D01*
X177106391Y-92905303D01*
X177115170Y-92925186D01*
X177131970Y-92950329D01*
X177136641Y-92973812D01*
X177144212Y-92990959D01*
X177150033Y-93041139D01*
X177151000Y-93046000D01*
X177151000Y-93846000D01*
X177150032Y-93850863D01*
X177144212Y-93901040D01*
X177136641Y-93918185D01*
X177131970Y-93941671D01*
X177115169Y-93966815D01*
X177106391Y-93986696D01*
X177092812Y-94000274D01*
X177077777Y-94022777D01*
X177055274Y-94037812D01*
X177041696Y-94051391D01*
X177021815Y-94060169D01*
X176996671Y-94076970D01*
X176973185Y-94081641D01*
X176956040Y-94089212D01*
X176905861Y-94095032D01*
X176901000Y-94096000D01*
X175651000Y-94096000D01*
X175646138Y-94095032D01*
X175595959Y-94089212D01*
X175578812Y-94081641D01*
X175555329Y-94076970D01*
X175530186Y-94060170D01*
X175510303Y-94051391D01*
X175496722Y-94037810D01*
X175474223Y-94022777D01*
X175459189Y-94000277D01*
X175445608Y-93986696D01*
X175436827Y-93966810D01*
X175420030Y-93941671D01*
X175415359Y-93918189D01*
X175407787Y-93901040D01*
X175401964Y-93850849D01*
X175401000Y-93846000D01*
X175401000Y-93046000D01*
X175401964Y-93041150D01*
X175407787Y-92990959D01*
X175415359Y-92973808D01*
X175420030Y-92950329D01*
X175436826Y-92925191D01*
X175445608Y-92905303D01*
X175459191Y-92891719D01*
X175474223Y-92869223D01*
X175496719Y-92854191D01*
X175510303Y-92840608D01*
X175530191Y-92831826D01*
X175555329Y-92815030D01*
X175578808Y-92810359D01*
X175595959Y-92802787D01*
X175646151Y-92796964D01*
X175651000Y-92796000D01*
X176901000Y-92796000D01*
X176905850Y-92796964D01*
G37*
G36*
X194618891Y-91839804D02*
G01*
X194777413Y-91895273D01*
X194919617Y-91984626D01*
X195038374Y-92103383D01*
X195127727Y-92245587D01*
X195183196Y-92404109D01*
X195202000Y-92571000D01*
X195183196Y-92737891D01*
X195127727Y-92896413D01*
X195038374Y-93038617D01*
X194919617Y-93157374D01*
X194777413Y-93246727D01*
X194618891Y-93302196D01*
X194452000Y-93321000D01*
X194285109Y-93302196D01*
X194126587Y-93246727D01*
X193984383Y-93157374D01*
X193865626Y-93038617D01*
X193776273Y-92896413D01*
X193720804Y-92737891D01*
X193702000Y-92571000D01*
X193720804Y-92404109D01*
X193776273Y-92245587D01*
X193865626Y-92103383D01*
X193984383Y-91984626D01*
X194126587Y-91895273D01*
X194285109Y-91839804D01*
X194452000Y-91821000D01*
X194618891Y-91839804D01*
G37*
G36*
X149844664Y-91647602D02*
G01*
X150007000Y-91719878D01*
X150150761Y-91824327D01*
X150269664Y-91956383D01*
X150358514Y-92110274D01*
X150413425Y-92279275D01*
X150432000Y-92456000D01*
X150413425Y-92632725D01*
X150358514Y-92801726D01*
X150269664Y-92955617D01*
X150150761Y-93087673D01*
X150007000Y-93192122D01*
X149844664Y-93264398D01*
X149670849Y-93301344D01*
X149493151Y-93301344D01*
X149319336Y-93264398D01*
X149157000Y-93192122D01*
X149013239Y-93087673D01*
X148894336Y-92955617D01*
X148805486Y-92801726D01*
X148750575Y-92632725D01*
X148732000Y-92456000D01*
X148750575Y-92279275D01*
X148805486Y-92110274D01*
X148894336Y-91956383D01*
X149013239Y-91824327D01*
X149157000Y-91719878D01*
X149319336Y-91647602D01*
X149493151Y-91610656D01*
X149670849Y-91610656D01*
X149844664Y-91647602D01*
G37*
G36*
X197529113Y-91375930D02*
G01*
X197576076Y-91375930D01*
X197616622Y-91384548D01*
X197657526Y-91388577D01*
X197708916Y-91404166D01*
X197760115Y-91415049D01*
X197792879Y-91429636D01*
X197826304Y-91439776D01*
X197879420Y-91468166D01*
X197932000Y-91491577D01*
X197956445Y-91509337D01*
X197981849Y-91522916D01*
X198033669Y-91565444D01*
X198084218Y-91602170D01*
X198100631Y-91620398D01*
X198118190Y-91634809D01*
X198165379Y-91692308D01*
X198210115Y-91741993D01*
X198219512Y-91758269D01*
X198230083Y-91771150D01*
X198269183Y-91844302D01*
X198304191Y-91904937D01*
X198308218Y-91917331D01*
X198313223Y-91926695D01*
X198340821Y-92017672D01*
X198362333Y-92083879D01*
X198363090Y-92091082D01*
X198364422Y-92095473D01*
X198377377Y-92227021D01*
X198382000Y-92271000D01*
X198377377Y-92314982D01*
X198364422Y-92446526D01*
X198363090Y-92450916D01*
X198362333Y-92458121D01*
X198340816Y-92524341D01*
X198313223Y-92615304D01*
X198308219Y-92624665D01*
X198304191Y-92637063D01*
X198269176Y-92697709D01*
X198230083Y-92770849D01*
X198219514Y-92783726D01*
X198210115Y-92800007D01*
X198165369Y-92849701D01*
X198118190Y-92907190D01*
X198100634Y-92921597D01*
X198084218Y-92939830D01*
X198033659Y-92976563D01*
X197981849Y-93019083D01*
X197956450Y-93032658D01*
X197932000Y-93050423D01*
X197879408Y-93073838D01*
X197826304Y-93102223D01*
X197792886Y-93112360D01*
X197760115Y-93126951D01*
X197708905Y-93137836D01*
X197657526Y-93153422D01*
X197616631Y-93157449D01*
X197576076Y-93166070D01*
X197529103Y-93166070D01*
X197482000Y-93170709D01*
X197434897Y-93166070D01*
X197387924Y-93166070D01*
X197347368Y-93157449D01*
X197306473Y-93153422D01*
X197255091Y-93137835D01*
X197203885Y-93126951D01*
X197171115Y-93112361D01*
X197137695Y-93102223D01*
X197084585Y-93073835D01*
X197032000Y-93050423D01*
X197007552Y-93032660D01*
X196982150Y-93019083D01*
X196930332Y-92976556D01*
X196879782Y-92939830D01*
X196863368Y-92921600D01*
X196845809Y-92907190D01*
X196798618Y-92849688D01*
X196753885Y-92800007D01*
X196744487Y-92783730D01*
X196733916Y-92770849D01*
X196694810Y-92697686D01*
X196659809Y-92637063D01*
X196655782Y-92624670D01*
X196650776Y-92615304D01*
X196623168Y-92524294D01*
X196601667Y-92458121D01*
X196600910Y-92450921D01*
X196599577Y-92446526D01*
X196586606Y-92314831D01*
X196582000Y-92271000D01*
X196586606Y-92227172D01*
X196599577Y-92095473D01*
X196600910Y-92091077D01*
X196601667Y-92083879D01*
X196623163Y-92017719D01*
X196650776Y-91926695D01*
X196655783Y-91917327D01*
X196659809Y-91904937D01*
X196694802Y-91844326D01*
X196733916Y-91771150D01*
X196744489Y-91758265D01*
X196753885Y-91741993D01*
X196798609Y-91692321D01*
X196845809Y-91634809D01*
X196863371Y-91620395D01*
X196879782Y-91602170D01*
X196930321Y-91565450D01*
X196982150Y-91522916D01*
X197007557Y-91509335D01*
X197032000Y-91491577D01*
X197084573Y-91468169D01*
X197137695Y-91439776D01*
X197171122Y-91429635D01*
X197203885Y-91415049D01*
X197255080Y-91404166D01*
X197306473Y-91388577D01*
X197347377Y-91384548D01*
X197387924Y-91375930D01*
X197434887Y-91375930D01*
X197482000Y-91371290D01*
X197529113Y-91375930D01*
G37*
G36*
X108334174Y-87751447D02*
G01*
X108496510Y-87823723D01*
X108640271Y-87928172D01*
X108759174Y-88060228D01*
X108848024Y-88214119D01*
X108902935Y-88383120D01*
X108921510Y-88559845D01*
X108902935Y-88736570D01*
X108848024Y-88905571D01*
X108759174Y-89059462D01*
X108640271Y-89191518D01*
X108496510Y-89295967D01*
X108334174Y-89368243D01*
X108160359Y-89405189D01*
X107982661Y-89405189D01*
X107808846Y-89368243D01*
X107646510Y-89295967D01*
X107502749Y-89191518D01*
X107383846Y-89059462D01*
X107294996Y-88905571D01*
X107240085Y-88736570D01*
X107221510Y-88559845D01*
X107240085Y-88383120D01*
X107294996Y-88214119D01*
X107383846Y-88060228D01*
X107502749Y-87928172D01*
X107646510Y-87823723D01*
X107808846Y-87751447D01*
X107982661Y-87714501D01*
X108160359Y-87714501D01*
X108334174Y-87751447D01*
G37*
G36*
X111069643Y-86763794D02*
G01*
X109867561Y-87965876D01*
X108665479Y-86763794D01*
X109867561Y-85561712D01*
X111069643Y-86763794D01*
G37*
G36*
X155282000Y-86956000D02*
G01*
X153582000Y-86956000D01*
X153582000Y-85256000D01*
X155282000Y-85256000D01*
X155282000Y-86956000D01*
G37*
G36*
X167982000Y-86956000D02*
G01*
X166282000Y-86956000D01*
X166282000Y-85256000D01*
X167982000Y-85256000D01*
X167982000Y-86956000D01*
G37*
G36*
X180682000Y-86956000D02*
G01*
X178982000Y-86956000D01*
X178982000Y-85256000D01*
X180682000Y-85256000D01*
X180682000Y-86956000D01*
G37*
G36*
X193382000Y-86956000D02*
G01*
X191682000Y-86956000D01*
X191682000Y-85256000D01*
X193382000Y-85256000D01*
X193382000Y-86956000D01*
G37*
G36*
X149614664Y-85297602D02*
G01*
X149777000Y-85369878D01*
X149920761Y-85474327D01*
X150039664Y-85606383D01*
X150128514Y-85760274D01*
X150183425Y-85929275D01*
X150202000Y-86106000D01*
X150183425Y-86282725D01*
X150128514Y-86451726D01*
X150039664Y-86605617D01*
X149920761Y-86737673D01*
X149777000Y-86842122D01*
X149614664Y-86914398D01*
X149440849Y-86951344D01*
X149263151Y-86951344D01*
X149089336Y-86914398D01*
X148927000Y-86842122D01*
X148783239Y-86737673D01*
X148664336Y-86605617D01*
X148575486Y-86451726D01*
X148520575Y-86282725D01*
X148502000Y-86106000D01*
X148520575Y-85929275D01*
X148575486Y-85760274D01*
X148664336Y-85606383D01*
X148783239Y-85474327D01*
X148927000Y-85369878D01*
X149089336Y-85297602D01*
X149263151Y-85260656D01*
X149440849Y-85260656D01*
X149614664Y-85297602D01*
G37*
G36*
X152154664Y-85297602D02*
G01*
X152317000Y-85369878D01*
X152460761Y-85474327D01*
X152579664Y-85606383D01*
X152668514Y-85760274D01*
X152723425Y-85929275D01*
X152742000Y-86106000D01*
X152723425Y-86282725D01*
X152668514Y-86451726D01*
X152579664Y-86605617D01*
X152460761Y-86737673D01*
X152317000Y-86842122D01*
X152154664Y-86914398D01*
X151980849Y-86951344D01*
X151803151Y-86951344D01*
X151629336Y-86914398D01*
X151467000Y-86842122D01*
X151323239Y-86737673D01*
X151204336Y-86605617D01*
X151115486Y-86451726D01*
X151060575Y-86282725D01*
X151042000Y-86106000D01*
X151060575Y-85929275D01*
X151115486Y-85760274D01*
X151204336Y-85606383D01*
X151323239Y-85474327D01*
X151467000Y-85369878D01*
X151629336Y-85297602D01*
X151803151Y-85260656D01*
X151980849Y-85260656D01*
X152154664Y-85297602D01*
G37*
G36*
X157234664Y-85297602D02*
G01*
X157397000Y-85369878D01*
X157540761Y-85474327D01*
X157659664Y-85606383D01*
X157748514Y-85760274D01*
X157803425Y-85929275D01*
X157822000Y-86106000D01*
X157803425Y-86282725D01*
X157748514Y-86451726D01*
X157659664Y-86605617D01*
X157540761Y-86737673D01*
X157397000Y-86842122D01*
X157234664Y-86914398D01*
X157060849Y-86951344D01*
X156883151Y-86951344D01*
X156709336Y-86914398D01*
X156547000Y-86842122D01*
X156403239Y-86737673D01*
X156284336Y-86605617D01*
X156195486Y-86451726D01*
X156140575Y-86282725D01*
X156122000Y-86106000D01*
X156140575Y-85929275D01*
X156195486Y-85760274D01*
X156284336Y-85606383D01*
X156403239Y-85474327D01*
X156547000Y-85369878D01*
X156709336Y-85297602D01*
X156883151Y-85260656D01*
X157060849Y-85260656D01*
X157234664Y-85297602D01*
G37*
G36*
X159774664Y-85297602D02*
G01*
X159937000Y-85369878D01*
X160080761Y-85474327D01*
X160199664Y-85606383D01*
X160288514Y-85760274D01*
X160343425Y-85929275D01*
X160362000Y-86106000D01*
X160343425Y-86282725D01*
X160288514Y-86451726D01*
X160199664Y-86605617D01*
X160080761Y-86737673D01*
X159937000Y-86842122D01*
X159774664Y-86914398D01*
X159600849Y-86951344D01*
X159423151Y-86951344D01*
X159249336Y-86914398D01*
X159087000Y-86842122D01*
X158943239Y-86737673D01*
X158824336Y-86605617D01*
X158735486Y-86451726D01*
X158680575Y-86282725D01*
X158662000Y-86106000D01*
X158680575Y-85929275D01*
X158735486Y-85760274D01*
X158824336Y-85606383D01*
X158943239Y-85474327D01*
X159087000Y-85369878D01*
X159249336Y-85297602D01*
X159423151Y-85260656D01*
X159600849Y-85260656D01*
X159774664Y-85297602D01*
G37*
G36*
X162314664Y-85297602D02*
G01*
X162477000Y-85369878D01*
X162620761Y-85474327D01*
X162739664Y-85606383D01*
X162828514Y-85760274D01*
X162883425Y-85929275D01*
X162902000Y-86106000D01*
X162883425Y-86282725D01*
X162828514Y-86451726D01*
X162739664Y-86605617D01*
X162620761Y-86737673D01*
X162477000Y-86842122D01*
X162314664Y-86914398D01*
X162140849Y-86951344D01*
X161963151Y-86951344D01*
X161789336Y-86914398D01*
X161627000Y-86842122D01*
X161483239Y-86737673D01*
X161364336Y-86605617D01*
X161275486Y-86451726D01*
X161220575Y-86282725D01*
X161202000Y-86106000D01*
X161220575Y-85929275D01*
X161275486Y-85760274D01*
X161364336Y-85606383D01*
X161483239Y-85474327D01*
X161627000Y-85369878D01*
X161789336Y-85297602D01*
X161963151Y-85260656D01*
X162140849Y-85260656D01*
X162314664Y-85297602D01*
G37*
G36*
X164854664Y-85297602D02*
G01*
X165017000Y-85369878D01*
X165160761Y-85474327D01*
X165279664Y-85606383D01*
X165368514Y-85760274D01*
X165423425Y-85929275D01*
X165442000Y-86106000D01*
X165423425Y-86282725D01*
X165368514Y-86451726D01*
X165279664Y-86605617D01*
X165160761Y-86737673D01*
X165017000Y-86842122D01*
X164854664Y-86914398D01*
X164680849Y-86951344D01*
X164503151Y-86951344D01*
X164329336Y-86914398D01*
X164167000Y-86842122D01*
X164023239Y-86737673D01*
X163904336Y-86605617D01*
X163815486Y-86451726D01*
X163760575Y-86282725D01*
X163742000Y-86106000D01*
X163760575Y-85929275D01*
X163815486Y-85760274D01*
X163904336Y-85606383D01*
X164023239Y-85474327D01*
X164167000Y-85369878D01*
X164329336Y-85297602D01*
X164503151Y-85260656D01*
X164680849Y-85260656D01*
X164854664Y-85297602D01*
G37*
G36*
X169934664Y-85297602D02*
G01*
X170097000Y-85369878D01*
X170240761Y-85474327D01*
X170359664Y-85606383D01*
X170448514Y-85760274D01*
X170503425Y-85929275D01*
X170522000Y-86106000D01*
X170503425Y-86282725D01*
X170448514Y-86451726D01*
X170359664Y-86605617D01*
X170240761Y-86737673D01*
X170097000Y-86842122D01*
X169934664Y-86914398D01*
X169760849Y-86951344D01*
X169583151Y-86951344D01*
X169409336Y-86914398D01*
X169247000Y-86842122D01*
X169103239Y-86737673D01*
X168984336Y-86605617D01*
X168895486Y-86451726D01*
X168840575Y-86282725D01*
X168822000Y-86106000D01*
X168840575Y-85929275D01*
X168895486Y-85760274D01*
X168984336Y-85606383D01*
X169103239Y-85474327D01*
X169247000Y-85369878D01*
X169409336Y-85297602D01*
X169583151Y-85260656D01*
X169760849Y-85260656D01*
X169934664Y-85297602D01*
G37*
G36*
X172474664Y-85297602D02*
G01*
X172637000Y-85369878D01*
X172780761Y-85474327D01*
X172899664Y-85606383D01*
X172988514Y-85760274D01*
X173043425Y-85929275D01*
X173062000Y-86106000D01*
X173043425Y-86282725D01*
X172988514Y-86451726D01*
X172899664Y-86605617D01*
X172780761Y-86737673D01*
X172637000Y-86842122D01*
X172474664Y-86914398D01*
X172300849Y-86951344D01*
X172123151Y-86951344D01*
X171949336Y-86914398D01*
X171787000Y-86842122D01*
X171643239Y-86737673D01*
X171524336Y-86605617D01*
X171435486Y-86451726D01*
X171380575Y-86282725D01*
X171362000Y-86106000D01*
X171380575Y-85929275D01*
X171435486Y-85760274D01*
X171524336Y-85606383D01*
X171643239Y-85474327D01*
X171787000Y-85369878D01*
X171949336Y-85297602D01*
X172123151Y-85260656D01*
X172300849Y-85260656D01*
X172474664Y-85297602D01*
G37*
G36*
X175014664Y-85297602D02*
G01*
X175177000Y-85369878D01*
X175320761Y-85474327D01*
X175439664Y-85606383D01*
X175528514Y-85760274D01*
X175583425Y-85929275D01*
X175602000Y-86106000D01*
X175583425Y-86282725D01*
X175528514Y-86451726D01*
X175439664Y-86605617D01*
X175320761Y-86737673D01*
X175177000Y-86842122D01*
X175014664Y-86914398D01*
X174840849Y-86951344D01*
X174663151Y-86951344D01*
X174489336Y-86914398D01*
X174327000Y-86842122D01*
X174183239Y-86737673D01*
X174064336Y-86605617D01*
X173975486Y-86451726D01*
X173920575Y-86282725D01*
X173902000Y-86106000D01*
X173920575Y-85929275D01*
X173975486Y-85760274D01*
X174064336Y-85606383D01*
X174183239Y-85474327D01*
X174327000Y-85369878D01*
X174489336Y-85297602D01*
X174663151Y-85260656D01*
X174840849Y-85260656D01*
X175014664Y-85297602D01*
G37*
G36*
X177554664Y-85297602D02*
G01*
X177717000Y-85369878D01*
X177860761Y-85474327D01*
X177979664Y-85606383D01*
X178068514Y-85760274D01*
X178123425Y-85929275D01*
X178142000Y-86106000D01*
X178123425Y-86282725D01*
X178068514Y-86451726D01*
X177979664Y-86605617D01*
X177860761Y-86737673D01*
X177717000Y-86842122D01*
X177554664Y-86914398D01*
X177380849Y-86951344D01*
X177203151Y-86951344D01*
X177029336Y-86914398D01*
X176867000Y-86842122D01*
X176723239Y-86737673D01*
X176604336Y-86605617D01*
X176515486Y-86451726D01*
X176460575Y-86282725D01*
X176442000Y-86106000D01*
X176460575Y-85929275D01*
X176515486Y-85760274D01*
X176604336Y-85606383D01*
X176723239Y-85474327D01*
X176867000Y-85369878D01*
X177029336Y-85297602D01*
X177203151Y-85260656D01*
X177380849Y-85260656D01*
X177554664Y-85297602D01*
G37*
G36*
X182634664Y-85297602D02*
G01*
X182797000Y-85369878D01*
X182940761Y-85474327D01*
X183059664Y-85606383D01*
X183148514Y-85760274D01*
X183203425Y-85929275D01*
X183222000Y-86106000D01*
X183203425Y-86282725D01*
X183148514Y-86451726D01*
X183059664Y-86605617D01*
X182940761Y-86737673D01*
X182797000Y-86842122D01*
X182634664Y-86914398D01*
X182460849Y-86951344D01*
X182283151Y-86951344D01*
X182109336Y-86914398D01*
X181947000Y-86842122D01*
X181803239Y-86737673D01*
X181684336Y-86605617D01*
X181595486Y-86451726D01*
X181540575Y-86282725D01*
X181522000Y-86106000D01*
X181540575Y-85929275D01*
X181595486Y-85760274D01*
X181684336Y-85606383D01*
X181803239Y-85474327D01*
X181947000Y-85369878D01*
X182109336Y-85297602D01*
X182283151Y-85260656D01*
X182460849Y-85260656D01*
X182634664Y-85297602D01*
G37*
G36*
X185174664Y-85297602D02*
G01*
X185337000Y-85369878D01*
X185480761Y-85474327D01*
X185599664Y-85606383D01*
X185688514Y-85760274D01*
X185743425Y-85929275D01*
X185762000Y-86106000D01*
X185743425Y-86282725D01*
X185688514Y-86451726D01*
X185599664Y-86605617D01*
X185480761Y-86737673D01*
X185337000Y-86842122D01*
X185174664Y-86914398D01*
X185000849Y-86951344D01*
X184823151Y-86951344D01*
X184649336Y-86914398D01*
X184487000Y-86842122D01*
X184343239Y-86737673D01*
X184224336Y-86605617D01*
X184135486Y-86451726D01*
X184080575Y-86282725D01*
X184062000Y-86106000D01*
X184080575Y-85929275D01*
X184135486Y-85760274D01*
X184224336Y-85606383D01*
X184343239Y-85474327D01*
X184487000Y-85369878D01*
X184649336Y-85297602D01*
X184823151Y-85260656D01*
X185000849Y-85260656D01*
X185174664Y-85297602D01*
G37*
G36*
X187714664Y-85297602D02*
G01*
X187877000Y-85369878D01*
X188020761Y-85474327D01*
X188139664Y-85606383D01*
X188228514Y-85760274D01*
X188283425Y-85929275D01*
X188302000Y-86106000D01*
X188283425Y-86282725D01*
X188228514Y-86451726D01*
X188139664Y-86605617D01*
X188020761Y-86737673D01*
X187877000Y-86842122D01*
X187714664Y-86914398D01*
X187540849Y-86951344D01*
X187363151Y-86951344D01*
X187189336Y-86914398D01*
X187027000Y-86842122D01*
X186883239Y-86737673D01*
X186764336Y-86605617D01*
X186675486Y-86451726D01*
X186620575Y-86282725D01*
X186602000Y-86106000D01*
X186620575Y-85929275D01*
X186675486Y-85760274D01*
X186764336Y-85606383D01*
X186883239Y-85474327D01*
X187027000Y-85369878D01*
X187189336Y-85297602D01*
X187363151Y-85260656D01*
X187540849Y-85260656D01*
X187714664Y-85297602D01*
G37*
G36*
X190254664Y-85297602D02*
G01*
X190417000Y-85369878D01*
X190560761Y-85474327D01*
X190679664Y-85606383D01*
X190768514Y-85760274D01*
X190823425Y-85929275D01*
X190842000Y-86106000D01*
X190823425Y-86282725D01*
X190768514Y-86451726D01*
X190679664Y-86605617D01*
X190560761Y-86737673D01*
X190417000Y-86842122D01*
X190254664Y-86914398D01*
X190080849Y-86951344D01*
X189903151Y-86951344D01*
X189729336Y-86914398D01*
X189567000Y-86842122D01*
X189423239Y-86737673D01*
X189304336Y-86605617D01*
X189215486Y-86451726D01*
X189160575Y-86282725D01*
X189142000Y-86106000D01*
X189160575Y-85929275D01*
X189215486Y-85760274D01*
X189304336Y-85606383D01*
X189423239Y-85474327D01*
X189567000Y-85369878D01*
X189729336Y-85297602D01*
X189903151Y-85260656D01*
X190080849Y-85260656D01*
X190254664Y-85297602D01*
G37*
G36*
X195334664Y-85297602D02*
G01*
X195497000Y-85369878D01*
X195640761Y-85474327D01*
X195759664Y-85606383D01*
X195848514Y-85760274D01*
X195903425Y-85929275D01*
X195922000Y-86106000D01*
X195903425Y-86282725D01*
X195848514Y-86451726D01*
X195759664Y-86605617D01*
X195640761Y-86737673D01*
X195497000Y-86842122D01*
X195334664Y-86914398D01*
X195160849Y-86951344D01*
X194983151Y-86951344D01*
X194809336Y-86914398D01*
X194647000Y-86842122D01*
X194503239Y-86737673D01*
X194384336Y-86605617D01*
X194295486Y-86451726D01*
X194240575Y-86282725D01*
X194222000Y-86106000D01*
X194240575Y-85929275D01*
X194295486Y-85760274D01*
X194384336Y-85606383D01*
X194503239Y-85474327D01*
X194647000Y-85369878D01*
X194809336Y-85297602D01*
X194983151Y-85260656D01*
X195160849Y-85260656D01*
X195334664Y-85297602D01*
G37*
G36*
X197874664Y-85297602D02*
G01*
X198037000Y-85369878D01*
X198180761Y-85474327D01*
X198299664Y-85606383D01*
X198388514Y-85760274D01*
X198443425Y-85929275D01*
X198462000Y-86106000D01*
X198443425Y-86282725D01*
X198388514Y-86451726D01*
X198299664Y-86605617D01*
X198180761Y-86737673D01*
X198037000Y-86842122D01*
X197874664Y-86914398D01*
X197700849Y-86951344D01*
X197523151Y-86951344D01*
X197349336Y-86914398D01*
X197187000Y-86842122D01*
X197043239Y-86737673D01*
X196924336Y-86605617D01*
X196835486Y-86451726D01*
X196780575Y-86282725D01*
X196762000Y-86106000D01*
X196780575Y-85929275D01*
X196835486Y-85760274D01*
X196924336Y-85606383D01*
X197043239Y-85474327D01*
X197187000Y-85369878D01*
X197349336Y-85297602D01*
X197523151Y-85260656D01*
X197700849Y-85260656D01*
X197874664Y-85297602D01*
G37*
G36*
X191824000Y-78648000D02*
G01*
X189524000Y-78648000D01*
X189524000Y-76348000D01*
X191824000Y-76348000D01*
X191824000Y-78648000D01*
G37*
G36*
X192485403Y-72820418D02*
G01*
X192534066Y-72852934D01*
X192566582Y-72901597D01*
X192578000Y-72959000D01*
X192578000Y-74609000D01*
X192566582Y-74666403D01*
X192534066Y-74715066D01*
X192485403Y-74747582D01*
X192428000Y-74759000D01*
X192128000Y-74759000D01*
X192070597Y-74747582D01*
X192021934Y-74715066D01*
X191989418Y-74666403D01*
X191978000Y-74609000D01*
X191978000Y-72959000D01*
X191989418Y-72901597D01*
X192021934Y-72852934D01*
X192070597Y-72820418D01*
X192128000Y-72809000D01*
X192428000Y-72809000D01*
X192485403Y-72820418D01*
G37*
G36*
X193755403Y-72820418D02*
G01*
X193804066Y-72852934D01*
X193836582Y-72901597D01*
X193848000Y-72959000D01*
X193848000Y-74609000D01*
X193836582Y-74666403D01*
X193804066Y-74715066D01*
X193755403Y-74747582D01*
X193698000Y-74759000D01*
X193398000Y-74759000D01*
X193340597Y-74747582D01*
X193291934Y-74715066D01*
X193259418Y-74666403D01*
X193248000Y-74609000D01*
X193248000Y-72959000D01*
X193259418Y-72901597D01*
X193291934Y-72852934D01*
X193340597Y-72820418D01*
X193398000Y-72809000D01*
X193698000Y-72809000D01*
X193755403Y-72820418D01*
G37*
G36*
X195025403Y-72820418D02*
G01*
X195074066Y-72852934D01*
X195106582Y-72901597D01*
X195118000Y-72959000D01*
X195118000Y-74609000D01*
X195106582Y-74666403D01*
X195074066Y-74715066D01*
X195025403Y-74747582D01*
X194968000Y-74759000D01*
X194668000Y-74759000D01*
X194610597Y-74747582D01*
X194561934Y-74715066D01*
X194529418Y-74666403D01*
X194518000Y-74609000D01*
X194518000Y-72959000D01*
X194529418Y-72901597D01*
X194561934Y-72852934D01*
X194610597Y-72820418D01*
X194668000Y-72809000D01*
X194968000Y-72809000D01*
X195025403Y-72820418D01*
G37*
G36*
X196295403Y-72820418D02*
G01*
X196344066Y-72852934D01*
X196376582Y-72901597D01*
X196388000Y-72959000D01*
X196388000Y-74609000D01*
X196376582Y-74666403D01*
X196344066Y-74715066D01*
X196295403Y-74747582D01*
X196238000Y-74759000D01*
X195938000Y-74759000D01*
X195880597Y-74747582D01*
X195831934Y-74715066D01*
X195799418Y-74666403D01*
X195788000Y-74609000D01*
X195788000Y-72959000D01*
X195799418Y-72901597D01*
X195831934Y-72852934D01*
X195880597Y-72820418D01*
X195938000Y-72809000D01*
X196238000Y-72809000D01*
X196295403Y-72820418D01*
G37*
G36*
X153554000Y-70496000D02*
G01*
X151754000Y-70496000D01*
X151754000Y-68696000D01*
X153554000Y-68696000D01*
X153554000Y-70496000D01*
G37*
G36*
X159904000Y-70496000D02*
G01*
X158104000Y-70496000D01*
X158104000Y-68696000D01*
X159904000Y-68696000D01*
X159904000Y-70496000D01*
G37*
G36*
X166254000Y-70496000D02*
G01*
X164454000Y-70496000D01*
X164454000Y-68696000D01*
X166254000Y-68696000D01*
X166254000Y-70496000D01*
G37*
G36*
X192485403Y-67870418D02*
G01*
X192534066Y-67902934D01*
X192566582Y-67951597D01*
X192578000Y-68009000D01*
X192578000Y-69659000D01*
X192566582Y-69716403D01*
X192534066Y-69765066D01*
X192485403Y-69797582D01*
X192428000Y-69809000D01*
X192128000Y-69809000D01*
X192070597Y-69797582D01*
X192021934Y-69765066D01*
X191989418Y-69716403D01*
X191978000Y-69659000D01*
X191978000Y-68009000D01*
X191989418Y-67951597D01*
X192021934Y-67902934D01*
X192070597Y-67870418D01*
X192128000Y-67859000D01*
X192428000Y-67859000D01*
X192485403Y-67870418D01*
G37*
G36*
X193755403Y-67870418D02*
G01*
X193804066Y-67902934D01*
X193836582Y-67951597D01*
X193848000Y-68009000D01*
X193848000Y-69659000D01*
X193836582Y-69716403D01*
X193804066Y-69765066D01*
X193755403Y-69797582D01*
X193698000Y-69809000D01*
X193398000Y-69809000D01*
X193340597Y-69797582D01*
X193291934Y-69765066D01*
X193259418Y-69716403D01*
X193248000Y-69659000D01*
X193248000Y-68009000D01*
X193259418Y-67951597D01*
X193291934Y-67902934D01*
X193340597Y-67870418D01*
X193398000Y-67859000D01*
X193698000Y-67859000D01*
X193755403Y-67870418D01*
G37*
G36*
X195025403Y-67870418D02*
G01*
X195074066Y-67902934D01*
X195106582Y-67951597D01*
X195118000Y-68009000D01*
X195118000Y-69659000D01*
X195106582Y-69716403D01*
X195074066Y-69765066D01*
X195025403Y-69797582D01*
X194968000Y-69809000D01*
X194668000Y-69809000D01*
X194610597Y-69797582D01*
X194561934Y-69765066D01*
X194529418Y-69716403D01*
X194518000Y-69659000D01*
X194518000Y-68009000D01*
X194529418Y-67951597D01*
X194561934Y-67902934D01*
X194610597Y-67870418D01*
X194668000Y-67859000D01*
X194968000Y-67859000D01*
X195025403Y-67870418D01*
G37*
G36*
X196295403Y-67870418D02*
G01*
X196344066Y-67902934D01*
X196376582Y-67951597D01*
X196388000Y-68009000D01*
X196388000Y-69659000D01*
X196376582Y-69716403D01*
X196344066Y-69765066D01*
X196295403Y-69797582D01*
X196238000Y-69809000D01*
X195938000Y-69809000D01*
X195880597Y-69797582D01*
X195831934Y-69765066D01*
X195799418Y-69716403D01*
X195788000Y-69659000D01*
X195788000Y-68009000D01*
X195799418Y-67951597D01*
X195831934Y-67902934D01*
X195880597Y-67870418D01*
X195938000Y-67859000D01*
X196238000Y-67859000D01*
X196295403Y-67870418D01*
G37*
G36*
X152701113Y-66160930D02*
G01*
X152748076Y-66160930D01*
X152788622Y-66169548D01*
X152829526Y-66173577D01*
X152880916Y-66189166D01*
X152932115Y-66200049D01*
X152964879Y-66214636D01*
X152998304Y-66224776D01*
X153051420Y-66253166D01*
X153104000Y-66276577D01*
X153128445Y-66294337D01*
X153153849Y-66307916D01*
X153205669Y-66350444D01*
X153256218Y-66387170D01*
X153272631Y-66405398D01*
X153290190Y-66419809D01*
X153337379Y-66477308D01*
X153382115Y-66526993D01*
X153391512Y-66543269D01*
X153402083Y-66556150D01*
X153441183Y-66629302D01*
X153476191Y-66689937D01*
X153480218Y-66702331D01*
X153485223Y-66711695D01*
X153512821Y-66802672D01*
X153534333Y-66868879D01*
X153535090Y-66876082D01*
X153536422Y-66880473D01*
X153549377Y-67012021D01*
X153554000Y-67056000D01*
X153549377Y-67099982D01*
X153536422Y-67231526D01*
X153535090Y-67235916D01*
X153534333Y-67243121D01*
X153512816Y-67309341D01*
X153485223Y-67400304D01*
X153480219Y-67409665D01*
X153476191Y-67422063D01*
X153441176Y-67482709D01*
X153402083Y-67555849D01*
X153391514Y-67568726D01*
X153382115Y-67585007D01*
X153337369Y-67634701D01*
X153290190Y-67692190D01*
X153272634Y-67706597D01*
X153256218Y-67724830D01*
X153205659Y-67761563D01*
X153153849Y-67804083D01*
X153128450Y-67817658D01*
X153104000Y-67835423D01*
X153051408Y-67858838D01*
X152998304Y-67887223D01*
X152964886Y-67897360D01*
X152932115Y-67911951D01*
X152880905Y-67922836D01*
X152829526Y-67938422D01*
X152788631Y-67942449D01*
X152748076Y-67951070D01*
X152701103Y-67951070D01*
X152654000Y-67955709D01*
X152606897Y-67951070D01*
X152559924Y-67951070D01*
X152519368Y-67942449D01*
X152478473Y-67938422D01*
X152427091Y-67922835D01*
X152375885Y-67911951D01*
X152343115Y-67897361D01*
X152309695Y-67887223D01*
X152256585Y-67858835D01*
X152204000Y-67835423D01*
X152179552Y-67817660D01*
X152154150Y-67804083D01*
X152102332Y-67761556D01*
X152051782Y-67724830D01*
X152035368Y-67706600D01*
X152017809Y-67692190D01*
X151970618Y-67634688D01*
X151925885Y-67585007D01*
X151916487Y-67568730D01*
X151905916Y-67555849D01*
X151866810Y-67482686D01*
X151831809Y-67422063D01*
X151827782Y-67409670D01*
X151822776Y-67400304D01*
X151795168Y-67309294D01*
X151773667Y-67243121D01*
X151772910Y-67235921D01*
X151771577Y-67231526D01*
X151758606Y-67099831D01*
X151754000Y-67056000D01*
X151758606Y-67012172D01*
X151771577Y-66880473D01*
X151772910Y-66876077D01*
X151773667Y-66868879D01*
X151795163Y-66802719D01*
X151822776Y-66711695D01*
X151827783Y-66702327D01*
X151831809Y-66689937D01*
X151866802Y-66629326D01*
X151905916Y-66556150D01*
X151916489Y-66543265D01*
X151925885Y-66526993D01*
X151970609Y-66477321D01*
X152017809Y-66419809D01*
X152035371Y-66405395D01*
X152051782Y-66387170D01*
X152102321Y-66350450D01*
X152154150Y-66307916D01*
X152179557Y-66294335D01*
X152204000Y-66276577D01*
X152256573Y-66253169D01*
X152309695Y-66224776D01*
X152343122Y-66214635D01*
X152375885Y-66200049D01*
X152427080Y-66189166D01*
X152478473Y-66173577D01*
X152519377Y-66169548D01*
X152559924Y-66160930D01*
X152606887Y-66160930D01*
X152654000Y-66156290D01*
X152701113Y-66160930D01*
G37*
G36*
X159051113Y-66160930D02*
G01*
X159098076Y-66160930D01*
X159138622Y-66169548D01*
X159179526Y-66173577D01*
X159230916Y-66189166D01*
X159282115Y-66200049D01*
X159314879Y-66214636D01*
X159348304Y-66224776D01*
X159401420Y-66253166D01*
X159454000Y-66276577D01*
X159478445Y-66294337D01*
X159503849Y-66307916D01*
X159555669Y-66350444D01*
X159606218Y-66387170D01*
X159622631Y-66405398D01*
X159640190Y-66419809D01*
X159687379Y-66477308D01*
X159732115Y-66526993D01*
X159741512Y-66543269D01*
X159752083Y-66556150D01*
X159791183Y-66629302D01*
X159826191Y-66689937D01*
X159830218Y-66702331D01*
X159835223Y-66711695D01*
X159862821Y-66802672D01*
X159884333Y-66868879D01*
X159885090Y-66876082D01*
X159886422Y-66880473D01*
X159899377Y-67012021D01*
X159904000Y-67056000D01*
X159899377Y-67099982D01*
X159886422Y-67231526D01*
X159885090Y-67235916D01*
X159884333Y-67243121D01*
X159862816Y-67309341D01*
X159835223Y-67400304D01*
X159830219Y-67409665D01*
X159826191Y-67422063D01*
X159791176Y-67482709D01*
X159752083Y-67555849D01*
X159741514Y-67568726D01*
X159732115Y-67585007D01*
X159687369Y-67634701D01*
X159640190Y-67692190D01*
X159622634Y-67706597D01*
X159606218Y-67724830D01*
X159555659Y-67761563D01*
X159503849Y-67804083D01*
X159478450Y-67817658D01*
X159454000Y-67835423D01*
X159401408Y-67858838D01*
X159348304Y-67887223D01*
X159314886Y-67897360D01*
X159282115Y-67911951D01*
X159230905Y-67922836D01*
X159179526Y-67938422D01*
X159138631Y-67942449D01*
X159098076Y-67951070D01*
X159051103Y-67951070D01*
X159004000Y-67955709D01*
X158956897Y-67951070D01*
X158909924Y-67951070D01*
X158869368Y-67942449D01*
X158828473Y-67938422D01*
X158777091Y-67922835D01*
X158725885Y-67911951D01*
X158693115Y-67897361D01*
X158659695Y-67887223D01*
X158606585Y-67858835D01*
X158554000Y-67835423D01*
X158529552Y-67817660D01*
X158504150Y-67804083D01*
X158452332Y-67761556D01*
X158401782Y-67724830D01*
X158385368Y-67706600D01*
X158367809Y-67692190D01*
X158320618Y-67634688D01*
X158275885Y-67585007D01*
X158266487Y-67568730D01*
X158255916Y-67555849D01*
X158216810Y-67482686D01*
X158181809Y-67422063D01*
X158177782Y-67409670D01*
X158172776Y-67400304D01*
X158145168Y-67309294D01*
X158123667Y-67243121D01*
X158122910Y-67235921D01*
X158121577Y-67231526D01*
X158108606Y-67099831D01*
X158104000Y-67056000D01*
X158108606Y-67012172D01*
X158121577Y-66880473D01*
X158122910Y-66876077D01*
X158123667Y-66868879D01*
X158145163Y-66802719D01*
X158172776Y-66711695D01*
X158177783Y-66702327D01*
X158181809Y-66689937D01*
X158216802Y-66629326D01*
X158255916Y-66556150D01*
X158266489Y-66543265D01*
X158275885Y-66526993D01*
X158320609Y-66477321D01*
X158367809Y-66419809D01*
X158385371Y-66405395D01*
X158401782Y-66387170D01*
X158452321Y-66350450D01*
X158504150Y-66307916D01*
X158529557Y-66294335D01*
X158554000Y-66276577D01*
X158606573Y-66253169D01*
X158659695Y-66224776D01*
X158693122Y-66214635D01*
X158725885Y-66200049D01*
X158777080Y-66189166D01*
X158828473Y-66173577D01*
X158869377Y-66169548D01*
X158909924Y-66160930D01*
X158956887Y-66160930D01*
X159004000Y-66156290D01*
X159051113Y-66160930D01*
G37*
G36*
X165401113Y-66160930D02*
G01*
X165448076Y-66160930D01*
X165488622Y-66169548D01*
X165529526Y-66173577D01*
X165580916Y-66189166D01*
X165632115Y-66200049D01*
X165664879Y-66214636D01*
X165698304Y-66224776D01*
X165751420Y-66253166D01*
X165804000Y-66276577D01*
X165828445Y-66294337D01*
X165853849Y-66307916D01*
X165905669Y-66350444D01*
X165956218Y-66387170D01*
X165972631Y-66405398D01*
X165990190Y-66419809D01*
X166037379Y-66477308D01*
X166082115Y-66526993D01*
X166091512Y-66543269D01*
X166102083Y-66556150D01*
X166141183Y-66629302D01*
X166176191Y-66689937D01*
X166180218Y-66702331D01*
X166185223Y-66711695D01*
X166212821Y-66802672D01*
X166234333Y-66868879D01*
X166235090Y-66876082D01*
X166236422Y-66880473D01*
X166249377Y-67012021D01*
X166254000Y-67056000D01*
X166249377Y-67099982D01*
X166236422Y-67231526D01*
X166235090Y-67235916D01*
X166234333Y-67243121D01*
X166212816Y-67309341D01*
X166185223Y-67400304D01*
X166180219Y-67409665D01*
X166176191Y-67422063D01*
X166141176Y-67482709D01*
X166102083Y-67555849D01*
X166091514Y-67568726D01*
X166082115Y-67585007D01*
X166037369Y-67634701D01*
X165990190Y-67692190D01*
X165972634Y-67706597D01*
X165956218Y-67724830D01*
X165905659Y-67761563D01*
X165853849Y-67804083D01*
X165828450Y-67817658D01*
X165804000Y-67835423D01*
X165751408Y-67858838D01*
X165698304Y-67887223D01*
X165664886Y-67897360D01*
X165632115Y-67911951D01*
X165580905Y-67922836D01*
X165529526Y-67938422D01*
X165488631Y-67942449D01*
X165448076Y-67951070D01*
X165401103Y-67951070D01*
X165354000Y-67955709D01*
X165306897Y-67951070D01*
X165259924Y-67951070D01*
X165219368Y-67942449D01*
X165178473Y-67938422D01*
X165127091Y-67922835D01*
X165075885Y-67911951D01*
X165043115Y-67897361D01*
X165009695Y-67887223D01*
X164956585Y-67858835D01*
X164904000Y-67835423D01*
X164879552Y-67817660D01*
X164854150Y-67804083D01*
X164802332Y-67761556D01*
X164751782Y-67724830D01*
X164735368Y-67706600D01*
X164717809Y-67692190D01*
X164670618Y-67634688D01*
X164625885Y-67585007D01*
X164616487Y-67568730D01*
X164605916Y-67555849D01*
X164566810Y-67482686D01*
X164531809Y-67422063D01*
X164527782Y-67409670D01*
X164522776Y-67400304D01*
X164495168Y-67309294D01*
X164473667Y-67243121D01*
X164472910Y-67235921D01*
X164471577Y-67231526D01*
X164458606Y-67099831D01*
X164454000Y-67056000D01*
X164458606Y-67012172D01*
X164471577Y-66880473D01*
X164472910Y-66876077D01*
X164473667Y-66868879D01*
X164495163Y-66802719D01*
X164522776Y-66711695D01*
X164527783Y-66702327D01*
X164531809Y-66689937D01*
X164566802Y-66629326D01*
X164605916Y-66556150D01*
X164616489Y-66543265D01*
X164625885Y-66526993D01*
X164670609Y-66477321D01*
X164717809Y-66419809D01*
X164735371Y-66405395D01*
X164751782Y-66387170D01*
X164802321Y-66350450D01*
X164854150Y-66307916D01*
X164879557Y-66294335D01*
X164904000Y-66276577D01*
X164956573Y-66253169D01*
X165009695Y-66224776D01*
X165043122Y-66214635D01*
X165075885Y-66200049D01*
X165127080Y-66189166D01*
X165178473Y-66173577D01*
X165219377Y-66169548D01*
X165259924Y-66160930D01*
X165306887Y-66160930D01*
X165354000Y-66156290D01*
X165401113Y-66160930D01*
G37*
G36*
X182988000Y-66718000D02*
G01*
X181288000Y-66718000D01*
X181288000Y-65018000D01*
X182988000Y-65018000D01*
X182988000Y-66718000D01*
G37*
G36*
X172240664Y-65059602D02*
G01*
X172403000Y-65131878D01*
X172546761Y-65236327D01*
X172665664Y-65368383D01*
X172754514Y-65522274D01*
X172809425Y-65691275D01*
X172828000Y-65868000D01*
X172809425Y-66044725D01*
X172754514Y-66213726D01*
X172665664Y-66367617D01*
X172546761Y-66499673D01*
X172403000Y-66604122D01*
X172240664Y-66676398D01*
X172066849Y-66713344D01*
X171889151Y-66713344D01*
X171715336Y-66676398D01*
X171553000Y-66604122D01*
X171409239Y-66499673D01*
X171290336Y-66367617D01*
X171201486Y-66213726D01*
X171146575Y-66044725D01*
X171128000Y-65868000D01*
X171146575Y-65691275D01*
X171201486Y-65522274D01*
X171290336Y-65368383D01*
X171409239Y-65236327D01*
X171553000Y-65131878D01*
X171715336Y-65059602D01*
X171889151Y-65022656D01*
X172066849Y-65022656D01*
X172240664Y-65059602D01*
G37*
G36*
X174780664Y-65059602D02*
G01*
X174943000Y-65131878D01*
X175086761Y-65236327D01*
X175205664Y-65368383D01*
X175294514Y-65522274D01*
X175349425Y-65691275D01*
X175368000Y-65868000D01*
X175349425Y-66044725D01*
X175294514Y-66213726D01*
X175205664Y-66367617D01*
X175086761Y-66499673D01*
X174943000Y-66604122D01*
X174780664Y-66676398D01*
X174606849Y-66713344D01*
X174429151Y-66713344D01*
X174255336Y-66676398D01*
X174093000Y-66604122D01*
X173949239Y-66499673D01*
X173830336Y-66367617D01*
X173741486Y-66213726D01*
X173686575Y-66044725D01*
X173668000Y-65868000D01*
X173686575Y-65691275D01*
X173741486Y-65522274D01*
X173830336Y-65368383D01*
X173949239Y-65236327D01*
X174093000Y-65131878D01*
X174255336Y-65059602D01*
X174429151Y-65022656D01*
X174606849Y-65022656D01*
X174780664Y-65059602D01*
G37*
G36*
X177320664Y-65059602D02*
G01*
X177483000Y-65131878D01*
X177626761Y-65236327D01*
X177745664Y-65368383D01*
X177834514Y-65522274D01*
X177889425Y-65691275D01*
X177908000Y-65868000D01*
X177889425Y-66044725D01*
X177834514Y-66213726D01*
X177745664Y-66367617D01*
X177626761Y-66499673D01*
X177483000Y-66604122D01*
X177320664Y-66676398D01*
X177146849Y-66713344D01*
X176969151Y-66713344D01*
X176795336Y-66676398D01*
X176633000Y-66604122D01*
X176489239Y-66499673D01*
X176370336Y-66367617D01*
X176281486Y-66213726D01*
X176226575Y-66044725D01*
X176208000Y-65868000D01*
X176226575Y-65691275D01*
X176281486Y-65522274D01*
X176370336Y-65368383D01*
X176489239Y-65236327D01*
X176633000Y-65131878D01*
X176795336Y-65059602D01*
X176969151Y-65022656D01*
X177146849Y-65022656D01*
X177320664Y-65059602D01*
G37*
G36*
X179860664Y-65059602D02*
G01*
X180023000Y-65131878D01*
X180166761Y-65236327D01*
X180285664Y-65368383D01*
X180374514Y-65522274D01*
X180429425Y-65691275D01*
X180448000Y-65868000D01*
X180429425Y-66044725D01*
X180374514Y-66213726D01*
X180285664Y-66367617D01*
X180166761Y-66499673D01*
X180023000Y-66604122D01*
X179860664Y-66676398D01*
X179686849Y-66713344D01*
X179509151Y-66713344D01*
X179335336Y-66676398D01*
X179173000Y-66604122D01*
X179029239Y-66499673D01*
X178910336Y-66367617D01*
X178821486Y-66213726D01*
X178766575Y-66044725D01*
X178748000Y-65868000D01*
X178766575Y-65691275D01*
X178821486Y-65522274D01*
X178910336Y-65368383D01*
X179029239Y-65236327D01*
X179173000Y-65131878D01*
X179335336Y-65059602D01*
X179509151Y-65022656D01*
X179686849Y-65022656D01*
X179860664Y-65059602D01*
G37*
G36*
X191824000Y-65908000D02*
G01*
X189524000Y-65908000D01*
X189524000Y-63608000D01*
X191824000Y-63608000D01*
X191824000Y-65908000D01*
G37*
M02*
