%TF.GenerationSoftware,KiCad,Pcbnew,7.0.8*%
%TF.CreationDate,2024-01-15T19:48:56-06:00*%
%TF.ProjectId,ISA rev8,49534120-7265-4763-982e-6b696361645f,rev?*%
%TF.SameCoordinates,Original*%
%TF.FileFunction,Legend,Bot*%
%TF.FilePolarity,Positive*%
%FSLAX46Y46*%
G04 Gerber Fmt 4.6, Leading zero omitted, Abs format (unit mm)*
G04 Created by KiCad (PCBNEW 7.0.8) date 2024-01-15 19:48:56*
%MOMM*%
%LPD*%
G01*
G04 APERTURE LIST*
%ADD10C,0.152400*%
%ADD11C,0.150000*%
%ADD12C,0.300000*%
%ADD13C,0.120000*%
G04 APERTURE END LIST*
D10*
X196390381Y-113652091D02*
X196390381Y-112839291D01*
X196390381Y-112839291D02*
X196080743Y-112839291D01*
X196080743Y-112839291D02*
X196003333Y-112877996D01*
X196003333Y-112877996D02*
X195964628Y-112916701D01*
X195964628Y-112916701D02*
X195925924Y-112994110D01*
X195925924Y-112994110D02*
X195925924Y-113110225D01*
X195925924Y-113110225D02*
X195964628Y-113187634D01*
X195964628Y-113187634D02*
X196003333Y-113226339D01*
X196003333Y-113226339D02*
X196080743Y-113265044D01*
X196080743Y-113265044D02*
X196390381Y-113265044D01*
X195577581Y-113652091D02*
X195577581Y-113110225D01*
X195577581Y-112839291D02*
X195616285Y-112877996D01*
X195616285Y-112877996D02*
X195577581Y-112916701D01*
X195577581Y-112916701D02*
X195538876Y-112877996D01*
X195538876Y-112877996D02*
X195577581Y-112839291D01*
X195577581Y-112839291D02*
X195577581Y-112916701D01*
X194842190Y-113613387D02*
X194919599Y-113652091D01*
X194919599Y-113652091D02*
X195074418Y-113652091D01*
X195074418Y-113652091D02*
X195151828Y-113613387D01*
X195151828Y-113613387D02*
X195190533Y-113574682D01*
X195190533Y-113574682D02*
X195229237Y-113497272D01*
X195229237Y-113497272D02*
X195229237Y-113265044D01*
X195229237Y-113265044D02*
X195190533Y-113187634D01*
X195190533Y-113187634D02*
X195151828Y-113148929D01*
X195151828Y-113148929D02*
X195074418Y-113110225D01*
X195074418Y-113110225D02*
X194919599Y-113110225D01*
X194919599Y-113110225D02*
X194842190Y-113148929D01*
X194377732Y-113652091D02*
X194455142Y-113613387D01*
X194455142Y-113613387D02*
X194493847Y-113574682D01*
X194493847Y-113574682D02*
X194532551Y-113497272D01*
X194532551Y-113497272D02*
X194532551Y-113265044D01*
X194532551Y-113265044D02*
X194493847Y-113187634D01*
X194493847Y-113187634D02*
X194455142Y-113148929D01*
X194455142Y-113148929D02*
X194377732Y-113110225D01*
X194377732Y-113110225D02*
X194261618Y-113110225D01*
X194261618Y-113110225D02*
X194184209Y-113148929D01*
X194184209Y-113148929D02*
X194145504Y-113187634D01*
X194145504Y-113187634D02*
X194106799Y-113265044D01*
X194106799Y-113265044D02*
X194106799Y-113497272D01*
X194106799Y-113497272D02*
X194145504Y-113574682D01*
X194145504Y-113574682D02*
X194184209Y-113613387D01*
X194184209Y-113613387D02*
X194261618Y-113652091D01*
X194261618Y-113652091D02*
X194377732Y-113652091D01*
X192674724Y-113652091D02*
X192945657Y-113265044D01*
X193139181Y-113652091D02*
X193139181Y-112839291D01*
X193139181Y-112839291D02*
X192829543Y-112839291D01*
X192829543Y-112839291D02*
X192752133Y-112877996D01*
X192752133Y-112877996D02*
X192713428Y-112916701D01*
X192713428Y-112916701D02*
X192674724Y-112994110D01*
X192674724Y-112994110D02*
X192674724Y-113110225D01*
X192674724Y-113110225D02*
X192713428Y-113187634D01*
X192713428Y-113187634D02*
X192752133Y-113226339D01*
X192752133Y-113226339D02*
X192829543Y-113265044D01*
X192829543Y-113265044D02*
X193139181Y-113265044D01*
X192016743Y-113613387D02*
X192094152Y-113652091D01*
X192094152Y-113652091D02*
X192248971Y-113652091D01*
X192248971Y-113652091D02*
X192326381Y-113613387D01*
X192326381Y-113613387D02*
X192365085Y-113535977D01*
X192365085Y-113535977D02*
X192365085Y-113226339D01*
X192365085Y-113226339D02*
X192326381Y-113148929D01*
X192326381Y-113148929D02*
X192248971Y-113110225D01*
X192248971Y-113110225D02*
X192094152Y-113110225D01*
X192094152Y-113110225D02*
X192016743Y-113148929D01*
X192016743Y-113148929D02*
X191978038Y-113226339D01*
X191978038Y-113226339D02*
X191978038Y-113303748D01*
X191978038Y-113303748D02*
X192365085Y-113381158D01*
X191668399Y-113613387D02*
X191590990Y-113652091D01*
X191590990Y-113652091D02*
X191436171Y-113652091D01*
X191436171Y-113652091D02*
X191358761Y-113613387D01*
X191358761Y-113613387D02*
X191320057Y-113535977D01*
X191320057Y-113535977D02*
X191320057Y-113497272D01*
X191320057Y-113497272D02*
X191358761Y-113419863D01*
X191358761Y-113419863D02*
X191436171Y-113381158D01*
X191436171Y-113381158D02*
X191552285Y-113381158D01*
X191552285Y-113381158D02*
X191629695Y-113342453D01*
X191629695Y-113342453D02*
X191668399Y-113265044D01*
X191668399Y-113265044D02*
X191668399Y-113226339D01*
X191668399Y-113226339D02*
X191629695Y-113148929D01*
X191629695Y-113148929D02*
X191552285Y-113110225D01*
X191552285Y-113110225D02*
X191436171Y-113110225D01*
X191436171Y-113110225D02*
X191358761Y-113148929D01*
X190662076Y-113613387D02*
X190739485Y-113652091D01*
X190739485Y-113652091D02*
X190894304Y-113652091D01*
X190894304Y-113652091D02*
X190971714Y-113613387D01*
X190971714Y-113613387D02*
X191010418Y-113535977D01*
X191010418Y-113535977D02*
X191010418Y-113226339D01*
X191010418Y-113226339D02*
X190971714Y-113148929D01*
X190971714Y-113148929D02*
X190894304Y-113110225D01*
X190894304Y-113110225D02*
X190739485Y-113110225D01*
X190739485Y-113110225D02*
X190662076Y-113148929D01*
X190662076Y-113148929D02*
X190623371Y-113226339D01*
X190623371Y-113226339D02*
X190623371Y-113303748D01*
X190623371Y-113303748D02*
X191010418Y-113381158D01*
X190391142Y-113110225D02*
X190081504Y-113110225D01*
X190275028Y-112839291D02*
X190275028Y-113535977D01*
X190275028Y-113535977D02*
X190236323Y-113613387D01*
X190236323Y-113613387D02*
X190158913Y-113652091D01*
X190158913Y-113652091D02*
X190081504Y-113652091D01*
X199072708Y-78672265D02*
X199072708Y-78207808D01*
X198259908Y-78440036D02*
X199072708Y-78440036D01*
X198259908Y-77936875D02*
X199072708Y-77936875D01*
X198259908Y-77588532D02*
X198685660Y-77588532D01*
X198685660Y-77588532D02*
X198763070Y-77627237D01*
X198763070Y-77627237D02*
X198801774Y-77704646D01*
X198801774Y-77704646D02*
X198801774Y-77820760D01*
X198801774Y-77820760D02*
X198763070Y-77898170D01*
X198763070Y-77898170D02*
X198724365Y-77936875D01*
X198259908Y-77201485D02*
X198801774Y-77201485D01*
X199072708Y-77201485D02*
X199034003Y-77240189D01*
X199034003Y-77240189D02*
X198995298Y-77201485D01*
X198995298Y-77201485D02*
X199034003Y-77162780D01*
X199034003Y-77162780D02*
X199072708Y-77201485D01*
X199072708Y-77201485D02*
X198995298Y-77201485D01*
X198298613Y-76853141D02*
X198259908Y-76775732D01*
X198259908Y-76775732D02*
X198259908Y-76620913D01*
X198259908Y-76620913D02*
X198298613Y-76543503D01*
X198298613Y-76543503D02*
X198376022Y-76504799D01*
X198376022Y-76504799D02*
X198414727Y-76504799D01*
X198414727Y-76504799D02*
X198492136Y-76543503D01*
X198492136Y-76543503D02*
X198530841Y-76620913D01*
X198530841Y-76620913D02*
X198530841Y-76737027D01*
X198530841Y-76737027D02*
X198569546Y-76814437D01*
X198569546Y-76814437D02*
X198646955Y-76853141D01*
X198646955Y-76853141D02*
X198685660Y-76853141D01*
X198685660Y-76853141D02*
X198763070Y-76814437D01*
X198763070Y-76814437D02*
X198801774Y-76737027D01*
X198801774Y-76737027D02*
X198801774Y-76620913D01*
X198801774Y-76620913D02*
X198763070Y-76543503D01*
X198298613Y-75575884D02*
X198259908Y-75498475D01*
X198259908Y-75498475D02*
X198259908Y-75343656D01*
X198259908Y-75343656D02*
X198298613Y-75266246D01*
X198298613Y-75266246D02*
X198376022Y-75227542D01*
X198376022Y-75227542D02*
X198414727Y-75227542D01*
X198414727Y-75227542D02*
X198492136Y-75266246D01*
X198492136Y-75266246D02*
X198530841Y-75343656D01*
X198530841Y-75343656D02*
X198530841Y-75459770D01*
X198530841Y-75459770D02*
X198569546Y-75537180D01*
X198569546Y-75537180D02*
X198646955Y-75575884D01*
X198646955Y-75575884D02*
X198685660Y-75575884D01*
X198685660Y-75575884D02*
X198763070Y-75537180D01*
X198763070Y-75537180D02*
X198801774Y-75459770D01*
X198801774Y-75459770D02*
X198801774Y-75343656D01*
X198801774Y-75343656D02*
X198763070Y-75266246D01*
X198259908Y-74879199D02*
X198801774Y-74879199D01*
X199072708Y-74879199D02*
X199034003Y-74917903D01*
X199034003Y-74917903D02*
X198995298Y-74879199D01*
X198995298Y-74879199D02*
X199034003Y-74840494D01*
X199034003Y-74840494D02*
X199072708Y-74879199D01*
X199072708Y-74879199D02*
X198995298Y-74879199D01*
X198259908Y-74143808D02*
X199072708Y-74143808D01*
X198298613Y-74143808D02*
X198259908Y-74221217D01*
X198259908Y-74221217D02*
X198259908Y-74376036D01*
X198259908Y-74376036D02*
X198298613Y-74453446D01*
X198298613Y-74453446D02*
X198337317Y-74492151D01*
X198337317Y-74492151D02*
X198414727Y-74530855D01*
X198414727Y-74530855D02*
X198646955Y-74530855D01*
X198646955Y-74530855D02*
X198724365Y-74492151D01*
X198724365Y-74492151D02*
X198763070Y-74453446D01*
X198763070Y-74453446D02*
X198801774Y-74376036D01*
X198801774Y-74376036D02*
X198801774Y-74221217D01*
X198801774Y-74221217D02*
X198763070Y-74143808D01*
X198298613Y-73447123D02*
X198259908Y-73524532D01*
X198259908Y-73524532D02*
X198259908Y-73679351D01*
X198259908Y-73679351D02*
X198298613Y-73756761D01*
X198298613Y-73756761D02*
X198376022Y-73795465D01*
X198376022Y-73795465D02*
X198685660Y-73795465D01*
X198685660Y-73795465D02*
X198763070Y-73756761D01*
X198763070Y-73756761D02*
X198801774Y-73679351D01*
X198801774Y-73679351D02*
X198801774Y-73524532D01*
X198801774Y-73524532D02*
X198763070Y-73447123D01*
X198763070Y-73447123D02*
X198685660Y-73408418D01*
X198685660Y-73408418D02*
X198608251Y-73408418D01*
X198608251Y-73408418D02*
X198530841Y-73795465D01*
X198801774Y-72556913D02*
X198801774Y-72247275D01*
X199072708Y-72440799D02*
X198376022Y-72440799D01*
X198376022Y-72440799D02*
X198298613Y-72402094D01*
X198298613Y-72402094D02*
X198259908Y-72324684D01*
X198259908Y-72324684D02*
X198259908Y-72247275D01*
X198259908Y-71860227D02*
X198298613Y-71937637D01*
X198298613Y-71937637D02*
X198337317Y-71976342D01*
X198337317Y-71976342D02*
X198414727Y-72015046D01*
X198414727Y-72015046D02*
X198646955Y-72015046D01*
X198646955Y-72015046D02*
X198724365Y-71976342D01*
X198724365Y-71976342D02*
X198763070Y-71937637D01*
X198763070Y-71937637D02*
X198801774Y-71860227D01*
X198801774Y-71860227D02*
X198801774Y-71744113D01*
X198801774Y-71744113D02*
X198763070Y-71666704D01*
X198763070Y-71666704D02*
X198724365Y-71627999D01*
X198724365Y-71627999D02*
X198646955Y-71589294D01*
X198646955Y-71589294D02*
X198414727Y-71589294D01*
X198414727Y-71589294D02*
X198337317Y-71627999D01*
X198337317Y-71627999D02*
X198298613Y-71666704D01*
X198298613Y-71666704D02*
X198259908Y-71744113D01*
X198259908Y-71744113D02*
X198259908Y-71860227D01*
X198801774Y-71318361D02*
X198259908Y-71163542D01*
X198259908Y-71163542D02*
X198646955Y-71008723D01*
X198646955Y-71008723D02*
X198259908Y-70853904D01*
X198259908Y-70853904D02*
X198801774Y-70699085D01*
X198259908Y-70041104D02*
X198685660Y-70041104D01*
X198685660Y-70041104D02*
X198763070Y-70079809D01*
X198763070Y-70079809D02*
X198801774Y-70157218D01*
X198801774Y-70157218D02*
X198801774Y-70312037D01*
X198801774Y-70312037D02*
X198763070Y-70389447D01*
X198298613Y-70041104D02*
X198259908Y-70118513D01*
X198259908Y-70118513D02*
X198259908Y-70312037D01*
X198259908Y-70312037D02*
X198298613Y-70389447D01*
X198298613Y-70389447D02*
X198376022Y-70428151D01*
X198376022Y-70428151D02*
X198453432Y-70428151D01*
X198453432Y-70428151D02*
X198530841Y-70389447D01*
X198530841Y-70389447D02*
X198569546Y-70312037D01*
X198569546Y-70312037D02*
X198569546Y-70118513D01*
X198569546Y-70118513D02*
X198608251Y-70041104D01*
X198259908Y-69654057D02*
X198801774Y-69654057D01*
X198646955Y-69654057D02*
X198724365Y-69615352D01*
X198724365Y-69615352D02*
X198763070Y-69576647D01*
X198763070Y-69576647D02*
X198801774Y-69499238D01*
X198801774Y-69499238D02*
X198801774Y-69421828D01*
X198259908Y-68802552D02*
X199072708Y-68802552D01*
X198298613Y-68802552D02*
X198259908Y-68879961D01*
X198259908Y-68879961D02*
X198259908Y-69034780D01*
X198259908Y-69034780D02*
X198298613Y-69112190D01*
X198298613Y-69112190D02*
X198337317Y-69150895D01*
X198337317Y-69150895D02*
X198414727Y-69189599D01*
X198414727Y-69189599D02*
X198646955Y-69189599D01*
X198646955Y-69189599D02*
X198724365Y-69150895D01*
X198724365Y-69150895D02*
X198763070Y-69112190D01*
X198763070Y-69112190D02*
X198801774Y-69034780D01*
X198801774Y-69034780D02*
X198801774Y-68879961D01*
X198801774Y-68879961D02*
X198763070Y-68802552D01*
X198298613Y-68454209D02*
X198259908Y-68376800D01*
X198259908Y-68376800D02*
X198259908Y-68221981D01*
X198259908Y-68221981D02*
X198298613Y-68144571D01*
X198298613Y-68144571D02*
X198376022Y-68105867D01*
X198376022Y-68105867D02*
X198414727Y-68105867D01*
X198414727Y-68105867D02*
X198492136Y-68144571D01*
X198492136Y-68144571D02*
X198530841Y-68221981D01*
X198530841Y-68221981D02*
X198530841Y-68338095D01*
X198530841Y-68338095D02*
X198569546Y-68415505D01*
X198569546Y-68415505D02*
X198646955Y-68454209D01*
X198646955Y-68454209D02*
X198685660Y-68454209D01*
X198685660Y-68454209D02*
X198763070Y-68415505D01*
X198763070Y-68415505D02*
X198801774Y-68338095D01*
X198801774Y-68338095D02*
X198801774Y-68221981D01*
X198801774Y-68221981D02*
X198763070Y-68144571D01*
X198259908Y-67138248D02*
X198801774Y-67138248D01*
X198646955Y-67138248D02*
X198724365Y-67099543D01*
X198724365Y-67099543D02*
X198763070Y-67060838D01*
X198763070Y-67060838D02*
X198801774Y-66983429D01*
X198801774Y-66983429D02*
X198801774Y-66906019D01*
X198298613Y-66325448D02*
X198259908Y-66402857D01*
X198259908Y-66402857D02*
X198259908Y-66557676D01*
X198259908Y-66557676D02*
X198298613Y-66635086D01*
X198298613Y-66635086D02*
X198376022Y-66673790D01*
X198376022Y-66673790D02*
X198685660Y-66673790D01*
X198685660Y-66673790D02*
X198763070Y-66635086D01*
X198763070Y-66635086D02*
X198801774Y-66557676D01*
X198801774Y-66557676D02*
X198801774Y-66402857D01*
X198801774Y-66402857D02*
X198763070Y-66325448D01*
X198763070Y-66325448D02*
X198685660Y-66286743D01*
X198685660Y-66286743D02*
X198608251Y-66286743D01*
X198608251Y-66286743D02*
X198530841Y-66673790D01*
X198259908Y-65590057D02*
X198685660Y-65590057D01*
X198685660Y-65590057D02*
X198763070Y-65628762D01*
X198763070Y-65628762D02*
X198801774Y-65706171D01*
X198801774Y-65706171D02*
X198801774Y-65860990D01*
X198801774Y-65860990D02*
X198763070Y-65938400D01*
X198298613Y-65590057D02*
X198259908Y-65667466D01*
X198259908Y-65667466D02*
X198259908Y-65860990D01*
X198259908Y-65860990D02*
X198298613Y-65938400D01*
X198298613Y-65938400D02*
X198376022Y-65977104D01*
X198376022Y-65977104D02*
X198453432Y-65977104D01*
X198453432Y-65977104D02*
X198530841Y-65938400D01*
X198530841Y-65938400D02*
X198569546Y-65860990D01*
X198569546Y-65860990D02*
X198569546Y-65667466D01*
X198569546Y-65667466D02*
X198608251Y-65590057D01*
X198259908Y-65203010D02*
X198801774Y-65203010D01*
X198646955Y-65203010D02*
X198724365Y-65164305D01*
X198724365Y-65164305D02*
X198763070Y-65125600D01*
X198763070Y-65125600D02*
X198801774Y-65048191D01*
X198801774Y-65048191D02*
X198801774Y-64970781D01*
X198337317Y-64699848D02*
X198298613Y-64661143D01*
X198298613Y-64661143D02*
X198259908Y-64699848D01*
X198259908Y-64699848D02*
X198298613Y-64738552D01*
X198298613Y-64738552D02*
X198337317Y-64699848D01*
X198337317Y-64699848D02*
X198259908Y-64699848D01*
X198569546Y-64699848D02*
X199034003Y-64738552D01*
X199034003Y-64738552D02*
X199072708Y-64699848D01*
X199072708Y-64699848D02*
X199034003Y-64661143D01*
X199034003Y-64661143D02*
X198569546Y-64699848D01*
X198569546Y-64699848D02*
X199072708Y-64699848D01*
X190978969Y-71703387D02*
X190862855Y-71742091D01*
X190862855Y-71742091D02*
X190669331Y-71742091D01*
X190669331Y-71742091D02*
X190591922Y-71703387D01*
X190591922Y-71703387D02*
X190553217Y-71664682D01*
X190553217Y-71664682D02*
X190514512Y-71587272D01*
X190514512Y-71587272D02*
X190514512Y-71509863D01*
X190514512Y-71509863D02*
X190553217Y-71432453D01*
X190553217Y-71432453D02*
X190591922Y-71393748D01*
X190591922Y-71393748D02*
X190669331Y-71355044D01*
X190669331Y-71355044D02*
X190824150Y-71316339D01*
X190824150Y-71316339D02*
X190901560Y-71277634D01*
X190901560Y-71277634D02*
X190940265Y-71238929D01*
X190940265Y-71238929D02*
X190978969Y-71161520D01*
X190978969Y-71161520D02*
X190978969Y-71084110D01*
X190978969Y-71084110D02*
X190940265Y-71006701D01*
X190940265Y-71006701D02*
X190901560Y-70967996D01*
X190901560Y-70967996D02*
X190824150Y-70929291D01*
X190824150Y-70929291D02*
X190630627Y-70929291D01*
X190630627Y-70929291D02*
X190514512Y-70967996D01*
X189856532Y-71703387D02*
X189933941Y-71742091D01*
X189933941Y-71742091D02*
X190088760Y-71742091D01*
X190088760Y-71742091D02*
X190166170Y-71703387D01*
X190166170Y-71703387D02*
X190204874Y-71625977D01*
X190204874Y-71625977D02*
X190204874Y-71316339D01*
X190204874Y-71316339D02*
X190166170Y-71238929D01*
X190166170Y-71238929D02*
X190088760Y-71200225D01*
X190088760Y-71200225D02*
X189933941Y-71200225D01*
X189933941Y-71200225D02*
X189856532Y-71238929D01*
X189856532Y-71238929D02*
X189817827Y-71316339D01*
X189817827Y-71316339D02*
X189817827Y-71393748D01*
X189817827Y-71393748D02*
X190204874Y-71471158D01*
X189585598Y-71200225D02*
X189275960Y-71200225D01*
X189469484Y-70929291D02*
X189469484Y-71625977D01*
X189469484Y-71625977D02*
X189430779Y-71703387D01*
X189430779Y-71703387D02*
X189353369Y-71742091D01*
X189353369Y-71742091D02*
X189275960Y-71742091D01*
X189121141Y-71200225D02*
X188811503Y-71200225D01*
X189005027Y-70929291D02*
X189005027Y-71625977D01*
X189005027Y-71625977D02*
X188966322Y-71703387D01*
X188966322Y-71703387D02*
X188888912Y-71742091D01*
X188888912Y-71742091D02*
X188811503Y-71742091D01*
X188540570Y-71742091D02*
X188540570Y-71200225D01*
X188540570Y-70929291D02*
X188579274Y-70967996D01*
X188579274Y-70967996D02*
X188540570Y-71006701D01*
X188540570Y-71006701D02*
X188501865Y-70967996D01*
X188501865Y-70967996D02*
X188540570Y-70929291D01*
X188540570Y-70929291D02*
X188540570Y-71006701D01*
X188153522Y-71200225D02*
X188153522Y-71742091D01*
X188153522Y-71277634D02*
X188114817Y-71238929D01*
X188114817Y-71238929D02*
X188037407Y-71200225D01*
X188037407Y-71200225D02*
X187921293Y-71200225D01*
X187921293Y-71200225D02*
X187843884Y-71238929D01*
X187843884Y-71238929D02*
X187805179Y-71316339D01*
X187805179Y-71316339D02*
X187805179Y-71742091D01*
X187069789Y-71200225D02*
X187069789Y-71858206D01*
X187069789Y-71858206D02*
X187108494Y-71935615D01*
X187108494Y-71935615D02*
X187147198Y-71974320D01*
X187147198Y-71974320D02*
X187224608Y-72013025D01*
X187224608Y-72013025D02*
X187340722Y-72013025D01*
X187340722Y-72013025D02*
X187418132Y-71974320D01*
X187069789Y-71703387D02*
X187147198Y-71742091D01*
X187147198Y-71742091D02*
X187302017Y-71742091D01*
X187302017Y-71742091D02*
X187379427Y-71703387D01*
X187379427Y-71703387D02*
X187418132Y-71664682D01*
X187418132Y-71664682D02*
X187456836Y-71587272D01*
X187456836Y-71587272D02*
X187456836Y-71355044D01*
X187456836Y-71355044D02*
X187418132Y-71277634D01*
X187418132Y-71277634D02*
X187379427Y-71238929D01*
X187379427Y-71238929D02*
X187302017Y-71200225D01*
X187302017Y-71200225D02*
X187147198Y-71200225D01*
X187147198Y-71200225D02*
X187069789Y-71238929D01*
X186721446Y-71703387D02*
X186644037Y-71742091D01*
X186644037Y-71742091D02*
X186489218Y-71742091D01*
X186489218Y-71742091D02*
X186411808Y-71703387D01*
X186411808Y-71703387D02*
X186373104Y-71625977D01*
X186373104Y-71625977D02*
X186373104Y-71587272D01*
X186373104Y-71587272D02*
X186411808Y-71509863D01*
X186411808Y-71509863D02*
X186489218Y-71471158D01*
X186489218Y-71471158D02*
X186605332Y-71471158D01*
X186605332Y-71471158D02*
X186682742Y-71432453D01*
X186682742Y-71432453D02*
X186721446Y-71355044D01*
X186721446Y-71355044D02*
X186721446Y-71316339D01*
X186721446Y-71316339D02*
X186682742Y-71238929D01*
X186682742Y-71238929D02*
X186605332Y-71200225D01*
X186605332Y-71200225D02*
X186489218Y-71200225D01*
X186489218Y-71200225D02*
X186411808Y-71238929D01*
X185405485Y-71316339D02*
X185134551Y-71316339D01*
X185018437Y-71742091D02*
X185405485Y-71742091D01*
X185405485Y-71742091D02*
X185405485Y-70929291D01*
X185405485Y-70929291D02*
X185018437Y-70929291D01*
X184670095Y-71316339D02*
X184399161Y-71316339D01*
X184283047Y-71742091D02*
X184670095Y-71742091D01*
X184670095Y-71742091D02*
X184670095Y-70929291D01*
X184670095Y-70929291D02*
X184283047Y-70929291D01*
X183934705Y-71742091D02*
X183934705Y-70929291D01*
X183934705Y-70929291D02*
X183625067Y-70929291D01*
X183625067Y-70929291D02*
X183547657Y-70967996D01*
X183547657Y-70967996D02*
X183508952Y-71006701D01*
X183508952Y-71006701D02*
X183470248Y-71084110D01*
X183470248Y-71084110D02*
X183470248Y-71200225D01*
X183470248Y-71200225D02*
X183508952Y-71277634D01*
X183508952Y-71277634D02*
X183547657Y-71316339D01*
X183547657Y-71316339D02*
X183625067Y-71355044D01*
X183625067Y-71355044D02*
X183934705Y-71355044D01*
X182657448Y-71742091D02*
X182928381Y-71355044D01*
X183121905Y-71742091D02*
X183121905Y-70929291D01*
X183121905Y-70929291D02*
X182812267Y-70929291D01*
X182812267Y-70929291D02*
X182734857Y-70967996D01*
X182734857Y-70967996D02*
X182696152Y-71006701D01*
X182696152Y-71006701D02*
X182657448Y-71084110D01*
X182657448Y-71084110D02*
X182657448Y-71200225D01*
X182657448Y-71200225D02*
X182696152Y-71277634D01*
X182696152Y-71277634D02*
X182734857Y-71316339D01*
X182734857Y-71316339D02*
X182812267Y-71355044D01*
X182812267Y-71355044D02*
X183121905Y-71355044D01*
X182154286Y-70929291D02*
X181999467Y-70929291D01*
X181999467Y-70929291D02*
X181922057Y-70967996D01*
X181922057Y-70967996D02*
X181844648Y-71045406D01*
X181844648Y-71045406D02*
X181805943Y-71200225D01*
X181805943Y-71200225D02*
X181805943Y-71471158D01*
X181805943Y-71471158D02*
X181844648Y-71625977D01*
X181844648Y-71625977D02*
X181922057Y-71703387D01*
X181922057Y-71703387D02*
X181999467Y-71742091D01*
X181999467Y-71742091D02*
X182154286Y-71742091D01*
X182154286Y-71742091D02*
X182231695Y-71703387D01*
X182231695Y-71703387D02*
X182309105Y-71625977D01*
X182309105Y-71625977D02*
X182347809Y-71471158D01*
X182347809Y-71471158D02*
X182347809Y-71200225D01*
X182347809Y-71200225D02*
X182309105Y-71045406D01*
X182309105Y-71045406D02*
X182231695Y-70967996D01*
X182231695Y-70967996D02*
X182154286Y-70929291D01*
X181457600Y-71742091D02*
X181457600Y-70929291D01*
X181457600Y-70929291D02*
X181186666Y-71509863D01*
X181186666Y-71509863D02*
X180915733Y-70929291D01*
X180915733Y-70929291D02*
X180915733Y-71742091D01*
X124331787Y-120764091D02*
X124331787Y-119951291D01*
X124060853Y-120222225D02*
X123751215Y-120222225D01*
X123944739Y-119951291D02*
X123944739Y-120647977D01*
X123944739Y-120647977D02*
X123906034Y-120725387D01*
X123906034Y-120725387D02*
X123828624Y-120764091D01*
X123828624Y-120764091D02*
X123751215Y-120764091D01*
X123441577Y-119951291D02*
X123518986Y-120106110D01*
X123131938Y-120725387D02*
X123054529Y-120764091D01*
X123054529Y-120764091D02*
X122899710Y-120764091D01*
X122899710Y-120764091D02*
X122822300Y-120725387D01*
X122822300Y-120725387D02*
X122783596Y-120647977D01*
X122783596Y-120647977D02*
X122783596Y-120609272D01*
X122783596Y-120609272D02*
X122822300Y-120531863D01*
X122822300Y-120531863D02*
X122899710Y-120493158D01*
X122899710Y-120493158D02*
X123015824Y-120493158D01*
X123015824Y-120493158D02*
X123093234Y-120454453D01*
X123093234Y-120454453D02*
X123131938Y-120377044D01*
X123131938Y-120377044D02*
X123131938Y-120338339D01*
X123131938Y-120338339D02*
X123093234Y-120260929D01*
X123093234Y-120260929D02*
X123015824Y-120222225D01*
X123015824Y-120222225D02*
X122899710Y-120222225D01*
X122899710Y-120222225D02*
X122822300Y-120260929D01*
X121699862Y-120764091D02*
X121777272Y-120725387D01*
X121777272Y-120725387D02*
X121815977Y-120686682D01*
X121815977Y-120686682D02*
X121854681Y-120609272D01*
X121854681Y-120609272D02*
X121854681Y-120377044D01*
X121854681Y-120377044D02*
X121815977Y-120299634D01*
X121815977Y-120299634D02*
X121777272Y-120260929D01*
X121777272Y-120260929D02*
X121699862Y-120222225D01*
X121699862Y-120222225D02*
X121583748Y-120222225D01*
X121583748Y-120222225D02*
X121506339Y-120260929D01*
X121506339Y-120260929D02*
X121467634Y-120299634D01*
X121467634Y-120299634D02*
X121428929Y-120377044D01*
X121428929Y-120377044D02*
X121428929Y-120609272D01*
X121428929Y-120609272D02*
X121467634Y-120686682D01*
X121467634Y-120686682D02*
X121506339Y-120725387D01*
X121506339Y-120725387D02*
X121583748Y-120764091D01*
X121583748Y-120764091D02*
X121699862Y-120764091D01*
X121080587Y-120222225D02*
X121080587Y-120764091D01*
X121080587Y-120299634D02*
X121041882Y-120260929D01*
X121041882Y-120260929D02*
X120964472Y-120222225D01*
X120964472Y-120222225D02*
X120848358Y-120222225D01*
X120848358Y-120222225D02*
X120770949Y-120260929D01*
X120770949Y-120260929D02*
X120732244Y-120338339D01*
X120732244Y-120338339D02*
X120732244Y-120764091D01*
X120229082Y-120764091D02*
X120306492Y-120725387D01*
X120306492Y-120725387D02*
X120345197Y-120647977D01*
X120345197Y-120647977D02*
X120345197Y-119951291D01*
X119996854Y-120222225D02*
X119803330Y-120764091D01*
X119609807Y-120222225D02*
X119803330Y-120764091D01*
X119803330Y-120764091D02*
X119880740Y-120957615D01*
X119880740Y-120957615D02*
X119919445Y-120996320D01*
X119919445Y-120996320D02*
X119996854Y-121035025D01*
X118680893Y-120764091D02*
X118680893Y-119951291D01*
X118332550Y-120764091D02*
X118332550Y-120338339D01*
X118332550Y-120338339D02*
X118371255Y-120260929D01*
X118371255Y-120260929D02*
X118448664Y-120222225D01*
X118448664Y-120222225D02*
X118564778Y-120222225D01*
X118564778Y-120222225D02*
X118642188Y-120260929D01*
X118642188Y-120260929D02*
X118680893Y-120299634D01*
X117829388Y-120764091D02*
X117906798Y-120725387D01*
X117906798Y-120725387D02*
X117945503Y-120686682D01*
X117945503Y-120686682D02*
X117984207Y-120609272D01*
X117984207Y-120609272D02*
X117984207Y-120377044D01*
X117984207Y-120377044D02*
X117945503Y-120299634D01*
X117945503Y-120299634D02*
X117906798Y-120260929D01*
X117906798Y-120260929D02*
X117829388Y-120222225D01*
X117829388Y-120222225D02*
X117713274Y-120222225D01*
X117713274Y-120222225D02*
X117635865Y-120260929D01*
X117635865Y-120260929D02*
X117597160Y-120299634D01*
X117597160Y-120299634D02*
X117558455Y-120377044D01*
X117558455Y-120377044D02*
X117558455Y-120609272D01*
X117558455Y-120609272D02*
X117597160Y-120686682D01*
X117597160Y-120686682D02*
X117635865Y-120725387D01*
X117635865Y-120725387D02*
X117713274Y-120764091D01*
X117713274Y-120764091D02*
X117829388Y-120764091D01*
X116861770Y-120764091D02*
X116861770Y-120338339D01*
X116861770Y-120338339D02*
X116900475Y-120260929D01*
X116900475Y-120260929D02*
X116977884Y-120222225D01*
X116977884Y-120222225D02*
X117132703Y-120222225D01*
X117132703Y-120222225D02*
X117210113Y-120260929D01*
X116861770Y-120725387D02*
X116939179Y-120764091D01*
X116939179Y-120764091D02*
X117132703Y-120764091D01*
X117132703Y-120764091D02*
X117210113Y-120725387D01*
X117210113Y-120725387D02*
X117248817Y-120647977D01*
X117248817Y-120647977D02*
X117248817Y-120570567D01*
X117248817Y-120570567D02*
X117210113Y-120493158D01*
X117210113Y-120493158D02*
X117132703Y-120454453D01*
X117132703Y-120454453D02*
X116939179Y-120454453D01*
X116939179Y-120454453D02*
X116861770Y-120415748D01*
X116474723Y-120764091D02*
X116474723Y-120222225D01*
X116474723Y-120377044D02*
X116436018Y-120299634D01*
X116436018Y-120299634D02*
X116397313Y-120260929D01*
X116397313Y-120260929D02*
X116319904Y-120222225D01*
X116319904Y-120222225D02*
X116242494Y-120222225D01*
X115623218Y-120764091D02*
X115623218Y-119951291D01*
X115623218Y-120725387D02*
X115700627Y-120764091D01*
X115700627Y-120764091D02*
X115855446Y-120764091D01*
X115855446Y-120764091D02*
X115932856Y-120725387D01*
X115932856Y-120725387D02*
X115971561Y-120686682D01*
X115971561Y-120686682D02*
X116010265Y-120609272D01*
X116010265Y-120609272D02*
X116010265Y-120377044D01*
X116010265Y-120377044D02*
X115971561Y-120299634D01*
X115971561Y-120299634D02*
X115932856Y-120260929D01*
X115932856Y-120260929D02*
X115855446Y-120222225D01*
X115855446Y-120222225D02*
X115700627Y-120222225D01*
X115700627Y-120222225D02*
X115623218Y-120260929D01*
X115236171Y-120764091D02*
X115236171Y-120222225D01*
X115236171Y-119951291D02*
X115274875Y-119989996D01*
X115274875Y-119989996D02*
X115236171Y-120028701D01*
X115236171Y-120028701D02*
X115197466Y-119989996D01*
X115197466Y-119989996D02*
X115236171Y-119951291D01*
X115236171Y-119951291D02*
X115236171Y-120028701D01*
X114849123Y-120222225D02*
X114849123Y-120764091D01*
X114849123Y-120299634D02*
X114810418Y-120260929D01*
X114810418Y-120260929D02*
X114733008Y-120222225D01*
X114733008Y-120222225D02*
X114616894Y-120222225D01*
X114616894Y-120222225D02*
X114539485Y-120260929D01*
X114539485Y-120260929D02*
X114500780Y-120338339D01*
X114500780Y-120338339D02*
X114500780Y-120764091D01*
X113765390Y-120222225D02*
X113765390Y-120880206D01*
X113765390Y-120880206D02*
X113804095Y-120957615D01*
X113804095Y-120957615D02*
X113842799Y-120996320D01*
X113842799Y-120996320D02*
X113920209Y-121035025D01*
X113920209Y-121035025D02*
X114036323Y-121035025D01*
X114036323Y-121035025D02*
X114113733Y-120996320D01*
X113765390Y-120725387D02*
X113842799Y-120764091D01*
X113842799Y-120764091D02*
X113997618Y-120764091D01*
X113997618Y-120764091D02*
X114075028Y-120725387D01*
X114075028Y-120725387D02*
X114113733Y-120686682D01*
X114113733Y-120686682D02*
X114152437Y-120609272D01*
X114152437Y-120609272D02*
X114152437Y-120377044D01*
X114152437Y-120377044D02*
X114113733Y-120299634D01*
X114113733Y-120299634D02*
X114075028Y-120260929D01*
X114075028Y-120260929D02*
X113997618Y-120222225D01*
X113997618Y-120222225D02*
X113842799Y-120222225D01*
X113842799Y-120222225D02*
X113765390Y-120260929D01*
X112759067Y-120764091D02*
X112759067Y-120222225D01*
X112759067Y-119951291D02*
X112797771Y-119989996D01*
X112797771Y-119989996D02*
X112759067Y-120028701D01*
X112759067Y-120028701D02*
X112720362Y-119989996D01*
X112720362Y-119989996D02*
X112759067Y-119951291D01*
X112759067Y-119951291D02*
X112759067Y-120028701D01*
X112488133Y-120222225D02*
X112178495Y-120222225D01*
X112372019Y-120764091D02*
X112372019Y-120067406D01*
X112372019Y-120067406D02*
X112333314Y-119989996D01*
X112333314Y-119989996D02*
X112255904Y-119951291D01*
X112255904Y-119951291D02*
X112178495Y-119951291D01*
X111365695Y-120222225D02*
X111172171Y-120764091D01*
X110978648Y-120222225D02*
X111172171Y-120764091D01*
X111172171Y-120764091D02*
X111249581Y-120957615D01*
X111249581Y-120957615D02*
X111288286Y-120996320D01*
X111288286Y-120996320D02*
X111365695Y-121035025D01*
X110552895Y-120764091D02*
X110630305Y-120725387D01*
X110630305Y-120725387D02*
X110669010Y-120686682D01*
X110669010Y-120686682D02*
X110707714Y-120609272D01*
X110707714Y-120609272D02*
X110707714Y-120377044D01*
X110707714Y-120377044D02*
X110669010Y-120299634D01*
X110669010Y-120299634D02*
X110630305Y-120260929D01*
X110630305Y-120260929D02*
X110552895Y-120222225D01*
X110552895Y-120222225D02*
X110436781Y-120222225D01*
X110436781Y-120222225D02*
X110359372Y-120260929D01*
X110359372Y-120260929D02*
X110320667Y-120299634D01*
X110320667Y-120299634D02*
X110281962Y-120377044D01*
X110281962Y-120377044D02*
X110281962Y-120609272D01*
X110281962Y-120609272D02*
X110320667Y-120686682D01*
X110320667Y-120686682D02*
X110359372Y-120725387D01*
X110359372Y-120725387D02*
X110436781Y-120764091D01*
X110436781Y-120764091D02*
X110552895Y-120764091D01*
X109585277Y-120222225D02*
X109585277Y-120764091D01*
X109933620Y-120222225D02*
X109933620Y-120647977D01*
X109933620Y-120647977D02*
X109894915Y-120725387D01*
X109894915Y-120725387D02*
X109817505Y-120764091D01*
X109817505Y-120764091D02*
X109701391Y-120764091D01*
X109701391Y-120764091D02*
X109623982Y-120725387D01*
X109623982Y-120725387D02*
X109585277Y-120686682D01*
X108230611Y-120764091D02*
X108230611Y-119951291D01*
X108230611Y-120725387D02*
X108308020Y-120764091D01*
X108308020Y-120764091D02*
X108462839Y-120764091D01*
X108462839Y-120764091D02*
X108540249Y-120725387D01*
X108540249Y-120725387D02*
X108578954Y-120686682D01*
X108578954Y-120686682D02*
X108617658Y-120609272D01*
X108617658Y-120609272D02*
X108617658Y-120377044D01*
X108617658Y-120377044D02*
X108578954Y-120299634D01*
X108578954Y-120299634D02*
X108540249Y-120260929D01*
X108540249Y-120260929D02*
X108462839Y-120222225D01*
X108462839Y-120222225D02*
X108308020Y-120222225D01*
X108308020Y-120222225D02*
X108230611Y-120260929D01*
X107727449Y-120764091D02*
X107804859Y-120725387D01*
X107804859Y-120725387D02*
X107843564Y-120686682D01*
X107843564Y-120686682D02*
X107882268Y-120609272D01*
X107882268Y-120609272D02*
X107882268Y-120377044D01*
X107882268Y-120377044D02*
X107843564Y-120299634D01*
X107843564Y-120299634D02*
X107804859Y-120260929D01*
X107804859Y-120260929D02*
X107727449Y-120222225D01*
X107727449Y-120222225D02*
X107611335Y-120222225D01*
X107611335Y-120222225D02*
X107533926Y-120260929D01*
X107533926Y-120260929D02*
X107495221Y-120299634D01*
X107495221Y-120299634D02*
X107456516Y-120377044D01*
X107456516Y-120377044D02*
X107456516Y-120609272D01*
X107456516Y-120609272D02*
X107495221Y-120686682D01*
X107495221Y-120686682D02*
X107533926Y-120725387D01*
X107533926Y-120725387D02*
X107611335Y-120764091D01*
X107611335Y-120764091D02*
X107727449Y-120764091D01*
X107108174Y-120222225D02*
X107108174Y-120764091D01*
X107108174Y-120299634D02*
X107069469Y-120260929D01*
X107069469Y-120260929D02*
X106992059Y-120222225D01*
X106992059Y-120222225D02*
X106875945Y-120222225D01*
X106875945Y-120222225D02*
X106798536Y-120260929D01*
X106798536Y-120260929D02*
X106759831Y-120338339D01*
X106759831Y-120338339D02*
X106759831Y-120764091D01*
X106334079Y-119951291D02*
X106411488Y-120106110D01*
X106101850Y-120222225D02*
X105792212Y-120222225D01*
X105985736Y-119951291D02*
X105985736Y-120647977D01*
X105985736Y-120647977D02*
X105947031Y-120725387D01*
X105947031Y-120725387D02*
X105869621Y-120764091D01*
X105869621Y-120764091D02*
X105792212Y-120764091D01*
X104553660Y-120222225D02*
X104553660Y-120764091D01*
X104902003Y-120222225D02*
X104902003Y-120647977D01*
X104902003Y-120647977D02*
X104863298Y-120725387D01*
X104863298Y-120725387D02*
X104785888Y-120764091D01*
X104785888Y-120764091D02*
X104669774Y-120764091D01*
X104669774Y-120764091D02*
X104592365Y-120725387D01*
X104592365Y-120725387D02*
X104553660Y-120686682D01*
X104205317Y-120725387D02*
X104127908Y-120764091D01*
X104127908Y-120764091D02*
X103973089Y-120764091D01*
X103973089Y-120764091D02*
X103895679Y-120725387D01*
X103895679Y-120725387D02*
X103856975Y-120647977D01*
X103856975Y-120647977D02*
X103856975Y-120609272D01*
X103856975Y-120609272D02*
X103895679Y-120531863D01*
X103895679Y-120531863D02*
X103973089Y-120493158D01*
X103973089Y-120493158D02*
X104089203Y-120493158D01*
X104089203Y-120493158D02*
X104166613Y-120454453D01*
X104166613Y-120454453D02*
X104205317Y-120377044D01*
X104205317Y-120377044D02*
X104205317Y-120338339D01*
X104205317Y-120338339D02*
X104166613Y-120260929D01*
X104166613Y-120260929D02*
X104089203Y-120222225D01*
X104089203Y-120222225D02*
X103973089Y-120222225D01*
X103973089Y-120222225D02*
X103895679Y-120260929D01*
X103198994Y-120725387D02*
X103276403Y-120764091D01*
X103276403Y-120764091D02*
X103431222Y-120764091D01*
X103431222Y-120764091D02*
X103508632Y-120725387D01*
X103508632Y-120725387D02*
X103547336Y-120647977D01*
X103547336Y-120647977D02*
X103547336Y-120338339D01*
X103547336Y-120338339D02*
X103508632Y-120260929D01*
X103508632Y-120260929D02*
X103431222Y-120222225D01*
X103431222Y-120222225D02*
X103276403Y-120222225D01*
X103276403Y-120222225D02*
X103198994Y-120260929D01*
X103198994Y-120260929D02*
X103160289Y-120338339D01*
X103160289Y-120338339D02*
X103160289Y-120415748D01*
X103160289Y-120415748D02*
X103547336Y-120493158D01*
X102192670Y-120764091D02*
X102192670Y-120222225D01*
X102192670Y-119951291D02*
X102231374Y-119989996D01*
X102231374Y-119989996D02*
X102192670Y-120028701D01*
X102192670Y-120028701D02*
X102153965Y-119989996D01*
X102153965Y-119989996D02*
X102192670Y-119951291D01*
X102192670Y-119951291D02*
X102192670Y-120028701D01*
X101921736Y-120222225D02*
X101612098Y-120222225D01*
X101805622Y-119951291D02*
X101805622Y-120647977D01*
X101805622Y-120647977D02*
X101766917Y-120725387D01*
X101766917Y-120725387D02*
X101689507Y-120764091D01*
X101689507Y-120764091D02*
X101612098Y-120764091D01*
X125036813Y-96735111D02*
X124649766Y-96735111D01*
X125114223Y-96967339D02*
X124843290Y-96154539D01*
X124843290Y-96154539D02*
X124572356Y-96967339D01*
X123953080Y-96967339D02*
X123953080Y-96154539D01*
X123953080Y-96928635D02*
X124030489Y-96967339D01*
X124030489Y-96967339D02*
X124185308Y-96967339D01*
X124185308Y-96967339D02*
X124262718Y-96928635D01*
X124262718Y-96928635D02*
X124301423Y-96889930D01*
X124301423Y-96889930D02*
X124340127Y-96812520D01*
X124340127Y-96812520D02*
X124340127Y-96580292D01*
X124340127Y-96580292D02*
X124301423Y-96502882D01*
X124301423Y-96502882D02*
X124262718Y-96464177D01*
X124262718Y-96464177D02*
X124185308Y-96425473D01*
X124185308Y-96425473D02*
X124030489Y-96425473D01*
X124030489Y-96425473D02*
X123953080Y-96464177D01*
X123217690Y-96967339D02*
X123217690Y-96154539D01*
X123217690Y-96928635D02*
X123295099Y-96967339D01*
X123295099Y-96967339D02*
X123449918Y-96967339D01*
X123449918Y-96967339D02*
X123527328Y-96928635D01*
X123527328Y-96928635D02*
X123566033Y-96889930D01*
X123566033Y-96889930D02*
X123604737Y-96812520D01*
X123604737Y-96812520D02*
X123604737Y-96580292D01*
X123604737Y-96580292D02*
X123566033Y-96502882D01*
X123566033Y-96502882D02*
X123527328Y-96464177D01*
X123527328Y-96464177D02*
X123449918Y-96425473D01*
X123449918Y-96425473D02*
X123295099Y-96425473D01*
X123295099Y-96425473D02*
X123217690Y-96464177D01*
X122830643Y-96967339D02*
X122830643Y-96425473D01*
X122830643Y-96580292D02*
X122791938Y-96502882D01*
X122791938Y-96502882D02*
X122753233Y-96464177D01*
X122753233Y-96464177D02*
X122675824Y-96425473D01*
X122675824Y-96425473D02*
X122598414Y-96425473D01*
X122017843Y-96928635D02*
X122095252Y-96967339D01*
X122095252Y-96967339D02*
X122250071Y-96967339D01*
X122250071Y-96967339D02*
X122327481Y-96928635D01*
X122327481Y-96928635D02*
X122366185Y-96851225D01*
X122366185Y-96851225D02*
X122366185Y-96541587D01*
X122366185Y-96541587D02*
X122327481Y-96464177D01*
X122327481Y-96464177D02*
X122250071Y-96425473D01*
X122250071Y-96425473D02*
X122095252Y-96425473D01*
X122095252Y-96425473D02*
X122017843Y-96464177D01*
X122017843Y-96464177D02*
X121979138Y-96541587D01*
X121979138Y-96541587D02*
X121979138Y-96618996D01*
X121979138Y-96618996D02*
X122366185Y-96696406D01*
X121669499Y-96928635D02*
X121592090Y-96967339D01*
X121592090Y-96967339D02*
X121437271Y-96967339D01*
X121437271Y-96967339D02*
X121359861Y-96928635D01*
X121359861Y-96928635D02*
X121321157Y-96851225D01*
X121321157Y-96851225D02*
X121321157Y-96812520D01*
X121321157Y-96812520D02*
X121359861Y-96735111D01*
X121359861Y-96735111D02*
X121437271Y-96696406D01*
X121437271Y-96696406D02*
X121553385Y-96696406D01*
X121553385Y-96696406D02*
X121630795Y-96657701D01*
X121630795Y-96657701D02*
X121669499Y-96580292D01*
X121669499Y-96580292D02*
X121669499Y-96541587D01*
X121669499Y-96541587D02*
X121630795Y-96464177D01*
X121630795Y-96464177D02*
X121553385Y-96425473D01*
X121553385Y-96425473D02*
X121437271Y-96425473D01*
X121437271Y-96425473D02*
X121359861Y-96464177D01*
X121011518Y-96928635D02*
X120934109Y-96967339D01*
X120934109Y-96967339D02*
X120779290Y-96967339D01*
X120779290Y-96967339D02*
X120701880Y-96928635D01*
X120701880Y-96928635D02*
X120663176Y-96851225D01*
X120663176Y-96851225D02*
X120663176Y-96812520D01*
X120663176Y-96812520D02*
X120701880Y-96735111D01*
X120701880Y-96735111D02*
X120779290Y-96696406D01*
X120779290Y-96696406D02*
X120895404Y-96696406D01*
X120895404Y-96696406D02*
X120972814Y-96657701D01*
X120972814Y-96657701D02*
X121011518Y-96580292D01*
X121011518Y-96580292D02*
X121011518Y-96541587D01*
X121011518Y-96541587D02*
X120972814Y-96464177D01*
X120972814Y-96464177D02*
X120895404Y-96425473D01*
X120895404Y-96425473D02*
X120779290Y-96425473D01*
X120779290Y-96425473D02*
X120701880Y-96464177D01*
X119231100Y-96967339D02*
X119502033Y-96580292D01*
X119695557Y-96967339D02*
X119695557Y-96154539D01*
X119695557Y-96154539D02*
X119385919Y-96154539D01*
X119385919Y-96154539D02*
X119308509Y-96193244D01*
X119308509Y-96193244D02*
X119269804Y-96231949D01*
X119269804Y-96231949D02*
X119231100Y-96309358D01*
X119231100Y-96309358D02*
X119231100Y-96425473D01*
X119231100Y-96425473D02*
X119269804Y-96502882D01*
X119269804Y-96502882D02*
X119308509Y-96541587D01*
X119308509Y-96541587D02*
X119385919Y-96580292D01*
X119385919Y-96580292D02*
X119695557Y-96580292D01*
X118534414Y-96967339D02*
X118534414Y-96541587D01*
X118534414Y-96541587D02*
X118573119Y-96464177D01*
X118573119Y-96464177D02*
X118650528Y-96425473D01*
X118650528Y-96425473D02*
X118805347Y-96425473D01*
X118805347Y-96425473D02*
X118882757Y-96464177D01*
X118534414Y-96928635D02*
X118611823Y-96967339D01*
X118611823Y-96967339D02*
X118805347Y-96967339D01*
X118805347Y-96967339D02*
X118882757Y-96928635D01*
X118882757Y-96928635D02*
X118921461Y-96851225D01*
X118921461Y-96851225D02*
X118921461Y-96773815D01*
X118921461Y-96773815D02*
X118882757Y-96696406D01*
X118882757Y-96696406D02*
X118805347Y-96657701D01*
X118805347Y-96657701D02*
X118611823Y-96657701D01*
X118611823Y-96657701D02*
X118534414Y-96618996D01*
X118147367Y-96425473D02*
X118147367Y-96967339D01*
X118147367Y-96502882D02*
X118108662Y-96464177D01*
X118108662Y-96464177D02*
X118031252Y-96425473D01*
X118031252Y-96425473D02*
X117915138Y-96425473D01*
X117915138Y-96425473D02*
X117837729Y-96464177D01*
X117837729Y-96464177D02*
X117799024Y-96541587D01*
X117799024Y-96541587D02*
X117799024Y-96967339D01*
X117063634Y-96425473D02*
X117063634Y-97083454D01*
X117063634Y-97083454D02*
X117102339Y-97160863D01*
X117102339Y-97160863D02*
X117141043Y-97199568D01*
X117141043Y-97199568D02*
X117218453Y-97238273D01*
X117218453Y-97238273D02*
X117334567Y-97238273D01*
X117334567Y-97238273D02*
X117411977Y-97199568D01*
X117063634Y-96928635D02*
X117141043Y-96967339D01*
X117141043Y-96967339D02*
X117295862Y-96967339D01*
X117295862Y-96967339D02*
X117373272Y-96928635D01*
X117373272Y-96928635D02*
X117411977Y-96889930D01*
X117411977Y-96889930D02*
X117450681Y-96812520D01*
X117450681Y-96812520D02*
X117450681Y-96580292D01*
X117450681Y-96580292D02*
X117411977Y-96502882D01*
X117411977Y-96502882D02*
X117373272Y-96464177D01*
X117373272Y-96464177D02*
X117295862Y-96425473D01*
X117295862Y-96425473D02*
X117141043Y-96425473D01*
X117141043Y-96425473D02*
X117063634Y-96464177D01*
X116366949Y-96928635D02*
X116444358Y-96967339D01*
X116444358Y-96967339D02*
X116599177Y-96967339D01*
X116599177Y-96967339D02*
X116676587Y-96928635D01*
X116676587Y-96928635D02*
X116715291Y-96851225D01*
X116715291Y-96851225D02*
X116715291Y-96541587D01*
X116715291Y-96541587D02*
X116676587Y-96464177D01*
X116676587Y-96464177D02*
X116599177Y-96425473D01*
X116599177Y-96425473D02*
X116444358Y-96425473D01*
X116444358Y-96425473D02*
X116366949Y-96464177D01*
X116366949Y-96464177D02*
X116328244Y-96541587D01*
X116328244Y-96541587D02*
X116328244Y-96618996D01*
X116328244Y-96618996D02*
X116715291Y-96696406D01*
X115979901Y-96889930D02*
X115941196Y-96928635D01*
X115941196Y-96928635D02*
X115979901Y-96967339D01*
X115979901Y-96967339D02*
X116018605Y-96928635D01*
X116018605Y-96928635D02*
X115979901Y-96889930D01*
X115979901Y-96889930D02*
X115979901Y-96967339D01*
X115979901Y-96464177D02*
X115941196Y-96502882D01*
X115941196Y-96502882D02*
X115979901Y-96541587D01*
X115979901Y-96541587D02*
X116018605Y-96502882D01*
X116018605Y-96502882D02*
X115979901Y-96464177D01*
X115979901Y-96464177D02*
X115979901Y-96541587D01*
X114818758Y-96154539D02*
X114741348Y-96154539D01*
X114741348Y-96154539D02*
X114663939Y-96193244D01*
X114663939Y-96193244D02*
X114625234Y-96231949D01*
X114625234Y-96231949D02*
X114586529Y-96309358D01*
X114586529Y-96309358D02*
X114547824Y-96464177D01*
X114547824Y-96464177D02*
X114547824Y-96657701D01*
X114547824Y-96657701D02*
X114586529Y-96812520D01*
X114586529Y-96812520D02*
X114625234Y-96889930D01*
X114625234Y-96889930D02*
X114663939Y-96928635D01*
X114663939Y-96928635D02*
X114741348Y-96967339D01*
X114741348Y-96967339D02*
X114818758Y-96967339D01*
X114818758Y-96967339D02*
X114896167Y-96928635D01*
X114896167Y-96928635D02*
X114934872Y-96889930D01*
X114934872Y-96889930D02*
X114973577Y-96812520D01*
X114973577Y-96812520D02*
X115012281Y-96657701D01*
X115012281Y-96657701D02*
X115012281Y-96464177D01*
X115012281Y-96464177D02*
X114973577Y-96309358D01*
X114973577Y-96309358D02*
X114934872Y-96231949D01*
X114934872Y-96231949D02*
X114896167Y-96193244D01*
X114896167Y-96193244D02*
X114818758Y-96154539D01*
X114044663Y-96154539D02*
X113967253Y-96154539D01*
X113967253Y-96154539D02*
X113889844Y-96193244D01*
X113889844Y-96193244D02*
X113851139Y-96231949D01*
X113851139Y-96231949D02*
X113812434Y-96309358D01*
X113812434Y-96309358D02*
X113773729Y-96464177D01*
X113773729Y-96464177D02*
X113773729Y-96657701D01*
X113773729Y-96657701D02*
X113812434Y-96812520D01*
X113812434Y-96812520D02*
X113851139Y-96889930D01*
X113851139Y-96889930D02*
X113889844Y-96928635D01*
X113889844Y-96928635D02*
X113967253Y-96967339D01*
X113967253Y-96967339D02*
X114044663Y-96967339D01*
X114044663Y-96967339D02*
X114122072Y-96928635D01*
X114122072Y-96928635D02*
X114160777Y-96889930D01*
X114160777Y-96889930D02*
X114199482Y-96812520D01*
X114199482Y-96812520D02*
X114238186Y-96657701D01*
X114238186Y-96657701D02*
X114238186Y-96464177D01*
X114238186Y-96464177D02*
X114199482Y-96309358D01*
X114199482Y-96309358D02*
X114160777Y-96231949D01*
X114160777Y-96231949D02*
X114122072Y-96193244D01*
X114122072Y-96193244D02*
X114044663Y-96154539D01*
X113270568Y-96154539D02*
X113193158Y-96154539D01*
X113193158Y-96154539D02*
X113115749Y-96193244D01*
X113115749Y-96193244D02*
X113077044Y-96231949D01*
X113077044Y-96231949D02*
X113038339Y-96309358D01*
X113038339Y-96309358D02*
X112999634Y-96464177D01*
X112999634Y-96464177D02*
X112999634Y-96657701D01*
X112999634Y-96657701D02*
X113038339Y-96812520D01*
X113038339Y-96812520D02*
X113077044Y-96889930D01*
X113077044Y-96889930D02*
X113115749Y-96928635D01*
X113115749Y-96928635D02*
X113193158Y-96967339D01*
X113193158Y-96967339D02*
X113270568Y-96967339D01*
X113270568Y-96967339D02*
X113347977Y-96928635D01*
X113347977Y-96928635D02*
X113386682Y-96889930D01*
X113386682Y-96889930D02*
X113425387Y-96812520D01*
X113425387Y-96812520D02*
X113464091Y-96657701D01*
X113464091Y-96657701D02*
X113464091Y-96464177D01*
X113464091Y-96464177D02*
X113425387Y-96309358D01*
X113425387Y-96309358D02*
X113386682Y-96231949D01*
X113386682Y-96231949D02*
X113347977Y-96193244D01*
X113347977Y-96193244D02*
X113270568Y-96154539D01*
X112496473Y-96154539D02*
X112419063Y-96154539D01*
X112419063Y-96154539D02*
X112341654Y-96193244D01*
X112341654Y-96193244D02*
X112302949Y-96231949D01*
X112302949Y-96231949D02*
X112264244Y-96309358D01*
X112264244Y-96309358D02*
X112225539Y-96464177D01*
X112225539Y-96464177D02*
X112225539Y-96657701D01*
X112225539Y-96657701D02*
X112264244Y-96812520D01*
X112264244Y-96812520D02*
X112302949Y-96889930D01*
X112302949Y-96889930D02*
X112341654Y-96928635D01*
X112341654Y-96928635D02*
X112419063Y-96967339D01*
X112419063Y-96967339D02*
X112496473Y-96967339D01*
X112496473Y-96967339D02*
X112573882Y-96928635D01*
X112573882Y-96928635D02*
X112612587Y-96889930D01*
X112612587Y-96889930D02*
X112651292Y-96812520D01*
X112651292Y-96812520D02*
X112689996Y-96657701D01*
X112689996Y-96657701D02*
X112689996Y-96464177D01*
X112689996Y-96464177D02*
X112651292Y-96309358D01*
X112651292Y-96309358D02*
X112612587Y-96231949D01*
X112612587Y-96231949D02*
X112573882Y-96193244D01*
X112573882Y-96193244D02*
X112496473Y-96154539D01*
X111877197Y-96657701D02*
X111257921Y-96657701D01*
X110599939Y-96541587D02*
X110870873Y-96541587D01*
X110870873Y-96967339D02*
X110870873Y-96154539D01*
X110870873Y-96154539D02*
X110483825Y-96154539D01*
X109903253Y-96541587D02*
X110174187Y-96541587D01*
X110174187Y-96967339D02*
X110174187Y-96154539D01*
X110174187Y-96154539D02*
X109787139Y-96154539D01*
X109206567Y-96541587D02*
X109477501Y-96541587D01*
X109477501Y-96967339D02*
X109477501Y-96154539D01*
X109477501Y-96154539D02*
X109090453Y-96154539D01*
X108509881Y-96541587D02*
X108780815Y-96541587D01*
X108780815Y-96967339D02*
X108780815Y-96154539D01*
X108780815Y-96154539D02*
X108393767Y-96154539D01*
X108084129Y-96967339D02*
X108084129Y-96154539D01*
X107735786Y-96967339D02*
X107735786Y-96541587D01*
X107735786Y-96541587D02*
X107774491Y-96464177D01*
X107774491Y-96464177D02*
X107851900Y-96425473D01*
X107851900Y-96425473D02*
X107968014Y-96425473D01*
X107968014Y-96425473D02*
X108045424Y-96464177D01*
X108045424Y-96464177D02*
X108084129Y-96502882D01*
X137035284Y-97850195D02*
X136919170Y-97888900D01*
X136919170Y-97888900D02*
X136880465Y-97927604D01*
X136880465Y-97927604D02*
X136841761Y-98005014D01*
X136841761Y-98005014D02*
X136841761Y-98121128D01*
X136841761Y-98121128D02*
X136880465Y-98198538D01*
X136880465Y-98198538D02*
X136919170Y-98237243D01*
X136919170Y-98237243D02*
X136996580Y-98275947D01*
X136996580Y-98275947D02*
X137306218Y-98275947D01*
X137306218Y-98275947D02*
X137306218Y-97463147D01*
X137306218Y-97463147D02*
X137035284Y-97463147D01*
X137035284Y-97463147D02*
X136957875Y-97501852D01*
X136957875Y-97501852D02*
X136919170Y-97540557D01*
X136919170Y-97540557D02*
X136880465Y-97617966D01*
X136880465Y-97617966D02*
X136880465Y-97695376D01*
X136880465Y-97695376D02*
X136919170Y-97772785D01*
X136919170Y-97772785D02*
X136957875Y-97811490D01*
X136957875Y-97811490D02*
X137035284Y-97850195D01*
X137035284Y-97850195D02*
X137306218Y-97850195D01*
X136145075Y-97734081D02*
X136145075Y-98275947D01*
X136493418Y-97734081D02*
X136493418Y-98159833D01*
X136493418Y-98159833D02*
X136454713Y-98237243D01*
X136454713Y-98237243D02*
X136377303Y-98275947D01*
X136377303Y-98275947D02*
X136261189Y-98275947D01*
X136261189Y-98275947D02*
X136183780Y-98237243D01*
X136183780Y-98237243D02*
X136145075Y-98198538D01*
X135796732Y-98237243D02*
X135719323Y-98275947D01*
X135719323Y-98275947D02*
X135564504Y-98275947D01*
X135564504Y-98275947D02*
X135487094Y-98237243D01*
X135487094Y-98237243D02*
X135448390Y-98159833D01*
X135448390Y-98159833D02*
X135448390Y-98121128D01*
X135448390Y-98121128D02*
X135487094Y-98043719D01*
X135487094Y-98043719D02*
X135564504Y-98005014D01*
X135564504Y-98005014D02*
X135680618Y-98005014D01*
X135680618Y-98005014D02*
X135758028Y-97966309D01*
X135758028Y-97966309D02*
X135796732Y-97888900D01*
X135796732Y-97888900D02*
X135796732Y-97850195D01*
X135796732Y-97850195D02*
X135758028Y-97772785D01*
X135758028Y-97772785D02*
X135680618Y-97734081D01*
X135680618Y-97734081D02*
X135564504Y-97734081D01*
X135564504Y-97734081D02*
X135487094Y-97772785D01*
X134016314Y-98275947D02*
X134287247Y-97888900D01*
X134480771Y-98275947D02*
X134480771Y-97463147D01*
X134480771Y-97463147D02*
X134171133Y-97463147D01*
X134171133Y-97463147D02*
X134093723Y-97501852D01*
X134093723Y-97501852D02*
X134055018Y-97540557D01*
X134055018Y-97540557D02*
X134016314Y-97617966D01*
X134016314Y-97617966D02*
X134016314Y-97734081D01*
X134016314Y-97734081D02*
X134055018Y-97811490D01*
X134055018Y-97811490D02*
X134093723Y-97850195D01*
X134093723Y-97850195D02*
X134171133Y-97888900D01*
X134171133Y-97888900D02*
X134480771Y-97888900D01*
X133358333Y-98237243D02*
X133435742Y-98275947D01*
X133435742Y-98275947D02*
X133590561Y-98275947D01*
X133590561Y-98275947D02*
X133667971Y-98237243D01*
X133667971Y-98237243D02*
X133706675Y-98159833D01*
X133706675Y-98159833D02*
X133706675Y-97850195D01*
X133706675Y-97850195D02*
X133667971Y-97772785D01*
X133667971Y-97772785D02*
X133590561Y-97734081D01*
X133590561Y-97734081D02*
X133435742Y-97734081D01*
X133435742Y-97734081D02*
X133358333Y-97772785D01*
X133358333Y-97772785D02*
X133319628Y-97850195D01*
X133319628Y-97850195D02*
X133319628Y-97927604D01*
X133319628Y-97927604D02*
X133706675Y-98005014D01*
X132622942Y-98275947D02*
X132622942Y-97850195D01*
X132622942Y-97850195D02*
X132661647Y-97772785D01*
X132661647Y-97772785D02*
X132739056Y-97734081D01*
X132739056Y-97734081D02*
X132893875Y-97734081D01*
X132893875Y-97734081D02*
X132971285Y-97772785D01*
X132622942Y-98237243D02*
X132700351Y-98275947D01*
X132700351Y-98275947D02*
X132893875Y-98275947D01*
X132893875Y-98275947D02*
X132971285Y-98237243D01*
X132971285Y-98237243D02*
X133009989Y-98159833D01*
X133009989Y-98159833D02*
X133009989Y-98082423D01*
X133009989Y-98082423D02*
X132971285Y-98005014D01*
X132971285Y-98005014D02*
X132893875Y-97966309D01*
X132893875Y-97966309D02*
X132700351Y-97966309D01*
X132700351Y-97966309D02*
X132622942Y-97927604D01*
X131887552Y-98275947D02*
X131887552Y-97463147D01*
X131887552Y-98237243D02*
X131964961Y-98275947D01*
X131964961Y-98275947D02*
X132119780Y-98275947D01*
X132119780Y-98275947D02*
X132197190Y-98237243D01*
X132197190Y-98237243D02*
X132235895Y-98198538D01*
X132235895Y-98198538D02*
X132274599Y-98121128D01*
X132274599Y-98121128D02*
X132274599Y-97888900D01*
X132274599Y-97888900D02*
X132235895Y-97811490D01*
X132235895Y-97811490D02*
X132197190Y-97772785D01*
X132197190Y-97772785D02*
X132119780Y-97734081D01*
X132119780Y-97734081D02*
X131964961Y-97734081D01*
X131964961Y-97734081D02*
X131887552Y-97772785D01*
X131577914Y-97734081D02*
X131384390Y-98275947D01*
X131190867Y-97734081D02*
X131384390Y-98275947D01*
X131384390Y-98275947D02*
X131461800Y-98469471D01*
X131461800Y-98469471D02*
X131500505Y-98508176D01*
X131500505Y-98508176D02*
X131577914Y-98546881D01*
X130145838Y-98275947D02*
X130223248Y-98237243D01*
X130223248Y-98237243D02*
X130261953Y-98198538D01*
X130261953Y-98198538D02*
X130300657Y-98121128D01*
X130300657Y-98121128D02*
X130300657Y-97888900D01*
X130300657Y-97888900D02*
X130261953Y-97811490D01*
X130261953Y-97811490D02*
X130223248Y-97772785D01*
X130223248Y-97772785D02*
X130145838Y-97734081D01*
X130145838Y-97734081D02*
X130029724Y-97734081D01*
X130029724Y-97734081D02*
X129952315Y-97772785D01*
X129952315Y-97772785D02*
X129913610Y-97811490D01*
X129913610Y-97811490D02*
X129874905Y-97888900D01*
X129874905Y-97888900D02*
X129874905Y-98121128D01*
X129874905Y-98121128D02*
X129913610Y-98198538D01*
X129913610Y-98198538D02*
X129952315Y-98237243D01*
X129952315Y-98237243D02*
X130029724Y-98275947D01*
X130029724Y-98275947D02*
X130145838Y-98275947D01*
X129526563Y-97734081D02*
X129526563Y-98275947D01*
X129526563Y-97811490D02*
X129487858Y-97772785D01*
X129487858Y-97772785D02*
X129410448Y-97734081D01*
X129410448Y-97734081D02*
X129294334Y-97734081D01*
X129294334Y-97734081D02*
X129216925Y-97772785D01*
X129216925Y-97772785D02*
X129178220Y-97850195D01*
X129178220Y-97850195D02*
X129178220Y-98275947D01*
X128210601Y-98043719D02*
X127823554Y-98043719D01*
X128288011Y-98275947D02*
X128017078Y-97463147D01*
X128017078Y-97463147D02*
X127746144Y-98275947D01*
X127475211Y-97850195D02*
X127204277Y-97850195D01*
X127088163Y-98275947D02*
X127475211Y-98275947D01*
X127475211Y-98275947D02*
X127475211Y-97463147D01*
X127475211Y-97463147D02*
X127088163Y-97463147D01*
X126739821Y-98275947D02*
X126739821Y-97463147D01*
X126739821Y-97463147D02*
X126275364Y-98275947D01*
X126275364Y-98275947D02*
X126275364Y-97463147D01*
X125269040Y-97734081D02*
X125269040Y-98275947D01*
X125269040Y-97811490D02*
X125230335Y-97772785D01*
X125230335Y-97772785D02*
X125152925Y-97734081D01*
X125152925Y-97734081D02*
X125036811Y-97734081D01*
X125036811Y-97734081D02*
X124959402Y-97772785D01*
X124959402Y-97772785D02*
X124920697Y-97850195D01*
X124920697Y-97850195D02*
X124920697Y-98275947D01*
X124417535Y-98275947D02*
X124494945Y-98237243D01*
X124494945Y-98237243D02*
X124533650Y-98198538D01*
X124533650Y-98198538D02*
X124572354Y-98121128D01*
X124572354Y-98121128D02*
X124572354Y-97888900D01*
X124572354Y-97888900D02*
X124533650Y-97811490D01*
X124533650Y-97811490D02*
X124494945Y-97772785D01*
X124494945Y-97772785D02*
X124417535Y-97734081D01*
X124417535Y-97734081D02*
X124301421Y-97734081D01*
X124301421Y-97734081D02*
X124224012Y-97772785D01*
X124224012Y-97772785D02*
X124185307Y-97811490D01*
X124185307Y-97811490D02*
X124146602Y-97888900D01*
X124146602Y-97888900D02*
X124146602Y-98121128D01*
X124146602Y-98121128D02*
X124185307Y-98198538D01*
X124185307Y-98198538D02*
X124224012Y-98237243D01*
X124224012Y-98237243D02*
X124301421Y-98275947D01*
X124301421Y-98275947D02*
X124417535Y-98275947D01*
X123798260Y-98275947D02*
X123798260Y-97734081D01*
X123798260Y-97888900D02*
X123759555Y-97811490D01*
X123759555Y-97811490D02*
X123720850Y-97772785D01*
X123720850Y-97772785D02*
X123643441Y-97734081D01*
X123643441Y-97734081D02*
X123566031Y-97734081D01*
X122675822Y-98275947D02*
X122675822Y-97463147D01*
X122133955Y-97463147D02*
X121979136Y-97463147D01*
X121979136Y-97463147D02*
X121901726Y-97501852D01*
X121901726Y-97501852D02*
X121824317Y-97579262D01*
X121824317Y-97579262D02*
X121785612Y-97734081D01*
X121785612Y-97734081D02*
X121785612Y-98005014D01*
X121785612Y-98005014D02*
X121824317Y-98159833D01*
X121824317Y-98159833D02*
X121901726Y-98237243D01*
X121901726Y-98237243D02*
X121979136Y-98275947D01*
X121979136Y-98275947D02*
X122133955Y-98275947D01*
X122133955Y-98275947D02*
X122211364Y-98237243D01*
X122211364Y-98237243D02*
X122288774Y-98159833D01*
X122288774Y-98159833D02*
X122327478Y-98005014D01*
X122327478Y-98005014D02*
X122327478Y-97734081D01*
X122327478Y-97734081D02*
X122288774Y-97579262D01*
X122288774Y-97579262D02*
X122211364Y-97501852D01*
X122211364Y-97501852D02*
X122133955Y-97463147D01*
X121514678Y-97463147D02*
X121321154Y-98275947D01*
X121321154Y-98275947D02*
X121166335Y-97695376D01*
X121166335Y-97695376D02*
X121011516Y-98275947D01*
X121011516Y-98275947D02*
X120817993Y-97463147D01*
X119889079Y-97966309D02*
X119269803Y-97966309D01*
X119579441Y-98275947D02*
X119579441Y-97656671D01*
X117915136Y-98275947D02*
X117915136Y-97850195D01*
X117915136Y-97850195D02*
X117953841Y-97772785D01*
X117953841Y-97772785D02*
X118031250Y-97734081D01*
X118031250Y-97734081D02*
X118186069Y-97734081D01*
X118186069Y-97734081D02*
X118263479Y-97772785D01*
X117915136Y-98237243D02*
X117992545Y-98275947D01*
X117992545Y-98275947D02*
X118186069Y-98275947D01*
X118186069Y-98275947D02*
X118263479Y-98237243D01*
X118263479Y-98237243D02*
X118302183Y-98159833D01*
X118302183Y-98159833D02*
X118302183Y-98082423D01*
X118302183Y-98082423D02*
X118263479Y-98005014D01*
X118263479Y-98005014D02*
X118186069Y-97966309D01*
X118186069Y-97966309D02*
X117992545Y-97966309D01*
X117992545Y-97966309D02*
X117915136Y-97927604D01*
X117179746Y-98275947D02*
X117179746Y-97463147D01*
X117179746Y-98237243D02*
X117257155Y-98275947D01*
X117257155Y-98275947D02*
X117411974Y-98275947D01*
X117411974Y-98275947D02*
X117489384Y-98237243D01*
X117489384Y-98237243D02*
X117528089Y-98198538D01*
X117528089Y-98198538D02*
X117566793Y-98121128D01*
X117566793Y-98121128D02*
X117566793Y-97888900D01*
X117566793Y-97888900D02*
X117528089Y-97811490D01*
X117528089Y-97811490D02*
X117489384Y-97772785D01*
X117489384Y-97772785D02*
X117411974Y-97734081D01*
X117411974Y-97734081D02*
X117257155Y-97734081D01*
X117257155Y-97734081D02*
X117179746Y-97772785D01*
X116444356Y-98275947D02*
X116444356Y-97463147D01*
X116444356Y-98237243D02*
X116521765Y-98275947D01*
X116521765Y-98275947D02*
X116676584Y-98275947D01*
X116676584Y-98275947D02*
X116753994Y-98237243D01*
X116753994Y-98237243D02*
X116792699Y-98198538D01*
X116792699Y-98198538D02*
X116831403Y-98121128D01*
X116831403Y-98121128D02*
X116831403Y-97888900D01*
X116831403Y-97888900D02*
X116792699Y-97811490D01*
X116792699Y-97811490D02*
X116753994Y-97772785D01*
X116753994Y-97772785D02*
X116676584Y-97734081D01*
X116676584Y-97734081D02*
X116521765Y-97734081D01*
X116521765Y-97734081D02*
X116444356Y-97772785D01*
X116057309Y-98275947D02*
X116057309Y-97734081D01*
X116057309Y-97888900D02*
X116018604Y-97811490D01*
X116018604Y-97811490D02*
X115979899Y-97772785D01*
X115979899Y-97772785D02*
X115902490Y-97734081D01*
X115902490Y-97734081D02*
X115825080Y-97734081D01*
X115012280Y-97734081D02*
X114857461Y-98275947D01*
X114857461Y-98275947D02*
X114702642Y-97888900D01*
X114702642Y-97888900D02*
X114547823Y-98275947D01*
X114547823Y-98275947D02*
X114393004Y-97734081D01*
X114083366Y-98275947D02*
X114083366Y-97734081D01*
X114083366Y-97463147D02*
X114122070Y-97501852D01*
X114122070Y-97501852D02*
X114083366Y-97540557D01*
X114083366Y-97540557D02*
X114044661Y-97501852D01*
X114044661Y-97501852D02*
X114083366Y-97463147D01*
X114083366Y-97463147D02*
X114083366Y-97540557D01*
X113812432Y-97734081D02*
X113502794Y-97734081D01*
X113696318Y-97463147D02*
X113696318Y-98159833D01*
X113696318Y-98159833D02*
X113657613Y-98237243D01*
X113657613Y-98237243D02*
X113580203Y-98275947D01*
X113580203Y-98275947D02*
X113502794Y-98275947D01*
X113231861Y-98275947D02*
X113231861Y-97463147D01*
X112883518Y-98275947D02*
X112883518Y-97850195D01*
X112883518Y-97850195D02*
X112922223Y-97772785D01*
X112922223Y-97772785D02*
X112999632Y-97734081D01*
X112999632Y-97734081D02*
X113115746Y-97734081D01*
X113115746Y-97734081D02*
X113193156Y-97772785D01*
X113193156Y-97772785D02*
X113231861Y-97811490D01*
X112496471Y-98275947D02*
X112496471Y-97734081D01*
X112496471Y-97463147D02*
X112535175Y-97501852D01*
X112535175Y-97501852D02*
X112496471Y-97540557D01*
X112496471Y-97540557D02*
X112457766Y-97501852D01*
X112457766Y-97501852D02*
X112496471Y-97463147D01*
X112496471Y-97463147D02*
X112496471Y-97540557D01*
X112109423Y-97734081D02*
X112109423Y-98275947D01*
X112109423Y-97811490D02*
X112070718Y-97772785D01*
X112070718Y-97772785D02*
X111993308Y-97734081D01*
X111993308Y-97734081D02*
X111877194Y-97734081D01*
X111877194Y-97734081D02*
X111799785Y-97772785D01*
X111799785Y-97772785D02*
X111761080Y-97850195D01*
X111761080Y-97850195D02*
X111761080Y-98275947D01*
X110754757Y-98275947D02*
X110754757Y-97734081D01*
X110754757Y-97888900D02*
X110716052Y-97811490D01*
X110716052Y-97811490D02*
X110677347Y-97772785D01*
X110677347Y-97772785D02*
X110599938Y-97734081D01*
X110599938Y-97734081D02*
X110522528Y-97734081D01*
X109903252Y-98275947D02*
X109903252Y-97850195D01*
X109903252Y-97850195D02*
X109941957Y-97772785D01*
X109941957Y-97772785D02*
X110019366Y-97734081D01*
X110019366Y-97734081D02*
X110174185Y-97734081D01*
X110174185Y-97734081D02*
X110251595Y-97772785D01*
X109903252Y-98237243D02*
X109980661Y-98275947D01*
X109980661Y-98275947D02*
X110174185Y-98275947D01*
X110174185Y-98275947D02*
X110251595Y-98237243D01*
X110251595Y-98237243D02*
X110290299Y-98159833D01*
X110290299Y-98159833D02*
X110290299Y-98082423D01*
X110290299Y-98082423D02*
X110251595Y-98005014D01*
X110251595Y-98005014D02*
X110174185Y-97966309D01*
X110174185Y-97966309D02*
X109980661Y-97966309D01*
X109980661Y-97966309D02*
X109903252Y-97927604D01*
X109516205Y-97734081D02*
X109516205Y-98275947D01*
X109516205Y-97811490D02*
X109477500Y-97772785D01*
X109477500Y-97772785D02*
X109400090Y-97734081D01*
X109400090Y-97734081D02*
X109283976Y-97734081D01*
X109283976Y-97734081D02*
X109206567Y-97772785D01*
X109206567Y-97772785D02*
X109167862Y-97850195D01*
X109167862Y-97850195D02*
X109167862Y-98275947D01*
X108432472Y-97734081D02*
X108432472Y-98392062D01*
X108432472Y-98392062D02*
X108471177Y-98469471D01*
X108471177Y-98469471D02*
X108509881Y-98508176D01*
X108509881Y-98508176D02*
X108587291Y-98546881D01*
X108587291Y-98546881D02*
X108703405Y-98546881D01*
X108703405Y-98546881D02*
X108780815Y-98508176D01*
X108432472Y-98237243D02*
X108509881Y-98275947D01*
X108509881Y-98275947D02*
X108664700Y-98275947D01*
X108664700Y-98275947D02*
X108742110Y-98237243D01*
X108742110Y-98237243D02*
X108780815Y-98198538D01*
X108780815Y-98198538D02*
X108819519Y-98121128D01*
X108819519Y-98121128D02*
X108819519Y-97888900D01*
X108819519Y-97888900D02*
X108780815Y-97811490D01*
X108780815Y-97811490D02*
X108742110Y-97772785D01*
X108742110Y-97772785D02*
X108664700Y-97734081D01*
X108664700Y-97734081D02*
X108509881Y-97734081D01*
X108509881Y-97734081D02*
X108432472Y-97772785D01*
X107735787Y-98237243D02*
X107813196Y-98275947D01*
X107813196Y-98275947D02*
X107968015Y-98275947D01*
X107968015Y-98275947D02*
X108045425Y-98237243D01*
X108045425Y-98237243D02*
X108084129Y-98159833D01*
X108084129Y-98159833D02*
X108084129Y-97850195D01*
X108084129Y-97850195D02*
X108045425Y-97772785D01*
X108045425Y-97772785D02*
X107968015Y-97734081D01*
X107968015Y-97734081D02*
X107813196Y-97734081D01*
X107813196Y-97734081D02*
X107735787Y-97772785D01*
X107735787Y-97772785D02*
X107697082Y-97850195D01*
X107697082Y-97850195D02*
X107697082Y-97927604D01*
X107697082Y-97927604D02*
X108084129Y-98005014D01*
X121011520Y-100893163D02*
X121282453Y-100506116D01*
X121475977Y-100893163D02*
X121475977Y-100080363D01*
X121475977Y-100080363D02*
X121166339Y-100080363D01*
X121166339Y-100080363D02*
X121088929Y-100119068D01*
X121088929Y-100119068D02*
X121050224Y-100157773D01*
X121050224Y-100157773D02*
X121011520Y-100235182D01*
X121011520Y-100235182D02*
X121011520Y-100351297D01*
X121011520Y-100351297D02*
X121050224Y-100428706D01*
X121050224Y-100428706D02*
X121088929Y-100467411D01*
X121088929Y-100467411D02*
X121166339Y-100506116D01*
X121166339Y-100506116D02*
X121475977Y-100506116D01*
X120353539Y-100854459D02*
X120430948Y-100893163D01*
X120430948Y-100893163D02*
X120585767Y-100893163D01*
X120585767Y-100893163D02*
X120663177Y-100854459D01*
X120663177Y-100854459D02*
X120701881Y-100777049D01*
X120701881Y-100777049D02*
X120701881Y-100467411D01*
X120701881Y-100467411D02*
X120663177Y-100390001D01*
X120663177Y-100390001D02*
X120585767Y-100351297D01*
X120585767Y-100351297D02*
X120430948Y-100351297D01*
X120430948Y-100351297D02*
X120353539Y-100390001D01*
X120353539Y-100390001D02*
X120314834Y-100467411D01*
X120314834Y-100467411D02*
X120314834Y-100544820D01*
X120314834Y-100544820D02*
X120701881Y-100622230D01*
X119966491Y-100893163D02*
X119966491Y-100351297D01*
X119966491Y-100428706D02*
X119927786Y-100390001D01*
X119927786Y-100390001D02*
X119850376Y-100351297D01*
X119850376Y-100351297D02*
X119734262Y-100351297D01*
X119734262Y-100351297D02*
X119656853Y-100390001D01*
X119656853Y-100390001D02*
X119618148Y-100467411D01*
X119618148Y-100467411D02*
X119618148Y-100893163D01*
X119618148Y-100467411D02*
X119579443Y-100390001D01*
X119579443Y-100390001D02*
X119502034Y-100351297D01*
X119502034Y-100351297D02*
X119385919Y-100351297D01*
X119385919Y-100351297D02*
X119308510Y-100390001D01*
X119308510Y-100390001D02*
X119269805Y-100467411D01*
X119269805Y-100467411D02*
X119269805Y-100893163D01*
X118766643Y-100893163D02*
X118844053Y-100854459D01*
X118844053Y-100854459D02*
X118882758Y-100815754D01*
X118882758Y-100815754D02*
X118921462Y-100738344D01*
X118921462Y-100738344D02*
X118921462Y-100506116D01*
X118921462Y-100506116D02*
X118882758Y-100428706D01*
X118882758Y-100428706D02*
X118844053Y-100390001D01*
X118844053Y-100390001D02*
X118766643Y-100351297D01*
X118766643Y-100351297D02*
X118650529Y-100351297D01*
X118650529Y-100351297D02*
X118573120Y-100390001D01*
X118573120Y-100390001D02*
X118534415Y-100428706D01*
X118534415Y-100428706D02*
X118495710Y-100506116D01*
X118495710Y-100506116D02*
X118495710Y-100738344D01*
X118495710Y-100738344D02*
X118534415Y-100815754D01*
X118534415Y-100815754D02*
X118573120Y-100854459D01*
X118573120Y-100854459D02*
X118650529Y-100893163D01*
X118650529Y-100893163D02*
X118766643Y-100893163D01*
X118263482Y-100351297D02*
X117953844Y-100351297D01*
X118147368Y-100080363D02*
X118147368Y-100777049D01*
X118147368Y-100777049D02*
X118108663Y-100854459D01*
X118108663Y-100854459D02*
X118031253Y-100893163D01*
X118031253Y-100893163D02*
X117953844Y-100893163D01*
X117373273Y-100854459D02*
X117450682Y-100893163D01*
X117450682Y-100893163D02*
X117605501Y-100893163D01*
X117605501Y-100893163D02*
X117682911Y-100854459D01*
X117682911Y-100854459D02*
X117721615Y-100777049D01*
X117721615Y-100777049D02*
X117721615Y-100467411D01*
X117721615Y-100467411D02*
X117682911Y-100390001D01*
X117682911Y-100390001D02*
X117605501Y-100351297D01*
X117605501Y-100351297D02*
X117450682Y-100351297D01*
X117450682Y-100351297D02*
X117373273Y-100390001D01*
X117373273Y-100390001D02*
X117334568Y-100467411D01*
X117334568Y-100467411D02*
X117334568Y-100544820D01*
X117334568Y-100544820D02*
X117721615Y-100622230D01*
X116986225Y-100815754D02*
X116947520Y-100854459D01*
X116947520Y-100854459D02*
X116986225Y-100893163D01*
X116986225Y-100893163D02*
X117024929Y-100854459D01*
X117024929Y-100854459D02*
X116986225Y-100815754D01*
X116986225Y-100815754D02*
X116986225Y-100893163D01*
X116986225Y-100390001D02*
X116947520Y-100428706D01*
X116947520Y-100428706D02*
X116986225Y-100467411D01*
X116986225Y-100467411D02*
X117024929Y-100428706D01*
X117024929Y-100428706D02*
X116986225Y-100390001D01*
X116986225Y-100390001D02*
X116986225Y-100467411D01*
X115979901Y-100893163D02*
X115979901Y-100080363D01*
X115631557Y-100157773D02*
X115592853Y-100119068D01*
X115592853Y-100119068D02*
X115515443Y-100080363D01*
X115515443Y-100080363D02*
X115321919Y-100080363D01*
X115321919Y-100080363D02*
X115244510Y-100119068D01*
X115244510Y-100119068D02*
X115205805Y-100157773D01*
X115205805Y-100157773D02*
X115167100Y-100235182D01*
X115167100Y-100235182D02*
X115167100Y-100312592D01*
X115167100Y-100312592D02*
X115205805Y-100428706D01*
X115205805Y-100428706D02*
X115670262Y-100893163D01*
X115670262Y-100893163D02*
X115167100Y-100893163D01*
X114354301Y-100815754D02*
X114393005Y-100854459D01*
X114393005Y-100854459D02*
X114509120Y-100893163D01*
X114509120Y-100893163D02*
X114586529Y-100893163D01*
X114586529Y-100893163D02*
X114702643Y-100854459D01*
X114702643Y-100854459D02*
X114780053Y-100777049D01*
X114780053Y-100777049D02*
X114818758Y-100699639D01*
X114818758Y-100699639D02*
X114857462Y-100544820D01*
X114857462Y-100544820D02*
X114857462Y-100428706D01*
X114857462Y-100428706D02*
X114818758Y-100273887D01*
X114818758Y-100273887D02*
X114780053Y-100196478D01*
X114780053Y-100196478D02*
X114702643Y-100119068D01*
X114702643Y-100119068D02*
X114586529Y-100080363D01*
X114586529Y-100080363D02*
X114509120Y-100080363D01*
X114509120Y-100080363D02*
X114393005Y-100119068D01*
X114393005Y-100119068D02*
X114354301Y-100157773D01*
X113851139Y-100080363D02*
X113773729Y-100080363D01*
X113773729Y-100080363D02*
X113696320Y-100119068D01*
X113696320Y-100119068D02*
X113657615Y-100157773D01*
X113657615Y-100157773D02*
X113618910Y-100235182D01*
X113618910Y-100235182D02*
X113580205Y-100390001D01*
X113580205Y-100390001D02*
X113580205Y-100583525D01*
X113580205Y-100583525D02*
X113618910Y-100738344D01*
X113618910Y-100738344D02*
X113657615Y-100815754D01*
X113657615Y-100815754D02*
X113696320Y-100854459D01*
X113696320Y-100854459D02*
X113773729Y-100893163D01*
X113773729Y-100893163D02*
X113851139Y-100893163D01*
X113851139Y-100893163D02*
X113928548Y-100854459D01*
X113928548Y-100854459D02*
X113967253Y-100815754D01*
X113967253Y-100815754D02*
X114005958Y-100738344D01*
X114005958Y-100738344D02*
X114044662Y-100583525D01*
X114044662Y-100583525D02*
X114044662Y-100390001D01*
X114044662Y-100390001D02*
X114005958Y-100235182D01*
X114005958Y-100235182D02*
X113967253Y-100157773D01*
X113967253Y-100157773D02*
X113928548Y-100119068D01*
X113928548Y-100119068D02*
X113851139Y-100080363D01*
X112380358Y-101202801D02*
X112419063Y-101164097D01*
X112419063Y-101164097D02*
X112496472Y-101047982D01*
X112496472Y-101047982D02*
X112535177Y-100970573D01*
X112535177Y-100970573D02*
X112573882Y-100854459D01*
X112573882Y-100854459D02*
X112612587Y-100660935D01*
X112612587Y-100660935D02*
X112612587Y-100506116D01*
X112612587Y-100506116D02*
X112573882Y-100312592D01*
X112573882Y-100312592D02*
X112535177Y-100196478D01*
X112535177Y-100196478D02*
X112496472Y-100119068D01*
X112496472Y-100119068D02*
X112419063Y-100002954D01*
X112419063Y-100002954D02*
X112380358Y-99964249D01*
X111644967Y-100119068D02*
X111722377Y-100080363D01*
X111722377Y-100080363D02*
X111838491Y-100080363D01*
X111838491Y-100080363D02*
X111954605Y-100119068D01*
X111954605Y-100119068D02*
X112032015Y-100196478D01*
X112032015Y-100196478D02*
X112070720Y-100273887D01*
X112070720Y-100273887D02*
X112109424Y-100428706D01*
X112109424Y-100428706D02*
X112109424Y-100544820D01*
X112109424Y-100544820D02*
X112070720Y-100699639D01*
X112070720Y-100699639D02*
X112032015Y-100777049D01*
X112032015Y-100777049D02*
X111954605Y-100854459D01*
X111954605Y-100854459D02*
X111838491Y-100893163D01*
X111838491Y-100893163D02*
X111761082Y-100893163D01*
X111761082Y-100893163D02*
X111644967Y-100854459D01*
X111644967Y-100854459D02*
X111606263Y-100815754D01*
X111606263Y-100815754D02*
X111606263Y-100544820D01*
X111606263Y-100544820D02*
X111761082Y-100544820D01*
X111257920Y-100893163D02*
X111257920Y-100080363D01*
X111257920Y-100080363D02*
X110948282Y-100080363D01*
X110948282Y-100080363D02*
X110870872Y-100119068D01*
X110870872Y-100119068D02*
X110832167Y-100157773D01*
X110832167Y-100157773D02*
X110793463Y-100235182D01*
X110793463Y-100235182D02*
X110793463Y-100351297D01*
X110793463Y-100351297D02*
X110832167Y-100428706D01*
X110832167Y-100428706D02*
X110870872Y-100467411D01*
X110870872Y-100467411D02*
X110948282Y-100506116D01*
X110948282Y-100506116D02*
X111257920Y-100506116D01*
X110290301Y-100080363D02*
X110212891Y-100080363D01*
X110212891Y-100080363D02*
X110135482Y-100119068D01*
X110135482Y-100119068D02*
X110096777Y-100157773D01*
X110096777Y-100157773D02*
X110058072Y-100235182D01*
X110058072Y-100235182D02*
X110019367Y-100390001D01*
X110019367Y-100390001D02*
X110019367Y-100583525D01*
X110019367Y-100583525D02*
X110058072Y-100738344D01*
X110058072Y-100738344D02*
X110096777Y-100815754D01*
X110096777Y-100815754D02*
X110135482Y-100854459D01*
X110135482Y-100854459D02*
X110212891Y-100893163D01*
X110212891Y-100893163D02*
X110290301Y-100893163D01*
X110290301Y-100893163D02*
X110367710Y-100854459D01*
X110367710Y-100854459D02*
X110406415Y-100815754D01*
X110406415Y-100815754D02*
X110445120Y-100738344D01*
X110445120Y-100738344D02*
X110483824Y-100583525D01*
X110483824Y-100583525D02*
X110483824Y-100390001D01*
X110483824Y-100390001D02*
X110445120Y-100235182D01*
X110445120Y-100235182D02*
X110406415Y-100157773D01*
X110406415Y-100157773D02*
X110367710Y-100119068D01*
X110367710Y-100119068D02*
X110290301Y-100080363D01*
X109671025Y-100583525D02*
X109051749Y-100583525D01*
X108238948Y-100893163D02*
X108703405Y-100893163D01*
X108471177Y-100893163D02*
X108471177Y-100080363D01*
X108471177Y-100080363D02*
X108548586Y-100196478D01*
X108548586Y-100196478D02*
X108625996Y-100273887D01*
X108625996Y-100273887D02*
X108703405Y-100312592D01*
X107968015Y-101202801D02*
X107929310Y-101164097D01*
X107929310Y-101164097D02*
X107851901Y-101047982D01*
X107851901Y-101047982D02*
X107813196Y-100970573D01*
X107813196Y-100970573D02*
X107774491Y-100854459D01*
X107774491Y-100854459D02*
X107735787Y-100660935D01*
X107735787Y-100660935D02*
X107735787Y-100506116D01*
X107735787Y-100506116D02*
X107774491Y-100312592D01*
X107774491Y-100312592D02*
X107813196Y-100196478D01*
X107813196Y-100196478D02*
X107851901Y-100119068D01*
X107851901Y-100119068D02*
X107929310Y-100002954D01*
X107929310Y-100002954D02*
X107968015Y-99964249D01*
X118108661Y-102201771D02*
X118108661Y-101388971D01*
X118108661Y-101388971D02*
X117915137Y-101388971D01*
X117915137Y-101388971D02*
X117799023Y-101427676D01*
X117799023Y-101427676D02*
X117721613Y-101505086D01*
X117721613Y-101505086D02*
X117682908Y-101582495D01*
X117682908Y-101582495D02*
X117644204Y-101737314D01*
X117644204Y-101737314D02*
X117644204Y-101853428D01*
X117644204Y-101853428D02*
X117682908Y-102008247D01*
X117682908Y-102008247D02*
X117721613Y-102085657D01*
X117721613Y-102085657D02*
X117799023Y-102163067D01*
X117799023Y-102163067D02*
X117915137Y-102201771D01*
X117915137Y-102201771D02*
X118108661Y-102201771D01*
X116947518Y-102201771D02*
X116947518Y-101776019D01*
X116947518Y-101776019D02*
X116986223Y-101698609D01*
X116986223Y-101698609D02*
X117063632Y-101659905D01*
X117063632Y-101659905D02*
X117218451Y-101659905D01*
X117218451Y-101659905D02*
X117295861Y-101698609D01*
X116947518Y-102163067D02*
X117024927Y-102201771D01*
X117024927Y-102201771D02*
X117218451Y-102201771D01*
X117218451Y-102201771D02*
X117295861Y-102163067D01*
X117295861Y-102163067D02*
X117334565Y-102085657D01*
X117334565Y-102085657D02*
X117334565Y-102008247D01*
X117334565Y-102008247D02*
X117295861Y-101930838D01*
X117295861Y-101930838D02*
X117218451Y-101892133D01*
X117218451Y-101892133D02*
X117024927Y-101892133D01*
X117024927Y-101892133D02*
X116947518Y-101853428D01*
X116676585Y-101659905D02*
X116366947Y-101659905D01*
X116560471Y-101388971D02*
X116560471Y-102085657D01*
X116560471Y-102085657D02*
X116521766Y-102163067D01*
X116521766Y-102163067D02*
X116444356Y-102201771D01*
X116444356Y-102201771D02*
X116366947Y-102201771D01*
X115747671Y-102201771D02*
X115747671Y-101776019D01*
X115747671Y-101776019D02*
X115786376Y-101698609D01*
X115786376Y-101698609D02*
X115863785Y-101659905D01*
X115863785Y-101659905D02*
X116018604Y-101659905D01*
X116018604Y-101659905D02*
X116096014Y-101698609D01*
X115747671Y-102163067D02*
X115825080Y-102201771D01*
X115825080Y-102201771D02*
X116018604Y-102201771D01*
X116018604Y-102201771D02*
X116096014Y-102163067D01*
X116096014Y-102163067D02*
X116134718Y-102085657D01*
X116134718Y-102085657D02*
X116134718Y-102008247D01*
X116134718Y-102008247D02*
X116096014Y-101930838D01*
X116096014Y-101930838D02*
X116018604Y-101892133D01*
X116018604Y-101892133D02*
X115825080Y-101892133D01*
X115825080Y-101892133D02*
X115747671Y-101853428D01*
X114470414Y-101776019D02*
X114354300Y-101814724D01*
X114354300Y-101814724D02*
X114315595Y-101853428D01*
X114315595Y-101853428D02*
X114276891Y-101930838D01*
X114276891Y-101930838D02*
X114276891Y-102046952D01*
X114276891Y-102046952D02*
X114315595Y-102124362D01*
X114315595Y-102124362D02*
X114354300Y-102163067D01*
X114354300Y-102163067D02*
X114431710Y-102201771D01*
X114431710Y-102201771D02*
X114741348Y-102201771D01*
X114741348Y-102201771D02*
X114741348Y-101388971D01*
X114741348Y-101388971D02*
X114470414Y-101388971D01*
X114470414Y-101388971D02*
X114393005Y-101427676D01*
X114393005Y-101427676D02*
X114354300Y-101466381D01*
X114354300Y-101466381D02*
X114315595Y-101543790D01*
X114315595Y-101543790D02*
X114315595Y-101621200D01*
X114315595Y-101621200D02*
X114354300Y-101698609D01*
X114354300Y-101698609D02*
X114393005Y-101737314D01*
X114393005Y-101737314D02*
X114470414Y-101776019D01*
X114470414Y-101776019D02*
X114741348Y-101776019D01*
X113580205Y-101659905D02*
X113580205Y-102201771D01*
X113928548Y-101659905D02*
X113928548Y-102085657D01*
X113928548Y-102085657D02*
X113889843Y-102163067D01*
X113889843Y-102163067D02*
X113812433Y-102201771D01*
X113812433Y-102201771D02*
X113696319Y-102201771D01*
X113696319Y-102201771D02*
X113618910Y-102163067D01*
X113618910Y-102163067D02*
X113580205Y-102124362D01*
X113231862Y-102163067D02*
X113154453Y-102201771D01*
X113154453Y-102201771D02*
X112999634Y-102201771D01*
X112999634Y-102201771D02*
X112922224Y-102163067D01*
X112922224Y-102163067D02*
X112883520Y-102085657D01*
X112883520Y-102085657D02*
X112883520Y-102046952D01*
X112883520Y-102046952D02*
X112922224Y-101969543D01*
X112922224Y-101969543D02*
X112999634Y-101930838D01*
X112999634Y-101930838D02*
X113115748Y-101930838D01*
X113115748Y-101930838D02*
X113193158Y-101892133D01*
X113193158Y-101892133D02*
X113231862Y-101814724D01*
X113231862Y-101814724D02*
X113231862Y-101776019D01*
X113231862Y-101776019D02*
X113193158Y-101698609D01*
X113193158Y-101698609D02*
X113115748Y-101659905D01*
X113115748Y-101659905D02*
X112999634Y-101659905D01*
X112999634Y-101659905D02*
X112922224Y-101698609D01*
X112535177Y-102124362D02*
X112496472Y-102163067D01*
X112496472Y-102163067D02*
X112535177Y-102201771D01*
X112535177Y-102201771D02*
X112573881Y-102163067D01*
X112573881Y-102163067D02*
X112535177Y-102124362D01*
X112535177Y-102124362D02*
X112535177Y-102201771D01*
X112535177Y-101698609D02*
X112496472Y-101737314D01*
X112496472Y-101737314D02*
X112535177Y-101776019D01*
X112535177Y-101776019D02*
X112573881Y-101737314D01*
X112573881Y-101737314D02*
X112535177Y-101698609D01*
X112535177Y-101698609D02*
X112535177Y-101776019D01*
X111103100Y-101427676D02*
X111180510Y-101388971D01*
X111180510Y-101388971D02*
X111296624Y-101388971D01*
X111296624Y-101388971D02*
X111412738Y-101427676D01*
X111412738Y-101427676D02*
X111490148Y-101505086D01*
X111490148Y-101505086D02*
X111528853Y-101582495D01*
X111528853Y-101582495D02*
X111567557Y-101737314D01*
X111567557Y-101737314D02*
X111567557Y-101853428D01*
X111567557Y-101853428D02*
X111528853Y-102008247D01*
X111528853Y-102008247D02*
X111490148Y-102085657D01*
X111490148Y-102085657D02*
X111412738Y-102163067D01*
X111412738Y-102163067D02*
X111296624Y-102201771D01*
X111296624Y-102201771D02*
X111219215Y-102201771D01*
X111219215Y-102201771D02*
X111103100Y-102163067D01*
X111103100Y-102163067D02*
X111064396Y-102124362D01*
X111064396Y-102124362D02*
X111064396Y-101853428D01*
X111064396Y-101853428D02*
X111219215Y-101853428D01*
X110716053Y-102201771D02*
X110716053Y-101388971D01*
X110716053Y-101388971D02*
X110406415Y-101388971D01*
X110406415Y-101388971D02*
X110329005Y-101427676D01*
X110329005Y-101427676D02*
X110290300Y-101466381D01*
X110290300Y-101466381D02*
X110251596Y-101543790D01*
X110251596Y-101543790D02*
X110251596Y-101659905D01*
X110251596Y-101659905D02*
X110290300Y-101737314D01*
X110290300Y-101737314D02*
X110329005Y-101776019D01*
X110329005Y-101776019D02*
X110406415Y-101814724D01*
X110406415Y-101814724D02*
X110716053Y-101814724D01*
X109941957Y-101466381D02*
X109903253Y-101427676D01*
X109903253Y-101427676D02*
X109825843Y-101388971D01*
X109825843Y-101388971D02*
X109632319Y-101388971D01*
X109632319Y-101388971D02*
X109554910Y-101427676D01*
X109554910Y-101427676D02*
X109516205Y-101466381D01*
X109516205Y-101466381D02*
X109477500Y-101543790D01*
X109477500Y-101543790D02*
X109477500Y-101621200D01*
X109477500Y-101621200D02*
X109516205Y-101737314D01*
X109516205Y-101737314D02*
X109980662Y-102201771D01*
X109980662Y-102201771D02*
X109477500Y-102201771D01*
X109129158Y-101892133D02*
X108509882Y-101892133D01*
X108084129Y-102201771D02*
X107929310Y-102201771D01*
X107929310Y-102201771D02*
X107851900Y-102163067D01*
X107851900Y-102163067D02*
X107813196Y-102124362D01*
X107813196Y-102124362D02*
X107735786Y-102008247D01*
X107735786Y-102008247D02*
X107697081Y-101853428D01*
X107697081Y-101853428D02*
X107697081Y-101543790D01*
X107697081Y-101543790D02*
X107735786Y-101466381D01*
X107735786Y-101466381D02*
X107774491Y-101427676D01*
X107774491Y-101427676D02*
X107851900Y-101388971D01*
X107851900Y-101388971D02*
X108006719Y-101388971D01*
X108006719Y-101388971D02*
X108084129Y-101427676D01*
X108084129Y-101427676D02*
X108122834Y-101466381D01*
X108122834Y-101466381D02*
X108161538Y-101543790D01*
X108161538Y-101543790D02*
X108161538Y-101737314D01*
X108161538Y-101737314D02*
X108122834Y-101814724D01*
X108122834Y-101814724D02*
X108084129Y-101853428D01*
X108084129Y-101853428D02*
X108006719Y-101892133D01*
X108006719Y-101892133D02*
X107851900Y-101892133D01*
X107851900Y-101892133D02*
X107774491Y-101853428D01*
X107774491Y-101853428D02*
X107735786Y-101814724D01*
X107735786Y-101814724D02*
X107697081Y-101737314D01*
X119618146Y-103278151D02*
X119231099Y-103278151D01*
X119695556Y-103510379D02*
X119424623Y-102697579D01*
X119424623Y-102697579D02*
X119153689Y-103510379D01*
X118534413Y-103510379D02*
X118534413Y-102697579D01*
X118534413Y-103471675D02*
X118611822Y-103510379D01*
X118611822Y-103510379D02*
X118766641Y-103510379D01*
X118766641Y-103510379D02*
X118844051Y-103471675D01*
X118844051Y-103471675D02*
X118882756Y-103432970D01*
X118882756Y-103432970D02*
X118921460Y-103355560D01*
X118921460Y-103355560D02*
X118921460Y-103123332D01*
X118921460Y-103123332D02*
X118882756Y-103045922D01*
X118882756Y-103045922D02*
X118844051Y-103007217D01*
X118844051Y-103007217D02*
X118766641Y-102968513D01*
X118766641Y-102968513D02*
X118611822Y-102968513D01*
X118611822Y-102968513D02*
X118534413Y-103007217D01*
X117799023Y-103510379D02*
X117799023Y-102697579D01*
X117799023Y-103471675D02*
X117876432Y-103510379D01*
X117876432Y-103510379D02*
X118031251Y-103510379D01*
X118031251Y-103510379D02*
X118108661Y-103471675D01*
X118108661Y-103471675D02*
X118147366Y-103432970D01*
X118147366Y-103432970D02*
X118186070Y-103355560D01*
X118186070Y-103355560D02*
X118186070Y-103123332D01*
X118186070Y-103123332D02*
X118147366Y-103045922D01*
X118147366Y-103045922D02*
X118108661Y-103007217D01*
X118108661Y-103007217D02*
X118031251Y-102968513D01*
X118031251Y-102968513D02*
X117876432Y-102968513D01*
X117876432Y-102968513D02*
X117799023Y-103007217D01*
X117411976Y-103510379D02*
X117411976Y-102968513D01*
X117411976Y-103123332D02*
X117373271Y-103045922D01*
X117373271Y-103045922D02*
X117334566Y-103007217D01*
X117334566Y-103007217D02*
X117257157Y-102968513D01*
X117257157Y-102968513D02*
X117179747Y-102968513D01*
X116018604Y-103084627D02*
X115902490Y-103123332D01*
X115902490Y-103123332D02*
X115863785Y-103162036D01*
X115863785Y-103162036D02*
X115825081Y-103239446D01*
X115825081Y-103239446D02*
X115825081Y-103355560D01*
X115825081Y-103355560D02*
X115863785Y-103432970D01*
X115863785Y-103432970D02*
X115902490Y-103471675D01*
X115902490Y-103471675D02*
X115979900Y-103510379D01*
X115979900Y-103510379D02*
X116289538Y-103510379D01*
X116289538Y-103510379D02*
X116289538Y-102697579D01*
X116289538Y-102697579D02*
X116018604Y-102697579D01*
X116018604Y-102697579D02*
X115941195Y-102736284D01*
X115941195Y-102736284D02*
X115902490Y-102774989D01*
X115902490Y-102774989D02*
X115863785Y-102852398D01*
X115863785Y-102852398D02*
X115863785Y-102929808D01*
X115863785Y-102929808D02*
X115902490Y-103007217D01*
X115902490Y-103007217D02*
X115941195Y-103045922D01*
X115941195Y-103045922D02*
X116018604Y-103084627D01*
X116018604Y-103084627D02*
X116289538Y-103084627D01*
X115128395Y-102968513D02*
X115128395Y-103510379D01*
X115476738Y-102968513D02*
X115476738Y-103394265D01*
X115476738Y-103394265D02*
X115438033Y-103471675D01*
X115438033Y-103471675D02*
X115360623Y-103510379D01*
X115360623Y-103510379D02*
X115244509Y-103510379D01*
X115244509Y-103510379D02*
X115167100Y-103471675D01*
X115167100Y-103471675D02*
X115128395Y-103432970D01*
X114780052Y-103471675D02*
X114702643Y-103510379D01*
X114702643Y-103510379D02*
X114547824Y-103510379D01*
X114547824Y-103510379D02*
X114470414Y-103471675D01*
X114470414Y-103471675D02*
X114431710Y-103394265D01*
X114431710Y-103394265D02*
X114431710Y-103355560D01*
X114431710Y-103355560D02*
X114470414Y-103278151D01*
X114470414Y-103278151D02*
X114547824Y-103239446D01*
X114547824Y-103239446D02*
X114663938Y-103239446D01*
X114663938Y-103239446D02*
X114741348Y-103200741D01*
X114741348Y-103200741D02*
X114780052Y-103123332D01*
X114780052Y-103123332D02*
X114780052Y-103084627D01*
X114780052Y-103084627D02*
X114741348Y-103007217D01*
X114741348Y-103007217D02*
X114663938Y-102968513D01*
X114663938Y-102968513D02*
X114547824Y-102968513D01*
X114547824Y-102968513D02*
X114470414Y-103007217D01*
X114083367Y-103432970D02*
X114044662Y-103471675D01*
X114044662Y-103471675D02*
X114083367Y-103510379D01*
X114083367Y-103510379D02*
X114122071Y-103471675D01*
X114122071Y-103471675D02*
X114083367Y-103432970D01*
X114083367Y-103432970D02*
X114083367Y-103510379D01*
X114083367Y-103007217D02*
X114044662Y-103045922D01*
X114044662Y-103045922D02*
X114083367Y-103084627D01*
X114083367Y-103084627D02*
X114122071Y-103045922D01*
X114122071Y-103045922D02*
X114083367Y-103007217D01*
X114083367Y-103007217D02*
X114083367Y-103084627D01*
X112651290Y-102736284D02*
X112728700Y-102697579D01*
X112728700Y-102697579D02*
X112844814Y-102697579D01*
X112844814Y-102697579D02*
X112960928Y-102736284D01*
X112960928Y-102736284D02*
X113038338Y-102813694D01*
X113038338Y-102813694D02*
X113077043Y-102891103D01*
X113077043Y-102891103D02*
X113115747Y-103045922D01*
X113115747Y-103045922D02*
X113115747Y-103162036D01*
X113115747Y-103162036D02*
X113077043Y-103316855D01*
X113077043Y-103316855D02*
X113038338Y-103394265D01*
X113038338Y-103394265D02*
X112960928Y-103471675D01*
X112960928Y-103471675D02*
X112844814Y-103510379D01*
X112844814Y-103510379D02*
X112767405Y-103510379D01*
X112767405Y-103510379D02*
X112651290Y-103471675D01*
X112651290Y-103471675D02*
X112612586Y-103432970D01*
X112612586Y-103432970D02*
X112612586Y-103162036D01*
X112612586Y-103162036D02*
X112767405Y-103162036D01*
X112264243Y-103510379D02*
X112264243Y-102697579D01*
X112264243Y-102697579D02*
X111954605Y-102697579D01*
X111954605Y-102697579D02*
X111877195Y-102736284D01*
X111877195Y-102736284D02*
X111838490Y-102774989D01*
X111838490Y-102774989D02*
X111799786Y-102852398D01*
X111799786Y-102852398D02*
X111799786Y-102968513D01*
X111799786Y-102968513D02*
X111838490Y-103045922D01*
X111838490Y-103045922D02*
X111877195Y-103084627D01*
X111877195Y-103084627D02*
X111954605Y-103123332D01*
X111954605Y-103123332D02*
X112264243Y-103123332D01*
X111025690Y-103510379D02*
X111490147Y-103510379D01*
X111257919Y-103510379D02*
X111257919Y-102697579D01*
X111257919Y-102697579D02*
X111335328Y-102813694D01*
X111335328Y-102813694D02*
X111412738Y-102891103D01*
X111412738Y-102891103D02*
X111490147Y-102929808D01*
X110522529Y-102697579D02*
X110445119Y-102697579D01*
X110445119Y-102697579D02*
X110367710Y-102736284D01*
X110367710Y-102736284D02*
X110329005Y-102774989D01*
X110329005Y-102774989D02*
X110290300Y-102852398D01*
X110290300Y-102852398D02*
X110251595Y-103007217D01*
X110251595Y-103007217D02*
X110251595Y-103200741D01*
X110251595Y-103200741D02*
X110290300Y-103355560D01*
X110290300Y-103355560D02*
X110329005Y-103432970D01*
X110329005Y-103432970D02*
X110367710Y-103471675D01*
X110367710Y-103471675D02*
X110445119Y-103510379D01*
X110445119Y-103510379D02*
X110522529Y-103510379D01*
X110522529Y-103510379D02*
X110599938Y-103471675D01*
X110599938Y-103471675D02*
X110638643Y-103432970D01*
X110638643Y-103432970D02*
X110677348Y-103355560D01*
X110677348Y-103355560D02*
X110716052Y-103200741D01*
X110716052Y-103200741D02*
X110716052Y-103007217D01*
X110716052Y-103007217D02*
X110677348Y-102852398D01*
X110677348Y-102852398D02*
X110638643Y-102774989D01*
X110638643Y-102774989D02*
X110599938Y-102736284D01*
X110599938Y-102736284D02*
X110522529Y-102697579D01*
X109903253Y-103200741D02*
X109283977Y-103200741D01*
X108471176Y-103510379D02*
X108935633Y-103510379D01*
X108703405Y-103510379D02*
X108703405Y-102697579D01*
X108703405Y-102697579D02*
X108780814Y-102813694D01*
X108780814Y-102813694D02*
X108858224Y-102891103D01*
X108858224Y-102891103D02*
X108935633Y-102929808D01*
X108200243Y-102697579D02*
X107658377Y-102697579D01*
X107658377Y-102697579D02*
X108006719Y-103510379D01*
X117682908Y-104393235D02*
X117566794Y-104431940D01*
X117566794Y-104431940D02*
X117528089Y-104470644D01*
X117528089Y-104470644D02*
X117489385Y-104548054D01*
X117489385Y-104548054D02*
X117489385Y-104664168D01*
X117489385Y-104664168D02*
X117528089Y-104741578D01*
X117528089Y-104741578D02*
X117566794Y-104780283D01*
X117566794Y-104780283D02*
X117644204Y-104818987D01*
X117644204Y-104818987D02*
X117953842Y-104818987D01*
X117953842Y-104818987D02*
X117953842Y-104006187D01*
X117953842Y-104006187D02*
X117682908Y-104006187D01*
X117682908Y-104006187D02*
X117605499Y-104044892D01*
X117605499Y-104044892D02*
X117566794Y-104083597D01*
X117566794Y-104083597D02*
X117528089Y-104161006D01*
X117528089Y-104161006D02*
X117528089Y-104238416D01*
X117528089Y-104238416D02*
X117566794Y-104315825D01*
X117566794Y-104315825D02*
X117605499Y-104354530D01*
X117605499Y-104354530D02*
X117682908Y-104393235D01*
X117682908Y-104393235D02*
X117953842Y-104393235D01*
X116792699Y-104277121D02*
X116792699Y-104818987D01*
X117141042Y-104277121D02*
X117141042Y-104702873D01*
X117141042Y-104702873D02*
X117102337Y-104780283D01*
X117102337Y-104780283D02*
X117024927Y-104818987D01*
X117024927Y-104818987D02*
X116908813Y-104818987D01*
X116908813Y-104818987D02*
X116831404Y-104780283D01*
X116831404Y-104780283D02*
X116792699Y-104741578D01*
X116444356Y-104780283D02*
X116366947Y-104818987D01*
X116366947Y-104818987D02*
X116212128Y-104818987D01*
X116212128Y-104818987D02*
X116134718Y-104780283D01*
X116134718Y-104780283D02*
X116096014Y-104702873D01*
X116096014Y-104702873D02*
X116096014Y-104664168D01*
X116096014Y-104664168D02*
X116134718Y-104586759D01*
X116134718Y-104586759D02*
X116212128Y-104548054D01*
X116212128Y-104548054D02*
X116328242Y-104548054D01*
X116328242Y-104548054D02*
X116405652Y-104509349D01*
X116405652Y-104509349D02*
X116444356Y-104431940D01*
X116444356Y-104431940D02*
X116444356Y-104393235D01*
X116444356Y-104393235D02*
X116405652Y-104315825D01*
X116405652Y-104315825D02*
X116328242Y-104277121D01*
X116328242Y-104277121D02*
X116212128Y-104277121D01*
X116212128Y-104277121D02*
X116134718Y-104315825D01*
X114663938Y-104818987D02*
X114934871Y-104431940D01*
X115128395Y-104818987D02*
X115128395Y-104006187D01*
X115128395Y-104006187D02*
X114818757Y-104006187D01*
X114818757Y-104006187D02*
X114741347Y-104044892D01*
X114741347Y-104044892D02*
X114702642Y-104083597D01*
X114702642Y-104083597D02*
X114663938Y-104161006D01*
X114663938Y-104161006D02*
X114663938Y-104277121D01*
X114663938Y-104277121D02*
X114702642Y-104354530D01*
X114702642Y-104354530D02*
X114741347Y-104393235D01*
X114741347Y-104393235D02*
X114818757Y-104431940D01*
X114818757Y-104431940D02*
X115128395Y-104431940D01*
X114005957Y-104780283D02*
X114083366Y-104818987D01*
X114083366Y-104818987D02*
X114238185Y-104818987D01*
X114238185Y-104818987D02*
X114315595Y-104780283D01*
X114315595Y-104780283D02*
X114354299Y-104702873D01*
X114354299Y-104702873D02*
X114354299Y-104393235D01*
X114354299Y-104393235D02*
X114315595Y-104315825D01*
X114315595Y-104315825D02*
X114238185Y-104277121D01*
X114238185Y-104277121D02*
X114083366Y-104277121D01*
X114083366Y-104277121D02*
X114005957Y-104315825D01*
X114005957Y-104315825D02*
X113967252Y-104393235D01*
X113967252Y-104393235D02*
X113967252Y-104470644D01*
X113967252Y-104470644D02*
X114354299Y-104548054D01*
X113270566Y-104818987D02*
X113270566Y-104393235D01*
X113270566Y-104393235D02*
X113309271Y-104315825D01*
X113309271Y-104315825D02*
X113386680Y-104277121D01*
X113386680Y-104277121D02*
X113541499Y-104277121D01*
X113541499Y-104277121D02*
X113618909Y-104315825D01*
X113270566Y-104780283D02*
X113347975Y-104818987D01*
X113347975Y-104818987D02*
X113541499Y-104818987D01*
X113541499Y-104818987D02*
X113618909Y-104780283D01*
X113618909Y-104780283D02*
X113657613Y-104702873D01*
X113657613Y-104702873D02*
X113657613Y-104625463D01*
X113657613Y-104625463D02*
X113618909Y-104548054D01*
X113618909Y-104548054D02*
X113541499Y-104509349D01*
X113541499Y-104509349D02*
X113347975Y-104509349D01*
X113347975Y-104509349D02*
X113270566Y-104470644D01*
X112535176Y-104818987D02*
X112535176Y-104006187D01*
X112535176Y-104780283D02*
X112612585Y-104818987D01*
X112612585Y-104818987D02*
X112767404Y-104818987D01*
X112767404Y-104818987D02*
X112844814Y-104780283D01*
X112844814Y-104780283D02*
X112883519Y-104741578D01*
X112883519Y-104741578D02*
X112922223Y-104664168D01*
X112922223Y-104664168D02*
X112922223Y-104431940D01*
X112922223Y-104431940D02*
X112883519Y-104354530D01*
X112883519Y-104354530D02*
X112844814Y-104315825D01*
X112844814Y-104315825D02*
X112767404Y-104277121D01*
X112767404Y-104277121D02*
X112612585Y-104277121D01*
X112612585Y-104277121D02*
X112535176Y-104315825D01*
X112225538Y-104277121D02*
X112032014Y-104818987D01*
X111838491Y-104277121D02*
X112032014Y-104818987D01*
X112032014Y-104818987D02*
X112109424Y-105012511D01*
X112109424Y-105012511D02*
X112148129Y-105051216D01*
X112148129Y-105051216D02*
X112225538Y-105089921D01*
X111528853Y-104741578D02*
X111490148Y-104780283D01*
X111490148Y-104780283D02*
X111528853Y-104818987D01*
X111528853Y-104818987D02*
X111567557Y-104780283D01*
X111567557Y-104780283D02*
X111528853Y-104741578D01*
X111528853Y-104741578D02*
X111528853Y-104818987D01*
X111528853Y-104315825D02*
X111490148Y-104354530D01*
X111490148Y-104354530D02*
X111528853Y-104393235D01*
X111528853Y-104393235D02*
X111567557Y-104354530D01*
X111567557Y-104354530D02*
X111528853Y-104315825D01*
X111528853Y-104315825D02*
X111528853Y-104393235D01*
X110096776Y-104044892D02*
X110174186Y-104006187D01*
X110174186Y-104006187D02*
X110290300Y-104006187D01*
X110290300Y-104006187D02*
X110406414Y-104044892D01*
X110406414Y-104044892D02*
X110483824Y-104122302D01*
X110483824Y-104122302D02*
X110522529Y-104199711D01*
X110522529Y-104199711D02*
X110561233Y-104354530D01*
X110561233Y-104354530D02*
X110561233Y-104470644D01*
X110561233Y-104470644D02*
X110522529Y-104625463D01*
X110522529Y-104625463D02*
X110483824Y-104702873D01*
X110483824Y-104702873D02*
X110406414Y-104780283D01*
X110406414Y-104780283D02*
X110290300Y-104818987D01*
X110290300Y-104818987D02*
X110212891Y-104818987D01*
X110212891Y-104818987D02*
X110096776Y-104780283D01*
X110096776Y-104780283D02*
X110058072Y-104741578D01*
X110058072Y-104741578D02*
X110058072Y-104470644D01*
X110058072Y-104470644D02*
X110212891Y-104470644D01*
X109709729Y-104818987D02*
X109709729Y-104006187D01*
X109709729Y-104006187D02*
X109400091Y-104006187D01*
X109400091Y-104006187D02*
X109322681Y-104044892D01*
X109322681Y-104044892D02*
X109283976Y-104083597D01*
X109283976Y-104083597D02*
X109245272Y-104161006D01*
X109245272Y-104161006D02*
X109245272Y-104277121D01*
X109245272Y-104277121D02*
X109283976Y-104354530D01*
X109283976Y-104354530D02*
X109322681Y-104393235D01*
X109322681Y-104393235D02*
X109400091Y-104431940D01*
X109400091Y-104431940D02*
X109709729Y-104431940D01*
X108471176Y-104818987D02*
X108935633Y-104818987D01*
X108703405Y-104818987D02*
X108703405Y-104006187D01*
X108703405Y-104006187D02*
X108780814Y-104122302D01*
X108780814Y-104122302D02*
X108858224Y-104199711D01*
X108858224Y-104199711D02*
X108935633Y-104238416D01*
X108006719Y-104354530D02*
X108084129Y-104315825D01*
X108084129Y-104315825D02*
X108122834Y-104277121D01*
X108122834Y-104277121D02*
X108161538Y-104199711D01*
X108161538Y-104199711D02*
X108161538Y-104161006D01*
X108161538Y-104161006D02*
X108122834Y-104083597D01*
X108122834Y-104083597D02*
X108084129Y-104044892D01*
X108084129Y-104044892D02*
X108006719Y-104006187D01*
X108006719Y-104006187D02*
X107851900Y-104006187D01*
X107851900Y-104006187D02*
X107774491Y-104044892D01*
X107774491Y-104044892D02*
X107735786Y-104083597D01*
X107735786Y-104083597D02*
X107697081Y-104161006D01*
X107697081Y-104161006D02*
X107697081Y-104199711D01*
X107697081Y-104199711D02*
X107735786Y-104277121D01*
X107735786Y-104277121D02*
X107774491Y-104315825D01*
X107774491Y-104315825D02*
X107851900Y-104354530D01*
X107851900Y-104354530D02*
X108006719Y-104354530D01*
X108006719Y-104354530D02*
X108084129Y-104393235D01*
X108084129Y-104393235D02*
X108122834Y-104431940D01*
X108122834Y-104431940D02*
X108161538Y-104509349D01*
X108161538Y-104509349D02*
X108161538Y-104664168D01*
X108161538Y-104664168D02*
X108122834Y-104741578D01*
X108122834Y-104741578D02*
X108084129Y-104780283D01*
X108084129Y-104780283D02*
X108006719Y-104818987D01*
X108006719Y-104818987D02*
X107851900Y-104818987D01*
X107851900Y-104818987D02*
X107774491Y-104780283D01*
X107774491Y-104780283D02*
X107735786Y-104741578D01*
X107735786Y-104741578D02*
X107697081Y-104664168D01*
X107697081Y-104664168D02*
X107697081Y-104509349D01*
X107697081Y-104509349D02*
X107735786Y-104431940D01*
X107735786Y-104431940D02*
X107774491Y-104393235D01*
X107774491Y-104393235D02*
X107851900Y-104354530D01*
X117450680Y-105895367D02*
X117063633Y-105895367D01*
X117528090Y-106127595D02*
X117257157Y-105314795D01*
X117257157Y-105314795D02*
X116986223Y-106127595D01*
X116366947Y-106127595D02*
X116366947Y-105314795D01*
X116366947Y-106088891D02*
X116444356Y-106127595D01*
X116444356Y-106127595D02*
X116599175Y-106127595D01*
X116599175Y-106127595D02*
X116676585Y-106088891D01*
X116676585Y-106088891D02*
X116715290Y-106050186D01*
X116715290Y-106050186D02*
X116753994Y-105972776D01*
X116753994Y-105972776D02*
X116753994Y-105740548D01*
X116753994Y-105740548D02*
X116715290Y-105663138D01*
X116715290Y-105663138D02*
X116676585Y-105624433D01*
X116676585Y-105624433D02*
X116599175Y-105585729D01*
X116599175Y-105585729D02*
X116444356Y-105585729D01*
X116444356Y-105585729D02*
X116366947Y-105624433D01*
X115631557Y-106127595D02*
X115631557Y-105314795D01*
X115631557Y-106088891D02*
X115708966Y-106127595D01*
X115708966Y-106127595D02*
X115863785Y-106127595D01*
X115863785Y-106127595D02*
X115941195Y-106088891D01*
X115941195Y-106088891D02*
X115979900Y-106050186D01*
X115979900Y-106050186D02*
X116018604Y-105972776D01*
X116018604Y-105972776D02*
X116018604Y-105740548D01*
X116018604Y-105740548D02*
X115979900Y-105663138D01*
X115979900Y-105663138D02*
X115941195Y-105624433D01*
X115941195Y-105624433D02*
X115863785Y-105585729D01*
X115863785Y-105585729D02*
X115708966Y-105585729D01*
X115708966Y-105585729D02*
X115631557Y-105624433D01*
X115244510Y-106127595D02*
X115244510Y-105585729D01*
X115244510Y-105740548D02*
X115205805Y-105663138D01*
X115205805Y-105663138D02*
X115167100Y-105624433D01*
X115167100Y-105624433D02*
X115089691Y-105585729D01*
X115089691Y-105585729D02*
X115012281Y-105585729D01*
X113851138Y-105701843D02*
X113735024Y-105740548D01*
X113735024Y-105740548D02*
X113696319Y-105779252D01*
X113696319Y-105779252D02*
X113657615Y-105856662D01*
X113657615Y-105856662D02*
X113657615Y-105972776D01*
X113657615Y-105972776D02*
X113696319Y-106050186D01*
X113696319Y-106050186D02*
X113735024Y-106088891D01*
X113735024Y-106088891D02*
X113812434Y-106127595D01*
X113812434Y-106127595D02*
X114122072Y-106127595D01*
X114122072Y-106127595D02*
X114122072Y-105314795D01*
X114122072Y-105314795D02*
X113851138Y-105314795D01*
X113851138Y-105314795D02*
X113773729Y-105353500D01*
X113773729Y-105353500D02*
X113735024Y-105392205D01*
X113735024Y-105392205D02*
X113696319Y-105469614D01*
X113696319Y-105469614D02*
X113696319Y-105547024D01*
X113696319Y-105547024D02*
X113735024Y-105624433D01*
X113735024Y-105624433D02*
X113773729Y-105663138D01*
X113773729Y-105663138D02*
X113851138Y-105701843D01*
X113851138Y-105701843D02*
X114122072Y-105701843D01*
X113386681Y-105585729D02*
X113193157Y-106127595D01*
X112999634Y-105585729D02*
X113193157Y-106127595D01*
X113193157Y-106127595D02*
X113270567Y-106321119D01*
X113270567Y-106321119D02*
X113309272Y-106359824D01*
X113309272Y-106359824D02*
X113386681Y-106398529D01*
X112806110Y-105585729D02*
X112496472Y-105585729D01*
X112689996Y-105314795D02*
X112689996Y-106011481D01*
X112689996Y-106011481D02*
X112651291Y-106088891D01*
X112651291Y-106088891D02*
X112573881Y-106127595D01*
X112573881Y-106127595D02*
X112496472Y-106127595D01*
X111915901Y-106088891D02*
X111993310Y-106127595D01*
X111993310Y-106127595D02*
X112148129Y-106127595D01*
X112148129Y-106127595D02*
X112225539Y-106088891D01*
X112225539Y-106088891D02*
X112264243Y-106011481D01*
X112264243Y-106011481D02*
X112264243Y-105701843D01*
X112264243Y-105701843D02*
X112225539Y-105624433D01*
X112225539Y-105624433D02*
X112148129Y-105585729D01*
X112148129Y-105585729D02*
X111993310Y-105585729D01*
X111993310Y-105585729D02*
X111915901Y-105624433D01*
X111915901Y-105624433D02*
X111877196Y-105701843D01*
X111877196Y-105701843D02*
X111877196Y-105779252D01*
X111877196Y-105779252D02*
X112264243Y-105856662D01*
X111528853Y-106050186D02*
X111490148Y-106088891D01*
X111490148Y-106088891D02*
X111528853Y-106127595D01*
X111528853Y-106127595D02*
X111567557Y-106088891D01*
X111567557Y-106088891D02*
X111528853Y-106050186D01*
X111528853Y-106050186D02*
X111528853Y-106127595D01*
X111528853Y-105624433D02*
X111490148Y-105663138D01*
X111490148Y-105663138D02*
X111528853Y-105701843D01*
X111528853Y-105701843D02*
X111567557Y-105663138D01*
X111567557Y-105663138D02*
X111528853Y-105624433D01*
X111528853Y-105624433D02*
X111528853Y-105701843D01*
X110096776Y-105353500D02*
X110174186Y-105314795D01*
X110174186Y-105314795D02*
X110290300Y-105314795D01*
X110290300Y-105314795D02*
X110406414Y-105353500D01*
X110406414Y-105353500D02*
X110483824Y-105430910D01*
X110483824Y-105430910D02*
X110522529Y-105508319D01*
X110522529Y-105508319D02*
X110561233Y-105663138D01*
X110561233Y-105663138D02*
X110561233Y-105779252D01*
X110561233Y-105779252D02*
X110522529Y-105934071D01*
X110522529Y-105934071D02*
X110483824Y-106011481D01*
X110483824Y-106011481D02*
X110406414Y-106088891D01*
X110406414Y-106088891D02*
X110290300Y-106127595D01*
X110290300Y-106127595D02*
X110212891Y-106127595D01*
X110212891Y-106127595D02*
X110096776Y-106088891D01*
X110096776Y-106088891D02*
X110058072Y-106050186D01*
X110058072Y-106050186D02*
X110058072Y-105779252D01*
X110058072Y-105779252D02*
X110212891Y-105779252D01*
X109709729Y-106127595D02*
X109709729Y-105314795D01*
X109709729Y-105314795D02*
X109400091Y-105314795D01*
X109400091Y-105314795D02*
X109322681Y-105353500D01*
X109322681Y-105353500D02*
X109283976Y-105392205D01*
X109283976Y-105392205D02*
X109245272Y-105469614D01*
X109245272Y-105469614D02*
X109245272Y-105585729D01*
X109245272Y-105585729D02*
X109283976Y-105663138D01*
X109283976Y-105663138D02*
X109322681Y-105701843D01*
X109322681Y-105701843D02*
X109400091Y-105740548D01*
X109400091Y-105740548D02*
X109709729Y-105740548D01*
X108471176Y-106127595D02*
X108935633Y-106127595D01*
X108703405Y-106127595D02*
X108703405Y-105314795D01*
X108703405Y-105314795D02*
X108780814Y-105430910D01*
X108780814Y-105430910D02*
X108858224Y-105508319D01*
X108858224Y-105508319D02*
X108935633Y-105547024D01*
X108084129Y-106127595D02*
X107929310Y-106127595D01*
X107929310Y-106127595D02*
X107851900Y-106088891D01*
X107851900Y-106088891D02*
X107813196Y-106050186D01*
X107813196Y-106050186D02*
X107735786Y-105934071D01*
X107735786Y-105934071D02*
X107697081Y-105779252D01*
X107697081Y-105779252D02*
X107697081Y-105469614D01*
X107697081Y-105469614D02*
X107735786Y-105392205D01*
X107735786Y-105392205D02*
X107774491Y-105353500D01*
X107774491Y-105353500D02*
X107851900Y-105314795D01*
X107851900Y-105314795D02*
X108006719Y-105314795D01*
X108006719Y-105314795D02*
X108084129Y-105353500D01*
X108084129Y-105353500D02*
X108122834Y-105392205D01*
X108122834Y-105392205D02*
X108161538Y-105469614D01*
X108161538Y-105469614D02*
X108161538Y-105663138D01*
X108161538Y-105663138D02*
X108122834Y-105740548D01*
X108122834Y-105740548D02*
X108084129Y-105779252D01*
X108084129Y-105779252D02*
X108006719Y-105817957D01*
X108006719Y-105817957D02*
X107851900Y-105817957D01*
X107851900Y-105817957D02*
X107774491Y-105779252D01*
X107774491Y-105779252D02*
X107735786Y-105740548D01*
X107735786Y-105740548D02*
X107697081Y-105663138D01*
X117334567Y-107436203D02*
X117334567Y-106623403D01*
X116986223Y-107397499D02*
X116870109Y-107436203D01*
X116870109Y-107436203D02*
X116676585Y-107436203D01*
X116676585Y-107436203D02*
X116599176Y-107397499D01*
X116599176Y-107397499D02*
X116560471Y-107358794D01*
X116560471Y-107358794D02*
X116521766Y-107281384D01*
X116521766Y-107281384D02*
X116521766Y-107203975D01*
X116521766Y-107203975D02*
X116560471Y-107126565D01*
X116560471Y-107126565D02*
X116599176Y-107087860D01*
X116599176Y-107087860D02*
X116676585Y-107049156D01*
X116676585Y-107049156D02*
X116831404Y-107010451D01*
X116831404Y-107010451D02*
X116908814Y-106971746D01*
X116908814Y-106971746D02*
X116947519Y-106933041D01*
X116947519Y-106933041D02*
X116986223Y-106855632D01*
X116986223Y-106855632D02*
X116986223Y-106778222D01*
X116986223Y-106778222D02*
X116947519Y-106700813D01*
X116947519Y-106700813D02*
X116908814Y-106662108D01*
X116908814Y-106662108D02*
X116831404Y-106623403D01*
X116831404Y-106623403D02*
X116637881Y-106623403D01*
X116637881Y-106623403D02*
X116521766Y-106662108D01*
X116212128Y-107203975D02*
X115825081Y-107203975D01*
X116289538Y-107436203D02*
X116018605Y-106623403D01*
X116018605Y-106623403D02*
X115747671Y-107436203D01*
X114393005Y-107358794D02*
X114431709Y-107397499D01*
X114431709Y-107397499D02*
X114547824Y-107436203D01*
X114547824Y-107436203D02*
X114625233Y-107436203D01*
X114625233Y-107436203D02*
X114741347Y-107397499D01*
X114741347Y-107397499D02*
X114818757Y-107320089D01*
X114818757Y-107320089D02*
X114857462Y-107242679D01*
X114857462Y-107242679D02*
X114896166Y-107087860D01*
X114896166Y-107087860D02*
X114896166Y-106971746D01*
X114896166Y-106971746D02*
X114857462Y-106816927D01*
X114857462Y-106816927D02*
X114818757Y-106739518D01*
X114818757Y-106739518D02*
X114741347Y-106662108D01*
X114741347Y-106662108D02*
X114625233Y-106623403D01*
X114625233Y-106623403D02*
X114547824Y-106623403D01*
X114547824Y-106623403D02*
X114431709Y-106662108D01*
X114431709Y-106662108D02*
X114393005Y-106700813D01*
X113928547Y-107436203D02*
X114005957Y-107397499D01*
X114005957Y-107397499D02*
X114044662Y-107320089D01*
X114044662Y-107320089D02*
X114044662Y-106623403D01*
X113502795Y-107436203D02*
X113580205Y-107397499D01*
X113580205Y-107397499D02*
X113618910Y-107358794D01*
X113618910Y-107358794D02*
X113657614Y-107281384D01*
X113657614Y-107281384D02*
X113657614Y-107049156D01*
X113657614Y-107049156D02*
X113618910Y-106971746D01*
X113618910Y-106971746D02*
X113580205Y-106933041D01*
X113580205Y-106933041D02*
X113502795Y-106894337D01*
X113502795Y-106894337D02*
X113386681Y-106894337D01*
X113386681Y-106894337D02*
X113309272Y-106933041D01*
X113309272Y-106933041D02*
X113270567Y-106971746D01*
X113270567Y-106971746D02*
X113231862Y-107049156D01*
X113231862Y-107049156D02*
X113231862Y-107281384D01*
X113231862Y-107281384D02*
X113270567Y-107358794D01*
X113270567Y-107358794D02*
X113309272Y-107397499D01*
X113309272Y-107397499D02*
X113386681Y-107436203D01*
X113386681Y-107436203D02*
X113502795Y-107436203D01*
X112535177Y-107397499D02*
X112612586Y-107436203D01*
X112612586Y-107436203D02*
X112767405Y-107436203D01*
X112767405Y-107436203D02*
X112844815Y-107397499D01*
X112844815Y-107397499D02*
X112883520Y-107358794D01*
X112883520Y-107358794D02*
X112922224Y-107281384D01*
X112922224Y-107281384D02*
X112922224Y-107049156D01*
X112922224Y-107049156D02*
X112883520Y-106971746D01*
X112883520Y-106971746D02*
X112844815Y-106933041D01*
X112844815Y-106933041D02*
X112767405Y-106894337D01*
X112767405Y-106894337D02*
X112612586Y-106894337D01*
X112612586Y-106894337D02*
X112535177Y-106933041D01*
X112186834Y-107436203D02*
X112186834Y-106623403D01*
X112109424Y-107126565D02*
X111877196Y-107436203D01*
X111877196Y-106894337D02*
X112186834Y-107203975D01*
X111528853Y-107358794D02*
X111490148Y-107397499D01*
X111490148Y-107397499D02*
X111528853Y-107436203D01*
X111528853Y-107436203D02*
X111567557Y-107397499D01*
X111567557Y-107397499D02*
X111528853Y-107358794D01*
X111528853Y-107358794D02*
X111528853Y-107436203D01*
X111528853Y-106933041D02*
X111490148Y-106971746D01*
X111490148Y-106971746D02*
X111528853Y-107010451D01*
X111528853Y-107010451D02*
X111567557Y-106971746D01*
X111567557Y-106971746D02*
X111528853Y-106933041D01*
X111528853Y-106933041D02*
X111528853Y-107010451D01*
X110096776Y-106662108D02*
X110174186Y-106623403D01*
X110174186Y-106623403D02*
X110290300Y-106623403D01*
X110290300Y-106623403D02*
X110406414Y-106662108D01*
X110406414Y-106662108D02*
X110483824Y-106739518D01*
X110483824Y-106739518D02*
X110522529Y-106816927D01*
X110522529Y-106816927D02*
X110561233Y-106971746D01*
X110561233Y-106971746D02*
X110561233Y-107087860D01*
X110561233Y-107087860D02*
X110522529Y-107242679D01*
X110522529Y-107242679D02*
X110483824Y-107320089D01*
X110483824Y-107320089D02*
X110406414Y-107397499D01*
X110406414Y-107397499D02*
X110290300Y-107436203D01*
X110290300Y-107436203D02*
X110212891Y-107436203D01*
X110212891Y-107436203D02*
X110096776Y-107397499D01*
X110096776Y-107397499D02*
X110058072Y-107358794D01*
X110058072Y-107358794D02*
X110058072Y-107087860D01*
X110058072Y-107087860D02*
X110212891Y-107087860D01*
X109709729Y-107436203D02*
X109709729Y-106623403D01*
X109709729Y-106623403D02*
X109400091Y-106623403D01*
X109400091Y-106623403D02*
X109322681Y-106662108D01*
X109322681Y-106662108D02*
X109283976Y-106700813D01*
X109283976Y-106700813D02*
X109245272Y-106778222D01*
X109245272Y-106778222D02*
X109245272Y-106894337D01*
X109245272Y-106894337D02*
X109283976Y-106971746D01*
X109283976Y-106971746D02*
X109322681Y-107010451D01*
X109322681Y-107010451D02*
X109400091Y-107049156D01*
X109400091Y-107049156D02*
X109709729Y-107049156D01*
X108935633Y-106700813D02*
X108896929Y-106662108D01*
X108896929Y-106662108D02*
X108819519Y-106623403D01*
X108819519Y-106623403D02*
X108625995Y-106623403D01*
X108625995Y-106623403D02*
X108548586Y-106662108D01*
X108548586Y-106662108D02*
X108509881Y-106700813D01*
X108509881Y-106700813D02*
X108471176Y-106778222D01*
X108471176Y-106778222D02*
X108471176Y-106855632D01*
X108471176Y-106855632D02*
X108509881Y-106971746D01*
X108509881Y-106971746D02*
X108974338Y-107436203D01*
X108974338Y-107436203D02*
X108471176Y-107436203D01*
X107968015Y-106623403D02*
X107890605Y-106623403D01*
X107890605Y-106623403D02*
X107813196Y-106662108D01*
X107813196Y-106662108D02*
X107774491Y-106700813D01*
X107774491Y-106700813D02*
X107735786Y-106778222D01*
X107735786Y-106778222D02*
X107697081Y-106933041D01*
X107697081Y-106933041D02*
X107697081Y-107126565D01*
X107697081Y-107126565D02*
X107735786Y-107281384D01*
X107735786Y-107281384D02*
X107774491Y-107358794D01*
X107774491Y-107358794D02*
X107813196Y-107397499D01*
X107813196Y-107397499D02*
X107890605Y-107436203D01*
X107890605Y-107436203D02*
X107968015Y-107436203D01*
X107968015Y-107436203D02*
X108045424Y-107397499D01*
X108045424Y-107397499D02*
X108084129Y-107358794D01*
X108084129Y-107358794D02*
X108122834Y-107281384D01*
X108122834Y-107281384D02*
X108161538Y-107126565D01*
X108161538Y-107126565D02*
X108161538Y-106933041D01*
X108161538Y-106933041D02*
X108122834Y-106778222D01*
X108122834Y-106778222D02*
X108084129Y-106700813D01*
X108084129Y-106700813D02*
X108045424Y-106662108D01*
X108045424Y-106662108D02*
X107968015Y-106623403D01*
X118224777Y-108744811D02*
X118495710Y-108357764D01*
X118689234Y-108744811D02*
X118689234Y-107932011D01*
X118689234Y-107932011D02*
X118379596Y-107932011D01*
X118379596Y-107932011D02*
X118302186Y-107970716D01*
X118302186Y-107970716D02*
X118263481Y-108009421D01*
X118263481Y-108009421D02*
X118224777Y-108086830D01*
X118224777Y-108086830D02*
X118224777Y-108202945D01*
X118224777Y-108202945D02*
X118263481Y-108280354D01*
X118263481Y-108280354D02*
X118302186Y-108319059D01*
X118302186Y-108319059D02*
X118379596Y-108357764D01*
X118379596Y-108357764D02*
X118689234Y-108357764D01*
X117566796Y-108706107D02*
X117644205Y-108744811D01*
X117644205Y-108744811D02*
X117799024Y-108744811D01*
X117799024Y-108744811D02*
X117876434Y-108706107D01*
X117876434Y-108706107D02*
X117915138Y-108628697D01*
X117915138Y-108628697D02*
X117915138Y-108319059D01*
X117915138Y-108319059D02*
X117876434Y-108241649D01*
X117876434Y-108241649D02*
X117799024Y-108202945D01*
X117799024Y-108202945D02*
X117644205Y-108202945D01*
X117644205Y-108202945D02*
X117566796Y-108241649D01*
X117566796Y-108241649D02*
X117528091Y-108319059D01*
X117528091Y-108319059D02*
X117528091Y-108396468D01*
X117528091Y-108396468D02*
X117915138Y-108473878D01*
X117179748Y-108744811D02*
X117179748Y-108202945D01*
X117179748Y-108280354D02*
X117141043Y-108241649D01*
X117141043Y-108241649D02*
X117063633Y-108202945D01*
X117063633Y-108202945D02*
X116947519Y-108202945D01*
X116947519Y-108202945D02*
X116870110Y-108241649D01*
X116870110Y-108241649D02*
X116831405Y-108319059D01*
X116831405Y-108319059D02*
X116831405Y-108744811D01*
X116831405Y-108319059D02*
X116792700Y-108241649D01*
X116792700Y-108241649D02*
X116715291Y-108202945D01*
X116715291Y-108202945D02*
X116599176Y-108202945D01*
X116599176Y-108202945D02*
X116521767Y-108241649D01*
X116521767Y-108241649D02*
X116483062Y-108319059D01*
X116483062Y-108319059D02*
X116483062Y-108744811D01*
X115979900Y-108744811D02*
X116057310Y-108706107D01*
X116057310Y-108706107D02*
X116096015Y-108667402D01*
X116096015Y-108667402D02*
X116134719Y-108589992D01*
X116134719Y-108589992D02*
X116134719Y-108357764D01*
X116134719Y-108357764D02*
X116096015Y-108280354D01*
X116096015Y-108280354D02*
X116057310Y-108241649D01*
X116057310Y-108241649D02*
X115979900Y-108202945D01*
X115979900Y-108202945D02*
X115863786Y-108202945D01*
X115863786Y-108202945D02*
X115786377Y-108241649D01*
X115786377Y-108241649D02*
X115747672Y-108280354D01*
X115747672Y-108280354D02*
X115708967Y-108357764D01*
X115708967Y-108357764D02*
X115708967Y-108589992D01*
X115708967Y-108589992D02*
X115747672Y-108667402D01*
X115747672Y-108667402D02*
X115786377Y-108706107D01*
X115786377Y-108706107D02*
X115863786Y-108744811D01*
X115863786Y-108744811D02*
X115979900Y-108744811D01*
X115476739Y-108202945D02*
X115167101Y-108202945D01*
X115360625Y-107932011D02*
X115360625Y-108628697D01*
X115360625Y-108628697D02*
X115321920Y-108706107D01*
X115321920Y-108706107D02*
X115244510Y-108744811D01*
X115244510Y-108744811D02*
X115167101Y-108744811D01*
X114586530Y-108706107D02*
X114663939Y-108744811D01*
X114663939Y-108744811D02*
X114818758Y-108744811D01*
X114818758Y-108744811D02*
X114896168Y-108706107D01*
X114896168Y-108706107D02*
X114934872Y-108628697D01*
X114934872Y-108628697D02*
X114934872Y-108319059D01*
X114934872Y-108319059D02*
X114896168Y-108241649D01*
X114896168Y-108241649D02*
X114818758Y-108202945D01*
X114818758Y-108202945D02*
X114663939Y-108202945D01*
X114663939Y-108202945D02*
X114586530Y-108241649D01*
X114586530Y-108241649D02*
X114547825Y-108319059D01*
X114547825Y-108319059D02*
X114547825Y-108396468D01*
X114547825Y-108396468D02*
X114934872Y-108473878D01*
X113580206Y-108744811D02*
X113580206Y-107932011D01*
X112728701Y-108744811D02*
X112999634Y-108357764D01*
X113193158Y-108744811D02*
X113193158Y-107932011D01*
X113193158Y-107932011D02*
X112883520Y-107932011D01*
X112883520Y-107932011D02*
X112806110Y-107970716D01*
X112806110Y-107970716D02*
X112767405Y-108009421D01*
X112767405Y-108009421D02*
X112728701Y-108086830D01*
X112728701Y-108086830D02*
X112728701Y-108202945D01*
X112728701Y-108202945D02*
X112767405Y-108280354D01*
X112767405Y-108280354D02*
X112806110Y-108319059D01*
X112806110Y-108319059D02*
X112883520Y-108357764D01*
X112883520Y-108357764D02*
X113193158Y-108357764D01*
X111838491Y-108822221D02*
X111915901Y-108783516D01*
X111915901Y-108783516D02*
X111993310Y-108706107D01*
X111993310Y-108706107D02*
X112109424Y-108589992D01*
X112109424Y-108589992D02*
X112186834Y-108551287D01*
X112186834Y-108551287D02*
X112264243Y-108551287D01*
X112225539Y-108744811D02*
X112302948Y-108706107D01*
X112302948Y-108706107D02*
X112380358Y-108628697D01*
X112380358Y-108628697D02*
X112419062Y-108473878D01*
X112419062Y-108473878D02*
X112419062Y-108202945D01*
X112419062Y-108202945D02*
X112380358Y-108048126D01*
X112380358Y-108048126D02*
X112302948Y-107970716D01*
X112302948Y-107970716D02*
X112225539Y-107932011D01*
X112225539Y-107932011D02*
X112070720Y-107932011D01*
X112070720Y-107932011D02*
X111993310Y-107970716D01*
X111993310Y-107970716D02*
X111915901Y-108048126D01*
X111915901Y-108048126D02*
X111877196Y-108202945D01*
X111877196Y-108202945D02*
X111877196Y-108473878D01*
X111877196Y-108473878D02*
X111915901Y-108628697D01*
X111915901Y-108628697D02*
X111993310Y-108706107D01*
X111993310Y-108706107D02*
X112070720Y-108744811D01*
X112070720Y-108744811D02*
X112225539Y-108744811D01*
X111528853Y-108667402D02*
X111490148Y-108706107D01*
X111490148Y-108706107D02*
X111528853Y-108744811D01*
X111528853Y-108744811D02*
X111567557Y-108706107D01*
X111567557Y-108706107D02*
X111528853Y-108667402D01*
X111528853Y-108667402D02*
X111528853Y-108744811D01*
X111528853Y-108241649D02*
X111490148Y-108280354D01*
X111490148Y-108280354D02*
X111528853Y-108319059D01*
X111528853Y-108319059D02*
X111567557Y-108280354D01*
X111567557Y-108280354D02*
X111528853Y-108241649D01*
X111528853Y-108241649D02*
X111528853Y-108319059D01*
X110096776Y-107970716D02*
X110174186Y-107932011D01*
X110174186Y-107932011D02*
X110290300Y-107932011D01*
X110290300Y-107932011D02*
X110406414Y-107970716D01*
X110406414Y-107970716D02*
X110483824Y-108048126D01*
X110483824Y-108048126D02*
X110522529Y-108125535D01*
X110522529Y-108125535D02*
X110561233Y-108280354D01*
X110561233Y-108280354D02*
X110561233Y-108396468D01*
X110561233Y-108396468D02*
X110522529Y-108551287D01*
X110522529Y-108551287D02*
X110483824Y-108628697D01*
X110483824Y-108628697D02*
X110406414Y-108706107D01*
X110406414Y-108706107D02*
X110290300Y-108744811D01*
X110290300Y-108744811D02*
X110212891Y-108744811D01*
X110212891Y-108744811D02*
X110096776Y-108706107D01*
X110096776Y-108706107D02*
X110058072Y-108667402D01*
X110058072Y-108667402D02*
X110058072Y-108396468D01*
X110058072Y-108396468D02*
X110212891Y-108396468D01*
X109709729Y-108744811D02*
X109709729Y-107932011D01*
X109709729Y-107932011D02*
X109400091Y-107932011D01*
X109400091Y-107932011D02*
X109322681Y-107970716D01*
X109322681Y-107970716D02*
X109283976Y-108009421D01*
X109283976Y-108009421D02*
X109245272Y-108086830D01*
X109245272Y-108086830D02*
X109245272Y-108202945D01*
X109245272Y-108202945D02*
X109283976Y-108280354D01*
X109283976Y-108280354D02*
X109322681Y-108319059D01*
X109322681Y-108319059D02*
X109400091Y-108357764D01*
X109400091Y-108357764D02*
X109709729Y-108357764D01*
X108935633Y-108009421D02*
X108896929Y-107970716D01*
X108896929Y-107970716D02*
X108819519Y-107932011D01*
X108819519Y-107932011D02*
X108625995Y-107932011D01*
X108625995Y-107932011D02*
X108548586Y-107970716D01*
X108548586Y-107970716D02*
X108509881Y-108009421D01*
X108509881Y-108009421D02*
X108471176Y-108086830D01*
X108471176Y-108086830D02*
X108471176Y-108164240D01*
X108471176Y-108164240D02*
X108509881Y-108280354D01*
X108509881Y-108280354D02*
X108974338Y-108744811D01*
X108974338Y-108744811D02*
X108471176Y-108744811D01*
X107697081Y-108744811D02*
X108161538Y-108744811D01*
X107929310Y-108744811D02*
X107929310Y-107932011D01*
X107929310Y-107932011D02*
X108006719Y-108048126D01*
X108006719Y-108048126D02*
X108084129Y-108125535D01*
X108084129Y-108125535D02*
X108161538Y-108164240D01*
X114393006Y-110053419D02*
X114663939Y-109666372D01*
X114857463Y-110053419D02*
X114857463Y-109240619D01*
X114857463Y-109240619D02*
X114547825Y-109240619D01*
X114547825Y-109240619D02*
X114470415Y-109279324D01*
X114470415Y-109279324D02*
X114431710Y-109318029D01*
X114431710Y-109318029D02*
X114393006Y-109395438D01*
X114393006Y-109395438D02*
X114393006Y-109511553D01*
X114393006Y-109511553D02*
X114431710Y-109588962D01*
X114431710Y-109588962D02*
X114470415Y-109627667D01*
X114470415Y-109627667D02*
X114547825Y-109666372D01*
X114547825Y-109666372D02*
X114857463Y-109666372D01*
X113735025Y-110014715D02*
X113812434Y-110053419D01*
X113812434Y-110053419D02*
X113967253Y-110053419D01*
X113967253Y-110053419D02*
X114044663Y-110014715D01*
X114044663Y-110014715D02*
X114083367Y-109937305D01*
X114083367Y-109937305D02*
X114083367Y-109627667D01*
X114083367Y-109627667D02*
X114044663Y-109550257D01*
X114044663Y-109550257D02*
X113967253Y-109511553D01*
X113967253Y-109511553D02*
X113812434Y-109511553D01*
X113812434Y-109511553D02*
X113735025Y-109550257D01*
X113735025Y-109550257D02*
X113696320Y-109627667D01*
X113696320Y-109627667D02*
X113696320Y-109705076D01*
X113696320Y-109705076D02*
X114083367Y-109782486D01*
X113386681Y-110014715D02*
X113309272Y-110053419D01*
X113309272Y-110053419D02*
X113154453Y-110053419D01*
X113154453Y-110053419D02*
X113077043Y-110014715D01*
X113077043Y-110014715D02*
X113038339Y-109937305D01*
X113038339Y-109937305D02*
X113038339Y-109898600D01*
X113038339Y-109898600D02*
X113077043Y-109821191D01*
X113077043Y-109821191D02*
X113154453Y-109782486D01*
X113154453Y-109782486D02*
X113270567Y-109782486D01*
X113270567Y-109782486D02*
X113347977Y-109743781D01*
X113347977Y-109743781D02*
X113386681Y-109666372D01*
X113386681Y-109666372D02*
X113386681Y-109627667D01*
X113386681Y-109627667D02*
X113347977Y-109550257D01*
X113347977Y-109550257D02*
X113270567Y-109511553D01*
X113270567Y-109511553D02*
X113154453Y-109511553D01*
X113154453Y-109511553D02*
X113077043Y-109550257D01*
X112380358Y-110014715D02*
X112457767Y-110053419D01*
X112457767Y-110053419D02*
X112612586Y-110053419D01*
X112612586Y-110053419D02*
X112689996Y-110014715D01*
X112689996Y-110014715D02*
X112728700Y-109937305D01*
X112728700Y-109937305D02*
X112728700Y-109627667D01*
X112728700Y-109627667D02*
X112689996Y-109550257D01*
X112689996Y-109550257D02*
X112612586Y-109511553D01*
X112612586Y-109511553D02*
X112457767Y-109511553D01*
X112457767Y-109511553D02*
X112380358Y-109550257D01*
X112380358Y-109550257D02*
X112341653Y-109627667D01*
X112341653Y-109627667D02*
X112341653Y-109705076D01*
X112341653Y-109705076D02*
X112728700Y-109782486D01*
X112109424Y-109511553D02*
X111799786Y-109511553D01*
X111993310Y-109240619D02*
X111993310Y-109937305D01*
X111993310Y-109937305D02*
X111954605Y-110014715D01*
X111954605Y-110014715D02*
X111877195Y-110053419D01*
X111877195Y-110053419D02*
X111799786Y-110053419D01*
X111528853Y-109976010D02*
X111490148Y-110014715D01*
X111490148Y-110014715D02*
X111528853Y-110053419D01*
X111528853Y-110053419D02*
X111567557Y-110014715D01*
X111567557Y-110014715D02*
X111528853Y-109976010D01*
X111528853Y-109976010D02*
X111528853Y-110053419D01*
X111528853Y-109550257D02*
X111490148Y-109588962D01*
X111490148Y-109588962D02*
X111528853Y-109627667D01*
X111528853Y-109627667D02*
X111567557Y-109588962D01*
X111567557Y-109588962D02*
X111528853Y-109550257D01*
X111528853Y-109550257D02*
X111528853Y-109627667D01*
X110096776Y-109279324D02*
X110174186Y-109240619D01*
X110174186Y-109240619D02*
X110290300Y-109240619D01*
X110290300Y-109240619D02*
X110406414Y-109279324D01*
X110406414Y-109279324D02*
X110483824Y-109356734D01*
X110483824Y-109356734D02*
X110522529Y-109434143D01*
X110522529Y-109434143D02*
X110561233Y-109588962D01*
X110561233Y-109588962D02*
X110561233Y-109705076D01*
X110561233Y-109705076D02*
X110522529Y-109859895D01*
X110522529Y-109859895D02*
X110483824Y-109937305D01*
X110483824Y-109937305D02*
X110406414Y-110014715D01*
X110406414Y-110014715D02*
X110290300Y-110053419D01*
X110290300Y-110053419D02*
X110212891Y-110053419D01*
X110212891Y-110053419D02*
X110096776Y-110014715D01*
X110096776Y-110014715D02*
X110058072Y-109976010D01*
X110058072Y-109976010D02*
X110058072Y-109705076D01*
X110058072Y-109705076D02*
X110212891Y-109705076D01*
X109709729Y-110053419D02*
X109709729Y-109240619D01*
X109709729Y-109240619D02*
X109400091Y-109240619D01*
X109400091Y-109240619D02*
X109322681Y-109279324D01*
X109322681Y-109279324D02*
X109283976Y-109318029D01*
X109283976Y-109318029D02*
X109245272Y-109395438D01*
X109245272Y-109395438D02*
X109245272Y-109511553D01*
X109245272Y-109511553D02*
X109283976Y-109588962D01*
X109283976Y-109588962D02*
X109322681Y-109627667D01*
X109322681Y-109627667D02*
X109400091Y-109666372D01*
X109400091Y-109666372D02*
X109709729Y-109666372D01*
X108935633Y-109318029D02*
X108896929Y-109279324D01*
X108896929Y-109279324D02*
X108819519Y-109240619D01*
X108819519Y-109240619D02*
X108625995Y-109240619D01*
X108625995Y-109240619D02*
X108548586Y-109279324D01*
X108548586Y-109279324D02*
X108509881Y-109318029D01*
X108509881Y-109318029D02*
X108471176Y-109395438D01*
X108471176Y-109395438D02*
X108471176Y-109472848D01*
X108471176Y-109472848D02*
X108509881Y-109588962D01*
X108509881Y-109588962D02*
X108974338Y-110053419D01*
X108974338Y-110053419D02*
X108471176Y-110053419D01*
X108161538Y-109318029D02*
X108122834Y-109279324D01*
X108122834Y-109279324D02*
X108045424Y-109240619D01*
X108045424Y-109240619D02*
X107851900Y-109240619D01*
X107851900Y-109240619D02*
X107774491Y-109279324D01*
X107774491Y-109279324D02*
X107735786Y-109318029D01*
X107735786Y-109318029D02*
X107697081Y-109395438D01*
X107697081Y-109395438D02*
X107697081Y-109472848D01*
X107697081Y-109472848D02*
X107735786Y-109588962D01*
X107735786Y-109588962D02*
X108200243Y-110053419D01*
X108200243Y-110053419D02*
X107697081Y-110053419D01*
X122714530Y-111362027D02*
X122985463Y-110974980D01*
X123178987Y-111362027D02*
X123178987Y-110549227D01*
X123178987Y-110549227D02*
X122869349Y-110549227D01*
X122869349Y-110549227D02*
X122791939Y-110587932D01*
X122791939Y-110587932D02*
X122753234Y-110626637D01*
X122753234Y-110626637D02*
X122714530Y-110704046D01*
X122714530Y-110704046D02*
X122714530Y-110820161D01*
X122714530Y-110820161D02*
X122753234Y-110897570D01*
X122753234Y-110897570D02*
X122791939Y-110936275D01*
X122791939Y-110936275D02*
X122869349Y-110974980D01*
X122869349Y-110974980D02*
X123178987Y-110974980D01*
X122056549Y-111323323D02*
X122133958Y-111362027D01*
X122133958Y-111362027D02*
X122288777Y-111362027D01*
X122288777Y-111362027D02*
X122366187Y-111323323D01*
X122366187Y-111323323D02*
X122404891Y-111245913D01*
X122404891Y-111245913D02*
X122404891Y-110936275D01*
X122404891Y-110936275D02*
X122366187Y-110858865D01*
X122366187Y-110858865D02*
X122288777Y-110820161D01*
X122288777Y-110820161D02*
X122133958Y-110820161D01*
X122133958Y-110820161D02*
X122056549Y-110858865D01*
X122056549Y-110858865D02*
X122017844Y-110936275D01*
X122017844Y-110936275D02*
X122017844Y-111013684D01*
X122017844Y-111013684D02*
X122404891Y-111091094D01*
X121746910Y-110820161D02*
X121553386Y-111362027D01*
X121553386Y-111362027D02*
X121359863Y-110820161D01*
X121050225Y-111362027D02*
X121050225Y-110820161D01*
X121050225Y-110549227D02*
X121088929Y-110587932D01*
X121088929Y-110587932D02*
X121050225Y-110626637D01*
X121050225Y-110626637D02*
X121011520Y-110587932D01*
X121011520Y-110587932D02*
X121050225Y-110549227D01*
X121050225Y-110549227D02*
X121050225Y-110626637D01*
X120701881Y-111323323D02*
X120624472Y-111362027D01*
X120624472Y-111362027D02*
X120469653Y-111362027D01*
X120469653Y-111362027D02*
X120392243Y-111323323D01*
X120392243Y-111323323D02*
X120353539Y-111245913D01*
X120353539Y-111245913D02*
X120353539Y-111207208D01*
X120353539Y-111207208D02*
X120392243Y-111129799D01*
X120392243Y-111129799D02*
X120469653Y-111091094D01*
X120469653Y-111091094D02*
X120585767Y-111091094D01*
X120585767Y-111091094D02*
X120663177Y-111052389D01*
X120663177Y-111052389D02*
X120701881Y-110974980D01*
X120701881Y-110974980D02*
X120701881Y-110936275D01*
X120701881Y-110936275D02*
X120663177Y-110858865D01*
X120663177Y-110858865D02*
X120585767Y-110820161D01*
X120585767Y-110820161D02*
X120469653Y-110820161D01*
X120469653Y-110820161D02*
X120392243Y-110858865D01*
X120005196Y-111362027D02*
X120005196Y-110820161D01*
X120005196Y-110549227D02*
X120043900Y-110587932D01*
X120043900Y-110587932D02*
X120005196Y-110626637D01*
X120005196Y-110626637D02*
X119966491Y-110587932D01*
X119966491Y-110587932D02*
X120005196Y-110549227D01*
X120005196Y-110549227D02*
X120005196Y-110626637D01*
X119502033Y-111362027D02*
X119579443Y-111323323D01*
X119579443Y-111323323D02*
X119618148Y-111284618D01*
X119618148Y-111284618D02*
X119656852Y-111207208D01*
X119656852Y-111207208D02*
X119656852Y-110974980D01*
X119656852Y-110974980D02*
X119618148Y-110897570D01*
X119618148Y-110897570D02*
X119579443Y-110858865D01*
X119579443Y-110858865D02*
X119502033Y-110820161D01*
X119502033Y-110820161D02*
X119385919Y-110820161D01*
X119385919Y-110820161D02*
X119308510Y-110858865D01*
X119308510Y-110858865D02*
X119269805Y-110897570D01*
X119269805Y-110897570D02*
X119231100Y-110974980D01*
X119231100Y-110974980D02*
X119231100Y-111207208D01*
X119231100Y-111207208D02*
X119269805Y-111284618D01*
X119269805Y-111284618D02*
X119308510Y-111323323D01*
X119308510Y-111323323D02*
X119385919Y-111362027D01*
X119385919Y-111362027D02*
X119502033Y-111362027D01*
X118882758Y-110820161D02*
X118882758Y-111362027D01*
X118882758Y-110897570D02*
X118844053Y-110858865D01*
X118844053Y-110858865D02*
X118766643Y-110820161D01*
X118766643Y-110820161D02*
X118650529Y-110820161D01*
X118650529Y-110820161D02*
X118573120Y-110858865D01*
X118573120Y-110858865D02*
X118534415Y-110936275D01*
X118534415Y-110936275D02*
X118534415Y-111362027D01*
X117528092Y-111362027D02*
X117528092Y-110549227D01*
X117141044Y-111362027D02*
X117141044Y-110549227D01*
X117141044Y-110549227D02*
X116947520Y-110549227D01*
X116947520Y-110549227D02*
X116831406Y-110587932D01*
X116831406Y-110587932D02*
X116753996Y-110665342D01*
X116753996Y-110665342D02*
X116715291Y-110742751D01*
X116715291Y-110742751D02*
X116676587Y-110897570D01*
X116676587Y-110897570D02*
X116676587Y-111013684D01*
X116676587Y-111013684D02*
X116715291Y-111168503D01*
X116715291Y-111168503D02*
X116753996Y-111245913D01*
X116753996Y-111245913D02*
X116831406Y-111323323D01*
X116831406Y-111323323D02*
X116947520Y-111362027D01*
X116947520Y-111362027D02*
X117141044Y-111362027D01*
X116328244Y-111284618D02*
X116289539Y-111323323D01*
X116289539Y-111323323D02*
X116328244Y-111362027D01*
X116328244Y-111362027D02*
X116366948Y-111323323D01*
X116366948Y-111323323D02*
X116328244Y-111284618D01*
X116328244Y-111284618D02*
X116328244Y-111362027D01*
X116328244Y-110858865D02*
X116289539Y-110897570D01*
X116289539Y-110897570D02*
X116328244Y-110936275D01*
X116328244Y-110936275D02*
X116366948Y-110897570D01*
X116366948Y-110897570D02*
X116328244Y-110858865D01*
X116328244Y-110858865D02*
X116328244Y-110936275D01*
X115360624Y-111129799D02*
X114973577Y-111129799D01*
X115438034Y-111362027D02*
X115167101Y-110549227D01*
X115167101Y-110549227D02*
X114896167Y-111362027D01*
X114625234Y-111362027D02*
X114625234Y-110549227D01*
X114625234Y-110549227D02*
X114431710Y-110549227D01*
X114431710Y-110549227D02*
X114315596Y-110587932D01*
X114315596Y-110587932D02*
X114238186Y-110665342D01*
X114238186Y-110665342D02*
X114199481Y-110742751D01*
X114199481Y-110742751D02*
X114160777Y-110897570D01*
X114160777Y-110897570D02*
X114160777Y-111013684D01*
X114160777Y-111013684D02*
X114199481Y-111168503D01*
X114199481Y-111168503D02*
X114238186Y-111245913D01*
X114238186Y-111245913D02*
X114315596Y-111323323D01*
X114315596Y-111323323D02*
X114431710Y-111362027D01*
X114431710Y-111362027D02*
X114625234Y-111362027D01*
X113347977Y-111284618D02*
X113386681Y-111323323D01*
X113386681Y-111323323D02*
X113502796Y-111362027D01*
X113502796Y-111362027D02*
X113580205Y-111362027D01*
X113580205Y-111362027D02*
X113696319Y-111323323D01*
X113696319Y-111323323D02*
X113773729Y-111245913D01*
X113773729Y-111245913D02*
X113812434Y-111168503D01*
X113812434Y-111168503D02*
X113851138Y-111013684D01*
X113851138Y-111013684D02*
X113851138Y-110897570D01*
X113851138Y-110897570D02*
X113812434Y-110742751D01*
X113812434Y-110742751D02*
X113773729Y-110665342D01*
X113773729Y-110665342D02*
X113696319Y-110587932D01*
X113696319Y-110587932D02*
X113580205Y-110549227D01*
X113580205Y-110549227D02*
X113502796Y-110549227D01*
X113502796Y-110549227D02*
X113386681Y-110587932D01*
X113386681Y-110587932D02*
X113347977Y-110626637D01*
X112844815Y-110549227D02*
X112767405Y-110549227D01*
X112767405Y-110549227D02*
X112689996Y-110587932D01*
X112689996Y-110587932D02*
X112651291Y-110626637D01*
X112651291Y-110626637D02*
X112612586Y-110704046D01*
X112612586Y-110704046D02*
X112573881Y-110858865D01*
X112573881Y-110858865D02*
X112573881Y-111052389D01*
X112573881Y-111052389D02*
X112612586Y-111207208D01*
X112612586Y-111207208D02*
X112651291Y-111284618D01*
X112651291Y-111284618D02*
X112689996Y-111323323D01*
X112689996Y-111323323D02*
X112767405Y-111362027D01*
X112767405Y-111362027D02*
X112844815Y-111362027D01*
X112844815Y-111362027D02*
X112922224Y-111323323D01*
X112922224Y-111323323D02*
X112960929Y-111284618D01*
X112960929Y-111284618D02*
X112999634Y-111207208D01*
X112999634Y-111207208D02*
X113038338Y-111052389D01*
X113038338Y-111052389D02*
X113038338Y-110858865D01*
X113038338Y-110858865D02*
X112999634Y-110704046D01*
X112999634Y-110704046D02*
X112960929Y-110626637D01*
X112960929Y-110626637D02*
X112922224Y-110587932D01*
X112922224Y-110587932D02*
X112844815Y-110549227D01*
X111374034Y-111671665D02*
X111412739Y-111632961D01*
X111412739Y-111632961D02*
X111490148Y-111516846D01*
X111490148Y-111516846D02*
X111528853Y-111439437D01*
X111528853Y-111439437D02*
X111567558Y-111323323D01*
X111567558Y-111323323D02*
X111606263Y-111129799D01*
X111606263Y-111129799D02*
X111606263Y-110974980D01*
X111606263Y-110974980D02*
X111567558Y-110781456D01*
X111567558Y-110781456D02*
X111528853Y-110665342D01*
X111528853Y-110665342D02*
X111490148Y-110587932D01*
X111490148Y-110587932D02*
X111412739Y-110471818D01*
X111412739Y-110471818D02*
X111374034Y-110433113D01*
X110638643Y-110587932D02*
X110716053Y-110549227D01*
X110716053Y-110549227D02*
X110832167Y-110549227D01*
X110832167Y-110549227D02*
X110948281Y-110587932D01*
X110948281Y-110587932D02*
X111025691Y-110665342D01*
X111025691Y-110665342D02*
X111064396Y-110742751D01*
X111064396Y-110742751D02*
X111103100Y-110897570D01*
X111103100Y-110897570D02*
X111103100Y-111013684D01*
X111103100Y-111013684D02*
X111064396Y-111168503D01*
X111064396Y-111168503D02*
X111025691Y-111245913D01*
X111025691Y-111245913D02*
X110948281Y-111323323D01*
X110948281Y-111323323D02*
X110832167Y-111362027D01*
X110832167Y-111362027D02*
X110754758Y-111362027D01*
X110754758Y-111362027D02*
X110638643Y-111323323D01*
X110638643Y-111323323D02*
X110599939Y-111284618D01*
X110599939Y-111284618D02*
X110599939Y-111013684D01*
X110599939Y-111013684D02*
X110754758Y-111013684D01*
X110251596Y-111362027D02*
X110251596Y-110549227D01*
X110251596Y-110549227D02*
X109941958Y-110549227D01*
X109941958Y-110549227D02*
X109864548Y-110587932D01*
X109864548Y-110587932D02*
X109825843Y-110626637D01*
X109825843Y-110626637D02*
X109787139Y-110704046D01*
X109787139Y-110704046D02*
X109787139Y-110820161D01*
X109787139Y-110820161D02*
X109825843Y-110897570D01*
X109825843Y-110897570D02*
X109864548Y-110936275D01*
X109864548Y-110936275D02*
X109941958Y-110974980D01*
X109941958Y-110974980D02*
X110251596Y-110974980D01*
X109477500Y-110626637D02*
X109438796Y-110587932D01*
X109438796Y-110587932D02*
X109361386Y-110549227D01*
X109361386Y-110549227D02*
X109167862Y-110549227D01*
X109167862Y-110549227D02*
X109090453Y-110587932D01*
X109090453Y-110587932D02*
X109051748Y-110626637D01*
X109051748Y-110626637D02*
X109013043Y-110704046D01*
X109013043Y-110704046D02*
X109013043Y-110781456D01*
X109013043Y-110781456D02*
X109051748Y-110897570D01*
X109051748Y-110897570D02*
X109516205Y-111362027D01*
X109516205Y-111362027D02*
X109013043Y-111362027D01*
X108316358Y-110549227D02*
X108471177Y-110549227D01*
X108471177Y-110549227D02*
X108548586Y-110587932D01*
X108548586Y-110587932D02*
X108587291Y-110626637D01*
X108587291Y-110626637D02*
X108664701Y-110742751D01*
X108664701Y-110742751D02*
X108703405Y-110897570D01*
X108703405Y-110897570D02*
X108703405Y-111207208D01*
X108703405Y-111207208D02*
X108664701Y-111284618D01*
X108664701Y-111284618D02*
X108625996Y-111323323D01*
X108625996Y-111323323D02*
X108548586Y-111362027D01*
X108548586Y-111362027D02*
X108393767Y-111362027D01*
X108393767Y-111362027D02*
X108316358Y-111323323D01*
X108316358Y-111323323D02*
X108277653Y-111284618D01*
X108277653Y-111284618D02*
X108238948Y-111207208D01*
X108238948Y-111207208D02*
X108238948Y-111013684D01*
X108238948Y-111013684D02*
X108277653Y-110936275D01*
X108277653Y-110936275D02*
X108316358Y-110897570D01*
X108316358Y-110897570D02*
X108393767Y-110858865D01*
X108393767Y-110858865D02*
X108548586Y-110858865D01*
X108548586Y-110858865D02*
X108625996Y-110897570D01*
X108625996Y-110897570D02*
X108664701Y-110936275D01*
X108664701Y-110936275D02*
X108703405Y-111013684D01*
X107968015Y-111671665D02*
X107929310Y-111632961D01*
X107929310Y-111632961D02*
X107851901Y-111516846D01*
X107851901Y-111516846D02*
X107813196Y-111439437D01*
X107813196Y-111439437D02*
X107774491Y-111323323D01*
X107774491Y-111323323D02*
X107735787Y-111129799D01*
X107735787Y-111129799D02*
X107735787Y-110974980D01*
X107735787Y-110974980D02*
X107774491Y-110781456D01*
X107774491Y-110781456D02*
X107813196Y-110665342D01*
X107813196Y-110665342D02*
X107851901Y-110587932D01*
X107851901Y-110587932D02*
X107929310Y-110471818D01*
X107929310Y-110471818D02*
X107968015Y-110433113D01*
X117411977Y-111857835D02*
X117799025Y-111857835D01*
X117799025Y-111857835D02*
X117837729Y-112244883D01*
X117837729Y-112244883D02*
X117799025Y-112206178D01*
X117799025Y-112206178D02*
X117721615Y-112167473D01*
X117721615Y-112167473D02*
X117528091Y-112167473D01*
X117528091Y-112167473D02*
X117450682Y-112206178D01*
X117450682Y-112206178D02*
X117411977Y-112244883D01*
X117411977Y-112244883D02*
X117373272Y-112322292D01*
X117373272Y-112322292D02*
X117373272Y-112515816D01*
X117373272Y-112515816D02*
X117411977Y-112593226D01*
X117411977Y-112593226D02*
X117450682Y-112631931D01*
X117450682Y-112631931D02*
X117528091Y-112670635D01*
X117528091Y-112670635D02*
X117721615Y-112670635D01*
X117721615Y-112670635D02*
X117799025Y-112631931D01*
X117799025Y-112631931D02*
X117837729Y-112593226D01*
X117141044Y-111857835D02*
X116870111Y-112670635D01*
X116870111Y-112670635D02*
X116599177Y-111857835D01*
X116328244Y-112593226D02*
X116289539Y-112631931D01*
X116289539Y-112631931D02*
X116328244Y-112670635D01*
X116328244Y-112670635D02*
X116366948Y-112631931D01*
X116366948Y-112631931D02*
X116328244Y-112593226D01*
X116328244Y-112593226D02*
X116328244Y-112670635D01*
X116328244Y-112167473D02*
X116289539Y-112206178D01*
X116289539Y-112206178D02*
X116328244Y-112244883D01*
X116328244Y-112244883D02*
X116366948Y-112206178D01*
X116366948Y-112206178D02*
X116328244Y-112167473D01*
X116328244Y-112167473D02*
X116328244Y-112244883D01*
X115360624Y-112438407D02*
X114973577Y-112438407D01*
X115438034Y-112670635D02*
X115167101Y-111857835D01*
X115167101Y-111857835D02*
X114896167Y-112670635D01*
X114625234Y-112670635D02*
X114625234Y-111857835D01*
X114625234Y-111857835D02*
X114431710Y-111857835D01*
X114431710Y-111857835D02*
X114315596Y-111896540D01*
X114315596Y-111896540D02*
X114238186Y-111973950D01*
X114238186Y-111973950D02*
X114199481Y-112051359D01*
X114199481Y-112051359D02*
X114160777Y-112206178D01*
X114160777Y-112206178D02*
X114160777Y-112322292D01*
X114160777Y-112322292D02*
X114199481Y-112477111D01*
X114199481Y-112477111D02*
X114238186Y-112554521D01*
X114238186Y-112554521D02*
X114315596Y-112631931D01*
X114315596Y-112631931D02*
X114431710Y-112670635D01*
X114431710Y-112670635D02*
X114625234Y-112670635D01*
X113347977Y-112593226D02*
X113386681Y-112631931D01*
X113386681Y-112631931D02*
X113502796Y-112670635D01*
X113502796Y-112670635D02*
X113580205Y-112670635D01*
X113580205Y-112670635D02*
X113696319Y-112631931D01*
X113696319Y-112631931D02*
X113773729Y-112554521D01*
X113773729Y-112554521D02*
X113812434Y-112477111D01*
X113812434Y-112477111D02*
X113851138Y-112322292D01*
X113851138Y-112322292D02*
X113851138Y-112206178D01*
X113851138Y-112206178D02*
X113812434Y-112051359D01*
X113812434Y-112051359D02*
X113773729Y-111973950D01*
X113773729Y-111973950D02*
X113696319Y-111896540D01*
X113696319Y-111896540D02*
X113580205Y-111857835D01*
X113580205Y-111857835D02*
X113502796Y-111857835D01*
X113502796Y-111857835D02*
X113386681Y-111896540D01*
X113386681Y-111896540D02*
X113347977Y-111935245D01*
X112573881Y-112670635D02*
X113038338Y-112670635D01*
X112806110Y-112670635D02*
X112806110Y-111857835D01*
X112806110Y-111857835D02*
X112883519Y-111973950D01*
X112883519Y-111973950D02*
X112960929Y-112051359D01*
X112960929Y-112051359D02*
X113038338Y-112090064D01*
X111374034Y-112980273D02*
X111412739Y-112941569D01*
X111412739Y-112941569D02*
X111490148Y-112825454D01*
X111490148Y-112825454D02*
X111528853Y-112748045D01*
X111528853Y-112748045D02*
X111567558Y-112631931D01*
X111567558Y-112631931D02*
X111606263Y-112438407D01*
X111606263Y-112438407D02*
X111606263Y-112283588D01*
X111606263Y-112283588D02*
X111567558Y-112090064D01*
X111567558Y-112090064D02*
X111528853Y-111973950D01*
X111528853Y-111973950D02*
X111490148Y-111896540D01*
X111490148Y-111896540D02*
X111412739Y-111780426D01*
X111412739Y-111780426D02*
X111374034Y-111741721D01*
X110638643Y-111896540D02*
X110716053Y-111857835D01*
X110716053Y-111857835D02*
X110832167Y-111857835D01*
X110832167Y-111857835D02*
X110948281Y-111896540D01*
X110948281Y-111896540D02*
X111025691Y-111973950D01*
X111025691Y-111973950D02*
X111064396Y-112051359D01*
X111064396Y-112051359D02*
X111103100Y-112206178D01*
X111103100Y-112206178D02*
X111103100Y-112322292D01*
X111103100Y-112322292D02*
X111064396Y-112477111D01*
X111064396Y-112477111D02*
X111025691Y-112554521D01*
X111025691Y-112554521D02*
X110948281Y-112631931D01*
X110948281Y-112631931D02*
X110832167Y-112670635D01*
X110832167Y-112670635D02*
X110754758Y-112670635D01*
X110754758Y-112670635D02*
X110638643Y-112631931D01*
X110638643Y-112631931D02*
X110599939Y-112593226D01*
X110599939Y-112593226D02*
X110599939Y-112322292D01*
X110599939Y-112322292D02*
X110754758Y-112322292D01*
X110251596Y-112670635D02*
X110251596Y-111857835D01*
X110251596Y-111857835D02*
X109941958Y-111857835D01*
X109941958Y-111857835D02*
X109864548Y-111896540D01*
X109864548Y-111896540D02*
X109825843Y-111935245D01*
X109825843Y-111935245D02*
X109787139Y-112012654D01*
X109787139Y-112012654D02*
X109787139Y-112128769D01*
X109787139Y-112128769D02*
X109825843Y-112206178D01*
X109825843Y-112206178D02*
X109864548Y-112244883D01*
X109864548Y-112244883D02*
X109941958Y-112283588D01*
X109941958Y-112283588D02*
X110251596Y-112283588D01*
X109477500Y-111935245D02*
X109438796Y-111896540D01*
X109438796Y-111896540D02*
X109361386Y-111857835D01*
X109361386Y-111857835D02*
X109167862Y-111857835D01*
X109167862Y-111857835D02*
X109090453Y-111896540D01*
X109090453Y-111896540D02*
X109051748Y-111935245D01*
X109051748Y-111935245D02*
X109013043Y-112012654D01*
X109013043Y-112012654D02*
X109013043Y-112090064D01*
X109013043Y-112090064D02*
X109051748Y-112206178D01*
X109051748Y-112206178D02*
X109516205Y-112670635D01*
X109516205Y-112670635D02*
X109013043Y-112670635D01*
X108742110Y-111857835D02*
X108200244Y-111857835D01*
X108200244Y-111857835D02*
X108548586Y-112670635D01*
X107968015Y-112980273D02*
X107929310Y-112941569D01*
X107929310Y-112941569D02*
X107851901Y-112825454D01*
X107851901Y-112825454D02*
X107813196Y-112748045D01*
X107813196Y-112748045D02*
X107774491Y-112631931D01*
X107774491Y-112631931D02*
X107735787Y-112438407D01*
X107735787Y-112438407D02*
X107735787Y-112283588D01*
X107735787Y-112283588D02*
X107774491Y-112090064D01*
X107774491Y-112090064D02*
X107813196Y-111973950D01*
X107813196Y-111973950D02*
X107851901Y-111896540D01*
X107851901Y-111896540D02*
X107929310Y-111780426D01*
X107929310Y-111780426D02*
X107968015Y-111741721D01*
X118147367Y-113979243D02*
X118611824Y-113979243D01*
X118379596Y-113979243D02*
X118379596Y-113166443D01*
X118379596Y-113166443D02*
X118457005Y-113282558D01*
X118457005Y-113282558D02*
X118534415Y-113359967D01*
X118534415Y-113359967D02*
X118611824Y-113398672D01*
X117837729Y-113243853D02*
X117799025Y-113205148D01*
X117799025Y-113205148D02*
X117721615Y-113166443D01*
X117721615Y-113166443D02*
X117528091Y-113166443D01*
X117528091Y-113166443D02*
X117450682Y-113205148D01*
X117450682Y-113205148D02*
X117411977Y-113243853D01*
X117411977Y-113243853D02*
X117373272Y-113321262D01*
X117373272Y-113321262D02*
X117373272Y-113398672D01*
X117373272Y-113398672D02*
X117411977Y-113514786D01*
X117411977Y-113514786D02*
X117876434Y-113979243D01*
X117876434Y-113979243D02*
X117373272Y-113979243D01*
X117141044Y-113166443D02*
X116870111Y-113979243D01*
X116870111Y-113979243D02*
X116599177Y-113166443D01*
X116328244Y-113901834D02*
X116289539Y-113940539D01*
X116289539Y-113940539D02*
X116328244Y-113979243D01*
X116328244Y-113979243D02*
X116366948Y-113940539D01*
X116366948Y-113940539D02*
X116328244Y-113901834D01*
X116328244Y-113901834D02*
X116328244Y-113979243D01*
X116328244Y-113476081D02*
X116289539Y-113514786D01*
X116289539Y-113514786D02*
X116328244Y-113553491D01*
X116328244Y-113553491D02*
X116366948Y-113514786D01*
X116366948Y-113514786D02*
X116328244Y-113476081D01*
X116328244Y-113476081D02*
X116328244Y-113553491D01*
X115360624Y-113747015D02*
X114973577Y-113747015D01*
X115438034Y-113979243D02*
X115167101Y-113166443D01*
X115167101Y-113166443D02*
X114896167Y-113979243D01*
X114625234Y-113979243D02*
X114625234Y-113166443D01*
X114625234Y-113166443D02*
X114431710Y-113166443D01*
X114431710Y-113166443D02*
X114315596Y-113205148D01*
X114315596Y-113205148D02*
X114238186Y-113282558D01*
X114238186Y-113282558D02*
X114199481Y-113359967D01*
X114199481Y-113359967D02*
X114160777Y-113514786D01*
X114160777Y-113514786D02*
X114160777Y-113630900D01*
X114160777Y-113630900D02*
X114199481Y-113785719D01*
X114199481Y-113785719D02*
X114238186Y-113863129D01*
X114238186Y-113863129D02*
X114315596Y-113940539D01*
X114315596Y-113940539D02*
X114431710Y-113979243D01*
X114431710Y-113979243D02*
X114625234Y-113979243D01*
X113347977Y-113901834D02*
X113386681Y-113940539D01*
X113386681Y-113940539D02*
X113502796Y-113979243D01*
X113502796Y-113979243D02*
X113580205Y-113979243D01*
X113580205Y-113979243D02*
X113696319Y-113940539D01*
X113696319Y-113940539D02*
X113773729Y-113863129D01*
X113773729Y-113863129D02*
X113812434Y-113785719D01*
X113812434Y-113785719D02*
X113851138Y-113630900D01*
X113851138Y-113630900D02*
X113851138Y-113514786D01*
X113851138Y-113514786D02*
X113812434Y-113359967D01*
X113812434Y-113359967D02*
X113773729Y-113282558D01*
X113773729Y-113282558D02*
X113696319Y-113205148D01*
X113696319Y-113205148D02*
X113580205Y-113166443D01*
X113580205Y-113166443D02*
X113502796Y-113166443D01*
X113502796Y-113166443D02*
X113386681Y-113205148D01*
X113386681Y-113205148D02*
X113347977Y-113243853D01*
X113038338Y-113243853D02*
X112999634Y-113205148D01*
X112999634Y-113205148D02*
X112922224Y-113166443D01*
X112922224Y-113166443D02*
X112728700Y-113166443D01*
X112728700Y-113166443D02*
X112651291Y-113205148D01*
X112651291Y-113205148D02*
X112612586Y-113243853D01*
X112612586Y-113243853D02*
X112573881Y-113321262D01*
X112573881Y-113321262D02*
X112573881Y-113398672D01*
X112573881Y-113398672D02*
X112612586Y-113514786D01*
X112612586Y-113514786D02*
X113077043Y-113979243D01*
X113077043Y-113979243D02*
X112573881Y-113979243D01*
X111374034Y-114288881D02*
X111412739Y-114250177D01*
X111412739Y-114250177D02*
X111490148Y-114134062D01*
X111490148Y-114134062D02*
X111528853Y-114056653D01*
X111528853Y-114056653D02*
X111567558Y-113940539D01*
X111567558Y-113940539D02*
X111606263Y-113747015D01*
X111606263Y-113747015D02*
X111606263Y-113592196D01*
X111606263Y-113592196D02*
X111567558Y-113398672D01*
X111567558Y-113398672D02*
X111528853Y-113282558D01*
X111528853Y-113282558D02*
X111490148Y-113205148D01*
X111490148Y-113205148D02*
X111412739Y-113089034D01*
X111412739Y-113089034D02*
X111374034Y-113050329D01*
X110638643Y-113205148D02*
X110716053Y-113166443D01*
X110716053Y-113166443D02*
X110832167Y-113166443D01*
X110832167Y-113166443D02*
X110948281Y-113205148D01*
X110948281Y-113205148D02*
X111025691Y-113282558D01*
X111025691Y-113282558D02*
X111064396Y-113359967D01*
X111064396Y-113359967D02*
X111103100Y-113514786D01*
X111103100Y-113514786D02*
X111103100Y-113630900D01*
X111103100Y-113630900D02*
X111064396Y-113785719D01*
X111064396Y-113785719D02*
X111025691Y-113863129D01*
X111025691Y-113863129D02*
X110948281Y-113940539D01*
X110948281Y-113940539D02*
X110832167Y-113979243D01*
X110832167Y-113979243D02*
X110754758Y-113979243D01*
X110754758Y-113979243D02*
X110638643Y-113940539D01*
X110638643Y-113940539D02*
X110599939Y-113901834D01*
X110599939Y-113901834D02*
X110599939Y-113630900D01*
X110599939Y-113630900D02*
X110754758Y-113630900D01*
X110251596Y-113979243D02*
X110251596Y-113166443D01*
X110251596Y-113166443D02*
X109941958Y-113166443D01*
X109941958Y-113166443D02*
X109864548Y-113205148D01*
X109864548Y-113205148D02*
X109825843Y-113243853D01*
X109825843Y-113243853D02*
X109787139Y-113321262D01*
X109787139Y-113321262D02*
X109787139Y-113437377D01*
X109787139Y-113437377D02*
X109825843Y-113514786D01*
X109825843Y-113514786D02*
X109864548Y-113553491D01*
X109864548Y-113553491D02*
X109941958Y-113592196D01*
X109941958Y-113592196D02*
X110251596Y-113592196D01*
X109477500Y-113243853D02*
X109438796Y-113205148D01*
X109438796Y-113205148D02*
X109361386Y-113166443D01*
X109361386Y-113166443D02*
X109167862Y-113166443D01*
X109167862Y-113166443D02*
X109090453Y-113205148D01*
X109090453Y-113205148D02*
X109051748Y-113243853D01*
X109051748Y-113243853D02*
X109013043Y-113321262D01*
X109013043Y-113321262D02*
X109013043Y-113398672D01*
X109013043Y-113398672D02*
X109051748Y-113514786D01*
X109051748Y-113514786D02*
X109516205Y-113979243D01*
X109516205Y-113979243D02*
X109013043Y-113979243D01*
X108548586Y-113514786D02*
X108625996Y-113476081D01*
X108625996Y-113476081D02*
X108664701Y-113437377D01*
X108664701Y-113437377D02*
X108703405Y-113359967D01*
X108703405Y-113359967D02*
X108703405Y-113321262D01*
X108703405Y-113321262D02*
X108664701Y-113243853D01*
X108664701Y-113243853D02*
X108625996Y-113205148D01*
X108625996Y-113205148D02*
X108548586Y-113166443D01*
X108548586Y-113166443D02*
X108393767Y-113166443D01*
X108393767Y-113166443D02*
X108316358Y-113205148D01*
X108316358Y-113205148D02*
X108277653Y-113243853D01*
X108277653Y-113243853D02*
X108238948Y-113321262D01*
X108238948Y-113321262D02*
X108238948Y-113359967D01*
X108238948Y-113359967D02*
X108277653Y-113437377D01*
X108277653Y-113437377D02*
X108316358Y-113476081D01*
X108316358Y-113476081D02*
X108393767Y-113514786D01*
X108393767Y-113514786D02*
X108548586Y-113514786D01*
X108548586Y-113514786D02*
X108625996Y-113553491D01*
X108625996Y-113553491D02*
X108664701Y-113592196D01*
X108664701Y-113592196D02*
X108703405Y-113669605D01*
X108703405Y-113669605D02*
X108703405Y-113824424D01*
X108703405Y-113824424D02*
X108664701Y-113901834D01*
X108664701Y-113901834D02*
X108625996Y-113940539D01*
X108625996Y-113940539D02*
X108548586Y-113979243D01*
X108548586Y-113979243D02*
X108393767Y-113979243D01*
X108393767Y-113979243D02*
X108316358Y-113940539D01*
X108316358Y-113940539D02*
X108277653Y-113901834D01*
X108277653Y-113901834D02*
X108238948Y-113824424D01*
X108238948Y-113824424D02*
X108238948Y-113669605D01*
X108238948Y-113669605D02*
X108277653Y-113592196D01*
X108277653Y-113592196D02*
X108316358Y-113553491D01*
X108316358Y-113553491D02*
X108393767Y-113514786D01*
X107968015Y-114288881D02*
X107929310Y-114250177D01*
X107929310Y-114250177D02*
X107851901Y-114134062D01*
X107851901Y-114134062D02*
X107813196Y-114056653D01*
X107813196Y-114056653D02*
X107774491Y-113940539D01*
X107774491Y-113940539D02*
X107735787Y-113747015D01*
X107735787Y-113747015D02*
X107735787Y-113592196D01*
X107735787Y-113592196D02*
X107774491Y-113398672D01*
X107774491Y-113398672D02*
X107813196Y-113282558D01*
X107813196Y-113282558D02*
X107851901Y-113205148D01*
X107851901Y-113205148D02*
X107929310Y-113089034D01*
X107929310Y-113089034D02*
X107968015Y-113050329D01*
D11*
X196333904Y-115024819D02*
X195762476Y-115024819D01*
X196048190Y-116024819D02*
X196048190Y-115024819D01*
X195429142Y-116024819D02*
X195429142Y-115024819D01*
X195429142Y-115024819D02*
X195048190Y-115024819D01*
X195048190Y-115024819D02*
X194952952Y-115072438D01*
X194952952Y-115072438D02*
X194905333Y-115120057D01*
X194905333Y-115120057D02*
X194857714Y-115215295D01*
X194857714Y-115215295D02*
X194857714Y-115358152D01*
X194857714Y-115358152D02*
X194905333Y-115453390D01*
X194905333Y-115453390D02*
X194952952Y-115501009D01*
X194952952Y-115501009D02*
X195048190Y-115548628D01*
X195048190Y-115548628D02*
X195429142Y-115548628D01*
X193905333Y-116024819D02*
X194476761Y-116024819D01*
X194191047Y-116024819D02*
X194191047Y-115024819D01*
X194191047Y-115024819D02*
X194286285Y-115167676D01*
X194286285Y-115167676D02*
X194381523Y-115262914D01*
X194381523Y-115262914D02*
X194476761Y-115310533D01*
X167817580Y-115784333D02*
X167865200Y-115736714D01*
X167865200Y-115736714D02*
X167912819Y-115593857D01*
X167912819Y-115593857D02*
X167912819Y-115498619D01*
X167912819Y-115498619D02*
X167865200Y-115355762D01*
X167865200Y-115355762D02*
X167769961Y-115260524D01*
X167769961Y-115260524D02*
X167674723Y-115212905D01*
X167674723Y-115212905D02*
X167484247Y-115165286D01*
X167484247Y-115165286D02*
X167341390Y-115165286D01*
X167341390Y-115165286D02*
X167150914Y-115212905D01*
X167150914Y-115212905D02*
X167055676Y-115260524D01*
X167055676Y-115260524D02*
X166960438Y-115355762D01*
X166960438Y-115355762D02*
X166912819Y-115498619D01*
X166912819Y-115498619D02*
X166912819Y-115593857D01*
X166912819Y-115593857D02*
X166960438Y-115736714D01*
X166960438Y-115736714D02*
X167008057Y-115784333D01*
X166912819Y-116117667D02*
X166912819Y-116736714D01*
X166912819Y-116736714D02*
X167293771Y-116403381D01*
X167293771Y-116403381D02*
X167293771Y-116546238D01*
X167293771Y-116546238D02*
X167341390Y-116641476D01*
X167341390Y-116641476D02*
X167389009Y-116689095D01*
X167389009Y-116689095D02*
X167484247Y-116736714D01*
X167484247Y-116736714D02*
X167722342Y-116736714D01*
X167722342Y-116736714D02*
X167817580Y-116689095D01*
X167817580Y-116689095D02*
X167865200Y-116641476D01*
X167865200Y-116641476D02*
X167912819Y-116546238D01*
X167912819Y-116546238D02*
X167912819Y-116260524D01*
X167912819Y-116260524D02*
X167865200Y-116165286D01*
X167865200Y-116165286D02*
X167817580Y-116117667D01*
X105830666Y-99419580D02*
X105878285Y-99467200D01*
X105878285Y-99467200D02*
X106021142Y-99514819D01*
X106021142Y-99514819D02*
X106116380Y-99514819D01*
X106116380Y-99514819D02*
X106259237Y-99467200D01*
X106259237Y-99467200D02*
X106354475Y-99371961D01*
X106354475Y-99371961D02*
X106402094Y-99276723D01*
X106402094Y-99276723D02*
X106449713Y-99086247D01*
X106449713Y-99086247D02*
X106449713Y-98943390D01*
X106449713Y-98943390D02*
X106402094Y-98752914D01*
X106402094Y-98752914D02*
X106354475Y-98657676D01*
X106354475Y-98657676D02*
X106259237Y-98562438D01*
X106259237Y-98562438D02*
X106116380Y-98514819D01*
X106116380Y-98514819D02*
X106021142Y-98514819D01*
X106021142Y-98514819D02*
X105878285Y-98562438D01*
X105878285Y-98562438D02*
X105830666Y-98610057D01*
X104973523Y-98848152D02*
X104973523Y-99514819D01*
X105211618Y-98467200D02*
X105449713Y-99181485D01*
X105449713Y-99181485D02*
X104830666Y-99181485D01*
X158789666Y-113262580D02*
X158837285Y-113310200D01*
X158837285Y-113310200D02*
X158980142Y-113357819D01*
X158980142Y-113357819D02*
X159075380Y-113357819D01*
X159075380Y-113357819D02*
X159218237Y-113310200D01*
X159218237Y-113310200D02*
X159313475Y-113214961D01*
X159313475Y-113214961D02*
X159361094Y-113119723D01*
X159361094Y-113119723D02*
X159408713Y-112929247D01*
X159408713Y-112929247D02*
X159408713Y-112786390D01*
X159408713Y-112786390D02*
X159361094Y-112595914D01*
X159361094Y-112595914D02*
X159313475Y-112500676D01*
X159313475Y-112500676D02*
X159218237Y-112405438D01*
X159218237Y-112405438D02*
X159075380Y-112357819D01*
X159075380Y-112357819D02*
X158980142Y-112357819D01*
X158980142Y-112357819D02*
X158837285Y-112405438D01*
X158837285Y-112405438D02*
X158789666Y-112453057D01*
X157932523Y-112357819D02*
X158122999Y-112357819D01*
X158122999Y-112357819D02*
X158218237Y-112405438D01*
X158218237Y-112405438D02*
X158265856Y-112453057D01*
X158265856Y-112453057D02*
X158361094Y-112595914D01*
X158361094Y-112595914D02*
X158408713Y-112786390D01*
X158408713Y-112786390D02*
X158408713Y-113167342D01*
X158408713Y-113167342D02*
X158361094Y-113262580D01*
X158361094Y-113262580D02*
X158313475Y-113310200D01*
X158313475Y-113310200D02*
X158218237Y-113357819D01*
X158218237Y-113357819D02*
X158027761Y-113357819D01*
X158027761Y-113357819D02*
X157932523Y-113310200D01*
X157932523Y-113310200D02*
X157884904Y-113262580D01*
X157884904Y-113262580D02*
X157837285Y-113167342D01*
X157837285Y-113167342D02*
X157837285Y-112929247D01*
X157837285Y-112929247D02*
X157884904Y-112834009D01*
X157884904Y-112834009D02*
X157932523Y-112786390D01*
X157932523Y-112786390D02*
X158027761Y-112738771D01*
X158027761Y-112738771D02*
X158218237Y-112738771D01*
X158218237Y-112738771D02*
X158313475Y-112786390D01*
X158313475Y-112786390D02*
X158361094Y-112834009D01*
X158361094Y-112834009D02*
X158408713Y-112929247D01*
D12*
X125860870Y-79124870D02*
X125860870Y-79227501D01*
X125860870Y-79227501D02*
X125963501Y-79227501D01*
X125963501Y-79227501D02*
X125963501Y-79124870D01*
X125963501Y-79124870D02*
X125860870Y-79124870D01*
X125860870Y-79124870D02*
X125963501Y-79227501D01*
D11*
X194817904Y-66002819D02*
X194817904Y-66812342D01*
X194817904Y-66812342D02*
X194770285Y-66907580D01*
X194770285Y-66907580D02*
X194722666Y-66955200D01*
X194722666Y-66955200D02*
X194627428Y-67002819D01*
X194627428Y-67002819D02*
X194436952Y-67002819D01*
X194436952Y-67002819D02*
X194341714Y-66955200D01*
X194341714Y-66955200D02*
X194294095Y-66907580D01*
X194294095Y-66907580D02*
X194246476Y-66812342D01*
X194246476Y-66812342D02*
X194246476Y-66002819D01*
X193865523Y-66002819D02*
X193198857Y-66002819D01*
X193198857Y-66002819D02*
X193627428Y-67002819D01*
X150407666Y-113135580D02*
X150455285Y-113183200D01*
X150455285Y-113183200D02*
X150598142Y-113230819D01*
X150598142Y-113230819D02*
X150693380Y-113230819D01*
X150693380Y-113230819D02*
X150836237Y-113183200D01*
X150836237Y-113183200D02*
X150931475Y-113087961D01*
X150931475Y-113087961D02*
X150979094Y-112992723D01*
X150979094Y-112992723D02*
X151026713Y-112802247D01*
X151026713Y-112802247D02*
X151026713Y-112659390D01*
X151026713Y-112659390D02*
X150979094Y-112468914D01*
X150979094Y-112468914D02*
X150931475Y-112373676D01*
X150931475Y-112373676D02*
X150836237Y-112278438D01*
X150836237Y-112278438D02*
X150693380Y-112230819D01*
X150693380Y-112230819D02*
X150598142Y-112230819D01*
X150598142Y-112230819D02*
X150455285Y-112278438D01*
X150455285Y-112278438D02*
X150407666Y-112326057D01*
X149455285Y-113230819D02*
X150026713Y-113230819D01*
X149740999Y-113230819D02*
X149740999Y-112230819D01*
X149740999Y-112230819D02*
X149836237Y-112373676D01*
X149836237Y-112373676D02*
X149931475Y-112468914D01*
X149931475Y-112468914D02*
X150026713Y-112516533D01*
X162218666Y-99347580D02*
X162266285Y-99395200D01*
X162266285Y-99395200D02*
X162409142Y-99442819D01*
X162409142Y-99442819D02*
X162504380Y-99442819D01*
X162504380Y-99442819D02*
X162647237Y-99395200D01*
X162647237Y-99395200D02*
X162742475Y-99299961D01*
X162742475Y-99299961D02*
X162790094Y-99204723D01*
X162790094Y-99204723D02*
X162837713Y-99014247D01*
X162837713Y-99014247D02*
X162837713Y-98871390D01*
X162837713Y-98871390D02*
X162790094Y-98680914D01*
X162790094Y-98680914D02*
X162742475Y-98585676D01*
X162742475Y-98585676D02*
X162647237Y-98490438D01*
X162647237Y-98490438D02*
X162504380Y-98442819D01*
X162504380Y-98442819D02*
X162409142Y-98442819D01*
X162409142Y-98442819D02*
X162266285Y-98490438D01*
X162266285Y-98490438D02*
X162218666Y-98538057D01*
X161885332Y-98442819D02*
X161218666Y-98442819D01*
X161218666Y-98442819D02*
X161647237Y-99442819D01*
X169751333Y-65494819D02*
X169751333Y-66209104D01*
X169751333Y-66209104D02*
X169798952Y-66351961D01*
X169798952Y-66351961D02*
X169894190Y-66447200D01*
X169894190Y-66447200D02*
X170037047Y-66494819D01*
X170037047Y-66494819D02*
X170132285Y-66494819D01*
X168846571Y-65828152D02*
X168846571Y-66494819D01*
X169084666Y-65447200D02*
X169322761Y-66161485D01*
X169322761Y-66161485D02*
X168703714Y-66161485D01*
X174190819Y-98417142D02*
X173714628Y-98083809D01*
X174190819Y-97845714D02*
X173190819Y-97845714D01*
X173190819Y-97845714D02*
X173190819Y-98226666D01*
X173190819Y-98226666D02*
X173238438Y-98321904D01*
X173238438Y-98321904D02*
X173286057Y-98369523D01*
X173286057Y-98369523D02*
X173381295Y-98417142D01*
X173381295Y-98417142D02*
X173524152Y-98417142D01*
X173524152Y-98417142D02*
X173619390Y-98369523D01*
X173619390Y-98369523D02*
X173667009Y-98321904D01*
X173667009Y-98321904D02*
X173714628Y-98226666D01*
X173714628Y-98226666D02*
X173714628Y-97845714D01*
X174190819Y-99369523D02*
X174190819Y-98798095D01*
X174190819Y-99083809D02*
X173190819Y-99083809D01*
X173190819Y-99083809D02*
X173333676Y-98988571D01*
X173333676Y-98988571D02*
X173428914Y-98893333D01*
X173428914Y-98893333D02*
X173476533Y-98798095D01*
X174190819Y-100321904D02*
X174190819Y-99750476D01*
X174190819Y-100036190D02*
X173190819Y-100036190D01*
X173190819Y-100036190D02*
X173333676Y-99940952D01*
X173333676Y-99940952D02*
X173428914Y-99845714D01*
X173428914Y-99845714D02*
X173476533Y-99750476D01*
X105830666Y-111357580D02*
X105878285Y-111405200D01*
X105878285Y-111405200D02*
X106021142Y-111452819D01*
X106021142Y-111452819D02*
X106116380Y-111452819D01*
X106116380Y-111452819D02*
X106259237Y-111405200D01*
X106259237Y-111405200D02*
X106354475Y-111309961D01*
X106354475Y-111309961D02*
X106402094Y-111214723D01*
X106402094Y-111214723D02*
X106449713Y-111024247D01*
X106449713Y-111024247D02*
X106449713Y-110881390D01*
X106449713Y-110881390D02*
X106402094Y-110690914D01*
X106402094Y-110690914D02*
X106354475Y-110595676D01*
X106354475Y-110595676D02*
X106259237Y-110500438D01*
X106259237Y-110500438D02*
X106116380Y-110452819D01*
X106116380Y-110452819D02*
X106021142Y-110452819D01*
X106021142Y-110452819D02*
X105878285Y-110500438D01*
X105878285Y-110500438D02*
X105830666Y-110548057D01*
X104925904Y-110452819D02*
X105402094Y-110452819D01*
X105402094Y-110452819D02*
X105449713Y-110929009D01*
X105449713Y-110929009D02*
X105402094Y-110881390D01*
X105402094Y-110881390D02*
X105306856Y-110833771D01*
X105306856Y-110833771D02*
X105068761Y-110833771D01*
X105068761Y-110833771D02*
X104973523Y-110881390D01*
X104973523Y-110881390D02*
X104925904Y-110929009D01*
X104925904Y-110929009D02*
X104878285Y-111024247D01*
X104878285Y-111024247D02*
X104878285Y-111262342D01*
X104878285Y-111262342D02*
X104925904Y-111357580D01*
X104925904Y-111357580D02*
X104973523Y-111405200D01*
X104973523Y-111405200D02*
X105068761Y-111452819D01*
X105068761Y-111452819D02*
X105306856Y-111452819D01*
X105306856Y-111452819D02*
X105402094Y-111405200D01*
X105402094Y-111405200D02*
X105449713Y-111357580D01*
X176730819Y-98290142D02*
X176254628Y-97956809D01*
X176730819Y-97718714D02*
X175730819Y-97718714D01*
X175730819Y-97718714D02*
X175730819Y-98099666D01*
X175730819Y-98099666D02*
X175778438Y-98194904D01*
X175778438Y-98194904D02*
X175826057Y-98242523D01*
X175826057Y-98242523D02*
X175921295Y-98290142D01*
X175921295Y-98290142D02*
X176064152Y-98290142D01*
X176064152Y-98290142D02*
X176159390Y-98242523D01*
X176159390Y-98242523D02*
X176207009Y-98194904D01*
X176207009Y-98194904D02*
X176254628Y-98099666D01*
X176254628Y-98099666D02*
X176254628Y-97718714D01*
X176730819Y-99242523D02*
X176730819Y-98671095D01*
X176730819Y-98956809D02*
X175730819Y-98956809D01*
X175730819Y-98956809D02*
X175873676Y-98861571D01*
X175873676Y-98861571D02*
X175968914Y-98766333D01*
X175968914Y-98766333D02*
X176016533Y-98671095D01*
X175730819Y-99861571D02*
X175730819Y-99956809D01*
X175730819Y-99956809D02*
X175778438Y-100052047D01*
X175778438Y-100052047D02*
X175826057Y-100099666D01*
X175826057Y-100099666D02*
X175921295Y-100147285D01*
X175921295Y-100147285D02*
X176111771Y-100194904D01*
X176111771Y-100194904D02*
X176349866Y-100194904D01*
X176349866Y-100194904D02*
X176540342Y-100147285D01*
X176540342Y-100147285D02*
X176635580Y-100099666D01*
X176635580Y-100099666D02*
X176683200Y-100052047D01*
X176683200Y-100052047D02*
X176730819Y-99956809D01*
X176730819Y-99956809D02*
X176730819Y-99861571D01*
X176730819Y-99861571D02*
X176683200Y-99766333D01*
X176683200Y-99766333D02*
X176635580Y-99718714D01*
X176635580Y-99718714D02*
X176540342Y-99671095D01*
X176540342Y-99671095D02*
X176349866Y-99623476D01*
X176349866Y-99623476D02*
X176111771Y-99623476D01*
X176111771Y-99623476D02*
X175921295Y-99671095D01*
X175921295Y-99671095D02*
X175826057Y-99718714D01*
X175826057Y-99718714D02*
X175778438Y-99766333D01*
X175778438Y-99766333D02*
X175730819Y-99861571D01*
D13*
%TO.C,TP1*%
X197184500Y-118800000D02*
X197184500Y-118770000D01*
X197184500Y-114270000D02*
X197184500Y-116870000D01*
X197184500Y-112370000D02*
X197184500Y-112340000D01*
%TO.C,C3*%
X164698000Y-116662252D02*
X164698000Y-115239748D01*
X166518000Y-116662252D02*
X166518000Y-115239748D01*
%TO.C,C4*%
X102463000Y-99771252D02*
X102463000Y-98348748D01*
X104283000Y-99771252D02*
X104283000Y-98348748D01*
%TO.C,C6*%
X159533000Y-115366748D02*
X159533000Y-116789252D01*
X157713000Y-115366748D02*
X157713000Y-116789252D01*
%TO.C,.*%
G36*
X134364178Y-71100864D02*
G01*
X134032497Y-71432545D01*
X133369135Y-70769184D01*
X133700816Y-70437503D01*
X134364178Y-71100864D01*
G37*
G36*
X132705774Y-69442460D02*
G01*
X132374093Y-69774142D01*
X131710731Y-69110780D01*
X132042413Y-68779099D01*
X132705774Y-69442460D01*
G37*
G36*
X133369135Y-70769184D02*
G01*
X133037455Y-71100864D01*
X132705774Y-70769184D01*
X133037455Y-70437503D01*
X133369135Y-70769184D01*
G37*
G36*
X132705773Y-70105822D02*
G01*
X132374093Y-70437503D01*
X132042413Y-70105822D01*
X132374093Y-69774142D01*
X132705773Y-70105822D01*
G37*
G36*
X132705774Y-70769184D02*
G01*
X132374094Y-71100864D01*
X132042413Y-70769183D01*
X132374093Y-70437503D01*
X132705774Y-70769184D01*
G37*
G36*
X132705774Y-71432545D02*
G01*
X132374093Y-71764226D01*
X132042413Y-71432545D01*
X132374094Y-71100864D01*
X132705774Y-71432545D01*
G37*
G36*
X132042413Y-70769183D02*
G01*
X131710731Y-71100864D01*
X131379051Y-70769184D01*
X131710732Y-70437503D01*
X132042413Y-70769183D01*
G37*
G36*
X133037455Y-72427587D02*
G01*
X132705774Y-72759268D01*
X132042413Y-72095906D01*
X132374093Y-71764226D01*
X133037455Y-72427587D01*
G37*
G36*
X131379051Y-70769184D02*
G01*
X131047371Y-71100864D01*
X130384009Y-70437503D01*
X130715689Y-70105822D01*
X131379051Y-70769184D01*
G37*
G36*
X132374094Y-65793973D02*
G01*
X129057286Y-69110780D01*
X128725605Y-68779099D01*
X132042413Y-65462291D01*
X132374094Y-65793973D01*
G37*
G36*
X132042413Y-72759269D02*
G01*
X131710732Y-73090949D01*
X130715689Y-72095906D01*
X131047370Y-71764226D01*
X132042413Y-72759269D01*
G37*
G36*
X128725605Y-69442461D02*
G01*
X127730563Y-70437503D01*
X127398882Y-70105822D01*
X128393924Y-69110780D01*
X128725605Y-69442461D01*
G37*
G36*
X132042413Y-73422629D02*
G01*
X131047371Y-74417672D01*
X130715690Y-74085991D01*
X131710732Y-73090949D01*
X132042413Y-73422629D01*
G37*
G36*
X130715690Y-74085991D02*
G01*
X130384009Y-74417672D01*
X129388966Y-73422629D01*
X129720647Y-73090948D01*
X130715690Y-74085991D01*
G37*
G36*
X127398883Y-70769184D02*
G01*
X125740479Y-72427587D01*
X125408798Y-72095906D01*
X127067201Y-70437503D01*
X127398883Y-70769184D01*
G37*
G36*
X125408798Y-72759269D02*
G01*
X124082075Y-74085991D01*
X123750394Y-73754310D01*
X125077117Y-72427587D01*
X125408798Y-72759269D01*
G37*
G36*
X124745436Y-78729522D02*
G01*
X124413756Y-79061202D01*
X124082075Y-78729521D01*
X124413755Y-78397841D01*
X124745436Y-78729522D01*
G37*
G36*
X123750394Y-74417672D02*
G01*
X121096948Y-77071118D01*
X120765267Y-76739437D01*
X123418713Y-74085991D01*
X123750394Y-74417672D01*
G37*
G36*
X118443503Y-81714648D02*
G01*
X117116779Y-83041371D01*
X116453418Y-82378010D01*
X117780141Y-81051286D01*
X118443503Y-81714648D01*
G37*
G36*
X118775183Y-87021540D02*
G01*
X118609342Y-87187381D01*
X118443502Y-87021540D01*
X118609342Y-86855700D01*
X118775183Y-87021540D01*
G37*
G36*
X115955897Y-84202254D02*
G01*
X115790056Y-84368094D01*
X115624215Y-84202254D01*
X115790056Y-84036413D01*
X115955897Y-84202254D01*
G37*
G36*
X116785098Y-87353221D02*
G01*
X116121737Y-88016582D01*
X115790056Y-87684902D01*
X116453418Y-87021540D01*
X116785098Y-87353221D01*
G37*
G36*
X115790056Y-86358179D02*
G01*
X115126694Y-87021540D01*
X114795014Y-86689860D01*
X115458376Y-86026498D01*
X115790056Y-86358179D01*
G37*
G36*
X140997793Y-72427587D02*
G01*
X140666112Y-72759268D01*
X138841868Y-70935024D01*
X139007708Y-70769184D01*
X138841867Y-70603343D01*
X139007708Y-70437503D01*
X140997793Y-72427587D01*
G37*
G36*
X140334431Y-73090949D02*
G01*
X140002751Y-73422629D01*
X138178506Y-71598385D01*
X138344347Y-71432545D01*
X138178506Y-71266704D01*
X138344346Y-71100864D01*
X140334431Y-73090949D01*
G37*
G36*
X139671069Y-73754311D02*
G01*
X139339389Y-74085991D01*
X137515145Y-72261747D01*
X137680985Y-72095906D01*
X137515145Y-71930066D01*
X137680985Y-71764226D01*
X139671069Y-73754311D01*
G37*
G36*
X139007709Y-74417672D02*
G01*
X138676027Y-74749353D01*
X136851783Y-72925108D01*
X137017624Y-72759268D01*
X136851783Y-72593427D01*
X137017624Y-72427587D01*
X139007709Y-74417672D01*
G37*
G36*
X138344347Y-75081033D02*
G01*
X138012666Y-75412714D01*
X136188421Y-73588470D01*
X136354262Y-73422629D01*
X136188421Y-73256789D01*
X136354262Y-73090948D01*
X138344347Y-75081033D01*
G37*
G36*
X137680985Y-75744395D02*
G01*
X137349305Y-76076075D01*
X135525061Y-74251831D01*
X135690900Y-74085991D01*
X135525060Y-73920151D01*
X135690900Y-73754310D01*
X137680985Y-75744395D01*
G37*
G36*
X137017624Y-76407756D02*
G01*
X136685943Y-76739437D01*
X134861699Y-74915193D01*
X135027540Y-74749352D01*
X134861699Y-74583511D01*
X135027539Y-74417672D01*
X137017624Y-76407756D01*
G37*
G36*
X136354262Y-77071118D02*
G01*
X136022582Y-77402799D01*
X134198337Y-75578554D01*
X134364178Y-75412714D01*
X134198337Y-75246873D01*
X134364177Y-75081033D01*
X136354262Y-77071118D01*
G37*
G36*
X135690901Y-77734479D02*
G01*
X135359220Y-78066160D01*
X133534976Y-76241916D01*
X133700816Y-76076075D01*
X133534976Y-75910235D01*
X133700816Y-75744394D01*
X135690901Y-77734479D01*
G37*
G36*
X135027540Y-78397841D02*
G01*
X134695858Y-78729522D01*
X132871614Y-76905277D01*
X133037455Y-76739437D01*
X132871614Y-76573596D01*
X133037455Y-76407756D01*
X135027540Y-78397841D01*
G37*
G36*
X134364178Y-79061202D02*
G01*
X134032497Y-79392883D01*
X132208253Y-77568638D01*
X132374093Y-77402799D01*
X132208252Y-77236958D01*
X132374093Y-77071117D01*
X134364178Y-79061202D01*
G37*
G36*
X133700816Y-79724564D02*
G01*
X133369136Y-80056244D01*
X131544892Y-78232000D01*
X131710731Y-78066160D01*
X131544891Y-77900320D01*
X131710731Y-77734479D01*
X133700816Y-79724564D01*
G37*
G36*
X133037455Y-80387925D02*
G01*
X132705774Y-80719606D01*
X130881530Y-78895362D01*
X131047371Y-78729521D01*
X130881530Y-78563680D01*
X131047370Y-78397841D01*
X133037455Y-80387925D01*
G37*
G36*
X132374094Y-81051286D02*
G01*
X132042413Y-81382968D01*
X130218168Y-79558723D01*
X130384009Y-79392883D01*
X130218168Y-79227042D01*
X130384009Y-79061201D01*
X132374094Y-81051286D01*
G37*
G36*
X131710732Y-81714648D02*
G01*
X131379051Y-82046329D01*
X129554807Y-80222085D01*
X129720647Y-80056244D01*
X129554807Y-79890404D01*
X129720647Y-79724563D01*
X131710732Y-81714648D01*
G37*
G36*
X131047371Y-82378010D02*
G01*
X130715690Y-82709690D01*
X128891446Y-80885446D01*
X129057286Y-80719606D01*
X128891445Y-80553765D01*
X129057286Y-80387925D01*
X131047371Y-82378010D01*
G37*
G36*
X130384009Y-83041371D02*
G01*
X130052328Y-83373052D01*
X128228084Y-81548807D01*
X128393924Y-81382968D01*
X128228083Y-81217127D01*
X128393924Y-81051286D01*
X130384009Y-83041371D01*
G37*
G36*
X129720647Y-83704733D02*
G01*
X129388967Y-84036413D01*
X127564723Y-82212169D01*
X127730563Y-82046328D01*
X127564723Y-81880488D01*
X127730562Y-81714648D01*
X129720647Y-83704733D01*
G37*
G36*
X129057286Y-84368094D02*
G01*
X128725605Y-84699775D01*
X126901361Y-82875531D01*
X127067201Y-82709690D01*
X126901361Y-82543849D01*
X127067201Y-82378009D01*
X129057286Y-84368094D01*
G37*
G36*
X128393925Y-85031455D02*
G01*
X128062244Y-85363137D01*
X126237999Y-83538892D01*
X126403840Y-83373052D01*
X126237999Y-83207211D01*
X126403840Y-83041371D01*
X128393925Y-85031455D01*
G37*
G36*
X127730563Y-85694817D02*
G01*
X127398882Y-86026498D01*
X125574638Y-84202254D01*
X125740478Y-84036413D01*
X125574638Y-83870573D01*
X125740478Y-83704732D01*
X127730563Y-85694817D01*
G37*
G36*
X127067201Y-86358179D02*
G01*
X126735521Y-86689859D01*
X124911277Y-84865615D01*
X125077117Y-84699775D01*
X124911276Y-84533934D01*
X125077117Y-84368094D01*
X127067201Y-86358179D01*
G37*
G36*
X126403840Y-87021540D02*
G01*
X126072159Y-87353221D01*
X124247915Y-85528976D01*
X124413756Y-85363136D01*
X124247915Y-85197295D01*
X124413755Y-85031455D01*
X126403840Y-87021540D01*
G37*
G36*
X125740478Y-87684902D02*
G01*
X125408798Y-88016582D01*
X123584554Y-86192338D01*
X123750394Y-86026497D01*
X123584554Y-85860657D01*
X123750393Y-85694817D01*
X125740478Y-87684902D01*
G37*
G36*
X125077117Y-88348263D02*
G01*
X124745436Y-88679944D01*
X122921192Y-86855700D01*
X123087032Y-86689859D01*
X122921192Y-86524018D01*
X123087032Y-86358178D01*
X125077117Y-88348263D01*
G37*
G36*
X124413756Y-89011624D02*
G01*
X124082075Y-89343306D01*
X122257830Y-87519061D01*
X122423671Y-87353221D01*
X122257830Y-87187380D01*
X122423671Y-87021540D01*
X124413756Y-89011624D01*
G37*
G36*
X123750394Y-89674986D02*
G01*
X123418714Y-90006666D01*
X121594469Y-88182422D01*
X121760309Y-88016582D01*
X121594469Y-87850742D01*
X121760309Y-87684901D01*
X123750394Y-89674986D01*
G37*
G36*
X123087032Y-90338348D02*
G01*
X122755352Y-90670028D01*
X120931108Y-88845784D01*
X121096948Y-88679943D01*
X120931108Y-88514103D01*
X121096948Y-88348263D01*
X123087032Y-90338348D01*
G37*
G36*
X122423671Y-91001709D02*
G01*
X122091990Y-91333390D01*
X120267746Y-89509145D01*
X120433587Y-89343305D01*
X120267746Y-89177464D01*
X120433586Y-89011624D01*
X122423671Y-91001709D01*
G37*
G36*
X121760310Y-91665070D02*
G01*
X121428629Y-91996751D01*
X119604385Y-90172507D01*
X119770225Y-90006666D01*
X119604385Y-89840826D01*
X119770225Y-89674985D01*
X121760310Y-91665070D01*
G37*
G36*
X121096948Y-92328432D02*
G01*
X120765267Y-92660113D01*
X118941023Y-90835869D01*
X119106863Y-90670028D01*
X118941023Y-90504187D01*
X119106863Y-90338347D01*
X121096948Y-92328432D01*
G37*
G36*
X138510187Y-69939982D02*
G01*
X138676027Y-70105822D01*
X138012666Y-70769184D01*
X137349304Y-70105822D01*
X137680985Y-70105822D01*
X138012666Y-70437503D01*
X138344346Y-70105822D01*
X138012666Y-69774142D01*
X137680985Y-70105822D01*
X137349304Y-70105822D01*
X138012666Y-69442460D01*
X138510187Y-69939982D01*
G37*
G36*
X133534976Y-64964770D02*
G01*
X133700816Y-65130611D01*
X133037455Y-65793973D01*
X132374093Y-65130611D01*
X132705774Y-65130611D01*
X133037455Y-65462291D01*
X133369135Y-65130611D01*
X133037455Y-64798931D01*
X132705774Y-65130611D01*
X132374093Y-65130611D01*
X133037455Y-64467249D01*
X133534976Y-64964770D01*
G37*
G36*
X118941023Y-89509145D02*
G01*
X119106863Y-89674986D01*
X118443502Y-90338348D01*
X117780140Y-89674986D01*
X118111821Y-89674986D01*
X118443502Y-90006666D01*
X118775182Y-89674986D01*
X118443502Y-89343306D01*
X118111821Y-89674986D01*
X117780140Y-89674986D01*
X118443502Y-89011624D01*
X118941023Y-89509145D01*
G37*
G36*
X113965812Y-84533934D02*
G01*
X114131652Y-84699775D01*
X113468291Y-85363137D01*
X112804929Y-84699775D01*
X113136610Y-84699775D01*
X113468291Y-85031455D01*
X113799971Y-84699775D01*
X113468291Y-84368094D01*
X113136610Y-84699775D01*
X112804929Y-84699775D01*
X113468291Y-84036413D01*
X113965812Y-84533934D01*
G37*
G36*
X136022582Y-68779100D02*
G01*
X135690901Y-69110780D01*
X133369136Y-66789015D01*
X132374094Y-67784057D01*
X134695859Y-70105822D01*
X135690901Y-69110780D01*
X136022582Y-69442460D01*
X135027540Y-70437503D01*
X134695859Y-70105822D01*
X134364178Y-70437503D01*
X132042413Y-68115738D01*
X132374094Y-67784057D01*
X132042413Y-67452376D01*
X133037455Y-66457334D01*
X133369136Y-66789015D01*
X133700816Y-66457334D01*
X136022582Y-68779100D01*
G37*
G36*
X130715689Y-71432545D02*
G01*
X130384009Y-71764226D01*
X129388967Y-70769184D01*
X128393925Y-71764226D01*
X129388967Y-72759268D01*
X130384009Y-71764226D01*
X130715689Y-72095906D01*
X129720647Y-73090948D01*
X129388967Y-72759268D01*
X129057286Y-73090949D01*
X128062244Y-72095907D01*
X128393925Y-71764226D01*
X128062244Y-71432545D01*
X129057286Y-70437503D01*
X129388967Y-70769184D01*
X129720647Y-70437503D01*
X130715689Y-71432545D01*
G37*
G36*
X130052328Y-74749353D02*
G01*
X129720648Y-75081033D01*
X127398883Y-72759268D01*
X126403840Y-73754311D01*
X128725605Y-76076076D01*
X129720648Y-75081033D01*
X130052328Y-75412714D01*
X129057286Y-76407756D01*
X128725605Y-76076076D01*
X128393925Y-76407756D01*
X126072159Y-74085991D01*
X126403840Y-73754311D01*
X126072159Y-73422629D01*
X127067201Y-72427587D01*
X127398883Y-72759268D01*
X127730563Y-72427587D01*
X130052328Y-74749353D01*
G37*
G36*
X118941023Y-81548807D02*
G01*
X118775182Y-81714648D01*
X117780140Y-80719606D01*
X116121737Y-82378010D01*
X117116779Y-83373052D01*
X118775182Y-81714648D01*
X118941023Y-81880489D01*
X117282619Y-83538892D01*
X117116779Y-83373052D01*
X116950939Y-83538892D01*
X115955897Y-82543849D01*
X116121737Y-82378010D01*
X115955897Y-82212170D01*
X117614300Y-80553766D01*
X117780140Y-80719606D01*
X117945981Y-80553765D01*
X118941023Y-81548807D01*
G37*
G36*
X122091990Y-84036413D02*
G01*
X122423671Y-84368094D01*
X120765267Y-86026498D01*
X119936065Y-85197296D01*
X120267746Y-85197296D01*
X120599427Y-85528976D01*
X120765267Y-85363136D01*
X120931108Y-85528976D01*
X121926150Y-84533934D01*
X121760309Y-84368094D01*
X121926150Y-84202253D01*
X121594469Y-83870573D01*
X121428629Y-84036413D01*
X121262788Y-83870573D01*
X120267746Y-84865615D01*
X120433587Y-85031455D01*
X120267746Y-85197296D01*
X119936065Y-85197296D01*
X119770225Y-85031456D01*
X121428629Y-83373052D01*
X122091990Y-84036413D01*
G37*
G36*
X128559765Y-77900320D02*
G01*
X128725605Y-78066160D01*
X124745436Y-82046329D01*
X123252872Y-80553765D01*
X117945981Y-85860657D01*
X118775183Y-86689859D01*
X118609342Y-86855700D01*
X118277662Y-86524019D01*
X118111821Y-86689860D01*
X117448460Y-86026498D01*
X117614300Y-85860658D01*
X117116779Y-85363136D01*
X117448460Y-85363136D01*
X117780141Y-85694817D01*
X123087032Y-80387925D01*
X122755351Y-80056244D01*
X117448460Y-85363136D01*
X117116779Y-85363136D01*
X116950939Y-85197296D01*
X116785098Y-85363137D01*
X116121737Y-84699775D01*
X116287577Y-84533934D01*
X115955897Y-84202254D01*
X116121737Y-84036413D01*
X117282620Y-85197296D01*
X122589511Y-79890404D01*
X120765267Y-78066160D01*
X121096948Y-78066160D01*
X123252873Y-80222085D01*
X124745436Y-81714648D01*
X128393924Y-78066160D01*
X124745436Y-74417672D01*
X121096948Y-78066160D01*
X120765267Y-78066160D01*
X124745436Y-74085991D01*
X128559765Y-77900320D01*
G37*
G36*
X127067201Y-77071117D02*
G01*
X127233042Y-77236958D01*
X127067201Y-77402799D01*
X127233042Y-77568639D01*
X126403841Y-78397841D01*
X126735521Y-78729521D01*
X127067201Y-78397841D01*
X127398882Y-78729521D01*
X125408798Y-80719605D01*
X125077117Y-80387925D01*
X125408798Y-80056244D01*
X125077117Y-79724564D01*
X124247915Y-80553766D01*
X124082075Y-80387925D01*
X123916235Y-80553765D01*
X121594469Y-78232000D01*
X121760309Y-78066160D01*
X122091990Y-78066160D01*
X124082075Y-80056244D01*
X126735520Y-77402799D01*
X126403840Y-77071118D01*
X124911277Y-78563681D01*
X124579596Y-78232000D01*
X126072159Y-76739437D01*
X125740478Y-76407756D01*
X123750394Y-78397841D01*
X123418714Y-78066160D01*
X125408798Y-76076076D01*
X125077117Y-75744395D01*
X123750394Y-77071117D01*
X123418714Y-76739437D01*
X122091990Y-78066160D01*
X121760309Y-78066160D01*
X121594469Y-77900320D01*
X124579596Y-74915193D01*
X124745436Y-75081033D01*
X124911277Y-74915193D01*
X127067201Y-77071117D01*
G37*
G36*
X141329473Y-72095907D02*
G01*
X141495314Y-72261748D01*
X141329474Y-72427587D01*
X141495314Y-72593427D01*
X120599427Y-93489314D01*
X120433587Y-93323475D01*
X120267747Y-93489314D01*
X116287578Y-89509145D01*
X116453418Y-89343306D01*
X116287577Y-89177465D01*
X116121737Y-89343305D01*
X115790057Y-89011624D01*
X116121737Y-88679944D01*
X114131652Y-86689859D01*
X113799972Y-87021540D01*
X110980687Y-84202254D01*
X111312366Y-84202254D01*
X113302450Y-86192338D01*
X115458375Y-84036413D01*
X115624215Y-84202254D01*
X113634131Y-86192338D01*
X113799972Y-86358179D01*
X113965813Y-86192338D01*
X116619258Y-88845784D01*
X116453418Y-89011624D01*
X116619258Y-89177465D01*
X118609342Y-87187381D01*
X118775182Y-87353221D01*
X116619258Y-89509145D01*
X120267746Y-93157634D01*
X120433587Y-92991793D01*
X120599427Y-93157634D01*
X141163633Y-72593428D01*
X140997793Y-72427587D01*
X141163633Y-72261747D01*
X136851784Y-67949897D01*
X136685943Y-68115738D01*
X136354262Y-67784057D01*
X136022582Y-68115737D01*
X135690901Y-67784057D01*
X136188422Y-67286536D01*
X135856741Y-66954855D01*
X135690900Y-67120695D01*
X135359220Y-66789015D01*
X135027540Y-67120695D01*
X134695859Y-66789015D01*
X135193380Y-66291494D01*
X134861699Y-65959813D01*
X134695858Y-66125653D01*
X134364178Y-65793973D01*
X134032497Y-66125653D01*
X133700816Y-65793972D01*
X134198337Y-65296451D01*
X132208253Y-63306367D01*
X132042413Y-63472207D01*
X132374093Y-63803888D01*
X132208252Y-63969728D01*
X132042413Y-63803888D01*
X131876573Y-63969728D01*
X131544892Y-63638047D01*
X131213210Y-63969728D01*
X131710731Y-64467249D01*
X131544892Y-64633089D01*
X131379052Y-64467249D01*
X131213211Y-64633090D01*
X130881530Y-64301409D01*
X130549849Y-64633090D01*
X131047370Y-65130611D01*
X130881530Y-65296451D01*
X130715690Y-65130611D01*
X130549849Y-65296452D01*
X130218168Y-64964770D01*
X129886488Y-65296451D01*
X130384009Y-65793972D01*
X130218168Y-65959813D01*
X130052328Y-65793973D01*
X129886488Y-65959813D01*
X129554807Y-65628132D01*
X129223126Y-65959813D01*
X129720647Y-66457334D01*
X129554807Y-66623174D01*
X129388967Y-66457334D01*
X129223126Y-66623175D01*
X128891445Y-66291494D01*
X128559765Y-66623174D01*
X129057286Y-67120695D01*
X128891445Y-67286536D01*
X128725605Y-67120696D01*
X128559765Y-67286536D01*
X128228084Y-66954855D01*
X127896403Y-67286536D01*
X128393924Y-67784057D01*
X128228084Y-67949897D01*
X128062244Y-67784057D01*
X127896404Y-67949897D01*
X127564723Y-67618216D01*
X127233041Y-67949897D01*
X127730562Y-68447418D01*
X127564723Y-68613258D01*
X127398883Y-68447418D01*
X127233042Y-68613259D01*
X126901361Y-68281578D01*
X126569680Y-68613258D01*
X127067201Y-69110779D01*
X126901361Y-69276620D01*
X126735521Y-69110780D01*
X126569680Y-69276621D01*
X126237999Y-68944939D01*
X125906319Y-69276620D01*
X126403840Y-69774141D01*
X126237999Y-69939982D01*
X126072159Y-69774142D01*
X125906319Y-69939982D01*
X125574638Y-69608301D01*
X125242957Y-69939982D01*
X125740478Y-70437503D01*
X125574638Y-70603343D01*
X125408798Y-70437503D01*
X125242958Y-70603343D01*
X124911277Y-70271662D01*
X124579596Y-70603343D01*
X125077117Y-71100864D01*
X124911276Y-71266705D01*
X124745436Y-71100865D01*
X124579596Y-71266705D01*
X124247915Y-70935024D01*
X123916234Y-71266705D01*
X124413755Y-71764226D01*
X124247915Y-71930066D01*
X124082075Y-71764226D01*
X123916235Y-71930066D01*
X123584554Y-71598385D01*
X123252873Y-71930066D01*
X123750394Y-72427587D01*
X123584554Y-72593427D01*
X123418714Y-72427587D01*
X123252873Y-72593428D01*
X122921192Y-72261747D01*
X122589511Y-72593427D01*
X123087032Y-73090948D01*
X122921192Y-73256789D01*
X122755352Y-73090949D01*
X122589511Y-73256790D01*
X122257830Y-72925108D01*
X121926150Y-73256789D01*
X122423671Y-73754310D01*
X122257830Y-73920151D01*
X122091990Y-73754311D01*
X121926151Y-73920151D01*
X121594469Y-73588469D01*
X121262788Y-73920151D01*
X121760309Y-74417672D01*
X121594469Y-74583512D01*
X121428629Y-74417672D01*
X121262789Y-74583512D01*
X120931108Y-74251831D01*
X120599427Y-74583512D01*
X121096948Y-75081033D01*
X120931108Y-75246873D01*
X120765268Y-75081033D01*
X120599427Y-75246874D01*
X120267746Y-74915193D01*
X119936066Y-75246873D01*
X120433587Y-75744394D01*
X120267746Y-75910235D01*
X120101906Y-75744395D01*
X119936066Y-75910235D01*
X119604385Y-75578554D01*
X119272704Y-75910235D01*
X119770225Y-76407756D01*
X119604385Y-76573596D01*
X119438545Y-76407756D01*
X119272704Y-76573597D01*
X118941023Y-76241916D01*
X118609342Y-76573596D01*
X119106863Y-77071117D01*
X118941023Y-77236958D01*
X118775183Y-77071118D01*
X118609342Y-77236959D01*
X118277661Y-76905277D01*
X117945981Y-77236958D01*
X118443502Y-77734479D01*
X118277661Y-77900320D01*
X118111821Y-77734480D01*
X117945982Y-77900320D01*
X117614300Y-77568638D01*
X117282619Y-77900320D01*
X117780140Y-78397841D01*
X117614300Y-78563680D01*
X117448460Y-78397841D01*
X117282620Y-78563681D01*
X116950939Y-78232000D01*
X116619258Y-78563681D01*
X117116779Y-79061202D01*
X116950939Y-79227042D01*
X116785099Y-79061202D01*
X116619258Y-79227043D01*
X116287577Y-78895362D01*
X115955897Y-79227042D01*
X116453418Y-79724563D01*
X116287577Y-79890404D01*
X116121737Y-79724564D01*
X115955897Y-79890404D01*
X115624215Y-79558723D01*
X115292535Y-79890404D01*
X115790056Y-80387925D01*
X115624215Y-80553765D01*
X115458376Y-80387925D01*
X115292535Y-80553766D01*
X114960854Y-80222085D01*
X114629173Y-80553765D01*
X115126694Y-81051286D01*
X114960854Y-81217127D01*
X114795014Y-81051287D01*
X114629174Y-81217127D01*
X114297493Y-80885446D01*
X113965812Y-81217127D01*
X114463333Y-81714648D01*
X114297493Y-81880488D01*
X114131653Y-81714648D01*
X113965813Y-81880489D01*
X113634131Y-81548807D01*
X113302450Y-81880489D01*
X113799971Y-82378010D01*
X113634131Y-82543849D01*
X113468291Y-82378010D01*
X113302451Y-82543850D01*
X112970770Y-82212169D01*
X112639089Y-82543849D01*
X113136610Y-83041371D01*
X112970770Y-83207211D01*
X112804930Y-83041371D01*
X112639089Y-83207212D01*
X112307408Y-82875531D01*
X111975728Y-83207211D01*
X112473249Y-83704732D01*
X112307408Y-83870573D01*
X112141568Y-83704733D01*
X111975728Y-83870573D01*
X111644046Y-83538892D01*
X111312366Y-83870573D01*
X111478207Y-84036413D01*
X111312366Y-84202254D01*
X110980687Y-84202254D01*
X110980686Y-84202253D01*
X111146525Y-84036413D01*
X110980686Y-83870573D01*
X131876573Y-62974686D01*
X132042413Y-63140526D01*
X132208252Y-62974686D01*
X141329473Y-72095907D01*
G37*
%TO.C,U7*%
X196743000Y-71309000D02*
X196743000Y-69359000D01*
X196743000Y-71309000D02*
X196743000Y-73259000D01*
X191623000Y-71309000D02*
X191623000Y-67859000D01*
X191623000Y-71309000D02*
X191623000Y-73259000D01*
%TO.C,C1*%
X151151000Y-115239748D02*
X151151000Y-116662252D01*
X149331000Y-115239748D02*
X149331000Y-116662252D01*
%TO.C,C7*%
X162763252Y-101748000D02*
X161340748Y-101748000D01*
X162763252Y-99928000D02*
X161340748Y-99928000D01*
%TO.C,J4*%
X171638000Y-67215071D02*
X171638000Y-66818000D01*
X172398000Y-67215071D02*
X172398000Y-66818000D01*
X174178000Y-67215071D02*
X174178000Y-66818000D01*
X174938000Y-67215071D02*
X174938000Y-66818000D01*
X176718000Y-67215071D02*
X176718000Y-66818000D01*
X177478000Y-67215071D02*
X177478000Y-66818000D01*
X179258000Y-67215071D02*
X179258000Y-66818000D01*
X180018000Y-67215071D02*
X180018000Y-66818000D01*
X181798000Y-67148000D02*
X181798000Y-66818000D01*
X182558000Y-67148000D02*
X182558000Y-66818000D01*
X182138000Y-67138000D02*
X183408000Y-67138000D01*
X183408000Y-67138000D02*
X183408000Y-65868000D01*
%TO.C,R11*%
X172572000Y-95723064D02*
X172572000Y-94268936D01*
X174392000Y-95723064D02*
X174392000Y-94268936D01*
%TO.C,C5*%
X104283000Y-110032748D02*
X104283000Y-111455252D01*
X102463000Y-110032748D02*
X102463000Y-111455252D01*
%TO.C,R10*%
X177186000Y-94268936D02*
X177186000Y-95723064D01*
X175366000Y-94268936D02*
X175366000Y-95723064D01*
%TD*%
M02*
