%TF.GenerationSoftware,KiCad,Pcbnew,7.0.8*%
%TF.CreationDate,2024-01-15T19:45:52-06:00*%
%TF.ProjectId,remote,72656d6f-7465-42e6-9b69-6361645f7063,rev?*%
%TF.SameCoordinates,Original*%
%TF.FileFunction,Soldermask,Top*%
%TF.FilePolarity,Negative*%
%FSLAX46Y46*%
G04 Gerber Fmt 4.6, Leading zero omitted, Abs format (unit mm)*
G04 Created by KiCad (PCBNEW 7.0.8) date 2024-01-15 19:45:52*
%MOMM*%
%LPD*%
G01*
G04 APERTURE LIST*
G04 APERTURE END LIST*
G36*
X102917029Y-81999992D02*
G01*
X103106312Y-82073320D01*
X103278898Y-82180181D01*
X103428910Y-82316935D01*
X103551239Y-82478925D01*
X103641719Y-82660634D01*
X103697270Y-82855876D01*
X103716000Y-83058000D01*
X103697270Y-83260124D01*
X103641719Y-83455366D01*
X103551239Y-83637075D01*
X103428910Y-83799065D01*
X103278898Y-83935819D01*
X103106312Y-84042680D01*
X102917029Y-84116008D01*
X102717495Y-84153308D01*
X102514505Y-84153308D01*
X102314971Y-84116008D01*
X102125688Y-84042680D01*
X101953102Y-83935819D01*
X101803090Y-83799065D01*
X101680761Y-83637075D01*
X101590281Y-83455366D01*
X101534730Y-83260124D01*
X101516000Y-83058000D01*
X101534730Y-82855876D01*
X101590281Y-82660634D01*
X101680761Y-82478925D01*
X101803090Y-82316935D01*
X101953102Y-82180181D01*
X102125688Y-82073320D01*
X102314971Y-81999992D01*
X102514505Y-81962692D01*
X102717495Y-81962692D01*
X102917029Y-81999992D01*
G37*
G36*
X147875029Y-81999992D02*
G01*
X148064312Y-82073320D01*
X148236898Y-82180181D01*
X148386910Y-82316935D01*
X148509239Y-82478925D01*
X148599719Y-82660634D01*
X148655270Y-82855876D01*
X148674000Y-83058000D01*
X148655270Y-83260124D01*
X148599719Y-83455366D01*
X148509239Y-83637075D01*
X148386910Y-83799065D01*
X148236898Y-83935819D01*
X148064312Y-84042680D01*
X147875029Y-84116008D01*
X147675495Y-84153308D01*
X147472505Y-84153308D01*
X147272971Y-84116008D01*
X147083688Y-84042680D01*
X146911102Y-83935819D01*
X146761090Y-83799065D01*
X146638761Y-83637075D01*
X146548281Y-83455366D01*
X146492730Y-83260124D01*
X146474000Y-83058000D01*
X146492730Y-82855876D01*
X146548281Y-82660634D01*
X146638761Y-82478925D01*
X146761090Y-82316935D01*
X146911102Y-82180181D01*
X147083688Y-82073320D01*
X147272971Y-81999992D01*
X147472505Y-81962692D01*
X147675495Y-81962692D01*
X147875029Y-81999992D01*
G37*
G36*
X131172000Y-82302000D02*
G01*
X129472000Y-82302000D01*
X129472000Y-80602000D01*
X131172000Y-80602000D01*
X131172000Y-82302000D01*
G37*
G36*
X120424664Y-80643602D02*
G01*
X120587000Y-80715878D01*
X120730761Y-80820327D01*
X120849664Y-80952383D01*
X120938514Y-81106274D01*
X120993425Y-81275275D01*
X121012000Y-81452000D01*
X120993425Y-81628725D01*
X120938514Y-81797726D01*
X120849664Y-81951617D01*
X120730761Y-82083673D01*
X120587000Y-82188122D01*
X120424664Y-82260398D01*
X120250849Y-82297344D01*
X120073151Y-82297344D01*
X119899336Y-82260398D01*
X119737000Y-82188122D01*
X119593239Y-82083673D01*
X119474336Y-81951617D01*
X119385486Y-81797726D01*
X119330575Y-81628725D01*
X119312000Y-81452000D01*
X119330575Y-81275275D01*
X119385486Y-81106274D01*
X119474336Y-80952383D01*
X119593239Y-80820327D01*
X119737000Y-80715878D01*
X119899336Y-80643602D01*
X120073151Y-80606656D01*
X120250849Y-80606656D01*
X120424664Y-80643602D01*
G37*
G36*
X122964664Y-80643602D02*
G01*
X123127000Y-80715878D01*
X123270761Y-80820327D01*
X123389664Y-80952383D01*
X123478514Y-81106274D01*
X123533425Y-81275275D01*
X123552000Y-81452000D01*
X123533425Y-81628725D01*
X123478514Y-81797726D01*
X123389664Y-81951617D01*
X123270761Y-82083673D01*
X123127000Y-82188122D01*
X122964664Y-82260398D01*
X122790849Y-82297344D01*
X122613151Y-82297344D01*
X122439336Y-82260398D01*
X122277000Y-82188122D01*
X122133239Y-82083673D01*
X122014336Y-81951617D01*
X121925486Y-81797726D01*
X121870575Y-81628725D01*
X121852000Y-81452000D01*
X121870575Y-81275275D01*
X121925486Y-81106274D01*
X122014336Y-80952383D01*
X122133239Y-80820327D01*
X122277000Y-80715878D01*
X122439336Y-80643602D01*
X122613151Y-80606656D01*
X122790849Y-80606656D01*
X122964664Y-80643602D01*
G37*
G36*
X125504664Y-80643602D02*
G01*
X125667000Y-80715878D01*
X125810761Y-80820327D01*
X125929664Y-80952383D01*
X126018514Y-81106274D01*
X126073425Y-81275275D01*
X126092000Y-81452000D01*
X126073425Y-81628725D01*
X126018514Y-81797726D01*
X125929664Y-81951617D01*
X125810761Y-82083673D01*
X125667000Y-82188122D01*
X125504664Y-82260398D01*
X125330849Y-82297344D01*
X125153151Y-82297344D01*
X124979336Y-82260398D01*
X124817000Y-82188122D01*
X124673239Y-82083673D01*
X124554336Y-81951617D01*
X124465486Y-81797726D01*
X124410575Y-81628725D01*
X124392000Y-81452000D01*
X124410575Y-81275275D01*
X124465486Y-81106274D01*
X124554336Y-80952383D01*
X124673239Y-80820327D01*
X124817000Y-80715878D01*
X124979336Y-80643602D01*
X125153151Y-80606656D01*
X125330849Y-80606656D01*
X125504664Y-80643602D01*
G37*
G36*
X128044664Y-80643602D02*
G01*
X128207000Y-80715878D01*
X128350761Y-80820327D01*
X128469664Y-80952383D01*
X128558514Y-81106274D01*
X128613425Y-81275275D01*
X128632000Y-81452000D01*
X128613425Y-81628725D01*
X128558514Y-81797726D01*
X128469664Y-81951617D01*
X128350761Y-82083673D01*
X128207000Y-82188122D01*
X128044664Y-82260398D01*
X127870849Y-82297344D01*
X127693151Y-82297344D01*
X127519336Y-82260398D01*
X127357000Y-82188122D01*
X127213239Y-82083673D01*
X127094336Y-81951617D01*
X127005486Y-81797726D01*
X126950575Y-81628725D01*
X126932000Y-81452000D01*
X126950575Y-81275275D01*
X127005486Y-81106274D01*
X127094336Y-80952383D01*
X127213239Y-80820327D01*
X127357000Y-80715878D01*
X127519336Y-80643602D01*
X127693151Y-80606656D01*
X127870849Y-80606656D01*
X128044664Y-80643602D01*
G37*
G36*
X122162090Y-77215215D02*
G01*
X122349683Y-77272120D01*
X122522570Y-77364530D01*
X122674107Y-77488893D01*
X122798470Y-77640430D01*
X122890880Y-77813317D01*
X122947785Y-78000910D01*
X122967000Y-78196000D01*
X122947785Y-78391090D01*
X122890880Y-78578683D01*
X122798470Y-78751570D01*
X122674107Y-78903107D01*
X122522570Y-79027470D01*
X122349683Y-79119880D01*
X122162090Y-79176785D01*
X121967000Y-79196000D01*
X121771910Y-79176785D01*
X121584317Y-79119880D01*
X121411430Y-79027470D01*
X121259893Y-78903107D01*
X121135530Y-78751570D01*
X121043120Y-78578683D01*
X120986215Y-78391090D01*
X120967000Y-78196000D01*
X120986215Y-78000910D01*
X121043120Y-77813317D01*
X121135530Y-77640430D01*
X121259893Y-77488893D01*
X121411430Y-77364530D01*
X121584317Y-77272120D01*
X121771910Y-77215215D01*
X121967000Y-77196000D01*
X122162090Y-77215215D01*
G37*
G36*
X128662090Y-77215215D02*
G01*
X128849683Y-77272120D01*
X129022570Y-77364530D01*
X129174107Y-77488893D01*
X129298470Y-77640430D01*
X129390880Y-77813317D01*
X129447785Y-78000910D01*
X129467000Y-78196000D01*
X129447785Y-78391090D01*
X129390880Y-78578683D01*
X129298470Y-78751570D01*
X129174107Y-78903107D01*
X129022570Y-79027470D01*
X128849683Y-79119880D01*
X128662090Y-79176785D01*
X128467000Y-79196000D01*
X128271910Y-79176785D01*
X128084317Y-79119880D01*
X127911430Y-79027470D01*
X127759893Y-78903107D01*
X127635530Y-78751570D01*
X127543120Y-78578683D01*
X127486215Y-78391090D01*
X127467000Y-78196000D01*
X127486215Y-78000910D01*
X127543120Y-77813317D01*
X127635530Y-77640430D01*
X127759893Y-77488893D01*
X127911430Y-77364530D01*
X128084317Y-77272120D01*
X128271910Y-77215215D01*
X128467000Y-77196000D01*
X128662090Y-77215215D01*
G37*
G36*
X122162090Y-72715215D02*
G01*
X122349683Y-72772120D01*
X122522570Y-72864530D01*
X122674107Y-72988893D01*
X122798470Y-73140430D01*
X122890880Y-73313317D01*
X122947785Y-73500910D01*
X122967000Y-73696000D01*
X122947785Y-73891090D01*
X122890880Y-74078683D01*
X122798470Y-74251570D01*
X122674107Y-74403107D01*
X122522570Y-74527470D01*
X122349683Y-74619880D01*
X122162090Y-74676785D01*
X121967000Y-74696000D01*
X121771910Y-74676785D01*
X121584317Y-74619880D01*
X121411430Y-74527470D01*
X121259893Y-74403107D01*
X121135530Y-74251570D01*
X121043120Y-74078683D01*
X120986215Y-73891090D01*
X120967000Y-73696000D01*
X120986215Y-73500910D01*
X121043120Y-73313317D01*
X121135530Y-73140430D01*
X121259893Y-72988893D01*
X121411430Y-72864530D01*
X121584317Y-72772120D01*
X121771910Y-72715215D01*
X121967000Y-72696000D01*
X122162090Y-72715215D01*
G37*
G36*
X128662090Y-72715215D02*
G01*
X128849683Y-72772120D01*
X129022570Y-72864530D01*
X129174107Y-72988893D01*
X129298470Y-73140430D01*
X129390880Y-73313317D01*
X129447785Y-73500910D01*
X129467000Y-73696000D01*
X129447785Y-73891090D01*
X129390880Y-74078683D01*
X129298470Y-74251570D01*
X129174107Y-74403107D01*
X129022570Y-74527470D01*
X128849683Y-74619880D01*
X128662090Y-74676785D01*
X128467000Y-74696000D01*
X128271910Y-74676785D01*
X128084317Y-74619880D01*
X127911430Y-74527470D01*
X127759893Y-74403107D01*
X127635530Y-74251570D01*
X127543120Y-74078683D01*
X127486215Y-73891090D01*
X127467000Y-73696000D01*
X127486215Y-73500910D01*
X127543120Y-73313317D01*
X127635530Y-73140430D01*
X127759893Y-72988893D01*
X127911430Y-72864530D01*
X128084317Y-72772120D01*
X128271910Y-72715215D01*
X128467000Y-72696000D01*
X128662090Y-72715215D01*
G37*
G36*
X109975090Y-65531215D02*
G01*
X110162683Y-65588120D01*
X110335570Y-65680530D01*
X110487107Y-65804893D01*
X110611470Y-65956430D01*
X110703880Y-66129317D01*
X110760785Y-66316910D01*
X110780000Y-66512000D01*
X110760785Y-66707090D01*
X110703880Y-66894683D01*
X110611470Y-67067570D01*
X110487107Y-67219107D01*
X110335570Y-67343470D01*
X110162683Y-67435880D01*
X109975090Y-67492785D01*
X109780000Y-67512000D01*
X109584910Y-67492785D01*
X109397317Y-67435880D01*
X109224430Y-67343470D01*
X109072893Y-67219107D01*
X108948530Y-67067570D01*
X108856120Y-66894683D01*
X108799215Y-66707090D01*
X108780000Y-66512000D01*
X108799215Y-66316910D01*
X108856120Y-66129317D01*
X108948530Y-65956430D01*
X109072893Y-65804893D01*
X109224430Y-65680530D01*
X109397317Y-65588120D01*
X109584910Y-65531215D01*
X109780000Y-65512000D01*
X109975090Y-65531215D01*
G37*
G36*
X116475090Y-65531215D02*
G01*
X116662683Y-65588120D01*
X116835570Y-65680530D01*
X116987107Y-65804893D01*
X117111470Y-65956430D01*
X117203880Y-66129317D01*
X117260785Y-66316910D01*
X117280000Y-66512000D01*
X117260785Y-66707090D01*
X117203880Y-66894683D01*
X117111470Y-67067570D01*
X116987107Y-67219107D01*
X116835570Y-67343470D01*
X116662683Y-67435880D01*
X116475090Y-67492785D01*
X116280000Y-67512000D01*
X116084910Y-67492785D01*
X115897317Y-67435880D01*
X115724430Y-67343470D01*
X115572893Y-67219107D01*
X115448530Y-67067570D01*
X115356120Y-66894683D01*
X115299215Y-66707090D01*
X115280000Y-66512000D01*
X115299215Y-66316910D01*
X115356120Y-66129317D01*
X115448530Y-65956430D01*
X115572893Y-65804893D01*
X115724430Y-65680530D01*
X115897317Y-65588120D01*
X116084910Y-65531215D01*
X116280000Y-65512000D01*
X116475090Y-65531215D01*
G37*
G36*
X122162090Y-65531215D02*
G01*
X122349683Y-65588120D01*
X122522570Y-65680530D01*
X122674107Y-65804893D01*
X122798470Y-65956430D01*
X122890880Y-66129317D01*
X122947785Y-66316910D01*
X122967000Y-66512000D01*
X122947785Y-66707090D01*
X122890880Y-66894683D01*
X122798470Y-67067570D01*
X122674107Y-67219107D01*
X122522570Y-67343470D01*
X122349683Y-67435880D01*
X122162090Y-67492785D01*
X121967000Y-67512000D01*
X121771910Y-67492785D01*
X121584317Y-67435880D01*
X121411430Y-67343470D01*
X121259893Y-67219107D01*
X121135530Y-67067570D01*
X121043120Y-66894683D01*
X120986215Y-66707090D01*
X120967000Y-66512000D01*
X120986215Y-66316910D01*
X121043120Y-66129317D01*
X121135530Y-65956430D01*
X121259893Y-65804893D01*
X121411430Y-65680530D01*
X121584317Y-65588120D01*
X121771910Y-65531215D01*
X121967000Y-65512000D01*
X122162090Y-65531215D01*
G37*
G36*
X128662090Y-65531215D02*
G01*
X128849683Y-65588120D01*
X129022570Y-65680530D01*
X129174107Y-65804893D01*
X129298470Y-65956430D01*
X129390880Y-66129317D01*
X129447785Y-66316910D01*
X129467000Y-66512000D01*
X129447785Y-66707090D01*
X129390880Y-66894683D01*
X129298470Y-67067570D01*
X129174107Y-67219107D01*
X129022570Y-67343470D01*
X128849683Y-67435880D01*
X128662090Y-67492785D01*
X128467000Y-67512000D01*
X128271910Y-67492785D01*
X128084317Y-67435880D01*
X127911430Y-67343470D01*
X127759893Y-67219107D01*
X127635530Y-67067570D01*
X127543120Y-66894683D01*
X127486215Y-66707090D01*
X127467000Y-66512000D01*
X127486215Y-66316910D01*
X127543120Y-66129317D01*
X127635530Y-65956430D01*
X127759893Y-65804893D01*
X127911430Y-65680530D01*
X128084317Y-65588120D01*
X128271910Y-65531215D01*
X128467000Y-65512000D01*
X128662090Y-65531215D01*
G37*
G36*
X134354090Y-65531215D02*
G01*
X134541683Y-65588120D01*
X134714570Y-65680530D01*
X134866107Y-65804893D01*
X134990470Y-65956430D01*
X135082880Y-66129317D01*
X135139785Y-66316910D01*
X135159000Y-66512000D01*
X135139785Y-66707090D01*
X135082880Y-66894683D01*
X134990470Y-67067570D01*
X134866107Y-67219107D01*
X134714570Y-67343470D01*
X134541683Y-67435880D01*
X134354090Y-67492785D01*
X134159000Y-67512000D01*
X133963910Y-67492785D01*
X133776317Y-67435880D01*
X133603430Y-67343470D01*
X133451893Y-67219107D01*
X133327530Y-67067570D01*
X133235120Y-66894683D01*
X133178215Y-66707090D01*
X133159000Y-66512000D01*
X133178215Y-66316910D01*
X133235120Y-66129317D01*
X133327530Y-65956430D01*
X133451893Y-65804893D01*
X133603430Y-65680530D01*
X133776317Y-65588120D01*
X133963910Y-65531215D01*
X134159000Y-65512000D01*
X134354090Y-65531215D01*
G37*
G36*
X140854090Y-65531215D02*
G01*
X141041683Y-65588120D01*
X141214570Y-65680530D01*
X141366107Y-65804893D01*
X141490470Y-65956430D01*
X141582880Y-66129317D01*
X141639785Y-66316910D01*
X141659000Y-66512000D01*
X141639785Y-66707090D01*
X141582880Y-66894683D01*
X141490470Y-67067570D01*
X141366107Y-67219107D01*
X141214570Y-67343470D01*
X141041683Y-67435880D01*
X140854090Y-67492785D01*
X140659000Y-67512000D01*
X140463910Y-67492785D01*
X140276317Y-67435880D01*
X140103430Y-67343470D01*
X139951893Y-67219107D01*
X139827530Y-67067570D01*
X139735120Y-66894683D01*
X139678215Y-66707090D01*
X139659000Y-66512000D01*
X139678215Y-66316910D01*
X139735120Y-66129317D01*
X139827530Y-65956430D01*
X139951893Y-65804893D01*
X140103430Y-65680530D01*
X140276317Y-65588120D01*
X140463910Y-65531215D01*
X140659000Y-65512000D01*
X140854090Y-65531215D01*
G37*
G36*
X109975090Y-61031215D02*
G01*
X110162683Y-61088120D01*
X110335570Y-61180530D01*
X110487107Y-61304893D01*
X110611470Y-61456430D01*
X110703880Y-61629317D01*
X110760785Y-61816910D01*
X110780000Y-62012000D01*
X110760785Y-62207090D01*
X110703880Y-62394683D01*
X110611470Y-62567570D01*
X110487107Y-62719107D01*
X110335570Y-62843470D01*
X110162683Y-62935880D01*
X109975090Y-62992785D01*
X109780000Y-63012000D01*
X109584910Y-62992785D01*
X109397317Y-62935880D01*
X109224430Y-62843470D01*
X109072893Y-62719107D01*
X108948530Y-62567570D01*
X108856120Y-62394683D01*
X108799215Y-62207090D01*
X108780000Y-62012000D01*
X108799215Y-61816910D01*
X108856120Y-61629317D01*
X108948530Y-61456430D01*
X109072893Y-61304893D01*
X109224430Y-61180530D01*
X109397317Y-61088120D01*
X109584910Y-61031215D01*
X109780000Y-61012000D01*
X109975090Y-61031215D01*
G37*
G36*
X116475090Y-61031215D02*
G01*
X116662683Y-61088120D01*
X116835570Y-61180530D01*
X116987107Y-61304893D01*
X117111470Y-61456430D01*
X117203880Y-61629317D01*
X117260785Y-61816910D01*
X117280000Y-62012000D01*
X117260785Y-62207090D01*
X117203880Y-62394683D01*
X117111470Y-62567570D01*
X116987107Y-62719107D01*
X116835570Y-62843470D01*
X116662683Y-62935880D01*
X116475090Y-62992785D01*
X116280000Y-63012000D01*
X116084910Y-62992785D01*
X115897317Y-62935880D01*
X115724430Y-62843470D01*
X115572893Y-62719107D01*
X115448530Y-62567570D01*
X115356120Y-62394683D01*
X115299215Y-62207090D01*
X115280000Y-62012000D01*
X115299215Y-61816910D01*
X115356120Y-61629317D01*
X115448530Y-61456430D01*
X115572893Y-61304893D01*
X115724430Y-61180530D01*
X115897317Y-61088120D01*
X116084910Y-61031215D01*
X116280000Y-61012000D01*
X116475090Y-61031215D01*
G37*
G36*
X122162090Y-61031215D02*
G01*
X122349683Y-61088120D01*
X122522570Y-61180530D01*
X122674107Y-61304893D01*
X122798470Y-61456430D01*
X122890880Y-61629317D01*
X122947785Y-61816910D01*
X122967000Y-62012000D01*
X122947785Y-62207090D01*
X122890880Y-62394683D01*
X122798470Y-62567570D01*
X122674107Y-62719107D01*
X122522570Y-62843470D01*
X122349683Y-62935880D01*
X122162090Y-62992785D01*
X121967000Y-63012000D01*
X121771910Y-62992785D01*
X121584317Y-62935880D01*
X121411430Y-62843470D01*
X121259893Y-62719107D01*
X121135530Y-62567570D01*
X121043120Y-62394683D01*
X120986215Y-62207090D01*
X120967000Y-62012000D01*
X120986215Y-61816910D01*
X121043120Y-61629317D01*
X121135530Y-61456430D01*
X121259893Y-61304893D01*
X121411430Y-61180530D01*
X121584317Y-61088120D01*
X121771910Y-61031215D01*
X121967000Y-61012000D01*
X122162090Y-61031215D01*
G37*
G36*
X128662090Y-61031215D02*
G01*
X128849683Y-61088120D01*
X129022570Y-61180530D01*
X129174107Y-61304893D01*
X129298470Y-61456430D01*
X129390880Y-61629317D01*
X129447785Y-61816910D01*
X129467000Y-62012000D01*
X129447785Y-62207090D01*
X129390880Y-62394683D01*
X129298470Y-62567570D01*
X129174107Y-62719107D01*
X129022570Y-62843470D01*
X128849683Y-62935880D01*
X128662090Y-62992785D01*
X128467000Y-63012000D01*
X128271910Y-62992785D01*
X128084317Y-62935880D01*
X127911430Y-62843470D01*
X127759893Y-62719107D01*
X127635530Y-62567570D01*
X127543120Y-62394683D01*
X127486215Y-62207090D01*
X127467000Y-62012000D01*
X127486215Y-61816910D01*
X127543120Y-61629317D01*
X127635530Y-61456430D01*
X127759893Y-61304893D01*
X127911430Y-61180530D01*
X128084317Y-61088120D01*
X128271910Y-61031215D01*
X128467000Y-61012000D01*
X128662090Y-61031215D01*
G37*
G36*
X134354090Y-61031215D02*
G01*
X134541683Y-61088120D01*
X134714570Y-61180530D01*
X134866107Y-61304893D01*
X134990470Y-61456430D01*
X135082880Y-61629317D01*
X135139785Y-61816910D01*
X135159000Y-62012000D01*
X135139785Y-62207090D01*
X135082880Y-62394683D01*
X134990470Y-62567570D01*
X134866107Y-62719107D01*
X134714570Y-62843470D01*
X134541683Y-62935880D01*
X134354090Y-62992785D01*
X134159000Y-63012000D01*
X133963910Y-62992785D01*
X133776317Y-62935880D01*
X133603430Y-62843470D01*
X133451893Y-62719107D01*
X133327530Y-62567570D01*
X133235120Y-62394683D01*
X133178215Y-62207090D01*
X133159000Y-62012000D01*
X133178215Y-61816910D01*
X133235120Y-61629317D01*
X133327530Y-61456430D01*
X133451893Y-61304893D01*
X133603430Y-61180530D01*
X133776317Y-61088120D01*
X133963910Y-61031215D01*
X134159000Y-61012000D01*
X134354090Y-61031215D01*
G37*
G36*
X140854090Y-61031215D02*
G01*
X141041683Y-61088120D01*
X141214570Y-61180530D01*
X141366107Y-61304893D01*
X141490470Y-61456430D01*
X141582880Y-61629317D01*
X141639785Y-61816910D01*
X141659000Y-62012000D01*
X141639785Y-62207090D01*
X141582880Y-62394683D01*
X141490470Y-62567570D01*
X141366107Y-62719107D01*
X141214570Y-62843470D01*
X141041683Y-62935880D01*
X140854090Y-62992785D01*
X140659000Y-63012000D01*
X140463910Y-62992785D01*
X140276317Y-62935880D01*
X140103430Y-62843470D01*
X139951893Y-62719107D01*
X139827530Y-62567570D01*
X139735120Y-62394683D01*
X139678215Y-62207090D01*
X139659000Y-62012000D01*
X139678215Y-61816910D01*
X139735120Y-61629317D01*
X139827530Y-61456430D01*
X139951893Y-61304893D01*
X140103430Y-61180530D01*
X140276317Y-61088120D01*
X140463910Y-61031215D01*
X140659000Y-61012000D01*
X140854090Y-61031215D01*
G37*
G36*
X149087850Y-57826964D02*
G01*
X149138040Y-57832787D01*
X149155189Y-57840359D01*
X149178671Y-57845030D01*
X149203810Y-57861827D01*
X149223696Y-57870608D01*
X149237277Y-57884189D01*
X149259777Y-57899223D01*
X149274810Y-57921722D01*
X149288391Y-57935303D01*
X149297170Y-57955186D01*
X149313970Y-57980329D01*
X149318641Y-58003812D01*
X149326212Y-58020959D01*
X149332033Y-58071139D01*
X149333000Y-58076000D01*
X149333000Y-58776000D01*
X149332032Y-58780863D01*
X149326212Y-58831040D01*
X149318641Y-58848185D01*
X149313970Y-58871671D01*
X149297169Y-58896815D01*
X149288391Y-58916696D01*
X149274812Y-58930274D01*
X149259777Y-58952777D01*
X149237274Y-58967812D01*
X149223696Y-58981391D01*
X149203815Y-58990169D01*
X149178671Y-59006970D01*
X149155185Y-59011641D01*
X149138040Y-59019212D01*
X149087861Y-59025032D01*
X149083000Y-59026000D01*
X147783000Y-59026000D01*
X147778138Y-59025032D01*
X147727959Y-59019212D01*
X147710812Y-59011641D01*
X147687329Y-59006970D01*
X147662186Y-58990170D01*
X147642303Y-58981391D01*
X147628722Y-58967810D01*
X147606223Y-58952777D01*
X147591189Y-58930277D01*
X147577608Y-58916696D01*
X147568827Y-58896810D01*
X147552030Y-58871671D01*
X147547359Y-58848189D01*
X147539787Y-58831040D01*
X147533964Y-58780849D01*
X147533000Y-58776000D01*
X147533000Y-58076000D01*
X147533964Y-58071150D01*
X147539787Y-58020959D01*
X147547359Y-58003808D01*
X147552030Y-57980329D01*
X147568826Y-57955191D01*
X147577608Y-57935303D01*
X147591191Y-57921719D01*
X147606223Y-57899223D01*
X147628719Y-57884191D01*
X147642303Y-57870608D01*
X147662191Y-57861826D01*
X147687329Y-57845030D01*
X147710808Y-57840359D01*
X147727959Y-57832787D01*
X147778151Y-57826964D01*
X147783000Y-57826000D01*
X149083000Y-57826000D01*
X149087850Y-57826964D01*
G37*
G36*
X145240403Y-56837418D02*
G01*
X145289066Y-56869934D01*
X145321582Y-56918597D01*
X145333000Y-56976000D01*
X145333000Y-57276000D01*
X145321582Y-57333403D01*
X145289066Y-57382066D01*
X145240403Y-57414582D01*
X145183000Y-57426000D01*
X143933000Y-57426000D01*
X143875597Y-57414582D01*
X143826934Y-57382066D01*
X143794418Y-57333403D01*
X143783000Y-57276000D01*
X143783000Y-56976000D01*
X143794418Y-56918597D01*
X143826934Y-56869934D01*
X143875597Y-56837418D01*
X143933000Y-56826000D01*
X145183000Y-56826000D01*
X145240403Y-56837418D01*
G37*
G36*
X145240403Y-55837418D02*
G01*
X145289066Y-55869934D01*
X145321582Y-55918597D01*
X145333000Y-55976000D01*
X145333000Y-56276000D01*
X145321582Y-56333403D01*
X145289066Y-56382066D01*
X145240403Y-56414582D01*
X145183000Y-56426000D01*
X143933000Y-56426000D01*
X143875597Y-56414582D01*
X143826934Y-56382066D01*
X143794418Y-56333403D01*
X143783000Y-56276000D01*
X143783000Y-55976000D01*
X143794418Y-55918597D01*
X143826934Y-55869934D01*
X143875597Y-55837418D01*
X143933000Y-55826000D01*
X145183000Y-55826000D01*
X145240403Y-55837418D01*
G37*
G36*
X145240403Y-54837418D02*
G01*
X145289066Y-54869934D01*
X145321582Y-54918597D01*
X145333000Y-54976000D01*
X145333000Y-55276000D01*
X145321582Y-55333403D01*
X145289066Y-55382066D01*
X145240403Y-55414582D01*
X145183000Y-55426000D01*
X143933000Y-55426000D01*
X143875597Y-55414582D01*
X143826934Y-55382066D01*
X143794418Y-55333403D01*
X143783000Y-55276000D01*
X143783000Y-54976000D01*
X143794418Y-54918597D01*
X143826934Y-54869934D01*
X143875597Y-54837418D01*
X143933000Y-54826000D01*
X145183000Y-54826000D01*
X145240403Y-54837418D01*
G37*
G36*
X129787664Y-53288602D02*
G01*
X129950000Y-53360878D01*
X130093761Y-53465327D01*
X130212664Y-53597383D01*
X130301514Y-53751274D01*
X130356425Y-53920275D01*
X130375000Y-54097000D01*
X130356425Y-54273725D01*
X130301514Y-54442726D01*
X130212664Y-54596617D01*
X130093761Y-54728673D01*
X129950000Y-54833122D01*
X129787664Y-54905398D01*
X129613849Y-54942344D01*
X129436151Y-54942344D01*
X129262336Y-54905398D01*
X129100000Y-54833122D01*
X128956239Y-54728673D01*
X128837336Y-54596617D01*
X128748486Y-54442726D01*
X128693575Y-54273725D01*
X128675000Y-54097000D01*
X128693575Y-53920275D01*
X128748486Y-53751274D01*
X128837336Y-53597383D01*
X128956239Y-53465327D01*
X129100000Y-53360878D01*
X129262336Y-53288602D01*
X129436151Y-53251656D01*
X129613849Y-53251656D01*
X129787664Y-53288602D01*
G37*
G36*
X132327664Y-53288602D02*
G01*
X132490000Y-53360878D01*
X132633761Y-53465327D01*
X132752664Y-53597383D01*
X132841514Y-53751274D01*
X132896425Y-53920275D01*
X132915000Y-54097000D01*
X132896425Y-54273725D01*
X132841514Y-54442726D01*
X132752664Y-54596617D01*
X132633761Y-54728673D01*
X132490000Y-54833122D01*
X132327664Y-54905398D01*
X132153849Y-54942344D01*
X131976151Y-54942344D01*
X131802336Y-54905398D01*
X131640000Y-54833122D01*
X131496239Y-54728673D01*
X131377336Y-54596617D01*
X131288486Y-54442726D01*
X131233575Y-54273725D01*
X131215000Y-54097000D01*
X131233575Y-53920275D01*
X131288486Y-53751274D01*
X131377336Y-53597383D01*
X131496239Y-53465327D01*
X131640000Y-53360878D01*
X131802336Y-53288602D01*
X131976151Y-53251656D01*
X132153849Y-53251656D01*
X132327664Y-53288602D01*
G37*
G36*
X134867664Y-53288602D02*
G01*
X135030000Y-53360878D01*
X135173761Y-53465327D01*
X135292664Y-53597383D01*
X135381514Y-53751274D01*
X135436425Y-53920275D01*
X135455000Y-54097000D01*
X135436425Y-54273725D01*
X135381514Y-54442726D01*
X135292664Y-54596617D01*
X135173761Y-54728673D01*
X135030000Y-54833122D01*
X134867664Y-54905398D01*
X134693849Y-54942344D01*
X134516151Y-54942344D01*
X134342336Y-54905398D01*
X134180000Y-54833122D01*
X134036239Y-54728673D01*
X133917336Y-54596617D01*
X133828486Y-54442726D01*
X133773575Y-54273725D01*
X133755000Y-54097000D01*
X133773575Y-53920275D01*
X133828486Y-53751274D01*
X133917336Y-53597383D01*
X134036239Y-53465327D01*
X134180000Y-53360878D01*
X134342336Y-53288602D01*
X134516151Y-53251656D01*
X134693849Y-53251656D01*
X134867664Y-53288602D01*
G37*
G36*
X145240403Y-53837418D02*
G01*
X145289066Y-53869934D01*
X145321582Y-53918597D01*
X145333000Y-53976000D01*
X145333000Y-54276000D01*
X145321582Y-54333403D01*
X145289066Y-54382066D01*
X145240403Y-54414582D01*
X145183000Y-54426000D01*
X143933000Y-54426000D01*
X143875597Y-54414582D01*
X143826934Y-54382066D01*
X143794418Y-54333403D01*
X143783000Y-54276000D01*
X143783000Y-53976000D01*
X143794418Y-53918597D01*
X143826934Y-53869934D01*
X143875597Y-53837418D01*
X143933000Y-53826000D01*
X145183000Y-53826000D01*
X145240403Y-53837418D01*
G37*
G36*
X149087850Y-52226964D02*
G01*
X149138040Y-52232787D01*
X149155189Y-52240359D01*
X149178671Y-52245030D01*
X149203810Y-52261827D01*
X149223696Y-52270608D01*
X149237277Y-52284189D01*
X149259777Y-52299223D01*
X149274810Y-52321722D01*
X149288391Y-52335303D01*
X149297170Y-52355186D01*
X149313970Y-52380329D01*
X149318641Y-52403812D01*
X149326212Y-52420959D01*
X149332033Y-52471139D01*
X149333000Y-52476000D01*
X149333000Y-53176000D01*
X149332032Y-53180863D01*
X149326212Y-53231040D01*
X149318641Y-53248185D01*
X149313970Y-53271671D01*
X149297169Y-53296815D01*
X149288391Y-53316696D01*
X149274812Y-53330274D01*
X149259777Y-53352777D01*
X149237274Y-53367812D01*
X149223696Y-53381391D01*
X149203815Y-53390169D01*
X149178671Y-53406970D01*
X149155185Y-53411641D01*
X149138040Y-53419212D01*
X149087861Y-53425032D01*
X149083000Y-53426000D01*
X147783000Y-53426000D01*
X147778138Y-53425032D01*
X147727959Y-53419212D01*
X147710812Y-53411641D01*
X147687329Y-53406970D01*
X147662186Y-53390170D01*
X147642303Y-53381391D01*
X147628722Y-53367810D01*
X147606223Y-53352777D01*
X147591189Y-53330277D01*
X147577608Y-53316696D01*
X147568827Y-53296810D01*
X147552030Y-53271671D01*
X147547359Y-53248189D01*
X147539787Y-53231040D01*
X147533964Y-53180849D01*
X147533000Y-53176000D01*
X147533000Y-52476000D01*
X147533964Y-52471150D01*
X147539787Y-52420959D01*
X147547359Y-52403808D01*
X147552030Y-52380329D01*
X147568826Y-52355191D01*
X147577608Y-52335303D01*
X147591191Y-52321719D01*
X147606223Y-52299223D01*
X147628719Y-52284191D01*
X147642303Y-52270608D01*
X147662191Y-52261826D01*
X147687329Y-52245030D01*
X147710808Y-52240359D01*
X147727959Y-52232787D01*
X147778151Y-52226964D01*
X147783000Y-52226000D01*
X149083000Y-52226000D01*
X149087850Y-52226964D01*
G37*
G36*
X135455000Y-52407000D02*
G01*
X133755000Y-52407000D01*
X133755000Y-50707000D01*
X135455000Y-50707000D01*
X135455000Y-52407000D01*
G37*
G36*
X129787664Y-50748602D02*
G01*
X129950000Y-50820878D01*
X130093761Y-50925327D01*
X130212664Y-51057383D01*
X130301514Y-51211274D01*
X130356425Y-51380275D01*
X130375000Y-51557000D01*
X130356425Y-51733725D01*
X130301514Y-51902726D01*
X130212664Y-52056617D01*
X130093761Y-52188673D01*
X129950000Y-52293122D01*
X129787664Y-52365398D01*
X129613849Y-52402344D01*
X129436151Y-52402344D01*
X129262336Y-52365398D01*
X129100000Y-52293122D01*
X128956239Y-52188673D01*
X128837336Y-52056617D01*
X128748486Y-51902726D01*
X128693575Y-51733725D01*
X128675000Y-51557000D01*
X128693575Y-51380275D01*
X128748486Y-51211274D01*
X128837336Y-51057383D01*
X128956239Y-50925327D01*
X129100000Y-50820878D01*
X129262336Y-50748602D01*
X129436151Y-50711656D01*
X129613849Y-50711656D01*
X129787664Y-50748602D01*
G37*
G36*
X132327664Y-50748602D02*
G01*
X132490000Y-50820878D01*
X132633761Y-50925327D01*
X132752664Y-51057383D01*
X132841514Y-51211274D01*
X132896425Y-51380275D01*
X132915000Y-51557000D01*
X132896425Y-51733725D01*
X132841514Y-51902726D01*
X132752664Y-52056617D01*
X132633761Y-52188673D01*
X132490000Y-52293122D01*
X132327664Y-52365398D01*
X132153849Y-52402344D01*
X131976151Y-52402344D01*
X131802336Y-52365398D01*
X131640000Y-52293122D01*
X131496239Y-52188673D01*
X131377336Y-52056617D01*
X131288486Y-51902726D01*
X131233575Y-51733725D01*
X131215000Y-51557000D01*
X131233575Y-51380275D01*
X131288486Y-51211274D01*
X131377336Y-51057383D01*
X131496239Y-50925327D01*
X131640000Y-50820878D01*
X131802336Y-50748602D01*
X131976151Y-50711656D01*
X132153849Y-50711656D01*
X132327664Y-50748602D01*
G37*
G36*
X144534664Y-48975602D02*
G01*
X144697000Y-49047878D01*
X144840761Y-49152327D01*
X144959664Y-49284383D01*
X145048514Y-49438274D01*
X145103425Y-49607275D01*
X145122000Y-49784000D01*
X145103425Y-49960725D01*
X145048514Y-50129726D01*
X144959664Y-50283617D01*
X144840761Y-50415673D01*
X144697000Y-50520122D01*
X144534664Y-50592398D01*
X144360849Y-50629344D01*
X144183151Y-50629344D01*
X144009336Y-50592398D01*
X143847000Y-50520122D01*
X143703239Y-50415673D01*
X143584336Y-50283617D01*
X143495486Y-50129726D01*
X143440575Y-49960725D01*
X143422000Y-49784000D01*
X143440575Y-49607275D01*
X143495486Y-49438274D01*
X143584336Y-49284383D01*
X143703239Y-49152327D01*
X143847000Y-49047878D01*
X144009336Y-48975602D01*
X144183151Y-48938656D01*
X144360849Y-48938656D01*
X144534664Y-48975602D01*
G37*
G36*
X144534664Y-46435602D02*
G01*
X144697000Y-46507878D01*
X144840761Y-46612327D01*
X144959664Y-46744383D01*
X145048514Y-46898274D01*
X145103425Y-47067275D01*
X145122000Y-47244000D01*
X145103425Y-47420725D01*
X145048514Y-47589726D01*
X144959664Y-47743617D01*
X144840761Y-47875673D01*
X144697000Y-47980122D01*
X144534664Y-48052398D01*
X144360849Y-48089344D01*
X144183151Y-48089344D01*
X144009336Y-48052398D01*
X143847000Y-47980122D01*
X143703239Y-47875673D01*
X143584336Y-47743617D01*
X143495486Y-47589726D01*
X143440575Y-47420725D01*
X143422000Y-47244000D01*
X143440575Y-47067275D01*
X143495486Y-46898274D01*
X143584336Y-46744383D01*
X143703239Y-46612327D01*
X143847000Y-46507878D01*
X144009336Y-46435602D01*
X144183151Y-46398656D01*
X144360849Y-46398656D01*
X144534664Y-46435602D01*
G37*
G36*
X144534664Y-43895602D02*
G01*
X144697000Y-43967878D01*
X144840761Y-44072327D01*
X144959664Y-44204383D01*
X145048514Y-44358274D01*
X145103425Y-44527275D01*
X145122000Y-44704000D01*
X145103425Y-44880725D01*
X145048514Y-45049726D01*
X144959664Y-45203617D01*
X144840761Y-45335673D01*
X144697000Y-45440122D01*
X144534664Y-45512398D01*
X144360849Y-45549344D01*
X144183151Y-45549344D01*
X144009336Y-45512398D01*
X143847000Y-45440122D01*
X143703239Y-45335673D01*
X143584336Y-45203617D01*
X143495486Y-45049726D01*
X143440575Y-44880725D01*
X143422000Y-44704000D01*
X143440575Y-44527275D01*
X143495486Y-44358274D01*
X143584336Y-44204383D01*
X143703239Y-44072327D01*
X143847000Y-43967878D01*
X144009336Y-43895602D01*
X144183151Y-43858656D01*
X144360849Y-43858656D01*
X144534664Y-43895602D01*
G37*
G36*
X120248000Y-45172000D02*
G01*
X117948000Y-45172000D01*
X117948000Y-42872000D01*
X120248000Y-42872000D01*
X120248000Y-45172000D01*
G37*
G36*
X132988000Y-45172000D02*
G01*
X130688000Y-45172000D01*
X130688000Y-42872000D01*
X132988000Y-42872000D01*
X132988000Y-45172000D01*
G37*
G36*
X145122000Y-43014000D02*
G01*
X143422000Y-43014000D01*
X143422000Y-41314000D01*
X145122000Y-41314000D01*
X145122000Y-43014000D01*
G37*
G36*
X102917029Y-37041992D02*
G01*
X103106312Y-37115320D01*
X103278898Y-37222181D01*
X103428910Y-37358935D01*
X103551239Y-37520925D01*
X103641719Y-37702634D01*
X103697270Y-37897876D01*
X103716000Y-38100000D01*
X103697270Y-38302124D01*
X103641719Y-38497366D01*
X103551239Y-38679075D01*
X103428910Y-38841065D01*
X103278898Y-38977819D01*
X103106312Y-39084680D01*
X102917029Y-39158008D01*
X102717495Y-39195308D01*
X102514505Y-39195308D01*
X102314971Y-39158008D01*
X102125688Y-39084680D01*
X101953102Y-38977819D01*
X101803090Y-38841065D01*
X101680761Y-38679075D01*
X101590281Y-38497366D01*
X101534730Y-38302124D01*
X101516000Y-38100000D01*
X101534730Y-37897876D01*
X101590281Y-37702634D01*
X101680761Y-37520925D01*
X101803090Y-37358935D01*
X101953102Y-37222181D01*
X102125688Y-37115320D01*
X102314971Y-37041992D01*
X102514505Y-37004692D01*
X102717495Y-37004692D01*
X102917029Y-37041992D01*
G37*
G36*
X147875029Y-37041992D02*
G01*
X148064312Y-37115320D01*
X148236898Y-37222181D01*
X148386910Y-37358935D01*
X148509239Y-37520925D01*
X148599719Y-37702634D01*
X148655270Y-37897876D01*
X148674000Y-38100000D01*
X148655270Y-38302124D01*
X148599719Y-38497366D01*
X148509239Y-38679075D01*
X148386910Y-38841065D01*
X148236898Y-38977819D01*
X148064312Y-39084680D01*
X147875029Y-39158008D01*
X147675495Y-39195308D01*
X147472505Y-39195308D01*
X147272971Y-39158008D01*
X147083688Y-39084680D01*
X146911102Y-38977819D01*
X146761090Y-38841065D01*
X146638761Y-38679075D01*
X146548281Y-38497366D01*
X146492730Y-38302124D01*
X146474000Y-38100000D01*
X146492730Y-37897876D01*
X146548281Y-37702634D01*
X146638761Y-37520925D01*
X146761090Y-37358935D01*
X146911102Y-37222181D01*
X147083688Y-37115320D01*
X147272971Y-37041992D01*
X147472505Y-37004692D01*
X147675495Y-37004692D01*
X147875029Y-37041992D01*
G37*
M02*
