%TF.GenerationSoftware,KiCad,Pcbnew,7.0.8*%
%TF.CreationDate,2024-01-15T19:45:52-06:00*%
%TF.ProjectId,remote,72656d6f-7465-42e6-9b69-6361645f7063,rev?*%
%TF.SameCoordinates,Original*%
%TF.FileFunction,Legend,Bot*%
%TF.FilePolarity,Positive*%
%FSLAX46Y46*%
G04 Gerber Fmt 4.6, Leading zero omitted, Abs format (unit mm)*
G04 Created by KiCad (PCBNEW 7.0.8) date 2024-01-15 19:45:52*
%MOMM*%
%LPD*%
G01*
G04 APERTURE LIST*
%ADD10C,0.152400*%
%ADD11C,0.150000*%
%ADD12C,0.120000*%
%ADD13C,0.250000*%
G04 APERTURE END LIST*
D10*
X143513756Y-84093603D02*
X143784689Y-83706556D01*
X143978213Y-84093603D02*
X143978213Y-83280803D01*
X143978213Y-83280803D02*
X143668575Y-83280803D01*
X143668575Y-83280803D02*
X143591165Y-83319508D01*
X143591165Y-83319508D02*
X143552460Y-83358213D01*
X143552460Y-83358213D02*
X143513756Y-83435622D01*
X143513756Y-83435622D02*
X143513756Y-83551737D01*
X143513756Y-83551737D02*
X143552460Y-83629146D01*
X143552460Y-83629146D02*
X143591165Y-83667851D01*
X143591165Y-83667851D02*
X143668575Y-83706556D01*
X143668575Y-83706556D02*
X143978213Y-83706556D01*
X142855775Y-84054899D02*
X142933184Y-84093603D01*
X142933184Y-84093603D02*
X143088003Y-84093603D01*
X143088003Y-84093603D02*
X143165413Y-84054899D01*
X143165413Y-84054899D02*
X143204117Y-83977489D01*
X143204117Y-83977489D02*
X143204117Y-83667851D01*
X143204117Y-83667851D02*
X143165413Y-83590441D01*
X143165413Y-83590441D02*
X143088003Y-83551737D01*
X143088003Y-83551737D02*
X142933184Y-83551737D01*
X142933184Y-83551737D02*
X142855775Y-83590441D01*
X142855775Y-83590441D02*
X142817070Y-83667851D01*
X142817070Y-83667851D02*
X142817070Y-83745260D01*
X142817070Y-83745260D02*
X143204117Y-83822670D01*
X142468727Y-84093603D02*
X142468727Y-83551737D01*
X142468727Y-83629146D02*
X142430022Y-83590441D01*
X142430022Y-83590441D02*
X142352612Y-83551737D01*
X142352612Y-83551737D02*
X142236498Y-83551737D01*
X142236498Y-83551737D02*
X142159089Y-83590441D01*
X142159089Y-83590441D02*
X142120384Y-83667851D01*
X142120384Y-83667851D02*
X142120384Y-84093603D01*
X142120384Y-83667851D02*
X142081679Y-83590441D01*
X142081679Y-83590441D02*
X142004270Y-83551737D01*
X142004270Y-83551737D02*
X141888155Y-83551737D01*
X141888155Y-83551737D02*
X141810746Y-83590441D01*
X141810746Y-83590441D02*
X141772041Y-83667851D01*
X141772041Y-83667851D02*
X141772041Y-84093603D01*
X141268879Y-84093603D02*
X141346289Y-84054899D01*
X141346289Y-84054899D02*
X141384994Y-84016194D01*
X141384994Y-84016194D02*
X141423698Y-83938784D01*
X141423698Y-83938784D02*
X141423698Y-83706556D01*
X141423698Y-83706556D02*
X141384994Y-83629146D01*
X141384994Y-83629146D02*
X141346289Y-83590441D01*
X141346289Y-83590441D02*
X141268879Y-83551737D01*
X141268879Y-83551737D02*
X141152765Y-83551737D01*
X141152765Y-83551737D02*
X141075356Y-83590441D01*
X141075356Y-83590441D02*
X141036651Y-83629146D01*
X141036651Y-83629146D02*
X140997946Y-83706556D01*
X140997946Y-83706556D02*
X140997946Y-83938784D01*
X140997946Y-83938784D02*
X141036651Y-84016194D01*
X141036651Y-84016194D02*
X141075356Y-84054899D01*
X141075356Y-84054899D02*
X141152765Y-84093603D01*
X141152765Y-84093603D02*
X141268879Y-84093603D01*
X140765718Y-83551737D02*
X140456080Y-83551737D01*
X140649604Y-83280803D02*
X140649604Y-83977489D01*
X140649604Y-83977489D02*
X140610899Y-84054899D01*
X140610899Y-84054899D02*
X140533489Y-84093603D01*
X140533489Y-84093603D02*
X140456080Y-84093603D01*
X139875509Y-84054899D02*
X139952918Y-84093603D01*
X139952918Y-84093603D02*
X140107737Y-84093603D01*
X140107737Y-84093603D02*
X140185147Y-84054899D01*
X140185147Y-84054899D02*
X140223851Y-83977489D01*
X140223851Y-83977489D02*
X140223851Y-83667851D01*
X140223851Y-83667851D02*
X140185147Y-83590441D01*
X140185147Y-83590441D02*
X140107737Y-83551737D01*
X140107737Y-83551737D02*
X139952918Y-83551737D01*
X139952918Y-83551737D02*
X139875509Y-83590441D01*
X139875509Y-83590441D02*
X139836804Y-83667851D01*
X139836804Y-83667851D02*
X139836804Y-83745260D01*
X139836804Y-83745260D02*
X140223851Y-83822670D01*
X138869185Y-84093603D02*
X138869185Y-83280803D01*
X138869185Y-83667851D02*
X138404728Y-83667851D01*
X138404728Y-84093603D02*
X138404728Y-83280803D01*
X137669337Y-84093603D02*
X137669337Y-83667851D01*
X137669337Y-83667851D02*
X137708042Y-83590441D01*
X137708042Y-83590441D02*
X137785451Y-83551737D01*
X137785451Y-83551737D02*
X137940270Y-83551737D01*
X137940270Y-83551737D02*
X138017680Y-83590441D01*
X137669337Y-84054899D02*
X137746746Y-84093603D01*
X137746746Y-84093603D02*
X137940270Y-84093603D01*
X137940270Y-84093603D02*
X138017680Y-84054899D01*
X138017680Y-84054899D02*
X138056384Y-83977489D01*
X138056384Y-83977489D02*
X138056384Y-83900079D01*
X138056384Y-83900079D02*
X138017680Y-83822670D01*
X138017680Y-83822670D02*
X137940270Y-83783965D01*
X137940270Y-83783965D02*
X137746746Y-83783965D01*
X137746746Y-83783965D02*
X137669337Y-83745260D01*
X137282290Y-84093603D02*
X137282290Y-83551737D01*
X137282290Y-83706556D02*
X137243585Y-83629146D01*
X137243585Y-83629146D02*
X137204880Y-83590441D01*
X137204880Y-83590441D02*
X137127471Y-83551737D01*
X137127471Y-83551737D02*
X137050061Y-83551737D01*
X136430785Y-84093603D02*
X136430785Y-83280803D01*
X136430785Y-84054899D02*
X136508194Y-84093603D01*
X136508194Y-84093603D02*
X136663013Y-84093603D01*
X136663013Y-84093603D02*
X136740423Y-84054899D01*
X136740423Y-84054899D02*
X136779128Y-84016194D01*
X136779128Y-84016194D02*
X136817832Y-83938784D01*
X136817832Y-83938784D02*
X136817832Y-83706556D01*
X136817832Y-83706556D02*
X136779128Y-83629146D01*
X136779128Y-83629146D02*
X136740423Y-83590441D01*
X136740423Y-83590441D02*
X136663013Y-83551737D01*
X136663013Y-83551737D02*
X136508194Y-83551737D01*
X136508194Y-83551737D02*
X136430785Y-83590441D01*
X136043738Y-84093603D02*
X136043738Y-83551737D01*
X136043738Y-83629146D02*
X136005033Y-83590441D01*
X136005033Y-83590441D02*
X135927623Y-83551737D01*
X135927623Y-83551737D02*
X135811509Y-83551737D01*
X135811509Y-83551737D02*
X135734100Y-83590441D01*
X135734100Y-83590441D02*
X135695395Y-83667851D01*
X135695395Y-83667851D02*
X135695395Y-84093603D01*
X135695395Y-83667851D02*
X135656690Y-83590441D01*
X135656690Y-83590441D02*
X135579281Y-83551737D01*
X135579281Y-83551737D02*
X135463166Y-83551737D01*
X135463166Y-83551737D02*
X135385757Y-83590441D01*
X135385757Y-83590441D02*
X135347052Y-83667851D01*
X135347052Y-83667851D02*
X135347052Y-84093603D01*
X134843890Y-84093603D02*
X134921300Y-84054899D01*
X134921300Y-84054899D02*
X134960005Y-84016194D01*
X134960005Y-84016194D02*
X134998709Y-83938784D01*
X134998709Y-83938784D02*
X134998709Y-83706556D01*
X134998709Y-83706556D02*
X134960005Y-83629146D01*
X134960005Y-83629146D02*
X134921300Y-83590441D01*
X134921300Y-83590441D02*
X134843890Y-83551737D01*
X134843890Y-83551737D02*
X134727776Y-83551737D01*
X134727776Y-83551737D02*
X134650367Y-83590441D01*
X134650367Y-83590441D02*
X134611662Y-83629146D01*
X134611662Y-83629146D02*
X134572957Y-83706556D01*
X134572957Y-83706556D02*
X134572957Y-83938784D01*
X134572957Y-83938784D02*
X134611662Y-84016194D01*
X134611662Y-84016194D02*
X134650367Y-84054899D01*
X134650367Y-84054899D02*
X134727776Y-84093603D01*
X134727776Y-84093603D02*
X134843890Y-84093603D01*
X133876272Y-83551737D02*
X133876272Y-84093603D01*
X134224615Y-83551737D02*
X134224615Y-83977489D01*
X134224615Y-83977489D02*
X134185910Y-84054899D01*
X134185910Y-84054899D02*
X134108500Y-84093603D01*
X134108500Y-84093603D02*
X133992386Y-84093603D01*
X133992386Y-84093603D02*
X133914977Y-84054899D01*
X133914977Y-84054899D02*
X133876272Y-84016194D01*
X133489225Y-83551737D02*
X133489225Y-84093603D01*
X133489225Y-83629146D02*
X133450520Y-83590441D01*
X133450520Y-83590441D02*
X133373110Y-83551737D01*
X133373110Y-83551737D02*
X133256996Y-83551737D01*
X133256996Y-83551737D02*
X133179587Y-83590441D01*
X133179587Y-83590441D02*
X133140882Y-83667851D01*
X133140882Y-83667851D02*
X133140882Y-84093603D01*
X132869949Y-83551737D02*
X132560311Y-83551737D01*
X132753835Y-83280803D02*
X132753835Y-83977489D01*
X132753835Y-83977489D02*
X132715130Y-84054899D01*
X132715130Y-84054899D02*
X132637720Y-84093603D01*
X132637720Y-84093603D02*
X132560311Y-84093603D01*
X146074683Y-42281453D02*
X146655255Y-42281453D01*
X146655255Y-42281453D02*
X146771369Y-42242748D01*
X146771369Y-42242748D02*
X146848779Y-42165339D01*
X146848779Y-42165339D02*
X146887483Y-42049224D01*
X146887483Y-42049224D02*
X146887483Y-41971815D01*
X146887483Y-42668500D02*
X146074683Y-42668500D01*
X146074683Y-42668500D02*
X146074683Y-42978138D01*
X146074683Y-42978138D02*
X146113388Y-43055548D01*
X146113388Y-43055548D02*
X146152093Y-43094253D01*
X146152093Y-43094253D02*
X146229502Y-43132957D01*
X146229502Y-43132957D02*
X146345617Y-43132957D01*
X146345617Y-43132957D02*
X146423026Y-43094253D01*
X146423026Y-43094253D02*
X146461731Y-43055548D01*
X146461731Y-43055548D02*
X146500436Y-42978138D01*
X146500436Y-42978138D02*
X146500436Y-42668500D01*
X146887483Y-43907053D02*
X146887483Y-43442596D01*
X146887483Y-43674824D02*
X146074683Y-43674824D01*
X146074683Y-43674824D02*
X146190798Y-43597415D01*
X146190798Y-43597415D02*
X146268207Y-43520005D01*
X146268207Y-43520005D02*
X146306912Y-43442596D01*
X146810074Y-44255395D02*
X146848779Y-44294100D01*
X146848779Y-44294100D02*
X146887483Y-44255395D01*
X146887483Y-44255395D02*
X146848779Y-44216691D01*
X146848779Y-44216691D02*
X146810074Y-44255395D01*
X146810074Y-44255395D02*
X146887483Y-44255395D01*
X146384321Y-44255395D02*
X146423026Y-44294100D01*
X146423026Y-44294100D02*
X146461731Y-44255395D01*
X146461731Y-44255395D02*
X146423026Y-44216691D01*
X146423026Y-44216691D02*
X146384321Y-44255395D01*
X146384321Y-44255395D02*
X146461731Y-44255395D01*
X146887483Y-45261719D02*
X146074683Y-45261719D01*
X146074683Y-45261719D02*
X146074683Y-45455243D01*
X146074683Y-45455243D02*
X146113388Y-45571357D01*
X146113388Y-45571357D02*
X146190798Y-45648767D01*
X146190798Y-45648767D02*
X146268207Y-45687472D01*
X146268207Y-45687472D02*
X146423026Y-45726176D01*
X146423026Y-45726176D02*
X146539140Y-45726176D01*
X146539140Y-45726176D02*
X146693959Y-45687472D01*
X146693959Y-45687472D02*
X146771369Y-45648767D01*
X146771369Y-45648767D02*
X146848779Y-45571357D01*
X146848779Y-45571357D02*
X146887483Y-45455243D01*
X146887483Y-45455243D02*
X146887483Y-45261719D01*
X146887483Y-46074519D02*
X146345617Y-46074519D01*
X146074683Y-46074519D02*
X146113388Y-46035815D01*
X146113388Y-46035815D02*
X146152093Y-46074519D01*
X146152093Y-46074519D02*
X146113388Y-46113224D01*
X146113388Y-46113224D02*
X146074683Y-46074519D01*
X146074683Y-46074519D02*
X146152093Y-46074519D01*
X146848779Y-46422863D02*
X146887483Y-46500272D01*
X146887483Y-46500272D02*
X146887483Y-46655091D01*
X146887483Y-46655091D02*
X146848779Y-46732501D01*
X146848779Y-46732501D02*
X146771369Y-46771205D01*
X146771369Y-46771205D02*
X146732664Y-46771205D01*
X146732664Y-46771205D02*
X146655255Y-46732501D01*
X146655255Y-46732501D02*
X146616550Y-46655091D01*
X146616550Y-46655091D02*
X146616550Y-46538977D01*
X146616550Y-46538977D02*
X146577845Y-46461567D01*
X146577845Y-46461567D02*
X146500436Y-46422863D01*
X146500436Y-46422863D02*
X146461731Y-46422863D01*
X146461731Y-46422863D02*
X146384321Y-46461567D01*
X146384321Y-46461567D02*
X146345617Y-46538977D01*
X146345617Y-46538977D02*
X146345617Y-46655091D01*
X146345617Y-46655091D02*
X146384321Y-46732501D01*
X146345617Y-47119548D02*
X147158417Y-47119548D01*
X146384321Y-47119548D02*
X146345617Y-47196958D01*
X146345617Y-47196958D02*
X146345617Y-47351777D01*
X146345617Y-47351777D02*
X146384321Y-47429186D01*
X146384321Y-47429186D02*
X146423026Y-47467891D01*
X146423026Y-47467891D02*
X146500436Y-47506596D01*
X146500436Y-47506596D02*
X146732664Y-47506596D01*
X146732664Y-47506596D02*
X146810074Y-47467891D01*
X146810074Y-47467891D02*
X146848779Y-47429186D01*
X146848779Y-47429186D02*
X146887483Y-47351777D01*
X146887483Y-47351777D02*
X146887483Y-47196958D01*
X146887483Y-47196958D02*
X146848779Y-47119548D01*
X146887483Y-47971053D02*
X146848779Y-47893643D01*
X146848779Y-47893643D02*
X146771369Y-47854938D01*
X146771369Y-47854938D02*
X146074683Y-47854938D01*
X146887483Y-48629033D02*
X146461731Y-48629033D01*
X146461731Y-48629033D02*
X146384321Y-48590328D01*
X146384321Y-48590328D02*
X146345617Y-48512919D01*
X146345617Y-48512919D02*
X146345617Y-48358100D01*
X146345617Y-48358100D02*
X146384321Y-48280690D01*
X146848779Y-48629033D02*
X146887483Y-48551624D01*
X146887483Y-48551624D02*
X146887483Y-48358100D01*
X146887483Y-48358100D02*
X146848779Y-48280690D01*
X146848779Y-48280690D02*
X146771369Y-48241986D01*
X146771369Y-48241986D02*
X146693959Y-48241986D01*
X146693959Y-48241986D02*
X146616550Y-48280690D01*
X146616550Y-48280690D02*
X146577845Y-48358100D01*
X146577845Y-48358100D02*
X146577845Y-48551624D01*
X146577845Y-48551624D02*
X146539140Y-48629033D01*
X146345617Y-48938671D02*
X146887483Y-49132195D01*
X146345617Y-49325718D02*
X146887483Y-49132195D01*
X146887483Y-49132195D02*
X147081007Y-49054785D01*
X147081007Y-49054785D02*
X147119712Y-49016080D01*
X147119712Y-49016080D02*
X147158417Y-48938671D01*
X146074683Y-50138518D02*
X146074683Y-50602975D01*
X146887483Y-50370747D02*
X146074683Y-50370747D01*
X146345617Y-50796499D02*
X146887483Y-50990023D01*
X146345617Y-51183546D02*
X146887483Y-50990023D01*
X146887483Y-50990023D02*
X147081007Y-50912613D01*
X147081007Y-50912613D02*
X147119712Y-50873908D01*
X147119712Y-50873908D02*
X147158417Y-50796499D01*
X146345617Y-51493184D02*
X147158417Y-51493184D01*
X146384321Y-51493184D02*
X146345617Y-51570594D01*
X146345617Y-51570594D02*
X146345617Y-51725413D01*
X146345617Y-51725413D02*
X146384321Y-51802822D01*
X146384321Y-51802822D02*
X146423026Y-51841527D01*
X146423026Y-51841527D02*
X146500436Y-51880232D01*
X146500436Y-51880232D02*
X146732664Y-51880232D01*
X146732664Y-51880232D02*
X146810074Y-51841527D01*
X146810074Y-51841527D02*
X146848779Y-51802822D01*
X146848779Y-51802822D02*
X146887483Y-51725413D01*
X146887483Y-51725413D02*
X146887483Y-51570594D01*
X146887483Y-51570594D02*
X146848779Y-51493184D01*
X146848779Y-52538212D02*
X146887483Y-52460803D01*
X146887483Y-52460803D02*
X146887483Y-52305984D01*
X146887483Y-52305984D02*
X146848779Y-52228574D01*
X146848779Y-52228574D02*
X146771369Y-52189870D01*
X146771369Y-52189870D02*
X146461731Y-52189870D01*
X146461731Y-52189870D02*
X146384321Y-52228574D01*
X146384321Y-52228574D02*
X146345617Y-52305984D01*
X146345617Y-52305984D02*
X146345617Y-52460803D01*
X146345617Y-52460803D02*
X146384321Y-52538212D01*
X146384321Y-52538212D02*
X146461731Y-52576917D01*
X146461731Y-52576917D02*
X146539140Y-52576917D01*
X146539140Y-52576917D02*
X146616550Y-52189870D01*
X147383291Y-42358862D02*
X147383291Y-42513681D01*
X147383291Y-42513681D02*
X147421996Y-42591091D01*
X147421996Y-42591091D02*
X147499406Y-42668500D01*
X147499406Y-42668500D02*
X147654225Y-42707205D01*
X147654225Y-42707205D02*
X147925158Y-42707205D01*
X147925158Y-42707205D02*
X148079977Y-42668500D01*
X148079977Y-42668500D02*
X148157387Y-42591091D01*
X148157387Y-42591091D02*
X148196091Y-42513681D01*
X148196091Y-42513681D02*
X148196091Y-42358862D01*
X148196091Y-42358862D02*
X148157387Y-42281453D01*
X148157387Y-42281453D02*
X148079977Y-42204043D01*
X148079977Y-42204043D02*
X147925158Y-42165339D01*
X147925158Y-42165339D02*
X147654225Y-42165339D01*
X147654225Y-42165339D02*
X147499406Y-42204043D01*
X147499406Y-42204043D02*
X147421996Y-42281453D01*
X147421996Y-42281453D02*
X147383291Y-42358862D01*
X147654225Y-43055548D02*
X148467025Y-43055548D01*
X147692929Y-43055548D02*
X147654225Y-43132958D01*
X147654225Y-43132958D02*
X147654225Y-43287777D01*
X147654225Y-43287777D02*
X147692929Y-43365186D01*
X147692929Y-43365186D02*
X147731634Y-43403891D01*
X147731634Y-43403891D02*
X147809044Y-43442596D01*
X147809044Y-43442596D02*
X148041272Y-43442596D01*
X148041272Y-43442596D02*
X148118682Y-43403891D01*
X148118682Y-43403891D02*
X148157387Y-43365186D01*
X148157387Y-43365186D02*
X148196091Y-43287777D01*
X148196091Y-43287777D02*
X148196091Y-43132958D01*
X148196091Y-43132958D02*
X148157387Y-43055548D01*
X148157387Y-44100576D02*
X148196091Y-44023167D01*
X148196091Y-44023167D02*
X148196091Y-43868348D01*
X148196091Y-43868348D02*
X148157387Y-43790938D01*
X148157387Y-43790938D02*
X148079977Y-43752234D01*
X148079977Y-43752234D02*
X147770339Y-43752234D01*
X147770339Y-43752234D02*
X147692929Y-43790938D01*
X147692929Y-43790938D02*
X147654225Y-43868348D01*
X147654225Y-43868348D02*
X147654225Y-44023167D01*
X147654225Y-44023167D02*
X147692929Y-44100576D01*
X147692929Y-44100576D02*
X147770339Y-44139281D01*
X147770339Y-44139281D02*
X147847748Y-44139281D01*
X147847748Y-44139281D02*
X147925158Y-43752234D01*
X147654225Y-44487624D02*
X148196091Y-44487624D01*
X147731634Y-44487624D02*
X147692929Y-44526329D01*
X147692929Y-44526329D02*
X147654225Y-44603739D01*
X147654225Y-44603739D02*
X147654225Y-44719853D01*
X147654225Y-44719853D02*
X147692929Y-44797262D01*
X147692929Y-44797262D02*
X147770339Y-44835967D01*
X147770339Y-44835967D02*
X148196091Y-44835967D01*
X147886453Y-45842290D02*
X147886453Y-46461567D01*
X148157387Y-47429186D02*
X148196091Y-47545300D01*
X148196091Y-47545300D02*
X148196091Y-47738824D01*
X148196091Y-47738824D02*
X148157387Y-47816233D01*
X148157387Y-47816233D02*
X148118682Y-47854938D01*
X148118682Y-47854938D02*
X148041272Y-47893643D01*
X148041272Y-47893643D02*
X147963863Y-47893643D01*
X147963863Y-47893643D02*
X147886453Y-47854938D01*
X147886453Y-47854938D02*
X147847748Y-47816233D01*
X147847748Y-47816233D02*
X147809044Y-47738824D01*
X147809044Y-47738824D02*
X147770339Y-47584005D01*
X147770339Y-47584005D02*
X147731634Y-47506595D01*
X147731634Y-47506595D02*
X147692929Y-47467890D01*
X147692929Y-47467890D02*
X147615520Y-47429186D01*
X147615520Y-47429186D02*
X147538110Y-47429186D01*
X147538110Y-47429186D02*
X147460701Y-47467890D01*
X147460701Y-47467890D02*
X147421996Y-47506595D01*
X147421996Y-47506595D02*
X147383291Y-47584005D01*
X147383291Y-47584005D02*
X147383291Y-47777528D01*
X147383291Y-47777528D02*
X147421996Y-47893643D01*
X148157387Y-48203281D02*
X148196091Y-48319395D01*
X148196091Y-48319395D02*
X148196091Y-48512919D01*
X148196091Y-48512919D02*
X148157387Y-48590328D01*
X148157387Y-48590328D02*
X148118682Y-48629033D01*
X148118682Y-48629033D02*
X148041272Y-48667738D01*
X148041272Y-48667738D02*
X147963863Y-48667738D01*
X147963863Y-48667738D02*
X147886453Y-48629033D01*
X147886453Y-48629033D02*
X147847748Y-48590328D01*
X147847748Y-48590328D02*
X147809044Y-48512919D01*
X147809044Y-48512919D02*
X147770339Y-48358100D01*
X147770339Y-48358100D02*
X147731634Y-48280690D01*
X147731634Y-48280690D02*
X147692929Y-48241985D01*
X147692929Y-48241985D02*
X147615520Y-48203281D01*
X147615520Y-48203281D02*
X147538110Y-48203281D01*
X147538110Y-48203281D02*
X147460701Y-48241985D01*
X147460701Y-48241985D02*
X147421996Y-48280690D01*
X147421996Y-48280690D02*
X147383291Y-48358100D01*
X147383291Y-48358100D02*
X147383291Y-48551623D01*
X147383291Y-48551623D02*
X147421996Y-48667738D01*
X148196091Y-49016080D02*
X147383291Y-49016080D01*
X147383291Y-49016080D02*
X147383291Y-49209604D01*
X147383291Y-49209604D02*
X147421996Y-49325718D01*
X147421996Y-49325718D02*
X147499406Y-49403128D01*
X147499406Y-49403128D02*
X147576815Y-49441833D01*
X147576815Y-49441833D02*
X147731634Y-49480537D01*
X147731634Y-49480537D02*
X147847748Y-49480537D01*
X147847748Y-49480537D02*
X148002567Y-49441833D01*
X148002567Y-49441833D02*
X148079977Y-49403128D01*
X148079977Y-49403128D02*
X148157387Y-49325718D01*
X148157387Y-49325718D02*
X148196091Y-49209604D01*
X148196091Y-49209604D02*
X148196091Y-49016080D01*
X148196091Y-50254633D02*
X148196091Y-49790176D01*
X148196091Y-50022404D02*
X147383291Y-50022404D01*
X147383291Y-50022404D02*
X147499406Y-49944995D01*
X147499406Y-49944995D02*
X147576815Y-49867585D01*
X147576815Y-49867585D02*
X147615520Y-49790176D01*
X147383291Y-50525566D02*
X147383291Y-51028728D01*
X147383291Y-51028728D02*
X147692929Y-50757794D01*
X147692929Y-50757794D02*
X147692929Y-50873909D01*
X147692929Y-50873909D02*
X147731634Y-50951318D01*
X147731634Y-50951318D02*
X147770339Y-50990023D01*
X147770339Y-50990023D02*
X147847748Y-51028728D01*
X147847748Y-51028728D02*
X148041272Y-51028728D01*
X148041272Y-51028728D02*
X148118682Y-50990023D01*
X148118682Y-50990023D02*
X148157387Y-50951318D01*
X148157387Y-50951318D02*
X148196091Y-50873909D01*
X148196091Y-50873909D02*
X148196091Y-50641680D01*
X148196091Y-50641680D02*
X148157387Y-50564271D01*
X148157387Y-50564271D02*
X148118682Y-50525566D01*
X147383291Y-51531889D02*
X147383291Y-51609299D01*
X147383291Y-51609299D02*
X147421996Y-51686708D01*
X147421996Y-51686708D02*
X147460701Y-51725413D01*
X147460701Y-51725413D02*
X147538110Y-51764118D01*
X147538110Y-51764118D02*
X147692929Y-51802823D01*
X147692929Y-51802823D02*
X147886453Y-51802823D01*
X147886453Y-51802823D02*
X148041272Y-51764118D01*
X148041272Y-51764118D02*
X148118682Y-51725413D01*
X148118682Y-51725413D02*
X148157387Y-51686708D01*
X148157387Y-51686708D02*
X148196091Y-51609299D01*
X148196091Y-51609299D02*
X148196091Y-51531889D01*
X148196091Y-51531889D02*
X148157387Y-51454480D01*
X148157387Y-51454480D02*
X148118682Y-51415775D01*
X148118682Y-51415775D02*
X148041272Y-51377070D01*
X148041272Y-51377070D02*
X147886453Y-51338366D01*
X147886453Y-51338366D02*
X147692929Y-51338366D01*
X147692929Y-51338366D02*
X147538110Y-51377070D01*
X147538110Y-51377070D02*
X147460701Y-51415775D01*
X147460701Y-51415775D02*
X147421996Y-51454480D01*
X147421996Y-51454480D02*
X147383291Y-51531889D01*
X147383291Y-52499508D02*
X147383291Y-52344689D01*
X147383291Y-52344689D02*
X147421996Y-52267280D01*
X147421996Y-52267280D02*
X147460701Y-52228575D01*
X147460701Y-52228575D02*
X147576815Y-52151165D01*
X147576815Y-52151165D02*
X147731634Y-52112461D01*
X147731634Y-52112461D02*
X148041272Y-52112461D01*
X148041272Y-52112461D02*
X148118682Y-52151165D01*
X148118682Y-52151165D02*
X148157387Y-52189870D01*
X148157387Y-52189870D02*
X148196091Y-52267280D01*
X148196091Y-52267280D02*
X148196091Y-52422099D01*
X148196091Y-52422099D02*
X148157387Y-52499508D01*
X148157387Y-52499508D02*
X148118682Y-52538213D01*
X148118682Y-52538213D02*
X148041272Y-52576918D01*
X148041272Y-52576918D02*
X147847748Y-52576918D01*
X147847748Y-52576918D02*
X147770339Y-52538213D01*
X147770339Y-52538213D02*
X147731634Y-52499508D01*
X147731634Y-52499508D02*
X147692929Y-52422099D01*
X147692929Y-52422099D02*
X147692929Y-52267280D01*
X147692929Y-52267280D02*
X147731634Y-52189870D01*
X147731634Y-52189870D02*
X147770339Y-52151165D01*
X147770339Y-52151165D02*
X147847748Y-52112461D01*
X149427290Y-41739586D02*
X149465995Y-41700882D01*
X149465995Y-41700882D02*
X149504699Y-41584767D01*
X149504699Y-41584767D02*
X149504699Y-41507358D01*
X149504699Y-41507358D02*
X149465995Y-41391244D01*
X149465995Y-41391244D02*
X149388585Y-41313834D01*
X149388585Y-41313834D02*
X149311175Y-41275129D01*
X149311175Y-41275129D02*
X149156356Y-41236425D01*
X149156356Y-41236425D02*
X149040242Y-41236425D01*
X149040242Y-41236425D02*
X148885423Y-41275129D01*
X148885423Y-41275129D02*
X148808014Y-41313834D01*
X148808014Y-41313834D02*
X148730604Y-41391244D01*
X148730604Y-41391244D02*
X148691899Y-41507358D01*
X148691899Y-41507358D02*
X148691899Y-41584767D01*
X148691899Y-41584767D02*
X148730604Y-41700882D01*
X148730604Y-41700882D02*
X148769309Y-41739586D01*
X149504699Y-42204044D02*
X149465995Y-42126634D01*
X149465995Y-42126634D02*
X149388585Y-42087929D01*
X149388585Y-42087929D02*
X148691899Y-42087929D01*
X149504699Y-42629796D02*
X149465995Y-42552386D01*
X149465995Y-42552386D02*
X149427290Y-42513681D01*
X149427290Y-42513681D02*
X149349880Y-42474977D01*
X149349880Y-42474977D02*
X149117652Y-42474977D01*
X149117652Y-42474977D02*
X149040242Y-42513681D01*
X149040242Y-42513681D02*
X149001537Y-42552386D01*
X149001537Y-42552386D02*
X148962833Y-42629796D01*
X148962833Y-42629796D02*
X148962833Y-42745910D01*
X148962833Y-42745910D02*
X149001537Y-42823319D01*
X149001537Y-42823319D02*
X149040242Y-42862024D01*
X149040242Y-42862024D02*
X149117652Y-42900729D01*
X149117652Y-42900729D02*
X149349880Y-42900729D01*
X149349880Y-42900729D02*
X149427290Y-42862024D01*
X149427290Y-42862024D02*
X149465995Y-42823319D01*
X149465995Y-42823319D02*
X149504699Y-42745910D01*
X149504699Y-42745910D02*
X149504699Y-42629796D01*
X149465995Y-43210367D02*
X149504699Y-43287776D01*
X149504699Y-43287776D02*
X149504699Y-43442595D01*
X149504699Y-43442595D02*
X149465995Y-43520005D01*
X149465995Y-43520005D02*
X149388585Y-43558709D01*
X149388585Y-43558709D02*
X149349880Y-43558709D01*
X149349880Y-43558709D02*
X149272471Y-43520005D01*
X149272471Y-43520005D02*
X149233766Y-43442595D01*
X149233766Y-43442595D02*
X149233766Y-43326481D01*
X149233766Y-43326481D02*
X149195061Y-43249071D01*
X149195061Y-43249071D02*
X149117652Y-43210367D01*
X149117652Y-43210367D02*
X149078947Y-43210367D01*
X149078947Y-43210367D02*
X149001537Y-43249071D01*
X149001537Y-43249071D02*
X148962833Y-43326481D01*
X148962833Y-43326481D02*
X148962833Y-43442595D01*
X148962833Y-43442595D02*
X149001537Y-43520005D01*
X149465995Y-44216690D02*
X149504699Y-44139281D01*
X149504699Y-44139281D02*
X149504699Y-43984462D01*
X149504699Y-43984462D02*
X149465995Y-43907052D01*
X149465995Y-43907052D02*
X149388585Y-43868348D01*
X149388585Y-43868348D02*
X149078947Y-43868348D01*
X149078947Y-43868348D02*
X149001537Y-43907052D01*
X149001537Y-43907052D02*
X148962833Y-43984462D01*
X148962833Y-43984462D02*
X148962833Y-44139281D01*
X148962833Y-44139281D02*
X149001537Y-44216690D01*
X149001537Y-44216690D02*
X149078947Y-44255395D01*
X149078947Y-44255395D02*
X149156356Y-44255395D01*
X149156356Y-44255395D02*
X149233766Y-43868348D01*
X149504699Y-44952081D02*
X148691899Y-44952081D01*
X149465995Y-44952081D02*
X149504699Y-44874672D01*
X149504699Y-44874672D02*
X149504699Y-44719853D01*
X149504699Y-44719853D02*
X149465995Y-44642443D01*
X149465995Y-44642443D02*
X149427290Y-44603738D01*
X149427290Y-44603738D02*
X149349880Y-44565034D01*
X149349880Y-44565034D02*
X149117652Y-44565034D01*
X149117652Y-44565034D02*
X149040242Y-44603738D01*
X149040242Y-44603738D02*
X149001537Y-44642443D01*
X149001537Y-44642443D02*
X148962833Y-44719853D01*
X148962833Y-44719853D02*
X148962833Y-44874672D01*
X148962833Y-44874672D02*
X149001537Y-44952081D01*
X149195061Y-45958404D02*
X149195061Y-46577681D01*
X149465995Y-48164576D02*
X149504699Y-48280690D01*
X149504699Y-48280690D02*
X149504699Y-48474214D01*
X149504699Y-48474214D02*
X149465995Y-48551623D01*
X149465995Y-48551623D02*
X149427290Y-48590328D01*
X149427290Y-48590328D02*
X149349880Y-48629033D01*
X149349880Y-48629033D02*
X149272471Y-48629033D01*
X149272471Y-48629033D02*
X149195061Y-48590328D01*
X149195061Y-48590328D02*
X149156356Y-48551623D01*
X149156356Y-48551623D02*
X149117652Y-48474214D01*
X149117652Y-48474214D02*
X149078947Y-48319395D01*
X149078947Y-48319395D02*
X149040242Y-48241985D01*
X149040242Y-48241985D02*
X149001537Y-48203280D01*
X149001537Y-48203280D02*
X148924128Y-48164576D01*
X148924128Y-48164576D02*
X148846718Y-48164576D01*
X148846718Y-48164576D02*
X148769309Y-48203280D01*
X148769309Y-48203280D02*
X148730604Y-48241985D01*
X148730604Y-48241985D02*
X148691899Y-48319395D01*
X148691899Y-48319395D02*
X148691899Y-48512918D01*
X148691899Y-48512918D02*
X148730604Y-48629033D01*
X149504699Y-48977375D02*
X148691899Y-48977375D01*
X149078947Y-48977375D02*
X149078947Y-49441832D01*
X149504699Y-49441832D02*
X148691899Y-49441832D01*
X149504699Y-50254633D02*
X149504699Y-49790176D01*
X149504699Y-50022404D02*
X148691899Y-50022404D01*
X148691899Y-50022404D02*
X148808014Y-49944995D01*
X148808014Y-49944995D02*
X148885423Y-49867585D01*
X148885423Y-49867585D02*
X148924128Y-49790176D01*
X149504699Y-51028728D02*
X149504699Y-50564271D01*
X149504699Y-50796499D02*
X148691899Y-50796499D01*
X148691899Y-50796499D02*
X148808014Y-50719090D01*
X148808014Y-50719090D02*
X148885423Y-50641680D01*
X148885423Y-50641680D02*
X148924128Y-50564271D01*
X148691899Y-51531889D02*
X148691899Y-51609299D01*
X148691899Y-51609299D02*
X148730604Y-51686708D01*
X148730604Y-51686708D02*
X148769309Y-51725413D01*
X148769309Y-51725413D02*
X148846718Y-51764118D01*
X148846718Y-51764118D02*
X149001537Y-51802823D01*
X149001537Y-51802823D02*
X149195061Y-51802823D01*
X149195061Y-51802823D02*
X149349880Y-51764118D01*
X149349880Y-51764118D02*
X149427290Y-51725413D01*
X149427290Y-51725413D02*
X149465995Y-51686708D01*
X149465995Y-51686708D02*
X149504699Y-51609299D01*
X149504699Y-51609299D02*
X149504699Y-51531889D01*
X149504699Y-51531889D02*
X149465995Y-51454480D01*
X149465995Y-51454480D02*
X149427290Y-51415775D01*
X149427290Y-51415775D02*
X149349880Y-51377070D01*
X149349880Y-51377070D02*
X149195061Y-51338366D01*
X149195061Y-51338366D02*
X149001537Y-51338366D01*
X149001537Y-51338366D02*
X148846718Y-51377070D01*
X148846718Y-51377070D02*
X148769309Y-51415775D01*
X148769309Y-51415775D02*
X148730604Y-51454480D01*
X148730604Y-51454480D02*
X148691899Y-51531889D01*
X148691899Y-52499508D02*
X148691899Y-52344689D01*
X148691899Y-52344689D02*
X148730604Y-52267280D01*
X148730604Y-52267280D02*
X148769309Y-52228575D01*
X148769309Y-52228575D02*
X148885423Y-52151165D01*
X148885423Y-52151165D02*
X149040242Y-52112461D01*
X149040242Y-52112461D02*
X149349880Y-52112461D01*
X149349880Y-52112461D02*
X149427290Y-52151165D01*
X149427290Y-52151165D02*
X149465995Y-52189870D01*
X149465995Y-52189870D02*
X149504699Y-52267280D01*
X149504699Y-52267280D02*
X149504699Y-52422099D01*
X149504699Y-52422099D02*
X149465995Y-52499508D01*
X149465995Y-52499508D02*
X149427290Y-52538213D01*
X149427290Y-52538213D02*
X149349880Y-52576918D01*
X149349880Y-52576918D02*
X149156356Y-52576918D01*
X149156356Y-52576918D02*
X149078947Y-52538213D01*
X149078947Y-52538213D02*
X149040242Y-52499508D01*
X149040242Y-52499508D02*
X149001537Y-52422099D01*
X149001537Y-52422099D02*
X149001537Y-52267280D01*
X149001537Y-52267280D02*
X149040242Y-52189870D01*
X149040242Y-52189870D02*
X149078947Y-52151165D01*
X149078947Y-52151165D02*
X149156356Y-52112461D01*
X113210217Y-41537863D02*
X112823170Y-41537863D01*
X113287627Y-41770091D02*
X113016694Y-40957291D01*
X113016694Y-40957291D02*
X112745760Y-41770091D01*
X112474827Y-41770091D02*
X112474827Y-40957291D01*
X112474827Y-40957291D02*
X112203893Y-41537863D01*
X112203893Y-41537863D02*
X111932960Y-40957291D01*
X111932960Y-40957291D02*
X111932960Y-41770091D01*
X111584617Y-41731387D02*
X111468503Y-41770091D01*
X111468503Y-41770091D02*
X111274979Y-41770091D01*
X111274979Y-41770091D02*
X111197570Y-41731387D01*
X111197570Y-41731387D02*
X111158865Y-41692682D01*
X111158865Y-41692682D02*
X111120160Y-41615272D01*
X111120160Y-41615272D02*
X111120160Y-41537863D01*
X111120160Y-41537863D02*
X111158865Y-41460453D01*
X111158865Y-41460453D02*
X111197570Y-41421748D01*
X111197570Y-41421748D02*
X111274979Y-41383044D01*
X111274979Y-41383044D02*
X111429798Y-41344339D01*
X111429798Y-41344339D02*
X111507208Y-41305634D01*
X111507208Y-41305634D02*
X111545913Y-41266929D01*
X111545913Y-41266929D02*
X111584617Y-41189520D01*
X111584617Y-41189520D02*
X111584617Y-41112110D01*
X111584617Y-41112110D02*
X111545913Y-41034701D01*
X111545913Y-41034701D02*
X111507208Y-40995996D01*
X111507208Y-40995996D02*
X111429798Y-40957291D01*
X111429798Y-40957291D02*
X111236275Y-40957291D01*
X111236275Y-40957291D02*
X111120160Y-40995996D01*
X110346065Y-41770091D02*
X110810522Y-41770091D01*
X110578294Y-41770091D02*
X110578294Y-40957291D01*
X110578294Y-40957291D02*
X110655703Y-41073406D01*
X110655703Y-41073406D02*
X110733113Y-41150815D01*
X110733113Y-41150815D02*
X110810522Y-41189520D01*
X109571970Y-41770091D02*
X110036427Y-41770091D01*
X109804199Y-41770091D02*
X109804199Y-40957291D01*
X109804199Y-40957291D02*
X109881608Y-41073406D01*
X109881608Y-41073406D02*
X109959018Y-41150815D01*
X109959018Y-41150815D02*
X110036427Y-41189520D01*
X108797875Y-41770091D02*
X109262332Y-41770091D01*
X109030104Y-41770091D02*
X109030104Y-40957291D01*
X109030104Y-40957291D02*
X109107513Y-41073406D01*
X109107513Y-41073406D02*
X109184923Y-41150815D01*
X109184923Y-41150815D02*
X109262332Y-41189520D01*
X108526942Y-40957291D02*
X107985076Y-40957291D01*
X107985076Y-40957291D02*
X108333418Y-41770091D01*
X146074683Y-67712901D02*
X146655255Y-67712901D01*
X146655255Y-67712901D02*
X146771369Y-67674196D01*
X146771369Y-67674196D02*
X146848779Y-67596787D01*
X146848779Y-67596787D02*
X146887483Y-67480672D01*
X146887483Y-67480672D02*
X146887483Y-67403263D01*
X146887483Y-68099948D02*
X146074683Y-68099948D01*
X146074683Y-68099948D02*
X146074683Y-68409586D01*
X146074683Y-68409586D02*
X146113388Y-68486996D01*
X146113388Y-68486996D02*
X146152093Y-68525701D01*
X146152093Y-68525701D02*
X146229502Y-68564405D01*
X146229502Y-68564405D02*
X146345617Y-68564405D01*
X146345617Y-68564405D02*
X146423026Y-68525701D01*
X146423026Y-68525701D02*
X146461731Y-68486996D01*
X146461731Y-68486996D02*
X146500436Y-68409586D01*
X146500436Y-68409586D02*
X146500436Y-68099948D01*
X146074683Y-68835339D02*
X146074683Y-69338501D01*
X146074683Y-69338501D02*
X146384321Y-69067567D01*
X146384321Y-69067567D02*
X146384321Y-69183682D01*
X146384321Y-69183682D02*
X146423026Y-69261091D01*
X146423026Y-69261091D02*
X146461731Y-69299796D01*
X146461731Y-69299796D02*
X146539140Y-69338501D01*
X146539140Y-69338501D02*
X146732664Y-69338501D01*
X146732664Y-69338501D02*
X146810074Y-69299796D01*
X146810074Y-69299796D02*
X146848779Y-69261091D01*
X146848779Y-69261091D02*
X146887483Y-69183682D01*
X146887483Y-69183682D02*
X146887483Y-68951453D01*
X146887483Y-68951453D02*
X146848779Y-68874044D01*
X146848779Y-68874044D02*
X146810074Y-68835339D01*
X146810074Y-69686843D02*
X146848779Y-69725548D01*
X146848779Y-69725548D02*
X146887483Y-69686843D01*
X146887483Y-69686843D02*
X146848779Y-69648139D01*
X146848779Y-69648139D02*
X146810074Y-69686843D01*
X146810074Y-69686843D02*
X146887483Y-69686843D01*
X146384321Y-69686843D02*
X146423026Y-69725548D01*
X146423026Y-69725548D02*
X146461731Y-69686843D01*
X146461731Y-69686843D02*
X146423026Y-69648139D01*
X146423026Y-69648139D02*
X146384321Y-69686843D01*
X146384321Y-69686843D02*
X146461731Y-69686843D01*
X146887483Y-70693167D02*
X146074683Y-70693167D01*
X146074683Y-70693167D02*
X146074683Y-70886691D01*
X146074683Y-70886691D02*
X146113388Y-71002805D01*
X146113388Y-71002805D02*
X146190798Y-71080215D01*
X146190798Y-71080215D02*
X146268207Y-71118920D01*
X146268207Y-71118920D02*
X146423026Y-71157624D01*
X146423026Y-71157624D02*
X146539140Y-71157624D01*
X146539140Y-71157624D02*
X146693959Y-71118920D01*
X146693959Y-71118920D02*
X146771369Y-71080215D01*
X146771369Y-71080215D02*
X146848779Y-71002805D01*
X146848779Y-71002805D02*
X146887483Y-70886691D01*
X146887483Y-70886691D02*
X146887483Y-70693167D01*
X146887483Y-71505967D02*
X146345617Y-71505967D01*
X146074683Y-71505967D02*
X146113388Y-71467263D01*
X146113388Y-71467263D02*
X146152093Y-71505967D01*
X146152093Y-71505967D02*
X146113388Y-71544672D01*
X146113388Y-71544672D02*
X146074683Y-71505967D01*
X146074683Y-71505967D02*
X146152093Y-71505967D01*
X146848779Y-71854311D02*
X146887483Y-71931720D01*
X146887483Y-71931720D02*
X146887483Y-72086539D01*
X146887483Y-72086539D02*
X146848779Y-72163949D01*
X146848779Y-72163949D02*
X146771369Y-72202653D01*
X146771369Y-72202653D02*
X146732664Y-72202653D01*
X146732664Y-72202653D02*
X146655255Y-72163949D01*
X146655255Y-72163949D02*
X146616550Y-72086539D01*
X146616550Y-72086539D02*
X146616550Y-71970425D01*
X146616550Y-71970425D02*
X146577845Y-71893015D01*
X146577845Y-71893015D02*
X146500436Y-71854311D01*
X146500436Y-71854311D02*
X146461731Y-71854311D01*
X146461731Y-71854311D02*
X146384321Y-71893015D01*
X146384321Y-71893015D02*
X146345617Y-71970425D01*
X146345617Y-71970425D02*
X146345617Y-72086539D01*
X146345617Y-72086539D02*
X146384321Y-72163949D01*
X146345617Y-72550996D02*
X147158417Y-72550996D01*
X146384321Y-72550996D02*
X146345617Y-72628406D01*
X146345617Y-72628406D02*
X146345617Y-72783225D01*
X146345617Y-72783225D02*
X146384321Y-72860634D01*
X146384321Y-72860634D02*
X146423026Y-72899339D01*
X146423026Y-72899339D02*
X146500436Y-72938044D01*
X146500436Y-72938044D02*
X146732664Y-72938044D01*
X146732664Y-72938044D02*
X146810074Y-72899339D01*
X146810074Y-72899339D02*
X146848779Y-72860634D01*
X146848779Y-72860634D02*
X146887483Y-72783225D01*
X146887483Y-72783225D02*
X146887483Y-72628406D01*
X146887483Y-72628406D02*
X146848779Y-72550996D01*
X146887483Y-73402501D02*
X146848779Y-73325091D01*
X146848779Y-73325091D02*
X146771369Y-73286386D01*
X146771369Y-73286386D02*
X146074683Y-73286386D01*
X146887483Y-74060481D02*
X146461731Y-74060481D01*
X146461731Y-74060481D02*
X146384321Y-74021776D01*
X146384321Y-74021776D02*
X146345617Y-73944367D01*
X146345617Y-73944367D02*
X146345617Y-73789548D01*
X146345617Y-73789548D02*
X146384321Y-73712138D01*
X146848779Y-74060481D02*
X146887483Y-73983072D01*
X146887483Y-73983072D02*
X146887483Y-73789548D01*
X146887483Y-73789548D02*
X146848779Y-73712138D01*
X146848779Y-73712138D02*
X146771369Y-73673434D01*
X146771369Y-73673434D02*
X146693959Y-73673434D01*
X146693959Y-73673434D02*
X146616550Y-73712138D01*
X146616550Y-73712138D02*
X146577845Y-73789548D01*
X146577845Y-73789548D02*
X146577845Y-73983072D01*
X146577845Y-73983072D02*
X146539140Y-74060481D01*
X146345617Y-74370119D02*
X146887483Y-74563643D01*
X146345617Y-74757166D02*
X146887483Y-74563643D01*
X146887483Y-74563643D02*
X147081007Y-74486233D01*
X147081007Y-74486233D02*
X147119712Y-74447528D01*
X147119712Y-74447528D02*
X147158417Y-74370119D01*
X146887483Y-76150537D02*
X146500436Y-75879604D01*
X146887483Y-75686080D02*
X146074683Y-75686080D01*
X146074683Y-75686080D02*
X146074683Y-75995718D01*
X146074683Y-75995718D02*
X146113388Y-76073128D01*
X146113388Y-76073128D02*
X146152093Y-76111833D01*
X146152093Y-76111833D02*
X146229502Y-76150537D01*
X146229502Y-76150537D02*
X146345617Y-76150537D01*
X146345617Y-76150537D02*
X146423026Y-76111833D01*
X146423026Y-76111833D02*
X146461731Y-76073128D01*
X146461731Y-76073128D02*
X146500436Y-75995718D01*
X146500436Y-75995718D02*
X146500436Y-75686080D01*
X146887483Y-76614995D02*
X146848779Y-76537585D01*
X146848779Y-76537585D02*
X146810074Y-76498880D01*
X146810074Y-76498880D02*
X146732664Y-76460176D01*
X146732664Y-76460176D02*
X146500436Y-76460176D01*
X146500436Y-76460176D02*
X146423026Y-76498880D01*
X146423026Y-76498880D02*
X146384321Y-76537585D01*
X146384321Y-76537585D02*
X146345617Y-76614995D01*
X146345617Y-76614995D02*
X146345617Y-76731109D01*
X146345617Y-76731109D02*
X146384321Y-76808518D01*
X146384321Y-76808518D02*
X146423026Y-76847223D01*
X146423026Y-76847223D02*
X146500436Y-76885928D01*
X146500436Y-76885928D02*
X146732664Y-76885928D01*
X146732664Y-76885928D02*
X146810074Y-76847223D01*
X146810074Y-76847223D02*
X146848779Y-76808518D01*
X146848779Y-76808518D02*
X146887483Y-76731109D01*
X146887483Y-76731109D02*
X146887483Y-76614995D01*
X146345617Y-77118156D02*
X146345617Y-77427794D01*
X146074683Y-77234270D02*
X146771369Y-77234270D01*
X146771369Y-77234270D02*
X146848779Y-77272975D01*
X146848779Y-77272975D02*
X146887483Y-77350385D01*
X146887483Y-77350385D02*
X146887483Y-77427794D01*
X146887483Y-78047070D02*
X146461731Y-78047070D01*
X146461731Y-78047070D02*
X146384321Y-78008365D01*
X146384321Y-78008365D02*
X146345617Y-77930956D01*
X146345617Y-77930956D02*
X146345617Y-77776137D01*
X146345617Y-77776137D02*
X146384321Y-77698727D01*
X146848779Y-78047070D02*
X146887483Y-77969661D01*
X146887483Y-77969661D02*
X146887483Y-77776137D01*
X146887483Y-77776137D02*
X146848779Y-77698727D01*
X146848779Y-77698727D02*
X146771369Y-77660023D01*
X146771369Y-77660023D02*
X146693959Y-77660023D01*
X146693959Y-77660023D02*
X146616550Y-77698727D01*
X146616550Y-77698727D02*
X146577845Y-77776137D01*
X146577845Y-77776137D02*
X146577845Y-77969661D01*
X146577845Y-77969661D02*
X146539140Y-78047070D01*
X146345617Y-78318003D02*
X146345617Y-78627641D01*
X146074683Y-78434117D02*
X146771369Y-78434117D01*
X146771369Y-78434117D02*
X146848779Y-78472822D01*
X146848779Y-78472822D02*
X146887483Y-78550232D01*
X146887483Y-78550232D02*
X146887483Y-78627641D01*
X146848779Y-79208212D02*
X146887483Y-79130803D01*
X146887483Y-79130803D02*
X146887483Y-78975984D01*
X146887483Y-78975984D02*
X146848779Y-78898574D01*
X146848779Y-78898574D02*
X146771369Y-78859870D01*
X146771369Y-78859870D02*
X146461731Y-78859870D01*
X146461731Y-78859870D02*
X146384321Y-78898574D01*
X146384321Y-78898574D02*
X146345617Y-78975984D01*
X146345617Y-78975984D02*
X146345617Y-79130803D01*
X146345617Y-79130803D02*
X146384321Y-79208212D01*
X146384321Y-79208212D02*
X146461731Y-79246917D01*
X146461731Y-79246917D02*
X146539140Y-79246917D01*
X146539140Y-79246917D02*
X146616550Y-78859870D01*
X147383291Y-70151300D02*
X147383291Y-70306119D01*
X147383291Y-70306119D02*
X147421996Y-70383529D01*
X147421996Y-70383529D02*
X147499406Y-70460938D01*
X147499406Y-70460938D02*
X147654225Y-70499643D01*
X147654225Y-70499643D02*
X147925158Y-70499643D01*
X147925158Y-70499643D02*
X148079977Y-70460938D01*
X148079977Y-70460938D02*
X148157387Y-70383529D01*
X148157387Y-70383529D02*
X148196091Y-70306119D01*
X148196091Y-70306119D02*
X148196091Y-70151300D01*
X148196091Y-70151300D02*
X148157387Y-70073891D01*
X148157387Y-70073891D02*
X148079977Y-69996481D01*
X148079977Y-69996481D02*
X147925158Y-69957777D01*
X147925158Y-69957777D02*
X147654225Y-69957777D01*
X147654225Y-69957777D02*
X147499406Y-69996481D01*
X147499406Y-69996481D02*
X147421996Y-70073891D01*
X147421996Y-70073891D02*
X147383291Y-70151300D01*
X147654225Y-70847986D02*
X148467025Y-70847986D01*
X147692929Y-70847986D02*
X147654225Y-70925396D01*
X147654225Y-70925396D02*
X147654225Y-71080215D01*
X147654225Y-71080215D02*
X147692929Y-71157624D01*
X147692929Y-71157624D02*
X147731634Y-71196329D01*
X147731634Y-71196329D02*
X147809044Y-71235034D01*
X147809044Y-71235034D02*
X148041272Y-71235034D01*
X148041272Y-71235034D02*
X148118682Y-71196329D01*
X148118682Y-71196329D02*
X148157387Y-71157624D01*
X148157387Y-71157624D02*
X148196091Y-71080215D01*
X148196091Y-71080215D02*
X148196091Y-70925396D01*
X148196091Y-70925396D02*
X148157387Y-70847986D01*
X148157387Y-71893014D02*
X148196091Y-71815605D01*
X148196091Y-71815605D02*
X148196091Y-71660786D01*
X148196091Y-71660786D02*
X148157387Y-71583376D01*
X148157387Y-71583376D02*
X148079977Y-71544672D01*
X148079977Y-71544672D02*
X147770339Y-71544672D01*
X147770339Y-71544672D02*
X147692929Y-71583376D01*
X147692929Y-71583376D02*
X147654225Y-71660786D01*
X147654225Y-71660786D02*
X147654225Y-71815605D01*
X147654225Y-71815605D02*
X147692929Y-71893014D01*
X147692929Y-71893014D02*
X147770339Y-71931719D01*
X147770339Y-71931719D02*
X147847748Y-71931719D01*
X147847748Y-71931719D02*
X147925158Y-71544672D01*
X147654225Y-72280062D02*
X148196091Y-72280062D01*
X147731634Y-72280062D02*
X147692929Y-72318767D01*
X147692929Y-72318767D02*
X147654225Y-72396177D01*
X147654225Y-72396177D02*
X147654225Y-72512291D01*
X147654225Y-72512291D02*
X147692929Y-72589700D01*
X147692929Y-72589700D02*
X147770339Y-72628405D01*
X147770339Y-72628405D02*
X148196091Y-72628405D01*
X147886453Y-73634728D02*
X147886453Y-74254005D01*
X148196091Y-75260328D02*
X147383291Y-75260328D01*
X147383291Y-75260328D02*
X148196091Y-75724785D01*
X148196091Y-75724785D02*
X147383291Y-75724785D01*
X148196091Y-76227948D02*
X148157387Y-76150538D01*
X148157387Y-76150538D02*
X148118682Y-76111833D01*
X148118682Y-76111833D02*
X148041272Y-76073129D01*
X148041272Y-76073129D02*
X147809044Y-76073129D01*
X147809044Y-76073129D02*
X147731634Y-76111833D01*
X147731634Y-76111833D02*
X147692929Y-76150538D01*
X147692929Y-76150538D02*
X147654225Y-76227948D01*
X147654225Y-76227948D02*
X147654225Y-76344062D01*
X147654225Y-76344062D02*
X147692929Y-76421471D01*
X147692929Y-76421471D02*
X147731634Y-76460176D01*
X147731634Y-76460176D02*
X147809044Y-76498881D01*
X147809044Y-76498881D02*
X148041272Y-76498881D01*
X148041272Y-76498881D02*
X148118682Y-76460176D01*
X148118682Y-76460176D02*
X148157387Y-76421471D01*
X148157387Y-76421471D02*
X148196091Y-76344062D01*
X148196091Y-76344062D02*
X148196091Y-76227948D01*
X148196091Y-76847223D02*
X147654225Y-76847223D01*
X147809044Y-76847223D02*
X147731634Y-76885928D01*
X147731634Y-76885928D02*
X147692929Y-76924633D01*
X147692929Y-76924633D02*
X147654225Y-77002042D01*
X147654225Y-77002042D02*
X147654225Y-77079452D01*
X148196091Y-77350385D02*
X147654225Y-77350385D01*
X147731634Y-77350385D02*
X147692929Y-77389090D01*
X147692929Y-77389090D02*
X147654225Y-77466500D01*
X147654225Y-77466500D02*
X147654225Y-77582614D01*
X147654225Y-77582614D02*
X147692929Y-77660023D01*
X147692929Y-77660023D02*
X147770339Y-77698728D01*
X147770339Y-77698728D02*
X148196091Y-77698728D01*
X147770339Y-77698728D02*
X147692929Y-77737433D01*
X147692929Y-77737433D02*
X147654225Y-77814842D01*
X147654225Y-77814842D02*
X147654225Y-77930957D01*
X147654225Y-77930957D02*
X147692929Y-78008366D01*
X147692929Y-78008366D02*
X147770339Y-78047071D01*
X147770339Y-78047071D02*
X148196091Y-78047071D01*
X148196091Y-78782461D02*
X147770339Y-78782461D01*
X147770339Y-78782461D02*
X147692929Y-78743756D01*
X147692929Y-78743756D02*
X147654225Y-78666347D01*
X147654225Y-78666347D02*
X147654225Y-78511528D01*
X147654225Y-78511528D02*
X147692929Y-78434118D01*
X148157387Y-78782461D02*
X148196091Y-78705052D01*
X148196091Y-78705052D02*
X148196091Y-78511528D01*
X148196091Y-78511528D02*
X148157387Y-78434118D01*
X148157387Y-78434118D02*
X148079977Y-78395414D01*
X148079977Y-78395414D02*
X148002567Y-78395414D01*
X148002567Y-78395414D02*
X147925158Y-78434118D01*
X147925158Y-78434118D02*
X147886453Y-78511528D01*
X147886453Y-78511528D02*
X147886453Y-78705052D01*
X147886453Y-78705052D02*
X147847748Y-78782461D01*
X148196091Y-79285623D02*
X148157387Y-79208213D01*
X148157387Y-79208213D02*
X148079977Y-79169508D01*
X148079977Y-79169508D02*
X147383291Y-79169508D01*
X149427290Y-69106272D02*
X149465995Y-69067568D01*
X149465995Y-69067568D02*
X149504699Y-68951453D01*
X149504699Y-68951453D02*
X149504699Y-68874044D01*
X149504699Y-68874044D02*
X149465995Y-68757930D01*
X149465995Y-68757930D02*
X149388585Y-68680520D01*
X149388585Y-68680520D02*
X149311175Y-68641815D01*
X149311175Y-68641815D02*
X149156356Y-68603111D01*
X149156356Y-68603111D02*
X149040242Y-68603111D01*
X149040242Y-68603111D02*
X148885423Y-68641815D01*
X148885423Y-68641815D02*
X148808014Y-68680520D01*
X148808014Y-68680520D02*
X148730604Y-68757930D01*
X148730604Y-68757930D02*
X148691899Y-68874044D01*
X148691899Y-68874044D02*
X148691899Y-68951453D01*
X148691899Y-68951453D02*
X148730604Y-69067568D01*
X148730604Y-69067568D02*
X148769309Y-69106272D01*
X149504699Y-69570730D02*
X149465995Y-69493320D01*
X149465995Y-69493320D02*
X149388585Y-69454615D01*
X149388585Y-69454615D02*
X148691899Y-69454615D01*
X149504699Y-69996482D02*
X149465995Y-69919072D01*
X149465995Y-69919072D02*
X149427290Y-69880367D01*
X149427290Y-69880367D02*
X149349880Y-69841663D01*
X149349880Y-69841663D02*
X149117652Y-69841663D01*
X149117652Y-69841663D02*
X149040242Y-69880367D01*
X149040242Y-69880367D02*
X149001537Y-69919072D01*
X149001537Y-69919072D02*
X148962833Y-69996482D01*
X148962833Y-69996482D02*
X148962833Y-70112596D01*
X148962833Y-70112596D02*
X149001537Y-70190005D01*
X149001537Y-70190005D02*
X149040242Y-70228710D01*
X149040242Y-70228710D02*
X149117652Y-70267415D01*
X149117652Y-70267415D02*
X149349880Y-70267415D01*
X149349880Y-70267415D02*
X149427290Y-70228710D01*
X149427290Y-70228710D02*
X149465995Y-70190005D01*
X149465995Y-70190005D02*
X149504699Y-70112596D01*
X149504699Y-70112596D02*
X149504699Y-69996482D01*
X149465995Y-70577053D02*
X149504699Y-70654462D01*
X149504699Y-70654462D02*
X149504699Y-70809281D01*
X149504699Y-70809281D02*
X149465995Y-70886691D01*
X149465995Y-70886691D02*
X149388585Y-70925395D01*
X149388585Y-70925395D02*
X149349880Y-70925395D01*
X149349880Y-70925395D02*
X149272471Y-70886691D01*
X149272471Y-70886691D02*
X149233766Y-70809281D01*
X149233766Y-70809281D02*
X149233766Y-70693167D01*
X149233766Y-70693167D02*
X149195061Y-70615757D01*
X149195061Y-70615757D02*
X149117652Y-70577053D01*
X149117652Y-70577053D02*
X149078947Y-70577053D01*
X149078947Y-70577053D02*
X149001537Y-70615757D01*
X149001537Y-70615757D02*
X148962833Y-70693167D01*
X148962833Y-70693167D02*
X148962833Y-70809281D01*
X148962833Y-70809281D02*
X149001537Y-70886691D01*
X149465995Y-71583376D02*
X149504699Y-71505967D01*
X149504699Y-71505967D02*
X149504699Y-71351148D01*
X149504699Y-71351148D02*
X149465995Y-71273738D01*
X149465995Y-71273738D02*
X149388585Y-71235034D01*
X149388585Y-71235034D02*
X149078947Y-71235034D01*
X149078947Y-71235034D02*
X149001537Y-71273738D01*
X149001537Y-71273738D02*
X148962833Y-71351148D01*
X148962833Y-71351148D02*
X148962833Y-71505967D01*
X148962833Y-71505967D02*
X149001537Y-71583376D01*
X149001537Y-71583376D02*
X149078947Y-71622081D01*
X149078947Y-71622081D02*
X149156356Y-71622081D01*
X149156356Y-71622081D02*
X149233766Y-71235034D01*
X149504699Y-72318767D02*
X148691899Y-72318767D01*
X149465995Y-72318767D02*
X149504699Y-72241358D01*
X149504699Y-72241358D02*
X149504699Y-72086539D01*
X149504699Y-72086539D02*
X149465995Y-72009129D01*
X149465995Y-72009129D02*
X149427290Y-71970424D01*
X149427290Y-71970424D02*
X149349880Y-71931720D01*
X149349880Y-71931720D02*
X149117652Y-71931720D01*
X149117652Y-71931720D02*
X149040242Y-71970424D01*
X149040242Y-71970424D02*
X149001537Y-72009129D01*
X149001537Y-72009129D02*
X148962833Y-72086539D01*
X148962833Y-72086539D02*
X148962833Y-72241358D01*
X148962833Y-72241358D02*
X149001537Y-72318767D01*
X149195061Y-73325090D02*
X149195061Y-73944367D01*
X149504699Y-75415147D02*
X149117652Y-75144214D01*
X149504699Y-74950690D02*
X148691899Y-74950690D01*
X148691899Y-74950690D02*
X148691899Y-75260328D01*
X148691899Y-75260328D02*
X148730604Y-75337738D01*
X148730604Y-75337738D02*
X148769309Y-75376443D01*
X148769309Y-75376443D02*
X148846718Y-75415147D01*
X148846718Y-75415147D02*
X148962833Y-75415147D01*
X148962833Y-75415147D02*
X149040242Y-75376443D01*
X149040242Y-75376443D02*
X149078947Y-75337738D01*
X149078947Y-75337738D02*
X149117652Y-75260328D01*
X149117652Y-75260328D02*
X149117652Y-74950690D01*
X149504699Y-75879605D02*
X149465995Y-75802195D01*
X149465995Y-75802195D02*
X149427290Y-75763490D01*
X149427290Y-75763490D02*
X149349880Y-75724786D01*
X149349880Y-75724786D02*
X149117652Y-75724786D01*
X149117652Y-75724786D02*
X149040242Y-75763490D01*
X149040242Y-75763490D02*
X149001537Y-75802195D01*
X149001537Y-75802195D02*
X148962833Y-75879605D01*
X148962833Y-75879605D02*
X148962833Y-75995719D01*
X148962833Y-75995719D02*
X149001537Y-76073128D01*
X149001537Y-76073128D02*
X149040242Y-76111833D01*
X149040242Y-76111833D02*
X149117652Y-76150538D01*
X149117652Y-76150538D02*
X149349880Y-76150538D01*
X149349880Y-76150538D02*
X149427290Y-76111833D01*
X149427290Y-76111833D02*
X149465995Y-76073128D01*
X149465995Y-76073128D02*
X149504699Y-75995719D01*
X149504699Y-75995719D02*
X149504699Y-75879605D01*
X148962833Y-76382766D02*
X148962833Y-76692404D01*
X148691899Y-76498880D02*
X149388585Y-76498880D01*
X149388585Y-76498880D02*
X149465995Y-76537585D01*
X149465995Y-76537585D02*
X149504699Y-76614995D01*
X149504699Y-76614995D02*
X149504699Y-76692404D01*
X149504699Y-77311680D02*
X149078947Y-77311680D01*
X149078947Y-77311680D02*
X149001537Y-77272975D01*
X149001537Y-77272975D02*
X148962833Y-77195566D01*
X148962833Y-77195566D02*
X148962833Y-77040747D01*
X148962833Y-77040747D02*
X149001537Y-76963337D01*
X149465995Y-77311680D02*
X149504699Y-77234271D01*
X149504699Y-77234271D02*
X149504699Y-77040747D01*
X149504699Y-77040747D02*
X149465995Y-76963337D01*
X149465995Y-76963337D02*
X149388585Y-76924633D01*
X149388585Y-76924633D02*
X149311175Y-76924633D01*
X149311175Y-76924633D02*
X149233766Y-76963337D01*
X149233766Y-76963337D02*
X149195061Y-77040747D01*
X149195061Y-77040747D02*
X149195061Y-77234271D01*
X149195061Y-77234271D02*
X149156356Y-77311680D01*
X148962833Y-77582613D02*
X148962833Y-77892251D01*
X148691899Y-77698727D02*
X149388585Y-77698727D01*
X149388585Y-77698727D02*
X149465995Y-77737432D01*
X149465995Y-77737432D02*
X149504699Y-77814842D01*
X149504699Y-77814842D02*
X149504699Y-77892251D01*
X149465995Y-78472822D02*
X149504699Y-78395413D01*
X149504699Y-78395413D02*
X149504699Y-78240594D01*
X149504699Y-78240594D02*
X149465995Y-78163184D01*
X149465995Y-78163184D02*
X149388585Y-78124480D01*
X149388585Y-78124480D02*
X149078947Y-78124480D01*
X149078947Y-78124480D02*
X149001537Y-78163184D01*
X149001537Y-78163184D02*
X148962833Y-78240594D01*
X148962833Y-78240594D02*
X148962833Y-78395413D01*
X148962833Y-78395413D02*
X149001537Y-78472822D01*
X149001537Y-78472822D02*
X149078947Y-78511527D01*
X149078947Y-78511527D02*
X149156356Y-78511527D01*
X149156356Y-78511527D02*
X149233766Y-78124480D01*
X149504699Y-79208213D02*
X148691899Y-79208213D01*
X149465995Y-79208213D02*
X149504699Y-79130804D01*
X149504699Y-79130804D02*
X149504699Y-78975985D01*
X149504699Y-78975985D02*
X149465995Y-78898575D01*
X149465995Y-78898575D02*
X149427290Y-78859870D01*
X149427290Y-78859870D02*
X149349880Y-78821166D01*
X149349880Y-78821166D02*
X149117652Y-78821166D01*
X149117652Y-78821166D02*
X149040242Y-78859870D01*
X149040242Y-78859870D02*
X149001537Y-78898575D01*
X149001537Y-78898575D02*
X148962833Y-78975985D01*
X148962833Y-78975985D02*
X148962833Y-79130804D01*
X148962833Y-79130804D02*
X149001537Y-79208213D01*
X146074683Y-55230614D02*
X146655255Y-55230614D01*
X146655255Y-55230614D02*
X146771369Y-55191909D01*
X146771369Y-55191909D02*
X146848779Y-55114500D01*
X146848779Y-55114500D02*
X146887483Y-54998385D01*
X146887483Y-54998385D02*
X146887483Y-54920976D01*
X146887483Y-55617661D02*
X146074683Y-55617661D01*
X146074683Y-55617661D02*
X146074683Y-55927299D01*
X146074683Y-55927299D02*
X146113388Y-56004709D01*
X146113388Y-56004709D02*
X146152093Y-56043414D01*
X146152093Y-56043414D02*
X146229502Y-56082118D01*
X146229502Y-56082118D02*
X146345617Y-56082118D01*
X146345617Y-56082118D02*
X146423026Y-56043414D01*
X146423026Y-56043414D02*
X146461731Y-56004709D01*
X146461731Y-56004709D02*
X146500436Y-55927299D01*
X146500436Y-55927299D02*
X146500436Y-55617661D01*
X146152093Y-56391757D02*
X146113388Y-56430461D01*
X146113388Y-56430461D02*
X146074683Y-56507871D01*
X146074683Y-56507871D02*
X146074683Y-56701395D01*
X146074683Y-56701395D02*
X146113388Y-56778804D01*
X146113388Y-56778804D02*
X146152093Y-56817509D01*
X146152093Y-56817509D02*
X146229502Y-56856214D01*
X146229502Y-56856214D02*
X146306912Y-56856214D01*
X146306912Y-56856214D02*
X146423026Y-56817509D01*
X146423026Y-56817509D02*
X146887483Y-56353052D01*
X146887483Y-56353052D02*
X146887483Y-56856214D01*
X146810074Y-57204556D02*
X146848779Y-57243261D01*
X146848779Y-57243261D02*
X146887483Y-57204556D01*
X146887483Y-57204556D02*
X146848779Y-57165852D01*
X146848779Y-57165852D02*
X146810074Y-57204556D01*
X146810074Y-57204556D02*
X146887483Y-57204556D01*
X146384321Y-57204556D02*
X146423026Y-57243261D01*
X146423026Y-57243261D02*
X146461731Y-57204556D01*
X146461731Y-57204556D02*
X146423026Y-57165852D01*
X146423026Y-57165852D02*
X146384321Y-57204556D01*
X146384321Y-57204556D02*
X146461731Y-57204556D01*
X146887483Y-58210880D02*
X146074683Y-58210880D01*
X146074683Y-58210880D02*
X146074683Y-58404404D01*
X146074683Y-58404404D02*
X146113388Y-58520518D01*
X146113388Y-58520518D02*
X146190798Y-58597928D01*
X146190798Y-58597928D02*
X146268207Y-58636633D01*
X146268207Y-58636633D02*
X146423026Y-58675337D01*
X146423026Y-58675337D02*
X146539140Y-58675337D01*
X146539140Y-58675337D02*
X146693959Y-58636633D01*
X146693959Y-58636633D02*
X146771369Y-58597928D01*
X146771369Y-58597928D02*
X146848779Y-58520518D01*
X146848779Y-58520518D02*
X146887483Y-58404404D01*
X146887483Y-58404404D02*
X146887483Y-58210880D01*
X146887483Y-59023680D02*
X146345617Y-59023680D01*
X146074683Y-59023680D02*
X146113388Y-58984976D01*
X146113388Y-58984976D02*
X146152093Y-59023680D01*
X146152093Y-59023680D02*
X146113388Y-59062385D01*
X146113388Y-59062385D02*
X146074683Y-59023680D01*
X146074683Y-59023680D02*
X146152093Y-59023680D01*
X146848779Y-59372024D02*
X146887483Y-59449433D01*
X146887483Y-59449433D02*
X146887483Y-59604252D01*
X146887483Y-59604252D02*
X146848779Y-59681662D01*
X146848779Y-59681662D02*
X146771369Y-59720366D01*
X146771369Y-59720366D02*
X146732664Y-59720366D01*
X146732664Y-59720366D02*
X146655255Y-59681662D01*
X146655255Y-59681662D02*
X146616550Y-59604252D01*
X146616550Y-59604252D02*
X146616550Y-59488138D01*
X146616550Y-59488138D02*
X146577845Y-59410728D01*
X146577845Y-59410728D02*
X146500436Y-59372024D01*
X146500436Y-59372024D02*
X146461731Y-59372024D01*
X146461731Y-59372024D02*
X146384321Y-59410728D01*
X146384321Y-59410728D02*
X146345617Y-59488138D01*
X146345617Y-59488138D02*
X146345617Y-59604252D01*
X146345617Y-59604252D02*
X146384321Y-59681662D01*
X146345617Y-60068709D02*
X147158417Y-60068709D01*
X146384321Y-60068709D02*
X146345617Y-60146119D01*
X146345617Y-60146119D02*
X146345617Y-60300938D01*
X146345617Y-60300938D02*
X146384321Y-60378347D01*
X146384321Y-60378347D02*
X146423026Y-60417052D01*
X146423026Y-60417052D02*
X146500436Y-60455757D01*
X146500436Y-60455757D02*
X146732664Y-60455757D01*
X146732664Y-60455757D02*
X146810074Y-60417052D01*
X146810074Y-60417052D02*
X146848779Y-60378347D01*
X146848779Y-60378347D02*
X146887483Y-60300938D01*
X146887483Y-60300938D02*
X146887483Y-60146119D01*
X146887483Y-60146119D02*
X146848779Y-60068709D01*
X146887483Y-60920214D02*
X146848779Y-60842804D01*
X146848779Y-60842804D02*
X146771369Y-60804099D01*
X146771369Y-60804099D02*
X146074683Y-60804099D01*
X146887483Y-61578194D02*
X146461731Y-61578194D01*
X146461731Y-61578194D02*
X146384321Y-61539489D01*
X146384321Y-61539489D02*
X146345617Y-61462080D01*
X146345617Y-61462080D02*
X146345617Y-61307261D01*
X146345617Y-61307261D02*
X146384321Y-61229851D01*
X146848779Y-61578194D02*
X146887483Y-61500785D01*
X146887483Y-61500785D02*
X146887483Y-61307261D01*
X146887483Y-61307261D02*
X146848779Y-61229851D01*
X146848779Y-61229851D02*
X146771369Y-61191147D01*
X146771369Y-61191147D02*
X146693959Y-61191147D01*
X146693959Y-61191147D02*
X146616550Y-61229851D01*
X146616550Y-61229851D02*
X146577845Y-61307261D01*
X146577845Y-61307261D02*
X146577845Y-61500785D01*
X146577845Y-61500785D02*
X146539140Y-61578194D01*
X146345617Y-61887832D02*
X146887483Y-62081356D01*
X146345617Y-62274879D02*
X146887483Y-62081356D01*
X146887483Y-62081356D02*
X147081007Y-62003946D01*
X147081007Y-62003946D02*
X147119712Y-61965241D01*
X147119712Y-61965241D02*
X147158417Y-61887832D01*
X146887483Y-63668250D02*
X146500436Y-63397317D01*
X146887483Y-63203793D02*
X146074683Y-63203793D01*
X146074683Y-63203793D02*
X146074683Y-63513431D01*
X146074683Y-63513431D02*
X146113388Y-63590841D01*
X146113388Y-63590841D02*
X146152093Y-63629546D01*
X146152093Y-63629546D02*
X146229502Y-63668250D01*
X146229502Y-63668250D02*
X146345617Y-63668250D01*
X146345617Y-63668250D02*
X146423026Y-63629546D01*
X146423026Y-63629546D02*
X146461731Y-63590841D01*
X146461731Y-63590841D02*
X146500436Y-63513431D01*
X146500436Y-63513431D02*
X146500436Y-63203793D01*
X146848779Y-64326231D02*
X146887483Y-64248822D01*
X146887483Y-64248822D02*
X146887483Y-64094003D01*
X146887483Y-64094003D02*
X146848779Y-64016593D01*
X146848779Y-64016593D02*
X146771369Y-63977889D01*
X146771369Y-63977889D02*
X146461731Y-63977889D01*
X146461731Y-63977889D02*
X146384321Y-64016593D01*
X146384321Y-64016593D02*
X146345617Y-64094003D01*
X146345617Y-64094003D02*
X146345617Y-64248822D01*
X146345617Y-64248822D02*
X146384321Y-64326231D01*
X146384321Y-64326231D02*
X146461731Y-64364936D01*
X146461731Y-64364936D02*
X146539140Y-64364936D01*
X146539140Y-64364936D02*
X146616550Y-63977889D01*
X146848779Y-64674575D02*
X146887483Y-64751984D01*
X146887483Y-64751984D02*
X146887483Y-64906803D01*
X146887483Y-64906803D02*
X146848779Y-64984213D01*
X146848779Y-64984213D02*
X146771369Y-65022917D01*
X146771369Y-65022917D02*
X146732664Y-65022917D01*
X146732664Y-65022917D02*
X146655255Y-64984213D01*
X146655255Y-64984213D02*
X146616550Y-64906803D01*
X146616550Y-64906803D02*
X146616550Y-64790689D01*
X146616550Y-64790689D02*
X146577845Y-64713279D01*
X146577845Y-64713279D02*
X146500436Y-64674575D01*
X146500436Y-64674575D02*
X146461731Y-64674575D01*
X146461731Y-64674575D02*
X146384321Y-64713279D01*
X146384321Y-64713279D02*
X146345617Y-64790689D01*
X146345617Y-64790689D02*
X146345617Y-64906803D01*
X146345617Y-64906803D02*
X146384321Y-64984213D01*
X147383291Y-55733776D02*
X147383291Y-55888595D01*
X147383291Y-55888595D02*
X147421996Y-55966005D01*
X147421996Y-55966005D02*
X147499406Y-56043414D01*
X147499406Y-56043414D02*
X147654225Y-56082119D01*
X147654225Y-56082119D02*
X147925158Y-56082119D01*
X147925158Y-56082119D02*
X148079977Y-56043414D01*
X148079977Y-56043414D02*
X148157387Y-55966005D01*
X148157387Y-55966005D02*
X148196091Y-55888595D01*
X148196091Y-55888595D02*
X148196091Y-55733776D01*
X148196091Y-55733776D02*
X148157387Y-55656367D01*
X148157387Y-55656367D02*
X148079977Y-55578957D01*
X148079977Y-55578957D02*
X147925158Y-55540253D01*
X147925158Y-55540253D02*
X147654225Y-55540253D01*
X147654225Y-55540253D02*
X147499406Y-55578957D01*
X147499406Y-55578957D02*
X147421996Y-55656367D01*
X147421996Y-55656367D02*
X147383291Y-55733776D01*
X147654225Y-56430462D02*
X148467025Y-56430462D01*
X147692929Y-56430462D02*
X147654225Y-56507872D01*
X147654225Y-56507872D02*
X147654225Y-56662691D01*
X147654225Y-56662691D02*
X147692929Y-56740100D01*
X147692929Y-56740100D02*
X147731634Y-56778805D01*
X147731634Y-56778805D02*
X147809044Y-56817510D01*
X147809044Y-56817510D02*
X148041272Y-56817510D01*
X148041272Y-56817510D02*
X148118682Y-56778805D01*
X148118682Y-56778805D02*
X148157387Y-56740100D01*
X148157387Y-56740100D02*
X148196091Y-56662691D01*
X148196091Y-56662691D02*
X148196091Y-56507872D01*
X148196091Y-56507872D02*
X148157387Y-56430462D01*
X148157387Y-57475490D02*
X148196091Y-57398081D01*
X148196091Y-57398081D02*
X148196091Y-57243262D01*
X148196091Y-57243262D02*
X148157387Y-57165852D01*
X148157387Y-57165852D02*
X148079977Y-57127148D01*
X148079977Y-57127148D02*
X147770339Y-57127148D01*
X147770339Y-57127148D02*
X147692929Y-57165852D01*
X147692929Y-57165852D02*
X147654225Y-57243262D01*
X147654225Y-57243262D02*
X147654225Y-57398081D01*
X147654225Y-57398081D02*
X147692929Y-57475490D01*
X147692929Y-57475490D02*
X147770339Y-57514195D01*
X147770339Y-57514195D02*
X147847748Y-57514195D01*
X147847748Y-57514195D02*
X147925158Y-57127148D01*
X147654225Y-57862538D02*
X148196091Y-57862538D01*
X147731634Y-57862538D02*
X147692929Y-57901243D01*
X147692929Y-57901243D02*
X147654225Y-57978653D01*
X147654225Y-57978653D02*
X147654225Y-58094767D01*
X147654225Y-58094767D02*
X147692929Y-58172176D01*
X147692929Y-58172176D02*
X147770339Y-58210881D01*
X147770339Y-58210881D02*
X148196091Y-58210881D01*
X147886453Y-59217204D02*
X147886453Y-59836481D01*
X148196091Y-61268557D02*
X148196091Y-60804100D01*
X148196091Y-61036328D02*
X147383291Y-61036328D01*
X147383291Y-61036328D02*
X147499406Y-60958919D01*
X147499406Y-60958919D02*
X147576815Y-60881509D01*
X147576815Y-60881509D02*
X147615520Y-60804100D01*
X147460701Y-61578195D02*
X147421996Y-61616899D01*
X147421996Y-61616899D02*
X147383291Y-61694309D01*
X147383291Y-61694309D02*
X147383291Y-61887833D01*
X147383291Y-61887833D02*
X147421996Y-61965242D01*
X147421996Y-61965242D02*
X147460701Y-62003947D01*
X147460701Y-62003947D02*
X147538110Y-62042652D01*
X147538110Y-62042652D02*
X147615520Y-62042652D01*
X147615520Y-62042652D02*
X147731634Y-62003947D01*
X147731634Y-62003947D02*
X148196091Y-61539490D01*
X148196091Y-61539490D02*
X148196091Y-62042652D01*
X147731634Y-62507109D02*
X147692929Y-62429699D01*
X147692929Y-62429699D02*
X147654225Y-62390994D01*
X147654225Y-62390994D02*
X147576815Y-62352290D01*
X147576815Y-62352290D02*
X147538110Y-62352290D01*
X147538110Y-62352290D02*
X147460701Y-62390994D01*
X147460701Y-62390994D02*
X147421996Y-62429699D01*
X147421996Y-62429699D02*
X147383291Y-62507109D01*
X147383291Y-62507109D02*
X147383291Y-62661928D01*
X147383291Y-62661928D02*
X147421996Y-62739337D01*
X147421996Y-62739337D02*
X147460701Y-62778042D01*
X147460701Y-62778042D02*
X147538110Y-62816747D01*
X147538110Y-62816747D02*
X147576815Y-62816747D01*
X147576815Y-62816747D02*
X147654225Y-62778042D01*
X147654225Y-62778042D02*
X147692929Y-62739337D01*
X147692929Y-62739337D02*
X147731634Y-62661928D01*
X147731634Y-62661928D02*
X147731634Y-62507109D01*
X147731634Y-62507109D02*
X147770339Y-62429699D01*
X147770339Y-62429699D02*
X147809044Y-62390994D01*
X147809044Y-62390994D02*
X147886453Y-62352290D01*
X147886453Y-62352290D02*
X148041272Y-62352290D01*
X148041272Y-62352290D02*
X148118682Y-62390994D01*
X148118682Y-62390994D02*
X148157387Y-62429699D01*
X148157387Y-62429699D02*
X148196091Y-62507109D01*
X148196091Y-62507109D02*
X148196091Y-62661928D01*
X148196091Y-62661928D02*
X148157387Y-62739337D01*
X148157387Y-62739337D02*
X148118682Y-62778042D01*
X148118682Y-62778042D02*
X148041272Y-62816747D01*
X148041272Y-62816747D02*
X147886453Y-62816747D01*
X147886453Y-62816747D02*
X147809044Y-62778042D01*
X147809044Y-62778042D02*
X147770339Y-62739337D01*
X147770339Y-62739337D02*
X147731634Y-62661928D01*
X148196091Y-63087680D02*
X147654225Y-63513432D01*
X147654225Y-63087680D02*
X148196091Y-63513432D01*
X147383291Y-63745661D02*
X147383291Y-64248823D01*
X147383291Y-64248823D02*
X147692929Y-63977889D01*
X147692929Y-63977889D02*
X147692929Y-64094004D01*
X147692929Y-64094004D02*
X147731634Y-64171413D01*
X147731634Y-64171413D02*
X147770339Y-64210118D01*
X147770339Y-64210118D02*
X147847748Y-64248823D01*
X147847748Y-64248823D02*
X148041272Y-64248823D01*
X148041272Y-64248823D02*
X148118682Y-64210118D01*
X148118682Y-64210118D02*
X148157387Y-64171413D01*
X148157387Y-64171413D02*
X148196091Y-64094004D01*
X148196091Y-64094004D02*
X148196091Y-63861775D01*
X148196091Y-63861775D02*
X148157387Y-63784366D01*
X148157387Y-63784366D02*
X148118682Y-63745661D01*
X147460701Y-64558461D02*
X147421996Y-64597165D01*
X147421996Y-64597165D02*
X147383291Y-64674575D01*
X147383291Y-64674575D02*
X147383291Y-64868099D01*
X147383291Y-64868099D02*
X147421996Y-64945508D01*
X147421996Y-64945508D02*
X147460701Y-64984213D01*
X147460701Y-64984213D02*
X147538110Y-65022918D01*
X147538110Y-65022918D02*
X147615520Y-65022918D01*
X147615520Y-65022918D02*
X147731634Y-64984213D01*
X147731634Y-64984213D02*
X148196091Y-64519756D01*
X148196091Y-64519756D02*
X148196091Y-65022918D01*
X149427290Y-54998386D02*
X149465995Y-54959682D01*
X149465995Y-54959682D02*
X149504699Y-54843567D01*
X149504699Y-54843567D02*
X149504699Y-54766158D01*
X149504699Y-54766158D02*
X149465995Y-54650044D01*
X149465995Y-54650044D02*
X149388585Y-54572634D01*
X149388585Y-54572634D02*
X149311175Y-54533929D01*
X149311175Y-54533929D02*
X149156356Y-54495225D01*
X149156356Y-54495225D02*
X149040242Y-54495225D01*
X149040242Y-54495225D02*
X148885423Y-54533929D01*
X148885423Y-54533929D02*
X148808014Y-54572634D01*
X148808014Y-54572634D02*
X148730604Y-54650044D01*
X148730604Y-54650044D02*
X148691899Y-54766158D01*
X148691899Y-54766158D02*
X148691899Y-54843567D01*
X148691899Y-54843567D02*
X148730604Y-54959682D01*
X148730604Y-54959682D02*
X148769309Y-54998386D01*
X149504699Y-55462844D02*
X149465995Y-55385434D01*
X149465995Y-55385434D02*
X149388585Y-55346729D01*
X149388585Y-55346729D02*
X148691899Y-55346729D01*
X149504699Y-55888596D02*
X149465995Y-55811186D01*
X149465995Y-55811186D02*
X149427290Y-55772481D01*
X149427290Y-55772481D02*
X149349880Y-55733777D01*
X149349880Y-55733777D02*
X149117652Y-55733777D01*
X149117652Y-55733777D02*
X149040242Y-55772481D01*
X149040242Y-55772481D02*
X149001537Y-55811186D01*
X149001537Y-55811186D02*
X148962833Y-55888596D01*
X148962833Y-55888596D02*
X148962833Y-56004710D01*
X148962833Y-56004710D02*
X149001537Y-56082119D01*
X149001537Y-56082119D02*
X149040242Y-56120824D01*
X149040242Y-56120824D02*
X149117652Y-56159529D01*
X149117652Y-56159529D02*
X149349880Y-56159529D01*
X149349880Y-56159529D02*
X149427290Y-56120824D01*
X149427290Y-56120824D02*
X149465995Y-56082119D01*
X149465995Y-56082119D02*
X149504699Y-56004710D01*
X149504699Y-56004710D02*
X149504699Y-55888596D01*
X149465995Y-56469167D02*
X149504699Y-56546576D01*
X149504699Y-56546576D02*
X149504699Y-56701395D01*
X149504699Y-56701395D02*
X149465995Y-56778805D01*
X149465995Y-56778805D02*
X149388585Y-56817509D01*
X149388585Y-56817509D02*
X149349880Y-56817509D01*
X149349880Y-56817509D02*
X149272471Y-56778805D01*
X149272471Y-56778805D02*
X149233766Y-56701395D01*
X149233766Y-56701395D02*
X149233766Y-56585281D01*
X149233766Y-56585281D02*
X149195061Y-56507871D01*
X149195061Y-56507871D02*
X149117652Y-56469167D01*
X149117652Y-56469167D02*
X149078947Y-56469167D01*
X149078947Y-56469167D02*
X149001537Y-56507871D01*
X149001537Y-56507871D02*
X148962833Y-56585281D01*
X148962833Y-56585281D02*
X148962833Y-56701395D01*
X148962833Y-56701395D02*
X149001537Y-56778805D01*
X149465995Y-57475490D02*
X149504699Y-57398081D01*
X149504699Y-57398081D02*
X149504699Y-57243262D01*
X149504699Y-57243262D02*
X149465995Y-57165852D01*
X149465995Y-57165852D02*
X149388585Y-57127148D01*
X149388585Y-57127148D02*
X149078947Y-57127148D01*
X149078947Y-57127148D02*
X149001537Y-57165852D01*
X149001537Y-57165852D02*
X148962833Y-57243262D01*
X148962833Y-57243262D02*
X148962833Y-57398081D01*
X148962833Y-57398081D02*
X149001537Y-57475490D01*
X149001537Y-57475490D02*
X149078947Y-57514195D01*
X149078947Y-57514195D02*
X149156356Y-57514195D01*
X149156356Y-57514195D02*
X149233766Y-57127148D01*
X149504699Y-58210881D02*
X148691899Y-58210881D01*
X149465995Y-58210881D02*
X149504699Y-58133472D01*
X149504699Y-58133472D02*
X149504699Y-57978653D01*
X149504699Y-57978653D02*
X149465995Y-57901243D01*
X149465995Y-57901243D02*
X149427290Y-57862538D01*
X149427290Y-57862538D02*
X149349880Y-57823834D01*
X149349880Y-57823834D02*
X149117652Y-57823834D01*
X149117652Y-57823834D02*
X149040242Y-57862538D01*
X149040242Y-57862538D02*
X149001537Y-57901243D01*
X149001537Y-57901243D02*
X148962833Y-57978653D01*
X148962833Y-57978653D02*
X148962833Y-58133472D01*
X148962833Y-58133472D02*
X149001537Y-58210881D01*
X149195061Y-59217204D02*
X149195061Y-59836481D01*
X149504699Y-61268557D02*
X149504699Y-60804100D01*
X149504699Y-61036328D02*
X148691899Y-61036328D01*
X148691899Y-61036328D02*
X148808014Y-60958919D01*
X148808014Y-60958919D02*
X148885423Y-60881509D01*
X148885423Y-60881509D02*
X148924128Y-60804100D01*
X148769309Y-61578195D02*
X148730604Y-61616899D01*
X148730604Y-61616899D02*
X148691899Y-61694309D01*
X148691899Y-61694309D02*
X148691899Y-61887833D01*
X148691899Y-61887833D02*
X148730604Y-61965242D01*
X148730604Y-61965242D02*
X148769309Y-62003947D01*
X148769309Y-62003947D02*
X148846718Y-62042652D01*
X148846718Y-62042652D02*
X148924128Y-62042652D01*
X148924128Y-62042652D02*
X149040242Y-62003947D01*
X149040242Y-62003947D02*
X149504699Y-61539490D01*
X149504699Y-61539490D02*
X149504699Y-62042652D01*
X149040242Y-62507109D02*
X149001537Y-62429699D01*
X149001537Y-62429699D02*
X148962833Y-62390994D01*
X148962833Y-62390994D02*
X148885423Y-62352290D01*
X148885423Y-62352290D02*
X148846718Y-62352290D01*
X148846718Y-62352290D02*
X148769309Y-62390994D01*
X148769309Y-62390994D02*
X148730604Y-62429699D01*
X148730604Y-62429699D02*
X148691899Y-62507109D01*
X148691899Y-62507109D02*
X148691899Y-62661928D01*
X148691899Y-62661928D02*
X148730604Y-62739337D01*
X148730604Y-62739337D02*
X148769309Y-62778042D01*
X148769309Y-62778042D02*
X148846718Y-62816747D01*
X148846718Y-62816747D02*
X148885423Y-62816747D01*
X148885423Y-62816747D02*
X148962833Y-62778042D01*
X148962833Y-62778042D02*
X149001537Y-62739337D01*
X149001537Y-62739337D02*
X149040242Y-62661928D01*
X149040242Y-62661928D02*
X149040242Y-62507109D01*
X149040242Y-62507109D02*
X149078947Y-62429699D01*
X149078947Y-62429699D02*
X149117652Y-62390994D01*
X149117652Y-62390994D02*
X149195061Y-62352290D01*
X149195061Y-62352290D02*
X149349880Y-62352290D01*
X149349880Y-62352290D02*
X149427290Y-62390994D01*
X149427290Y-62390994D02*
X149465995Y-62429699D01*
X149465995Y-62429699D02*
X149504699Y-62507109D01*
X149504699Y-62507109D02*
X149504699Y-62661928D01*
X149504699Y-62661928D02*
X149465995Y-62739337D01*
X149465995Y-62739337D02*
X149427290Y-62778042D01*
X149427290Y-62778042D02*
X149349880Y-62816747D01*
X149349880Y-62816747D02*
X149195061Y-62816747D01*
X149195061Y-62816747D02*
X149117652Y-62778042D01*
X149117652Y-62778042D02*
X149078947Y-62739337D01*
X149078947Y-62739337D02*
X149040242Y-62661928D01*
X149504699Y-63087680D02*
X148962833Y-63513432D01*
X148962833Y-63087680D02*
X149504699Y-63513432D01*
X148691899Y-64171413D02*
X148691899Y-64016594D01*
X148691899Y-64016594D02*
X148730604Y-63939185D01*
X148730604Y-63939185D02*
X148769309Y-63900480D01*
X148769309Y-63900480D02*
X148885423Y-63823070D01*
X148885423Y-63823070D02*
X149040242Y-63784366D01*
X149040242Y-63784366D02*
X149349880Y-63784366D01*
X149349880Y-63784366D02*
X149427290Y-63823070D01*
X149427290Y-63823070D02*
X149465995Y-63861775D01*
X149465995Y-63861775D02*
X149504699Y-63939185D01*
X149504699Y-63939185D02*
X149504699Y-64094004D01*
X149504699Y-64094004D02*
X149465995Y-64171413D01*
X149465995Y-64171413D02*
X149427290Y-64210118D01*
X149427290Y-64210118D02*
X149349880Y-64248823D01*
X149349880Y-64248823D02*
X149156356Y-64248823D01*
X149156356Y-64248823D02*
X149078947Y-64210118D01*
X149078947Y-64210118D02*
X149040242Y-64171413D01*
X149040242Y-64171413D02*
X149001537Y-64094004D01*
X149001537Y-64094004D02*
X149001537Y-63939185D01*
X149001537Y-63939185D02*
X149040242Y-63861775D01*
X149040242Y-63861775D02*
X149078947Y-63823070D01*
X149078947Y-63823070D02*
X149156356Y-63784366D01*
X148962833Y-64945508D02*
X149504699Y-64945508D01*
X148653195Y-64751984D02*
X149233766Y-64558461D01*
X149233766Y-64558461D02*
X149233766Y-65061622D01*
X143421703Y-80300682D02*
X143460407Y-80339387D01*
X143460407Y-80339387D02*
X143576522Y-80378091D01*
X143576522Y-80378091D02*
X143653931Y-80378091D01*
X143653931Y-80378091D02*
X143770045Y-80339387D01*
X143770045Y-80339387D02*
X143847455Y-80261977D01*
X143847455Y-80261977D02*
X143886160Y-80184567D01*
X143886160Y-80184567D02*
X143924864Y-80029748D01*
X143924864Y-80029748D02*
X143924864Y-79913634D01*
X143924864Y-79913634D02*
X143886160Y-79758815D01*
X143886160Y-79758815D02*
X143847455Y-79681406D01*
X143847455Y-79681406D02*
X143770045Y-79603996D01*
X143770045Y-79603996D02*
X143653931Y-79565291D01*
X143653931Y-79565291D02*
X143576522Y-79565291D01*
X143576522Y-79565291D02*
X143460407Y-79603996D01*
X143460407Y-79603996D02*
X143421703Y-79642701D01*
X142957245Y-80378091D02*
X143034655Y-80339387D01*
X143034655Y-80339387D02*
X143073360Y-80300682D01*
X143073360Y-80300682D02*
X143112064Y-80223272D01*
X143112064Y-80223272D02*
X143112064Y-79991044D01*
X143112064Y-79991044D02*
X143073360Y-79913634D01*
X143073360Y-79913634D02*
X143034655Y-79874929D01*
X143034655Y-79874929D02*
X142957245Y-79836225D01*
X142957245Y-79836225D02*
X142841131Y-79836225D01*
X142841131Y-79836225D02*
X142763722Y-79874929D01*
X142763722Y-79874929D02*
X142725017Y-79913634D01*
X142725017Y-79913634D02*
X142686312Y-79991044D01*
X142686312Y-79991044D02*
X142686312Y-80223272D01*
X142686312Y-80223272D02*
X142725017Y-80300682D01*
X142725017Y-80300682D02*
X142763722Y-80339387D01*
X142763722Y-80339387D02*
X142841131Y-80378091D01*
X142841131Y-80378091D02*
X142957245Y-80378091D01*
X142337970Y-79836225D02*
X142337970Y-80378091D01*
X142337970Y-79913634D02*
X142299265Y-79874929D01*
X142299265Y-79874929D02*
X142221855Y-79836225D01*
X142221855Y-79836225D02*
X142105741Y-79836225D01*
X142105741Y-79836225D02*
X142028332Y-79874929D01*
X142028332Y-79874929D02*
X141989627Y-79952339D01*
X141989627Y-79952339D02*
X141989627Y-80378091D01*
X141718694Y-79836225D02*
X141409056Y-79836225D01*
X141602580Y-80378091D02*
X141602580Y-79681406D01*
X141602580Y-79681406D02*
X141563875Y-79603996D01*
X141563875Y-79603996D02*
X141486465Y-79565291D01*
X141486465Y-79565291D02*
X141409056Y-79565291D01*
X141138123Y-80378091D02*
X141138123Y-79836225D01*
X141138123Y-79565291D02*
X141176827Y-79603996D01*
X141176827Y-79603996D02*
X141138123Y-79642701D01*
X141138123Y-79642701D02*
X141099418Y-79603996D01*
X141099418Y-79603996D02*
X141138123Y-79565291D01*
X141138123Y-79565291D02*
X141138123Y-79642701D01*
X140402732Y-79836225D02*
X140402732Y-80494206D01*
X140402732Y-80494206D02*
X140441437Y-80571615D01*
X140441437Y-80571615D02*
X140480141Y-80610320D01*
X140480141Y-80610320D02*
X140557551Y-80649025D01*
X140557551Y-80649025D02*
X140673665Y-80649025D01*
X140673665Y-80649025D02*
X140751075Y-80610320D01*
X140402732Y-80339387D02*
X140480141Y-80378091D01*
X140480141Y-80378091D02*
X140634960Y-80378091D01*
X140634960Y-80378091D02*
X140712370Y-80339387D01*
X140712370Y-80339387D02*
X140751075Y-80300682D01*
X140751075Y-80300682D02*
X140789779Y-80223272D01*
X140789779Y-80223272D02*
X140789779Y-79991044D01*
X140789779Y-79991044D02*
X140751075Y-79913634D01*
X140751075Y-79913634D02*
X140712370Y-79874929D01*
X140712370Y-79874929D02*
X140634960Y-79836225D01*
X140634960Y-79836225D02*
X140480141Y-79836225D01*
X140480141Y-79836225D02*
X140402732Y-79874929D01*
X139164180Y-79565291D02*
X139164180Y-80145863D01*
X139164180Y-80145863D02*
X139202885Y-80261977D01*
X139202885Y-80261977D02*
X139280294Y-80339387D01*
X139280294Y-80339387D02*
X139396409Y-80378091D01*
X139396409Y-80378091D02*
X139473818Y-80378091D01*
X138428790Y-79836225D02*
X138428790Y-80378091D01*
X138777133Y-79836225D02*
X138777133Y-80261977D01*
X138777133Y-80261977D02*
X138738428Y-80339387D01*
X138738428Y-80339387D02*
X138661018Y-80378091D01*
X138661018Y-80378091D02*
X138544904Y-80378091D01*
X138544904Y-80378091D02*
X138467495Y-80339387D01*
X138467495Y-80339387D02*
X138428790Y-80300682D01*
X138041743Y-80378091D02*
X138041743Y-79836225D01*
X138041743Y-79913634D02*
X138003038Y-79874929D01*
X138003038Y-79874929D02*
X137925628Y-79836225D01*
X137925628Y-79836225D02*
X137809514Y-79836225D01*
X137809514Y-79836225D02*
X137732105Y-79874929D01*
X137732105Y-79874929D02*
X137693400Y-79952339D01*
X137693400Y-79952339D02*
X137693400Y-80378091D01*
X137693400Y-79952339D02*
X137654695Y-79874929D01*
X137654695Y-79874929D02*
X137577286Y-79836225D01*
X137577286Y-79836225D02*
X137461171Y-79836225D01*
X137461171Y-79836225D02*
X137383762Y-79874929D01*
X137383762Y-79874929D02*
X137345057Y-79952339D01*
X137345057Y-79952339D02*
X137345057Y-80378091D01*
X136958010Y-79836225D02*
X136958010Y-80649025D01*
X136958010Y-79874929D02*
X136880600Y-79836225D01*
X136880600Y-79836225D02*
X136725781Y-79836225D01*
X136725781Y-79836225D02*
X136648372Y-79874929D01*
X136648372Y-79874929D02*
X136609667Y-79913634D01*
X136609667Y-79913634D02*
X136570962Y-79991044D01*
X136570962Y-79991044D02*
X136570962Y-80223272D01*
X136570962Y-80223272D02*
X136609667Y-80300682D01*
X136609667Y-80300682D02*
X136648372Y-80339387D01*
X136648372Y-80339387D02*
X136725781Y-80378091D01*
X136725781Y-80378091D02*
X136880600Y-80378091D01*
X136880600Y-80378091D02*
X136958010Y-80339387D01*
X135912982Y-80339387D02*
X135990391Y-80378091D01*
X135990391Y-80378091D02*
X136145210Y-80378091D01*
X136145210Y-80378091D02*
X136222620Y-80339387D01*
X136222620Y-80339387D02*
X136261324Y-80261977D01*
X136261324Y-80261977D02*
X136261324Y-79952339D01*
X136261324Y-79952339D02*
X136222620Y-79874929D01*
X136222620Y-79874929D02*
X136145210Y-79836225D01*
X136145210Y-79836225D02*
X135990391Y-79836225D01*
X135990391Y-79836225D02*
X135912982Y-79874929D01*
X135912982Y-79874929D02*
X135874277Y-79952339D01*
X135874277Y-79952339D02*
X135874277Y-80029748D01*
X135874277Y-80029748D02*
X136261324Y-80107158D01*
X135525934Y-80378091D02*
X135525934Y-79836225D01*
X135525934Y-79991044D02*
X135487229Y-79913634D01*
X135487229Y-79913634D02*
X135448524Y-79874929D01*
X135448524Y-79874929D02*
X135371115Y-79836225D01*
X135371115Y-79836225D02*
X135293705Y-79836225D01*
X135061476Y-80339387D02*
X134984067Y-80378091D01*
X134984067Y-80378091D02*
X134829248Y-80378091D01*
X134829248Y-80378091D02*
X134751838Y-80339387D01*
X134751838Y-80339387D02*
X134713134Y-80261977D01*
X134713134Y-80261977D02*
X134713134Y-80223272D01*
X134713134Y-80223272D02*
X134751838Y-80145863D01*
X134751838Y-80145863D02*
X134829248Y-80107158D01*
X134829248Y-80107158D02*
X134945362Y-80107158D01*
X134945362Y-80107158D02*
X135022772Y-80068453D01*
X135022772Y-80068453D02*
X135061476Y-79991044D01*
X135061476Y-79991044D02*
X135061476Y-79952339D01*
X135061476Y-79952339D02*
X135022772Y-79874929D01*
X135022772Y-79874929D02*
X134945362Y-79836225D01*
X134945362Y-79836225D02*
X134829248Y-79836225D01*
X134829248Y-79836225D02*
X134751838Y-79874929D01*
X104310542Y-53917339D02*
X104194428Y-53956044D01*
X104194428Y-53956044D02*
X104155723Y-53994748D01*
X104155723Y-53994748D02*
X104117019Y-54072158D01*
X104117019Y-54072158D02*
X104117019Y-54188272D01*
X104117019Y-54188272D02*
X104155723Y-54265682D01*
X104155723Y-54265682D02*
X104194428Y-54304387D01*
X104194428Y-54304387D02*
X104271838Y-54343091D01*
X104271838Y-54343091D02*
X104581476Y-54343091D01*
X104581476Y-54343091D02*
X104581476Y-53530291D01*
X104581476Y-53530291D02*
X104310542Y-53530291D01*
X104310542Y-53530291D02*
X104233133Y-53568996D01*
X104233133Y-53568996D02*
X104194428Y-53607701D01*
X104194428Y-53607701D02*
X104155723Y-53685110D01*
X104155723Y-53685110D02*
X104155723Y-53762520D01*
X104155723Y-53762520D02*
X104194428Y-53839929D01*
X104194428Y-53839929D02*
X104233133Y-53878634D01*
X104233133Y-53878634D02*
X104310542Y-53917339D01*
X104310542Y-53917339D02*
X104581476Y-53917339D01*
X103420333Y-53801225D02*
X103420333Y-54343091D01*
X103768676Y-53801225D02*
X103768676Y-54226977D01*
X103768676Y-54226977D02*
X103729971Y-54304387D01*
X103729971Y-54304387D02*
X103652561Y-54343091D01*
X103652561Y-54343091D02*
X103536447Y-54343091D01*
X103536447Y-54343091D02*
X103459038Y-54304387D01*
X103459038Y-54304387D02*
X103420333Y-54265682D01*
X103110695Y-53801225D02*
X102684943Y-53801225D01*
X102684943Y-53801225D02*
X103110695Y-54343091D01*
X103110695Y-54343091D02*
X102684943Y-54343091D01*
X102452714Y-53801225D02*
X102026962Y-53801225D01*
X102026962Y-53801225D02*
X102452714Y-54343091D01*
X102452714Y-54343091D02*
X102026962Y-54343091D01*
X101407686Y-54304387D02*
X101485095Y-54343091D01*
X101485095Y-54343091D02*
X101639914Y-54343091D01*
X101639914Y-54343091D02*
X101717324Y-54304387D01*
X101717324Y-54304387D02*
X101756028Y-54226977D01*
X101756028Y-54226977D02*
X101756028Y-53917339D01*
X101756028Y-53917339D02*
X101717324Y-53839929D01*
X101717324Y-53839929D02*
X101639914Y-53801225D01*
X101639914Y-53801225D02*
X101485095Y-53801225D01*
X101485095Y-53801225D02*
X101407686Y-53839929D01*
X101407686Y-53839929D02*
X101368981Y-53917339D01*
X101368981Y-53917339D02*
X101368981Y-53994748D01*
X101368981Y-53994748D02*
X101756028Y-54072158D01*
X101020638Y-54343091D02*
X101020638Y-53801225D01*
X101020638Y-53956044D02*
X100981933Y-53878634D01*
X100981933Y-53878634D02*
X100943228Y-53839929D01*
X100943228Y-53839929D02*
X100865819Y-53801225D01*
X100865819Y-53801225D02*
X100788409Y-53801225D01*
X138719071Y-57232692D02*
X138796481Y-57193987D01*
X138796481Y-57193987D02*
X138912595Y-57193987D01*
X138912595Y-57193987D02*
X139028709Y-57232692D01*
X139028709Y-57232692D02*
X139106119Y-57310102D01*
X139106119Y-57310102D02*
X139144824Y-57387511D01*
X139144824Y-57387511D02*
X139183528Y-57542330D01*
X139183528Y-57542330D02*
X139183528Y-57658444D01*
X139183528Y-57658444D02*
X139144824Y-57813263D01*
X139144824Y-57813263D02*
X139106119Y-57890673D01*
X139106119Y-57890673D02*
X139028709Y-57968083D01*
X139028709Y-57968083D02*
X138912595Y-58006787D01*
X138912595Y-58006787D02*
X138835186Y-58006787D01*
X138835186Y-58006787D02*
X138719071Y-57968083D01*
X138719071Y-57968083D02*
X138680367Y-57929378D01*
X138680367Y-57929378D02*
X138680367Y-57658444D01*
X138680367Y-57658444D02*
X138835186Y-57658444D01*
X138332024Y-58006787D02*
X138332024Y-57464921D01*
X138332024Y-57193987D02*
X138370728Y-57232692D01*
X138370728Y-57232692D02*
X138332024Y-57271397D01*
X138332024Y-57271397D02*
X138293319Y-57232692D01*
X138293319Y-57232692D02*
X138332024Y-57193987D01*
X138332024Y-57193987D02*
X138332024Y-57271397D01*
X138022385Y-57464921D02*
X137828861Y-58006787D01*
X137828861Y-58006787D02*
X137635338Y-57464921D01*
X137325700Y-58006787D02*
X137325700Y-57464921D01*
X137325700Y-57193987D02*
X137364404Y-57232692D01*
X137364404Y-57232692D02*
X137325700Y-57271397D01*
X137325700Y-57271397D02*
X137286995Y-57232692D01*
X137286995Y-57232692D02*
X137325700Y-57193987D01*
X137325700Y-57193987D02*
X137325700Y-57271397D01*
X136938652Y-57464921D02*
X136938652Y-58006787D01*
X136938652Y-57542330D02*
X136899947Y-57503625D01*
X136899947Y-57503625D02*
X136822537Y-57464921D01*
X136822537Y-57464921D02*
X136706423Y-57464921D01*
X136706423Y-57464921D02*
X136629014Y-57503625D01*
X136629014Y-57503625D02*
X136590309Y-57581035D01*
X136590309Y-57581035D02*
X136590309Y-58006787D01*
X135854919Y-57464921D02*
X135854919Y-58122902D01*
X135854919Y-58122902D02*
X135893624Y-58200311D01*
X135893624Y-58200311D02*
X135932328Y-58239016D01*
X135932328Y-58239016D02*
X136009738Y-58277721D01*
X136009738Y-58277721D02*
X136125852Y-58277721D01*
X136125852Y-58277721D02*
X136203262Y-58239016D01*
X135854919Y-57968083D02*
X135932328Y-58006787D01*
X135932328Y-58006787D02*
X136087147Y-58006787D01*
X136087147Y-58006787D02*
X136164557Y-57968083D01*
X136164557Y-57968083D02*
X136203262Y-57929378D01*
X136203262Y-57929378D02*
X136241966Y-57851968D01*
X136241966Y-57851968D02*
X136241966Y-57619740D01*
X136241966Y-57619740D02*
X136203262Y-57542330D01*
X136203262Y-57542330D02*
X136164557Y-57503625D01*
X136164557Y-57503625D02*
X136087147Y-57464921D01*
X136087147Y-57464921D02*
X135932328Y-57464921D01*
X135932328Y-57464921D02*
X135854919Y-57503625D01*
X134926005Y-57464921D02*
X134732481Y-58006787D01*
X134538958Y-57464921D02*
X134732481Y-58006787D01*
X134732481Y-58006787D02*
X134809891Y-58200311D01*
X134809891Y-58200311D02*
X134848596Y-58239016D01*
X134848596Y-58239016D02*
X134926005Y-58277721D01*
X134113205Y-58006787D02*
X134190615Y-57968083D01*
X134190615Y-57968083D02*
X134229320Y-57929378D01*
X134229320Y-57929378D02*
X134268024Y-57851968D01*
X134268024Y-57851968D02*
X134268024Y-57619740D01*
X134268024Y-57619740D02*
X134229320Y-57542330D01*
X134229320Y-57542330D02*
X134190615Y-57503625D01*
X134190615Y-57503625D02*
X134113205Y-57464921D01*
X134113205Y-57464921D02*
X133997091Y-57464921D01*
X133997091Y-57464921D02*
X133919682Y-57503625D01*
X133919682Y-57503625D02*
X133880977Y-57542330D01*
X133880977Y-57542330D02*
X133842272Y-57619740D01*
X133842272Y-57619740D02*
X133842272Y-57851968D01*
X133842272Y-57851968D02*
X133880977Y-57929378D01*
X133880977Y-57929378D02*
X133919682Y-57968083D01*
X133919682Y-57968083D02*
X133997091Y-58006787D01*
X133997091Y-58006787D02*
X134113205Y-58006787D01*
X133145587Y-57464921D02*
X133145587Y-58006787D01*
X133493930Y-57464921D02*
X133493930Y-57890673D01*
X133493930Y-57890673D02*
X133455225Y-57968083D01*
X133455225Y-57968083D02*
X133377815Y-58006787D01*
X133377815Y-58006787D02*
X133261701Y-58006787D01*
X133261701Y-58006787D02*
X133184292Y-57968083D01*
X133184292Y-57968083D02*
X133145587Y-57929378D01*
X131790921Y-58006787D02*
X131790921Y-57581035D01*
X131790921Y-57581035D02*
X131829626Y-57503625D01*
X131829626Y-57503625D02*
X131907035Y-57464921D01*
X131907035Y-57464921D02*
X132061854Y-57464921D01*
X132061854Y-57464921D02*
X132139264Y-57503625D01*
X131790921Y-57968083D02*
X131868330Y-58006787D01*
X131868330Y-58006787D02*
X132061854Y-58006787D01*
X132061854Y-58006787D02*
X132139264Y-57968083D01*
X132139264Y-57968083D02*
X132177968Y-57890673D01*
X132177968Y-57890673D02*
X132177968Y-57813263D01*
X132177968Y-57813263D02*
X132139264Y-57735854D01*
X132139264Y-57735854D02*
X132061854Y-57697149D01*
X132061854Y-57697149D02*
X131868330Y-57697149D01*
X131868330Y-57697149D02*
X131790921Y-57658444D01*
X130784598Y-58006787D02*
X130784598Y-57464921D01*
X130784598Y-57619740D02*
X130745893Y-57542330D01*
X130745893Y-57542330D02*
X130707188Y-57503625D01*
X130707188Y-57503625D02*
X130629779Y-57464921D01*
X130629779Y-57464921D02*
X130552369Y-57464921D01*
X129971798Y-57968083D02*
X130049207Y-58006787D01*
X130049207Y-58006787D02*
X130204026Y-58006787D01*
X130204026Y-58006787D02*
X130281436Y-57968083D01*
X130281436Y-57968083D02*
X130320140Y-57890673D01*
X130320140Y-57890673D02*
X130320140Y-57581035D01*
X130320140Y-57581035D02*
X130281436Y-57503625D01*
X130281436Y-57503625D02*
X130204026Y-57464921D01*
X130204026Y-57464921D02*
X130049207Y-57464921D01*
X130049207Y-57464921D02*
X129971798Y-57503625D01*
X129971798Y-57503625D02*
X129933093Y-57581035D01*
X129933093Y-57581035D02*
X129933093Y-57658444D01*
X129933093Y-57658444D02*
X130320140Y-57735854D01*
X129584750Y-58006787D02*
X129584750Y-57464921D01*
X129584750Y-57542330D02*
X129546045Y-57503625D01*
X129546045Y-57503625D02*
X129468635Y-57464921D01*
X129468635Y-57464921D02*
X129352521Y-57464921D01*
X129352521Y-57464921D02*
X129275112Y-57503625D01*
X129275112Y-57503625D02*
X129236407Y-57581035D01*
X129236407Y-57581035D02*
X129236407Y-58006787D01*
X129236407Y-57581035D02*
X129197702Y-57503625D01*
X129197702Y-57503625D02*
X129120293Y-57464921D01*
X129120293Y-57464921D02*
X129004178Y-57464921D01*
X129004178Y-57464921D02*
X128926769Y-57503625D01*
X128926769Y-57503625D02*
X128888064Y-57581035D01*
X128888064Y-57581035D02*
X128888064Y-58006787D01*
X128384902Y-58006787D02*
X128462312Y-57968083D01*
X128462312Y-57968083D02*
X128501017Y-57929378D01*
X128501017Y-57929378D02*
X128539721Y-57851968D01*
X128539721Y-57851968D02*
X128539721Y-57619740D01*
X128539721Y-57619740D02*
X128501017Y-57542330D01*
X128501017Y-57542330D02*
X128462312Y-57503625D01*
X128462312Y-57503625D02*
X128384902Y-57464921D01*
X128384902Y-57464921D02*
X128268788Y-57464921D01*
X128268788Y-57464921D02*
X128191379Y-57503625D01*
X128191379Y-57503625D02*
X128152674Y-57542330D01*
X128152674Y-57542330D02*
X128113969Y-57619740D01*
X128113969Y-57619740D02*
X128113969Y-57851968D01*
X128113969Y-57851968D02*
X128152674Y-57929378D01*
X128152674Y-57929378D02*
X128191379Y-57968083D01*
X128191379Y-57968083D02*
X128268788Y-58006787D01*
X128268788Y-58006787D02*
X128384902Y-58006787D01*
X127881741Y-57464921D02*
X127572103Y-57464921D01*
X127765627Y-57193987D02*
X127765627Y-57890673D01*
X127765627Y-57890673D02*
X127726922Y-57968083D01*
X127726922Y-57968083D02*
X127649512Y-58006787D01*
X127649512Y-58006787D02*
X127572103Y-58006787D01*
X126991532Y-57968083D02*
X127068941Y-58006787D01*
X127068941Y-58006787D02*
X127223760Y-58006787D01*
X127223760Y-58006787D02*
X127301170Y-57968083D01*
X127301170Y-57968083D02*
X127339874Y-57890673D01*
X127339874Y-57890673D02*
X127339874Y-57581035D01*
X127339874Y-57581035D02*
X127301170Y-57503625D01*
X127301170Y-57503625D02*
X127223760Y-57464921D01*
X127223760Y-57464921D02*
X127068941Y-57464921D01*
X127068941Y-57464921D02*
X126991532Y-57503625D01*
X126991532Y-57503625D02*
X126952827Y-57581035D01*
X126952827Y-57581035D02*
X126952827Y-57658444D01*
X126952827Y-57658444D02*
X127339874Y-57735854D01*
X125636865Y-57968083D02*
X125714274Y-58006787D01*
X125714274Y-58006787D02*
X125869093Y-58006787D01*
X125869093Y-58006787D02*
X125946503Y-57968083D01*
X125946503Y-57968083D02*
X125985208Y-57929378D01*
X125985208Y-57929378D02*
X126023912Y-57851968D01*
X126023912Y-57851968D02*
X126023912Y-57619740D01*
X126023912Y-57619740D02*
X125985208Y-57542330D01*
X125985208Y-57542330D02*
X125946503Y-57503625D01*
X125946503Y-57503625D02*
X125869093Y-57464921D01*
X125869093Y-57464921D02*
X125714274Y-57464921D01*
X125714274Y-57464921D02*
X125636865Y-57503625D01*
X125288522Y-58006787D02*
X125288522Y-57193987D01*
X124940179Y-58006787D02*
X124940179Y-57581035D01*
X124940179Y-57581035D02*
X124978884Y-57503625D01*
X124978884Y-57503625D02*
X125056293Y-57464921D01*
X125056293Y-57464921D02*
X125172407Y-57464921D01*
X125172407Y-57464921D02*
X125249817Y-57503625D01*
X125249817Y-57503625D02*
X125288522Y-57542330D01*
X124204789Y-58006787D02*
X124204789Y-57581035D01*
X124204789Y-57581035D02*
X124243494Y-57503625D01*
X124243494Y-57503625D02*
X124320903Y-57464921D01*
X124320903Y-57464921D02*
X124475722Y-57464921D01*
X124475722Y-57464921D02*
X124553132Y-57503625D01*
X124204789Y-57968083D02*
X124282198Y-58006787D01*
X124282198Y-58006787D02*
X124475722Y-58006787D01*
X124475722Y-58006787D02*
X124553132Y-57968083D01*
X124553132Y-57968083D02*
X124591836Y-57890673D01*
X124591836Y-57890673D02*
X124591836Y-57813263D01*
X124591836Y-57813263D02*
X124553132Y-57735854D01*
X124553132Y-57735854D02*
X124475722Y-57697149D01*
X124475722Y-57697149D02*
X124282198Y-57697149D01*
X124282198Y-57697149D02*
X124204789Y-57658444D01*
X123817742Y-57464921D02*
X123817742Y-58006787D01*
X123817742Y-57542330D02*
X123779037Y-57503625D01*
X123779037Y-57503625D02*
X123701627Y-57464921D01*
X123701627Y-57464921D02*
X123585513Y-57464921D01*
X123585513Y-57464921D02*
X123508104Y-57503625D01*
X123508104Y-57503625D02*
X123469399Y-57581035D01*
X123469399Y-57581035D02*
X123469399Y-58006787D01*
X122734009Y-57968083D02*
X122811418Y-58006787D01*
X122811418Y-58006787D02*
X122966237Y-58006787D01*
X122966237Y-58006787D02*
X123043647Y-57968083D01*
X123043647Y-57968083D02*
X123082352Y-57929378D01*
X123082352Y-57929378D02*
X123121056Y-57851968D01*
X123121056Y-57851968D02*
X123121056Y-57619740D01*
X123121056Y-57619740D02*
X123082352Y-57542330D01*
X123082352Y-57542330D02*
X123043647Y-57503625D01*
X123043647Y-57503625D02*
X122966237Y-57464921D01*
X122966237Y-57464921D02*
X122811418Y-57464921D01*
X122811418Y-57464921D02*
X122734009Y-57503625D01*
X122076028Y-57968083D02*
X122153437Y-58006787D01*
X122153437Y-58006787D02*
X122308256Y-58006787D01*
X122308256Y-58006787D02*
X122385666Y-57968083D01*
X122385666Y-57968083D02*
X122424370Y-57890673D01*
X122424370Y-57890673D02*
X122424370Y-57581035D01*
X122424370Y-57581035D02*
X122385666Y-57503625D01*
X122385666Y-57503625D02*
X122308256Y-57464921D01*
X122308256Y-57464921D02*
X122153437Y-57464921D01*
X122153437Y-57464921D02*
X122076028Y-57503625D01*
X122076028Y-57503625D02*
X122037323Y-57581035D01*
X122037323Y-57581035D02*
X122037323Y-57658444D01*
X122037323Y-57658444D02*
X122424370Y-57735854D01*
X120953589Y-58006787D02*
X121030999Y-57968083D01*
X121030999Y-57968083D02*
X121069704Y-57929378D01*
X121069704Y-57929378D02*
X121108408Y-57851968D01*
X121108408Y-57851968D02*
X121108408Y-57619740D01*
X121108408Y-57619740D02*
X121069704Y-57542330D01*
X121069704Y-57542330D02*
X121030999Y-57503625D01*
X121030999Y-57503625D02*
X120953589Y-57464921D01*
X120953589Y-57464921D02*
X120837475Y-57464921D01*
X120837475Y-57464921D02*
X120760066Y-57503625D01*
X120760066Y-57503625D02*
X120721361Y-57542330D01*
X120721361Y-57542330D02*
X120682656Y-57619740D01*
X120682656Y-57619740D02*
X120682656Y-57851968D01*
X120682656Y-57851968D02*
X120721361Y-57929378D01*
X120721361Y-57929378D02*
X120760066Y-57968083D01*
X120760066Y-57968083D02*
X120837475Y-58006787D01*
X120837475Y-58006787D02*
X120953589Y-58006787D01*
X120450428Y-57464921D02*
X120140790Y-57464921D01*
X120334314Y-58006787D02*
X120334314Y-57310102D01*
X120334314Y-57310102D02*
X120295609Y-57232692D01*
X120295609Y-57232692D02*
X120218199Y-57193987D01*
X120218199Y-57193987D02*
X120140790Y-57193987D01*
X118902238Y-57464921D02*
X118902238Y-58006787D01*
X119250581Y-57464921D02*
X119250581Y-57890673D01*
X119250581Y-57890673D02*
X119211876Y-57968083D01*
X119211876Y-57968083D02*
X119134466Y-58006787D01*
X119134466Y-58006787D02*
X119018352Y-58006787D01*
X119018352Y-58006787D02*
X118940943Y-57968083D01*
X118940943Y-57968083D02*
X118902238Y-57929378D01*
X118515191Y-57464921D02*
X118515191Y-58006787D01*
X118515191Y-57542330D02*
X118476486Y-57503625D01*
X118476486Y-57503625D02*
X118399076Y-57464921D01*
X118399076Y-57464921D02*
X118282962Y-57464921D01*
X118282962Y-57464921D02*
X118205553Y-57503625D01*
X118205553Y-57503625D02*
X118166848Y-57581035D01*
X118166848Y-57581035D02*
X118166848Y-58006787D01*
X117431458Y-58006787D02*
X117431458Y-57193987D01*
X117431458Y-57968083D02*
X117508867Y-58006787D01*
X117508867Y-58006787D02*
X117663686Y-58006787D01*
X117663686Y-58006787D02*
X117741096Y-57968083D01*
X117741096Y-57968083D02*
X117779801Y-57929378D01*
X117779801Y-57929378D02*
X117818505Y-57851968D01*
X117818505Y-57851968D02*
X117818505Y-57619740D01*
X117818505Y-57619740D02*
X117779801Y-57542330D01*
X117779801Y-57542330D02*
X117741096Y-57503625D01*
X117741096Y-57503625D02*
X117663686Y-57464921D01*
X117663686Y-57464921D02*
X117508867Y-57464921D01*
X117508867Y-57464921D02*
X117431458Y-57503625D01*
X116734773Y-57968083D02*
X116812182Y-58006787D01*
X116812182Y-58006787D02*
X116967001Y-58006787D01*
X116967001Y-58006787D02*
X117044411Y-57968083D01*
X117044411Y-57968083D02*
X117083115Y-57890673D01*
X117083115Y-57890673D02*
X117083115Y-57581035D01*
X117083115Y-57581035D02*
X117044411Y-57503625D01*
X117044411Y-57503625D02*
X116967001Y-57464921D01*
X116967001Y-57464921D02*
X116812182Y-57464921D01*
X116812182Y-57464921D02*
X116734773Y-57503625D01*
X116734773Y-57503625D02*
X116696068Y-57581035D01*
X116696068Y-57581035D02*
X116696068Y-57658444D01*
X116696068Y-57658444D02*
X117083115Y-57735854D01*
X116347725Y-58006787D02*
X116347725Y-57464921D01*
X116347725Y-57619740D02*
X116309020Y-57542330D01*
X116309020Y-57542330D02*
X116270315Y-57503625D01*
X116270315Y-57503625D02*
X116192906Y-57464921D01*
X116192906Y-57464921D02*
X116115496Y-57464921D01*
X115883267Y-57968083D02*
X115805858Y-58006787D01*
X115805858Y-58006787D02*
X115651039Y-58006787D01*
X115651039Y-58006787D02*
X115573629Y-57968083D01*
X115573629Y-57968083D02*
X115534925Y-57890673D01*
X115534925Y-57890673D02*
X115534925Y-57851968D01*
X115534925Y-57851968D02*
X115573629Y-57774559D01*
X115573629Y-57774559D02*
X115651039Y-57735854D01*
X115651039Y-57735854D02*
X115767153Y-57735854D01*
X115767153Y-57735854D02*
X115844563Y-57697149D01*
X115844563Y-57697149D02*
X115883267Y-57619740D01*
X115883267Y-57619740D02*
X115883267Y-57581035D01*
X115883267Y-57581035D02*
X115844563Y-57503625D01*
X115844563Y-57503625D02*
X115767153Y-57464921D01*
X115767153Y-57464921D02*
X115651039Y-57464921D01*
X115651039Y-57464921D02*
X115573629Y-57503625D01*
X115302696Y-57464921D02*
X114993058Y-57464921D01*
X115186582Y-57193987D02*
X115186582Y-57890673D01*
X115186582Y-57890673D02*
X115147877Y-57968083D01*
X115147877Y-57968083D02*
X115070467Y-58006787D01*
X115070467Y-58006787D02*
X114993058Y-58006787D01*
X114373782Y-58006787D02*
X114373782Y-57581035D01*
X114373782Y-57581035D02*
X114412487Y-57503625D01*
X114412487Y-57503625D02*
X114489896Y-57464921D01*
X114489896Y-57464921D02*
X114644715Y-57464921D01*
X114644715Y-57464921D02*
X114722125Y-57503625D01*
X114373782Y-57968083D02*
X114451191Y-58006787D01*
X114451191Y-58006787D02*
X114644715Y-58006787D01*
X114644715Y-58006787D02*
X114722125Y-57968083D01*
X114722125Y-57968083D02*
X114760829Y-57890673D01*
X114760829Y-57890673D02*
X114760829Y-57813263D01*
X114760829Y-57813263D02*
X114722125Y-57735854D01*
X114722125Y-57735854D02*
X114644715Y-57697149D01*
X114644715Y-57697149D02*
X114451191Y-57697149D01*
X114451191Y-57697149D02*
X114373782Y-57658444D01*
X113986735Y-57464921D02*
X113986735Y-58006787D01*
X113986735Y-57542330D02*
X113948030Y-57503625D01*
X113948030Y-57503625D02*
X113870620Y-57464921D01*
X113870620Y-57464921D02*
X113754506Y-57464921D01*
X113754506Y-57464921D02*
X113677097Y-57503625D01*
X113677097Y-57503625D02*
X113638392Y-57581035D01*
X113638392Y-57581035D02*
X113638392Y-58006787D01*
X112903002Y-58006787D02*
X112903002Y-57193987D01*
X112903002Y-57968083D02*
X112980411Y-58006787D01*
X112980411Y-58006787D02*
X113135230Y-58006787D01*
X113135230Y-58006787D02*
X113212640Y-57968083D01*
X113212640Y-57968083D02*
X113251345Y-57929378D01*
X113251345Y-57929378D02*
X113290049Y-57851968D01*
X113290049Y-57851968D02*
X113290049Y-57619740D01*
X113290049Y-57619740D02*
X113251345Y-57542330D01*
X113251345Y-57542330D02*
X113212640Y-57503625D01*
X113212640Y-57503625D02*
X113135230Y-57464921D01*
X113135230Y-57464921D02*
X112980411Y-57464921D01*
X112980411Y-57464921D02*
X112903002Y-57503625D01*
X112515955Y-58006787D02*
X112515955Y-57464921D01*
X112515955Y-57193987D02*
X112554659Y-57232692D01*
X112554659Y-57232692D02*
X112515955Y-57271397D01*
X112515955Y-57271397D02*
X112477250Y-57232692D01*
X112477250Y-57232692D02*
X112515955Y-57193987D01*
X112515955Y-57193987D02*
X112515955Y-57271397D01*
X112128907Y-57464921D02*
X112128907Y-58006787D01*
X112128907Y-57542330D02*
X112090202Y-57503625D01*
X112090202Y-57503625D02*
X112012792Y-57464921D01*
X112012792Y-57464921D02*
X111896678Y-57464921D01*
X111896678Y-57464921D02*
X111819269Y-57503625D01*
X111819269Y-57503625D02*
X111780564Y-57581035D01*
X111780564Y-57581035D02*
X111780564Y-58006787D01*
X111045174Y-57464921D02*
X111045174Y-58122902D01*
X111045174Y-58122902D02*
X111083879Y-58200311D01*
X111083879Y-58200311D02*
X111122583Y-58239016D01*
X111122583Y-58239016D02*
X111199993Y-58277721D01*
X111199993Y-58277721D02*
X111316107Y-58277721D01*
X111316107Y-58277721D02*
X111393517Y-58239016D01*
X111045174Y-57968083D02*
X111122583Y-58006787D01*
X111122583Y-58006787D02*
X111277402Y-58006787D01*
X111277402Y-58006787D02*
X111354812Y-57968083D01*
X111354812Y-57968083D02*
X111393517Y-57929378D01*
X111393517Y-57929378D02*
X111432221Y-57851968D01*
X111432221Y-57851968D02*
X111432221Y-57619740D01*
X111432221Y-57619740D02*
X111393517Y-57542330D01*
X111393517Y-57542330D02*
X111354812Y-57503625D01*
X111354812Y-57503625D02*
X111277402Y-57464921D01*
X111277402Y-57464921D02*
X111122583Y-57464921D01*
X111122583Y-57464921D02*
X111045174Y-57503625D01*
X132255380Y-59315395D02*
X132255380Y-58502595D01*
X132255380Y-58502595D02*
X131945742Y-58502595D01*
X131945742Y-58502595D02*
X131868332Y-58541300D01*
X131868332Y-58541300D02*
X131829627Y-58580005D01*
X131829627Y-58580005D02*
X131790923Y-58657414D01*
X131790923Y-58657414D02*
X131790923Y-58773529D01*
X131790923Y-58773529D02*
X131829627Y-58850938D01*
X131829627Y-58850938D02*
X131868332Y-58889643D01*
X131868332Y-58889643D02*
X131945742Y-58928348D01*
X131945742Y-58928348D02*
X132255380Y-58928348D01*
X131287761Y-58502595D02*
X131132942Y-58502595D01*
X131132942Y-58502595D02*
X131055532Y-58541300D01*
X131055532Y-58541300D02*
X130978123Y-58618710D01*
X130978123Y-58618710D02*
X130939418Y-58773529D01*
X130939418Y-58773529D02*
X130939418Y-59044462D01*
X130939418Y-59044462D02*
X130978123Y-59199281D01*
X130978123Y-59199281D02*
X131055532Y-59276691D01*
X131055532Y-59276691D02*
X131132942Y-59315395D01*
X131132942Y-59315395D02*
X131287761Y-59315395D01*
X131287761Y-59315395D02*
X131365170Y-59276691D01*
X131365170Y-59276691D02*
X131442580Y-59199281D01*
X131442580Y-59199281D02*
X131481284Y-59044462D01*
X131481284Y-59044462D02*
X131481284Y-58773529D01*
X131481284Y-58773529D02*
X131442580Y-58618710D01*
X131442580Y-58618710D02*
X131365170Y-58541300D01*
X131365170Y-58541300D02*
X131287761Y-58502595D01*
X130629779Y-59276691D02*
X130513665Y-59315395D01*
X130513665Y-59315395D02*
X130320141Y-59315395D01*
X130320141Y-59315395D02*
X130242732Y-59276691D01*
X130242732Y-59276691D02*
X130204027Y-59237986D01*
X130204027Y-59237986D02*
X130165322Y-59160576D01*
X130165322Y-59160576D02*
X130165322Y-59083167D01*
X130165322Y-59083167D02*
X130204027Y-59005757D01*
X130204027Y-59005757D02*
X130242732Y-58967052D01*
X130242732Y-58967052D02*
X130320141Y-58928348D01*
X130320141Y-58928348D02*
X130474960Y-58889643D01*
X130474960Y-58889643D02*
X130552370Y-58850938D01*
X130552370Y-58850938D02*
X130591075Y-58812233D01*
X130591075Y-58812233D02*
X130629779Y-58734824D01*
X130629779Y-58734824D02*
X130629779Y-58657414D01*
X130629779Y-58657414D02*
X130591075Y-58580005D01*
X130591075Y-58580005D02*
X130552370Y-58541300D01*
X130552370Y-58541300D02*
X130474960Y-58502595D01*
X130474960Y-58502595D02*
X130281437Y-58502595D01*
X130281437Y-58502595D02*
X130165322Y-58541300D01*
X129933094Y-58502595D02*
X129468637Y-58502595D01*
X129700865Y-59315395D02*
X129700865Y-58502595D01*
X128230085Y-59276691D02*
X128307494Y-59315395D01*
X128307494Y-59315395D02*
X128462313Y-59315395D01*
X128462313Y-59315395D02*
X128539723Y-59276691D01*
X128539723Y-59276691D02*
X128578428Y-59237986D01*
X128578428Y-59237986D02*
X128617132Y-59160576D01*
X128617132Y-59160576D02*
X128617132Y-58928348D01*
X128617132Y-58928348D02*
X128578428Y-58850938D01*
X128578428Y-58850938D02*
X128539723Y-58812233D01*
X128539723Y-58812233D02*
X128462313Y-58773529D01*
X128462313Y-58773529D02*
X128307494Y-58773529D01*
X128307494Y-58773529D02*
X128230085Y-58812233D01*
X127765627Y-59315395D02*
X127843037Y-59276691D01*
X127843037Y-59276691D02*
X127881742Y-59237986D01*
X127881742Y-59237986D02*
X127920446Y-59160576D01*
X127920446Y-59160576D02*
X127920446Y-58928348D01*
X127920446Y-58928348D02*
X127881742Y-58850938D01*
X127881742Y-58850938D02*
X127843037Y-58812233D01*
X127843037Y-58812233D02*
X127765627Y-58773529D01*
X127765627Y-58773529D02*
X127649513Y-58773529D01*
X127649513Y-58773529D02*
X127572104Y-58812233D01*
X127572104Y-58812233D02*
X127533399Y-58850938D01*
X127533399Y-58850938D02*
X127494694Y-58928348D01*
X127494694Y-58928348D02*
X127494694Y-59160576D01*
X127494694Y-59160576D02*
X127533399Y-59237986D01*
X127533399Y-59237986D02*
X127572104Y-59276691D01*
X127572104Y-59276691D02*
X127649513Y-59315395D01*
X127649513Y-59315395D02*
X127765627Y-59315395D01*
X126798009Y-59315395D02*
X126798009Y-58502595D01*
X126798009Y-59276691D02*
X126875418Y-59315395D01*
X126875418Y-59315395D02*
X127030237Y-59315395D01*
X127030237Y-59315395D02*
X127107647Y-59276691D01*
X127107647Y-59276691D02*
X127146352Y-59237986D01*
X127146352Y-59237986D02*
X127185056Y-59160576D01*
X127185056Y-59160576D02*
X127185056Y-58928348D01*
X127185056Y-58928348D02*
X127146352Y-58850938D01*
X127146352Y-58850938D02*
X127107647Y-58812233D01*
X127107647Y-58812233D02*
X127030237Y-58773529D01*
X127030237Y-58773529D02*
X126875418Y-58773529D01*
X126875418Y-58773529D02*
X126798009Y-58812233D01*
X126101324Y-59276691D02*
X126178733Y-59315395D01*
X126178733Y-59315395D02*
X126333552Y-59315395D01*
X126333552Y-59315395D02*
X126410962Y-59276691D01*
X126410962Y-59276691D02*
X126449666Y-59199281D01*
X126449666Y-59199281D02*
X126449666Y-58889643D01*
X126449666Y-58889643D02*
X126410962Y-58812233D01*
X126410962Y-58812233D02*
X126333552Y-58773529D01*
X126333552Y-58773529D02*
X126178733Y-58773529D01*
X126178733Y-58773529D02*
X126101324Y-58812233D01*
X126101324Y-58812233D02*
X126062619Y-58889643D01*
X126062619Y-58889643D02*
X126062619Y-58967052D01*
X126062619Y-58967052D02*
X126449666Y-59044462D01*
X125752980Y-59276691D02*
X125675571Y-59315395D01*
X125675571Y-59315395D02*
X125520752Y-59315395D01*
X125520752Y-59315395D02*
X125443342Y-59276691D01*
X125443342Y-59276691D02*
X125404638Y-59199281D01*
X125404638Y-59199281D02*
X125404638Y-59160576D01*
X125404638Y-59160576D02*
X125443342Y-59083167D01*
X125443342Y-59083167D02*
X125520752Y-59044462D01*
X125520752Y-59044462D02*
X125636866Y-59044462D01*
X125636866Y-59044462D02*
X125714276Y-59005757D01*
X125714276Y-59005757D02*
X125752980Y-58928348D01*
X125752980Y-58928348D02*
X125752980Y-58889643D01*
X125752980Y-58889643D02*
X125714276Y-58812233D01*
X125714276Y-58812233D02*
X125636866Y-58773529D01*
X125636866Y-58773529D02*
X125520752Y-58773529D01*
X125520752Y-58773529D02*
X125443342Y-58812233D01*
X124475723Y-59276691D02*
X124398314Y-59315395D01*
X124398314Y-59315395D02*
X124243495Y-59315395D01*
X124243495Y-59315395D02*
X124166085Y-59276691D01*
X124166085Y-59276691D02*
X124127381Y-59199281D01*
X124127381Y-59199281D02*
X124127381Y-59160576D01*
X124127381Y-59160576D02*
X124166085Y-59083167D01*
X124166085Y-59083167D02*
X124243495Y-59044462D01*
X124243495Y-59044462D02*
X124359609Y-59044462D01*
X124359609Y-59044462D02*
X124437019Y-59005757D01*
X124437019Y-59005757D02*
X124475723Y-58928348D01*
X124475723Y-58928348D02*
X124475723Y-58889643D01*
X124475723Y-58889643D02*
X124437019Y-58812233D01*
X124437019Y-58812233D02*
X124359609Y-58773529D01*
X124359609Y-58773529D02*
X124243495Y-58773529D01*
X124243495Y-58773529D02*
X124166085Y-58812233D01*
X123779038Y-59315395D02*
X123779038Y-58773529D01*
X123779038Y-58502595D02*
X123817742Y-58541300D01*
X123817742Y-58541300D02*
X123779038Y-58580005D01*
X123779038Y-58580005D02*
X123740333Y-58541300D01*
X123740333Y-58541300D02*
X123779038Y-58502595D01*
X123779038Y-58502595D02*
X123779038Y-58580005D01*
X123391990Y-58773529D02*
X123391990Y-59315395D01*
X123391990Y-58850938D02*
X123353285Y-58812233D01*
X123353285Y-58812233D02*
X123275875Y-58773529D01*
X123275875Y-58773529D02*
X123159761Y-58773529D01*
X123159761Y-58773529D02*
X123082352Y-58812233D01*
X123082352Y-58812233D02*
X123043647Y-58889643D01*
X123043647Y-58889643D02*
X123043647Y-59315395D01*
X122308257Y-59276691D02*
X122385666Y-59315395D01*
X122385666Y-59315395D02*
X122540485Y-59315395D01*
X122540485Y-59315395D02*
X122617895Y-59276691D01*
X122617895Y-59276691D02*
X122656600Y-59237986D01*
X122656600Y-59237986D02*
X122695304Y-59160576D01*
X122695304Y-59160576D02*
X122695304Y-58928348D01*
X122695304Y-58928348D02*
X122656600Y-58850938D01*
X122656600Y-58850938D02*
X122617895Y-58812233D01*
X122617895Y-58812233D02*
X122540485Y-58773529D01*
X122540485Y-58773529D02*
X122385666Y-58773529D01*
X122385666Y-58773529D02*
X122308257Y-58812233D01*
X121650276Y-59276691D02*
X121727685Y-59315395D01*
X121727685Y-59315395D02*
X121882504Y-59315395D01*
X121882504Y-59315395D02*
X121959914Y-59276691D01*
X121959914Y-59276691D02*
X121998618Y-59199281D01*
X121998618Y-59199281D02*
X121998618Y-58889643D01*
X121998618Y-58889643D02*
X121959914Y-58812233D01*
X121959914Y-58812233D02*
X121882504Y-58773529D01*
X121882504Y-58773529D02*
X121727685Y-58773529D01*
X121727685Y-58773529D02*
X121650276Y-58812233D01*
X121650276Y-58812233D02*
X121611571Y-58889643D01*
X121611571Y-58889643D02*
X121611571Y-58967052D01*
X121611571Y-58967052D02*
X121998618Y-59044462D01*
X120682656Y-58580005D02*
X120643952Y-58541300D01*
X120643952Y-58541300D02*
X120566542Y-58502595D01*
X120566542Y-58502595D02*
X120373018Y-58502595D01*
X120373018Y-58502595D02*
X120295609Y-58541300D01*
X120295609Y-58541300D02*
X120256904Y-58580005D01*
X120256904Y-58580005D02*
X120218199Y-58657414D01*
X120218199Y-58657414D02*
X120218199Y-58734824D01*
X120218199Y-58734824D02*
X120256904Y-58850938D01*
X120256904Y-58850938D02*
X120721361Y-59315395D01*
X120721361Y-59315395D02*
X120218199Y-59315395D01*
X119715038Y-58502595D02*
X119637628Y-58502595D01*
X119637628Y-58502595D02*
X119560219Y-58541300D01*
X119560219Y-58541300D02*
X119521514Y-58580005D01*
X119521514Y-58580005D02*
X119482809Y-58657414D01*
X119482809Y-58657414D02*
X119444104Y-58812233D01*
X119444104Y-58812233D02*
X119444104Y-59005757D01*
X119444104Y-59005757D02*
X119482809Y-59160576D01*
X119482809Y-59160576D02*
X119521514Y-59237986D01*
X119521514Y-59237986D02*
X119560219Y-59276691D01*
X119560219Y-59276691D02*
X119637628Y-59315395D01*
X119637628Y-59315395D02*
X119715038Y-59315395D01*
X119715038Y-59315395D02*
X119792447Y-59276691D01*
X119792447Y-59276691D02*
X119831152Y-59237986D01*
X119831152Y-59237986D02*
X119869857Y-59160576D01*
X119869857Y-59160576D02*
X119908561Y-59005757D01*
X119908561Y-59005757D02*
X119908561Y-58812233D01*
X119908561Y-58812233D02*
X119869857Y-58657414D01*
X119869857Y-58657414D02*
X119831152Y-58580005D01*
X119831152Y-58580005D02*
X119792447Y-58541300D01*
X119792447Y-58541300D02*
X119715038Y-58502595D01*
X119134466Y-58580005D02*
X119095762Y-58541300D01*
X119095762Y-58541300D02*
X119018352Y-58502595D01*
X119018352Y-58502595D02*
X118824828Y-58502595D01*
X118824828Y-58502595D02*
X118747419Y-58541300D01*
X118747419Y-58541300D02*
X118708714Y-58580005D01*
X118708714Y-58580005D02*
X118670009Y-58657414D01*
X118670009Y-58657414D02*
X118670009Y-58734824D01*
X118670009Y-58734824D02*
X118708714Y-58850938D01*
X118708714Y-58850938D02*
X119173171Y-59315395D01*
X119173171Y-59315395D02*
X118670009Y-59315395D01*
X118399076Y-58502595D02*
X117895914Y-58502595D01*
X117895914Y-58502595D02*
X118166848Y-58812233D01*
X118166848Y-58812233D02*
X118050733Y-58812233D01*
X118050733Y-58812233D02*
X117973324Y-58850938D01*
X117973324Y-58850938D02*
X117934619Y-58889643D01*
X117934619Y-58889643D02*
X117895914Y-58967052D01*
X117895914Y-58967052D02*
X117895914Y-59160576D01*
X117895914Y-59160576D02*
X117934619Y-59237986D01*
X117934619Y-59237986D02*
X117973324Y-59276691D01*
X117973324Y-59276691D02*
X118050733Y-59315395D01*
X118050733Y-59315395D02*
X118282962Y-59315395D01*
X118282962Y-59315395D02*
X118360371Y-59276691D01*
X118360371Y-59276691D02*
X118399076Y-59237986D01*
X108487029Y-76212908D02*
X108487029Y-77025708D01*
X108487029Y-77025708D02*
X108757963Y-76445136D01*
X108757963Y-76445136D02*
X109028896Y-77025708D01*
X109028896Y-77025708D02*
X109028896Y-76212908D01*
X109880400Y-76290317D02*
X109841696Y-76251613D01*
X109841696Y-76251613D02*
X109725581Y-76212908D01*
X109725581Y-76212908D02*
X109648172Y-76212908D01*
X109648172Y-76212908D02*
X109532058Y-76251613D01*
X109532058Y-76251613D02*
X109454648Y-76329022D01*
X109454648Y-76329022D02*
X109415943Y-76406432D01*
X109415943Y-76406432D02*
X109377239Y-76561251D01*
X109377239Y-76561251D02*
X109377239Y-76677365D01*
X109377239Y-76677365D02*
X109415943Y-76832184D01*
X109415943Y-76832184D02*
X109454648Y-76909593D01*
X109454648Y-76909593D02*
X109532058Y-76987003D01*
X109532058Y-76987003D02*
X109648172Y-77025708D01*
X109648172Y-77025708D02*
X109725581Y-77025708D01*
X109725581Y-77025708D02*
X109841696Y-76987003D01*
X109841696Y-76987003D02*
X109880400Y-76948298D01*
X110228743Y-76212908D02*
X110228743Y-77025708D01*
X110228743Y-77025708D02*
X110538381Y-77025708D01*
X110538381Y-77025708D02*
X110615791Y-76987003D01*
X110615791Y-76987003D02*
X110654496Y-76948298D01*
X110654496Y-76948298D02*
X110693200Y-76870889D01*
X110693200Y-76870889D02*
X110693200Y-76754774D01*
X110693200Y-76754774D02*
X110654496Y-76677365D01*
X110654496Y-76677365D02*
X110615791Y-76638660D01*
X110615791Y-76638660D02*
X110538381Y-76599955D01*
X110538381Y-76599955D02*
X110228743Y-76599955D01*
X111002839Y-76948298D02*
X111041543Y-76987003D01*
X111041543Y-76987003D02*
X111118953Y-77025708D01*
X111118953Y-77025708D02*
X111312477Y-77025708D01*
X111312477Y-77025708D02*
X111389886Y-76987003D01*
X111389886Y-76987003D02*
X111428591Y-76948298D01*
X111428591Y-76948298D02*
X111467296Y-76870889D01*
X111467296Y-76870889D02*
X111467296Y-76793479D01*
X111467296Y-76793479D02*
X111428591Y-76677365D01*
X111428591Y-76677365D02*
X110964134Y-76212908D01*
X110964134Y-76212908D02*
X111467296Y-76212908D01*
X111738229Y-77025708D02*
X112241391Y-77025708D01*
X112241391Y-77025708D02*
X111970457Y-76716070D01*
X111970457Y-76716070D02*
X112086572Y-76716070D01*
X112086572Y-76716070D02*
X112163981Y-76677365D01*
X112163981Y-76677365D02*
X112202686Y-76638660D01*
X112202686Y-76638660D02*
X112241391Y-76561251D01*
X112241391Y-76561251D02*
X112241391Y-76367727D01*
X112241391Y-76367727D02*
X112202686Y-76290317D01*
X112202686Y-76290317D02*
X112163981Y-76251613D01*
X112163981Y-76251613D02*
X112086572Y-76212908D01*
X112086572Y-76212908D02*
X111854343Y-76212908D01*
X111854343Y-76212908D02*
X111776934Y-76251613D01*
X111776934Y-76251613D02*
X111738229Y-76290317D01*
X112744552Y-77025708D02*
X112821962Y-77025708D01*
X112821962Y-77025708D02*
X112899371Y-76987003D01*
X112899371Y-76987003D02*
X112938076Y-76948298D01*
X112938076Y-76948298D02*
X112976781Y-76870889D01*
X112976781Y-76870889D02*
X113015486Y-76716070D01*
X113015486Y-76716070D02*
X113015486Y-76522546D01*
X113015486Y-76522546D02*
X112976781Y-76367727D01*
X112976781Y-76367727D02*
X112938076Y-76290317D01*
X112938076Y-76290317D02*
X112899371Y-76251613D01*
X112899371Y-76251613D02*
X112821962Y-76212908D01*
X112821962Y-76212908D02*
X112744552Y-76212908D01*
X112744552Y-76212908D02*
X112667143Y-76251613D01*
X112667143Y-76251613D02*
X112628438Y-76290317D01*
X112628438Y-76290317D02*
X112589733Y-76367727D01*
X112589733Y-76367727D02*
X112551029Y-76522546D01*
X112551029Y-76522546D02*
X112551029Y-76716070D01*
X112551029Y-76716070D02*
X112589733Y-76870889D01*
X112589733Y-76870889D02*
X112628438Y-76948298D01*
X112628438Y-76948298D02*
X112667143Y-76987003D01*
X112667143Y-76987003D02*
X112744552Y-77025708D01*
X113518647Y-77025708D02*
X113596057Y-77025708D01*
X113596057Y-77025708D02*
X113673466Y-76987003D01*
X113673466Y-76987003D02*
X113712171Y-76948298D01*
X113712171Y-76948298D02*
X113750876Y-76870889D01*
X113750876Y-76870889D02*
X113789581Y-76716070D01*
X113789581Y-76716070D02*
X113789581Y-76522546D01*
X113789581Y-76522546D02*
X113750876Y-76367727D01*
X113750876Y-76367727D02*
X113712171Y-76290317D01*
X113712171Y-76290317D02*
X113673466Y-76251613D01*
X113673466Y-76251613D02*
X113596057Y-76212908D01*
X113596057Y-76212908D02*
X113518647Y-76212908D01*
X113518647Y-76212908D02*
X113441238Y-76251613D01*
X113441238Y-76251613D02*
X113402533Y-76290317D01*
X113402533Y-76290317D02*
X113363828Y-76367727D01*
X113363828Y-76367727D02*
X113325124Y-76522546D01*
X113325124Y-76522546D02*
X113325124Y-76716070D01*
X113325124Y-76716070D02*
X113363828Y-76870889D01*
X113363828Y-76870889D02*
X113402533Y-76948298D01*
X113402533Y-76948298D02*
X113441238Y-76987003D01*
X113441238Y-76987003D02*
X113518647Y-77025708D01*
X114176628Y-76212908D02*
X114331447Y-76212908D01*
X114331447Y-76212908D02*
X114408857Y-76251613D01*
X114408857Y-76251613D02*
X114447561Y-76290317D01*
X114447561Y-76290317D02*
X114524971Y-76406432D01*
X114524971Y-76406432D02*
X114563676Y-76561251D01*
X114563676Y-76561251D02*
X114563676Y-76870889D01*
X114563676Y-76870889D02*
X114524971Y-76948298D01*
X114524971Y-76948298D02*
X114486266Y-76987003D01*
X114486266Y-76987003D02*
X114408857Y-77025708D01*
X114408857Y-77025708D02*
X114254038Y-77025708D01*
X114254038Y-77025708D02*
X114176628Y-76987003D01*
X114176628Y-76987003D02*
X114137923Y-76948298D01*
X114137923Y-76948298D02*
X114099219Y-76870889D01*
X114099219Y-76870889D02*
X114099219Y-76677365D01*
X114099219Y-76677365D02*
X114137923Y-76599955D01*
X114137923Y-76599955D02*
X114176628Y-76561251D01*
X114176628Y-76561251D02*
X114254038Y-76522546D01*
X114254038Y-76522546D02*
X114408857Y-76522546D01*
X114408857Y-76522546D02*
X114486266Y-76561251D01*
X114486266Y-76561251D02*
X114524971Y-76599955D01*
X114524971Y-76599955D02*
X114563676Y-76677365D01*
X106794091Y-74146229D02*
X106794091Y-73681772D01*
X106794091Y-73914000D02*
X105981291Y-73914000D01*
X105981291Y-73914000D02*
X106097406Y-73836591D01*
X106097406Y-73836591D02*
X106174815Y-73759181D01*
X106174815Y-73759181D02*
X106213520Y-73681772D01*
D11*
X132423819Y-81200666D02*
X133138104Y-81200666D01*
X133138104Y-81200666D02*
X133280961Y-81153047D01*
X133280961Y-81153047D02*
X133376200Y-81057809D01*
X133376200Y-81057809D02*
X133423819Y-80914952D01*
X133423819Y-80914952D02*
X133423819Y-80819714D01*
X132423819Y-82105428D02*
X132423819Y-81914952D01*
X132423819Y-81914952D02*
X132471438Y-81819714D01*
X132471438Y-81819714D02*
X132519057Y-81772095D01*
X132519057Y-81772095D02*
X132661914Y-81676857D01*
X132661914Y-81676857D02*
X132852390Y-81629238D01*
X132852390Y-81629238D02*
X133233342Y-81629238D01*
X133233342Y-81629238D02*
X133328580Y-81676857D01*
X133328580Y-81676857D02*
X133376200Y-81724476D01*
X133376200Y-81724476D02*
X133423819Y-81819714D01*
X133423819Y-81819714D02*
X133423819Y-82010190D01*
X133423819Y-82010190D02*
X133376200Y-82105428D01*
X133376200Y-82105428D02*
X133328580Y-82153047D01*
X133328580Y-82153047D02*
X133233342Y-82200666D01*
X133233342Y-82200666D02*
X132995247Y-82200666D01*
X132995247Y-82200666D02*
X132900009Y-82153047D01*
X132900009Y-82153047D02*
X132852390Y-82105428D01*
X132852390Y-82105428D02*
X132804771Y-82010190D01*
X132804771Y-82010190D02*
X132804771Y-81819714D01*
X132804771Y-81819714D02*
X132852390Y-81724476D01*
X132852390Y-81724476D02*
X132900009Y-81676857D01*
X132900009Y-81676857D02*
X132995247Y-81629238D01*
X142819333Y-77305819D02*
X142819333Y-78020104D01*
X142819333Y-78020104D02*
X142866952Y-78162961D01*
X142866952Y-78162961D02*
X142962190Y-78258200D01*
X142962190Y-78258200D02*
X143105047Y-78305819D01*
X143105047Y-78305819D02*
X143200285Y-78305819D01*
X142343142Y-78305819D02*
X142343142Y-77305819D01*
X142343142Y-77305819D02*
X141962190Y-77305819D01*
X141962190Y-77305819D02*
X141866952Y-77353438D01*
X141866952Y-77353438D02*
X141819333Y-77401057D01*
X141819333Y-77401057D02*
X141771714Y-77496295D01*
X141771714Y-77496295D02*
X141771714Y-77639152D01*
X141771714Y-77639152D02*
X141819333Y-77734390D01*
X141819333Y-77734390D02*
X141866952Y-77782009D01*
X141866952Y-77782009D02*
X141962190Y-77829628D01*
X141962190Y-77829628D02*
X142343142Y-77829628D01*
X141438380Y-77305819D02*
X140819333Y-77305819D01*
X140819333Y-77305819D02*
X141152666Y-77686771D01*
X141152666Y-77686771D02*
X141009809Y-77686771D01*
X141009809Y-77686771D02*
X140914571Y-77734390D01*
X140914571Y-77734390D02*
X140866952Y-77782009D01*
X140866952Y-77782009D02*
X140819333Y-77877247D01*
X140819333Y-77877247D02*
X140819333Y-78115342D01*
X140819333Y-78115342D02*
X140866952Y-78210580D01*
X140866952Y-78210580D02*
X140914571Y-78258200D01*
X140914571Y-78258200D02*
X141009809Y-78305819D01*
X141009809Y-78305819D02*
X141295523Y-78305819D01*
X141295523Y-78305819D02*
X141390761Y-78258200D01*
X141390761Y-78258200D02*
X141438380Y-78210580D01*
X142819333Y-74765819D02*
X142819333Y-75480104D01*
X142819333Y-75480104D02*
X142866952Y-75622961D01*
X142866952Y-75622961D02*
X142962190Y-75718200D01*
X142962190Y-75718200D02*
X143105047Y-75765819D01*
X143105047Y-75765819D02*
X143200285Y-75765819D01*
X142343142Y-75765819D02*
X142343142Y-74765819D01*
X142343142Y-74765819D02*
X141962190Y-74765819D01*
X141962190Y-74765819D02*
X141866952Y-74813438D01*
X141866952Y-74813438D02*
X141819333Y-74861057D01*
X141819333Y-74861057D02*
X141771714Y-74956295D01*
X141771714Y-74956295D02*
X141771714Y-75099152D01*
X141771714Y-75099152D02*
X141819333Y-75194390D01*
X141819333Y-75194390D02*
X141866952Y-75242009D01*
X141866952Y-75242009D02*
X141962190Y-75289628D01*
X141962190Y-75289628D02*
X142343142Y-75289628D01*
X141390761Y-74861057D02*
X141343142Y-74813438D01*
X141343142Y-74813438D02*
X141247904Y-74765819D01*
X141247904Y-74765819D02*
X141009809Y-74765819D01*
X141009809Y-74765819D02*
X140914571Y-74813438D01*
X140914571Y-74813438D02*
X140866952Y-74861057D01*
X140866952Y-74861057D02*
X140819333Y-74956295D01*
X140819333Y-74956295D02*
X140819333Y-75051533D01*
X140819333Y-75051533D02*
X140866952Y-75194390D01*
X140866952Y-75194390D02*
X141438380Y-75765819D01*
X141438380Y-75765819D02*
X140819333Y-75765819D01*
X142819333Y-72225819D02*
X142819333Y-72940104D01*
X142819333Y-72940104D02*
X142866952Y-73082961D01*
X142866952Y-73082961D02*
X142962190Y-73178200D01*
X142962190Y-73178200D02*
X143105047Y-73225819D01*
X143105047Y-73225819D02*
X143200285Y-73225819D01*
X142343142Y-73225819D02*
X142343142Y-72225819D01*
X142343142Y-72225819D02*
X141962190Y-72225819D01*
X141962190Y-72225819D02*
X141866952Y-72273438D01*
X141866952Y-72273438D02*
X141819333Y-72321057D01*
X141819333Y-72321057D02*
X141771714Y-72416295D01*
X141771714Y-72416295D02*
X141771714Y-72559152D01*
X141771714Y-72559152D02*
X141819333Y-72654390D01*
X141819333Y-72654390D02*
X141866952Y-72702009D01*
X141866952Y-72702009D02*
X141962190Y-72749628D01*
X141962190Y-72749628D02*
X142343142Y-72749628D01*
X140819333Y-73225819D02*
X141390761Y-73225819D01*
X141105047Y-73225819D02*
X141105047Y-72225819D01*
X141105047Y-72225819D02*
X141200285Y-72368676D01*
X141200285Y-72368676D02*
X141295523Y-72463914D01*
X141295523Y-72463914D02*
X141390761Y-72511533D01*
X106171904Y-41364819D02*
X106171904Y-42174342D01*
X106171904Y-42174342D02*
X106124285Y-42269580D01*
X106124285Y-42269580D02*
X106076666Y-42317200D01*
X106076666Y-42317200D02*
X105981428Y-42364819D01*
X105981428Y-42364819D02*
X105790952Y-42364819D01*
X105790952Y-42364819D02*
X105695714Y-42317200D01*
X105695714Y-42317200D02*
X105648095Y-42269580D01*
X105648095Y-42269580D02*
X105600476Y-42174342D01*
X105600476Y-42174342D02*
X105600476Y-41364819D01*
X104600476Y-42364819D02*
X105171904Y-42364819D01*
X104886190Y-42364819D02*
X104886190Y-41364819D01*
X104886190Y-41364819D02*
X104981428Y-41507676D01*
X104981428Y-41507676D02*
X105076666Y-41602914D01*
X105076666Y-41602914D02*
X105171904Y-41650533D01*
X105068666Y-61414819D02*
X105401999Y-60938628D01*
X105640094Y-61414819D02*
X105640094Y-60414819D01*
X105640094Y-60414819D02*
X105259142Y-60414819D01*
X105259142Y-60414819D02*
X105163904Y-60462438D01*
X105163904Y-60462438D02*
X105116285Y-60510057D01*
X105116285Y-60510057D02*
X105068666Y-60605295D01*
X105068666Y-60605295D02*
X105068666Y-60748152D01*
X105068666Y-60748152D02*
X105116285Y-60843390D01*
X105116285Y-60843390D02*
X105163904Y-60891009D01*
X105163904Y-60891009D02*
X105259142Y-60938628D01*
X105259142Y-60938628D02*
X105640094Y-60938628D01*
X104735332Y-60414819D02*
X104116285Y-60414819D01*
X104116285Y-60414819D02*
X104449618Y-60795771D01*
X104449618Y-60795771D02*
X104306761Y-60795771D01*
X104306761Y-60795771D02*
X104211523Y-60843390D01*
X104211523Y-60843390D02*
X104163904Y-60891009D01*
X104163904Y-60891009D02*
X104116285Y-60986247D01*
X104116285Y-60986247D02*
X104116285Y-61224342D01*
X104116285Y-61224342D02*
X104163904Y-61319580D01*
X104163904Y-61319580D02*
X104211523Y-61367200D01*
X104211523Y-61367200D02*
X104306761Y-61414819D01*
X104306761Y-61414819D02*
X104592475Y-61414819D01*
X104592475Y-61414819D02*
X104687713Y-61367200D01*
X104687713Y-61367200D02*
X104735332Y-61319580D01*
X104306666Y-73003580D02*
X104354285Y-73051200D01*
X104354285Y-73051200D02*
X104497142Y-73098819D01*
X104497142Y-73098819D02*
X104592380Y-73098819D01*
X104592380Y-73098819D02*
X104735237Y-73051200D01*
X104735237Y-73051200D02*
X104830475Y-72955961D01*
X104830475Y-72955961D02*
X104878094Y-72860723D01*
X104878094Y-72860723D02*
X104925713Y-72670247D01*
X104925713Y-72670247D02*
X104925713Y-72527390D01*
X104925713Y-72527390D02*
X104878094Y-72336914D01*
X104878094Y-72336914D02*
X104830475Y-72241676D01*
X104830475Y-72241676D02*
X104735237Y-72146438D01*
X104735237Y-72146438D02*
X104592380Y-72098819D01*
X104592380Y-72098819D02*
X104497142Y-72098819D01*
X104497142Y-72098819D02*
X104354285Y-72146438D01*
X104354285Y-72146438D02*
X104306666Y-72194057D01*
X103354285Y-73098819D02*
X103925713Y-73098819D01*
X103639999Y-73098819D02*
X103639999Y-72098819D01*
X103639999Y-72098819D02*
X103735237Y-72241676D01*
X103735237Y-72241676D02*
X103830475Y-72336914D01*
X103830475Y-72336914D02*
X103925713Y-72384533D01*
X104004952Y-48064009D02*
X103862095Y-48111628D01*
X103862095Y-48111628D02*
X103814476Y-48159247D01*
X103814476Y-48159247D02*
X103766857Y-48254485D01*
X103766857Y-48254485D02*
X103766857Y-48397342D01*
X103766857Y-48397342D02*
X103814476Y-48492580D01*
X103814476Y-48492580D02*
X103862095Y-48540200D01*
X103862095Y-48540200D02*
X103957333Y-48587819D01*
X103957333Y-48587819D02*
X104338285Y-48587819D01*
X104338285Y-48587819D02*
X104338285Y-47587819D01*
X104338285Y-47587819D02*
X104004952Y-47587819D01*
X104004952Y-47587819D02*
X103909714Y-47635438D01*
X103909714Y-47635438D02*
X103862095Y-47683057D01*
X103862095Y-47683057D02*
X103814476Y-47778295D01*
X103814476Y-47778295D02*
X103814476Y-47873533D01*
X103814476Y-47873533D02*
X103862095Y-47968771D01*
X103862095Y-47968771D02*
X103909714Y-48016390D01*
X103909714Y-48016390D02*
X104004952Y-48064009D01*
X104004952Y-48064009D02*
X104338285Y-48064009D01*
X103433523Y-47587819D02*
X102766857Y-47587819D01*
X102766857Y-47587819D02*
X103433523Y-48587819D01*
X103433523Y-48587819D02*
X102766857Y-48587819D01*
X101862095Y-48587819D02*
X102433523Y-48587819D01*
X102147809Y-48587819D02*
X102147809Y-47587819D01*
X102147809Y-47587819D02*
X102243047Y-47730676D01*
X102243047Y-47730676D02*
X102338285Y-47825914D01*
X102338285Y-47825914D02*
X102433523Y-47873533D01*
X103250951Y-51889866D02*
X102489047Y-51889866D01*
X102869999Y-52270819D02*
X102869999Y-51508914D01*
X103250951Y-56334866D02*
X102489047Y-56334866D01*
X112180666Y-53836819D02*
X112513999Y-53360628D01*
X112752094Y-53836819D02*
X112752094Y-52836819D01*
X112752094Y-52836819D02*
X112371142Y-52836819D01*
X112371142Y-52836819D02*
X112275904Y-52884438D01*
X112275904Y-52884438D02*
X112228285Y-52932057D01*
X112228285Y-52932057D02*
X112180666Y-53027295D01*
X112180666Y-53027295D02*
X112180666Y-53170152D01*
X112180666Y-53170152D02*
X112228285Y-53265390D01*
X112228285Y-53265390D02*
X112275904Y-53313009D01*
X112275904Y-53313009D02*
X112371142Y-53360628D01*
X112371142Y-53360628D02*
X112752094Y-53360628D01*
X111799713Y-52932057D02*
X111752094Y-52884438D01*
X111752094Y-52884438D02*
X111656856Y-52836819D01*
X111656856Y-52836819D02*
X111418761Y-52836819D01*
X111418761Y-52836819D02*
X111323523Y-52884438D01*
X111323523Y-52884438D02*
X111275904Y-52932057D01*
X111275904Y-52932057D02*
X111228285Y-53027295D01*
X111228285Y-53027295D02*
X111228285Y-53122533D01*
X111228285Y-53122533D02*
X111275904Y-53265390D01*
X111275904Y-53265390D02*
X111847332Y-53836819D01*
X111847332Y-53836819D02*
X111228285Y-53836819D01*
X112180666Y-50026819D02*
X112513999Y-49550628D01*
X112752094Y-50026819D02*
X112752094Y-49026819D01*
X112752094Y-49026819D02*
X112371142Y-49026819D01*
X112371142Y-49026819D02*
X112275904Y-49074438D01*
X112275904Y-49074438D02*
X112228285Y-49122057D01*
X112228285Y-49122057D02*
X112180666Y-49217295D01*
X112180666Y-49217295D02*
X112180666Y-49360152D01*
X112180666Y-49360152D02*
X112228285Y-49455390D01*
X112228285Y-49455390D02*
X112275904Y-49503009D01*
X112275904Y-49503009D02*
X112371142Y-49550628D01*
X112371142Y-49550628D02*
X112752094Y-49550628D01*
X111228285Y-50026819D02*
X111799713Y-50026819D01*
X111513999Y-50026819D02*
X111513999Y-49026819D01*
X111513999Y-49026819D02*
X111609237Y-49169676D01*
X111609237Y-49169676D02*
X111704475Y-49264914D01*
X111704475Y-49264914D02*
X111799713Y-49312533D01*
X117357160Y-47756819D02*
X117357160Y-48471104D01*
X117357160Y-48471104D02*
X117404779Y-48613961D01*
X117404779Y-48613961D02*
X117500017Y-48709200D01*
X117500017Y-48709200D02*
X117642874Y-48756819D01*
X117642874Y-48756819D02*
X117738112Y-48756819D01*
X116357160Y-48756819D02*
X116928588Y-48756819D01*
X116642874Y-48756819D02*
X116642874Y-47756819D01*
X116642874Y-47756819D02*
X116738112Y-47899676D01*
X116738112Y-47899676D02*
X116833350Y-47994914D01*
X116833350Y-47994914D02*
X116928588Y-48042533D01*
X132708951Y-41981726D02*
X133132285Y-41376964D01*
X133434666Y-41981726D02*
X133434666Y-40711726D01*
X133434666Y-40711726D02*
X132950856Y-40711726D01*
X132950856Y-40711726D02*
X132829904Y-40772202D01*
X132829904Y-40772202D02*
X132769427Y-40832678D01*
X132769427Y-40832678D02*
X132708951Y-40953630D01*
X132708951Y-40953630D02*
X132708951Y-41135059D01*
X132708951Y-41135059D02*
X132769427Y-41256011D01*
X132769427Y-41256011D02*
X132829904Y-41316488D01*
X132829904Y-41316488D02*
X132950856Y-41376964D01*
X132950856Y-41376964D02*
X133434666Y-41376964D01*
X131680856Y-41921250D02*
X131801808Y-41981726D01*
X131801808Y-41981726D02*
X132043713Y-41981726D01*
X132043713Y-41981726D02*
X132164666Y-41921250D01*
X132164666Y-41921250D02*
X132225142Y-41800297D01*
X132225142Y-41800297D02*
X132225142Y-41316488D01*
X132225142Y-41316488D02*
X132164666Y-41195535D01*
X132164666Y-41195535D02*
X132043713Y-41135059D01*
X132043713Y-41135059D02*
X131801808Y-41135059D01*
X131801808Y-41135059D02*
X131680856Y-41195535D01*
X131680856Y-41195535D02*
X131620380Y-41316488D01*
X131620380Y-41316488D02*
X131620380Y-41437440D01*
X131620380Y-41437440D02*
X132225142Y-41558392D01*
X131076095Y-41981726D02*
X131076095Y-41135059D01*
X131076095Y-41256011D02*
X131015618Y-41195535D01*
X131015618Y-41195535D02*
X130894666Y-41135059D01*
X130894666Y-41135059D02*
X130713237Y-41135059D01*
X130713237Y-41135059D02*
X130592285Y-41195535D01*
X130592285Y-41195535D02*
X130531809Y-41316488D01*
X130531809Y-41316488D02*
X130531809Y-41981726D01*
X130531809Y-41316488D02*
X130471333Y-41195535D01*
X130471333Y-41195535D02*
X130350380Y-41135059D01*
X130350380Y-41135059D02*
X130168952Y-41135059D01*
X130168952Y-41135059D02*
X130047999Y-41195535D01*
X130047999Y-41195535D02*
X129987523Y-41316488D01*
X129987523Y-41316488D02*
X129987523Y-41981726D01*
X129201333Y-41981726D02*
X129322285Y-41921250D01*
X129322285Y-41921250D02*
X129382762Y-41860773D01*
X129382762Y-41860773D02*
X129443238Y-41739821D01*
X129443238Y-41739821D02*
X129443238Y-41376964D01*
X129443238Y-41376964D02*
X129382762Y-41256011D01*
X129382762Y-41256011D02*
X129322285Y-41195535D01*
X129322285Y-41195535D02*
X129201333Y-41135059D01*
X129201333Y-41135059D02*
X129019904Y-41135059D01*
X129019904Y-41135059D02*
X128898952Y-41195535D01*
X128898952Y-41195535D02*
X128838476Y-41256011D01*
X128838476Y-41256011D02*
X128778000Y-41376964D01*
X128778000Y-41376964D02*
X128778000Y-41739821D01*
X128778000Y-41739821D02*
X128838476Y-41860773D01*
X128838476Y-41860773D02*
X128898952Y-41921250D01*
X128898952Y-41921250D02*
X129019904Y-41981726D01*
X129019904Y-41981726D02*
X129201333Y-41981726D01*
X128415142Y-41135059D02*
X127931333Y-41135059D01*
X128233714Y-40711726D02*
X128233714Y-41800297D01*
X128233714Y-41800297D02*
X128173237Y-41921250D01*
X128173237Y-41921250D02*
X128052285Y-41981726D01*
X128052285Y-41981726D02*
X127931333Y-41981726D01*
X127024190Y-41921250D02*
X127145142Y-41981726D01*
X127145142Y-41981726D02*
X127387047Y-41981726D01*
X127387047Y-41981726D02*
X127508000Y-41921250D01*
X127508000Y-41921250D02*
X127568476Y-41800297D01*
X127568476Y-41800297D02*
X127568476Y-41316488D01*
X127568476Y-41316488D02*
X127508000Y-41195535D01*
X127508000Y-41195535D02*
X127387047Y-41135059D01*
X127387047Y-41135059D02*
X127145142Y-41135059D01*
X127145142Y-41135059D02*
X127024190Y-41195535D01*
X127024190Y-41195535D02*
X126963714Y-41316488D01*
X126963714Y-41316488D02*
X126963714Y-41437440D01*
X126963714Y-41437440D02*
X127568476Y-41558392D01*
X124726095Y-41860773D02*
X124786571Y-41921250D01*
X124786571Y-41921250D02*
X124968000Y-41981726D01*
X124968000Y-41981726D02*
X125088952Y-41981726D01*
X125088952Y-41981726D02*
X125270381Y-41921250D01*
X125270381Y-41921250D02*
X125391333Y-41800297D01*
X125391333Y-41800297D02*
X125451810Y-41679345D01*
X125451810Y-41679345D02*
X125512286Y-41437440D01*
X125512286Y-41437440D02*
X125512286Y-41256011D01*
X125512286Y-41256011D02*
X125451810Y-41014107D01*
X125451810Y-41014107D02*
X125391333Y-40893154D01*
X125391333Y-40893154D02*
X125270381Y-40772202D01*
X125270381Y-40772202D02*
X125088952Y-40711726D01*
X125088952Y-40711726D02*
X124968000Y-40711726D01*
X124968000Y-40711726D02*
X124786571Y-40772202D01*
X124786571Y-40772202D02*
X124726095Y-40832678D01*
X124000381Y-41981726D02*
X124121333Y-41921250D01*
X124121333Y-41921250D02*
X124181810Y-41860773D01*
X124181810Y-41860773D02*
X124242286Y-41739821D01*
X124242286Y-41739821D02*
X124242286Y-41376964D01*
X124242286Y-41376964D02*
X124181810Y-41256011D01*
X124181810Y-41256011D02*
X124121333Y-41195535D01*
X124121333Y-41195535D02*
X124000381Y-41135059D01*
X124000381Y-41135059D02*
X123818952Y-41135059D01*
X123818952Y-41135059D02*
X123698000Y-41195535D01*
X123698000Y-41195535D02*
X123637524Y-41256011D01*
X123637524Y-41256011D02*
X123577048Y-41376964D01*
X123577048Y-41376964D02*
X123577048Y-41739821D01*
X123577048Y-41739821D02*
X123637524Y-41860773D01*
X123637524Y-41860773D02*
X123698000Y-41921250D01*
X123698000Y-41921250D02*
X123818952Y-41981726D01*
X123818952Y-41981726D02*
X124000381Y-41981726D01*
X123032762Y-41135059D02*
X123032762Y-41981726D01*
X123032762Y-41256011D02*
X122972285Y-41195535D01*
X122972285Y-41195535D02*
X122851333Y-41135059D01*
X122851333Y-41135059D02*
X122669904Y-41135059D01*
X122669904Y-41135059D02*
X122548952Y-41195535D01*
X122548952Y-41195535D02*
X122488476Y-41316488D01*
X122488476Y-41316488D02*
X122488476Y-41981726D01*
X121883714Y-41135059D02*
X121883714Y-41981726D01*
X121883714Y-41256011D02*
X121823237Y-41195535D01*
X121823237Y-41195535D02*
X121702285Y-41135059D01*
X121702285Y-41135059D02*
X121520856Y-41135059D01*
X121520856Y-41135059D02*
X121399904Y-41195535D01*
X121399904Y-41195535D02*
X121339428Y-41316488D01*
X121339428Y-41316488D02*
X121339428Y-41981726D01*
X120250856Y-41921250D02*
X120371808Y-41981726D01*
X120371808Y-41981726D02*
X120613713Y-41981726D01*
X120613713Y-41981726D02*
X120734666Y-41921250D01*
X120734666Y-41921250D02*
X120795142Y-41800297D01*
X120795142Y-41800297D02*
X120795142Y-41316488D01*
X120795142Y-41316488D02*
X120734666Y-41195535D01*
X120734666Y-41195535D02*
X120613713Y-41135059D01*
X120613713Y-41135059D02*
X120371808Y-41135059D01*
X120371808Y-41135059D02*
X120250856Y-41195535D01*
X120250856Y-41195535D02*
X120190380Y-41316488D01*
X120190380Y-41316488D02*
X120190380Y-41437440D01*
X120190380Y-41437440D02*
X120795142Y-41558392D01*
X119101809Y-41921250D02*
X119222761Y-41981726D01*
X119222761Y-41981726D02*
X119464666Y-41981726D01*
X119464666Y-41981726D02*
X119585618Y-41921250D01*
X119585618Y-41921250D02*
X119646095Y-41860773D01*
X119646095Y-41860773D02*
X119706571Y-41739821D01*
X119706571Y-41739821D02*
X119706571Y-41376964D01*
X119706571Y-41376964D02*
X119646095Y-41256011D01*
X119646095Y-41256011D02*
X119585618Y-41195535D01*
X119585618Y-41195535D02*
X119464666Y-41135059D01*
X119464666Y-41135059D02*
X119222761Y-41135059D01*
X119222761Y-41135059D02*
X119101809Y-41195535D01*
X118738952Y-41135059D02*
X118255143Y-41135059D01*
X118557524Y-40711726D02*
X118557524Y-41800297D01*
X118557524Y-41800297D02*
X118497047Y-41921250D01*
X118497047Y-41921250D02*
X118376095Y-41981726D01*
X118376095Y-41981726D02*
X118255143Y-41981726D01*
X117650381Y-41981726D02*
X117771333Y-41921250D01*
X117771333Y-41921250D02*
X117831810Y-41860773D01*
X117831810Y-41860773D02*
X117892286Y-41739821D01*
X117892286Y-41739821D02*
X117892286Y-41376964D01*
X117892286Y-41376964D02*
X117831810Y-41256011D01*
X117831810Y-41256011D02*
X117771333Y-41195535D01*
X117771333Y-41195535D02*
X117650381Y-41135059D01*
X117650381Y-41135059D02*
X117468952Y-41135059D01*
X117468952Y-41135059D02*
X117348000Y-41195535D01*
X117348000Y-41195535D02*
X117287524Y-41256011D01*
X117287524Y-41256011D02*
X117227048Y-41376964D01*
X117227048Y-41376964D02*
X117227048Y-41739821D01*
X117227048Y-41739821D02*
X117287524Y-41860773D01*
X117287524Y-41860773D02*
X117348000Y-41921250D01*
X117348000Y-41921250D02*
X117468952Y-41981726D01*
X117468952Y-41981726D02*
X117650381Y-41981726D01*
X116682762Y-41981726D02*
X116682762Y-41135059D01*
X116682762Y-41376964D02*
X116622285Y-41256011D01*
X116622285Y-41256011D02*
X116561809Y-41195535D01*
X116561809Y-41195535D02*
X116440857Y-41135059D01*
X116440857Y-41135059D02*
X116319904Y-41135059D01*
X112267904Y-69558819D02*
X112267904Y-70368342D01*
X112267904Y-70368342D02*
X112220285Y-70463580D01*
X112220285Y-70463580D02*
X112172666Y-70511200D01*
X112172666Y-70511200D02*
X112077428Y-70558819D01*
X112077428Y-70558819D02*
X111886952Y-70558819D01*
X111886952Y-70558819D02*
X111791714Y-70511200D01*
X111791714Y-70511200D02*
X111744095Y-70463580D01*
X111744095Y-70463580D02*
X111696476Y-70368342D01*
X111696476Y-70368342D02*
X111696476Y-69558819D01*
X111267904Y-69654057D02*
X111220285Y-69606438D01*
X111220285Y-69606438D02*
X111125047Y-69558819D01*
X111125047Y-69558819D02*
X110886952Y-69558819D01*
X110886952Y-69558819D02*
X110791714Y-69606438D01*
X110791714Y-69606438D02*
X110744095Y-69654057D01*
X110744095Y-69654057D02*
X110696476Y-69749295D01*
X110696476Y-69749295D02*
X110696476Y-69844533D01*
X110696476Y-69844533D02*
X110744095Y-69987390D01*
X110744095Y-69987390D02*
X111315523Y-70558819D01*
X111315523Y-70558819D02*
X110696476Y-70558819D01*
D12*
%TO.C,J6*%
X123062000Y-82912000D02*
X123062000Y-82502000D01*
X131652000Y-80342000D02*
X130322000Y-80342000D01*
X124882000Y-82912000D02*
X124882000Y-82502000D01*
X122342000Y-82912000D02*
X122342000Y-82502000D01*
X120522000Y-82912000D02*
X120522000Y-82502000D01*
X125602000Y-82912000D02*
X125602000Y-82502000D01*
X128142000Y-82912000D02*
X128142000Y-82502000D01*
X127422000Y-82912000D02*
X127422000Y-82502000D01*
X131652000Y-81452000D02*
X131652000Y-80342000D01*
X119802000Y-82912000D02*
X119802000Y-82502000D01*
%TO.C,JP3*%
X137575000Y-76851000D02*
X137575000Y-78851000D01*
X140375000Y-76851000D02*
X137575000Y-76851000D01*
X140375000Y-78851000D02*
X140375000Y-76851000D01*
X137575000Y-78851000D02*
X140375000Y-78851000D01*
%TO.C,JP2*%
X137575000Y-74311000D02*
X137575000Y-76311000D01*
X140375000Y-74311000D02*
X137575000Y-74311000D01*
X140375000Y-76311000D02*
X140375000Y-74311000D01*
X137575000Y-76311000D02*
X140375000Y-76311000D01*
%TO.C,JP1*%
X137575000Y-73771000D02*
X140375000Y-73771000D01*
X140375000Y-73771000D02*
X140375000Y-71771000D01*
X140375000Y-71771000D02*
X137575000Y-71771000D01*
X137575000Y-71771000D02*
X137575000Y-73771000D01*
%TO.C,U1*%
X113900000Y-45248000D02*
X113900000Y-39238000D01*
X107080000Y-42998000D02*
X107080000Y-39238000D01*
X107080000Y-39238000D02*
X108340000Y-39238000D01*
X113900000Y-39238000D02*
X112640000Y-39238000D01*
%TO.C,R3*%
X105812000Y-63534936D02*
X105812000Y-64989064D01*
X103992000Y-63534936D02*
X103992000Y-64989064D01*
%TO.C,C1*%
X105050000Y-75742748D02*
X105050000Y-77165252D01*
X103230000Y-75742748D02*
X103230000Y-77165252D01*
%TO.C,R2*%
X111286936Y-50652000D02*
X112741064Y-50652000D01*
X111286936Y-52472000D02*
X112741064Y-52472000D01*
%TO.C,R1*%
X111286936Y-46842000D02*
X112741064Y-46842000D01*
X111286936Y-48662000D02*
X112741064Y-48662000D01*
D13*
%TO.C,J1*%
X129393000Y-48052000D02*
G75*
G03*
X129393000Y-48052000I-125000J0D01*
G01*
D11*
X133812999Y-47257000D02*
X133812999Y-36902000D01*
X133812999Y-47257000D02*
X130468000Y-47257000D01*
X116123001Y-47257000D02*
X120468000Y-47257000D01*
X116123001Y-47257000D02*
X116123001Y-36902000D01*
D12*
%TO.C,U2*%
X105621000Y-80568000D02*
X105866000Y-80568000D01*
X117391000Y-80568000D02*
X117146000Y-80568000D01*
X105621000Y-76708000D02*
X105621000Y-80568000D01*
X105621000Y-76708000D02*
X105621000Y-72848000D01*
X117391000Y-76708000D02*
X117391000Y-80568000D01*
X117391000Y-76708000D02*
X117391000Y-72848000D01*
X105621000Y-72848000D02*
X105866000Y-72848000D01*
X105866000Y-72848000D02*
X105866000Y-71033000D01*
X117391000Y-72848000D02*
X117146000Y-72848000D01*
%TD*%
M02*
