%TF.GenerationSoftware,KiCad,Pcbnew,7.0.8*%
%TF.CreationDate,2024-01-15T19:45:52-06:00*%
%TF.ProjectId,remote,72656d6f-7465-42e6-9b69-6361645f7063,rev?*%
%TF.SameCoordinates,Original*%
%TF.FileFunction,Copper,L2,Bot*%
%TF.FilePolarity,Positive*%
%FSLAX46Y46*%
G04 Gerber Fmt 4.6, Leading zero omitted, Abs format (unit mm)*
G04 Created by KiCad (PCBNEW 7.0.8) date 2024-01-15 19:45:52*
%MOMM*%
%LPD*%
G01*
G04 APERTURE LIST*
G04 Aperture macros list*
%AMRoundRect*
0 Rectangle with rounded corners*
0 $1 Rounding radius*
0 $2 $3 $4 $5 $6 $7 $8 $9 X,Y pos of 4 corners*
0 Add a 4 corners polygon primitive as box body*
4,1,4,$2,$3,$4,$5,$6,$7,$8,$9,$2,$3,0*
0 Add four circle primitives for the rounded corners*
1,1,$1+$1,$2,$3*
1,1,$1+$1,$4,$5*
1,1,$1+$1,$6,$7*
1,1,$1+$1,$8,$9*
0 Add four rect primitives between the rounded corners*
20,1,$1+$1,$2,$3,$4,$5,0*
20,1,$1+$1,$4,$5,$6,$7,0*
20,1,$1+$1,$6,$7,$8,$9,0*
20,1,$1+$1,$8,$9,$2,$3,0*%
%AMFreePoly0*
4,1,6,1.000000,0.000000,0.500000,-0.750000,-0.500000,-0.750000,-0.500000,0.750000,0.500000,0.750000,1.000000,0.000000,1.000000,0.000000,$1*%
%AMFreePoly1*
4,1,6,0.500000,-0.750000,-0.650000,-0.750000,-0.150000,0.000000,-0.650000,0.750000,0.500000,0.750000,0.500000,-0.750000,0.500000,-0.750000,$1*%
G04 Aperture macros list end*
%TA.AperFunction,ComponentPad*%
%ADD10O,1.700000X1.700000*%
%TD*%
%TA.AperFunction,ComponentPad*%
%ADD11R,1.700000X1.700000*%
%TD*%
%TA.AperFunction,SMDPad,CuDef*%
%ADD12FreePoly0,0.000000*%
%TD*%
%TA.AperFunction,SMDPad,CuDef*%
%ADD13FreePoly1,0.000000*%
%TD*%
%TA.AperFunction,ComponentPad*%
%ADD14C,2.000000*%
%TD*%
%TA.AperFunction,SMDPad,CuDef*%
%ADD15R,1.500000X2.000000*%
%TD*%
%TA.AperFunction,SMDPad,CuDef*%
%ADD16R,3.800000X2.000000*%
%TD*%
%TA.AperFunction,SMDPad,CuDef*%
%ADD17RoundRect,0.250000X-0.625000X0.400000X-0.625000X-0.400000X0.625000X-0.400000X0.625000X0.400000X0*%
%TD*%
%TA.AperFunction,SMDPad,CuDef*%
%ADD18RoundRect,0.250000X-0.650000X0.412500X-0.650000X-0.412500X0.650000X-0.412500X0.650000X0.412500X0*%
%TD*%
%TA.AperFunction,SMDPad,CuDef*%
%ADD19R,3.000000X2.000000*%
%TD*%
%TA.AperFunction,SMDPad,CuDef*%
%ADD20RoundRect,0.250000X-0.400000X-0.625000X0.400000X-0.625000X0.400000X0.625000X-0.400000X0.625000X0*%
%TD*%
%TA.AperFunction,ComponentPad*%
%ADD21R,2.300000X2.300000*%
%TD*%
%TA.AperFunction,SMDPad,CuDef*%
%ADD22R,0.900000X2.000000*%
%TD*%
%TA.AperFunction,SMDPad,CuDef*%
%ADD23RoundRect,0.150000X-0.150000X0.875000X-0.150000X-0.875000X0.150000X-0.875000X0.150000X0.875000X0*%
%TD*%
%TA.AperFunction,ViaPad*%
%ADD24C,0.600000*%
%TD*%
%TA.AperFunction,Conductor*%
%ADD25C,0.200000*%
%TD*%
%TA.AperFunction,Conductor*%
%ADD26C,0.127000*%
%TD*%
%TA.AperFunction,Conductor*%
%ADD27C,0.150000*%
%TD*%
%TA.AperFunction,Conductor*%
%ADD28C,0.400000*%
%TD*%
G04 APERTURE END LIST*
D10*
%TO.P,J6,5,Pin_5*%
%TO.N,GND*%
X120162000Y-81452000D03*
%TO.P,J6,4,Pin_4*%
%TO.N,/IRQ*%
X122702000Y-81452000D03*
%TO.P,J6,3,Pin_3*%
%TO.N,+5V*%
X125242000Y-81452000D03*
%TO.P,J6,2,Pin_2*%
%TO.N,/SCL*%
X127782000Y-81452000D03*
D11*
%TO.P,J6,1,Pin_1*%
%TO.N,/SDA*%
X130322000Y-81452000D03*
%TD*%
D12*
%TO.P,JP3,1,A*%
%TO.N,Net-(JP3-A)*%
X138250000Y-77851000D03*
D13*
%TO.P,JP3,2,B*%
%TO.N,GND*%
X139700000Y-77851000D03*
%TD*%
D12*
%TO.P,JP2,1,A*%
%TO.N,Net-(JP2-A)*%
X138250000Y-75311000D03*
D13*
%TO.P,JP2,2,B*%
%TO.N,GND*%
X139700000Y-75311000D03*
%TD*%
%TO.P,JP1,2,B*%
%TO.N,GND*%
X139700000Y-72771000D03*
D12*
%TO.P,JP1,1,A*%
%TO.N,Net-(JP1-A)*%
X138250000Y-72771000D03*
%TD*%
D14*
%TO.P,SW3,1,1*%
%TO.N,Net-(U2-GP2)*%
X134159000Y-62012000D03*
X140659000Y-62012000D03*
%TO.P,SW3,2,2*%
%TO.N,Net-(R3-Pad2)*%
X134159000Y-66512000D03*
X140659000Y-66512000D03*
%TD*%
%TO.P,SW2,1,1*%
%TO.N,Net-(U2-GP3)*%
X121967000Y-73696000D03*
X128467000Y-73696000D03*
%TO.P,SW2,2,2*%
%TO.N,Net-(R3-Pad2)*%
X121967000Y-78196000D03*
X128467000Y-78196000D03*
%TD*%
%TO.P,SW4,1,1*%
%TO.N,Net-(U2-GP1)*%
X109780000Y-62012000D03*
X116280000Y-62012000D03*
%TO.P,SW4,2,2*%
%TO.N,Net-(R3-Pad2)*%
X109780000Y-66512000D03*
X116280000Y-66512000D03*
%TD*%
%TO.P,SW1,1,1*%
%TO.N,Net-(U2-GP0)*%
X121967000Y-62012000D03*
X128467000Y-62012000D03*
%TO.P,SW1,2,2*%
%TO.N,Net-(R3-Pad2)*%
X121967000Y-66512000D03*
X128467000Y-66512000D03*
%TD*%
D11*
%TO.P,J3,1,Pin_1*%
%TO.N,+3V3*%
X134605000Y-51557000D03*
D10*
%TO.P,J3,2,Pin_2*%
%TO.N,+5V*%
X134605000Y-54097000D03*
%TO.P,J3,3,Pin_3*%
%TO.N,/SDA*%
X132065000Y-51557000D03*
%TO.P,J3,4,Pin_4*%
%TO.N,+5V*%
X132065000Y-54097000D03*
%TO.P,J3,5,Pin_5*%
%TO.N,/SCL*%
X129525000Y-51557000D03*
%TO.P,J3,6,Pin_6*%
%TO.N,GND*%
X129525000Y-54097000D03*
%TD*%
D11*
%TO.P,J2,1,Pin_1*%
%TO.N,GND*%
X144272000Y-42164000D03*
D10*
%TO.P,J2,2,Pin_2*%
%TO.N,+5V*%
X144272000Y-44704000D03*
%TO.P,J2,3,Pin_3*%
%TO.N,/SCL*%
X144272000Y-47244000D03*
%TO.P,J2,4,Pin_4*%
%TO.N,/SDA*%
X144272000Y-49784000D03*
%TD*%
D15*
%TO.P,U1,1,GND*%
%TO.N,GND*%
X112790000Y-44298000D03*
%TO.P,U1,2,VO*%
%TO.N,+3V3*%
X110490000Y-44298000D03*
D16*
X110490000Y-37998000D03*
D15*
%TO.P,U1,3,VI*%
%TO.N,+5V*%
X108190000Y-44298000D03*
%TD*%
D17*
%TO.P,R3,1*%
%TO.N,GND*%
X104902000Y-62712000D03*
%TO.P,R3,2*%
%TO.N,Net-(R3-Pad2)*%
X104902000Y-65812000D03*
%TD*%
D18*
%TO.P,C1,1*%
%TO.N,+3V3*%
X104140000Y-74891500D03*
%TO.P,C1,2*%
%TO.N,GND*%
X104140000Y-78016500D03*
%TD*%
D19*
%TO.P,BZ1,1,-*%
%TO.N,+3V3*%
X102906300Y-50190550D03*
%TO.P,BZ1,2,+*%
%TO.N,Net-(BZ1-+)*%
X102918900Y-57774550D03*
%TD*%
D20*
%TO.P,R2,1*%
%TO.N,+3V3*%
X110464000Y-51562000D03*
%TO.P,R2,2*%
%TO.N,/SCL*%
X113564000Y-51562000D03*
%TD*%
%TO.P,R1,1*%
%TO.N,+3V3*%
X110464000Y-47752000D03*
%TO.P,R1,2*%
%TO.N,/SDA*%
X113564000Y-47752000D03*
%TD*%
D21*
%TO.P,J1,9*%
%TO.N,N/C*%
X131838000Y-44022000D03*
%TO.P,J1,8*%
X119098000Y-44022000D03*
D22*
%TO.P,J1,7,Pin_7*%
%TO.N,GND*%
X121658000Y-46382000D03*
%TO.P,J1,6,Pin_6*%
%TO.N,/IRQ*%
X122928000Y-46382000D03*
%TO.P,J1,5,Pin_5*%
%TO.N,+5V*%
X124198000Y-46382000D03*
%TO.P,J1,4,Pin_4*%
%TO.N,GND*%
X125468000Y-46382000D03*
%TO.P,J1,3,Pin_3*%
%TO.N,/SCL*%
X126738000Y-46382000D03*
%TO.P,J1,2,Pin_2*%
%TO.N,/SDA*%
X128008000Y-46382000D03*
%TO.P,J1,1,Pin_1*%
%TO.N,GND*%
X129278000Y-46382000D03*
%TD*%
D23*
%TO.P,U2,18,VSS*%
%TO.N,GND*%
X106426000Y-81358000D03*
%TO.P,U2,17*%
%TO.N,N/C*%
X107696000Y-81358000D03*
%TO.P,U2,16*%
X108966000Y-81358000D03*
%TO.P,U2,15,GP7*%
%TO.N,Net-(JP3-A)*%
X110236000Y-81358000D03*
%TO.P,U2,14,GP6*%
%TO.N,Net-(JP2-A)*%
X111506000Y-81358000D03*
%TO.P,U2,13,GP5*%
%TO.N,Net-(JP1-A)*%
X112776000Y-81358000D03*
%TO.P,U2,12,GP4*%
%TO.N,Net-(BZ1-+)*%
X114046000Y-81358000D03*
%TO.P,U2,11,GP3*%
%TO.N,Net-(U2-GP3)*%
X115316000Y-81358000D03*
%TO.P,U2,10,GP2*%
%TO.N,Net-(U2-GP2)*%
X116586000Y-81358000D03*
%TO.P,U2,9,GP1*%
%TO.N,Net-(U2-GP1)*%
X116586000Y-72058000D03*
%TO.P,U2,8,GP0*%
%TO.N,Net-(U2-GP0)*%
X115316000Y-72058000D03*
%TO.P,U2,7,INT*%
%TO.N,/IRQ*%
X114046000Y-72058000D03*
%TO.P,U2,6,~{RESET}*%
%TO.N,+3V3*%
X112776000Y-72058000D03*
%TO.P,U2,5,ADDR*%
%TO.N,GND*%
X111506000Y-72058000D03*
%TO.P,U2,4,SDA*%
%TO.N,/SDA*%
X110236000Y-72058000D03*
%TO.P,U2,3,SCL*%
%TO.N,/SCL*%
X108966000Y-72058000D03*
%TO.P,U2,2*%
%TO.N,N/C*%
X107696000Y-72058000D03*
%TO.P,U2,1,VDD*%
%TO.N,+3V3*%
X106426000Y-72058000D03*
%TD*%
D24*
%TO.N,+5V*%
X124206000Y-49276000D03*
%TO.N,Net-(U2-GP2)*%
X128016000Y-64262000D03*
X123825000Y-64262000D03*
%TO.N,GND*%
X112522000Y-68580000D03*
X108077000Y-70104000D03*
%TO.N,+3V3*%
X112776000Y-70485000D03*
%TO.N,/SDA*%
X110236000Y-70739000D03*
X108839000Y-74295000D03*
%TO.N,Net-(U2-GP3)*%
X117602000Y-74295000D03*
%TO.N,Net-(U2-GP2)*%
X117348000Y-72390000D03*
%TO.N,Net-(U2-GP3)*%
X117602000Y-77978000D03*
%TO.N,Net-(U2-GP2)*%
X116840000Y-77978000D03*
%TO.N,+3V3*%
X137160000Y-51562000D03*
X110490000Y-40132000D03*
X108966000Y-51562000D03*
X105664000Y-74930000D03*
X110490000Y-42672000D03*
%TO.N,GND*%
X101092000Y-77978000D03*
X102870000Y-77978000D03*
X146050000Y-57150000D03*
%TO.N,+5V*%
X108204000Y-45974000D03*
%TO.N,/SCL*%
X114808000Y-51562000D03*
X126741000Y-48773000D03*
X143002000Y-54102000D03*
X146050000Y-54102000D03*
%TO.N,/SDA*%
X128016000Y-49022000D03*
X114808000Y-48006000D03*
%TD*%
D25*
%TO.N,+5V*%
X124198000Y-49268000D02*
X124198000Y-46382000D01*
X124206000Y-49276000D02*
X124198000Y-49268000D01*
%TO.N,Net-(U2-GP2)*%
X123825000Y-68453000D02*
X123825000Y-64262000D01*
X123190000Y-69088000D02*
X123825000Y-68453000D01*
X131909000Y-64262000D02*
X134159000Y-62012000D01*
X128016000Y-64262000D02*
X131909000Y-64262000D01*
%TO.N,Net-(R3-Pad2)*%
X128467000Y-66512000D02*
X132207000Y-66512000D01*
X132207000Y-66512000D02*
X134159000Y-66512000D01*
%TO.N,Net-(U2-GP2)*%
X120650000Y-69088000D02*
X117348000Y-72390000D01*
X123190000Y-69088000D02*
X120650000Y-69088000D01*
%TO.N,+5V*%
X136271000Y-55763000D02*
X134605000Y-54097000D01*
X136271000Y-72263000D02*
X136271000Y-55763000D01*
X128651000Y-79883000D02*
X136271000Y-72263000D01*
X125242000Y-81452000D02*
X126811000Y-79883000D01*
X126811000Y-79883000D02*
X128651000Y-79883000D01*
D26*
%TO.N,Net-(JP1-A)*%
X136837790Y-79941790D02*
X136837790Y-74183210D01*
X133213580Y-83566000D02*
X136837790Y-79941790D01*
X113538000Y-83566000D02*
X133213580Y-83566000D01*
X136837790Y-74183210D02*
X138250000Y-72771000D01*
X112776000Y-82804000D02*
X113538000Y-83566000D01*
X112776000Y-81358000D02*
X112776000Y-82804000D01*
%TO.N,Net-(JP2-A)*%
X133318790Y-83820000D02*
X137160000Y-79978790D01*
X111506000Y-83058000D02*
X112268000Y-83820000D01*
X112268000Y-83820000D02*
X133318790Y-83820000D01*
X111506000Y-81358000D02*
X111506000Y-83058000D01*
X137160000Y-79978790D02*
X137160000Y-76401000D01*
X137160000Y-76401000D02*
X138250000Y-75311000D01*
%TO.N,Net-(JP3-A)*%
X138250000Y-79248000D02*
X138250000Y-77851000D01*
D25*
%TO.N,+3V3*%
X112776000Y-72058000D02*
X112776000Y-70485000D01*
D26*
%TO.N,/SDA*%
X110236000Y-70739000D02*
X110236000Y-72058000D01*
X110998000Y-76454000D02*
X108839000Y-74295000D01*
X116771672Y-76454000D02*
X110998000Y-76454000D01*
X118092500Y-79023000D02*
X118092500Y-77774828D01*
X129312000Y-83312000D02*
X118618000Y-83312000D01*
X118618000Y-83312000D02*
X117867500Y-82561500D01*
X117867500Y-82561500D02*
X117867500Y-79248000D01*
X130322000Y-82302000D02*
X129312000Y-83312000D01*
X117867500Y-79248000D02*
X118092500Y-79023000D01*
X118092500Y-77774828D02*
X116771672Y-76454000D01*
X130322000Y-81452000D02*
X130322000Y-82302000D01*
%TO.N,/SCL*%
X108966000Y-73152000D02*
X108966000Y-72058000D01*
X111506000Y-75692000D02*
X108966000Y-73152000D01*
%TO.N,/IRQ*%
X114046000Y-73025000D02*
X114046000Y-72058000D01*
X114681000Y-73660000D02*
X114046000Y-73025000D01*
X114696092Y-73660000D02*
X114681000Y-73660000D01*
X118618000Y-77581908D02*
X114696092Y-73660000D01*
X118375500Y-79458420D02*
X118618000Y-79215920D01*
X118375500Y-82296000D02*
X118375500Y-79458420D01*
X118618000Y-79215920D02*
X118618000Y-77581908D01*
X118883500Y-82804000D02*
X118375500Y-82296000D01*
X122702000Y-81452000D02*
X121350000Y-82804000D01*
X121350000Y-82804000D02*
X118883500Y-82804000D01*
%TO.N,Net-(U2-GP3)*%
X118201000Y-73696000D02*
X121967000Y-73696000D01*
X117602000Y-74295000D02*
X118201000Y-73696000D01*
%TO.N,/SCL*%
X116368882Y-75692000D02*
X111506000Y-75692000D01*
X118364000Y-77687118D02*
X116368882Y-75692000D01*
X118364000Y-79110710D02*
X118364000Y-77687118D01*
X118121500Y-79353210D02*
X118364000Y-79110710D01*
X118121500Y-82456290D02*
X118121500Y-79353210D01*
X118723210Y-83058000D02*
X118121500Y-82456290D01*
X127254000Y-83058000D02*
X118723210Y-83058000D01*
X127782000Y-82530000D02*
X127254000Y-83058000D01*
X127782000Y-81452000D02*
X127782000Y-82530000D01*
D27*
%TO.N,Net-(U2-GP3)*%
X117602000Y-82550000D02*
X117602000Y-77978000D01*
X117094000Y-83058000D02*
X117602000Y-82550000D01*
X115570000Y-83058000D02*
X117094000Y-83058000D01*
X115316000Y-82804000D02*
X115570000Y-83058000D01*
%TO.N,Net-(U2-GP2)*%
X116586000Y-78232000D02*
X116840000Y-77978000D01*
X116586000Y-81358000D02*
X116586000Y-78232000D01*
D26*
%TO.N,Net-(U2-GP3)*%
X115316000Y-81358000D02*
X115316000Y-82804000D01*
D25*
%TO.N,Net-(R3-Pad2)*%
X134159000Y-72504000D02*
X128467000Y-78196000D01*
X134159000Y-66512000D02*
X134159000Y-72504000D01*
D26*
%TO.N,Net-(JP3-A)*%
X133424000Y-84074000D02*
X138250000Y-79248000D01*
X111506000Y-84074000D02*
X133424000Y-84074000D01*
X110236000Y-82804000D02*
X111506000Y-84074000D01*
X110236000Y-81358000D02*
X110236000Y-82804000D01*
D28*
%TO.N,+3V3*%
X104140000Y-74891500D02*
X104140000Y-74344000D01*
X105664000Y-74930000D02*
X105625500Y-74891500D01*
X107428650Y-50190550D02*
X102144300Y-50190550D01*
X110490000Y-44298000D02*
X110490000Y-42672000D01*
X108966000Y-51562000D02*
X107511600Y-50107600D01*
X107511600Y-50107600D02*
X107428650Y-50190550D01*
X110490000Y-37998000D02*
X110490000Y-40132000D01*
X134605000Y-51557000D02*
X137155000Y-51557000D01*
X110490000Y-44298000D02*
X110490000Y-47726000D01*
X104140000Y-74891500D02*
X105625500Y-74891500D01*
X137160000Y-51562000D02*
X137155000Y-51557000D01*
X104140000Y-74344000D02*
X106426000Y-72058000D01*
X110490000Y-47726000D02*
X110464000Y-47752000D01*
X110464000Y-51562000D02*
X108966000Y-51562000D01*
D25*
%TO.N,Net-(BZ1-+)*%
X102156900Y-78661900D02*
X102156900Y-57774550D01*
X114046000Y-80391000D02*
X114046000Y-81358000D01*
X103124000Y-79629000D02*
X102156900Y-78661900D01*
X103124000Y-79629000D02*
X113284000Y-79629000D01*
X113284000Y-79629000D02*
X114046000Y-80391000D01*
D27*
%TO.N,GND*%
X140230000Y-75184000D02*
X140230000Y-76454000D01*
D25*
X102908500Y-78016500D02*
X102870000Y-77978000D01*
X104140000Y-78016500D02*
X102908500Y-78016500D01*
D27*
X140230000Y-77724000D02*
X140230000Y-76454000D01*
D26*
%TO.N,/IRQ*%
X112776000Y-55880000D02*
X115062000Y-53594000D01*
D27*
X119888000Y-48768000D02*
X122174000Y-48768000D01*
X122174000Y-48768000D02*
X122928000Y-48014000D01*
D26*
X112776000Y-67818000D02*
X114046000Y-69088000D01*
X112776000Y-55880000D02*
X112776000Y-67818000D01*
D27*
X115062000Y-53594000D02*
X119888000Y-48768000D01*
X122928000Y-48014000D02*
X122928000Y-46382000D01*
D26*
X114046000Y-69088000D02*
X114046000Y-72058000D01*
D25*
%TO.N,+5V*%
X108204000Y-44312000D02*
X108190000Y-44298000D01*
X108204000Y-45974000D02*
X108204000Y-44312000D01*
D26*
%TO.N,/SCL*%
X126738000Y-46382000D02*
X126738000Y-48770000D01*
X146304000Y-49276000D02*
X146304000Y-53848000D01*
X113564000Y-51562000D02*
X113564000Y-53314000D01*
D27*
X114808000Y-51562000D02*
X113564000Y-51562000D01*
D26*
X108966000Y-70358000D02*
X108966000Y-72058000D01*
X141497011Y-52597011D02*
X143002000Y-54102000D01*
X129525000Y-51557000D02*
X130565011Y-52597011D01*
X130565011Y-52597011D02*
X141497011Y-52597011D01*
X111760000Y-55118000D02*
X111760000Y-67564000D01*
X113564000Y-53314000D02*
X111760000Y-55118000D01*
X126741000Y-48773000D02*
X129525000Y-51557000D01*
X144272000Y-47244000D02*
X146304000Y-49276000D01*
X146304000Y-53848000D02*
X146050000Y-54102000D01*
X126738000Y-48770000D02*
X126741000Y-48773000D01*
X111760000Y-67564000D02*
X108966000Y-70358000D01*
%TO.N,/SDA*%
X128778000Y-49784000D02*
X130292000Y-49784000D01*
X128016000Y-49022000D02*
X128778000Y-49784000D01*
X128008000Y-49014000D02*
X128016000Y-49022000D01*
D27*
X115570000Y-52324000D02*
X115062000Y-52832000D01*
D26*
X112268000Y-67818000D02*
X110236000Y-69850000D01*
D27*
X114808000Y-48006000D02*
X113818000Y-48006000D01*
X113564000Y-49048000D02*
X115570000Y-51054000D01*
D26*
X110236000Y-69850000D02*
X110236000Y-70739000D01*
D27*
X115570000Y-51054000D02*
X115570000Y-52324000D01*
D26*
X130292000Y-49784000D02*
X132065000Y-51557000D01*
X128008000Y-46382000D02*
X128008000Y-49014000D01*
D27*
X113564000Y-47752000D02*
X113564000Y-49048000D01*
D26*
X112268000Y-55626000D02*
X112268000Y-67818000D01*
D27*
X113818000Y-48006000D02*
X113564000Y-47752000D01*
D26*
X115062000Y-52832000D02*
X112268000Y-55626000D01*
X133838000Y-49784000D02*
X144272000Y-49784000D01*
X132065000Y-51557000D02*
X133838000Y-49784000D01*
D25*
%TO.N,Net-(R3-Pad2)*%
X109780000Y-66512000D02*
X105602000Y-66512000D01*
X105602000Y-66512000D02*
X104902000Y-65812000D01*
X121967000Y-66512000D02*
X116280000Y-66512000D01*
D26*
%TO.N,Net-(U2-GP0)*%
X120153000Y-60198000D02*
X121967000Y-62012000D01*
X115316000Y-72058000D02*
X115316000Y-69342000D01*
X113284000Y-67310000D02*
X113284000Y-60960000D01*
X113284000Y-60960000D02*
X114046000Y-60198000D01*
X115316000Y-69342000D02*
X113284000Y-67310000D01*
X114046000Y-60198000D02*
X120153000Y-60198000D01*
%TO.N,Net-(U2-GP1)*%
X113792000Y-67056000D02*
X113792000Y-64500000D01*
X116586000Y-69850000D02*
X113792000Y-67056000D01*
X113792000Y-64500000D02*
X116280000Y-62012000D01*
X116586000Y-72058000D02*
X116586000Y-69850000D01*
%TD*%
%TA.AperFunction,Conductor*%
%TO.N,GND*%
G36*
X107119474Y-73444652D02*
G01*
X107138233Y-73456708D01*
X107139189Y-73457449D01*
X107139193Y-73457453D01*
X107139197Y-73457455D01*
X107139198Y-73457456D01*
X107282394Y-73542143D01*
X107282397Y-73542143D01*
X107282399Y-73542145D01*
X107442169Y-73588562D01*
X107449634Y-73589149D01*
X107479494Y-73591500D01*
X107479498Y-73591500D01*
X107912506Y-73591500D01*
X107937388Y-73589541D01*
X107949831Y-73588562D01*
X108109601Y-73542145D01*
X108109605Y-73542142D01*
X108115974Y-73540292D01*
X108186970Y-73540495D01*
X108246586Y-73579049D01*
X108275895Y-73643713D01*
X108265591Y-73713958D01*
X108240224Y-73750383D01*
X108202886Y-73787721D01*
X108105958Y-73941981D01*
X108105957Y-73941984D01*
X108061879Y-74067954D01*
X108045783Y-74113953D01*
X108025384Y-74295000D01*
X108045783Y-74476047D01*
X108045783Y-74476049D01*
X108045784Y-74476050D01*
X108105957Y-74648015D01*
X108105958Y-74648018D01*
X108202887Y-74802279D01*
X108202888Y-74802281D01*
X108331718Y-74931111D01*
X108331720Y-74931112D01*
X108485981Y-75028041D01*
X108485982Y-75028041D01*
X108485985Y-75028043D01*
X108657953Y-75088217D01*
X108800472Y-75104275D01*
X108865921Y-75131776D01*
X108875456Y-75140386D01*
X110564104Y-76829034D01*
X110569536Y-76835228D01*
X110590045Y-76861955D01*
X110709532Y-76953641D01*
X110848678Y-77011277D01*
X110960508Y-77026000D01*
X110960514Y-77026000D01*
X110998000Y-77030935D01*
X111031388Y-77026540D01*
X111039619Y-77026000D01*
X116398097Y-77026000D01*
X116466218Y-77046002D01*
X116512711Y-77099658D01*
X116522815Y-77169932D01*
X116493321Y-77234512D01*
X116465133Y-77258687D01*
X116332720Y-77341887D01*
X116332718Y-77341888D01*
X116203888Y-77470718D01*
X116203887Y-77470720D01*
X116106958Y-77624981D01*
X116106957Y-77624984D01*
X116058839Y-77762500D01*
X116046783Y-77796953D01*
X116041666Y-77842368D01*
X116026384Y-77978001D01*
X116029855Y-78008812D01*
X116021058Y-78071131D01*
X116017519Y-78079674D01*
X116017518Y-78079676D01*
X115997465Y-78231999D01*
X115997465Y-78232000D01*
X116001960Y-78266145D01*
X116002500Y-78274377D01*
X116002500Y-79814345D01*
X115982498Y-79882466D01*
X115928842Y-79928959D01*
X115858568Y-79939063D01*
X115812361Y-79922799D01*
X115729602Y-79873855D01*
X115569829Y-79827437D01*
X115532506Y-79824500D01*
X115532502Y-79824500D01*
X115099498Y-79824500D01*
X115099494Y-79824500D01*
X115062170Y-79827437D01*
X114902394Y-79873856D01*
X114759197Y-79958543D01*
X114758225Y-79959298D01*
X114757323Y-79959652D01*
X114752369Y-79962582D01*
X114751896Y-79961782D01*
X114692139Y-79985244D01*
X114622517Y-79971342D01*
X114603775Y-79959298D01*
X114602802Y-79958543D01*
X114459604Y-79873856D01*
X114459606Y-79873856D01*
X114391722Y-79854134D01*
X114337781Y-79822232D01*
X114049384Y-79533835D01*
X113745390Y-79229841D01*
X113739963Y-79223653D01*
X113717987Y-79195013D01*
X113686074Y-79170525D01*
X113686072Y-79170523D01*
X113624528Y-79123298D01*
X113590882Y-79097480D01*
X113590874Y-79097475D01*
X113442849Y-79036161D01*
X113420169Y-79033176D01*
X113323885Y-79020500D01*
X113323881Y-79020500D01*
X113320205Y-79020016D01*
X113320197Y-79020015D01*
X113284002Y-79015250D01*
X113283999Y-79015250D01*
X113248219Y-79019960D01*
X113239988Y-79020500D01*
X105541511Y-79020500D01*
X105473390Y-79000498D01*
X105426897Y-78946842D01*
X105416793Y-78876568D01*
X105434270Y-78828354D01*
X105481656Y-78751527D01*
X105537393Y-78583321D01*
X105537394Y-78583318D01*
X105547999Y-78479516D01*
X105548000Y-78479516D01*
X105548000Y-78270500D01*
X104012000Y-78270500D01*
X103943879Y-78250498D01*
X103897386Y-78196842D01*
X103886000Y-78144500D01*
X103886000Y-76846000D01*
X104394000Y-76846000D01*
X104394000Y-77762500D01*
X105548000Y-77762500D01*
X105548000Y-77553483D01*
X105537394Y-77449681D01*
X105537393Y-77449678D01*
X105481657Y-77281474D01*
X105388634Y-77130660D01*
X105388629Y-77130654D01*
X105263345Y-77005370D01*
X105263339Y-77005365D01*
X105112525Y-76912342D01*
X104944321Y-76856606D01*
X104944318Y-76856605D01*
X104840516Y-76846000D01*
X104394000Y-76846000D01*
X103886000Y-76846000D01*
X103439483Y-76846000D01*
X103335681Y-76856605D01*
X103335678Y-76856606D01*
X103167474Y-76912342D01*
X103016660Y-77005365D01*
X103016654Y-77005370D01*
X102980495Y-77041530D01*
X102918183Y-77075556D01*
X102847368Y-77070491D01*
X102790532Y-77027944D01*
X102765721Y-76961424D01*
X102765400Y-76952435D01*
X102765400Y-75956273D01*
X102785402Y-75888152D01*
X102839058Y-75841659D01*
X102909332Y-75831555D01*
X102973912Y-75861049D01*
X102980495Y-75867178D01*
X103016341Y-75903024D01*
X103016347Y-75903029D01*
X103016348Y-75903030D01*
X103167262Y-75996115D01*
X103335574Y-76051887D01*
X103439455Y-76062500D01*
X104840544Y-76062499D01*
X104944426Y-76051887D01*
X105112738Y-75996115D01*
X105263652Y-75903030D01*
X105389030Y-75777652D01*
X105389035Y-75777642D01*
X105392824Y-75772852D01*
X105450763Y-75731819D01*
X105505768Y-75725787D01*
X105664000Y-75743616D01*
X105845047Y-75723217D01*
X106017015Y-75663043D01*
X106171281Y-75566111D01*
X106300111Y-75437281D01*
X106397043Y-75283015D01*
X106457217Y-75111047D01*
X106477616Y-74930000D01*
X106457217Y-74748953D01*
X106397043Y-74576985D01*
X106397041Y-74576982D01*
X106397041Y-74576981D01*
X106300112Y-74422720D01*
X106300111Y-74422718D01*
X106171281Y-74293888D01*
X106171279Y-74293887D01*
X106017018Y-74196958D01*
X106017015Y-74196957D01*
X105977725Y-74183209D01*
X105845047Y-74136783D01*
X105664000Y-74116384D01*
X105663999Y-74116384D01*
X105659393Y-74115865D01*
X105593940Y-74088361D01*
X105553747Y-74029837D01*
X105551576Y-73958874D01*
X105584404Y-73901564D01*
X105906573Y-73579395D01*
X105968883Y-73545371D01*
X106030813Y-73547494D01*
X106172169Y-73588562D01*
X106179634Y-73589149D01*
X106209494Y-73591500D01*
X106209498Y-73591500D01*
X106642506Y-73591500D01*
X106667388Y-73589541D01*
X106679831Y-73588562D01*
X106839601Y-73542145D01*
X106839603Y-73542143D01*
X106839605Y-73542143D01*
X106905186Y-73503358D01*
X106982807Y-73457453D01*
X106982814Y-73457445D01*
X106983767Y-73456708D01*
X106984662Y-73456356D01*
X106989631Y-73453418D01*
X106990104Y-73454219D01*
X107049850Y-73430756D01*
X107119474Y-73444652D01*
G37*
%TD.AperFunction*%
%TA.AperFunction,Conductor*%
G36*
X112566033Y-68433064D02*
G01*
X112611095Y-68462025D01*
X113437095Y-69288025D01*
X113471121Y-69350337D01*
X113474000Y-69377120D01*
X113474000Y-69740745D01*
X113453998Y-69808866D01*
X113400342Y-69855359D01*
X113330068Y-69865463D01*
X113280964Y-69847432D01*
X113129018Y-69751958D01*
X113129015Y-69751957D01*
X112957050Y-69691784D01*
X112957049Y-69691783D01*
X112957047Y-69691783D01*
X112776000Y-69671384D01*
X112594953Y-69691783D01*
X112594950Y-69691783D01*
X112594949Y-69691784D01*
X112422984Y-69751957D01*
X112422981Y-69751958D01*
X112268720Y-69848887D01*
X112268718Y-69848888D01*
X112139888Y-69977718D01*
X112139887Y-69977720D01*
X112042958Y-70131981D01*
X112042957Y-70131984D01*
X112008059Y-70231719D01*
X111982783Y-70303953D01*
X111974675Y-70375905D01*
X111968021Y-70434966D01*
X111940517Y-70500418D01*
X111881992Y-70540611D01*
X111811029Y-70542782D01*
X111807659Y-70541854D01*
X111760000Y-70528007D01*
X111760000Y-73587991D01*
X111919399Y-73541681D01*
X112062493Y-73457056D01*
X112063353Y-73456390D01*
X112064150Y-73456076D01*
X112069321Y-73453019D01*
X112069813Y-73453852D01*
X112129437Y-73430437D01*
X112199060Y-73444332D01*
X112217816Y-73456385D01*
X112219196Y-73457455D01*
X112362394Y-73542143D01*
X112362397Y-73542143D01*
X112362399Y-73542145D01*
X112522169Y-73588562D01*
X112529634Y-73589149D01*
X112559494Y-73591500D01*
X112559498Y-73591500D01*
X112992506Y-73591500D01*
X113017388Y-73589541D01*
X113029831Y-73588562D01*
X113189601Y-73542145D01*
X113189603Y-73542143D01*
X113189605Y-73542143D01*
X113255186Y-73503358D01*
X113332807Y-73457453D01*
X113332814Y-73457445D01*
X113333767Y-73456708D01*
X113334662Y-73456356D01*
X113339631Y-73453418D01*
X113340104Y-73454219D01*
X113399850Y-73430756D01*
X113469474Y-73444652D01*
X113488233Y-73456708D01*
X113489189Y-73457449D01*
X113489193Y-73457453D01*
X113489197Y-73457455D01*
X113489198Y-73457456D01*
X113632394Y-73542143D01*
X113632397Y-73542143D01*
X113632399Y-73542145D01*
X113773032Y-73583002D01*
X113826974Y-73614904D01*
X114247104Y-74035034D01*
X114252536Y-74041228D01*
X114273045Y-74067955D01*
X114299638Y-74088361D01*
X114364633Y-74138234D01*
X114370826Y-74143665D01*
X115132068Y-74904906D01*
X115166092Y-74967217D01*
X115161028Y-75038032D01*
X115118481Y-75094868D01*
X115051961Y-75119679D01*
X115042972Y-75120000D01*
X111795121Y-75120000D01*
X111727000Y-75099998D01*
X111706026Y-75083095D01*
X111098978Y-74476047D01*
X110424355Y-73801425D01*
X110390331Y-73739114D01*
X110395395Y-73668299D01*
X110437942Y-73611463D01*
X110483946Y-73591384D01*
X110483648Y-73590358D01*
X110489829Y-73588562D01*
X110489831Y-73588562D01*
X110649601Y-73542145D01*
X110649603Y-73542143D01*
X110649605Y-73542143D01*
X110752342Y-73481384D01*
X110792807Y-73457453D01*
X110792815Y-73457444D01*
X110794176Y-73456390D01*
X110795454Y-73455887D01*
X110799631Y-73453418D01*
X110800029Y-73454091D01*
X110860259Y-73430437D01*
X110929883Y-73444332D01*
X110948639Y-73456385D01*
X110949500Y-73457052D01*
X111092600Y-73541681D01*
X111252000Y-73587991D01*
X111252000Y-70528007D01*
X111251999Y-70528006D01*
X111154913Y-70556213D01*
X111083917Y-70556010D01*
X111024300Y-70517456D01*
X111000831Y-70476831D01*
X110973813Y-70399618D01*
X110969043Y-70385985D01*
X110969041Y-70385982D01*
X110969041Y-70385981D01*
X110872112Y-70231720D01*
X110872111Y-70231718D01*
X110856756Y-70216363D01*
X110822730Y-70154051D01*
X110827795Y-70083236D01*
X110856754Y-70038175D01*
X112432905Y-68462025D01*
X112495217Y-68427999D01*
X112566033Y-68433064D01*
G37*
%TD.AperFunction*%
%TA.AperFunction,Conductor*%
G36*
X147093214Y-35834002D02*
G01*
X147139707Y-35887658D01*
X147149811Y-35957932D01*
X147120317Y-36022512D01*
X147060591Y-36060896D01*
X147050732Y-36063363D01*
X147042254Y-36065125D01*
X147005974Y-36072664D01*
X147005966Y-36072666D01*
X146735196Y-36168898D01*
X146480061Y-36301100D01*
X146245302Y-36466811D01*
X146035294Y-36662944D01*
X146035184Y-36663080D01*
X145853945Y-36885853D01*
X145815324Y-36949362D01*
X145704639Y-37131375D01*
X145590157Y-37394939D01*
X145512628Y-37671642D01*
X145473500Y-37956311D01*
X145473500Y-38243688D01*
X145512628Y-38528357D01*
X145544852Y-38643365D01*
X145590156Y-38805058D01*
X145704639Y-39068625D01*
X145853945Y-39314147D01*
X146035292Y-39537053D01*
X146245302Y-39733189D01*
X146480064Y-39898901D01*
X146580512Y-39950949D01*
X146735196Y-40031101D01*
X146735199Y-40031102D01*
X146735203Y-40031104D01*
X147005968Y-40127334D01*
X147287314Y-40185798D01*
X147287325Y-40185798D01*
X147287327Y-40185799D01*
X147420198Y-40194887D01*
X147502248Y-40200500D01*
X147502249Y-40200500D01*
X147645751Y-40200500D01*
X147645752Y-40200500D01*
X147778469Y-40191421D01*
X147860672Y-40185799D01*
X147860672Y-40185798D01*
X147860686Y-40185798D01*
X148142032Y-40127334D01*
X148412797Y-40031104D01*
X148667936Y-39898901D01*
X148902698Y-39733189D01*
X149112708Y-39537053D01*
X149294055Y-39314147D01*
X149443361Y-39068625D01*
X149557844Y-38805058D01*
X149612672Y-38609369D01*
X149650311Y-38549173D01*
X149714521Y-38518880D01*
X149784915Y-38528110D01*
X149839144Y-38573933D01*
X149859990Y-38641800D01*
X149860000Y-38643365D01*
X149860000Y-82514634D01*
X149839998Y-82582755D01*
X149786342Y-82629248D01*
X149716068Y-82639352D01*
X149651488Y-82609858D01*
X149613104Y-82550132D01*
X149612672Y-82548628D01*
X149612554Y-82548207D01*
X149557844Y-82352942D01*
X149443361Y-82089375D01*
X149294055Y-81843853D01*
X149112708Y-81620947D01*
X148902698Y-81424811D01*
X148754426Y-81320150D01*
X148667938Y-81259100D01*
X148412803Y-81126898D01*
X148142033Y-81030666D01*
X148142025Y-81030664D01*
X148014980Y-81004264D01*
X147860686Y-80972202D01*
X147860681Y-80972201D01*
X147860678Y-80972201D01*
X147860672Y-80972200D01*
X147658986Y-80958405D01*
X147645752Y-80957500D01*
X147502248Y-80957500D01*
X147489781Y-80958352D01*
X147287327Y-80972200D01*
X147287321Y-80972201D01*
X147287317Y-80972201D01*
X147287314Y-80972202D01*
X147181424Y-80994206D01*
X147005974Y-81030664D01*
X147005966Y-81030666D01*
X146735196Y-81126898D01*
X146480061Y-81259100D01*
X146245302Y-81424811D01*
X146035294Y-81620944D01*
X145853947Y-81843850D01*
X145704639Y-82089375D01*
X145590157Y-82352939D01*
X145512628Y-82629642D01*
X145473500Y-82914311D01*
X145473500Y-83201688D01*
X145512628Y-83486357D01*
X145544852Y-83601365D01*
X145590156Y-83763058D01*
X145704639Y-84026625D01*
X145853945Y-84272147D01*
X146035292Y-84495053D01*
X146245302Y-84691189D01*
X146480064Y-84856901D01*
X146586030Y-84911808D01*
X146735196Y-84989101D01*
X146735199Y-84989102D01*
X146735203Y-84989104D01*
X147005968Y-85085334D01*
X147050728Y-85094635D01*
X147113355Y-85128078D01*
X147147959Y-85190071D01*
X147143554Y-85260931D01*
X147101538Y-85318160D01*
X147035252Y-85343590D01*
X147025093Y-85344000D01*
X103164907Y-85344000D01*
X103096786Y-85323998D01*
X103050293Y-85270342D01*
X103040189Y-85200068D01*
X103069683Y-85135488D01*
X103129409Y-85097104D01*
X103139267Y-85094636D01*
X103184032Y-85085334D01*
X103454797Y-84989104D01*
X103709936Y-84856901D01*
X103944698Y-84691189D01*
X104154708Y-84495053D01*
X104336055Y-84272147D01*
X104485361Y-84026625D01*
X104599844Y-83763058D01*
X104677371Y-83486358D01*
X104687876Y-83409927D01*
X104716499Y-83201688D01*
X104716500Y-83201678D01*
X104716500Y-82914321D01*
X104716499Y-82914311D01*
X104677371Y-82629642D01*
X104664234Y-82582755D01*
X104599844Y-82352942D01*
X104485361Y-82089375D01*
X104336055Y-81843853D01*
X104154708Y-81620947D01*
X104145128Y-81612000D01*
X105618001Y-81612000D01*
X105618001Y-82299458D01*
X105620934Y-82336750D01*
X105667318Y-82496400D01*
X105751948Y-82639501D01*
X105751949Y-82639503D01*
X105869497Y-82757051D01*
X106012600Y-82841681D01*
X106172000Y-82887991D01*
X106172000Y-81612000D01*
X105618001Y-81612000D01*
X104145128Y-81612000D01*
X103944698Y-81424811D01*
X103796426Y-81320150D01*
X103709938Y-81259100D01*
X103454803Y-81126898D01*
X103184033Y-81030666D01*
X103184025Y-81030664D01*
X103056980Y-81004264D01*
X102902686Y-80972202D01*
X102902681Y-80972201D01*
X102902678Y-80972201D01*
X102902672Y-80972200D01*
X102700986Y-80958405D01*
X102687752Y-80957500D01*
X102544248Y-80957500D01*
X102531781Y-80958352D01*
X102329327Y-80972200D01*
X102329321Y-80972201D01*
X102329317Y-80972201D01*
X102329314Y-80972202D01*
X102223424Y-80994206D01*
X102047974Y-81030664D01*
X102047966Y-81030666D01*
X101777196Y-81126898D01*
X101522061Y-81259100D01*
X101287302Y-81424811D01*
X101077294Y-81620944D01*
X100895947Y-81843850D01*
X100746639Y-82089375D01*
X100633157Y-82350638D01*
X100632156Y-82352942D01*
X100577446Y-82548207D01*
X100577328Y-82548628D01*
X100539689Y-82608827D01*
X100475479Y-82639119D01*
X100405085Y-82629889D01*
X100350856Y-82584066D01*
X100330010Y-82516199D01*
X100330000Y-82514634D01*
X100330000Y-58823199D01*
X100910400Y-58823199D01*
X100916909Y-58883746D01*
X100916911Y-58883754D01*
X100968010Y-59020752D01*
X100968012Y-59020757D01*
X101055638Y-59137811D01*
X101172692Y-59225437D01*
X101172694Y-59225438D01*
X101172696Y-59225439D01*
X101231775Y-59247474D01*
X101309695Y-59276538D01*
X101309703Y-59276540D01*
X101370250Y-59283049D01*
X101370255Y-59283049D01*
X101370262Y-59283050D01*
X101422400Y-59283050D01*
X101490521Y-59303052D01*
X101537014Y-59356708D01*
X101548400Y-59409050D01*
X101548400Y-78617888D01*
X101547860Y-78626119D01*
X101543150Y-78661900D01*
X101548400Y-78701779D01*
X101548400Y-78701785D01*
X101560795Y-78795933D01*
X101564062Y-78820751D01*
X101587182Y-78876568D01*
X101625375Y-78968774D01*
X101625380Y-78968782D01*
X101666638Y-79022549D01*
X101698423Y-79063972D01*
X101698425Y-79063974D01*
X101722913Y-79095887D01*
X101739489Y-79108606D01*
X101751547Y-79117859D01*
X101757749Y-79123298D01*
X102662601Y-80028149D01*
X102668036Y-80034346D01*
X102669873Y-80036740D01*
X102690013Y-80062987D01*
X102721929Y-80087477D01*
X102817120Y-80160522D01*
X102817123Y-80160523D01*
X102817124Y-80160524D01*
X102965149Y-80221838D01*
X102984543Y-80224391D01*
X103084115Y-80237500D01*
X103084120Y-80237500D01*
X103124000Y-80242750D01*
X103159781Y-80238040D01*
X103168012Y-80237500D01*
X105495784Y-80237500D01*
X105563905Y-80257502D01*
X105610398Y-80311158D01*
X105621396Y-80373384D01*
X105618000Y-80416539D01*
X105618000Y-81104000D01*
X106554000Y-81104000D01*
X106622121Y-81124002D01*
X106668614Y-81177658D01*
X106680000Y-81230000D01*
X106680000Y-82887991D01*
X106839399Y-82841681D01*
X106982493Y-82757056D01*
X106983353Y-82756390D01*
X106984150Y-82756076D01*
X106989321Y-82753019D01*
X106989813Y-82753852D01*
X107049437Y-82730437D01*
X107119060Y-82744332D01*
X107137816Y-82756385D01*
X107139196Y-82757455D01*
X107282394Y-82842143D01*
X107282397Y-82842143D01*
X107282399Y-82842145D01*
X107442169Y-82888562D01*
X107449634Y-82889149D01*
X107479494Y-82891500D01*
X107479498Y-82891500D01*
X107912506Y-82891500D01*
X107937388Y-82889541D01*
X107949831Y-82888562D01*
X108109601Y-82842145D01*
X108109603Y-82842143D01*
X108109605Y-82842143D01*
X108166883Y-82808268D01*
X108252807Y-82757453D01*
X108252814Y-82757445D01*
X108253767Y-82756708D01*
X108254662Y-82756356D01*
X108259631Y-82753418D01*
X108260104Y-82754219D01*
X108319850Y-82730756D01*
X108389474Y-82744652D01*
X108408233Y-82756708D01*
X108409189Y-82757449D01*
X108409193Y-82757453D01*
X108409197Y-82757455D01*
X108409198Y-82757456D01*
X108552394Y-82842143D01*
X108552397Y-82842143D01*
X108552399Y-82842145D01*
X108712169Y-82888562D01*
X108719634Y-82889149D01*
X108749494Y-82891500D01*
X108749498Y-82891500D01*
X109182506Y-82891500D01*
X109207388Y-82889541D01*
X109219831Y-82888562D01*
X109379601Y-82842145D01*
X109479369Y-82783141D01*
X109548185Y-82765682D01*
X109615517Y-82788198D01*
X109659986Y-82843543D01*
X109668431Y-82875149D01*
X109676185Y-82934046D01*
X109678723Y-82953322D01*
X109736357Y-83092465D01*
X109771707Y-83138535D01*
X109820166Y-83201688D01*
X109828045Y-83211955D01*
X109841533Y-83222305D01*
X109854771Y-83232463D01*
X109860964Y-83237894D01*
X111072107Y-84449037D01*
X111077540Y-84455232D01*
X111098047Y-84481957D01*
X111168773Y-84536227D01*
X111217532Y-84573641D01*
X111356678Y-84631277D01*
X111468508Y-84646000D01*
X111468514Y-84646000D01*
X111506000Y-84650935D01*
X111539388Y-84646540D01*
X111547619Y-84646000D01*
X133382381Y-84646000D01*
X133390612Y-84646540D01*
X133404138Y-84648320D01*
X133424000Y-84650935D01*
X133461486Y-84646000D01*
X133461492Y-84646000D01*
X133573322Y-84631277D01*
X133712468Y-84573641D01*
X133831955Y-84481955D01*
X133852470Y-84455217D01*
X133857884Y-84449044D01*
X138625044Y-79681884D01*
X138631218Y-79676469D01*
X138657955Y-79655955D01*
X138692949Y-79610351D01*
X138749642Y-79536467D01*
X138785866Y-79449012D01*
X138807277Y-79397322D01*
X138826936Y-79248000D01*
X138823375Y-79220954D01*
X138834314Y-79150807D01*
X138881441Y-79097708D01*
X138914829Y-79083035D01*
X138955528Y-79071824D01*
X139079850Y-78994849D01*
X139177448Y-78885966D01*
X139587759Y-78270500D01*
X139677448Y-78135967D01*
X139681099Y-78130284D01*
X139686782Y-78121442D01*
X139745282Y-77987431D01*
X139763656Y-77842368D01*
X139740418Y-77698004D01*
X139677448Y-77566034D01*
X139677445Y-77566030D01*
X139677444Y-77566027D01*
X139177446Y-76816031D01*
X139177447Y-76816032D01*
X139138248Y-76764577D01*
X139034891Y-76675017D01*
X138996508Y-76615291D01*
X138996508Y-76544294D01*
X139034892Y-76484568D01*
X139051077Y-76472664D01*
X139079850Y-76454849D01*
X139177448Y-76345966D01*
X139579015Y-75743616D01*
X139677448Y-75595967D01*
X139681099Y-75590284D01*
X139686782Y-75581442D01*
X139745282Y-75447431D01*
X139763656Y-75302368D01*
X139740418Y-75158004D01*
X139677448Y-75026034D01*
X139677445Y-75026030D01*
X139677444Y-75026027D01*
X139177446Y-74276031D01*
X139177447Y-74276032D01*
X139156923Y-74249091D01*
X139138250Y-74224579D01*
X139133769Y-74220696D01*
X139034891Y-74135017D01*
X138996508Y-74075291D01*
X138996508Y-74004294D01*
X139034892Y-73944568D01*
X139051077Y-73932664D01*
X139079850Y-73914849D01*
X139177448Y-73805966D01*
X139495677Y-73328623D01*
X139677448Y-73055967D01*
X139683712Y-73046219D01*
X139686782Y-73041442D01*
X139745282Y-72907431D01*
X139763656Y-72762368D01*
X139740418Y-72618004D01*
X139677448Y-72486034D01*
X139677445Y-72486030D01*
X139677444Y-72486027D01*
X139177446Y-71736031D01*
X139177447Y-71736032D01*
X139138248Y-71684577D01*
X139138244Y-71684572D01*
X139027747Y-71588827D01*
X139027743Y-71588824D01*
X138894734Y-71528081D01*
X138894727Y-71528079D01*
X138750006Y-71507271D01*
X138750000Y-71507271D01*
X137750000Y-71507271D01*
X137724173Y-71509118D01*
X137676892Y-71512499D01*
X137676884Y-71512501D01*
X137536589Y-71553696D01*
X137536587Y-71553697D01*
X137413579Y-71632749D01*
X137317824Y-71743256D01*
X137257081Y-71876265D01*
X137257079Y-71876272D01*
X137236271Y-72020993D01*
X137236271Y-72923607D01*
X137216269Y-72991728D01*
X137199366Y-73012703D01*
X136462757Y-73749311D01*
X136456556Y-73754749D01*
X136429836Y-73775253D01*
X136406813Y-73805256D01*
X136390339Y-73826727D01*
X136361720Y-73864024D01*
X136343618Y-73887614D01*
X136338151Y-73894739D01*
X136338148Y-73894743D01*
X136280512Y-74033889D01*
X136276812Y-74061997D01*
X136265790Y-74145718D01*
X136265790Y-74145723D01*
X136265790Y-74145724D01*
X136260855Y-74183209D01*
X136260855Y-74183210D01*
X136265250Y-74216596D01*
X136265790Y-74224828D01*
X136265790Y-79652670D01*
X136245788Y-79720791D01*
X136228885Y-79741765D01*
X133013555Y-82957095D01*
X132951243Y-82991121D01*
X132924460Y-82994000D01*
X131470130Y-82994000D01*
X131402009Y-82973998D01*
X131355516Y-82920342D01*
X131345412Y-82850068D01*
X131374906Y-82785488D01*
X131411769Y-82759898D01*
X131410299Y-82757205D01*
X131418201Y-82752889D01*
X131418204Y-82752889D01*
X131429208Y-82744652D01*
X131535261Y-82665261D01*
X131622887Y-82548207D01*
X131622888Y-82548205D01*
X131622889Y-82548204D01*
X131667976Y-82427323D01*
X131673988Y-82411204D01*
X131673990Y-82411196D01*
X131680499Y-82350649D01*
X131680500Y-82350632D01*
X131680500Y-80553367D01*
X131680499Y-80553350D01*
X131673990Y-80492803D01*
X131673988Y-80492795D01*
X131629449Y-80373384D01*
X131622889Y-80355796D01*
X131622888Y-80355794D01*
X131622887Y-80355792D01*
X131535261Y-80238738D01*
X131418207Y-80151112D01*
X131418202Y-80151110D01*
X131281204Y-80100011D01*
X131281196Y-80100009D01*
X131220649Y-80093500D01*
X131220638Y-80093500D01*
X129605238Y-80093500D01*
X129537117Y-80073498D01*
X129490624Y-80019842D01*
X129480520Y-79949568D01*
X129510014Y-79884988D01*
X129516143Y-79878405D01*
X131273106Y-78121442D01*
X136670160Y-72724387D01*
X136676341Y-72718966D01*
X136704987Y-72696987D01*
X136723163Y-72673298D01*
X136723170Y-72673291D01*
X136787447Y-72589525D01*
X136794985Y-72579699D01*
X136802524Y-72569875D01*
X136863838Y-72421850D01*
X136879500Y-72302885D01*
X136879500Y-72302877D01*
X136884750Y-72263000D01*
X136884750Y-72262998D01*
X136880040Y-72227219D01*
X136879500Y-72218988D01*
X136879500Y-66512000D01*
X139145835Y-66512000D01*
X139164465Y-66748710D01*
X139219894Y-66979592D01*
X139226913Y-66996536D01*
X139310760Y-67198963D01*
X139429276Y-67392363D01*
X139434825Y-67401417D01*
X139434826Y-67401419D01*
X139589030Y-67581969D01*
X139769580Y-67736173D01*
X139769584Y-67736176D01*
X139972037Y-67860240D01*
X140191406Y-67951105D01*
X140422289Y-68006535D01*
X140659000Y-68025165D01*
X140895711Y-68006535D01*
X141126594Y-67951105D01*
X141345963Y-67860240D01*
X141548416Y-67736176D01*
X141728969Y-67581969D01*
X141883176Y-67401416D01*
X142007240Y-67198963D01*
X142098105Y-66979594D01*
X142153535Y-66748711D01*
X142172165Y-66512000D01*
X142153535Y-66275289D01*
X142098105Y-66044406D01*
X142007240Y-65825037D01*
X141883176Y-65622584D01*
X141881818Y-65620994D01*
X141728969Y-65442030D01*
X141548419Y-65287826D01*
X141548417Y-65287825D01*
X141548416Y-65287824D01*
X141345963Y-65163760D01*
X141197228Y-65102152D01*
X141126592Y-65072894D01*
X140968651Y-65034976D01*
X140895711Y-65017465D01*
X140659000Y-64998835D01*
X140422289Y-65017465D01*
X140191407Y-65072894D01*
X139972038Y-65163759D01*
X139769582Y-65287825D01*
X139769580Y-65287826D01*
X139589030Y-65442030D01*
X139434826Y-65622580D01*
X139434825Y-65622582D01*
X139310759Y-65825038D01*
X139219894Y-66044407D01*
X139164465Y-66275289D01*
X139145835Y-66512000D01*
X136879500Y-66512000D01*
X136879500Y-62012000D01*
X139145835Y-62012000D01*
X139164465Y-62248710D01*
X139219894Y-62479592D01*
X139249422Y-62550878D01*
X139310760Y-62698963D01*
X139429276Y-62892363D01*
X139434825Y-62901417D01*
X139434826Y-62901419D01*
X139589030Y-63081969D01*
X139683339Y-63162516D01*
X139769584Y-63236176D01*
X139972037Y-63360240D01*
X140191406Y-63451105D01*
X140422289Y-63506535D01*
X140659000Y-63525165D01*
X140895711Y-63506535D01*
X141126594Y-63451105D01*
X141345963Y-63360240D01*
X141548416Y-63236176D01*
X141728969Y-63081969D01*
X141883176Y-62901416D01*
X142007240Y-62698963D01*
X142098105Y-62479594D01*
X142153535Y-62248711D01*
X142172165Y-62012000D01*
X142153535Y-61775289D01*
X142098105Y-61544406D01*
X142007240Y-61325037D01*
X141883176Y-61122584D01*
X141881818Y-61120994D01*
X141728969Y-60942030D01*
X141548419Y-60787826D01*
X141548417Y-60787825D01*
X141548416Y-60787824D01*
X141345963Y-60663760D01*
X141126597Y-60572896D01*
X141126592Y-60572894D01*
X140968651Y-60534976D01*
X140895711Y-60517465D01*
X140659000Y-60498835D01*
X140422289Y-60517465D01*
X140191407Y-60572894D01*
X139972038Y-60663759D01*
X139769582Y-60787825D01*
X139769580Y-60787826D01*
X139589030Y-60942030D01*
X139434826Y-61122580D01*
X139434825Y-61122582D01*
X139310759Y-61325038D01*
X139219894Y-61544407D01*
X139164465Y-61775289D01*
X139145835Y-62012000D01*
X136879500Y-62012000D01*
X136879500Y-55807011D01*
X136880040Y-55798779D01*
X136884750Y-55763000D01*
X136884750Y-55762999D01*
X136879500Y-55723121D01*
X136879500Y-55723120D01*
X136879500Y-55723115D01*
X136863838Y-55604150D01*
X136858612Y-55591532D01*
X136802524Y-55456124D01*
X136802519Y-55456117D01*
X136727901Y-55358873D01*
X136727871Y-55358836D01*
X136717516Y-55345341D01*
X136704987Y-55329013D01*
X136704986Y-55329012D01*
X136676346Y-55307035D01*
X136670153Y-55301604D01*
X135947722Y-54579173D01*
X135913696Y-54516861D01*
X135914673Y-54459146D01*
X135915719Y-54455018D01*
X135949564Y-54321368D01*
X135968156Y-54097000D01*
X135949564Y-53872632D01*
X135894338Y-53654550D01*
X135894297Y-53654387D01*
X135894296Y-53654386D01*
X135894296Y-53654384D01*
X135803860Y-53448209D01*
X135761913Y-53384004D01*
X135748796Y-53363926D01*
X135728283Y-53295957D01*
X135747772Y-53227688D01*
X135801077Y-53180794D01*
X135854279Y-53169011D01*
X141207891Y-53169011D01*
X141276012Y-53189013D01*
X141296986Y-53205916D01*
X142156612Y-54065542D01*
X142190638Y-54127854D01*
X142192725Y-54140529D01*
X142208783Y-54283047D01*
X142222195Y-54321377D01*
X142268957Y-54455015D01*
X142268958Y-54455018D01*
X142365887Y-54609279D01*
X142365888Y-54609281D01*
X142494718Y-54738111D01*
X142494720Y-54738112D01*
X142648981Y-54835041D01*
X142648982Y-54835041D01*
X142648985Y-54835043D01*
X142820953Y-54895217D01*
X143002000Y-54915616D01*
X143183047Y-54895217D01*
X143355015Y-54835043D01*
X143509281Y-54738111D01*
X143638111Y-54609281D01*
X143735043Y-54455015D01*
X143795217Y-54283047D01*
X143815616Y-54102000D01*
X143795217Y-53920953D01*
X143735043Y-53748985D01*
X143735041Y-53748982D01*
X143735041Y-53748981D01*
X143638112Y-53594720D01*
X143638111Y-53594718D01*
X143509281Y-53465888D01*
X143509279Y-53465887D01*
X143355018Y-53368958D01*
X143355015Y-53368957D01*
X143287801Y-53345438D01*
X143183047Y-53308783D01*
X143064278Y-53295401D01*
X143040529Y-53292725D01*
X142975076Y-53265221D01*
X142965542Y-53256612D01*
X142475412Y-52766482D01*
X141930905Y-52221975D01*
X141925474Y-52215782D01*
X141904964Y-52189054D01*
X141799222Y-52107916D01*
X141799221Y-52107915D01*
X141785479Y-52097370D01*
X141646333Y-52039734D01*
X141646331Y-52039733D01*
X141583736Y-52031492D01*
X141534503Y-52025011D01*
X141534499Y-52025011D01*
X141530822Y-52024527D01*
X141530815Y-52024526D01*
X141497013Y-52020076D01*
X141497010Y-52020076D01*
X141463623Y-52024471D01*
X141455392Y-52025011D01*
X138032134Y-52025011D01*
X137964013Y-52005009D01*
X137917520Y-51951353D01*
X137907416Y-51881079D01*
X137913205Y-51857396D01*
X137939805Y-51781375D01*
X137953217Y-51743047D01*
X137973616Y-51562000D01*
X137953217Y-51380953D01*
X137893043Y-51208985D01*
X137893041Y-51208982D01*
X137893041Y-51208981D01*
X137796112Y-51054720D01*
X137796111Y-51054718D01*
X137667281Y-50925888D01*
X137667279Y-50925887D01*
X137513018Y-50828958D01*
X137513015Y-50828957D01*
X137341050Y-50768784D01*
X137341049Y-50768783D01*
X137341047Y-50768783D01*
X137160000Y-50748384D01*
X136978953Y-50768783D01*
X136978950Y-50768783D01*
X136978949Y-50768784D01*
X136806984Y-50828957D01*
X136806982Y-50828958D01*
X136806618Y-50829187D01*
X136806341Y-50829266D01*
X136800605Y-50832029D01*
X136800135Y-50831054D01*
X136739582Y-50848500D01*
X136089500Y-50848500D01*
X136021379Y-50828498D01*
X135974886Y-50774842D01*
X135963500Y-50722500D01*
X135963500Y-50658367D01*
X135963499Y-50658350D01*
X135956990Y-50597803D01*
X135956989Y-50597802D01*
X135956989Y-50597799D01*
X135930220Y-50526031D01*
X135925156Y-50455217D01*
X135959181Y-50392905D01*
X136021493Y-50358880D01*
X136048277Y-50356000D01*
X142957137Y-50356000D01*
X143025258Y-50376002D01*
X143070545Y-50428267D01*
X143070659Y-50428206D01*
X143070935Y-50428716D01*
X143071751Y-50429658D01*
X143072483Y-50431293D01*
X143073140Y-50432791D01*
X143087792Y-50455217D01*
X143196275Y-50621265D01*
X143196279Y-50621270D01*
X143348762Y-50786908D01*
X143355947Y-50792500D01*
X143526424Y-50925189D01*
X143724426Y-51032342D01*
X143724427Y-51032342D01*
X143724428Y-51032343D01*
X143789605Y-51054718D01*
X143937365Y-51105444D01*
X144159431Y-51142500D01*
X144159435Y-51142500D01*
X144384565Y-51142500D01*
X144384569Y-51142500D01*
X144606635Y-51105444D01*
X144819574Y-51032342D01*
X145017576Y-50925189D01*
X145195240Y-50786906D01*
X145347722Y-50621268D01*
X145470860Y-50432791D01*
X145490613Y-50387757D01*
X145536293Y-50333411D01*
X145604105Y-50312386D01*
X145672519Y-50331362D01*
X145719813Y-50384312D01*
X145732000Y-50438372D01*
X145732000Y-53277317D01*
X145711998Y-53345438D01*
X145673036Y-53384004D01*
X145542720Y-53465887D01*
X145542718Y-53465888D01*
X145413888Y-53594718D01*
X145413887Y-53594720D01*
X145316958Y-53748981D01*
X145316957Y-53748984D01*
X145258286Y-53916658D01*
X145256783Y-53920953D01*
X145236384Y-54102000D01*
X145256783Y-54283047D01*
X145256783Y-54283049D01*
X145256784Y-54283050D01*
X145316957Y-54455015D01*
X145316958Y-54455018D01*
X145413887Y-54609279D01*
X145413888Y-54609281D01*
X145542718Y-54738111D01*
X145542720Y-54738112D01*
X145696981Y-54835041D01*
X145696982Y-54835041D01*
X145696985Y-54835043D01*
X145868953Y-54895217D01*
X146050000Y-54915616D01*
X146231047Y-54895217D01*
X146403015Y-54835043D01*
X146557281Y-54738111D01*
X146686111Y-54609281D01*
X146783043Y-54455015D01*
X146843217Y-54283047D01*
X146863616Y-54102000D01*
X146857289Y-54045852D01*
X146860313Y-54005526D01*
X146860199Y-54005511D01*
X146860468Y-54003464D01*
X146860794Y-53999124D01*
X146861277Y-53997321D01*
X146864617Y-53971955D01*
X146871897Y-53916658D01*
X146876000Y-53885492D01*
X146876000Y-53885486D01*
X146880935Y-53848000D01*
X146876540Y-53814612D01*
X146876000Y-53806381D01*
X146876000Y-49317625D01*
X146876540Y-49309393D01*
X146880936Y-49276000D01*
X146880936Y-49275999D01*
X146861277Y-49126679D01*
X146861004Y-49126018D01*
X146803641Y-48987532D01*
X146734976Y-48898046D01*
X146734974Y-48898044D01*
X146732465Y-48894774D01*
X146732465Y-48894773D01*
X146711956Y-48868046D01*
X146711955Y-48868045D01*
X146685227Y-48847536D01*
X146679037Y-48842107D01*
X145604292Y-47767362D01*
X145570266Y-47705050D01*
X145571243Y-47647335D01*
X145576148Y-47627965D01*
X145616564Y-47468368D01*
X145635156Y-47244000D01*
X145616564Y-47019632D01*
X145561296Y-46801384D01*
X145470860Y-46595209D01*
X145426931Y-46527970D01*
X145347724Y-46406734D01*
X145347720Y-46406729D01*
X145195237Y-46241091D01*
X145049938Y-46128000D01*
X145017576Y-46102811D01*
X144984319Y-46084813D01*
X144933929Y-46034802D01*
X144918576Y-45965485D01*
X144943136Y-45898872D01*
X144984320Y-45863186D01*
X145017576Y-45845189D01*
X145195240Y-45706906D01*
X145347722Y-45541268D01*
X145470860Y-45352791D01*
X145561296Y-45146616D01*
X145616564Y-44928368D01*
X145635156Y-44704000D01*
X145616564Y-44479632D01*
X145561296Y-44261384D01*
X145470860Y-44055209D01*
X145463537Y-44044000D01*
X145347724Y-43866734D01*
X145347714Y-43866722D01*
X145204159Y-43710782D01*
X145172737Y-43647117D01*
X145180723Y-43576571D01*
X145225582Y-43521542D01*
X145252827Y-43507388D01*
X145367965Y-43464444D01*
X145484904Y-43376904D01*
X145572444Y-43259965D01*
X145572444Y-43259964D01*
X145623494Y-43123093D01*
X145629999Y-43062597D01*
X145630000Y-43062585D01*
X145630000Y-42418000D01*
X144703116Y-42418000D01*
X144731493Y-42373844D01*
X144772000Y-42235889D01*
X144772000Y-42092111D01*
X144731493Y-41954156D01*
X144703116Y-41910000D01*
X145630000Y-41910000D01*
X145630000Y-41265414D01*
X145629999Y-41265402D01*
X145623494Y-41204906D01*
X145572444Y-41068035D01*
X145572444Y-41068034D01*
X145484904Y-40951095D01*
X145367965Y-40863555D01*
X145231093Y-40812505D01*
X145170597Y-40806000D01*
X144526000Y-40806000D01*
X144526000Y-41730325D01*
X144414315Y-41679320D01*
X144307763Y-41664000D01*
X144236237Y-41664000D01*
X144129685Y-41679320D01*
X144018000Y-41730325D01*
X144018000Y-40806000D01*
X143373402Y-40806000D01*
X143312906Y-40812505D01*
X143176035Y-40863555D01*
X143176034Y-40863555D01*
X143059095Y-40951095D01*
X142971555Y-41068034D01*
X142971555Y-41068035D01*
X142920505Y-41204906D01*
X142914000Y-41265402D01*
X142914000Y-41910000D01*
X143840884Y-41910000D01*
X143812507Y-41954156D01*
X143772000Y-42092111D01*
X143772000Y-42235889D01*
X143812507Y-42373844D01*
X143840884Y-42418000D01*
X142914000Y-42418000D01*
X142914000Y-43062597D01*
X142920505Y-43123093D01*
X142971555Y-43259964D01*
X142971555Y-43259965D01*
X143059095Y-43376904D01*
X143176034Y-43464444D01*
X143291172Y-43507388D01*
X143348008Y-43549935D01*
X143372819Y-43616455D01*
X143357728Y-43685829D01*
X143339841Y-43710782D01*
X143196280Y-43866729D01*
X143196275Y-43866734D01*
X143073141Y-44055206D01*
X142982703Y-44261386D01*
X142982702Y-44261387D01*
X142927437Y-44479624D01*
X142927436Y-44479630D01*
X142927436Y-44479632D01*
X142908844Y-44704000D01*
X142925236Y-44901822D01*
X142927437Y-44928375D01*
X142982702Y-45146612D01*
X142982703Y-45146613D01*
X143073141Y-45352793D01*
X143196275Y-45541265D01*
X143196279Y-45541270D01*
X143348762Y-45706908D01*
X143366287Y-45720548D01*
X143526424Y-45845189D01*
X143559680Y-45863186D01*
X143610071Y-45913200D01*
X143625423Y-45982516D01*
X143600862Y-46049129D01*
X143559680Y-46084813D01*
X143526426Y-46102810D01*
X143526424Y-46102811D01*
X143348762Y-46241091D01*
X143196279Y-46406729D01*
X143196275Y-46406734D01*
X143073141Y-46595206D01*
X142982703Y-46801386D01*
X142982702Y-46801387D01*
X142927437Y-47019624D01*
X142927436Y-47019630D01*
X142927436Y-47019632D01*
X142908844Y-47244000D01*
X142924305Y-47430585D01*
X142927437Y-47468375D01*
X142982702Y-47686612D01*
X142982703Y-47686613D01*
X142982704Y-47686616D01*
X143071915Y-47889998D01*
X143073141Y-47892793D01*
X143196275Y-48081265D01*
X143196279Y-48081270D01*
X143324486Y-48220538D01*
X143343794Y-48241512D01*
X143348762Y-48246908D01*
X143372932Y-48265720D01*
X143526424Y-48385189D01*
X143559680Y-48403186D01*
X143610071Y-48453200D01*
X143625423Y-48522516D01*
X143600862Y-48589129D01*
X143559680Y-48624813D01*
X143527716Y-48642112D01*
X143526426Y-48642810D01*
X143526424Y-48642811D01*
X143348762Y-48781091D01*
X143196279Y-48946729D01*
X143196275Y-48946734D01*
X143078713Y-49126679D01*
X143073140Y-49135209D01*
X143072523Y-49136615D01*
X143072119Y-49137095D01*
X143070659Y-49139794D01*
X143070103Y-49139493D01*
X143026844Y-49190962D01*
X142959032Y-49211986D01*
X142957137Y-49212000D01*
X133879626Y-49212000D01*
X133871394Y-49211460D01*
X133838001Y-49207064D01*
X133838000Y-49207064D01*
X133800508Y-49212000D01*
X133688679Y-49226722D01*
X133549533Y-49284358D01*
X133549529Y-49284361D01*
X133532629Y-49297328D01*
X133489691Y-49330277D01*
X133462033Y-49351500D01*
X133458281Y-49354379D01*
X133430043Y-49376045D01*
X133409536Y-49402770D01*
X133404098Y-49408971D01*
X132587670Y-50225398D01*
X132525358Y-50259424D01*
X132457665Y-50255477D01*
X132399636Y-50235556D01*
X132399630Y-50235555D01*
X132338761Y-50225398D01*
X132177569Y-50198500D01*
X131952431Y-50198500D01*
X131804211Y-50223233D01*
X131730369Y-50235555D01*
X131730356Y-50235558D01*
X131672335Y-50255477D01*
X131601411Y-50258677D01*
X131542329Y-50225399D01*
X131229041Y-49912111D01*
X130725894Y-49408964D01*
X130720463Y-49402771D01*
X130699953Y-49376043D01*
X130667967Y-49351499D01*
X130580474Y-49284363D01*
X130580466Y-49284358D01*
X130441320Y-49226722D01*
X130378725Y-49218481D01*
X130329492Y-49212000D01*
X130329488Y-49212000D01*
X130325811Y-49211516D01*
X130325804Y-49211515D01*
X130292002Y-49207065D01*
X130291999Y-49207065D01*
X130258612Y-49211460D01*
X130250381Y-49212000D01*
X129067120Y-49212000D01*
X128998999Y-49191998D01*
X128978025Y-49175095D01*
X128861386Y-49058456D01*
X128827360Y-48996144D01*
X128825277Y-48983496D01*
X128809217Y-48840953D01*
X128749043Y-48668985D01*
X128749041Y-48668982D01*
X128749041Y-48668981D01*
X128652112Y-48514720D01*
X128652111Y-48514718D01*
X128616905Y-48479512D01*
X128582879Y-48417200D01*
X128580000Y-48390417D01*
X128580000Y-48008833D01*
X128600002Y-47940712D01*
X128653658Y-47894219D01*
X128719471Y-47883555D01*
X128779404Y-47889999D01*
X128779415Y-47890000D01*
X129024000Y-47890000D01*
X129024000Y-46636000D01*
X129532000Y-46636000D01*
X129532000Y-47890000D01*
X129776585Y-47890000D01*
X129776597Y-47889999D01*
X129837093Y-47883494D01*
X129973964Y-47832444D01*
X129973965Y-47832444D01*
X130090904Y-47744904D01*
X130178444Y-47627965D01*
X130178444Y-47627964D01*
X130229494Y-47491093D01*
X130235999Y-47430597D01*
X130236000Y-47430585D01*
X130236000Y-46636000D01*
X129532000Y-46636000D01*
X129024000Y-46636000D01*
X129024000Y-46128000D01*
X129532000Y-46128000D01*
X130236000Y-46128000D01*
X130236000Y-45720548D01*
X130256002Y-45652427D01*
X130309658Y-45605934D01*
X130379932Y-45595830D01*
X130437511Y-45619681D01*
X130441796Y-45622889D01*
X130500875Y-45644924D01*
X130578795Y-45673988D01*
X130578803Y-45673990D01*
X130639350Y-45680499D01*
X130639355Y-45680499D01*
X130639362Y-45680500D01*
X130639368Y-45680500D01*
X133036632Y-45680500D01*
X133036638Y-45680500D01*
X133036645Y-45680499D01*
X133036649Y-45680499D01*
X133097196Y-45673990D01*
X133097199Y-45673989D01*
X133097201Y-45673989D01*
X133234204Y-45622889D01*
X133251477Y-45609959D01*
X133351261Y-45535261D01*
X133438887Y-45418207D01*
X133438887Y-45418206D01*
X133438889Y-45418204D01*
X133489989Y-45281201D01*
X133490893Y-45272799D01*
X133496499Y-45220649D01*
X133496500Y-45220632D01*
X133496500Y-42823367D01*
X133496499Y-42823350D01*
X133489990Y-42762803D01*
X133489988Y-42762795D01*
X133456121Y-42671997D01*
X133438889Y-42625796D01*
X133438888Y-42625794D01*
X133438887Y-42625792D01*
X133351261Y-42508738D01*
X133234207Y-42421112D01*
X133234202Y-42421110D01*
X133097204Y-42370011D01*
X133097196Y-42370009D01*
X133036649Y-42363500D01*
X133036638Y-42363500D01*
X130639362Y-42363500D01*
X130639350Y-42363500D01*
X130578803Y-42370009D01*
X130578795Y-42370011D01*
X130441797Y-42421110D01*
X130441792Y-42421112D01*
X130324738Y-42508738D01*
X130237112Y-42625792D01*
X130237110Y-42625797D01*
X130186011Y-42762795D01*
X130186009Y-42762803D01*
X130179500Y-42823350D01*
X130179500Y-44833701D01*
X130159498Y-44901822D01*
X130105842Y-44948315D01*
X130035568Y-44958419D01*
X129977993Y-44934571D01*
X129973964Y-44931555D01*
X129837093Y-44880505D01*
X129776597Y-44874000D01*
X129532000Y-44874000D01*
X129532000Y-46128000D01*
X129024000Y-46128000D01*
X129024000Y-44874000D01*
X128779402Y-44874000D01*
X128718904Y-44880505D01*
X128687744Y-44892127D01*
X128616928Y-44897190D01*
X128599684Y-44892126D01*
X128567202Y-44880011D01*
X128567195Y-44880009D01*
X128506649Y-44873500D01*
X128506638Y-44873500D01*
X127509362Y-44873500D01*
X127509350Y-44873500D01*
X127448804Y-44880009D01*
X127448801Y-44880010D01*
X127417030Y-44891860D01*
X127346214Y-44896923D01*
X127328970Y-44891860D01*
X127297198Y-44880010D01*
X127297195Y-44880009D01*
X127236649Y-44873500D01*
X127236638Y-44873500D01*
X126239362Y-44873500D01*
X126239350Y-44873500D01*
X126178804Y-44880009D01*
X126178801Y-44880010D01*
X126146314Y-44892127D01*
X126075498Y-44897190D01*
X126058254Y-44892126D01*
X126027098Y-44880506D01*
X126027096Y-44880505D01*
X125966597Y-44874000D01*
X125722000Y-44874000D01*
X125722000Y-47890000D01*
X125966585Y-47890000D01*
X125966595Y-47889999D01*
X126026529Y-47883555D01*
X126096398Y-47896160D01*
X126148361Y-47944537D01*
X126166000Y-48008833D01*
X126166000Y-48152417D01*
X126145998Y-48220538D01*
X126129095Y-48241512D01*
X126104888Y-48265718D01*
X126104887Y-48265720D01*
X126007958Y-48419981D01*
X126007957Y-48419984D01*
X125968963Y-48531425D01*
X125947783Y-48591953D01*
X125927384Y-48773000D01*
X125947783Y-48954047D01*
X125947783Y-48954049D01*
X125947784Y-48954050D01*
X126007957Y-49126015D01*
X126007958Y-49126018D01*
X126104885Y-49280277D01*
X126104888Y-49280281D01*
X126233718Y-49409111D01*
X126233720Y-49409112D01*
X126387981Y-49506041D01*
X126387982Y-49506041D01*
X126387985Y-49506043D01*
X126559953Y-49566217D01*
X126702472Y-49582275D01*
X126767921Y-49609776D01*
X126777456Y-49618386D01*
X128192707Y-51033637D01*
X128226733Y-51095949D01*
X128225757Y-51153663D01*
X128180436Y-51332630D01*
X128171808Y-51436752D01*
X128161844Y-51557000D01*
X128173075Y-51692540D01*
X128180437Y-51781375D01*
X128235702Y-51999612D01*
X128235703Y-51999613D01*
X128235704Y-51999616D01*
X128322771Y-52198111D01*
X128326141Y-52205793D01*
X128449275Y-52394265D01*
X128449279Y-52394270D01*
X128601762Y-52559908D01*
X128656331Y-52602381D01*
X128779424Y-52698189D01*
X128813205Y-52716470D01*
X128863596Y-52766482D01*
X128878949Y-52835799D01*
X128854389Y-52902412D01*
X128813209Y-52938096D01*
X128779704Y-52956228D01*
X128779698Y-52956232D01*
X128602097Y-53094465D01*
X128449674Y-53260041D01*
X128326580Y-53448451D01*
X128236179Y-53654543D01*
X128236176Y-53654550D01*
X128188455Y-53842999D01*
X128188456Y-53843000D01*
X129093884Y-53843000D01*
X129065507Y-53887156D01*
X129025000Y-54025111D01*
X129025000Y-54168889D01*
X129065507Y-54306844D01*
X129093884Y-54351000D01*
X128188455Y-54351000D01*
X128236176Y-54539449D01*
X128236179Y-54539456D01*
X128326580Y-54745548D01*
X128449674Y-54933958D01*
X128602097Y-55099534D01*
X128779698Y-55237767D01*
X128779699Y-55237768D01*
X128977628Y-55344882D01*
X128977630Y-55344883D01*
X129190483Y-55417955D01*
X129190492Y-55417957D01*
X129271000Y-55431391D01*
X129271000Y-54530674D01*
X129382685Y-54581680D01*
X129489237Y-54597000D01*
X129560763Y-54597000D01*
X129667315Y-54581680D01*
X129779000Y-54530674D01*
X129779000Y-55431390D01*
X129859507Y-55417957D01*
X129859516Y-55417955D01*
X130072369Y-55344883D01*
X130072371Y-55344882D01*
X130270300Y-55237768D01*
X130270301Y-55237767D01*
X130447902Y-55099534D01*
X130600327Y-54933955D01*
X130689217Y-54797899D01*
X130743220Y-54751810D01*
X130813568Y-54742235D01*
X130877925Y-54772212D01*
X130900183Y-54797898D01*
X130989279Y-54934270D01*
X131141762Y-55099908D01*
X131165007Y-55118000D01*
X131319424Y-55238189D01*
X131517426Y-55345342D01*
X131517427Y-55345342D01*
X131517428Y-55345343D01*
X131562829Y-55360929D01*
X131730365Y-55418444D01*
X131952431Y-55455500D01*
X131952435Y-55455500D01*
X132177565Y-55455500D01*
X132177569Y-55455500D01*
X132399635Y-55418444D01*
X132612574Y-55345342D01*
X132810576Y-55238189D01*
X132988240Y-55099906D01*
X133140722Y-54934268D01*
X133140927Y-54933955D01*
X133166235Y-54895217D01*
X133229518Y-54798354D01*
X133283520Y-54752268D01*
X133353868Y-54742692D01*
X133418225Y-54772669D01*
X133440480Y-54798353D01*
X133464450Y-54835041D01*
X133529275Y-54934265D01*
X133529279Y-54934270D01*
X133681762Y-55099908D01*
X133705007Y-55118000D01*
X133859424Y-55238189D01*
X134057426Y-55345342D01*
X134057427Y-55345342D01*
X134057428Y-55345343D01*
X134102829Y-55360929D01*
X134270365Y-55418444D01*
X134492431Y-55455500D01*
X134492435Y-55455500D01*
X134717565Y-55455500D01*
X134717569Y-55455500D01*
X134939635Y-55418444D01*
X134959232Y-55411715D01*
X135030155Y-55408512D01*
X135089243Y-55441792D01*
X135625595Y-55978144D01*
X135659621Y-56040456D01*
X135662500Y-56067239D01*
X135662500Y-61131636D01*
X135642498Y-61199757D01*
X135588842Y-61246250D01*
X135518568Y-61256354D01*
X135453988Y-61226860D01*
X135429068Y-61197471D01*
X135383181Y-61122591D01*
X135383173Y-61122580D01*
X135228969Y-60942030D01*
X135048419Y-60787826D01*
X135048417Y-60787825D01*
X135048416Y-60787824D01*
X134845963Y-60663760D01*
X134626597Y-60572896D01*
X134626592Y-60572894D01*
X134468651Y-60534976D01*
X134395711Y-60517465D01*
X134159000Y-60498835D01*
X133922289Y-60517465D01*
X133691407Y-60572894D01*
X133472038Y-60663759D01*
X133269582Y-60787825D01*
X133269580Y-60787826D01*
X133089030Y-60942030D01*
X132934826Y-61122580D01*
X132934825Y-61122582D01*
X132810759Y-61325038D01*
X132719894Y-61544407D01*
X132679330Y-61713370D01*
X132664465Y-61775289D01*
X132645835Y-62012000D01*
X132664465Y-62248711D01*
X132667532Y-62261483D01*
X132719895Y-62479593D01*
X132719900Y-62479608D01*
X132720181Y-62480287D01*
X132720210Y-62480565D01*
X132721425Y-62484302D01*
X132720639Y-62484557D01*
X132727762Y-62550878D01*
X132695976Y-62614361D01*
X132692863Y-62617587D01*
X131693854Y-63616596D01*
X131631544Y-63650620D01*
X131604761Y-63653500D01*
X129079414Y-63653500D01*
X129011293Y-63633498D01*
X128964800Y-63579842D01*
X128954696Y-63509568D01*
X128984190Y-63444988D01*
X129031194Y-63411091D01*
X129153963Y-63360240D01*
X129356416Y-63236176D01*
X129536969Y-63081969D01*
X129691176Y-62901416D01*
X129815240Y-62698963D01*
X129906105Y-62479594D01*
X129961535Y-62248711D01*
X129980165Y-62012000D01*
X129961535Y-61775289D01*
X129906105Y-61544406D01*
X129815240Y-61325037D01*
X129691176Y-61122584D01*
X129689818Y-61120994D01*
X129536969Y-60942030D01*
X129356419Y-60787826D01*
X129356417Y-60787825D01*
X129356416Y-60787824D01*
X129153963Y-60663760D01*
X128934597Y-60572896D01*
X128934592Y-60572894D01*
X128776651Y-60534976D01*
X128703711Y-60517465D01*
X128467000Y-60498835D01*
X128230289Y-60517465D01*
X127999407Y-60572894D01*
X127780038Y-60663759D01*
X127577582Y-60787825D01*
X127577580Y-60787826D01*
X127397030Y-60942030D01*
X127242826Y-61122580D01*
X127242825Y-61122582D01*
X127118759Y-61325038D01*
X127027894Y-61544407D01*
X126972465Y-61775289D01*
X126953835Y-62012000D01*
X126972465Y-62248710D01*
X127027894Y-62479592D01*
X127057422Y-62550878D01*
X127118760Y-62698963D01*
X127237276Y-62892363D01*
X127242825Y-62901417D01*
X127242826Y-62901419D01*
X127397030Y-63081969D01*
X127491339Y-63162516D01*
X127577584Y-63236176D01*
X127686419Y-63302871D01*
X127734049Y-63355517D01*
X127745656Y-63425558D01*
X127717553Y-63490756D01*
X127668769Y-63524671D01*
X127669356Y-63525889D01*
X127662981Y-63528958D01*
X127508720Y-63625887D01*
X127508718Y-63625888D01*
X127379888Y-63754718D01*
X127379887Y-63754720D01*
X127282958Y-63908981D01*
X127282957Y-63908984D01*
X127282957Y-63908985D01*
X127222783Y-64080953D01*
X127202384Y-64262000D01*
X127222783Y-64443047D01*
X127222783Y-64443049D01*
X127222784Y-64443050D01*
X127282957Y-64615015D01*
X127282958Y-64615018D01*
X127379887Y-64769279D01*
X127379888Y-64769281D01*
X127508718Y-64898111D01*
X127508720Y-64898112D01*
X127662981Y-64995041D01*
X127669356Y-64998111D01*
X127668715Y-64999440D01*
X127719893Y-65036151D01*
X127746053Y-65102152D01*
X127732377Y-65171819D01*
X127686418Y-65221129D01*
X127577591Y-65287818D01*
X127577580Y-65287826D01*
X127397030Y-65442030D01*
X127242826Y-65622580D01*
X127242825Y-65622582D01*
X127118759Y-65825038D01*
X127027894Y-66044407D01*
X126972465Y-66275289D01*
X126953835Y-66512000D01*
X126972465Y-66748710D01*
X127027894Y-66979592D01*
X127034913Y-66996536D01*
X127118760Y-67198963D01*
X127237276Y-67392363D01*
X127242825Y-67401417D01*
X127242826Y-67401419D01*
X127397030Y-67581969D01*
X127577580Y-67736173D01*
X127577584Y-67736176D01*
X127780037Y-67860240D01*
X127999406Y-67951105D01*
X128230289Y-68006535D01*
X128467000Y-68025165D01*
X128703711Y-68006535D01*
X128934594Y-67951105D01*
X129153963Y-67860240D01*
X129356416Y-67736176D01*
X129536969Y-67581969D01*
X129691176Y-67401416D01*
X129815240Y-67198963D01*
X129815521Y-67198284D01*
X129815694Y-67198068D01*
X129817484Y-67194557D01*
X129818221Y-67194932D01*
X129860065Y-67143004D01*
X129927427Y-67120580D01*
X129931930Y-67120500D01*
X132167115Y-67120500D01*
X132694070Y-67120500D01*
X132762191Y-67140502D01*
X132808684Y-67194158D01*
X132810460Y-67198239D01*
X132810760Y-67198963D01*
X132929277Y-67392363D01*
X132934825Y-67401417D01*
X132934826Y-67401419D01*
X133089030Y-67581969D01*
X133269580Y-67736173D01*
X133269584Y-67736176D01*
X133472037Y-67860240D01*
X133472715Y-67860521D01*
X133472931Y-67860694D01*
X133476443Y-67862484D01*
X133476067Y-67863221D01*
X133527996Y-67905065D01*
X133550420Y-67972427D01*
X133550500Y-67976930D01*
X133550500Y-72199760D01*
X133530498Y-72267881D01*
X133513595Y-72288855D01*
X129072587Y-76729862D01*
X129010275Y-76763888D01*
X128939460Y-76758823D01*
X128935287Y-76757181D01*
X128934608Y-76756900D01*
X128934598Y-76756896D01*
X128934594Y-76756895D01*
X128703711Y-76701465D01*
X128467000Y-76682835D01*
X128230289Y-76701465D01*
X127999407Y-76756894D01*
X127780038Y-76847759D01*
X127577582Y-76971825D01*
X127577580Y-76971826D01*
X127397030Y-77126030D01*
X127242826Y-77306580D01*
X127242825Y-77306582D01*
X127118759Y-77509038D01*
X127027894Y-77728407D01*
X126972465Y-77959289D01*
X126953835Y-78196000D01*
X126972465Y-78432710D01*
X127027894Y-78663592D01*
X127118761Y-78882966D01*
X127241138Y-79082665D01*
X127259677Y-79151198D01*
X127238221Y-79218875D01*
X127183582Y-79264208D01*
X127133706Y-79274500D01*
X126855012Y-79274500D01*
X126846781Y-79273960D01*
X126811001Y-79269250D01*
X126810997Y-79269250D01*
X126773273Y-79274216D01*
X126773254Y-79274218D01*
X126696051Y-79284381D01*
X126671543Y-79287608D01*
X126668990Y-79287944D01*
X126652150Y-79290161D01*
X126652147Y-79290162D01*
X126504125Y-79351475D01*
X126504122Y-79351477D01*
X126410339Y-79423440D01*
X126410311Y-79423460D01*
X126377012Y-79449012D01*
X126355035Y-79477653D01*
X126349597Y-79483853D01*
X125726242Y-80107207D01*
X125663930Y-80141233D01*
X125596236Y-80137285D01*
X125576635Y-80130556D01*
X125576630Y-80130555D01*
X125499029Y-80117606D01*
X125354569Y-80093500D01*
X125129431Y-80093500D01*
X124984971Y-80117606D01*
X124907369Y-80130555D01*
X124907360Y-80130557D01*
X124694428Y-80203656D01*
X124694426Y-80203658D01*
X124496426Y-80310810D01*
X124496424Y-80310811D01*
X124318762Y-80449091D01*
X124166279Y-80614729D01*
X124077483Y-80750643D01*
X124023479Y-80796731D01*
X123953131Y-80806306D01*
X123888774Y-80776329D01*
X123866517Y-80750643D01*
X123777720Y-80614729D01*
X123625584Y-80449468D01*
X123625240Y-80449094D01*
X123625239Y-80449093D01*
X123625237Y-80449091D01*
X123527969Y-80373384D01*
X123447576Y-80310811D01*
X123249574Y-80203658D01*
X123249572Y-80203657D01*
X123249571Y-80203656D01*
X123036639Y-80130557D01*
X123036630Y-80130555D01*
X122959029Y-80117606D01*
X122814569Y-80093500D01*
X122589431Y-80093500D01*
X122444971Y-80117606D01*
X122367369Y-80130555D01*
X122367360Y-80130557D01*
X122154428Y-80203656D01*
X122154426Y-80203658D01*
X121956426Y-80310810D01*
X121956424Y-80310811D01*
X121778762Y-80449091D01*
X121626279Y-80614729D01*
X121537183Y-80751101D01*
X121483179Y-80797189D01*
X121412831Y-80806764D01*
X121348474Y-80776786D01*
X121326217Y-80751100D01*
X121237327Y-80615044D01*
X121084902Y-80449465D01*
X120907301Y-80311232D01*
X120907300Y-80311231D01*
X120709371Y-80204117D01*
X120709369Y-80204116D01*
X120496512Y-80131043D01*
X120496501Y-80131040D01*
X120416000Y-80117606D01*
X120416000Y-81018325D01*
X120304315Y-80967320D01*
X120197763Y-80952000D01*
X120126237Y-80952000D01*
X120019685Y-80967320D01*
X119908000Y-81018325D01*
X119908000Y-80117607D01*
X119907999Y-80117606D01*
X119827498Y-80131040D01*
X119827487Y-80131043D01*
X119614630Y-80204116D01*
X119614628Y-80204117D01*
X119416699Y-80311231D01*
X119416698Y-80311232D01*
X119239093Y-80449468D01*
X119166201Y-80528651D01*
X119105348Y-80565223D01*
X119034384Y-80563088D01*
X118975838Y-80522927D01*
X118948300Y-80457489D01*
X118947500Y-80443314D01*
X118947500Y-79747540D01*
X118967502Y-79679419D01*
X118984397Y-79658452D01*
X118986896Y-79655953D01*
X118993035Y-79649813D01*
X118999224Y-79644385D01*
X119025955Y-79623875D01*
X119095046Y-79533835D01*
X119117641Y-79504388D01*
X119175277Y-79365242D01*
X119185162Y-79290162D01*
X119190000Y-79253412D01*
X119190000Y-79253411D01*
X119190713Y-79248000D01*
X119194936Y-79215920D01*
X119194936Y-79215919D01*
X119190540Y-79182526D01*
X119190000Y-79174294D01*
X119190000Y-78196000D01*
X120453835Y-78196000D01*
X120472465Y-78432710D01*
X120527894Y-78663592D01*
X120543712Y-78701779D01*
X120618760Y-78882963D01*
X120741138Y-79082665D01*
X120742825Y-79085417D01*
X120742826Y-79085419D01*
X120897030Y-79265969D01*
X121050825Y-79397322D01*
X121077584Y-79420176D01*
X121280037Y-79544240D01*
X121499406Y-79635105D01*
X121730289Y-79690535D01*
X121967000Y-79709165D01*
X122203711Y-79690535D01*
X122434594Y-79635105D01*
X122653963Y-79544240D01*
X122856416Y-79420176D01*
X123036969Y-79265969D01*
X123191176Y-79085416D01*
X123315240Y-78882963D01*
X123406105Y-78663594D01*
X123461535Y-78432711D01*
X123480165Y-78196000D01*
X123461535Y-77959289D01*
X123406105Y-77728406D01*
X123315240Y-77509037D01*
X123191176Y-77306584D01*
X123169730Y-77281474D01*
X123036969Y-77126030D01*
X122856419Y-76971826D01*
X122856417Y-76971825D01*
X122856416Y-76971824D01*
X122653963Y-76847760D01*
X122577370Y-76816034D01*
X122434592Y-76756894D01*
X122276651Y-76718976D01*
X122203711Y-76701465D01*
X121967000Y-76682835D01*
X121730289Y-76701465D01*
X121499407Y-76756894D01*
X121280038Y-76847759D01*
X121077582Y-76971825D01*
X121077580Y-76971826D01*
X120897030Y-77126030D01*
X120742826Y-77306580D01*
X120742825Y-77306582D01*
X120618759Y-77509038D01*
X120527894Y-77728407D01*
X120472465Y-77959289D01*
X120453835Y-78196000D01*
X119190000Y-78196000D01*
X119190000Y-77623526D01*
X119190540Y-77615294D01*
X119194935Y-77581908D01*
X119194935Y-77581907D01*
X119190000Y-77544422D01*
X119190000Y-77544421D01*
X119190000Y-77544416D01*
X119175277Y-77432586D01*
X119137709Y-77341888D01*
X119117643Y-77293443D01*
X119080439Y-77244957D01*
X119072424Y-77234512D01*
X119048976Y-77203953D01*
X119048973Y-77203950D01*
X119047786Y-77202403D01*
X119047778Y-77202393D01*
X119025955Y-77173953D01*
X118999231Y-77153447D01*
X118993041Y-77148018D01*
X117028261Y-75183239D01*
X116994237Y-75120928D01*
X116999301Y-75050113D01*
X117041848Y-74993277D01*
X117108368Y-74968466D01*
X117177742Y-74983557D01*
X117184393Y-74987458D01*
X117248981Y-75028041D01*
X117248982Y-75028041D01*
X117248985Y-75028043D01*
X117420953Y-75088217D01*
X117602000Y-75108616D01*
X117783047Y-75088217D01*
X117955015Y-75028043D01*
X118109281Y-74931111D01*
X118238111Y-74802281D01*
X118335043Y-74648015D01*
X118395217Y-74476047D01*
X118406051Y-74379890D01*
X118433553Y-74314440D01*
X118492077Y-74274247D01*
X118531258Y-74268000D01*
X120486950Y-74268000D01*
X120555071Y-74288002D01*
X120601564Y-74341658D01*
X120603358Y-74345781D01*
X120618757Y-74382958D01*
X120618759Y-74382961D01*
X120618760Y-74382963D01*
X120737657Y-74576985D01*
X120742825Y-74585417D01*
X120742826Y-74585419D01*
X120897030Y-74765969D01*
X121077580Y-74920173D01*
X121077584Y-74920176D01*
X121280037Y-75044240D01*
X121499406Y-75135105D01*
X121730289Y-75190535D01*
X121967000Y-75209165D01*
X122203711Y-75190535D01*
X122434594Y-75135105D01*
X122653963Y-75044240D01*
X122856416Y-74920176D01*
X123036969Y-74765969D01*
X123191176Y-74585416D01*
X123315240Y-74382963D01*
X123406105Y-74163594D01*
X123461535Y-73932711D01*
X123480165Y-73696000D01*
X126953835Y-73696000D01*
X126972465Y-73932711D01*
X126975312Y-73944568D01*
X127027894Y-74163592D01*
X127081865Y-74293889D01*
X127118760Y-74382963D01*
X127237657Y-74576985D01*
X127242825Y-74585417D01*
X127242826Y-74585419D01*
X127397030Y-74765969D01*
X127577580Y-74920173D01*
X127577584Y-74920176D01*
X127780037Y-75044240D01*
X127999406Y-75135105D01*
X128230289Y-75190535D01*
X128467000Y-75209165D01*
X128703711Y-75190535D01*
X128934594Y-75135105D01*
X129153963Y-75044240D01*
X129356416Y-74920176D01*
X129536969Y-74765969D01*
X129691176Y-74585416D01*
X129815240Y-74382963D01*
X129906105Y-74163594D01*
X129961535Y-73932711D01*
X129980165Y-73696000D01*
X129961535Y-73459289D01*
X129906105Y-73228406D01*
X129815240Y-73009037D01*
X129691176Y-72806584D01*
X129691173Y-72806580D01*
X129536969Y-72626030D01*
X129356419Y-72471826D01*
X129356417Y-72471825D01*
X129356416Y-72471824D01*
X129153963Y-72347760D01*
X129045625Y-72302885D01*
X128934592Y-72256894D01*
X128776651Y-72218976D01*
X128703711Y-72201465D01*
X128467000Y-72182835D01*
X128230289Y-72201465D01*
X127999407Y-72256894D01*
X127780038Y-72347759D01*
X127577582Y-72471825D01*
X127577580Y-72471826D01*
X127397030Y-72626030D01*
X127242826Y-72806580D01*
X127242825Y-72806582D01*
X127118759Y-73009038D01*
X127027894Y-73228407D01*
X126979392Y-73430437D01*
X126972465Y-73459289D01*
X126953835Y-73696000D01*
X123480165Y-73696000D01*
X123461535Y-73459289D01*
X123406105Y-73228406D01*
X123315240Y-73009037D01*
X123191176Y-72806584D01*
X123191173Y-72806580D01*
X123036969Y-72626030D01*
X122856419Y-72471826D01*
X122856417Y-72471825D01*
X122856416Y-72471824D01*
X122653963Y-72347760D01*
X122545625Y-72302885D01*
X122434592Y-72256894D01*
X122276651Y-72218976D01*
X122203711Y-72201465D01*
X121967000Y-72182835D01*
X121730289Y-72201465D01*
X121499407Y-72256894D01*
X121280038Y-72347759D01*
X121077582Y-72471825D01*
X121077580Y-72471826D01*
X120897030Y-72626030D01*
X120742826Y-72806580D01*
X120742825Y-72806582D01*
X120618757Y-73009041D01*
X120603358Y-73046219D01*
X120558810Y-73101500D01*
X120491446Y-73123920D01*
X120486950Y-73124000D01*
X118242626Y-73124000D01*
X118234394Y-73123460D01*
X118201001Y-73119064D01*
X118200999Y-73119064D01*
X118063827Y-73137123D01*
X117993679Y-73126184D01*
X117940580Y-73079056D01*
X117921390Y-73010702D01*
X117942201Y-72942824D01*
X117958282Y-72923109D01*
X117984111Y-72897281D01*
X118081043Y-72743015D01*
X118141217Y-72571047D01*
X118150719Y-72486702D01*
X118178221Y-72421251D01*
X118186822Y-72411725D01*
X120865144Y-69733405D01*
X120927456Y-69699379D01*
X120954239Y-69696500D01*
X123145988Y-69696500D01*
X123154219Y-69697040D01*
X123166549Y-69698662D01*
X123190000Y-69701750D01*
X123229880Y-69696500D01*
X123229885Y-69696500D01*
X123307791Y-69686243D01*
X123329457Y-69683391D01*
X123333335Y-69682880D01*
X123348851Y-69680838D01*
X123496876Y-69619524D01*
X123592072Y-69546477D01*
X123592072Y-69546476D01*
X123600286Y-69540174D01*
X123600293Y-69540167D01*
X123623987Y-69521987D01*
X123645964Y-69493346D01*
X123651387Y-69487161D01*
X124224156Y-68914391D01*
X124230346Y-68908963D01*
X124258987Y-68886987D01*
X124278235Y-68861901D01*
X124278241Y-68861895D01*
X124283476Y-68855072D01*
X124283478Y-68855071D01*
X124356524Y-68759876D01*
X124417838Y-68611851D01*
X124438751Y-68453000D01*
X124438751Y-68452998D01*
X124434040Y-68417211D01*
X124433500Y-68408980D01*
X124433500Y-64847993D01*
X124453502Y-64779872D01*
X124460999Y-64769421D01*
X124461104Y-64769287D01*
X124461111Y-64769281D01*
X124558043Y-64615015D01*
X124618217Y-64443047D01*
X124638616Y-64262000D01*
X124618217Y-64080953D01*
X124558043Y-63908985D01*
X124558041Y-63908982D01*
X124558041Y-63908981D01*
X124461112Y-63754720D01*
X124461111Y-63754718D01*
X124332281Y-63625888D01*
X124332279Y-63625887D01*
X124178018Y-63528958D01*
X124178015Y-63528957D01*
X124006050Y-63468784D01*
X124006049Y-63468783D01*
X124006047Y-63468783D01*
X123825000Y-63448384D01*
X123643953Y-63468783D01*
X123643950Y-63468783D01*
X123643949Y-63468784D01*
X123471984Y-63528957D01*
X123471981Y-63528958D01*
X123317720Y-63625887D01*
X123317718Y-63625888D01*
X123188888Y-63754718D01*
X123188887Y-63754720D01*
X123091958Y-63908981D01*
X123091957Y-63908984D01*
X123091957Y-63908985D01*
X123031783Y-64080953D01*
X123011384Y-64262000D01*
X123031783Y-64443047D01*
X123031783Y-64443049D01*
X123031784Y-64443050D01*
X123091957Y-64615015D01*
X123091958Y-64615018D01*
X123188883Y-64769273D01*
X123189001Y-64769421D01*
X123189047Y-64769534D01*
X123192653Y-64775273D01*
X123191648Y-64775904D01*
X123215844Y-64835148D01*
X123216500Y-64847993D01*
X123216500Y-65322049D01*
X123196498Y-65390170D01*
X123142842Y-65436663D01*
X123072568Y-65446767D01*
X123008670Y-65417860D01*
X122856419Y-65287826D01*
X122856417Y-65287825D01*
X122856416Y-65287824D01*
X122653963Y-65163760D01*
X122505228Y-65102152D01*
X122434592Y-65072894D01*
X122276651Y-65034976D01*
X122203711Y-65017465D01*
X121967000Y-64998835D01*
X121730289Y-65017465D01*
X121499407Y-65072894D01*
X121280038Y-65163759D01*
X121077582Y-65287825D01*
X121077580Y-65287826D01*
X120897030Y-65442030D01*
X120742826Y-65622580D01*
X120742825Y-65622582D01*
X120742820Y-65622591D01*
X120618760Y-65825037D01*
X120618478Y-65825715D01*
X120618305Y-65825931D01*
X120616516Y-65829443D01*
X120615778Y-65829067D01*
X120573935Y-65880996D01*
X120506573Y-65903420D01*
X120502070Y-65903500D01*
X117744930Y-65903500D01*
X117676809Y-65883498D01*
X117630316Y-65829842D01*
X117628539Y-65825760D01*
X117628240Y-65825037D01*
X117504176Y-65622584D01*
X117502818Y-65620994D01*
X117349969Y-65442030D01*
X117169419Y-65287826D01*
X117169417Y-65287825D01*
X117169416Y-65287824D01*
X116966963Y-65163760D01*
X116818228Y-65102152D01*
X116747592Y-65072894D01*
X116589651Y-65034976D01*
X116516711Y-65017465D01*
X116280000Y-64998835D01*
X116043289Y-65017465D01*
X115812407Y-65072894D01*
X115593038Y-65163759D01*
X115390582Y-65287825D01*
X115390580Y-65287826D01*
X115210030Y-65442030D01*
X115055826Y-65622580D01*
X115055825Y-65622582D01*
X114931759Y-65825038D01*
X114840894Y-66044407D01*
X114788525Y-66262544D01*
X114785465Y-66275289D01*
X114766835Y-66512000D01*
X114785465Y-66748711D01*
X114802357Y-66819070D01*
X114836550Y-66961497D01*
X114833002Y-67032405D01*
X114791683Y-67090139D01*
X114725709Y-67116369D01*
X114656028Y-67102766D01*
X114624936Y-67080006D01*
X114400905Y-66855975D01*
X114366879Y-66793663D01*
X114364000Y-66766880D01*
X114364000Y-64789119D01*
X114384002Y-64720998D01*
X114400900Y-64700029D01*
X115637913Y-63463015D01*
X115700223Y-63428992D01*
X115771038Y-63434056D01*
X115775186Y-63435688D01*
X115812406Y-63451105D01*
X116043289Y-63506535D01*
X116280000Y-63525165D01*
X116516711Y-63506535D01*
X116747594Y-63451105D01*
X116966963Y-63360240D01*
X117169416Y-63236176D01*
X117349969Y-63081969D01*
X117504176Y-62901416D01*
X117628240Y-62698963D01*
X117719105Y-62479594D01*
X117774535Y-62248711D01*
X117793165Y-62012000D01*
X117774535Y-61775289D01*
X117719105Y-61544406D01*
X117628240Y-61325037D01*
X117504176Y-61122584D01*
X117502818Y-61120994D01*
X117380545Y-60977830D01*
X117351514Y-60913041D01*
X117362119Y-60842841D01*
X117408994Y-60789518D01*
X117476356Y-60770000D01*
X119863880Y-60770000D01*
X119932001Y-60790002D01*
X119952975Y-60806905D01*
X120515981Y-61369911D01*
X120550007Y-61432223D01*
X120544942Y-61503038D01*
X120543296Y-61507222D01*
X120527896Y-61544402D01*
X120472465Y-61775289D01*
X120453835Y-62012000D01*
X120472465Y-62248710D01*
X120527894Y-62479592D01*
X120557422Y-62550878D01*
X120618760Y-62698963D01*
X120737276Y-62892363D01*
X120742825Y-62901417D01*
X120742826Y-62901419D01*
X120897030Y-63081969D01*
X120991339Y-63162516D01*
X121077584Y-63236176D01*
X121280037Y-63360240D01*
X121499406Y-63451105D01*
X121730289Y-63506535D01*
X121967000Y-63525165D01*
X122203711Y-63506535D01*
X122434594Y-63451105D01*
X122653963Y-63360240D01*
X122856416Y-63236176D01*
X123036969Y-63081969D01*
X123191176Y-62901416D01*
X123315240Y-62698963D01*
X123406105Y-62479594D01*
X123461535Y-62248711D01*
X123480165Y-62012000D01*
X123461535Y-61775289D01*
X123406105Y-61544406D01*
X123315240Y-61325037D01*
X123191176Y-61122584D01*
X123189818Y-61120994D01*
X123036969Y-60942030D01*
X122856419Y-60787826D01*
X122856417Y-60787825D01*
X122856416Y-60787824D01*
X122653963Y-60663760D01*
X122434597Y-60572896D01*
X122434592Y-60572894D01*
X122276651Y-60534976D01*
X122203711Y-60517465D01*
X121967000Y-60498835D01*
X121730289Y-60517465D01*
X121536028Y-60564103D01*
X121499402Y-60572896D01*
X121462222Y-60588296D01*
X121391632Y-60595884D01*
X121328146Y-60564103D01*
X121324911Y-60560981D01*
X121262765Y-60498835D01*
X120586894Y-59822964D01*
X120581463Y-59816771D01*
X120571305Y-59803533D01*
X120560955Y-59790045D01*
X120560953Y-59790044D01*
X120560953Y-59790043D01*
X120441474Y-59698363D01*
X120441466Y-59698358D01*
X120302320Y-59640722D01*
X120239725Y-59632481D01*
X120190492Y-59626000D01*
X120190488Y-59626000D01*
X120186811Y-59625516D01*
X120186804Y-59625515D01*
X120153002Y-59621065D01*
X120152999Y-59621065D01*
X120119612Y-59625460D01*
X120111381Y-59626000D01*
X114087626Y-59626000D01*
X114079394Y-59625460D01*
X114046001Y-59621064D01*
X114046000Y-59621064D01*
X114008508Y-59626000D01*
X113896679Y-59640722D01*
X113757533Y-59698358D01*
X113757525Y-59698363D01*
X113638046Y-59790044D01*
X113638040Y-59790049D01*
X113617539Y-59816766D01*
X113612102Y-59822966D01*
X113563096Y-59871972D01*
X113500785Y-59905998D01*
X113429969Y-59900934D01*
X113373133Y-59858388D01*
X113348321Y-59791868D01*
X113348000Y-59782878D01*
X113348000Y-56169119D01*
X113368002Y-56100998D01*
X113384900Y-56080029D01*
X115374747Y-54090181D01*
X115380920Y-54084768D01*
X115447554Y-54033639D01*
X117738146Y-51743047D01*
X120092789Y-49388405D01*
X120155101Y-49354379D01*
X120181884Y-49351500D01*
X122131622Y-49351500D01*
X122139854Y-49352040D01*
X122173999Y-49356535D01*
X122174000Y-49356535D01*
X122326324Y-49336481D01*
X122468267Y-49277686D01*
X122474842Y-49272641D01*
X122590157Y-49184157D01*
X122611137Y-49156813D01*
X122616551Y-49150640D01*
X123310641Y-48456550D01*
X123316823Y-48451129D01*
X123344157Y-48430157D01*
X123363538Y-48404897D01*
X123420874Y-48363032D01*
X123491745Y-48358810D01*
X123553648Y-48393573D01*
X123586930Y-48456285D01*
X123589500Y-48481603D01*
X123589500Y-48701207D01*
X123570187Y-48768243D01*
X123472958Y-48922981D01*
X123472957Y-48922984D01*
X123413911Y-49091730D01*
X123412783Y-49094953D01*
X123392384Y-49276000D01*
X123412783Y-49457047D01*
X123412783Y-49457049D01*
X123412784Y-49457050D01*
X123472957Y-49629015D01*
X123472958Y-49629018D01*
X123569887Y-49783279D01*
X123569888Y-49783281D01*
X123698718Y-49912111D01*
X123698720Y-49912112D01*
X123852981Y-50009041D01*
X123852982Y-50009041D01*
X123852985Y-50009043D01*
X124024953Y-50069217D01*
X124206000Y-50089616D01*
X124387047Y-50069217D01*
X124559015Y-50009043D01*
X124713281Y-49912111D01*
X124842111Y-49783281D01*
X124939043Y-49629015D01*
X124999217Y-49457047D01*
X125019616Y-49276000D01*
X124999217Y-49094953D01*
X124939043Y-48922985D01*
X124939041Y-48922982D01*
X124939041Y-48922981D01*
X124842112Y-48768720D01*
X124837703Y-48763191D01*
X124839080Y-48762092D01*
X124809379Y-48707700D01*
X124806500Y-48680917D01*
X124806500Y-48012757D01*
X124826502Y-47944636D01*
X124880158Y-47898143D01*
X124945974Y-47887480D01*
X124969393Y-47889998D01*
X124969415Y-47890000D01*
X125214000Y-47890000D01*
X125214000Y-44874000D01*
X124969402Y-44874000D01*
X124908904Y-44880505D01*
X124877744Y-44892127D01*
X124806928Y-44897190D01*
X124789684Y-44892126D01*
X124757202Y-44880011D01*
X124757195Y-44880009D01*
X124696649Y-44873500D01*
X124696638Y-44873500D01*
X123699362Y-44873500D01*
X123699350Y-44873500D01*
X123638804Y-44880009D01*
X123638801Y-44880010D01*
X123607030Y-44891860D01*
X123536214Y-44896923D01*
X123518970Y-44891860D01*
X123487198Y-44880010D01*
X123487195Y-44880009D01*
X123426649Y-44873500D01*
X123426638Y-44873500D01*
X122429362Y-44873500D01*
X122429350Y-44873500D01*
X122368804Y-44880009D01*
X122368801Y-44880010D01*
X122336314Y-44892127D01*
X122265498Y-44897190D01*
X122248254Y-44892126D01*
X122217098Y-44880506D01*
X122217096Y-44880505D01*
X122156597Y-44874000D01*
X121912000Y-44874000D01*
X121912000Y-47890000D01*
X121922615Y-47890000D01*
X121990736Y-47910002D01*
X122037229Y-47963658D01*
X122047333Y-48033932D01*
X122017839Y-48098512D01*
X122011712Y-48105094D01*
X121969213Y-48147594D01*
X121906901Y-48181620D01*
X121880116Y-48184500D01*
X119930378Y-48184500D01*
X119922146Y-48183960D01*
X119888001Y-48179465D01*
X119888000Y-48179465D01*
X119735677Y-48199518D01*
X119593734Y-48258313D01*
X119593726Y-48258318D01*
X119505125Y-48326304D01*
X119505117Y-48326310D01*
X119471843Y-48351843D01*
X119471838Y-48351847D01*
X119450872Y-48379170D01*
X119445434Y-48385371D01*
X116368595Y-51462210D01*
X116306283Y-51496236D01*
X116235468Y-51491171D01*
X116178632Y-51448624D01*
X116153821Y-51382104D01*
X116153500Y-51373115D01*
X116153500Y-51096376D01*
X116154040Y-51088143D01*
X116158535Y-51054000D01*
X116151389Y-50999723D01*
X116141669Y-50925889D01*
X116138481Y-50901676D01*
X116093259Y-50792500D01*
X116079686Y-50759732D01*
X116009639Y-50668445D01*
X116009637Y-50668443D01*
X116001905Y-50658367D01*
X115986156Y-50637842D01*
X115976728Y-50630608D01*
X115958827Y-50616872D01*
X115952637Y-50611443D01*
X115185337Y-49844144D01*
X114466533Y-49125339D01*
X114432507Y-49063027D01*
X114437572Y-48992212D01*
X114466531Y-48947150D01*
X114563030Y-48850652D01*
X114563030Y-48850651D01*
X114568220Y-48845462D01*
X114569378Y-48846620D01*
X114620132Y-48810678D01*
X114675139Y-48804646D01*
X114808000Y-48819616D01*
X114989047Y-48799217D01*
X115161015Y-48739043D01*
X115315281Y-48642111D01*
X115444111Y-48513281D01*
X115541043Y-48359015D01*
X115601217Y-48187047D01*
X115621616Y-48006000D01*
X115601217Y-47824953D01*
X115541043Y-47652985D01*
X115541041Y-47652982D01*
X115541041Y-47652981D01*
X115444112Y-47498720D01*
X115444111Y-47498718D01*
X115315281Y-47369888D01*
X115315279Y-47369887D01*
X115161018Y-47272958D01*
X115161015Y-47272957D01*
X114989050Y-47212784D01*
X114989049Y-47212783D01*
X114989047Y-47212783D01*
X114834230Y-47195339D01*
X114768779Y-47167836D01*
X114728586Y-47109312D01*
X114723077Y-47079621D01*
X114722825Y-47079647D01*
X114722509Y-47076562D01*
X114722502Y-47076520D01*
X114722499Y-47076467D01*
X114722499Y-47076456D01*
X114711887Y-46972574D01*
X114656115Y-46804262D01*
X114563030Y-46653348D01*
X114563029Y-46653347D01*
X114563024Y-46653341D01*
X114545683Y-46636000D01*
X120700000Y-46636000D01*
X120700000Y-47430597D01*
X120706505Y-47491093D01*
X120757555Y-47627964D01*
X120757555Y-47627965D01*
X120845095Y-47744904D01*
X120962034Y-47832444D01*
X121098906Y-47883494D01*
X121159402Y-47889999D01*
X121159415Y-47890000D01*
X121404000Y-47890000D01*
X121404000Y-46636000D01*
X120700000Y-46636000D01*
X114545683Y-46636000D01*
X114437658Y-46527975D01*
X114437652Y-46527970D01*
X114306353Y-46446984D01*
X114286738Y-46434885D01*
X114201767Y-46406729D01*
X114118427Y-46379113D01*
X114118420Y-46379112D01*
X114014553Y-46368500D01*
X113113455Y-46368500D01*
X113009574Y-46379112D01*
X112841261Y-46434885D01*
X112690347Y-46527970D01*
X112690341Y-46527975D01*
X112564975Y-46653341D01*
X112564970Y-46653347D01*
X112471885Y-46804262D01*
X112416113Y-46972572D01*
X112416112Y-46972579D01*
X112405500Y-47076446D01*
X112405500Y-48427544D01*
X112416112Y-48531425D01*
X112471885Y-48699738D01*
X112564970Y-48850652D01*
X112564975Y-48850658D01*
X112690341Y-48976024D01*
X112690347Y-48976029D01*
X112690348Y-48976030D01*
X112841262Y-49069115D01*
X112909514Y-49091731D01*
X112967885Y-49132144D01*
X112994802Y-49194884D01*
X112995517Y-49200320D01*
X113051917Y-49336480D01*
X113054314Y-49342267D01*
X113147630Y-49463880D01*
X113147845Y-49464159D01*
X113175170Y-49485126D01*
X113181372Y-49490565D01*
X113654211Y-49963405D01*
X113688236Y-50025717D01*
X113683171Y-50096533D01*
X113640624Y-50153368D01*
X113574104Y-50178179D01*
X113565115Y-50178500D01*
X113113455Y-50178500D01*
X113009574Y-50189112D01*
X112841261Y-50244885D01*
X112690347Y-50337970D01*
X112690341Y-50337975D01*
X112564975Y-50463341D01*
X112564970Y-50463347D01*
X112471885Y-50614262D01*
X112416113Y-50782572D01*
X112416112Y-50782579D01*
X112405500Y-50886446D01*
X112405500Y-52237544D01*
X112416112Y-52341425D01*
X112471885Y-52509738D01*
X112564970Y-52660652D01*
X112564975Y-52660658D01*
X112690341Y-52786024D01*
X112690347Y-52786029D01*
X112690348Y-52786030D01*
X112841262Y-52879115D01*
X112905633Y-52900445D01*
X112964003Y-52940856D01*
X112991260Y-53006412D01*
X112992000Y-53020048D01*
X112992000Y-53024879D01*
X112971998Y-53093000D01*
X112955095Y-53113974D01*
X111384971Y-54684098D01*
X111378770Y-54689536D01*
X111352049Y-54710040D01*
X111352044Y-54710046D01*
X111260363Y-54829525D01*
X111260358Y-54829533D01*
X111202722Y-54968679D01*
X111195012Y-55027240D01*
X111188000Y-55080508D01*
X111188000Y-55080513D01*
X111188000Y-55080514D01*
X111183065Y-55117999D01*
X111183065Y-55118000D01*
X111187460Y-55151386D01*
X111188000Y-55159618D01*
X111188000Y-60996276D01*
X111167998Y-61064397D01*
X111114342Y-61110890D01*
X111044068Y-61120994D01*
X110979488Y-61091500D01*
X110966189Y-61078107D01*
X110849969Y-60942031D01*
X110849967Y-60942029D01*
X110849966Y-60942028D01*
X110669419Y-60787826D01*
X110669417Y-60787825D01*
X110669416Y-60787824D01*
X110466963Y-60663760D01*
X110247597Y-60572896D01*
X110247592Y-60572894D01*
X110089651Y-60534976D01*
X110016711Y-60517465D01*
X109780000Y-60498835D01*
X109543289Y-60517465D01*
X109312407Y-60572894D01*
X109093038Y-60663759D01*
X108890582Y-60787825D01*
X108890580Y-60787826D01*
X108710030Y-60942030D01*
X108555826Y-61122580D01*
X108555825Y-61122582D01*
X108431759Y-61325038D01*
X108340894Y-61544407D01*
X108285465Y-61775289D01*
X108266835Y-62012000D01*
X108285465Y-62248710D01*
X108340894Y-62479592D01*
X108370422Y-62550878D01*
X108431760Y-62698963D01*
X108550276Y-62892363D01*
X108555825Y-62901417D01*
X108555826Y-62901419D01*
X108710030Y-63081969D01*
X108804339Y-63162516D01*
X108890584Y-63236176D01*
X109093037Y-63360240D01*
X109312406Y-63451105D01*
X109543289Y-63506535D01*
X109780000Y-63525165D01*
X110016711Y-63506535D01*
X110247594Y-63451105D01*
X110466963Y-63360240D01*
X110669416Y-63236176D01*
X110849969Y-63081969D01*
X110966189Y-62945892D01*
X111025639Y-62907083D01*
X111096634Y-62906576D01*
X111156633Y-62944533D01*
X111186586Y-63008901D01*
X111188000Y-63027723D01*
X111188000Y-65496276D01*
X111167998Y-65564397D01*
X111114342Y-65610890D01*
X111044068Y-65620994D01*
X110979488Y-65591500D01*
X110966189Y-65578107D01*
X110849969Y-65442031D01*
X110849967Y-65442029D01*
X110849966Y-65442028D01*
X110669419Y-65287826D01*
X110669417Y-65287825D01*
X110669416Y-65287824D01*
X110466963Y-65163760D01*
X110318228Y-65102152D01*
X110247592Y-65072894D01*
X110089651Y-65034976D01*
X110016711Y-65017465D01*
X109780000Y-64998835D01*
X109543289Y-65017465D01*
X109312407Y-65072894D01*
X109093038Y-65163759D01*
X108890582Y-65287825D01*
X108890580Y-65287826D01*
X108710030Y-65442030D01*
X108555826Y-65622580D01*
X108555825Y-65622582D01*
X108555820Y-65622591D01*
X108431760Y-65825037D01*
X108431478Y-65825715D01*
X108431305Y-65825931D01*
X108429516Y-65829443D01*
X108428778Y-65829067D01*
X108386935Y-65880996D01*
X108319573Y-65903420D01*
X108315070Y-65903500D01*
X106411500Y-65903500D01*
X106343379Y-65883498D01*
X106296886Y-65829842D01*
X106285500Y-65777500D01*
X106285499Y-65361455D01*
X106274887Y-65257574D01*
X106274886Y-65257572D01*
X106219115Y-65089262D01*
X106126030Y-64938348D01*
X106126029Y-64938347D01*
X106126024Y-64938341D01*
X106000658Y-64812975D01*
X106000652Y-64812970D01*
X105849738Y-64719885D01*
X105765582Y-64691999D01*
X105681427Y-64664113D01*
X105681420Y-64664112D01*
X105577553Y-64653500D01*
X104226455Y-64653500D01*
X104122574Y-64664112D01*
X103954261Y-64719885D01*
X103803347Y-64812970D01*
X103803341Y-64812975D01*
X103677975Y-64938341D01*
X103677970Y-64938347D01*
X103584885Y-65089262D01*
X103529113Y-65257572D01*
X103529112Y-65257579D01*
X103518500Y-65361446D01*
X103518500Y-66262544D01*
X103529112Y-66366425D01*
X103584885Y-66534738D01*
X103677970Y-66685652D01*
X103677975Y-66685658D01*
X103803341Y-66811024D01*
X103803347Y-66811029D01*
X103803348Y-66811030D01*
X103954262Y-66904115D01*
X104122574Y-66959887D01*
X104226455Y-66970500D01*
X105157185Y-66970499D01*
X105225306Y-66990501D01*
X105233888Y-66996536D01*
X105280634Y-67032405D01*
X105295125Y-67043524D01*
X105443150Y-67104838D01*
X105562115Y-67120500D01*
X105562122Y-67120500D01*
X105602000Y-67125750D01*
X105602000Y-67125749D01*
X105602001Y-67125750D01*
X105637781Y-67121040D01*
X105646012Y-67120500D01*
X108315070Y-67120500D01*
X108383191Y-67140502D01*
X108429684Y-67194158D01*
X108431460Y-67198239D01*
X108431760Y-67198963D01*
X108550277Y-67392363D01*
X108555825Y-67401417D01*
X108555826Y-67401419D01*
X108710030Y-67581969D01*
X108890580Y-67736173D01*
X108890584Y-67736176D01*
X109093037Y-67860240D01*
X109312406Y-67951105D01*
X109543289Y-68006535D01*
X109780000Y-68025165D01*
X110016711Y-68006535D01*
X110229499Y-67955449D01*
X110300405Y-67958996D01*
X110358139Y-68000316D01*
X110384369Y-68066290D01*
X110370767Y-68135971D01*
X110348006Y-68167063D01*
X108590971Y-69924098D01*
X108584770Y-69929536D01*
X108558049Y-69950040D01*
X108558044Y-69950046D01*
X108466363Y-70069525D01*
X108466358Y-70069533D01*
X108408722Y-70208679D01*
X108405689Y-70231720D01*
X108394000Y-70320508D01*
X108394000Y-70320513D01*
X108394000Y-70320514D01*
X108389065Y-70357999D01*
X108389065Y-70358000D01*
X108393460Y-70391386D01*
X108394000Y-70399618D01*
X108394000Y-70521146D01*
X108373998Y-70589267D01*
X108320342Y-70635760D01*
X108250068Y-70645864D01*
X108203861Y-70629600D01*
X108109602Y-70573855D01*
X107949829Y-70527437D01*
X107912506Y-70524500D01*
X107912502Y-70524500D01*
X107479498Y-70524500D01*
X107479494Y-70524500D01*
X107442170Y-70527437D01*
X107282394Y-70573856D01*
X107139197Y-70658543D01*
X107138225Y-70659298D01*
X107137323Y-70659652D01*
X107132369Y-70662582D01*
X107131896Y-70661782D01*
X107072139Y-70685244D01*
X107002517Y-70671342D01*
X106983775Y-70659298D01*
X106982802Y-70658543D01*
X106839605Y-70573856D01*
X106679829Y-70527437D01*
X106642506Y-70524500D01*
X106642502Y-70524500D01*
X106209498Y-70524500D01*
X106209494Y-70524500D01*
X106172170Y-70527437D01*
X106012394Y-70573856D01*
X105869196Y-70658544D01*
X105869189Y-70658549D01*
X105751549Y-70776189D01*
X105751544Y-70776196D01*
X105666856Y-70919394D01*
X105620437Y-71079170D01*
X105617500Y-71116494D01*
X105617500Y-71812339D01*
X105597498Y-71880460D01*
X105580595Y-71901434D01*
X103798433Y-73683595D01*
X103736121Y-73717621D01*
X103709338Y-73720500D01*
X103439455Y-73720500D01*
X103335574Y-73731112D01*
X103167261Y-73786885D01*
X103016347Y-73879970D01*
X103016341Y-73879975D01*
X102980495Y-73915822D01*
X102918183Y-73949848D01*
X102847368Y-73944783D01*
X102790532Y-73902236D01*
X102765721Y-73835716D01*
X102765400Y-73826727D01*
X102765400Y-62966000D01*
X103519000Y-62966000D01*
X103519000Y-63162516D01*
X103529605Y-63266318D01*
X103529606Y-63266321D01*
X103585342Y-63434525D01*
X103678365Y-63585339D01*
X103678370Y-63585345D01*
X103803654Y-63710629D01*
X103803660Y-63710634D01*
X103954474Y-63803657D01*
X104122678Y-63859393D01*
X104122681Y-63859394D01*
X104226483Y-63869999D01*
X104226483Y-63870000D01*
X104648000Y-63870000D01*
X104648000Y-62966000D01*
X105156000Y-62966000D01*
X105156000Y-63870000D01*
X105577517Y-63870000D01*
X105577516Y-63869999D01*
X105681318Y-63859394D01*
X105681321Y-63859393D01*
X105849525Y-63803657D01*
X106000339Y-63710634D01*
X106000345Y-63710629D01*
X106125629Y-63585345D01*
X106125634Y-63585339D01*
X106218657Y-63434525D01*
X106274393Y-63266321D01*
X106274394Y-63266318D01*
X106284999Y-63162516D01*
X106285000Y-63162516D01*
X106285000Y-62966000D01*
X105156000Y-62966000D01*
X104648000Y-62966000D01*
X103519000Y-62966000D01*
X102765400Y-62966000D01*
X102765400Y-62458000D01*
X103519000Y-62458000D01*
X104648000Y-62458000D01*
X104648000Y-61554000D01*
X105156000Y-61554000D01*
X105156000Y-62458000D01*
X106285000Y-62458000D01*
X106285000Y-62261483D01*
X106274394Y-62157681D01*
X106274393Y-62157678D01*
X106218657Y-61989474D01*
X106125634Y-61838660D01*
X106125629Y-61838654D01*
X106000345Y-61713370D01*
X106000339Y-61713365D01*
X105849525Y-61620342D01*
X105681321Y-61564606D01*
X105681318Y-61564605D01*
X105577516Y-61554000D01*
X105156000Y-61554000D01*
X104648000Y-61554000D01*
X104226483Y-61554000D01*
X104122681Y-61564605D01*
X104122678Y-61564606D01*
X103954474Y-61620342D01*
X103803660Y-61713365D01*
X103803654Y-61713370D01*
X103678370Y-61838654D01*
X103678365Y-61838660D01*
X103585342Y-61989474D01*
X103529606Y-62157678D01*
X103529605Y-62157681D01*
X103519000Y-62261483D01*
X103519000Y-62458000D01*
X102765400Y-62458000D01*
X102765400Y-59409050D01*
X102785402Y-59340929D01*
X102839058Y-59294436D01*
X102891400Y-59283050D01*
X104467532Y-59283050D01*
X104467538Y-59283050D01*
X104467545Y-59283049D01*
X104467549Y-59283049D01*
X104528096Y-59276540D01*
X104528099Y-59276539D01*
X104528101Y-59276539D01*
X104665104Y-59225439D01*
X104782161Y-59137811D01*
X104869789Y-59020754D01*
X104920889Y-58883751D01*
X104927400Y-58823188D01*
X104927400Y-56725912D01*
X104927399Y-56725900D01*
X104920890Y-56665353D01*
X104920888Y-56665345D01*
X104869789Y-56528347D01*
X104869787Y-56528342D01*
X104782161Y-56411288D01*
X104665107Y-56323662D01*
X104665102Y-56323660D01*
X104528104Y-56272561D01*
X104528096Y-56272559D01*
X104467549Y-56266050D01*
X104467538Y-56266050D01*
X101370262Y-56266050D01*
X101370250Y-56266050D01*
X101309703Y-56272559D01*
X101309695Y-56272561D01*
X101172697Y-56323660D01*
X101172692Y-56323662D01*
X101055638Y-56411288D01*
X100968012Y-56528342D01*
X100968010Y-56528347D01*
X100916911Y-56665345D01*
X100916909Y-56665353D01*
X100910400Y-56725900D01*
X100910400Y-58823199D01*
X100330000Y-58823199D01*
X100330000Y-51239199D01*
X100897800Y-51239199D01*
X100904309Y-51299746D01*
X100904311Y-51299754D01*
X100955410Y-51436752D01*
X100955412Y-51436757D01*
X101043038Y-51553811D01*
X101160092Y-51641437D01*
X101160094Y-51641438D01*
X101160096Y-51641439D01*
X101219175Y-51663474D01*
X101297095Y-51692538D01*
X101297103Y-51692540D01*
X101357650Y-51699049D01*
X101357655Y-51699049D01*
X101357662Y-51699050D01*
X101357668Y-51699050D01*
X104454932Y-51699050D01*
X104454938Y-51699050D01*
X104454945Y-51699049D01*
X104454949Y-51699049D01*
X104515496Y-51692540D01*
X104515499Y-51692539D01*
X104515501Y-51692539D01*
X104652504Y-51641439D01*
X104769561Y-51553811D01*
X104857189Y-51436754D01*
X104908289Y-51299751D01*
X104914800Y-51239188D01*
X104914800Y-51025050D01*
X104934802Y-50956929D01*
X104988458Y-50910436D01*
X105040800Y-50899050D01*
X107248890Y-50899050D01*
X107317011Y-50919052D01*
X107337985Y-50935955D01*
X108167358Y-51765328D01*
X108197192Y-51812807D01*
X108232958Y-51915017D01*
X108232958Y-51915018D01*
X108329887Y-52069279D01*
X108329888Y-52069281D01*
X108458718Y-52198111D01*
X108458720Y-52198112D01*
X108612981Y-52295041D01*
X108612982Y-52295041D01*
X108612985Y-52295043D01*
X108784953Y-52355217D01*
X108966000Y-52375616D01*
X109147047Y-52355217D01*
X109181721Y-52343083D01*
X109252621Y-52339464D01*
X109314227Y-52374752D01*
X109342937Y-52422378D01*
X109371885Y-52509738D01*
X109464970Y-52660652D01*
X109464975Y-52660658D01*
X109590341Y-52786024D01*
X109590347Y-52786029D01*
X109590348Y-52786030D01*
X109741262Y-52879115D01*
X109909574Y-52934887D01*
X110013455Y-52945500D01*
X110914544Y-52945499D01*
X111018426Y-52934887D01*
X111186738Y-52879115D01*
X111337652Y-52786030D01*
X111463030Y-52660652D01*
X111556115Y-52509738D01*
X111611887Y-52341426D01*
X111622500Y-52237545D01*
X111622499Y-50886456D01*
X111616361Y-50826375D01*
X111611887Y-50782574D01*
X111607757Y-50770111D01*
X111556115Y-50614262D01*
X111463030Y-50463348D01*
X111463029Y-50463347D01*
X111463024Y-50463341D01*
X111337658Y-50337975D01*
X111337652Y-50337970D01*
X111296174Y-50312386D01*
X111186738Y-50244885D01*
X111046755Y-50198500D01*
X111018427Y-50189113D01*
X111018420Y-50189112D01*
X110914553Y-50178500D01*
X110013455Y-50178500D01*
X109909574Y-50189112D01*
X109741261Y-50244885D01*
X109590347Y-50337970D01*
X109590341Y-50337975D01*
X109464975Y-50463341D01*
X109464970Y-50463347D01*
X109371884Y-50614264D01*
X109348615Y-50684485D01*
X109308201Y-50742856D01*
X109242644Y-50770111D01*
X109172759Y-50757597D01*
X109139916Y-50733946D01*
X108584149Y-50178179D01*
X107982279Y-49576309D01*
X107951754Y-49545784D01*
X107951750Y-49545781D01*
X107951748Y-49545780D01*
X107940584Y-49539031D01*
X107918072Y-49525421D01*
X107911815Y-49521102D01*
X107880830Y-49496827D01*
X107880827Y-49496825D01*
X107844933Y-49480670D01*
X107838191Y-49477132D01*
X107804513Y-49456772D01*
X107766939Y-49445064D01*
X107759819Y-49442364D01*
X107723933Y-49426213D01*
X107723935Y-49426213D01*
X107723929Y-49426211D01*
X107723926Y-49426210D01*
X107723925Y-49426210D01*
X107709079Y-49423489D01*
X107685203Y-49419114D01*
X107677825Y-49417296D01*
X107640249Y-49405587D01*
X107640246Y-49405586D01*
X107600963Y-49403209D01*
X107593407Y-49402292D01*
X107554693Y-49395198D01*
X107554691Y-49395198D01*
X107537987Y-49396208D01*
X107515403Y-49397574D01*
X107507797Y-49397574D01*
X107468507Y-49395198D01*
X107468506Y-49395198D01*
X107429782Y-49402293D01*
X107422227Y-49403210D01*
X107382955Y-49405586D01*
X107382950Y-49405587D01*
X107345381Y-49417293D01*
X107337991Y-49419115D01*
X107309925Y-49424258D01*
X107299277Y-49426210D01*
X107299266Y-49426212D01*
X107263375Y-49442365D01*
X107256258Y-49445065D01*
X107218688Y-49456772D01*
X107213563Y-49459870D01*
X107206929Y-49463880D01*
X107141748Y-49482050D01*
X105040800Y-49482050D01*
X104972679Y-49462048D01*
X104926186Y-49408392D01*
X104914800Y-49356050D01*
X104914800Y-49141917D01*
X104914799Y-49141900D01*
X104908290Y-49081353D01*
X104908288Y-49081345D01*
X104871781Y-48983468D01*
X104857189Y-48944346D01*
X104857188Y-48944344D01*
X104857187Y-48944342D01*
X104769561Y-48827288D01*
X104652507Y-48739662D01*
X104652502Y-48739660D01*
X104515504Y-48688561D01*
X104515496Y-48688559D01*
X104454949Y-48682050D01*
X104454938Y-48682050D01*
X101357662Y-48682050D01*
X101357650Y-48682050D01*
X101297103Y-48688559D01*
X101297095Y-48688561D01*
X101160097Y-48739660D01*
X101160092Y-48739662D01*
X101043038Y-48827288D01*
X100955412Y-48944342D01*
X100955410Y-48944347D01*
X100904311Y-49081345D01*
X100904309Y-49081353D01*
X100897800Y-49141900D01*
X100897800Y-51239199D01*
X100330000Y-51239199D01*
X100330000Y-45346649D01*
X106931500Y-45346649D01*
X106938009Y-45407196D01*
X106938011Y-45407204D01*
X106989110Y-45544202D01*
X106989112Y-45544207D01*
X107076738Y-45661261D01*
X107193792Y-45748887D01*
X107193794Y-45748888D01*
X107193796Y-45748889D01*
X107246344Y-45768488D01*
X107314604Y-45793949D01*
X107371440Y-45836496D01*
X107396250Y-45903016D01*
X107395779Y-45926109D01*
X107392824Y-45952342D01*
X107390384Y-45974000D01*
X107410783Y-46155047D01*
X107410783Y-46155049D01*
X107410784Y-46155050D01*
X107470957Y-46327015D01*
X107470958Y-46327018D01*
X107567887Y-46481279D01*
X107567888Y-46481281D01*
X107696718Y-46610111D01*
X107696720Y-46610112D01*
X107850981Y-46707041D01*
X107850982Y-46707041D01*
X107850985Y-46707043D01*
X108022953Y-46767217D01*
X108204000Y-46787616D01*
X108385047Y-46767217D01*
X108557015Y-46707043D01*
X108711281Y-46610111D01*
X108840111Y-46481281D01*
X108937043Y-46327015D01*
X108997217Y-46155047D01*
X109017616Y-45974000D01*
X109011090Y-45916086D01*
X109023339Y-45846158D01*
X109071451Y-45793949D01*
X109092252Y-45783931D01*
X109186204Y-45748889D01*
X109264491Y-45690283D01*
X109331011Y-45665473D01*
X109400385Y-45680564D01*
X109415503Y-45690279D01*
X109455937Y-45720548D01*
X109493796Y-45748889D01*
X109630795Y-45799988D01*
X109630798Y-45799988D01*
X109630799Y-45799989D01*
X109630804Y-45799990D01*
X109659812Y-45803108D01*
X109668965Y-45804092D01*
X109734558Y-45831259D01*
X109775051Y-45889576D01*
X109781500Y-45929370D01*
X109781500Y-46339743D01*
X109761498Y-46407864D01*
X109721647Y-46446984D01*
X109590347Y-46527970D01*
X109590341Y-46527975D01*
X109464975Y-46653341D01*
X109464970Y-46653347D01*
X109371885Y-46804262D01*
X109316113Y-46972572D01*
X109316112Y-46972579D01*
X109305500Y-47076446D01*
X109305500Y-48427544D01*
X109316112Y-48531425D01*
X109371885Y-48699738D01*
X109464970Y-48850652D01*
X109464975Y-48850658D01*
X109590341Y-48976024D01*
X109590347Y-48976029D01*
X109590348Y-48976030D01*
X109741262Y-49069115D01*
X109909574Y-49124887D01*
X110013455Y-49135500D01*
X110914544Y-49135499D01*
X111018426Y-49124887D01*
X111186738Y-49069115D01*
X111337652Y-48976030D01*
X111463030Y-48850652D01*
X111556115Y-48699738D01*
X111611887Y-48531426D01*
X111622500Y-48427545D01*
X111622499Y-47076456D01*
X111611887Y-46972574D01*
X111556115Y-46804262D01*
X111463030Y-46653348D01*
X111463029Y-46653347D01*
X111463024Y-46653341D01*
X111337658Y-46527975D01*
X111337649Y-46527968D01*
X111258352Y-46479056D01*
X111210874Y-46426270D01*
X111198500Y-46371816D01*
X111198500Y-45929370D01*
X111218502Y-45861249D01*
X111272158Y-45814756D01*
X111311034Y-45804092D01*
X111322151Y-45802896D01*
X111349195Y-45799990D01*
X111349198Y-45799989D01*
X111349201Y-45799989D01*
X111486204Y-45748889D01*
X111564910Y-45689969D01*
X111631425Y-45665160D01*
X111700799Y-45680250D01*
X111715926Y-45689971D01*
X111794036Y-45748445D01*
X111930906Y-45799494D01*
X111991402Y-45805999D01*
X111991415Y-45806000D01*
X112536000Y-45806000D01*
X112536000Y-44552000D01*
X113044000Y-44552000D01*
X113044000Y-45806000D01*
X113588585Y-45806000D01*
X113588597Y-45805999D01*
X113649093Y-45799494D01*
X113785964Y-45748444D01*
X113785965Y-45748444D01*
X113902904Y-45660904D01*
X113990444Y-45543965D01*
X113990444Y-45543964D01*
X114041494Y-45407093D01*
X114047999Y-45346597D01*
X114048000Y-45346585D01*
X114048000Y-45220649D01*
X117439500Y-45220649D01*
X117446009Y-45281196D01*
X117446011Y-45281204D01*
X117497110Y-45418202D01*
X117497112Y-45418207D01*
X117584738Y-45535261D01*
X117701792Y-45622887D01*
X117701794Y-45622888D01*
X117701796Y-45622889D01*
X117760875Y-45644924D01*
X117838795Y-45673988D01*
X117838803Y-45673990D01*
X117899350Y-45680499D01*
X117899355Y-45680499D01*
X117899362Y-45680500D01*
X117899368Y-45680500D01*
X120296632Y-45680500D01*
X120296638Y-45680500D01*
X120296645Y-45680499D01*
X120296649Y-45680499D01*
X120357196Y-45673990D01*
X120357199Y-45673989D01*
X120357201Y-45673989D01*
X120494204Y-45622889D01*
X120498488Y-45619681D01*
X120565008Y-45594869D01*
X120634383Y-45609959D01*
X120684586Y-45660160D01*
X120700000Y-45720548D01*
X120700000Y-46128000D01*
X121404000Y-46128000D01*
X121404000Y-44874000D01*
X121159402Y-44874000D01*
X121098906Y-44880505D01*
X120962035Y-44931555D01*
X120958007Y-44934571D01*
X120891486Y-44959380D01*
X120822112Y-44944287D01*
X120771911Y-44894084D01*
X120756500Y-44833701D01*
X120756500Y-42823367D01*
X120756499Y-42823350D01*
X120749990Y-42762803D01*
X120749988Y-42762795D01*
X120716121Y-42671997D01*
X120698889Y-42625796D01*
X120698888Y-42625794D01*
X120698887Y-42625792D01*
X120611261Y-42508738D01*
X120494207Y-42421112D01*
X120494202Y-42421110D01*
X120357204Y-42370011D01*
X120357196Y-42370009D01*
X120296649Y-42363500D01*
X120296638Y-42363500D01*
X117899362Y-42363500D01*
X117899350Y-42363500D01*
X117838803Y-42370009D01*
X117838795Y-42370011D01*
X117701797Y-42421110D01*
X117701792Y-42421112D01*
X117584738Y-42508738D01*
X117497112Y-42625792D01*
X117497110Y-42625797D01*
X117446011Y-42762795D01*
X117446009Y-42762803D01*
X117439500Y-42823350D01*
X117439500Y-45220649D01*
X114048000Y-45220649D01*
X114048000Y-44552000D01*
X113044000Y-44552000D01*
X112536000Y-44552000D01*
X112536000Y-42790000D01*
X113044000Y-42790000D01*
X113044000Y-44044000D01*
X114048000Y-44044000D01*
X114048000Y-43249414D01*
X114047999Y-43249402D01*
X114041494Y-43188906D01*
X113990444Y-43052035D01*
X113990444Y-43052034D01*
X113902904Y-42935095D01*
X113785965Y-42847555D01*
X113649093Y-42796505D01*
X113588597Y-42790000D01*
X113044000Y-42790000D01*
X112536000Y-42790000D01*
X111991402Y-42790000D01*
X111930906Y-42796505D01*
X111794035Y-42847555D01*
X111715924Y-42906028D01*
X111649404Y-42930838D01*
X111580030Y-42915746D01*
X111564907Y-42906027D01*
X111486207Y-42847112D01*
X111486202Y-42847110D01*
X111384236Y-42809078D01*
X111327400Y-42766531D01*
X111302590Y-42700011D01*
X111303062Y-42676918D01*
X111303616Y-42672000D01*
X111283217Y-42490953D01*
X111223043Y-42318985D01*
X111223041Y-42318982D01*
X111223041Y-42318981D01*
X111126112Y-42164720D01*
X111126111Y-42164718D01*
X110997281Y-42035888D01*
X110997279Y-42035887D01*
X110843018Y-41938958D01*
X110843015Y-41938957D01*
X110671050Y-41878784D01*
X110671049Y-41878783D01*
X110671047Y-41878783D01*
X110490000Y-41858384D01*
X110308953Y-41878783D01*
X110308950Y-41878783D01*
X110308949Y-41878784D01*
X110136984Y-41938957D01*
X110136981Y-41938958D01*
X109982720Y-42035887D01*
X109982718Y-42035888D01*
X109853888Y-42164718D01*
X109853887Y-42164720D01*
X109756958Y-42318981D01*
X109756957Y-42318984D01*
X109721222Y-42421111D01*
X109696783Y-42490953D01*
X109676384Y-42671997D01*
X109676384Y-42672001D01*
X109676938Y-42676918D01*
X109664688Y-42746849D01*
X109616574Y-42799057D01*
X109595764Y-42809078D01*
X109493795Y-42847111D01*
X109493792Y-42847113D01*
X109415509Y-42905715D01*
X109348989Y-42930526D01*
X109279614Y-42915434D01*
X109264491Y-42905715D01*
X109186207Y-42847113D01*
X109186202Y-42847110D01*
X109049204Y-42796011D01*
X109049196Y-42796009D01*
X108988649Y-42789500D01*
X108988638Y-42789500D01*
X107391362Y-42789500D01*
X107391350Y-42789500D01*
X107330803Y-42796009D01*
X107330795Y-42796011D01*
X107193797Y-42847110D01*
X107193792Y-42847112D01*
X107076738Y-42934738D01*
X106989112Y-43051792D01*
X106989110Y-43051797D01*
X106938011Y-43188795D01*
X106938009Y-43188803D01*
X106931500Y-43249350D01*
X106931500Y-45346649D01*
X100330000Y-45346649D01*
X100330000Y-38643365D01*
X100350002Y-38575244D01*
X100403658Y-38528751D01*
X100473932Y-38518647D01*
X100538512Y-38548141D01*
X100576896Y-38607867D01*
X100577310Y-38609310D01*
X100632156Y-38805058D01*
X100746639Y-39068625D01*
X100895945Y-39314147D01*
X101077292Y-39537053D01*
X101287302Y-39733189D01*
X101522064Y-39898901D01*
X101622512Y-39950949D01*
X101777196Y-40031101D01*
X101777199Y-40031102D01*
X101777203Y-40031104D01*
X102047968Y-40127334D01*
X102329314Y-40185798D01*
X102329325Y-40185798D01*
X102329327Y-40185799D01*
X102462198Y-40194887D01*
X102544248Y-40200500D01*
X102544249Y-40200500D01*
X102687751Y-40200500D01*
X102687752Y-40200500D01*
X102820469Y-40191421D01*
X102902672Y-40185799D01*
X102902672Y-40185798D01*
X102902686Y-40185798D01*
X103184032Y-40127334D01*
X103454797Y-40031104D01*
X103709936Y-39898901D01*
X103944698Y-39733189D01*
X104154708Y-39537053D01*
X104336055Y-39314147D01*
X104485361Y-39068625D01*
X104494906Y-39046649D01*
X108081500Y-39046649D01*
X108088009Y-39107196D01*
X108088011Y-39107204D01*
X108139110Y-39244202D01*
X108139112Y-39244207D01*
X108226738Y-39361261D01*
X108343792Y-39448887D01*
X108343794Y-39448888D01*
X108343796Y-39448889D01*
X108402875Y-39470924D01*
X108480795Y-39499988D01*
X108480803Y-39499990D01*
X108541350Y-39506499D01*
X108541355Y-39506499D01*
X108541362Y-39506500D01*
X109655500Y-39506500D01*
X109723621Y-39526502D01*
X109770114Y-39580158D01*
X109781500Y-39632500D01*
X109781500Y-39703624D01*
X109762188Y-39770658D01*
X109756959Y-39778979D01*
X109756957Y-39778984D01*
X109714997Y-39898901D01*
X109696783Y-39950953D01*
X109676384Y-40132000D01*
X109696783Y-40313047D01*
X109696783Y-40313049D01*
X109696784Y-40313050D01*
X109756957Y-40485015D01*
X109756958Y-40485018D01*
X109853887Y-40639279D01*
X109853888Y-40639281D01*
X109982718Y-40768111D01*
X109982720Y-40768112D01*
X110136981Y-40865041D01*
X110136982Y-40865041D01*
X110136985Y-40865043D01*
X110308953Y-40925217D01*
X110490000Y-40945616D01*
X110671047Y-40925217D01*
X110843015Y-40865043D01*
X110997281Y-40768111D01*
X111126111Y-40639281D01*
X111223043Y-40485015D01*
X111283217Y-40313047D01*
X111303616Y-40132000D01*
X111283217Y-39950953D01*
X111223043Y-39778985D01*
X111223041Y-39778982D01*
X111223040Y-39778979D01*
X111217812Y-39770658D01*
X111198500Y-39703624D01*
X111198500Y-39632500D01*
X111218502Y-39564379D01*
X111272158Y-39517886D01*
X111324500Y-39506500D01*
X112438632Y-39506500D01*
X112438638Y-39506500D01*
X112438645Y-39506499D01*
X112438649Y-39506499D01*
X112499196Y-39499990D01*
X112499199Y-39499989D01*
X112499201Y-39499989D01*
X112636204Y-39448889D01*
X112753261Y-39361261D01*
X112840889Y-39244204D01*
X112891989Y-39107201D01*
X112896137Y-39068625D01*
X112898499Y-39046649D01*
X112898500Y-39046632D01*
X112898500Y-36949367D01*
X112898499Y-36949350D01*
X112891990Y-36888803D01*
X112891988Y-36888795D01*
X112840889Y-36751797D01*
X112840887Y-36751792D01*
X112753261Y-36634738D01*
X112636207Y-36547112D01*
X112636202Y-36547110D01*
X112499204Y-36496011D01*
X112499196Y-36496009D01*
X112438649Y-36489500D01*
X112438638Y-36489500D01*
X108541362Y-36489500D01*
X108541350Y-36489500D01*
X108480803Y-36496009D01*
X108480795Y-36496011D01*
X108343797Y-36547110D01*
X108343792Y-36547112D01*
X108226738Y-36634738D01*
X108139112Y-36751792D01*
X108139110Y-36751797D01*
X108088011Y-36888795D01*
X108088009Y-36888803D01*
X108081500Y-36949350D01*
X108081500Y-39046649D01*
X104494906Y-39046649D01*
X104599844Y-38805058D01*
X104677371Y-38528358D01*
X104716500Y-38243678D01*
X104716500Y-37956322D01*
X104716500Y-37956321D01*
X104716499Y-37956311D01*
X104677371Y-37671642D01*
X104664234Y-37624755D01*
X104599844Y-37394942D01*
X104485361Y-37131375D01*
X104336055Y-36885853D01*
X104154708Y-36662947D01*
X103944698Y-36466811D01*
X103796426Y-36362150D01*
X103709938Y-36301100D01*
X103454803Y-36168898D01*
X103184033Y-36072666D01*
X103184025Y-36072664D01*
X103150186Y-36065632D01*
X103139271Y-36063364D01*
X103076645Y-36029922D01*
X103042041Y-35967929D01*
X103046446Y-35897069D01*
X103088462Y-35839840D01*
X103154748Y-35814410D01*
X103164907Y-35814000D01*
X147025093Y-35814000D01*
X147093214Y-35834002D01*
G37*
%TD.AperFunction*%
%TD*%
M02*
