%TF.GenerationSoftware,KiCad,Pcbnew,7.0.8*%
%TF.CreationDate,2024-01-15T19:45:52-06:00*%
%TF.ProjectId,remote,72656d6f-7465-42e6-9b69-6361645f7063,rev?*%
%TF.SameCoordinates,Original*%
%TF.FileFunction,Copper,L1,Top*%
%TF.FilePolarity,Positive*%
%FSLAX46Y46*%
G04 Gerber Fmt 4.6, Leading zero omitted, Abs format (unit mm)*
G04 Created by KiCad (PCBNEW 7.0.8) date 2024-01-15 19:45:52*
%MOMM*%
%LPD*%
G01*
G04 APERTURE LIST*
G04 Aperture macros list*
%AMRoundRect*
0 Rectangle with rounded corners*
0 $1 Rounding radius*
0 $2 $3 $4 $5 $6 $7 $8 $9 X,Y pos of 4 corners*
0 Add a 4 corners polygon primitive as box body*
4,1,4,$2,$3,$4,$5,$6,$7,$8,$9,$2,$3,0*
0 Add four circle primitives for the rounded corners*
1,1,$1+$1,$2,$3*
1,1,$1+$1,$4,$5*
1,1,$1+$1,$6,$7*
1,1,$1+$1,$8,$9*
0 Add four rect primitives between the rounded corners*
20,1,$1+$1,$2,$3,$4,$5,0*
20,1,$1+$1,$4,$5,$6,$7,0*
20,1,$1+$1,$6,$7,$8,$9,0*
20,1,$1+$1,$8,$9,$2,$3,0*%
G04 Aperture macros list end*
%TA.AperFunction,ComponentPad*%
%ADD10O,1.700000X1.700000*%
%TD*%
%TA.AperFunction,ComponentPad*%
%ADD11R,1.700000X1.700000*%
%TD*%
%TA.AperFunction,ComponentPad*%
%ADD12C,2.000000*%
%TD*%
%TA.AperFunction,SMDPad,CuDef*%
%ADD13RoundRect,0.250000X0.650000X-0.350000X0.650000X0.350000X-0.650000X0.350000X-0.650000X-0.350000X0*%
%TD*%
%TA.AperFunction,SMDPad,CuDef*%
%ADD14RoundRect,0.150000X0.625000X-0.150000X0.625000X0.150000X-0.625000X0.150000X-0.625000X-0.150000X0*%
%TD*%
%TA.AperFunction,ComponentPad*%
%ADD15R,2.300000X2.300000*%
%TD*%
%TA.AperFunction,ViaPad*%
%ADD16C,0.600000*%
%TD*%
%TA.AperFunction,Conductor*%
%ADD17C,0.200000*%
%TD*%
%TA.AperFunction,Conductor*%
%ADD18C,0.150000*%
%TD*%
%TA.AperFunction,Conductor*%
%ADD19C,0.127000*%
%TD*%
%TA.AperFunction,Conductor*%
%ADD20C,0.400000*%
%TD*%
G04 APERTURE END LIST*
D10*
%TO.P,J6,5,Pin_5*%
%TO.N,GND*%
X120162000Y-81452000D03*
%TO.P,J6,4,Pin_4*%
%TO.N,/IRQ*%
X122702000Y-81452000D03*
%TO.P,J6,3,Pin_3*%
%TO.N,+5V*%
X125242000Y-81452000D03*
%TO.P,J6,2,Pin_2*%
%TO.N,/SCL*%
X127782000Y-81452000D03*
D11*
%TO.P,J6,1,Pin_1*%
%TO.N,/SDA*%
X130322000Y-81452000D03*
%TD*%
D12*
%TO.P,SW3,1,1*%
%TO.N,Net-(U2-GP2)*%
X134159000Y-62012000D03*
X140659000Y-62012000D03*
%TO.P,SW3,2,2*%
%TO.N,Net-(R3-Pad2)*%
X134159000Y-66512000D03*
X140659000Y-66512000D03*
%TD*%
%TO.P,SW2,1,1*%
%TO.N,Net-(U2-GP3)*%
X121967000Y-73696000D03*
X128467000Y-73696000D03*
%TO.P,SW2,2,2*%
%TO.N,Net-(R3-Pad2)*%
X121967000Y-78196000D03*
X128467000Y-78196000D03*
%TD*%
D13*
%TO.P,J4,MP*%
%TO.N,N/C*%
X148433000Y-52826000D03*
X148433000Y-58426000D03*
D14*
%TO.P,J4,4,Pin_4*%
%TO.N,/SCL*%
X144558000Y-54126000D03*
%TO.P,J4,3,Pin_3*%
%TO.N,/SDA*%
X144558000Y-55126000D03*
%TO.P,J4,2,Pin_2*%
%TO.N,+3V3*%
X144558000Y-56126000D03*
%TO.P,J4,1,Pin_1*%
%TO.N,GND*%
X144558000Y-57126000D03*
%TD*%
D12*
%TO.P,SW4,1,1*%
%TO.N,Net-(U2-GP1)*%
X109780000Y-62012000D03*
X116280000Y-62012000D03*
%TO.P,SW4,2,2*%
%TO.N,Net-(R3-Pad2)*%
X109780000Y-66512000D03*
X116280000Y-66512000D03*
%TD*%
%TO.P,SW1,1,1*%
%TO.N,Net-(U2-GP0)*%
X121967000Y-62012000D03*
X128467000Y-62012000D03*
%TO.P,SW1,2,2*%
%TO.N,Net-(R3-Pad2)*%
X121967000Y-66512000D03*
X128467000Y-66512000D03*
%TD*%
D11*
%TO.P,J3,1,Pin_1*%
%TO.N,+3V3*%
X134605000Y-51557000D03*
D10*
%TO.P,J3,2,Pin_2*%
%TO.N,+5V*%
X134605000Y-54097000D03*
%TO.P,J3,3,Pin_3*%
%TO.N,/SDA*%
X132065000Y-51557000D03*
%TO.P,J3,4,Pin_4*%
%TO.N,+5V*%
X132065000Y-54097000D03*
%TO.P,J3,5,Pin_5*%
%TO.N,/SCL*%
X129525000Y-51557000D03*
%TO.P,J3,6,Pin_6*%
%TO.N,GND*%
X129525000Y-54097000D03*
%TD*%
D11*
%TO.P,J2,1,Pin_1*%
%TO.N,GND*%
X144272000Y-42164000D03*
D10*
%TO.P,J2,2,Pin_2*%
%TO.N,+5V*%
X144272000Y-44704000D03*
%TO.P,J2,3,Pin_3*%
%TO.N,/SCL*%
X144272000Y-47244000D03*
%TO.P,J2,4,Pin_4*%
%TO.N,/SDA*%
X144272000Y-49784000D03*
%TD*%
D15*
%TO.P,J1,9*%
%TO.N,N/C*%
X131838000Y-44022000D03*
%TO.P,J1,8*%
X119098000Y-44022000D03*
%TD*%
D16*
%TO.N,+5V*%
X124206000Y-49276000D03*
%TO.N,Net-(U2-GP2)*%
X128016000Y-64262000D03*
X123825000Y-64262000D03*
%TO.N,GND*%
X112522000Y-68580000D03*
X108077000Y-70104000D03*
%TO.N,+3V3*%
X112776000Y-70485000D03*
%TO.N,/SDA*%
X110236000Y-70739000D03*
X108839000Y-74295000D03*
%TO.N,Net-(U2-GP3)*%
X117602000Y-74295000D03*
%TO.N,Net-(U2-GP2)*%
X117348000Y-72390000D03*
%TO.N,Net-(U2-GP3)*%
X117602000Y-77978000D03*
%TO.N,Net-(U2-GP2)*%
X116840000Y-77978000D03*
%TO.N,+3V3*%
X137160000Y-51562000D03*
X110490000Y-40132000D03*
X108966000Y-51562000D03*
X105664000Y-74930000D03*
X110490000Y-42672000D03*
%TO.N,GND*%
X101092000Y-77978000D03*
X102870000Y-77978000D03*
X146050000Y-57150000D03*
%TO.N,+5V*%
X108204000Y-45974000D03*
%TO.N,/SCL*%
X114808000Y-51562000D03*
X126741000Y-48773000D03*
X143002000Y-54102000D03*
X146050000Y-54102000D03*
%TO.N,/SDA*%
X128016000Y-49022000D03*
X114808000Y-48006000D03*
%TD*%
D17*
%TO.N,+5V*%
X115297000Y-52089000D02*
X118110000Y-49276000D01*
X112033000Y-52089000D02*
X115297000Y-52089000D01*
X118110000Y-49276000D02*
X124206000Y-49276000D01*
X108204000Y-45974000D02*
X108204000Y-48260000D01*
X108204000Y-48260000D02*
X112033000Y-52089000D01*
X130927000Y-52959000D02*
X127889000Y-52959000D01*
X127889000Y-52959000D02*
X124206000Y-49276000D01*
X132065000Y-54097000D02*
X130927000Y-52959000D01*
D18*
%TO.N,/SCL*%
X118087000Y-48283000D02*
X126251000Y-48283000D01*
X126251000Y-48283000D02*
X126741000Y-48773000D01*
X114808000Y-51562000D02*
X118087000Y-48283000D01*
D17*
%TO.N,Net-(U2-GP2)*%
X123825000Y-64262000D02*
X128016000Y-64262000D01*
%TO.N,GND*%
X109601000Y-68580000D02*
X108077000Y-70104000D01*
X112522000Y-68580000D02*
X109601000Y-68580000D01*
D19*
%TO.N,/SDA*%
X108839000Y-72263000D02*
X110236000Y-70866000D01*
X108839000Y-74295000D02*
X108839000Y-72263000D01*
D18*
%TO.N,Net-(U2-GP3)*%
X117602000Y-74295000D02*
X117602000Y-74422000D01*
%TO.N,Net-(U2-GP2)*%
X116840000Y-72898000D02*
X117348000Y-72390000D01*
X116840000Y-77978000D02*
X116840000Y-72898000D01*
%TO.N,Net-(U2-GP3)*%
X117602000Y-77978000D02*
X117602000Y-74295000D01*
D19*
%TO.N,+3V3*%
X144558000Y-56126000D02*
X144550000Y-56134000D01*
D20*
%TO.N,GND*%
X144558000Y-57126000D02*
X146026000Y-57126000D01*
D17*
X102870000Y-77978000D02*
X101092000Y-77978000D01*
D20*
X146050000Y-57150000D02*
X146026000Y-57126000D01*
D17*
%TO.N,+5V*%
X136398000Y-49530000D02*
X136398000Y-53594000D01*
X139446000Y-49530000D02*
X144272000Y-44704000D01*
D19*
X132065000Y-54097000D02*
X134605000Y-54097000D01*
D17*
X135895000Y-54097000D02*
X134605000Y-54097000D01*
X136398000Y-53594000D02*
X135895000Y-54097000D01*
X136398000Y-49530000D02*
X139446000Y-49530000D01*
D19*
%TO.N,/SCL*%
X144582000Y-54102000D02*
X144558000Y-54126000D01*
X146050000Y-54102000D02*
X144582000Y-54102000D01*
X144534000Y-54102000D02*
X144558000Y-54126000D01*
X143002000Y-54102000D02*
X144534000Y-54102000D01*
%TO.N,/SDA*%
X144558000Y-55126000D02*
X146550000Y-55126000D01*
X146550000Y-55126000D02*
X146812000Y-54864000D01*
D18*
X127000000Y-48006000D02*
X114808000Y-48006000D01*
D19*
X146812000Y-54864000D02*
X146812000Y-52324000D01*
D18*
X128016000Y-49022000D02*
X127000000Y-48006000D01*
D19*
X146812000Y-52324000D02*
X144272000Y-49784000D01*
D17*
%TO.N,Net-(R3-Pad2)*%
X134159000Y-66512000D02*
X140659000Y-66512000D01*
X109780000Y-66512000D02*
X116280000Y-66512000D01*
X128467000Y-78196000D02*
X121967000Y-78196000D01*
X121967000Y-66512000D02*
X128467000Y-66512000D01*
D19*
%TO.N,Net-(U2-GP0)*%
X121967000Y-62012000D02*
X128467000Y-62012000D01*
%TO.N,Net-(U2-GP3)*%
X121967000Y-73696000D02*
X128467000Y-73696000D01*
%TO.N,Net-(U2-GP2)*%
X134159000Y-62012000D02*
X140659000Y-62012000D01*
%TO.N,Net-(U2-GP1)*%
X109780000Y-62012000D02*
X116280000Y-62012000D01*
%TD*%
%TA.AperFunction,Conductor*%
%TO.N,+3V3*%
G36*
X147093214Y-35834002D02*
G01*
X147139707Y-35887658D01*
X147149811Y-35957932D01*
X147120317Y-36022512D01*
X147060591Y-36060896D01*
X147050732Y-36063363D01*
X147042254Y-36065125D01*
X147005974Y-36072664D01*
X147005966Y-36072666D01*
X146735196Y-36168898D01*
X146480061Y-36301100D01*
X146245302Y-36466811D01*
X146035294Y-36662944D01*
X146035184Y-36663080D01*
X145853945Y-36885853D01*
X145828337Y-36927964D01*
X145704639Y-37131375D01*
X145590157Y-37394939D01*
X145512628Y-37671642D01*
X145473500Y-37956311D01*
X145473500Y-38243688D01*
X145512628Y-38528357D01*
X145544852Y-38643365D01*
X145590156Y-38805058D01*
X145704639Y-39068625D01*
X145853945Y-39314147D01*
X146035292Y-39537053D01*
X146245302Y-39733189D01*
X146480064Y-39898901D01*
X146586030Y-39953808D01*
X146735196Y-40031101D01*
X146735199Y-40031102D01*
X146735203Y-40031104D01*
X147005968Y-40127334D01*
X147287314Y-40185798D01*
X147287325Y-40185798D01*
X147287327Y-40185799D01*
X147420198Y-40194887D01*
X147502248Y-40200500D01*
X147502249Y-40200500D01*
X147645751Y-40200500D01*
X147645752Y-40200500D01*
X147778469Y-40191421D01*
X147860672Y-40185799D01*
X147860672Y-40185798D01*
X147860686Y-40185798D01*
X148142032Y-40127334D01*
X148412797Y-40031104D01*
X148667936Y-39898901D01*
X148902698Y-39733189D01*
X149112708Y-39537053D01*
X149294055Y-39314147D01*
X149443361Y-39068625D01*
X149557844Y-38805058D01*
X149612672Y-38609369D01*
X149650311Y-38549173D01*
X149714521Y-38518880D01*
X149784915Y-38528110D01*
X149839144Y-38573933D01*
X149859990Y-38641800D01*
X149860000Y-38643365D01*
X149860000Y-51876127D01*
X149839998Y-51944248D01*
X149786342Y-51990741D01*
X149716068Y-52000845D01*
X149651488Y-51971351D01*
X149644905Y-51965222D01*
X149556658Y-51876975D01*
X149556652Y-51876970D01*
X149526213Y-51858195D01*
X149405738Y-51783885D01*
X149265278Y-51737342D01*
X149237427Y-51728113D01*
X149237420Y-51728112D01*
X149133553Y-51717500D01*
X147732455Y-51717500D01*
X147628574Y-51728112D01*
X147460261Y-51783885D01*
X147310368Y-51876341D01*
X147241888Y-51895078D01*
X147174150Y-51873819D01*
X147155126Y-51858195D01*
X145604292Y-50307361D01*
X145570266Y-50245049D01*
X145571242Y-50187336D01*
X145616564Y-50008368D01*
X145635156Y-49784000D01*
X145616564Y-49559632D01*
X145578447Y-49409111D01*
X145561297Y-49341387D01*
X145561296Y-49341386D01*
X145561296Y-49341384D01*
X145470860Y-49135209D01*
X145444560Y-49094954D01*
X145347724Y-48946734D01*
X145347720Y-48946729D01*
X145216875Y-48804596D01*
X145195240Y-48781094D01*
X145195239Y-48781093D01*
X145195237Y-48781091D01*
X145083326Y-48693987D01*
X145017576Y-48642811D01*
X145016284Y-48642112D01*
X144984320Y-48624814D01*
X144933929Y-48574802D01*
X144918576Y-48505485D01*
X144943136Y-48438872D01*
X144984320Y-48403186D01*
X145017576Y-48385189D01*
X145195240Y-48246906D01*
X145347722Y-48081268D01*
X145470860Y-47892791D01*
X145561296Y-47686616D01*
X145616564Y-47468368D01*
X145635156Y-47244000D01*
X145616564Y-47019632D01*
X145561296Y-46801384D01*
X145470860Y-46595209D01*
X145439460Y-46547148D01*
X145347724Y-46406734D01*
X145347720Y-46406729D01*
X145195237Y-46241091D01*
X145084688Y-46155047D01*
X145017576Y-46102811D01*
X144984319Y-46084813D01*
X144933929Y-46034802D01*
X144918576Y-45965485D01*
X144943136Y-45898872D01*
X144984320Y-45863186D01*
X145017576Y-45845189D01*
X145195240Y-45706906D01*
X145347722Y-45541268D01*
X145470860Y-45352791D01*
X145561296Y-45146616D01*
X145616564Y-44928368D01*
X145635156Y-44704000D01*
X145616564Y-44479632D01*
X145561296Y-44261384D01*
X145470860Y-44055209D01*
X145464140Y-44044924D01*
X145347724Y-43866734D01*
X145347719Y-43866729D01*
X145204524Y-43711179D01*
X145173103Y-43647514D01*
X145181090Y-43576968D01*
X145225948Y-43521939D01*
X145253183Y-43507789D01*
X145368204Y-43464889D01*
X145485261Y-43377261D01*
X145572889Y-43260204D01*
X145623989Y-43123201D01*
X145630500Y-43062638D01*
X145630500Y-41265362D01*
X145630499Y-41265350D01*
X145623990Y-41204803D01*
X145623988Y-41204795D01*
X145572889Y-41067797D01*
X145572887Y-41067792D01*
X145485261Y-40950738D01*
X145368207Y-40863112D01*
X145368202Y-40863110D01*
X145231204Y-40812011D01*
X145231196Y-40812009D01*
X145170649Y-40805500D01*
X145170638Y-40805500D01*
X143373362Y-40805500D01*
X143373350Y-40805500D01*
X143312803Y-40812009D01*
X143312795Y-40812011D01*
X143175797Y-40863110D01*
X143175792Y-40863112D01*
X143058738Y-40950738D01*
X142971112Y-41067792D01*
X142971110Y-41067797D01*
X142920011Y-41204795D01*
X142920009Y-41204803D01*
X142913500Y-41265350D01*
X142913500Y-43062649D01*
X142920009Y-43123196D01*
X142920011Y-43123204D01*
X142971110Y-43260202D01*
X142971112Y-43260207D01*
X143058738Y-43377261D01*
X143175791Y-43464886D01*
X143175792Y-43464886D01*
X143175796Y-43464889D01*
X143290810Y-43507787D01*
X143347642Y-43550332D01*
X143372453Y-43616852D01*
X143357362Y-43686226D01*
X143339475Y-43711179D01*
X143196280Y-43866729D01*
X143196275Y-43866734D01*
X143073141Y-44055206D01*
X142982703Y-44261386D01*
X142982702Y-44261387D01*
X142927437Y-44479624D01*
X142908844Y-44704000D01*
X142927436Y-44928369D01*
X142962326Y-45066147D01*
X142959658Y-45137094D01*
X142929276Y-45186173D01*
X139230856Y-48884595D01*
X139168544Y-48918620D01*
X139141761Y-48921500D01*
X136442018Y-48921500D01*
X136433786Y-48920960D01*
X136398001Y-48916249D01*
X136398000Y-48916249D01*
X136358115Y-48921500D01*
X136342454Y-48923561D01*
X136239151Y-48937161D01*
X136091126Y-48998475D01*
X136091118Y-48998480D01*
X135964014Y-49096011D01*
X135866477Y-49223121D01*
X135805161Y-49371151D01*
X135784249Y-49529999D01*
X135784249Y-49530000D01*
X135788960Y-49565786D01*
X135789500Y-49574018D01*
X135789500Y-50108102D01*
X135769498Y-50176223D01*
X135715842Y-50222716D01*
X135645568Y-50232820D01*
X135619469Y-50226158D01*
X135564095Y-50205505D01*
X135564096Y-50205505D01*
X135503597Y-50199000D01*
X134859000Y-50199000D01*
X134859000Y-51123325D01*
X134747315Y-51072320D01*
X134640763Y-51057000D01*
X134569237Y-51057000D01*
X134462685Y-51072320D01*
X134351000Y-51123325D01*
X134351000Y-50199000D01*
X133706402Y-50199000D01*
X133645906Y-50205505D01*
X133509035Y-50256555D01*
X133509034Y-50256555D01*
X133392095Y-50344095D01*
X133304555Y-50461034D01*
X133304553Y-50461039D01*
X133260380Y-50579470D01*
X133217833Y-50636306D01*
X133151313Y-50661116D01*
X133081939Y-50646024D01*
X133049626Y-50620777D01*
X132988240Y-50554094D01*
X132988239Y-50554093D01*
X132988237Y-50554091D01*
X132868684Y-50461039D01*
X132810576Y-50415811D01*
X132612574Y-50308658D01*
X132612572Y-50308657D01*
X132612571Y-50308656D01*
X132399639Y-50235557D01*
X132399630Y-50235555D01*
X132343315Y-50226158D01*
X132177569Y-50198500D01*
X131952431Y-50198500D01*
X131804211Y-50223233D01*
X131730369Y-50235555D01*
X131730360Y-50235557D01*
X131517428Y-50308656D01*
X131517426Y-50308658D01*
X131319426Y-50415810D01*
X131319424Y-50415811D01*
X131141762Y-50554091D01*
X130989279Y-50719729D01*
X130900483Y-50855643D01*
X130846479Y-50901731D01*
X130776131Y-50911306D01*
X130711774Y-50881329D01*
X130689517Y-50855643D01*
X130632769Y-50768783D01*
X130600722Y-50719732D01*
X130600721Y-50719731D01*
X130600720Y-50719729D01*
X130448237Y-50554091D01*
X130328684Y-50461039D01*
X130270576Y-50415811D01*
X130072574Y-50308658D01*
X130072572Y-50308657D01*
X130072571Y-50308656D01*
X129859639Y-50235557D01*
X129859630Y-50235555D01*
X129803315Y-50226158D01*
X129637569Y-50198500D01*
X129412431Y-50198500D01*
X129264211Y-50223233D01*
X129190369Y-50235555D01*
X129190360Y-50235557D01*
X128977428Y-50308656D01*
X128977426Y-50308658D01*
X128779426Y-50415810D01*
X128779424Y-50415811D01*
X128601762Y-50554091D01*
X128449279Y-50719729D01*
X128449275Y-50719734D01*
X128326141Y-50908206D01*
X128235703Y-51114386D01*
X128235702Y-51114387D01*
X128180437Y-51332624D01*
X128180436Y-51332630D01*
X128180436Y-51332632D01*
X128161844Y-51557000D01*
X128179232Y-51766844D01*
X128180437Y-51781375D01*
X128235702Y-51999612D01*
X128235703Y-51999613D01*
X128235704Y-51999616D01*
X128254155Y-52041680D01*
X128312146Y-52173887D01*
X128321192Y-52244305D01*
X128290731Y-52308435D01*
X128230435Y-52345916D01*
X128196758Y-52350500D01*
X128193239Y-52350500D01*
X128125118Y-52330498D01*
X128104144Y-52313595D01*
X125044832Y-49254283D01*
X125010806Y-49191971D01*
X125008720Y-49179306D01*
X124999217Y-49094953D01*
X124977929Y-49034115D01*
X124974310Y-48963211D01*
X125009599Y-48901605D01*
X125072592Y-48868859D01*
X125096858Y-48866500D01*
X125827748Y-48866500D01*
X125895869Y-48886502D01*
X125942362Y-48940158D01*
X125946677Y-48950885D01*
X125947782Y-48954045D01*
X125947783Y-48954047D01*
X125963331Y-48998480D01*
X126007957Y-49126015D01*
X126007958Y-49126018D01*
X126104887Y-49280279D01*
X126104888Y-49280281D01*
X126233718Y-49409111D01*
X126233720Y-49409112D01*
X126387981Y-49506041D01*
X126387982Y-49506041D01*
X126387985Y-49506043D01*
X126559953Y-49566217D01*
X126741000Y-49586616D01*
X126922047Y-49566217D01*
X127094015Y-49506043D01*
X127181815Y-49450874D01*
X127250134Y-49431569D01*
X127318048Y-49452264D01*
X127355538Y-49490527D01*
X127379889Y-49529282D01*
X127508718Y-49658111D01*
X127508720Y-49658112D01*
X127662981Y-49755041D01*
X127662982Y-49755041D01*
X127662985Y-49755043D01*
X127834953Y-49815217D01*
X128016000Y-49835616D01*
X128197047Y-49815217D01*
X128369015Y-49755043D01*
X128523281Y-49658111D01*
X128652111Y-49529281D01*
X128749043Y-49375015D01*
X128809217Y-49203047D01*
X128829616Y-49022000D01*
X128809217Y-48840953D01*
X128749043Y-48668985D01*
X128749041Y-48668982D01*
X128749041Y-48668981D01*
X128652112Y-48514720D01*
X128652111Y-48514718D01*
X128523281Y-48385888D01*
X128523279Y-48385887D01*
X128369018Y-48288958D01*
X128369015Y-48288957D01*
X128286260Y-48260000D01*
X128197047Y-48228783D01*
X128097052Y-48217516D01*
X128072857Y-48214790D01*
X128007404Y-48187286D01*
X127997870Y-48178677D01*
X127774954Y-47955761D01*
X127442556Y-47623363D01*
X127437129Y-47617175D01*
X127416157Y-47589843D01*
X127416155Y-47589842D01*
X127416155Y-47589841D01*
X127334897Y-47527490D01*
X127294267Y-47496314D01*
X127152324Y-47437519D01*
X127152322Y-47437518D01*
X127055538Y-47424776D01*
X127038244Y-47422500D01*
X127000000Y-47417465D01*
X126999999Y-47417465D01*
X126965854Y-47421960D01*
X126957622Y-47422500D01*
X115420083Y-47422500D01*
X115351962Y-47402498D01*
X115330988Y-47385595D01*
X115315281Y-47369888D01*
X115315279Y-47369887D01*
X115161018Y-47272958D01*
X115161015Y-47272957D01*
X114989050Y-47212784D01*
X114989049Y-47212783D01*
X114989047Y-47212783D01*
X114808000Y-47192384D01*
X114626953Y-47212783D01*
X114626950Y-47212783D01*
X114626949Y-47212784D01*
X114454984Y-47272957D01*
X114454981Y-47272958D01*
X114300720Y-47369887D01*
X114300718Y-47369888D01*
X114171888Y-47498718D01*
X114171887Y-47498720D01*
X114074958Y-47652981D01*
X114074957Y-47652984D01*
X114074957Y-47652985D01*
X114014783Y-47824953D01*
X113994384Y-48006000D01*
X114014783Y-48187047D01*
X114014783Y-48187049D01*
X114014784Y-48187050D01*
X114074957Y-48359015D01*
X114074958Y-48359018D01*
X114171887Y-48513279D01*
X114171888Y-48513281D01*
X114300718Y-48642111D01*
X114300720Y-48642112D01*
X114454981Y-48739041D01*
X114454982Y-48739041D01*
X114454985Y-48739043D01*
X114626953Y-48799217D01*
X114808000Y-48819616D01*
X114989047Y-48799217D01*
X115161015Y-48739043D01*
X115315281Y-48642111D01*
X115330988Y-48626405D01*
X115393300Y-48592379D01*
X115420083Y-48589500D01*
X116651117Y-48589500D01*
X116719238Y-48609502D01*
X116765731Y-48663158D01*
X116775835Y-48733432D01*
X116746341Y-48798012D01*
X116740226Y-48804580D01*
X115299757Y-50245049D01*
X114826128Y-50718678D01*
X114763816Y-50752703D01*
X114751142Y-50754790D01*
X114715994Y-50758750D01*
X114626953Y-50768783D01*
X114626950Y-50768783D01*
X114626949Y-50768784D01*
X114454984Y-50828957D01*
X114454981Y-50828958D01*
X114300720Y-50925887D01*
X114300718Y-50925888D01*
X114171888Y-51054718D01*
X114171887Y-51054720D01*
X114074958Y-51208981D01*
X114074957Y-51208984D01*
X114014781Y-51380958D01*
X114014418Y-51382549D01*
X114013901Y-51383471D01*
X114012446Y-51387632D01*
X114011716Y-51387376D01*
X113979754Y-51444508D01*
X113917095Y-51477890D01*
X113891580Y-51480500D01*
X112337239Y-51480500D01*
X112269118Y-51460498D01*
X112248144Y-51443595D01*
X108849405Y-48044856D01*
X108815379Y-47982544D01*
X108812500Y-47955761D01*
X108812500Y-46559993D01*
X108832502Y-46491872D01*
X108839999Y-46481421D01*
X108840104Y-46481287D01*
X108840111Y-46481281D01*
X108937043Y-46327015D01*
X108997217Y-46155047D01*
X109017616Y-45974000D01*
X108997217Y-45792953D01*
X108937043Y-45620985D01*
X108937041Y-45620982D01*
X108937041Y-45620981D01*
X108840112Y-45466720D01*
X108840111Y-45466718D01*
X108711281Y-45337888D01*
X108711279Y-45337887D01*
X108557018Y-45240958D01*
X108557015Y-45240957D01*
X108498978Y-45220649D01*
X117439500Y-45220649D01*
X117446009Y-45281196D01*
X117446011Y-45281204D01*
X117497110Y-45418202D01*
X117497112Y-45418207D01*
X117584738Y-45535261D01*
X117701792Y-45622887D01*
X117701794Y-45622888D01*
X117701796Y-45622889D01*
X117760875Y-45644924D01*
X117838795Y-45673988D01*
X117838803Y-45673990D01*
X117899350Y-45680499D01*
X117899355Y-45680499D01*
X117899362Y-45680500D01*
X117899368Y-45680500D01*
X120296632Y-45680500D01*
X120296638Y-45680500D01*
X120296645Y-45680499D01*
X120296649Y-45680499D01*
X120357196Y-45673990D01*
X120357199Y-45673989D01*
X120357201Y-45673989D01*
X120494204Y-45622889D01*
X120496748Y-45620985D01*
X120611261Y-45535261D01*
X120698887Y-45418207D01*
X120698887Y-45418206D01*
X120698889Y-45418204D01*
X120749989Y-45281201D01*
X120754316Y-45240958D01*
X120756499Y-45220649D01*
X130179500Y-45220649D01*
X130186009Y-45281196D01*
X130186011Y-45281204D01*
X130237110Y-45418202D01*
X130237112Y-45418207D01*
X130324738Y-45535261D01*
X130441792Y-45622887D01*
X130441794Y-45622888D01*
X130441796Y-45622889D01*
X130500875Y-45644924D01*
X130578795Y-45673988D01*
X130578803Y-45673990D01*
X130639350Y-45680499D01*
X130639355Y-45680499D01*
X130639362Y-45680500D01*
X130639368Y-45680500D01*
X133036632Y-45680500D01*
X133036638Y-45680500D01*
X133036645Y-45680499D01*
X133036649Y-45680499D01*
X133097196Y-45673990D01*
X133097199Y-45673989D01*
X133097201Y-45673989D01*
X133234204Y-45622889D01*
X133236748Y-45620985D01*
X133351261Y-45535261D01*
X133438887Y-45418207D01*
X133438887Y-45418206D01*
X133438889Y-45418204D01*
X133489989Y-45281201D01*
X133494316Y-45240958D01*
X133496499Y-45220649D01*
X133496500Y-45220632D01*
X133496500Y-42823367D01*
X133496499Y-42823350D01*
X133489990Y-42762803D01*
X133489988Y-42762795D01*
X133438889Y-42625797D01*
X133438887Y-42625792D01*
X133351261Y-42508738D01*
X133234207Y-42421112D01*
X133234202Y-42421110D01*
X133097204Y-42370011D01*
X133097196Y-42370009D01*
X133036649Y-42363500D01*
X133036638Y-42363500D01*
X130639362Y-42363500D01*
X130639350Y-42363500D01*
X130578803Y-42370009D01*
X130578795Y-42370011D01*
X130441797Y-42421110D01*
X130441792Y-42421112D01*
X130324738Y-42508738D01*
X130237112Y-42625792D01*
X130237110Y-42625797D01*
X130186011Y-42762795D01*
X130186009Y-42762803D01*
X130179500Y-42823350D01*
X130179500Y-45220649D01*
X120756499Y-45220649D01*
X120756500Y-45220632D01*
X120756500Y-42823367D01*
X120756499Y-42823350D01*
X120749990Y-42762803D01*
X120749988Y-42762795D01*
X120698889Y-42625797D01*
X120698887Y-42625792D01*
X120611261Y-42508738D01*
X120494207Y-42421112D01*
X120494202Y-42421110D01*
X120357204Y-42370011D01*
X120357196Y-42370009D01*
X120296649Y-42363500D01*
X120296638Y-42363500D01*
X117899362Y-42363500D01*
X117899350Y-42363500D01*
X117838803Y-42370009D01*
X117838795Y-42370011D01*
X117701797Y-42421110D01*
X117701792Y-42421112D01*
X117584738Y-42508738D01*
X117497112Y-42625792D01*
X117497110Y-42625797D01*
X117446011Y-42762795D01*
X117446009Y-42762803D01*
X117439500Y-42823350D01*
X117439500Y-45220649D01*
X108498978Y-45220649D01*
X108385050Y-45180784D01*
X108385049Y-45180783D01*
X108385047Y-45180783D01*
X108204000Y-45160384D01*
X108022953Y-45180783D01*
X108022950Y-45180783D01*
X108022949Y-45180784D01*
X107850984Y-45240957D01*
X107850981Y-45240958D01*
X107696720Y-45337887D01*
X107696718Y-45337888D01*
X107567888Y-45466718D01*
X107567887Y-45466720D01*
X107470958Y-45620981D01*
X107470957Y-45620984D01*
X107452410Y-45673990D01*
X107410783Y-45792953D01*
X107390384Y-45974000D01*
X107410783Y-46155047D01*
X107410783Y-46155049D01*
X107410784Y-46155050D01*
X107470957Y-46327015D01*
X107470958Y-46327018D01*
X107567883Y-46481273D01*
X107568001Y-46481421D01*
X107568047Y-46481534D01*
X107571653Y-46487273D01*
X107570648Y-46487904D01*
X107594844Y-46547148D01*
X107595500Y-46559993D01*
X107595500Y-48215988D01*
X107594960Y-48224219D01*
X107591973Y-48246908D01*
X107590250Y-48260000D01*
X107595500Y-48299879D01*
X107595500Y-48299885D01*
X107603285Y-48359015D01*
X107606823Y-48385889D01*
X107611161Y-48418849D01*
X107611162Y-48418850D01*
X107672475Y-48566874D01*
X107672480Y-48566882D01*
X107689551Y-48589129D01*
X107730743Y-48642811D01*
X107745525Y-48662074D01*
X107770014Y-48693988D01*
X107798651Y-48715962D01*
X107804844Y-48721393D01*
X111571605Y-52488154D01*
X111577037Y-52494348D01*
X111580568Y-52498949D01*
X111599013Y-52522987D01*
X111628836Y-52545871D01*
X111628873Y-52545901D01*
X111726117Y-52620519D01*
X111726124Y-52620524D01*
X111874149Y-52681838D01*
X111893543Y-52684391D01*
X111993115Y-52697500D01*
X111993120Y-52697500D01*
X112033000Y-52702750D01*
X112068792Y-52698038D01*
X112077014Y-52697500D01*
X115252988Y-52697500D01*
X115261219Y-52698040D01*
X115273549Y-52699662D01*
X115297000Y-52702750D01*
X115336880Y-52697500D01*
X115336885Y-52697500D01*
X115414791Y-52687243D01*
X115436457Y-52684391D01*
X115440335Y-52683880D01*
X115455851Y-52681838D01*
X115603876Y-52620524D01*
X115699072Y-52547477D01*
X115699072Y-52547476D01*
X115707291Y-52541170D01*
X115707300Y-52541162D01*
X115730987Y-52522987D01*
X115752965Y-52494344D01*
X115758384Y-52488163D01*
X118325144Y-49921405D01*
X118387456Y-49887379D01*
X118414239Y-49884500D01*
X123620006Y-49884500D01*
X123688127Y-49904502D01*
X123698570Y-49911992D01*
X123698725Y-49912116D01*
X123852981Y-50009041D01*
X123852982Y-50009041D01*
X123852985Y-50009043D01*
X124024953Y-50069217D01*
X124109296Y-50078719D01*
X124174747Y-50106221D01*
X124184283Y-50114832D01*
X127427605Y-53358154D01*
X127433037Y-53364348D01*
X127441406Y-53375254D01*
X127455013Y-53392987D01*
X127468430Y-53403282D01*
X127484836Y-53415871D01*
X127484873Y-53415901D01*
X127582117Y-53490519D01*
X127582124Y-53490524D01*
X127730149Y-53551838D01*
X127747483Y-53554120D01*
X127888999Y-53572751D01*
X127889000Y-53572751D01*
X127889001Y-53572751D01*
X127924789Y-53568040D01*
X127933020Y-53567500D01*
X128095821Y-53567500D01*
X128163942Y-53587502D01*
X128210435Y-53641158D01*
X128220539Y-53711432D01*
X128217965Y-53724431D01*
X128180437Y-53872624D01*
X128180436Y-53872630D01*
X128180436Y-53872632D01*
X128170207Y-53996072D01*
X128161844Y-54097000D01*
X128180437Y-54321375D01*
X128235702Y-54539612D01*
X128235703Y-54539613D01*
X128235704Y-54539616D01*
X128308467Y-54705500D01*
X128326141Y-54745793D01*
X128449275Y-54934265D01*
X128449279Y-54934270D01*
X128601762Y-55099908D01*
X128656331Y-55142381D01*
X128779424Y-55238189D01*
X128977426Y-55345342D01*
X128977427Y-55345342D01*
X128977428Y-55345343D01*
X129077883Y-55379829D01*
X129190365Y-55418444D01*
X129412431Y-55455500D01*
X129412435Y-55455500D01*
X129637565Y-55455500D01*
X129637569Y-55455500D01*
X129859635Y-55418444D01*
X130072574Y-55345342D01*
X130270576Y-55238189D01*
X130448240Y-55099906D01*
X130600722Y-54934268D01*
X130689518Y-54798354D01*
X130743520Y-54752268D01*
X130813868Y-54742692D01*
X130878225Y-54772669D01*
X130900480Y-54798353D01*
X130924450Y-54835041D01*
X130989275Y-54934265D01*
X130989279Y-54934270D01*
X131141762Y-55099908D01*
X131196331Y-55142381D01*
X131319424Y-55238189D01*
X131517426Y-55345342D01*
X131517427Y-55345342D01*
X131517428Y-55345343D01*
X131617883Y-55379829D01*
X131730365Y-55418444D01*
X131952431Y-55455500D01*
X131952435Y-55455500D01*
X132177565Y-55455500D01*
X132177569Y-55455500D01*
X132399635Y-55418444D01*
X132612574Y-55345342D01*
X132810576Y-55238189D01*
X132988240Y-55099906D01*
X133140722Y-54934268D01*
X133229518Y-54798354D01*
X133283520Y-54752268D01*
X133353868Y-54742692D01*
X133418225Y-54772669D01*
X133440480Y-54798353D01*
X133464450Y-54835041D01*
X133529275Y-54934265D01*
X133529279Y-54934270D01*
X133681762Y-55099908D01*
X133736331Y-55142381D01*
X133859424Y-55238189D01*
X134057426Y-55345342D01*
X134057427Y-55345342D01*
X134057428Y-55345343D01*
X134157883Y-55379829D01*
X134270365Y-55418444D01*
X134492431Y-55455500D01*
X134492435Y-55455500D01*
X134717565Y-55455500D01*
X134717569Y-55455500D01*
X134939635Y-55418444D01*
X135152574Y-55345342D01*
X135350576Y-55238189D01*
X135528240Y-55099906D01*
X135680722Y-54934268D01*
X135745549Y-54835043D01*
X135789458Y-54767835D01*
X135843461Y-54721746D01*
X135886894Y-54712468D01*
X135886810Y-54711828D01*
X135894849Y-54710769D01*
X135894941Y-54710750D01*
X135894998Y-54710750D01*
X135894998Y-54710749D01*
X135895000Y-54710750D01*
X135934880Y-54705500D01*
X135934885Y-54705500D01*
X136012791Y-54695243D01*
X136034457Y-54692391D01*
X136038335Y-54691880D01*
X136053851Y-54689838D01*
X136201876Y-54628524D01*
X136297072Y-54555477D01*
X136297072Y-54555476D01*
X136305291Y-54549170D01*
X136305300Y-54549162D01*
X136328987Y-54530987D01*
X136350965Y-54502344D01*
X136356384Y-54496163D01*
X136797160Y-54055387D01*
X136803341Y-54049966D01*
X136831987Y-54027987D01*
X136856474Y-53996074D01*
X136856477Y-53996072D01*
X136911866Y-53923887D01*
X136914121Y-53920949D01*
X136916280Y-53918134D01*
X136929524Y-53900875D01*
X136990838Y-53752850D01*
X137006500Y-53633885D01*
X137006500Y-53633877D01*
X137011750Y-53594000D01*
X137008953Y-53572751D01*
X137007040Y-53558219D01*
X137006500Y-53549988D01*
X137006500Y-50264500D01*
X137026502Y-50196379D01*
X137080158Y-50149886D01*
X137132500Y-50138500D01*
X139401988Y-50138500D01*
X139410219Y-50139040D01*
X139422549Y-50140662D01*
X139446000Y-50143750D01*
X139485880Y-50138500D01*
X139485885Y-50138500D01*
X139563791Y-50128243D01*
X139585457Y-50125391D01*
X139589335Y-50124880D01*
X139604851Y-50122838D01*
X139752876Y-50061524D01*
X139848072Y-49988477D01*
X139848072Y-49988476D01*
X139856291Y-49982170D01*
X139856300Y-49982162D01*
X139879987Y-49963987D01*
X139901965Y-49935344D01*
X139907384Y-49929163D01*
X142694373Y-47142174D01*
X142756683Y-47108150D01*
X142827498Y-47113215D01*
X142884334Y-47155762D01*
X142909145Y-47222282D01*
X142909037Y-47241660D01*
X142908844Y-47243992D01*
X142908844Y-47243995D01*
X142908844Y-47244000D01*
X142923635Y-47422500D01*
X142927437Y-47468375D01*
X142982702Y-47686612D01*
X142982703Y-47686613D01*
X143073141Y-47892793D01*
X143196275Y-48081265D01*
X143196279Y-48081270D01*
X143348762Y-48246908D01*
X143365580Y-48259998D01*
X143526424Y-48385189D01*
X143559680Y-48403186D01*
X143610071Y-48453200D01*
X143625423Y-48522516D01*
X143600862Y-48589129D01*
X143559680Y-48624813D01*
X143526426Y-48642810D01*
X143526424Y-48642811D01*
X143348762Y-48781091D01*
X143196279Y-48946729D01*
X143196275Y-48946734D01*
X143073141Y-49135206D01*
X142982703Y-49341386D01*
X142982702Y-49341387D01*
X142927437Y-49559624D01*
X142927436Y-49559630D01*
X142927436Y-49559632D01*
X142908844Y-49784000D01*
X142925265Y-49982170D01*
X142927437Y-50008375D01*
X142982702Y-50226612D01*
X142982703Y-50226613D01*
X142982704Y-50226616D01*
X143018122Y-50307361D01*
X143073141Y-50432793D01*
X143196275Y-50621265D01*
X143196279Y-50621270D01*
X143348762Y-50786908D01*
X143402787Y-50828957D01*
X143526424Y-50925189D01*
X143724426Y-51032342D01*
X143724427Y-51032342D01*
X143724428Y-51032343D01*
X143789605Y-51054718D01*
X143937365Y-51105444D01*
X144159431Y-51142500D01*
X144159435Y-51142500D01*
X144384565Y-51142500D01*
X144384569Y-51142500D01*
X144606635Y-51105444D01*
X144664662Y-51085522D01*
X144735586Y-51082321D01*
X144794670Y-51115600D01*
X146203095Y-52524025D01*
X146237121Y-52586337D01*
X146240000Y-52613120D01*
X146240000Y-53168797D01*
X146219998Y-53236918D01*
X146166342Y-53283411D01*
X146099894Y-53294005D01*
X146050001Y-53288384D01*
X146050000Y-53288384D01*
X145868953Y-53308783D01*
X145868950Y-53308783D01*
X145868949Y-53308784D01*
X145696984Y-53368957D01*
X145696983Y-53368957D01*
X145642355Y-53403282D01*
X145574033Y-53422587D01*
X145511180Y-53405047D01*
X145446603Y-53366856D01*
X145446602Y-53366855D01*
X145446601Y-53366855D01*
X145360880Y-53341951D01*
X145286829Y-53320437D01*
X145249506Y-53317500D01*
X145249502Y-53317500D01*
X143866498Y-53317500D01*
X143866494Y-53317500D01*
X143829170Y-53320437D01*
X143669397Y-53366855D01*
X143571848Y-53424546D01*
X143503031Y-53442005D01*
X143440673Y-53422779D01*
X143355017Y-53368958D01*
X143355015Y-53368957D01*
X143183050Y-53308784D01*
X143183049Y-53308783D01*
X143183047Y-53308783D01*
X143002000Y-53288384D01*
X142820953Y-53308783D01*
X142820950Y-53308783D01*
X142820949Y-53308784D01*
X142648984Y-53368957D01*
X142648981Y-53368958D01*
X142494720Y-53465887D01*
X142494718Y-53465888D01*
X142365888Y-53594718D01*
X142365887Y-53594720D01*
X142268958Y-53748981D01*
X142268957Y-53748984D01*
X142215808Y-53900878D01*
X142208783Y-53920953D01*
X142188384Y-54102000D01*
X142208783Y-54283047D01*
X142208783Y-54283049D01*
X142208784Y-54283050D01*
X142268957Y-54455015D01*
X142268958Y-54455018D01*
X142365887Y-54609279D01*
X142365888Y-54609281D01*
X142494718Y-54738111D01*
X142494720Y-54738112D01*
X142648981Y-54835041D01*
X142648982Y-54835041D01*
X142648985Y-54835043D01*
X142820953Y-54895217D01*
X143002000Y-54915616D01*
X143134395Y-54900698D01*
X143204324Y-54912947D01*
X143256532Y-54961060D01*
X143274500Y-55025906D01*
X143274500Y-55342506D01*
X143277437Y-55379829D01*
X143277438Y-55379832D01*
X143323853Y-55539598D01*
X143323853Y-55539599D01*
X143337310Y-55562353D01*
X143354769Y-55631170D01*
X143337312Y-55690625D01*
X143324320Y-55712594D01*
X143324319Y-55712595D01*
X143278007Y-55872000D01*
X143612929Y-55872000D01*
X143662965Y-55882361D01*
X143669395Y-55885143D01*
X143669396Y-55885143D01*
X143669399Y-55885145D01*
X143829169Y-55931562D01*
X143836634Y-55932149D01*
X143866494Y-55934500D01*
X143866498Y-55934500D01*
X145249506Y-55934500D01*
X145274388Y-55932541D01*
X145286831Y-55931562D01*
X145446601Y-55885145D01*
X145446605Y-55885142D01*
X145453035Y-55882361D01*
X145503071Y-55872000D01*
X145837992Y-55872000D01*
X145834260Y-55859154D01*
X145834462Y-55788158D01*
X145873016Y-55728541D01*
X145937680Y-55699232D01*
X145955257Y-55698000D01*
X146508381Y-55698000D01*
X146516612Y-55698540D01*
X146530138Y-55700320D01*
X146550000Y-55702935D01*
X146587486Y-55698000D01*
X146587492Y-55698000D01*
X146699322Y-55683277D01*
X146838468Y-55625641D01*
X146957955Y-55533955D01*
X146978470Y-55507217D01*
X146983884Y-55501044D01*
X147187044Y-55297884D01*
X147193217Y-55292470D01*
X147219955Y-55271955D01*
X147311641Y-55152468D01*
X147369277Y-55013322D01*
X147384000Y-54901492D01*
X147384000Y-54901491D01*
X147388936Y-54864000D01*
X147385124Y-54835042D01*
X147384540Y-54830606D01*
X147384000Y-54822374D01*
X147384000Y-54017333D01*
X147404002Y-53949212D01*
X147457658Y-53902719D01*
X147527932Y-53892615D01*
X147549622Y-53897725D01*
X147628574Y-53923887D01*
X147732455Y-53934500D01*
X149133544Y-53934499D01*
X149237426Y-53923887D01*
X149405738Y-53868115D01*
X149556652Y-53775030D01*
X149582701Y-53748981D01*
X149644905Y-53686778D01*
X149707217Y-53652752D01*
X149778032Y-53657817D01*
X149834868Y-53700364D01*
X149859679Y-53766884D01*
X149860000Y-53775873D01*
X149860000Y-57476127D01*
X149839998Y-57544248D01*
X149786342Y-57590741D01*
X149716068Y-57600845D01*
X149651488Y-57571351D01*
X149644905Y-57565222D01*
X149556658Y-57476975D01*
X149556652Y-57476970D01*
X149555285Y-57476127D01*
X149405738Y-57383885D01*
X149321582Y-57355999D01*
X149237427Y-57328113D01*
X149237420Y-57328112D01*
X149133553Y-57317500D01*
X147732455Y-57317500D01*
X147628574Y-57328112D01*
X147460261Y-57383885D01*
X147309347Y-57476970D01*
X147309341Y-57476975D01*
X147183975Y-57602341D01*
X147183970Y-57602347D01*
X147090885Y-57753262D01*
X147035113Y-57921572D01*
X147035112Y-57921579D01*
X147024500Y-58025446D01*
X147024500Y-58826544D01*
X147035112Y-58930425D01*
X147090885Y-59098738D01*
X147183970Y-59249652D01*
X147183975Y-59249658D01*
X147309341Y-59375024D01*
X147309347Y-59375029D01*
X147309348Y-59375030D01*
X147460262Y-59468115D01*
X147628574Y-59523887D01*
X147732455Y-59534500D01*
X149133544Y-59534499D01*
X149237426Y-59523887D01*
X149405738Y-59468115D01*
X149556652Y-59375030D01*
X149564798Y-59366884D01*
X149644905Y-59286778D01*
X149707217Y-59252752D01*
X149778032Y-59257817D01*
X149834868Y-59300364D01*
X149859679Y-59366884D01*
X149860000Y-59375873D01*
X149860000Y-82514634D01*
X149839998Y-82582755D01*
X149786342Y-82629248D01*
X149716068Y-82639352D01*
X149651488Y-82609858D01*
X149613104Y-82550132D01*
X149612672Y-82548628D01*
X149603586Y-82516199D01*
X149557844Y-82352942D01*
X149443361Y-82089375D01*
X149294055Y-81843853D01*
X149112708Y-81620947D01*
X148902698Y-81424811D01*
X148754426Y-81320150D01*
X148667938Y-81259100D01*
X148412803Y-81126898D01*
X148142033Y-81030666D01*
X148142025Y-81030664D01*
X148014980Y-81004264D01*
X147860686Y-80972202D01*
X147860681Y-80972201D01*
X147860678Y-80972201D01*
X147860672Y-80972200D01*
X147658986Y-80958405D01*
X147645752Y-80957500D01*
X147502248Y-80957500D01*
X147489781Y-80958352D01*
X147287327Y-80972200D01*
X147287321Y-80972201D01*
X147287317Y-80972201D01*
X147287314Y-80972202D01*
X147181424Y-80994206D01*
X147005974Y-81030664D01*
X147005966Y-81030666D01*
X146735196Y-81126898D01*
X146480061Y-81259100D01*
X146245302Y-81424811D01*
X146035294Y-81620944D01*
X145853947Y-81843850D01*
X145704639Y-82089375D01*
X145590157Y-82352939D01*
X145512628Y-82629642D01*
X145473500Y-82914311D01*
X145473500Y-83201688D01*
X145512628Y-83486357D01*
X145544852Y-83601365D01*
X145590156Y-83763058D01*
X145704639Y-84026625D01*
X145853945Y-84272147D01*
X146035292Y-84495053D01*
X146245302Y-84691189D01*
X146480064Y-84856901D01*
X146586030Y-84911808D01*
X146735196Y-84989101D01*
X146735199Y-84989102D01*
X146735203Y-84989104D01*
X147005968Y-85085334D01*
X147050728Y-85094635D01*
X147113355Y-85128078D01*
X147147959Y-85190071D01*
X147143554Y-85260931D01*
X147101538Y-85318160D01*
X147035252Y-85343590D01*
X147025093Y-85344000D01*
X103164907Y-85344000D01*
X103096786Y-85323998D01*
X103050293Y-85270342D01*
X103040189Y-85200068D01*
X103069683Y-85135488D01*
X103129409Y-85097104D01*
X103139267Y-85094636D01*
X103184032Y-85085334D01*
X103454797Y-84989104D01*
X103709936Y-84856901D01*
X103944698Y-84691189D01*
X104154708Y-84495053D01*
X104336055Y-84272147D01*
X104485361Y-84026625D01*
X104599844Y-83763058D01*
X104677371Y-83486358D01*
X104687876Y-83409927D01*
X104716499Y-83201688D01*
X104716500Y-83201678D01*
X104716500Y-82914321D01*
X104716499Y-82914311D01*
X104677371Y-82629642D01*
X104664234Y-82582755D01*
X104599844Y-82352942D01*
X104485361Y-82089375D01*
X104336055Y-81843853D01*
X104154708Y-81620947D01*
X103973810Y-81452000D01*
X118798844Y-81452000D01*
X118812843Y-81620944D01*
X118817437Y-81676375D01*
X118872702Y-81894612D01*
X118872703Y-81894613D01*
X118963141Y-82100793D01*
X119086275Y-82289265D01*
X119086279Y-82289270D01*
X119238762Y-82454908D01*
X119293331Y-82497381D01*
X119416424Y-82593189D01*
X119614426Y-82700342D01*
X119614427Y-82700342D01*
X119614428Y-82700343D01*
X119726227Y-82738723D01*
X119827365Y-82773444D01*
X120049431Y-82810500D01*
X120049435Y-82810500D01*
X120274565Y-82810500D01*
X120274569Y-82810500D01*
X120496635Y-82773444D01*
X120709574Y-82700342D01*
X120907576Y-82593189D01*
X121085240Y-82454906D01*
X121237722Y-82289268D01*
X121326518Y-82153354D01*
X121380520Y-82107268D01*
X121450868Y-82097692D01*
X121515225Y-82127669D01*
X121537480Y-82153353D01*
X121570607Y-82204058D01*
X121626275Y-82289265D01*
X121626279Y-82289270D01*
X121778762Y-82454908D01*
X121833331Y-82497381D01*
X121956424Y-82593189D01*
X122154426Y-82700342D01*
X122154427Y-82700342D01*
X122154428Y-82700343D01*
X122266227Y-82738723D01*
X122367365Y-82773444D01*
X122589431Y-82810500D01*
X122589435Y-82810500D01*
X122814565Y-82810500D01*
X122814569Y-82810500D01*
X123036635Y-82773444D01*
X123249574Y-82700342D01*
X123447576Y-82593189D01*
X123625240Y-82454906D01*
X123777722Y-82289268D01*
X123866518Y-82153354D01*
X123920520Y-82107268D01*
X123990868Y-82097692D01*
X124055225Y-82127669D01*
X124077480Y-82153353D01*
X124110607Y-82204058D01*
X124166275Y-82289265D01*
X124166279Y-82289270D01*
X124318762Y-82454908D01*
X124373331Y-82497381D01*
X124496424Y-82593189D01*
X124694426Y-82700342D01*
X124694427Y-82700342D01*
X124694428Y-82700343D01*
X124806227Y-82738723D01*
X124907365Y-82773444D01*
X125129431Y-82810500D01*
X125129435Y-82810500D01*
X125354565Y-82810500D01*
X125354569Y-82810500D01*
X125576635Y-82773444D01*
X125789574Y-82700342D01*
X125987576Y-82593189D01*
X126165240Y-82454906D01*
X126317722Y-82289268D01*
X126406518Y-82153354D01*
X126460520Y-82107268D01*
X126530868Y-82097692D01*
X126595225Y-82127669D01*
X126617480Y-82153353D01*
X126650607Y-82204058D01*
X126706275Y-82289265D01*
X126706279Y-82289270D01*
X126858762Y-82454908D01*
X126913331Y-82497381D01*
X127036424Y-82593189D01*
X127234426Y-82700342D01*
X127234427Y-82700342D01*
X127234428Y-82700343D01*
X127346227Y-82738723D01*
X127447365Y-82773444D01*
X127669431Y-82810500D01*
X127669435Y-82810500D01*
X127894565Y-82810500D01*
X127894569Y-82810500D01*
X128116635Y-82773444D01*
X128329574Y-82700342D01*
X128527576Y-82593189D01*
X128705240Y-82454906D01*
X128766245Y-82388637D01*
X128827096Y-82352067D01*
X128898061Y-82354200D01*
X128956606Y-82394362D01*
X128977000Y-82429941D01*
X129021111Y-82548204D01*
X129021112Y-82548207D01*
X129108738Y-82665261D01*
X129225792Y-82752887D01*
X129225794Y-82752888D01*
X129225796Y-82752889D01*
X129280900Y-82773442D01*
X129362795Y-82803988D01*
X129362803Y-82803990D01*
X129423350Y-82810499D01*
X129423355Y-82810499D01*
X129423362Y-82810500D01*
X129423368Y-82810500D01*
X131220632Y-82810500D01*
X131220638Y-82810500D01*
X131220645Y-82810499D01*
X131220649Y-82810499D01*
X131281196Y-82803990D01*
X131281199Y-82803989D01*
X131281201Y-82803989D01*
X131418204Y-82752889D01*
X131488399Y-82700342D01*
X131535261Y-82665261D01*
X131622887Y-82548207D01*
X131622887Y-82548206D01*
X131622889Y-82548204D01*
X131673989Y-82411201D01*
X131675800Y-82394362D01*
X131680499Y-82350649D01*
X131680500Y-82350632D01*
X131680500Y-80553367D01*
X131680499Y-80553350D01*
X131673990Y-80492803D01*
X131673988Y-80492795D01*
X131622889Y-80355797D01*
X131622887Y-80355792D01*
X131535261Y-80238738D01*
X131418207Y-80151112D01*
X131418202Y-80151110D01*
X131281204Y-80100011D01*
X131281196Y-80100009D01*
X131220649Y-80093500D01*
X131220638Y-80093500D01*
X129423362Y-80093500D01*
X129423350Y-80093500D01*
X129362803Y-80100009D01*
X129362795Y-80100011D01*
X129225797Y-80151110D01*
X129225792Y-80151112D01*
X129108738Y-80238738D01*
X129021112Y-80355792D01*
X129021111Y-80355795D01*
X128977000Y-80474058D01*
X128934453Y-80530893D01*
X128867932Y-80555703D01*
X128798558Y-80540611D01*
X128766246Y-80515363D01*
X128705240Y-80449094D01*
X128705239Y-80449093D01*
X128705237Y-80449091D01*
X128585372Y-80355796D01*
X128527576Y-80310811D01*
X128329574Y-80203658D01*
X128329572Y-80203657D01*
X128329571Y-80203656D01*
X128116639Y-80130557D01*
X128116630Y-80130555D01*
X128072476Y-80123187D01*
X127894569Y-80093500D01*
X127669431Y-80093500D01*
X127521211Y-80118233D01*
X127447369Y-80130555D01*
X127447360Y-80130557D01*
X127234428Y-80203656D01*
X127234426Y-80203658D01*
X127036426Y-80310810D01*
X127036424Y-80310811D01*
X126858762Y-80449091D01*
X126706279Y-80614729D01*
X126617483Y-80750643D01*
X126563479Y-80796731D01*
X126493131Y-80806306D01*
X126428774Y-80776329D01*
X126406517Y-80750643D01*
X126317720Y-80614729D01*
X126165237Y-80449091D01*
X126045372Y-80355796D01*
X125987576Y-80310811D01*
X125789574Y-80203658D01*
X125789572Y-80203657D01*
X125789571Y-80203656D01*
X125576639Y-80130557D01*
X125576630Y-80130555D01*
X125532476Y-80123187D01*
X125354569Y-80093500D01*
X125129431Y-80093500D01*
X124981211Y-80118233D01*
X124907369Y-80130555D01*
X124907360Y-80130557D01*
X124694428Y-80203656D01*
X124694426Y-80203658D01*
X124496426Y-80310810D01*
X124496424Y-80310811D01*
X124318762Y-80449091D01*
X124166279Y-80614729D01*
X124077483Y-80750643D01*
X124023479Y-80796731D01*
X123953131Y-80806306D01*
X123888774Y-80776329D01*
X123866517Y-80750643D01*
X123777720Y-80614729D01*
X123625237Y-80449091D01*
X123505372Y-80355796D01*
X123447576Y-80310811D01*
X123249574Y-80203658D01*
X123249572Y-80203657D01*
X123249571Y-80203656D01*
X123036639Y-80130557D01*
X123036630Y-80130555D01*
X122992476Y-80123187D01*
X122814569Y-80093500D01*
X122589431Y-80093500D01*
X122441211Y-80118233D01*
X122367369Y-80130555D01*
X122367360Y-80130557D01*
X122154428Y-80203656D01*
X122154426Y-80203658D01*
X121956426Y-80310810D01*
X121956424Y-80310811D01*
X121778762Y-80449091D01*
X121626279Y-80614729D01*
X121537483Y-80750643D01*
X121483479Y-80796731D01*
X121413131Y-80806306D01*
X121348774Y-80776329D01*
X121326517Y-80750643D01*
X121237720Y-80614729D01*
X121085237Y-80449091D01*
X120965372Y-80355796D01*
X120907576Y-80310811D01*
X120709574Y-80203658D01*
X120709572Y-80203657D01*
X120709571Y-80203656D01*
X120496639Y-80130557D01*
X120496630Y-80130555D01*
X120452476Y-80123187D01*
X120274569Y-80093500D01*
X120049431Y-80093500D01*
X119901211Y-80118233D01*
X119827369Y-80130555D01*
X119827360Y-80130557D01*
X119614428Y-80203656D01*
X119614426Y-80203658D01*
X119416426Y-80310810D01*
X119416424Y-80310811D01*
X119238762Y-80449091D01*
X119086279Y-80614729D01*
X119086275Y-80614734D01*
X118963141Y-80803206D01*
X118872703Y-81009386D01*
X118872702Y-81009387D01*
X118817437Y-81227624D01*
X118817436Y-81227630D01*
X118817436Y-81227632D01*
X118798844Y-81452000D01*
X103973810Y-81452000D01*
X103944698Y-81424811D01*
X103796426Y-81320150D01*
X103709938Y-81259100D01*
X103454803Y-81126898D01*
X103184033Y-81030666D01*
X103184025Y-81030664D01*
X103056980Y-81004264D01*
X102902686Y-80972202D01*
X102902681Y-80972201D01*
X102902678Y-80972201D01*
X102902672Y-80972200D01*
X102700986Y-80958405D01*
X102687752Y-80957500D01*
X102544248Y-80957500D01*
X102531781Y-80958352D01*
X102329327Y-80972200D01*
X102329321Y-80972201D01*
X102329317Y-80972201D01*
X102329314Y-80972202D01*
X102223424Y-80994206D01*
X102047974Y-81030664D01*
X102047966Y-81030666D01*
X101777196Y-81126898D01*
X101522061Y-81259100D01*
X101287302Y-81424811D01*
X101077294Y-81620944D01*
X100895947Y-81843850D01*
X100746639Y-82089375D01*
X100633157Y-82350638D01*
X100632156Y-82352942D01*
X100586414Y-82516199D01*
X100577328Y-82548628D01*
X100539689Y-82608827D01*
X100475479Y-82639119D01*
X100405085Y-82629889D01*
X100350856Y-82584066D01*
X100330010Y-82516199D01*
X100330000Y-82514634D01*
X100330000Y-78663583D01*
X100350002Y-78595462D01*
X100403658Y-78548969D01*
X100473932Y-78538865D01*
X100538512Y-78568359D01*
X100545095Y-78574488D01*
X100584718Y-78614111D01*
X100584720Y-78614112D01*
X100738981Y-78711041D01*
X100738982Y-78711041D01*
X100738985Y-78711043D01*
X100910953Y-78771217D01*
X101092000Y-78791616D01*
X101273047Y-78771217D01*
X101445015Y-78711043D01*
X101473001Y-78693458D01*
X101599274Y-78614116D01*
X101599279Y-78614112D01*
X101599281Y-78614111D01*
X101599283Y-78614108D01*
X101599430Y-78613992D01*
X101599549Y-78613943D01*
X101605273Y-78610347D01*
X101605902Y-78611349D01*
X101665159Y-78587155D01*
X101677994Y-78586500D01*
X102284006Y-78586500D01*
X102352127Y-78606502D01*
X102362570Y-78613992D01*
X102362725Y-78614116D01*
X102516981Y-78711041D01*
X102516982Y-78711041D01*
X102516985Y-78711043D01*
X102688953Y-78771217D01*
X102870000Y-78791616D01*
X103051047Y-78771217D01*
X103223015Y-78711043D01*
X103377281Y-78614111D01*
X103506111Y-78485281D01*
X103603043Y-78331015D01*
X103663217Y-78159047D01*
X103683616Y-77978000D01*
X116026384Y-77978000D01*
X116046783Y-78159047D01*
X116046783Y-78159049D01*
X116046784Y-78159050D01*
X116106957Y-78331015D01*
X116106958Y-78331018D01*
X116203887Y-78485279D01*
X116203888Y-78485281D01*
X116332718Y-78614111D01*
X116332720Y-78614112D01*
X116486981Y-78711041D01*
X116486982Y-78711041D01*
X116486985Y-78711043D01*
X116658953Y-78771217D01*
X116840000Y-78791616D01*
X117021047Y-78771217D01*
X117179386Y-78715811D01*
X117250289Y-78712192D01*
X117262609Y-78715810D01*
X117420953Y-78771217D01*
X117602000Y-78791616D01*
X117783047Y-78771217D01*
X117955015Y-78711043D01*
X118109281Y-78614111D01*
X118238111Y-78485281D01*
X118335043Y-78331015D01*
X118382287Y-78196000D01*
X120453835Y-78196000D01*
X120472465Y-78432711D01*
X120485086Y-78485281D01*
X120527894Y-78663592D01*
X120618759Y-78882961D01*
X120742825Y-79085417D01*
X120742826Y-79085419D01*
X120897030Y-79265969D01*
X121077580Y-79420173D01*
X121077584Y-79420176D01*
X121280037Y-79544240D01*
X121499406Y-79635105D01*
X121730289Y-79690535D01*
X121967000Y-79709165D01*
X122203711Y-79690535D01*
X122434594Y-79635105D01*
X122653963Y-79544240D01*
X122856416Y-79420176D01*
X123036969Y-79265969D01*
X123191176Y-79085416D01*
X123315240Y-78882963D01*
X123315521Y-78882284D01*
X123315694Y-78882068D01*
X123317484Y-78878557D01*
X123318221Y-78878932D01*
X123360065Y-78827004D01*
X123427427Y-78804580D01*
X123431930Y-78804500D01*
X127002070Y-78804500D01*
X127070191Y-78824502D01*
X127116684Y-78878158D01*
X127118460Y-78882239D01*
X127118760Y-78882963D01*
X127118761Y-78882964D01*
X127242825Y-79085417D01*
X127242826Y-79085419D01*
X127397030Y-79265969D01*
X127577580Y-79420173D01*
X127577584Y-79420176D01*
X127780037Y-79544240D01*
X127999406Y-79635105D01*
X128230289Y-79690535D01*
X128467000Y-79709165D01*
X128703711Y-79690535D01*
X128934594Y-79635105D01*
X129153963Y-79544240D01*
X129356416Y-79420176D01*
X129536969Y-79265969D01*
X129691176Y-79085416D01*
X129815240Y-78882963D01*
X129906105Y-78663594D01*
X129961535Y-78432711D01*
X129980165Y-78196000D01*
X129961535Y-77959289D01*
X129906105Y-77728406D01*
X129815240Y-77509037D01*
X129691176Y-77306584D01*
X129686754Y-77301406D01*
X129536969Y-77126030D01*
X129356419Y-76971826D01*
X129356417Y-76971825D01*
X129356416Y-76971824D01*
X129153963Y-76847760D01*
X128934594Y-76756895D01*
X128934592Y-76756894D01*
X128776651Y-76718976D01*
X128703711Y-76701465D01*
X128467000Y-76682835D01*
X128230289Y-76701465D01*
X127999407Y-76756894D01*
X127780038Y-76847759D01*
X127577582Y-76971825D01*
X127577580Y-76971826D01*
X127397030Y-77126030D01*
X127242826Y-77306580D01*
X127242825Y-77306582D01*
X127164720Y-77434038D01*
X127118760Y-77509037D01*
X127118478Y-77509715D01*
X127118305Y-77509931D01*
X127116516Y-77513443D01*
X127115778Y-77513067D01*
X127073935Y-77564996D01*
X127006573Y-77587420D01*
X127002070Y-77587500D01*
X123431930Y-77587500D01*
X123363809Y-77567498D01*
X123317316Y-77513842D01*
X123315539Y-77509760D01*
X123315240Y-77509037D01*
X123191176Y-77306584D01*
X123186754Y-77301406D01*
X123036969Y-77126030D01*
X122856419Y-76971826D01*
X122856417Y-76971825D01*
X122856416Y-76971824D01*
X122653963Y-76847760D01*
X122434594Y-76756895D01*
X122434592Y-76756894D01*
X122276651Y-76718976D01*
X122203711Y-76701465D01*
X121967000Y-76682835D01*
X121730289Y-76701465D01*
X121499407Y-76756894D01*
X121280038Y-76847759D01*
X121077582Y-76971825D01*
X121077580Y-76971826D01*
X120897030Y-77126030D01*
X120742826Y-77306580D01*
X120742825Y-77306582D01*
X120618759Y-77509038D01*
X120527894Y-77728407D01*
X120511439Y-77796949D01*
X120472465Y-77959289D01*
X120453835Y-78196000D01*
X118382287Y-78196000D01*
X118395217Y-78159047D01*
X118415616Y-77978000D01*
X118395217Y-77796953D01*
X118335043Y-77624985D01*
X118335041Y-77624982D01*
X118335041Y-77624981D01*
X118238112Y-77470720D01*
X118238111Y-77470718D01*
X118222405Y-77455012D01*
X118188379Y-77392700D01*
X118185500Y-77365917D01*
X118185500Y-74907082D01*
X118205502Y-74838961D01*
X118222402Y-74817989D01*
X118238111Y-74802281D01*
X118260928Y-74765969D01*
X118335041Y-74648018D01*
X118335040Y-74648018D01*
X118335043Y-74648015D01*
X118395217Y-74476047D01*
X118415616Y-74295000D01*
X118395217Y-74113953D01*
X118335043Y-73941985D01*
X118335041Y-73941982D01*
X118335041Y-73941981D01*
X118238112Y-73787720D01*
X118238111Y-73787718D01*
X118146393Y-73696000D01*
X120453835Y-73696000D01*
X120472465Y-73932711D01*
X120489976Y-74005651D01*
X120527894Y-74163592D01*
X120527895Y-74163594D01*
X120618760Y-74382963D01*
X120675802Y-74476047D01*
X120742825Y-74585417D01*
X120742826Y-74585419D01*
X120897030Y-74765969D01*
X121077580Y-74920173D01*
X121077584Y-74920176D01*
X121280037Y-75044240D01*
X121499406Y-75135105D01*
X121730289Y-75190535D01*
X121967000Y-75209165D01*
X122203711Y-75190535D01*
X122434594Y-75135105D01*
X122653963Y-75044240D01*
X122856416Y-74920176D01*
X123036969Y-74765969D01*
X123191176Y-74585416D01*
X123315240Y-74382963D01*
X123316517Y-74379879D01*
X123330642Y-74345781D01*
X123375190Y-74290500D01*
X123442554Y-74268080D01*
X123447050Y-74268000D01*
X126986950Y-74268000D01*
X127055071Y-74288002D01*
X127101564Y-74341658D01*
X127103358Y-74345781D01*
X127118757Y-74382958D01*
X127242825Y-74585417D01*
X127242826Y-74585419D01*
X127397030Y-74765969D01*
X127577580Y-74920173D01*
X127577584Y-74920176D01*
X127780037Y-75044240D01*
X127999406Y-75135105D01*
X128230289Y-75190535D01*
X128467000Y-75209165D01*
X128703711Y-75190535D01*
X128934594Y-75135105D01*
X129153963Y-75044240D01*
X129356416Y-74920176D01*
X129536969Y-74765969D01*
X129691176Y-74585416D01*
X129815240Y-74382963D01*
X129906105Y-74163594D01*
X129961535Y-73932711D01*
X129980165Y-73696000D01*
X129961535Y-73459289D01*
X129906105Y-73228406D01*
X129815240Y-73009037D01*
X129691176Y-72806584D01*
X129691173Y-72806580D01*
X129536969Y-72626030D01*
X129356419Y-72471826D01*
X129356417Y-72471825D01*
X129356416Y-72471824D01*
X129153963Y-72347760D01*
X129049809Y-72304618D01*
X128934592Y-72256894D01*
X128776651Y-72218976D01*
X128703711Y-72201465D01*
X128467000Y-72182835D01*
X128230289Y-72201465D01*
X127999407Y-72256894D01*
X127780038Y-72347759D01*
X127577582Y-72471825D01*
X127577580Y-72471826D01*
X127397030Y-72626030D01*
X127242826Y-72806580D01*
X127242825Y-72806582D01*
X127118757Y-73009041D01*
X127103358Y-73046219D01*
X127058810Y-73101500D01*
X126991446Y-73123920D01*
X126986950Y-73124000D01*
X123447050Y-73124000D01*
X123378929Y-73103998D01*
X123332436Y-73050342D01*
X123330642Y-73046219D01*
X123315242Y-73009041D01*
X123315240Y-73009037D01*
X123191176Y-72806584D01*
X123191173Y-72806580D01*
X123036969Y-72626030D01*
X122856419Y-72471826D01*
X122856417Y-72471825D01*
X122856416Y-72471824D01*
X122653963Y-72347760D01*
X122549809Y-72304618D01*
X122434592Y-72256894D01*
X122276651Y-72218976D01*
X122203711Y-72201465D01*
X121967000Y-72182835D01*
X121730289Y-72201465D01*
X121499407Y-72256894D01*
X121280038Y-72347759D01*
X121077582Y-72471825D01*
X121077580Y-72471826D01*
X120897030Y-72626030D01*
X120742826Y-72806580D01*
X120742825Y-72806582D01*
X120618759Y-73009038D01*
X120527894Y-73228407D01*
X120496182Y-73360501D01*
X120472465Y-73459289D01*
X120453835Y-73696000D01*
X118146393Y-73696000D01*
X118109281Y-73658888D01*
X118109279Y-73658887D01*
X117955018Y-73561958D01*
X117955015Y-73561957D01*
X117783050Y-73501784D01*
X117783049Y-73501783D01*
X117783047Y-73501783D01*
X117602000Y-73481384D01*
X117601998Y-73481384D01*
X117601997Y-73481384D01*
X117563605Y-73485709D01*
X117493673Y-73473458D01*
X117441466Y-73425344D01*
X117423500Y-73360501D01*
X117423500Y-73307710D01*
X117443502Y-73239589D01*
X117497158Y-73193096D01*
X117522438Y-73186096D01*
X117522141Y-73184794D01*
X117529041Y-73183217D01*
X117529047Y-73183217D01*
X117701015Y-73123043D01*
X117855281Y-73026111D01*
X117984111Y-72897281D01*
X118081043Y-72743015D01*
X118141217Y-72571047D01*
X118161616Y-72390000D01*
X118141217Y-72208953D01*
X118081043Y-72036985D01*
X118081041Y-72036982D01*
X118081041Y-72036981D01*
X117984112Y-71882720D01*
X117984111Y-71882718D01*
X117855281Y-71753888D01*
X117855279Y-71753887D01*
X117701018Y-71656958D01*
X117701015Y-71656957D01*
X117529050Y-71596784D01*
X117529049Y-71596783D01*
X117529047Y-71596783D01*
X117348000Y-71576384D01*
X117166953Y-71596783D01*
X117166950Y-71596783D01*
X117166949Y-71596784D01*
X116994984Y-71656957D01*
X116994981Y-71656958D01*
X116840720Y-71753887D01*
X116840718Y-71753888D01*
X116711888Y-71882718D01*
X116711887Y-71882720D01*
X116614958Y-72036981D01*
X116614957Y-72036984D01*
X116588121Y-72113679D01*
X116554783Y-72208953D01*
X116544932Y-72296386D01*
X116540790Y-72333142D01*
X116513286Y-72398594D01*
X116504677Y-72408128D01*
X116457370Y-72455436D01*
X116451169Y-72460874D01*
X116423842Y-72481843D01*
X116400361Y-72512446D01*
X116330318Y-72603726D01*
X116330313Y-72603734D01*
X116271518Y-72745677D01*
X116251465Y-72897999D01*
X116251465Y-72898000D01*
X116255960Y-72932145D01*
X116256500Y-72940377D01*
X116256500Y-77365917D01*
X116236498Y-77434038D01*
X116219595Y-77455012D01*
X116203888Y-77470718D01*
X116203887Y-77470720D01*
X116106958Y-77624981D01*
X116106957Y-77624984D01*
X116070769Y-77728406D01*
X116046783Y-77796953D01*
X116026384Y-77978000D01*
X103683616Y-77978000D01*
X103663217Y-77796953D01*
X103603043Y-77624985D01*
X103603041Y-77624982D01*
X103603041Y-77624981D01*
X103506112Y-77470720D01*
X103506111Y-77470718D01*
X103377281Y-77341888D01*
X103377279Y-77341887D01*
X103223018Y-77244958D01*
X103223015Y-77244957D01*
X103051050Y-77184784D01*
X103051049Y-77184783D01*
X103051047Y-77184783D01*
X102870000Y-77164384D01*
X102688953Y-77184783D01*
X102688950Y-77184783D01*
X102688949Y-77184784D01*
X102516984Y-77244957D01*
X102516981Y-77244958D01*
X102362725Y-77341883D01*
X102362570Y-77342008D01*
X102362450Y-77342056D01*
X102356727Y-77345653D01*
X102356097Y-77344650D01*
X102296841Y-77368845D01*
X102284006Y-77369500D01*
X101677994Y-77369500D01*
X101609873Y-77349498D01*
X101599430Y-77342008D01*
X101599274Y-77341883D01*
X101445018Y-77244958D01*
X101445015Y-77244957D01*
X101273050Y-77184784D01*
X101273049Y-77184783D01*
X101273047Y-77184783D01*
X101092000Y-77164384D01*
X100910953Y-77184783D01*
X100910950Y-77184783D01*
X100910949Y-77184784D01*
X100738984Y-77244957D01*
X100738981Y-77244958D01*
X100584720Y-77341887D01*
X100584718Y-77341888D01*
X100545095Y-77381512D01*
X100482783Y-77415538D01*
X100411968Y-77410473D01*
X100355132Y-77367926D01*
X100330321Y-77301406D01*
X100330000Y-77292417D01*
X100330000Y-74295000D01*
X108025384Y-74295000D01*
X108045783Y-74476047D01*
X108045783Y-74476049D01*
X108045784Y-74476050D01*
X108105957Y-74648015D01*
X108105958Y-74648018D01*
X108202887Y-74802279D01*
X108202888Y-74802281D01*
X108331718Y-74931111D01*
X108331720Y-74931112D01*
X108485981Y-75028041D01*
X108485982Y-75028041D01*
X108485985Y-75028043D01*
X108657953Y-75088217D01*
X108839000Y-75108616D01*
X109020047Y-75088217D01*
X109192015Y-75028043D01*
X109346281Y-74931111D01*
X109475111Y-74802281D01*
X109572043Y-74648015D01*
X109632217Y-74476047D01*
X109652616Y-74295000D01*
X109632217Y-74113953D01*
X109572043Y-73941985D01*
X109572041Y-73941982D01*
X109572041Y-73941981D01*
X109475112Y-73787720D01*
X109475111Y-73787718D01*
X109447905Y-73760512D01*
X109413879Y-73698200D01*
X109411000Y-73671417D01*
X109411000Y-72552120D01*
X109431002Y-72483999D01*
X109447900Y-72463029D01*
X110342669Y-71568259D01*
X110404980Y-71534236D01*
X110416541Y-71532332D01*
X110417037Y-71532218D01*
X110417047Y-71532217D01*
X110589015Y-71472043D01*
X110743281Y-71375111D01*
X110872111Y-71246281D01*
X110969043Y-71092015D01*
X111029217Y-70920047D01*
X111049616Y-70739000D01*
X111029217Y-70557953D01*
X110969043Y-70385985D01*
X110969041Y-70385982D01*
X110969041Y-70385981D01*
X110872112Y-70231720D01*
X110872111Y-70231718D01*
X110743281Y-70102888D01*
X110743279Y-70102887D01*
X110589018Y-70005958D01*
X110589015Y-70005957D01*
X110417050Y-69945784D01*
X110417049Y-69945783D01*
X110417047Y-69945783D01*
X110236000Y-69925384D01*
X110054953Y-69945783D01*
X110054950Y-69945783D01*
X110054949Y-69945784D01*
X109882984Y-70005957D01*
X109882981Y-70005958D01*
X109728720Y-70102887D01*
X109728718Y-70102888D01*
X109599888Y-70231718D01*
X109599887Y-70231720D01*
X109502958Y-70385981D01*
X109502957Y-70385984D01*
X109478102Y-70457018D01*
X109442783Y-70557953D01*
X109422384Y-70739000D01*
X109422384Y-70739001D01*
X109428924Y-70797057D01*
X109416673Y-70866989D01*
X109392811Y-70900257D01*
X108463971Y-71829098D01*
X108457770Y-71834536D01*
X108431049Y-71855040D01*
X108431044Y-71855046D01*
X108339363Y-71974525D01*
X108339358Y-71974533D01*
X108281722Y-72113679D01*
X108274012Y-72172240D01*
X108267000Y-72225508D01*
X108267000Y-72225513D01*
X108267000Y-72225514D01*
X108262065Y-72262999D01*
X108262065Y-72263000D01*
X108266460Y-72296386D01*
X108267000Y-72304618D01*
X108267000Y-73671417D01*
X108246998Y-73739538D01*
X108230095Y-73760512D01*
X108202888Y-73787718D01*
X108202887Y-73787720D01*
X108105958Y-73941981D01*
X108105957Y-73941984D01*
X108105957Y-73941985D01*
X108045783Y-74113953D01*
X108025384Y-74295000D01*
X100330000Y-74295000D01*
X100330000Y-70104000D01*
X107263384Y-70104000D01*
X107283783Y-70285047D01*
X107283783Y-70285049D01*
X107283784Y-70285050D01*
X107343957Y-70457015D01*
X107343958Y-70457018D01*
X107440887Y-70611279D01*
X107440888Y-70611281D01*
X107569718Y-70740111D01*
X107569720Y-70740112D01*
X107723981Y-70837041D01*
X107723982Y-70837041D01*
X107723985Y-70837043D01*
X107895953Y-70897217D01*
X108077000Y-70917616D01*
X108258047Y-70897217D01*
X108430015Y-70837043D01*
X108584281Y-70740111D01*
X108713111Y-70611281D01*
X108810043Y-70457015D01*
X108870217Y-70285047D01*
X108879719Y-70200702D01*
X108907221Y-70135252D01*
X108915822Y-70125725D01*
X109816145Y-69225404D01*
X109878457Y-69191379D01*
X109905240Y-69188500D01*
X111936006Y-69188500D01*
X112004127Y-69208502D01*
X112014570Y-69215992D01*
X112014725Y-69216116D01*
X112168981Y-69313041D01*
X112168982Y-69313041D01*
X112168985Y-69313043D01*
X112340953Y-69373217D01*
X112522000Y-69393616D01*
X112703047Y-69373217D01*
X112875015Y-69313043D01*
X113029281Y-69216111D01*
X113158111Y-69087281D01*
X113255043Y-68933015D01*
X113315217Y-68761047D01*
X113335616Y-68580000D01*
X113315217Y-68398953D01*
X113255043Y-68226985D01*
X113255041Y-68226982D01*
X113255041Y-68226981D01*
X113158112Y-68072720D01*
X113158111Y-68072718D01*
X113029281Y-67943888D01*
X113029279Y-67943887D01*
X112875018Y-67846958D01*
X112875015Y-67846957D01*
X112703050Y-67786784D01*
X112703049Y-67786783D01*
X112703047Y-67786783D01*
X112522000Y-67766384D01*
X112340953Y-67786783D01*
X112340950Y-67786783D01*
X112340949Y-67786784D01*
X112168984Y-67846957D01*
X112168981Y-67846958D01*
X112014725Y-67943883D01*
X112014570Y-67944008D01*
X112014450Y-67944056D01*
X112008727Y-67947653D01*
X112008097Y-67946650D01*
X111948841Y-67970845D01*
X111936006Y-67971500D01*
X110732165Y-67971500D01*
X110664044Y-67951498D01*
X110617551Y-67897842D01*
X110607447Y-67827568D01*
X110636941Y-67762988D01*
X110666327Y-67738069D01*
X110666444Y-67737996D01*
X110669416Y-67736176D01*
X110849969Y-67581969D01*
X111004176Y-67401416D01*
X111128240Y-67198963D01*
X111128521Y-67198284D01*
X111128694Y-67198068D01*
X111130484Y-67194557D01*
X111131221Y-67194932D01*
X111173065Y-67143004D01*
X111240427Y-67120580D01*
X111244930Y-67120500D01*
X114815070Y-67120500D01*
X114883191Y-67140502D01*
X114929684Y-67194158D01*
X114931460Y-67198239D01*
X114931760Y-67198963D01*
X114931761Y-67198964D01*
X115055825Y-67401417D01*
X115055826Y-67401419D01*
X115210030Y-67581969D01*
X115390580Y-67736173D01*
X115390584Y-67736176D01*
X115593037Y-67860240D01*
X115812406Y-67951105D01*
X116043289Y-68006535D01*
X116280000Y-68025165D01*
X116516711Y-68006535D01*
X116747594Y-67951105D01*
X116966963Y-67860240D01*
X117169416Y-67736176D01*
X117349969Y-67581969D01*
X117504176Y-67401416D01*
X117628240Y-67198963D01*
X117719105Y-66979594D01*
X117774535Y-66748711D01*
X117793165Y-66512000D01*
X120453835Y-66512000D01*
X120472465Y-66748710D01*
X120527894Y-66979592D01*
X120618759Y-67198961D01*
X120742825Y-67401417D01*
X120742826Y-67401419D01*
X120897030Y-67581969D01*
X121077580Y-67736173D01*
X121077584Y-67736176D01*
X121280037Y-67860240D01*
X121499406Y-67951105D01*
X121730289Y-68006535D01*
X121967000Y-68025165D01*
X122203711Y-68006535D01*
X122434594Y-67951105D01*
X122653963Y-67860240D01*
X122856416Y-67736176D01*
X123036969Y-67581969D01*
X123191176Y-67401416D01*
X123315240Y-67198963D01*
X123315521Y-67198284D01*
X123315694Y-67198068D01*
X123317484Y-67194557D01*
X123318221Y-67194932D01*
X123360065Y-67143004D01*
X123427427Y-67120580D01*
X123431930Y-67120500D01*
X127002070Y-67120500D01*
X127070191Y-67140502D01*
X127116684Y-67194158D01*
X127118460Y-67198239D01*
X127118760Y-67198963D01*
X127118761Y-67198964D01*
X127242825Y-67401417D01*
X127242826Y-67401419D01*
X127397030Y-67581969D01*
X127577580Y-67736173D01*
X127577584Y-67736176D01*
X127780037Y-67860240D01*
X127999406Y-67951105D01*
X128230289Y-68006535D01*
X128467000Y-68025165D01*
X128703711Y-68006535D01*
X128934594Y-67951105D01*
X129153963Y-67860240D01*
X129356416Y-67736176D01*
X129536969Y-67581969D01*
X129691176Y-67401416D01*
X129815240Y-67198963D01*
X129906105Y-66979594D01*
X129961535Y-66748711D01*
X129980165Y-66512000D01*
X132645835Y-66512000D01*
X132664465Y-66748710D01*
X132719894Y-66979592D01*
X132810759Y-67198961D01*
X132934825Y-67401417D01*
X132934826Y-67401419D01*
X133089030Y-67581969D01*
X133269580Y-67736173D01*
X133269584Y-67736176D01*
X133472037Y-67860240D01*
X133691406Y-67951105D01*
X133922289Y-68006535D01*
X134159000Y-68025165D01*
X134395711Y-68006535D01*
X134626594Y-67951105D01*
X134845963Y-67860240D01*
X135048416Y-67736176D01*
X135228969Y-67581969D01*
X135383176Y-67401416D01*
X135507240Y-67198963D01*
X135507521Y-67198284D01*
X135507694Y-67198068D01*
X135509484Y-67194557D01*
X135510221Y-67194932D01*
X135552065Y-67143004D01*
X135619427Y-67120580D01*
X135623930Y-67120500D01*
X139194070Y-67120500D01*
X139262191Y-67140502D01*
X139308684Y-67194158D01*
X139310460Y-67198239D01*
X139310760Y-67198963D01*
X139310761Y-67198964D01*
X139434825Y-67401417D01*
X139434826Y-67401419D01*
X139589030Y-67581969D01*
X139769580Y-67736173D01*
X139769584Y-67736176D01*
X139972037Y-67860240D01*
X140191406Y-67951105D01*
X140422289Y-68006535D01*
X140659000Y-68025165D01*
X140895711Y-68006535D01*
X141126594Y-67951105D01*
X141345963Y-67860240D01*
X141548416Y-67736176D01*
X141728969Y-67581969D01*
X141883176Y-67401416D01*
X142007240Y-67198963D01*
X142098105Y-66979594D01*
X142153535Y-66748711D01*
X142172165Y-66512000D01*
X142153535Y-66275289D01*
X142098105Y-66044406D01*
X142007240Y-65825037D01*
X141883176Y-65622584D01*
X141883173Y-65622580D01*
X141728969Y-65442030D01*
X141548419Y-65287826D01*
X141548417Y-65287825D01*
X141548416Y-65287824D01*
X141345963Y-65163760D01*
X141197228Y-65102152D01*
X141126592Y-65072894D01*
X140968651Y-65034976D01*
X140895711Y-65017465D01*
X140659000Y-64998835D01*
X140422289Y-65017465D01*
X140191407Y-65072894D01*
X139972038Y-65163759D01*
X139769582Y-65287825D01*
X139769580Y-65287826D01*
X139589030Y-65442030D01*
X139434826Y-65622580D01*
X139434825Y-65622582D01*
X139434824Y-65622584D01*
X139310760Y-65825037D01*
X139310478Y-65825715D01*
X139310305Y-65825931D01*
X139308516Y-65829443D01*
X139307778Y-65829067D01*
X139265935Y-65880996D01*
X139198573Y-65903420D01*
X139194070Y-65903500D01*
X135623930Y-65903500D01*
X135555809Y-65883498D01*
X135509316Y-65829842D01*
X135507539Y-65825760D01*
X135507240Y-65825037D01*
X135383176Y-65622584D01*
X135383173Y-65622580D01*
X135228969Y-65442030D01*
X135048419Y-65287826D01*
X135048417Y-65287825D01*
X135048416Y-65287824D01*
X134845963Y-65163760D01*
X134697228Y-65102152D01*
X134626592Y-65072894D01*
X134468651Y-65034976D01*
X134395711Y-65017465D01*
X134159000Y-64998835D01*
X133922289Y-65017465D01*
X133691407Y-65072894D01*
X133472038Y-65163759D01*
X133269582Y-65287825D01*
X133269580Y-65287826D01*
X133089030Y-65442030D01*
X132934826Y-65622580D01*
X132934825Y-65622582D01*
X132810759Y-65825038D01*
X132719894Y-66044407D01*
X132664465Y-66275289D01*
X132645835Y-66512000D01*
X129980165Y-66512000D01*
X129961535Y-66275289D01*
X129906105Y-66044406D01*
X129815240Y-65825037D01*
X129691176Y-65622584D01*
X129691173Y-65622580D01*
X129536969Y-65442030D01*
X129356419Y-65287826D01*
X129356417Y-65287825D01*
X129356416Y-65287824D01*
X129153963Y-65163760D01*
X129005228Y-65102152D01*
X128934592Y-65072894D01*
X128809606Y-65042888D01*
X128703711Y-65017465D01*
X128703708Y-65017464D01*
X128703705Y-65017464D01*
X128698266Y-65017036D01*
X128631925Y-64991748D01*
X128589788Y-64934608D01*
X128585232Y-64863758D01*
X128619061Y-64802330D01*
X128652111Y-64769281D01*
X128749043Y-64615015D01*
X128809217Y-64443047D01*
X128829616Y-64262000D01*
X128809217Y-64080953D01*
X128749043Y-63908985D01*
X128749041Y-63908982D01*
X128749041Y-63908981D01*
X128652112Y-63754720D01*
X128652111Y-63754718D01*
X128619062Y-63721669D01*
X128585036Y-63659357D01*
X128590101Y-63588542D01*
X128632648Y-63531706D01*
X128698276Y-63506962D01*
X128703711Y-63506535D01*
X128934594Y-63451105D01*
X129153963Y-63360240D01*
X129356416Y-63236176D01*
X129536969Y-63081969D01*
X129691176Y-62901416D01*
X129815240Y-62698963D01*
X129906105Y-62479594D01*
X129961535Y-62248711D01*
X129980165Y-62012000D01*
X132645835Y-62012000D01*
X132664465Y-62248710D01*
X132719894Y-62479592D01*
X132810759Y-62698961D01*
X132934825Y-62901417D01*
X132934826Y-62901419D01*
X133089030Y-63081969D01*
X133269580Y-63236173D01*
X133269584Y-63236176D01*
X133472037Y-63360240D01*
X133691406Y-63451105D01*
X133922289Y-63506535D01*
X134159000Y-63525165D01*
X134395711Y-63506535D01*
X134626594Y-63451105D01*
X134845963Y-63360240D01*
X135048416Y-63236176D01*
X135228969Y-63081969D01*
X135383176Y-62901416D01*
X135507240Y-62698963D01*
X135508517Y-62695879D01*
X135522642Y-62661781D01*
X135567190Y-62606500D01*
X135634554Y-62584080D01*
X135639050Y-62584000D01*
X139178950Y-62584000D01*
X139247071Y-62604002D01*
X139293564Y-62657658D01*
X139295358Y-62661781D01*
X139310757Y-62698958D01*
X139434825Y-62901417D01*
X139434826Y-62901419D01*
X139589030Y-63081969D01*
X139769580Y-63236173D01*
X139769584Y-63236176D01*
X139972037Y-63360240D01*
X140191406Y-63451105D01*
X140422289Y-63506535D01*
X140659000Y-63525165D01*
X140895711Y-63506535D01*
X141126594Y-63451105D01*
X141345963Y-63360240D01*
X141548416Y-63236176D01*
X141728969Y-63081969D01*
X141883176Y-62901416D01*
X142007240Y-62698963D01*
X142098105Y-62479594D01*
X142153535Y-62248711D01*
X142172165Y-62012000D01*
X142153535Y-61775289D01*
X142098105Y-61544406D01*
X142007240Y-61325037D01*
X141883176Y-61122584D01*
X141883173Y-61122580D01*
X141728969Y-60942030D01*
X141548419Y-60787826D01*
X141548417Y-60787825D01*
X141548416Y-60787824D01*
X141345963Y-60663760D01*
X141126594Y-60572895D01*
X141126592Y-60572894D01*
X140968651Y-60534976D01*
X140895711Y-60517465D01*
X140659000Y-60498835D01*
X140422289Y-60517465D01*
X140191407Y-60572894D01*
X139972038Y-60663759D01*
X139769582Y-60787825D01*
X139769580Y-60787826D01*
X139589030Y-60942030D01*
X139434826Y-61122580D01*
X139434825Y-61122582D01*
X139310757Y-61325041D01*
X139295358Y-61362219D01*
X139250810Y-61417500D01*
X139183446Y-61439920D01*
X139178950Y-61440000D01*
X135639050Y-61440000D01*
X135570929Y-61419998D01*
X135524436Y-61366342D01*
X135522642Y-61362219D01*
X135507242Y-61325041D01*
X135507240Y-61325037D01*
X135383176Y-61122584D01*
X135383173Y-61122580D01*
X135228969Y-60942030D01*
X135048419Y-60787826D01*
X135048417Y-60787825D01*
X135048416Y-60787824D01*
X134845963Y-60663760D01*
X134626594Y-60572895D01*
X134626592Y-60572894D01*
X134468651Y-60534976D01*
X134395711Y-60517465D01*
X134159000Y-60498835D01*
X133922289Y-60517465D01*
X133691407Y-60572894D01*
X133472038Y-60663759D01*
X133269582Y-60787825D01*
X133269580Y-60787826D01*
X133089030Y-60942030D01*
X132934826Y-61122580D01*
X132934825Y-61122582D01*
X132810759Y-61325038D01*
X132719894Y-61544407D01*
X132664465Y-61775289D01*
X132645835Y-62012000D01*
X129980165Y-62012000D01*
X129961535Y-61775289D01*
X129906105Y-61544406D01*
X129815240Y-61325037D01*
X129691176Y-61122584D01*
X129691173Y-61122580D01*
X129536969Y-60942030D01*
X129356419Y-60787826D01*
X129356417Y-60787825D01*
X129356416Y-60787824D01*
X129153963Y-60663760D01*
X128934594Y-60572895D01*
X128934592Y-60572894D01*
X128776651Y-60534976D01*
X128703711Y-60517465D01*
X128467000Y-60498835D01*
X128230289Y-60517465D01*
X127999407Y-60572894D01*
X127780038Y-60663759D01*
X127577582Y-60787825D01*
X127577580Y-60787826D01*
X127397030Y-60942030D01*
X127242826Y-61122580D01*
X127242825Y-61122582D01*
X127118757Y-61325041D01*
X127103358Y-61362219D01*
X127058810Y-61417500D01*
X126991446Y-61439920D01*
X126986950Y-61440000D01*
X123447050Y-61440000D01*
X123378929Y-61419998D01*
X123332436Y-61366342D01*
X123330642Y-61362219D01*
X123315242Y-61325041D01*
X123315240Y-61325037D01*
X123191176Y-61122584D01*
X123191173Y-61122580D01*
X123036969Y-60942030D01*
X122856419Y-60787826D01*
X122856417Y-60787825D01*
X122856416Y-60787824D01*
X122653963Y-60663760D01*
X122434594Y-60572895D01*
X122434592Y-60572894D01*
X122276651Y-60534976D01*
X122203711Y-60517465D01*
X121967000Y-60498835D01*
X121730289Y-60517465D01*
X121499407Y-60572894D01*
X121280038Y-60663759D01*
X121077582Y-60787825D01*
X121077580Y-60787826D01*
X120897030Y-60942030D01*
X120742826Y-61122580D01*
X120742825Y-61122582D01*
X120618759Y-61325038D01*
X120527894Y-61544407D01*
X120472465Y-61775289D01*
X120453835Y-62012000D01*
X120472465Y-62248710D01*
X120527894Y-62479592D01*
X120618759Y-62698961D01*
X120742825Y-62901417D01*
X120742826Y-62901419D01*
X120897030Y-63081969D01*
X121077580Y-63236173D01*
X121077584Y-63236176D01*
X121280037Y-63360240D01*
X121499406Y-63451105D01*
X121730289Y-63506535D01*
X121967000Y-63525165D01*
X122203711Y-63506535D01*
X122434594Y-63451105D01*
X122653963Y-63360240D01*
X122856416Y-63236176D01*
X123036969Y-63081969D01*
X123191176Y-62901416D01*
X123315240Y-62698963D01*
X123316517Y-62695879D01*
X123330642Y-62661781D01*
X123375190Y-62606500D01*
X123442554Y-62584080D01*
X123447050Y-62584000D01*
X126986950Y-62584000D01*
X127055071Y-62604002D01*
X127101564Y-62657658D01*
X127103358Y-62661781D01*
X127118757Y-62698958D01*
X127242825Y-62901417D01*
X127242826Y-62901419D01*
X127397030Y-63081969D01*
X127577580Y-63236173D01*
X127577584Y-63236176D01*
X127686419Y-63302871D01*
X127734049Y-63355517D01*
X127745656Y-63425558D01*
X127717553Y-63490756D01*
X127668769Y-63524671D01*
X127669356Y-63525889D01*
X127662981Y-63528958D01*
X127508725Y-63625883D01*
X127508570Y-63626008D01*
X127508450Y-63626056D01*
X127502727Y-63629653D01*
X127502097Y-63628650D01*
X127442841Y-63652845D01*
X127430006Y-63653500D01*
X124410994Y-63653500D01*
X124342873Y-63633498D01*
X124332430Y-63626008D01*
X124332274Y-63625883D01*
X124178018Y-63528958D01*
X124178015Y-63528957D01*
X124006050Y-63468784D01*
X124006049Y-63468783D01*
X124006047Y-63468783D01*
X123825000Y-63448384D01*
X123643953Y-63468783D01*
X123643950Y-63468783D01*
X123643949Y-63468784D01*
X123471984Y-63528957D01*
X123471981Y-63528958D01*
X123317720Y-63625887D01*
X123317718Y-63625888D01*
X123188888Y-63754718D01*
X123188887Y-63754720D01*
X123091958Y-63908981D01*
X123091957Y-63908984D01*
X123091957Y-63908985D01*
X123031783Y-64080953D01*
X123011384Y-64262000D01*
X123031783Y-64443047D01*
X123031783Y-64443049D01*
X123031784Y-64443050D01*
X123091957Y-64615015D01*
X123091958Y-64615018D01*
X123188887Y-64769279D01*
X123188888Y-64769281D01*
X123317718Y-64898111D01*
X123317720Y-64898112D01*
X123471981Y-64995041D01*
X123471982Y-64995041D01*
X123471985Y-64995043D01*
X123643953Y-65055217D01*
X123825000Y-65075616D01*
X124006047Y-65055217D01*
X124178015Y-64995043D01*
X124274197Y-64934608D01*
X124332274Y-64898116D01*
X124332279Y-64898112D01*
X124332281Y-64898111D01*
X124332283Y-64898108D01*
X124332430Y-64897992D01*
X124332549Y-64897943D01*
X124338273Y-64894347D01*
X124338902Y-64895349D01*
X124398159Y-64871155D01*
X124410994Y-64870500D01*
X127430006Y-64870500D01*
X127498127Y-64890502D01*
X127508570Y-64897992D01*
X127508725Y-64898116D01*
X127662981Y-64995041D01*
X127669356Y-64998111D01*
X127668715Y-64999440D01*
X127719893Y-65036151D01*
X127746053Y-65102152D01*
X127732377Y-65171819D01*
X127686418Y-65221129D01*
X127577591Y-65287818D01*
X127577580Y-65287826D01*
X127397030Y-65442030D01*
X127242826Y-65622580D01*
X127242825Y-65622582D01*
X127242824Y-65622584D01*
X127118760Y-65825037D01*
X127118478Y-65825715D01*
X127118305Y-65825931D01*
X127116516Y-65829443D01*
X127115778Y-65829067D01*
X127073935Y-65880996D01*
X127006573Y-65903420D01*
X127002070Y-65903500D01*
X123431930Y-65903500D01*
X123363809Y-65883498D01*
X123317316Y-65829842D01*
X123315539Y-65825760D01*
X123315240Y-65825037D01*
X123191176Y-65622584D01*
X123191173Y-65622580D01*
X123036969Y-65442030D01*
X122856419Y-65287826D01*
X122856417Y-65287825D01*
X122856416Y-65287824D01*
X122653963Y-65163760D01*
X122505228Y-65102152D01*
X122434592Y-65072894D01*
X122276651Y-65034976D01*
X122203711Y-65017465D01*
X121967000Y-64998835D01*
X121730289Y-65017465D01*
X121499407Y-65072894D01*
X121280038Y-65163759D01*
X121077582Y-65287825D01*
X121077580Y-65287826D01*
X120897030Y-65442030D01*
X120742826Y-65622580D01*
X120742825Y-65622582D01*
X120618759Y-65825038D01*
X120527894Y-66044407D01*
X120472465Y-66275289D01*
X120453835Y-66512000D01*
X117793165Y-66512000D01*
X117774535Y-66275289D01*
X117719105Y-66044406D01*
X117628240Y-65825037D01*
X117504176Y-65622584D01*
X117504173Y-65622580D01*
X117349969Y-65442030D01*
X117169419Y-65287826D01*
X117169417Y-65287825D01*
X117169416Y-65287824D01*
X116966963Y-65163760D01*
X116818228Y-65102152D01*
X116747592Y-65072894D01*
X116589651Y-65034976D01*
X116516711Y-65017465D01*
X116280000Y-64998835D01*
X116043289Y-65017465D01*
X115812407Y-65072894D01*
X115593038Y-65163759D01*
X115390582Y-65287825D01*
X115390580Y-65287826D01*
X115210030Y-65442030D01*
X115055826Y-65622580D01*
X115055825Y-65622582D01*
X115055824Y-65622584D01*
X114931760Y-65825037D01*
X114931478Y-65825715D01*
X114931305Y-65825931D01*
X114929516Y-65829443D01*
X114928778Y-65829067D01*
X114886935Y-65880996D01*
X114819573Y-65903420D01*
X114815070Y-65903500D01*
X111244930Y-65903500D01*
X111176809Y-65883498D01*
X111130316Y-65829842D01*
X111128539Y-65825760D01*
X111128240Y-65825037D01*
X111004176Y-65622584D01*
X111004173Y-65622580D01*
X110849969Y-65442030D01*
X110669419Y-65287826D01*
X110669417Y-65287825D01*
X110669416Y-65287824D01*
X110466963Y-65163760D01*
X110318228Y-65102152D01*
X110247592Y-65072894D01*
X110089651Y-65034976D01*
X110016711Y-65017465D01*
X109780000Y-64998835D01*
X109543289Y-65017465D01*
X109312407Y-65072894D01*
X109093038Y-65163759D01*
X108890582Y-65287825D01*
X108890580Y-65287826D01*
X108710030Y-65442030D01*
X108555826Y-65622580D01*
X108555825Y-65622582D01*
X108431759Y-65825038D01*
X108340894Y-66044407D01*
X108285465Y-66275289D01*
X108266835Y-66512000D01*
X108285465Y-66748710D01*
X108340894Y-66979592D01*
X108431759Y-67198961D01*
X108555825Y-67401417D01*
X108555826Y-67401419D01*
X108710030Y-67581969D01*
X108890580Y-67736173D01*
X108890584Y-67736176D01*
X109093037Y-67860240D01*
X109181318Y-67896807D01*
X109236598Y-67941354D01*
X109259019Y-68008717D01*
X109241461Y-68077509D01*
X109209799Y-68113180D01*
X109201605Y-68119468D01*
X109201598Y-68119473D01*
X109167012Y-68146013D01*
X109145035Y-68174653D01*
X109139597Y-68180853D01*
X108055283Y-69265166D01*
X107992971Y-69299192D01*
X107980298Y-69301278D01*
X107895957Y-69310782D01*
X107895950Y-69310783D01*
X107723984Y-69370957D01*
X107723981Y-69370958D01*
X107569720Y-69467887D01*
X107569718Y-69467888D01*
X107440888Y-69596718D01*
X107440887Y-69596720D01*
X107343958Y-69750981D01*
X107343957Y-69750984D01*
X107343957Y-69750985D01*
X107283783Y-69922953D01*
X107263384Y-70104000D01*
X100330000Y-70104000D01*
X100330000Y-62012000D01*
X108266835Y-62012000D01*
X108285465Y-62248710D01*
X108340894Y-62479592D01*
X108431759Y-62698961D01*
X108555825Y-62901417D01*
X108555826Y-62901419D01*
X108710030Y-63081969D01*
X108890580Y-63236173D01*
X108890584Y-63236176D01*
X109093037Y-63360240D01*
X109312406Y-63451105D01*
X109543289Y-63506535D01*
X109780000Y-63525165D01*
X110016711Y-63506535D01*
X110247594Y-63451105D01*
X110466963Y-63360240D01*
X110669416Y-63236176D01*
X110849969Y-63081969D01*
X111004176Y-62901416D01*
X111128240Y-62698963D01*
X111129517Y-62695879D01*
X111143642Y-62661781D01*
X111188190Y-62606500D01*
X111255554Y-62584080D01*
X111260050Y-62584000D01*
X114799950Y-62584000D01*
X114868071Y-62604002D01*
X114914564Y-62657658D01*
X114916358Y-62661781D01*
X114931757Y-62698958D01*
X115055825Y-62901417D01*
X115055826Y-62901419D01*
X115210030Y-63081969D01*
X115390580Y-63236173D01*
X115390584Y-63236176D01*
X115593037Y-63360240D01*
X115812406Y-63451105D01*
X116043289Y-63506535D01*
X116280000Y-63525165D01*
X116516711Y-63506535D01*
X116747594Y-63451105D01*
X116966963Y-63360240D01*
X117169416Y-63236176D01*
X117349969Y-63081969D01*
X117504176Y-62901416D01*
X117628240Y-62698963D01*
X117719105Y-62479594D01*
X117774535Y-62248711D01*
X117793165Y-62012000D01*
X117774535Y-61775289D01*
X117719105Y-61544406D01*
X117628240Y-61325037D01*
X117504176Y-61122584D01*
X117504173Y-61122580D01*
X117349969Y-60942030D01*
X117169419Y-60787826D01*
X117169417Y-60787825D01*
X117169416Y-60787824D01*
X116966963Y-60663760D01*
X116747594Y-60572895D01*
X116747592Y-60572894D01*
X116589651Y-60534976D01*
X116516711Y-60517465D01*
X116280000Y-60498835D01*
X116043289Y-60517465D01*
X115812407Y-60572894D01*
X115593038Y-60663759D01*
X115390582Y-60787825D01*
X115390580Y-60787826D01*
X115210030Y-60942030D01*
X115055826Y-61122580D01*
X115055825Y-61122582D01*
X114931757Y-61325041D01*
X114916358Y-61362219D01*
X114871810Y-61417500D01*
X114804446Y-61439920D01*
X114799950Y-61440000D01*
X111260050Y-61440000D01*
X111191929Y-61419998D01*
X111145436Y-61366342D01*
X111143642Y-61362219D01*
X111128242Y-61325041D01*
X111128240Y-61325037D01*
X111004176Y-61122584D01*
X111004173Y-61122580D01*
X110849969Y-60942030D01*
X110669419Y-60787826D01*
X110669417Y-60787825D01*
X110669416Y-60787824D01*
X110466963Y-60663760D01*
X110247594Y-60572895D01*
X110247592Y-60572894D01*
X110089651Y-60534976D01*
X110016711Y-60517465D01*
X109780000Y-60498835D01*
X109543289Y-60517465D01*
X109312407Y-60572894D01*
X109093038Y-60663759D01*
X108890582Y-60787825D01*
X108890580Y-60787826D01*
X108710030Y-60942030D01*
X108555826Y-61122580D01*
X108555825Y-61122582D01*
X108431759Y-61325038D01*
X108340894Y-61544407D01*
X108285465Y-61775289D01*
X108266835Y-62012000D01*
X100330000Y-62012000D01*
X100330000Y-57342506D01*
X143274500Y-57342506D01*
X143277437Y-57379829D01*
X143323856Y-57539605D01*
X143408544Y-57682803D01*
X143408549Y-57682810D01*
X143526189Y-57800450D01*
X143526196Y-57800455D01*
X143669394Y-57885143D01*
X143669397Y-57885143D01*
X143669399Y-57885145D01*
X143829169Y-57931562D01*
X143836634Y-57932149D01*
X143866494Y-57934500D01*
X143866498Y-57934500D01*
X145249506Y-57934500D01*
X145274388Y-57932541D01*
X145286831Y-57931562D01*
X145446601Y-57885145D01*
X145502567Y-57852046D01*
X145566706Y-57834500D01*
X145583430Y-57834500D01*
X145650465Y-57853812D01*
X145696985Y-57883043D01*
X145868953Y-57943217D01*
X146050000Y-57963616D01*
X146231047Y-57943217D01*
X146403015Y-57883043D01*
X146557281Y-57786111D01*
X146686111Y-57657281D01*
X146783043Y-57503015D01*
X146843217Y-57331047D01*
X146863616Y-57150000D01*
X146843217Y-56968953D01*
X146783043Y-56796985D01*
X146783041Y-56796982D01*
X146783041Y-56796981D01*
X146686112Y-56642720D01*
X146686111Y-56642718D01*
X146557281Y-56513888D01*
X146557279Y-56513887D01*
X146403018Y-56416958D01*
X146403015Y-56416957D01*
X146231050Y-56356784D01*
X146231049Y-56356783D01*
X146231047Y-56356783D01*
X146050000Y-56336384D01*
X145868953Y-56356783D01*
X145868950Y-56356783D01*
X145868949Y-56356784D01*
X145822810Y-56372929D01*
X145781195Y-56380000D01*
X145503071Y-56380000D01*
X145453035Y-56369639D01*
X145446604Y-56366856D01*
X145286829Y-56320437D01*
X145249506Y-56317500D01*
X145249502Y-56317500D01*
X143866498Y-56317500D01*
X143866494Y-56317500D01*
X143829170Y-56320437D01*
X143669395Y-56366856D01*
X143662965Y-56369639D01*
X143612929Y-56380000D01*
X143278007Y-56380000D01*
X143324318Y-56539401D01*
X143324319Y-56539403D01*
X143337311Y-56561372D01*
X143354769Y-56630189D01*
X143337311Y-56689644D01*
X143323854Y-56712398D01*
X143323853Y-56712401D01*
X143277438Y-56872167D01*
X143277437Y-56872170D01*
X143274500Y-56909494D01*
X143274500Y-57342506D01*
X100330000Y-57342506D01*
X100330000Y-38643365D01*
X100350002Y-38575244D01*
X100403658Y-38528751D01*
X100473932Y-38518647D01*
X100538512Y-38548141D01*
X100576896Y-38607867D01*
X100577310Y-38609310D01*
X100632156Y-38805058D01*
X100746639Y-39068625D01*
X100895945Y-39314147D01*
X101077292Y-39537053D01*
X101287302Y-39733189D01*
X101522064Y-39898901D01*
X101628030Y-39953808D01*
X101777196Y-40031101D01*
X101777199Y-40031102D01*
X101777203Y-40031104D01*
X102047968Y-40127334D01*
X102329314Y-40185798D01*
X102329325Y-40185798D01*
X102329327Y-40185799D01*
X102462198Y-40194887D01*
X102544248Y-40200500D01*
X102544249Y-40200500D01*
X102687751Y-40200500D01*
X102687752Y-40200500D01*
X102820469Y-40191421D01*
X102902672Y-40185799D01*
X102902672Y-40185798D01*
X102902686Y-40185798D01*
X103184032Y-40127334D01*
X103454797Y-40031104D01*
X103709936Y-39898901D01*
X103944698Y-39733189D01*
X104154708Y-39537053D01*
X104336055Y-39314147D01*
X104485361Y-39068625D01*
X104599844Y-38805058D01*
X104677371Y-38528358D01*
X104716500Y-38243678D01*
X104716500Y-37956322D01*
X104716500Y-37956321D01*
X104716499Y-37956311D01*
X104677371Y-37671642D01*
X104664234Y-37624755D01*
X104599844Y-37394942D01*
X104485361Y-37131375D01*
X104336055Y-36885853D01*
X104154708Y-36662947D01*
X103944698Y-36466811D01*
X103796426Y-36362150D01*
X103709938Y-36301100D01*
X103454803Y-36168898D01*
X103184033Y-36072666D01*
X103184025Y-36072664D01*
X103150186Y-36065632D01*
X103139271Y-36063364D01*
X103076645Y-36029922D01*
X103042041Y-35967929D01*
X103046446Y-35897069D01*
X103088462Y-35839840D01*
X103154748Y-35814410D01*
X103164907Y-35814000D01*
X147025093Y-35814000D01*
X147093214Y-35834002D01*
G37*
%TD.AperFunction*%
%TD*%
M02*
