%TF.GenerationSoftware,KiCad,Pcbnew,7.0.8*%
%TF.CreationDate,2024-01-15T19:45:52-06:00*%
%TF.ProjectId,remote,72656d6f-7465-42e6-9b69-6361645f7063,rev?*%
%TF.SameCoordinates,Original*%
%TF.FileFunction,Soldermask,Bot*%
%TF.FilePolarity,Negative*%
%FSLAX46Y46*%
G04 Gerber Fmt 4.6, Leading zero omitted, Abs format (unit mm)*
G04 Created by KiCad (PCBNEW 7.0.8) date 2024-01-15 19:45:52*
%MOMM*%
%LPD*%
G01*
G04 APERTURE LIST*
G04 APERTURE END LIST*
G36*
X102917029Y-81999992D02*
G01*
X103106312Y-82073320D01*
X103278898Y-82180181D01*
X103428910Y-82316935D01*
X103551239Y-82478925D01*
X103641719Y-82660634D01*
X103697270Y-82855876D01*
X103716000Y-83058000D01*
X103697270Y-83260124D01*
X103641719Y-83455366D01*
X103551239Y-83637075D01*
X103428910Y-83799065D01*
X103278898Y-83935819D01*
X103106312Y-84042680D01*
X102917029Y-84116008D01*
X102717495Y-84153308D01*
X102514505Y-84153308D01*
X102314971Y-84116008D01*
X102125688Y-84042680D01*
X101953102Y-83935819D01*
X101803090Y-83799065D01*
X101680761Y-83637075D01*
X101590281Y-83455366D01*
X101534730Y-83260124D01*
X101516000Y-83058000D01*
X101534730Y-82855876D01*
X101590281Y-82660634D01*
X101680761Y-82478925D01*
X101803090Y-82316935D01*
X101953102Y-82180181D01*
X102125688Y-82073320D01*
X102314971Y-81999992D01*
X102514505Y-81962692D01*
X102717495Y-81962692D01*
X102917029Y-81999992D01*
G37*
G36*
X147875029Y-81999992D02*
G01*
X148064312Y-82073320D01*
X148236898Y-82180181D01*
X148386910Y-82316935D01*
X148509239Y-82478925D01*
X148599719Y-82660634D01*
X148655270Y-82855876D01*
X148674000Y-83058000D01*
X148655270Y-83260124D01*
X148599719Y-83455366D01*
X148509239Y-83637075D01*
X148386910Y-83799065D01*
X148236898Y-83935819D01*
X148064312Y-84042680D01*
X147875029Y-84116008D01*
X147675495Y-84153308D01*
X147472505Y-84153308D01*
X147272971Y-84116008D01*
X147083688Y-84042680D01*
X146911102Y-83935819D01*
X146761090Y-83799065D01*
X146638761Y-83637075D01*
X146548281Y-83455366D01*
X146492730Y-83260124D01*
X146474000Y-83058000D01*
X146492730Y-82855876D01*
X146548281Y-82660634D01*
X146638761Y-82478925D01*
X146761090Y-82316935D01*
X146911102Y-82180181D01*
X147083688Y-82073320D01*
X147272971Y-81999992D01*
X147472505Y-81962692D01*
X147675495Y-81962692D01*
X147875029Y-81999992D01*
G37*
G36*
X106633403Y-80344418D02*
G01*
X106682066Y-80376934D01*
X106714582Y-80425597D01*
X106726000Y-80483000D01*
X106726000Y-82233000D01*
X106714582Y-82290403D01*
X106682066Y-82339066D01*
X106633403Y-82371582D01*
X106576000Y-82383000D01*
X106276000Y-82383000D01*
X106218597Y-82371582D01*
X106169934Y-82339066D01*
X106137418Y-82290403D01*
X106126000Y-82233000D01*
X106126000Y-80483000D01*
X106137418Y-80425597D01*
X106169934Y-80376934D01*
X106218597Y-80344418D01*
X106276000Y-80333000D01*
X106576000Y-80333000D01*
X106633403Y-80344418D01*
G37*
G36*
X107903403Y-80344418D02*
G01*
X107952066Y-80376934D01*
X107984582Y-80425597D01*
X107996000Y-80483000D01*
X107996000Y-82233000D01*
X107984582Y-82290403D01*
X107952066Y-82339066D01*
X107903403Y-82371582D01*
X107846000Y-82383000D01*
X107546000Y-82383000D01*
X107488597Y-82371582D01*
X107439934Y-82339066D01*
X107407418Y-82290403D01*
X107396000Y-82233000D01*
X107396000Y-80483000D01*
X107407418Y-80425597D01*
X107439934Y-80376934D01*
X107488597Y-80344418D01*
X107546000Y-80333000D01*
X107846000Y-80333000D01*
X107903403Y-80344418D01*
G37*
G36*
X109173403Y-80344418D02*
G01*
X109222066Y-80376934D01*
X109254582Y-80425597D01*
X109266000Y-80483000D01*
X109266000Y-82233000D01*
X109254582Y-82290403D01*
X109222066Y-82339066D01*
X109173403Y-82371582D01*
X109116000Y-82383000D01*
X108816000Y-82383000D01*
X108758597Y-82371582D01*
X108709934Y-82339066D01*
X108677418Y-82290403D01*
X108666000Y-82233000D01*
X108666000Y-80483000D01*
X108677418Y-80425597D01*
X108709934Y-80376934D01*
X108758597Y-80344418D01*
X108816000Y-80333000D01*
X109116000Y-80333000D01*
X109173403Y-80344418D01*
G37*
G36*
X110443403Y-80344418D02*
G01*
X110492066Y-80376934D01*
X110524582Y-80425597D01*
X110536000Y-80483000D01*
X110536000Y-82233000D01*
X110524582Y-82290403D01*
X110492066Y-82339066D01*
X110443403Y-82371582D01*
X110386000Y-82383000D01*
X110086000Y-82383000D01*
X110028597Y-82371582D01*
X109979934Y-82339066D01*
X109947418Y-82290403D01*
X109936000Y-82233000D01*
X109936000Y-80483000D01*
X109947418Y-80425597D01*
X109979934Y-80376934D01*
X110028597Y-80344418D01*
X110086000Y-80333000D01*
X110386000Y-80333000D01*
X110443403Y-80344418D01*
G37*
G36*
X111713403Y-80344418D02*
G01*
X111762066Y-80376934D01*
X111794582Y-80425597D01*
X111806000Y-80483000D01*
X111806000Y-82233000D01*
X111794582Y-82290403D01*
X111762066Y-82339066D01*
X111713403Y-82371582D01*
X111656000Y-82383000D01*
X111356000Y-82383000D01*
X111298597Y-82371582D01*
X111249934Y-82339066D01*
X111217418Y-82290403D01*
X111206000Y-82233000D01*
X111206000Y-80483000D01*
X111217418Y-80425597D01*
X111249934Y-80376934D01*
X111298597Y-80344418D01*
X111356000Y-80333000D01*
X111656000Y-80333000D01*
X111713403Y-80344418D01*
G37*
G36*
X112983403Y-80344418D02*
G01*
X113032066Y-80376934D01*
X113064582Y-80425597D01*
X113076000Y-80483000D01*
X113076000Y-82233000D01*
X113064582Y-82290403D01*
X113032066Y-82339066D01*
X112983403Y-82371582D01*
X112926000Y-82383000D01*
X112626000Y-82383000D01*
X112568597Y-82371582D01*
X112519934Y-82339066D01*
X112487418Y-82290403D01*
X112476000Y-82233000D01*
X112476000Y-80483000D01*
X112487418Y-80425597D01*
X112519934Y-80376934D01*
X112568597Y-80344418D01*
X112626000Y-80333000D01*
X112926000Y-80333000D01*
X112983403Y-80344418D01*
G37*
G36*
X114253403Y-80344418D02*
G01*
X114302066Y-80376934D01*
X114334582Y-80425597D01*
X114346000Y-80483000D01*
X114346000Y-82233000D01*
X114334582Y-82290403D01*
X114302066Y-82339066D01*
X114253403Y-82371582D01*
X114196000Y-82383000D01*
X113896000Y-82383000D01*
X113838597Y-82371582D01*
X113789934Y-82339066D01*
X113757418Y-82290403D01*
X113746000Y-82233000D01*
X113746000Y-80483000D01*
X113757418Y-80425597D01*
X113789934Y-80376934D01*
X113838597Y-80344418D01*
X113896000Y-80333000D01*
X114196000Y-80333000D01*
X114253403Y-80344418D01*
G37*
G36*
X115523403Y-80344418D02*
G01*
X115572066Y-80376934D01*
X115604582Y-80425597D01*
X115616000Y-80483000D01*
X115616000Y-82233000D01*
X115604582Y-82290403D01*
X115572066Y-82339066D01*
X115523403Y-82371582D01*
X115466000Y-82383000D01*
X115166000Y-82383000D01*
X115108597Y-82371582D01*
X115059934Y-82339066D01*
X115027418Y-82290403D01*
X115016000Y-82233000D01*
X115016000Y-80483000D01*
X115027418Y-80425597D01*
X115059934Y-80376934D01*
X115108597Y-80344418D01*
X115166000Y-80333000D01*
X115466000Y-80333000D01*
X115523403Y-80344418D01*
G37*
G36*
X116793403Y-80344418D02*
G01*
X116842066Y-80376934D01*
X116874582Y-80425597D01*
X116886000Y-80483000D01*
X116886000Y-82233000D01*
X116874582Y-82290403D01*
X116842066Y-82339066D01*
X116793403Y-82371582D01*
X116736000Y-82383000D01*
X116436000Y-82383000D01*
X116378597Y-82371582D01*
X116329934Y-82339066D01*
X116297418Y-82290403D01*
X116286000Y-82233000D01*
X116286000Y-80483000D01*
X116297418Y-80425597D01*
X116329934Y-80376934D01*
X116378597Y-80344418D01*
X116436000Y-80333000D01*
X116736000Y-80333000D01*
X116793403Y-80344418D01*
G37*
G36*
X131172000Y-82302000D02*
G01*
X129472000Y-82302000D01*
X129472000Y-80602000D01*
X131172000Y-80602000D01*
X131172000Y-82302000D01*
G37*
G36*
X120424664Y-80643602D02*
G01*
X120587000Y-80715878D01*
X120730761Y-80820327D01*
X120849664Y-80952383D01*
X120938514Y-81106274D01*
X120993425Y-81275275D01*
X121012000Y-81452000D01*
X120993425Y-81628725D01*
X120938514Y-81797726D01*
X120849664Y-81951617D01*
X120730761Y-82083673D01*
X120587000Y-82188122D01*
X120424664Y-82260398D01*
X120250849Y-82297344D01*
X120073151Y-82297344D01*
X119899336Y-82260398D01*
X119737000Y-82188122D01*
X119593239Y-82083673D01*
X119474336Y-81951617D01*
X119385486Y-81797726D01*
X119330575Y-81628725D01*
X119312000Y-81452000D01*
X119330575Y-81275275D01*
X119385486Y-81106274D01*
X119474336Y-80952383D01*
X119593239Y-80820327D01*
X119737000Y-80715878D01*
X119899336Y-80643602D01*
X120073151Y-80606656D01*
X120250849Y-80606656D01*
X120424664Y-80643602D01*
G37*
G36*
X122964664Y-80643602D02*
G01*
X123127000Y-80715878D01*
X123270761Y-80820327D01*
X123389664Y-80952383D01*
X123478514Y-81106274D01*
X123533425Y-81275275D01*
X123552000Y-81452000D01*
X123533425Y-81628725D01*
X123478514Y-81797726D01*
X123389664Y-81951617D01*
X123270761Y-82083673D01*
X123127000Y-82188122D01*
X122964664Y-82260398D01*
X122790849Y-82297344D01*
X122613151Y-82297344D01*
X122439336Y-82260398D01*
X122277000Y-82188122D01*
X122133239Y-82083673D01*
X122014336Y-81951617D01*
X121925486Y-81797726D01*
X121870575Y-81628725D01*
X121852000Y-81452000D01*
X121870575Y-81275275D01*
X121925486Y-81106274D01*
X122014336Y-80952383D01*
X122133239Y-80820327D01*
X122277000Y-80715878D01*
X122439336Y-80643602D01*
X122613151Y-80606656D01*
X122790849Y-80606656D01*
X122964664Y-80643602D01*
G37*
G36*
X125504664Y-80643602D02*
G01*
X125667000Y-80715878D01*
X125810761Y-80820327D01*
X125929664Y-80952383D01*
X126018514Y-81106274D01*
X126073425Y-81275275D01*
X126092000Y-81452000D01*
X126073425Y-81628725D01*
X126018514Y-81797726D01*
X125929664Y-81951617D01*
X125810761Y-82083673D01*
X125667000Y-82188122D01*
X125504664Y-82260398D01*
X125330849Y-82297344D01*
X125153151Y-82297344D01*
X124979336Y-82260398D01*
X124817000Y-82188122D01*
X124673239Y-82083673D01*
X124554336Y-81951617D01*
X124465486Y-81797726D01*
X124410575Y-81628725D01*
X124392000Y-81452000D01*
X124410575Y-81275275D01*
X124465486Y-81106274D01*
X124554336Y-80952383D01*
X124673239Y-80820327D01*
X124817000Y-80715878D01*
X124979336Y-80643602D01*
X125153151Y-80606656D01*
X125330849Y-80606656D01*
X125504664Y-80643602D01*
G37*
G36*
X128044664Y-80643602D02*
G01*
X128207000Y-80715878D01*
X128350761Y-80820327D01*
X128469664Y-80952383D01*
X128558514Y-81106274D01*
X128613425Y-81275275D01*
X128632000Y-81452000D01*
X128613425Y-81628725D01*
X128558514Y-81797726D01*
X128469664Y-81951617D01*
X128350761Y-82083673D01*
X128207000Y-82188122D01*
X128044664Y-82260398D01*
X127870849Y-82297344D01*
X127693151Y-82297344D01*
X127519336Y-82260398D01*
X127357000Y-82188122D01*
X127213239Y-82083673D01*
X127094336Y-81951617D01*
X127005486Y-81797726D01*
X126950575Y-81628725D01*
X126932000Y-81452000D01*
X126950575Y-81275275D01*
X127005486Y-81106274D01*
X127094336Y-80952383D01*
X127213239Y-80820327D01*
X127357000Y-80715878D01*
X127519336Y-80643602D01*
X127693151Y-80606656D01*
X127870849Y-80606656D01*
X128044664Y-80643602D01*
G37*
G36*
X122162090Y-77215215D02*
G01*
X122349683Y-77272120D01*
X122522570Y-77364530D01*
X122674107Y-77488893D01*
X122798470Y-77640430D01*
X122890880Y-77813317D01*
X122947785Y-78000910D01*
X122967000Y-78196000D01*
X122947785Y-78391090D01*
X122890880Y-78578683D01*
X122798470Y-78751570D01*
X122674107Y-78903107D01*
X122522570Y-79027470D01*
X122349683Y-79119880D01*
X122162090Y-79176785D01*
X121967000Y-79196000D01*
X121771910Y-79176785D01*
X121584317Y-79119880D01*
X121411430Y-79027470D01*
X121259893Y-78903107D01*
X121135530Y-78751570D01*
X121043120Y-78578683D01*
X120986215Y-78391090D01*
X120967000Y-78196000D01*
X120986215Y-78000910D01*
X121043120Y-77813317D01*
X121135530Y-77640430D01*
X121259893Y-77488893D01*
X121411430Y-77364530D01*
X121584317Y-77272120D01*
X121771910Y-77215215D01*
X121967000Y-77196000D01*
X122162090Y-77215215D01*
G37*
G36*
X128662090Y-77215215D02*
G01*
X128849683Y-77272120D01*
X129022570Y-77364530D01*
X129174107Y-77488893D01*
X129298470Y-77640430D01*
X129390880Y-77813317D01*
X129447785Y-78000910D01*
X129467000Y-78196000D01*
X129447785Y-78391090D01*
X129390880Y-78578683D01*
X129298470Y-78751570D01*
X129174107Y-78903107D01*
X129022570Y-79027470D01*
X128849683Y-79119880D01*
X128662090Y-79176785D01*
X128467000Y-79196000D01*
X128271910Y-79176785D01*
X128084317Y-79119880D01*
X127911430Y-79027470D01*
X127759893Y-78903107D01*
X127635530Y-78751570D01*
X127543120Y-78578683D01*
X127486215Y-78391090D01*
X127467000Y-78196000D01*
X127486215Y-78000910D01*
X127543120Y-77813317D01*
X127635530Y-77640430D01*
X127759893Y-77488893D01*
X127911430Y-77364530D01*
X128084317Y-77272120D01*
X128271910Y-77215215D01*
X128467000Y-77196000D01*
X128662090Y-77215215D01*
G37*
G36*
X104794850Y-77354964D02*
G01*
X104845040Y-77360787D01*
X104862189Y-77368359D01*
X104885671Y-77373030D01*
X104910810Y-77389827D01*
X104930696Y-77398608D01*
X104944277Y-77412189D01*
X104966777Y-77427223D01*
X104981810Y-77449722D01*
X104995391Y-77463303D01*
X105004170Y-77483186D01*
X105020970Y-77508329D01*
X105025641Y-77531812D01*
X105033212Y-77548959D01*
X105039033Y-77599139D01*
X105040000Y-77604000D01*
X105040000Y-78429000D01*
X105039032Y-78433863D01*
X105033212Y-78484040D01*
X105025641Y-78501185D01*
X105020970Y-78524671D01*
X105004169Y-78549815D01*
X104995391Y-78569696D01*
X104981812Y-78583274D01*
X104966777Y-78605777D01*
X104944274Y-78620812D01*
X104930696Y-78634391D01*
X104910815Y-78643169D01*
X104885671Y-78659970D01*
X104862185Y-78664641D01*
X104845040Y-78672212D01*
X104794861Y-78678032D01*
X104790000Y-78679000D01*
X103490000Y-78679000D01*
X103485138Y-78678032D01*
X103434959Y-78672212D01*
X103417812Y-78664641D01*
X103394329Y-78659970D01*
X103369186Y-78643170D01*
X103349303Y-78634391D01*
X103335722Y-78620810D01*
X103313223Y-78605777D01*
X103298189Y-78583277D01*
X103284608Y-78569696D01*
X103275827Y-78549810D01*
X103259030Y-78524671D01*
X103254359Y-78501189D01*
X103246787Y-78484040D01*
X103240964Y-78433849D01*
X103240000Y-78429000D01*
X103240000Y-77604000D01*
X103240964Y-77599150D01*
X103246787Y-77548959D01*
X103254359Y-77531808D01*
X103259030Y-77508329D01*
X103275826Y-77483191D01*
X103284608Y-77463303D01*
X103298191Y-77449719D01*
X103313223Y-77427223D01*
X103335719Y-77412191D01*
X103349303Y-77398608D01*
X103369191Y-77389826D01*
X103394329Y-77373030D01*
X103417808Y-77368359D01*
X103434959Y-77360787D01*
X103485151Y-77354964D01*
X103490000Y-77354000D01*
X104790000Y-77354000D01*
X104794850Y-77354964D01*
G37*
G36*
X139250000Y-77851000D02*
G01*
X138750000Y-78601000D01*
X138746996Y-78601000D01*
X137755908Y-78601000D01*
X137750000Y-78601000D01*
X137750000Y-77101000D01*
X138750000Y-77101000D01*
X139250000Y-77851000D01*
G37*
G36*
X140200000Y-78601000D02*
G01*
X140194092Y-78601000D01*
X139055908Y-78601000D01*
X139050000Y-78601000D01*
X139051673Y-78598489D01*
X139051674Y-78598487D01*
X139537889Y-77869166D01*
X139537889Y-77832834D01*
X139053279Y-77105919D01*
X139053278Y-77105917D01*
X139050000Y-77101000D01*
X140200000Y-77101000D01*
X140200000Y-78601000D01*
G37*
G36*
X139250000Y-75311000D02*
G01*
X138750000Y-76061000D01*
X138746996Y-76061000D01*
X137755908Y-76061000D01*
X137750000Y-76061000D01*
X137750000Y-74561000D01*
X138750000Y-74561000D01*
X139250000Y-75311000D01*
G37*
G36*
X140200000Y-76061000D02*
G01*
X140194092Y-76061000D01*
X139055908Y-76061000D01*
X139050000Y-76061000D01*
X139051673Y-76058489D01*
X139051674Y-76058487D01*
X139537889Y-75329166D01*
X139537889Y-75292834D01*
X139053279Y-74565919D01*
X139053278Y-74565917D01*
X139050000Y-74561000D01*
X140200000Y-74561000D01*
X140200000Y-76061000D01*
G37*
G36*
X104794850Y-74229964D02*
G01*
X104845040Y-74235787D01*
X104862189Y-74243359D01*
X104885671Y-74248030D01*
X104910810Y-74264827D01*
X104930696Y-74273608D01*
X104944277Y-74287189D01*
X104966777Y-74302223D01*
X104981810Y-74324722D01*
X104995391Y-74338303D01*
X105004170Y-74358186D01*
X105020970Y-74383329D01*
X105025641Y-74406812D01*
X105033212Y-74423959D01*
X105039033Y-74474139D01*
X105040000Y-74479000D01*
X105040000Y-75304000D01*
X105039032Y-75308863D01*
X105033212Y-75359040D01*
X105025641Y-75376185D01*
X105020970Y-75399671D01*
X105004169Y-75424815D01*
X104995391Y-75444696D01*
X104981812Y-75458274D01*
X104966777Y-75480777D01*
X104944274Y-75495812D01*
X104930696Y-75509391D01*
X104910815Y-75518169D01*
X104885671Y-75534970D01*
X104862185Y-75539641D01*
X104845040Y-75547212D01*
X104794861Y-75553032D01*
X104790000Y-75554000D01*
X103490000Y-75554000D01*
X103485138Y-75553032D01*
X103434959Y-75547212D01*
X103417812Y-75539641D01*
X103394329Y-75534970D01*
X103369186Y-75518170D01*
X103349303Y-75509391D01*
X103335722Y-75495810D01*
X103313223Y-75480777D01*
X103298189Y-75458277D01*
X103284608Y-75444696D01*
X103275827Y-75424810D01*
X103259030Y-75399671D01*
X103254359Y-75376189D01*
X103246787Y-75359040D01*
X103240964Y-75308849D01*
X103240000Y-75304000D01*
X103240000Y-74479000D01*
X103240964Y-74474150D01*
X103246787Y-74423959D01*
X103254359Y-74406808D01*
X103259030Y-74383329D01*
X103275826Y-74358191D01*
X103284608Y-74338303D01*
X103298191Y-74324719D01*
X103313223Y-74302223D01*
X103335719Y-74287191D01*
X103349303Y-74273608D01*
X103369191Y-74264826D01*
X103394329Y-74248030D01*
X103417808Y-74243359D01*
X103434959Y-74235787D01*
X103485151Y-74229964D01*
X103490000Y-74229000D01*
X104790000Y-74229000D01*
X104794850Y-74229964D01*
G37*
G36*
X122162090Y-72715215D02*
G01*
X122349683Y-72772120D01*
X122522570Y-72864530D01*
X122674107Y-72988893D01*
X122798470Y-73140430D01*
X122890880Y-73313317D01*
X122947785Y-73500910D01*
X122967000Y-73696000D01*
X122947785Y-73891090D01*
X122890880Y-74078683D01*
X122798470Y-74251570D01*
X122674107Y-74403107D01*
X122522570Y-74527470D01*
X122349683Y-74619880D01*
X122162090Y-74676785D01*
X121967000Y-74696000D01*
X121771910Y-74676785D01*
X121584317Y-74619880D01*
X121411430Y-74527470D01*
X121259893Y-74403107D01*
X121135530Y-74251570D01*
X121043120Y-74078683D01*
X120986215Y-73891090D01*
X120967000Y-73696000D01*
X120986215Y-73500910D01*
X121043120Y-73313317D01*
X121135530Y-73140430D01*
X121259893Y-72988893D01*
X121411430Y-72864530D01*
X121584317Y-72772120D01*
X121771910Y-72715215D01*
X121967000Y-72696000D01*
X122162090Y-72715215D01*
G37*
G36*
X128662090Y-72715215D02*
G01*
X128849683Y-72772120D01*
X129022570Y-72864530D01*
X129174107Y-72988893D01*
X129298470Y-73140430D01*
X129390880Y-73313317D01*
X129447785Y-73500910D01*
X129467000Y-73696000D01*
X129447785Y-73891090D01*
X129390880Y-74078683D01*
X129298470Y-74251570D01*
X129174107Y-74403107D01*
X129022570Y-74527470D01*
X128849683Y-74619880D01*
X128662090Y-74676785D01*
X128467000Y-74696000D01*
X128271910Y-74676785D01*
X128084317Y-74619880D01*
X127911430Y-74527470D01*
X127759893Y-74403107D01*
X127635530Y-74251570D01*
X127543120Y-74078683D01*
X127486215Y-73891090D01*
X127467000Y-73696000D01*
X127486215Y-73500910D01*
X127543120Y-73313317D01*
X127635530Y-73140430D01*
X127759893Y-72988893D01*
X127911430Y-72864530D01*
X128084317Y-72772120D01*
X128271910Y-72715215D01*
X128467000Y-72696000D01*
X128662090Y-72715215D01*
G37*
G36*
X139250000Y-72771000D02*
G01*
X138750000Y-73521000D01*
X138746996Y-73521000D01*
X137755908Y-73521000D01*
X137750000Y-73521000D01*
X137750000Y-72021000D01*
X138750000Y-72021000D01*
X139250000Y-72771000D01*
G37*
G36*
X140200000Y-73521000D02*
G01*
X140194092Y-73521000D01*
X139055908Y-73521000D01*
X139050000Y-73521000D01*
X139051673Y-73518489D01*
X139051674Y-73518487D01*
X139537889Y-72789166D01*
X139537889Y-72752834D01*
X139053279Y-72025919D01*
X139053278Y-72025917D01*
X139050000Y-72021000D01*
X140200000Y-72021000D01*
X140200000Y-73521000D01*
G37*
G36*
X106633403Y-71044418D02*
G01*
X106682066Y-71076934D01*
X106714582Y-71125597D01*
X106726000Y-71183000D01*
X106726000Y-72933000D01*
X106714582Y-72990403D01*
X106682066Y-73039066D01*
X106633403Y-73071582D01*
X106576000Y-73083000D01*
X106276000Y-73083000D01*
X106218597Y-73071582D01*
X106169934Y-73039066D01*
X106137418Y-72990403D01*
X106126000Y-72933000D01*
X106126000Y-71183000D01*
X106137418Y-71125597D01*
X106169934Y-71076934D01*
X106218597Y-71044418D01*
X106276000Y-71033000D01*
X106576000Y-71033000D01*
X106633403Y-71044418D01*
G37*
G36*
X107903403Y-71044418D02*
G01*
X107952066Y-71076934D01*
X107984582Y-71125597D01*
X107996000Y-71183000D01*
X107996000Y-72933000D01*
X107984582Y-72990403D01*
X107952066Y-73039066D01*
X107903403Y-73071582D01*
X107846000Y-73083000D01*
X107546000Y-73083000D01*
X107488597Y-73071582D01*
X107439934Y-73039066D01*
X107407418Y-72990403D01*
X107396000Y-72933000D01*
X107396000Y-71183000D01*
X107407418Y-71125597D01*
X107439934Y-71076934D01*
X107488597Y-71044418D01*
X107546000Y-71033000D01*
X107846000Y-71033000D01*
X107903403Y-71044418D01*
G37*
G36*
X109173403Y-71044418D02*
G01*
X109222066Y-71076934D01*
X109254582Y-71125597D01*
X109266000Y-71183000D01*
X109266000Y-72933000D01*
X109254582Y-72990403D01*
X109222066Y-73039066D01*
X109173403Y-73071582D01*
X109116000Y-73083000D01*
X108816000Y-73083000D01*
X108758597Y-73071582D01*
X108709934Y-73039066D01*
X108677418Y-72990403D01*
X108666000Y-72933000D01*
X108666000Y-71183000D01*
X108677418Y-71125597D01*
X108709934Y-71076934D01*
X108758597Y-71044418D01*
X108816000Y-71033000D01*
X109116000Y-71033000D01*
X109173403Y-71044418D01*
G37*
G36*
X110443403Y-71044418D02*
G01*
X110492066Y-71076934D01*
X110524582Y-71125597D01*
X110536000Y-71183000D01*
X110536000Y-72933000D01*
X110524582Y-72990403D01*
X110492066Y-73039066D01*
X110443403Y-73071582D01*
X110386000Y-73083000D01*
X110086000Y-73083000D01*
X110028597Y-73071582D01*
X109979934Y-73039066D01*
X109947418Y-72990403D01*
X109936000Y-72933000D01*
X109936000Y-71183000D01*
X109947418Y-71125597D01*
X109979934Y-71076934D01*
X110028597Y-71044418D01*
X110086000Y-71033000D01*
X110386000Y-71033000D01*
X110443403Y-71044418D01*
G37*
G36*
X111713403Y-71044418D02*
G01*
X111762066Y-71076934D01*
X111794582Y-71125597D01*
X111806000Y-71183000D01*
X111806000Y-72933000D01*
X111794582Y-72990403D01*
X111762066Y-73039066D01*
X111713403Y-73071582D01*
X111656000Y-73083000D01*
X111356000Y-73083000D01*
X111298597Y-73071582D01*
X111249934Y-73039066D01*
X111217418Y-72990403D01*
X111206000Y-72933000D01*
X111206000Y-71183000D01*
X111217418Y-71125597D01*
X111249934Y-71076934D01*
X111298597Y-71044418D01*
X111356000Y-71033000D01*
X111656000Y-71033000D01*
X111713403Y-71044418D01*
G37*
G36*
X112983403Y-71044418D02*
G01*
X113032066Y-71076934D01*
X113064582Y-71125597D01*
X113076000Y-71183000D01*
X113076000Y-72933000D01*
X113064582Y-72990403D01*
X113032066Y-73039066D01*
X112983403Y-73071582D01*
X112926000Y-73083000D01*
X112626000Y-73083000D01*
X112568597Y-73071582D01*
X112519934Y-73039066D01*
X112487418Y-72990403D01*
X112476000Y-72933000D01*
X112476000Y-71183000D01*
X112487418Y-71125597D01*
X112519934Y-71076934D01*
X112568597Y-71044418D01*
X112626000Y-71033000D01*
X112926000Y-71033000D01*
X112983403Y-71044418D01*
G37*
G36*
X114253403Y-71044418D02*
G01*
X114302066Y-71076934D01*
X114334582Y-71125597D01*
X114346000Y-71183000D01*
X114346000Y-72933000D01*
X114334582Y-72990403D01*
X114302066Y-73039066D01*
X114253403Y-73071582D01*
X114196000Y-73083000D01*
X113896000Y-73083000D01*
X113838597Y-73071582D01*
X113789934Y-73039066D01*
X113757418Y-72990403D01*
X113746000Y-72933000D01*
X113746000Y-71183000D01*
X113757418Y-71125597D01*
X113789934Y-71076934D01*
X113838597Y-71044418D01*
X113896000Y-71033000D01*
X114196000Y-71033000D01*
X114253403Y-71044418D01*
G37*
G36*
X115523403Y-71044418D02*
G01*
X115572066Y-71076934D01*
X115604582Y-71125597D01*
X115616000Y-71183000D01*
X115616000Y-72933000D01*
X115604582Y-72990403D01*
X115572066Y-73039066D01*
X115523403Y-73071582D01*
X115466000Y-73083000D01*
X115166000Y-73083000D01*
X115108597Y-73071582D01*
X115059934Y-73039066D01*
X115027418Y-72990403D01*
X115016000Y-72933000D01*
X115016000Y-71183000D01*
X115027418Y-71125597D01*
X115059934Y-71076934D01*
X115108597Y-71044418D01*
X115166000Y-71033000D01*
X115466000Y-71033000D01*
X115523403Y-71044418D01*
G37*
G36*
X116793403Y-71044418D02*
G01*
X116842066Y-71076934D01*
X116874582Y-71125597D01*
X116886000Y-71183000D01*
X116886000Y-72933000D01*
X116874582Y-72990403D01*
X116842066Y-73039066D01*
X116793403Y-73071582D01*
X116736000Y-73083000D01*
X116436000Y-73083000D01*
X116378597Y-73071582D01*
X116329934Y-73039066D01*
X116297418Y-72990403D01*
X116286000Y-72933000D01*
X116286000Y-71183000D01*
X116297418Y-71125597D01*
X116329934Y-71076934D01*
X116378597Y-71044418D01*
X116436000Y-71033000D01*
X116736000Y-71033000D01*
X116793403Y-71044418D01*
G37*
G36*
X109975090Y-65531215D02*
G01*
X110162683Y-65588120D01*
X110335570Y-65680530D01*
X110487107Y-65804893D01*
X110611470Y-65956430D01*
X110703880Y-66129317D01*
X110760785Y-66316910D01*
X110780000Y-66512000D01*
X110760785Y-66707090D01*
X110703880Y-66894683D01*
X110611470Y-67067570D01*
X110487107Y-67219107D01*
X110335570Y-67343470D01*
X110162683Y-67435880D01*
X109975090Y-67492785D01*
X109780000Y-67512000D01*
X109584910Y-67492785D01*
X109397317Y-67435880D01*
X109224430Y-67343470D01*
X109072893Y-67219107D01*
X108948530Y-67067570D01*
X108856120Y-66894683D01*
X108799215Y-66707090D01*
X108780000Y-66512000D01*
X108799215Y-66316910D01*
X108856120Y-66129317D01*
X108948530Y-65956430D01*
X109072893Y-65804893D01*
X109224430Y-65680530D01*
X109397317Y-65588120D01*
X109584910Y-65531215D01*
X109780000Y-65512000D01*
X109975090Y-65531215D01*
G37*
G36*
X116475090Y-65531215D02*
G01*
X116662683Y-65588120D01*
X116835570Y-65680530D01*
X116987107Y-65804893D01*
X117111470Y-65956430D01*
X117203880Y-66129317D01*
X117260785Y-66316910D01*
X117280000Y-66512000D01*
X117260785Y-66707090D01*
X117203880Y-66894683D01*
X117111470Y-67067570D01*
X116987107Y-67219107D01*
X116835570Y-67343470D01*
X116662683Y-67435880D01*
X116475090Y-67492785D01*
X116280000Y-67512000D01*
X116084910Y-67492785D01*
X115897317Y-67435880D01*
X115724430Y-67343470D01*
X115572893Y-67219107D01*
X115448530Y-67067570D01*
X115356120Y-66894683D01*
X115299215Y-66707090D01*
X115280000Y-66512000D01*
X115299215Y-66316910D01*
X115356120Y-66129317D01*
X115448530Y-65956430D01*
X115572893Y-65804893D01*
X115724430Y-65680530D01*
X115897317Y-65588120D01*
X116084910Y-65531215D01*
X116280000Y-65512000D01*
X116475090Y-65531215D01*
G37*
G36*
X122162090Y-65531215D02*
G01*
X122349683Y-65588120D01*
X122522570Y-65680530D01*
X122674107Y-65804893D01*
X122798470Y-65956430D01*
X122890880Y-66129317D01*
X122947785Y-66316910D01*
X122967000Y-66512000D01*
X122947785Y-66707090D01*
X122890880Y-66894683D01*
X122798470Y-67067570D01*
X122674107Y-67219107D01*
X122522570Y-67343470D01*
X122349683Y-67435880D01*
X122162090Y-67492785D01*
X121967000Y-67512000D01*
X121771910Y-67492785D01*
X121584317Y-67435880D01*
X121411430Y-67343470D01*
X121259893Y-67219107D01*
X121135530Y-67067570D01*
X121043120Y-66894683D01*
X120986215Y-66707090D01*
X120967000Y-66512000D01*
X120986215Y-66316910D01*
X121043120Y-66129317D01*
X121135530Y-65956430D01*
X121259893Y-65804893D01*
X121411430Y-65680530D01*
X121584317Y-65588120D01*
X121771910Y-65531215D01*
X121967000Y-65512000D01*
X122162090Y-65531215D01*
G37*
G36*
X128662090Y-65531215D02*
G01*
X128849683Y-65588120D01*
X129022570Y-65680530D01*
X129174107Y-65804893D01*
X129298470Y-65956430D01*
X129390880Y-66129317D01*
X129447785Y-66316910D01*
X129467000Y-66512000D01*
X129447785Y-66707090D01*
X129390880Y-66894683D01*
X129298470Y-67067570D01*
X129174107Y-67219107D01*
X129022570Y-67343470D01*
X128849683Y-67435880D01*
X128662090Y-67492785D01*
X128467000Y-67512000D01*
X128271910Y-67492785D01*
X128084317Y-67435880D01*
X127911430Y-67343470D01*
X127759893Y-67219107D01*
X127635530Y-67067570D01*
X127543120Y-66894683D01*
X127486215Y-66707090D01*
X127467000Y-66512000D01*
X127486215Y-66316910D01*
X127543120Y-66129317D01*
X127635530Y-65956430D01*
X127759893Y-65804893D01*
X127911430Y-65680530D01*
X128084317Y-65588120D01*
X128271910Y-65531215D01*
X128467000Y-65512000D01*
X128662090Y-65531215D01*
G37*
G36*
X134354090Y-65531215D02*
G01*
X134541683Y-65588120D01*
X134714570Y-65680530D01*
X134866107Y-65804893D01*
X134990470Y-65956430D01*
X135082880Y-66129317D01*
X135139785Y-66316910D01*
X135159000Y-66512000D01*
X135139785Y-66707090D01*
X135082880Y-66894683D01*
X134990470Y-67067570D01*
X134866107Y-67219107D01*
X134714570Y-67343470D01*
X134541683Y-67435880D01*
X134354090Y-67492785D01*
X134159000Y-67512000D01*
X133963910Y-67492785D01*
X133776317Y-67435880D01*
X133603430Y-67343470D01*
X133451893Y-67219107D01*
X133327530Y-67067570D01*
X133235120Y-66894683D01*
X133178215Y-66707090D01*
X133159000Y-66512000D01*
X133178215Y-66316910D01*
X133235120Y-66129317D01*
X133327530Y-65956430D01*
X133451893Y-65804893D01*
X133603430Y-65680530D01*
X133776317Y-65588120D01*
X133963910Y-65531215D01*
X134159000Y-65512000D01*
X134354090Y-65531215D01*
G37*
G36*
X140854090Y-65531215D02*
G01*
X141041683Y-65588120D01*
X141214570Y-65680530D01*
X141366107Y-65804893D01*
X141490470Y-65956430D01*
X141582880Y-66129317D01*
X141639785Y-66316910D01*
X141659000Y-66512000D01*
X141639785Y-66707090D01*
X141582880Y-66894683D01*
X141490470Y-67067570D01*
X141366107Y-67219107D01*
X141214570Y-67343470D01*
X141041683Y-67435880D01*
X140854090Y-67492785D01*
X140659000Y-67512000D01*
X140463910Y-67492785D01*
X140276317Y-67435880D01*
X140103430Y-67343470D01*
X139951893Y-67219107D01*
X139827530Y-67067570D01*
X139735120Y-66894683D01*
X139678215Y-66707090D01*
X139659000Y-66512000D01*
X139678215Y-66316910D01*
X139735120Y-66129317D01*
X139827530Y-65956430D01*
X139951893Y-65804893D01*
X140103430Y-65680530D01*
X140276317Y-65588120D01*
X140463910Y-65531215D01*
X140659000Y-65512000D01*
X140854090Y-65531215D01*
G37*
G36*
X105531850Y-65162964D02*
G01*
X105582040Y-65168787D01*
X105599189Y-65176359D01*
X105622671Y-65181030D01*
X105647810Y-65197827D01*
X105667696Y-65206608D01*
X105681277Y-65220189D01*
X105703777Y-65235223D01*
X105718810Y-65257722D01*
X105732391Y-65271303D01*
X105741170Y-65291186D01*
X105757970Y-65316329D01*
X105762641Y-65339812D01*
X105770212Y-65356959D01*
X105776033Y-65407139D01*
X105777000Y-65412000D01*
X105777000Y-66212000D01*
X105776032Y-66216863D01*
X105770212Y-66267040D01*
X105762641Y-66284185D01*
X105757970Y-66307671D01*
X105741169Y-66332815D01*
X105732391Y-66352696D01*
X105718812Y-66366274D01*
X105703777Y-66388777D01*
X105681274Y-66403812D01*
X105667696Y-66417391D01*
X105647815Y-66426169D01*
X105622671Y-66442970D01*
X105599185Y-66447641D01*
X105582040Y-66455212D01*
X105531861Y-66461032D01*
X105527000Y-66462000D01*
X104277000Y-66462000D01*
X104272138Y-66461032D01*
X104221959Y-66455212D01*
X104204812Y-66447641D01*
X104181329Y-66442970D01*
X104156186Y-66426170D01*
X104136303Y-66417391D01*
X104122722Y-66403810D01*
X104100223Y-66388777D01*
X104085189Y-66366277D01*
X104071608Y-66352696D01*
X104062827Y-66332810D01*
X104046030Y-66307671D01*
X104041359Y-66284189D01*
X104033787Y-66267040D01*
X104027964Y-66216849D01*
X104027000Y-66212000D01*
X104027000Y-65412000D01*
X104027964Y-65407150D01*
X104033787Y-65356959D01*
X104041359Y-65339808D01*
X104046030Y-65316329D01*
X104062826Y-65291191D01*
X104071608Y-65271303D01*
X104085191Y-65257719D01*
X104100223Y-65235223D01*
X104122719Y-65220191D01*
X104136303Y-65206608D01*
X104156191Y-65197826D01*
X104181329Y-65181030D01*
X104204808Y-65176359D01*
X104221959Y-65168787D01*
X104272151Y-65162964D01*
X104277000Y-65162000D01*
X105527000Y-65162000D01*
X105531850Y-65162964D01*
G37*
G36*
X105531850Y-62062964D02*
G01*
X105582040Y-62068787D01*
X105599189Y-62076359D01*
X105622671Y-62081030D01*
X105647810Y-62097827D01*
X105667696Y-62106608D01*
X105681277Y-62120189D01*
X105703777Y-62135223D01*
X105718810Y-62157722D01*
X105732391Y-62171303D01*
X105741170Y-62191186D01*
X105757970Y-62216329D01*
X105762641Y-62239812D01*
X105770212Y-62256959D01*
X105776033Y-62307139D01*
X105777000Y-62312000D01*
X105777000Y-63112000D01*
X105776032Y-63116863D01*
X105770212Y-63167040D01*
X105762641Y-63184185D01*
X105757970Y-63207671D01*
X105741169Y-63232815D01*
X105732391Y-63252696D01*
X105718812Y-63266274D01*
X105703777Y-63288777D01*
X105681274Y-63303812D01*
X105667696Y-63317391D01*
X105647815Y-63326169D01*
X105622671Y-63342970D01*
X105599185Y-63347641D01*
X105582040Y-63355212D01*
X105531861Y-63361032D01*
X105527000Y-63362000D01*
X104277000Y-63362000D01*
X104272138Y-63361032D01*
X104221959Y-63355212D01*
X104204812Y-63347641D01*
X104181329Y-63342970D01*
X104156186Y-63326170D01*
X104136303Y-63317391D01*
X104122722Y-63303810D01*
X104100223Y-63288777D01*
X104085189Y-63266277D01*
X104071608Y-63252696D01*
X104062827Y-63232810D01*
X104046030Y-63207671D01*
X104041359Y-63184189D01*
X104033787Y-63167040D01*
X104027964Y-63116849D01*
X104027000Y-63112000D01*
X104027000Y-62312000D01*
X104027964Y-62307150D01*
X104033787Y-62256959D01*
X104041359Y-62239808D01*
X104046030Y-62216329D01*
X104062826Y-62191191D01*
X104071608Y-62171303D01*
X104085191Y-62157719D01*
X104100223Y-62135223D01*
X104122719Y-62120191D01*
X104136303Y-62106608D01*
X104156191Y-62097826D01*
X104181329Y-62081030D01*
X104204808Y-62076359D01*
X104221959Y-62068787D01*
X104272151Y-62062964D01*
X104277000Y-62062000D01*
X105527000Y-62062000D01*
X105531850Y-62062964D01*
G37*
G36*
X109975090Y-61031215D02*
G01*
X110162683Y-61088120D01*
X110335570Y-61180530D01*
X110487107Y-61304893D01*
X110611470Y-61456430D01*
X110703880Y-61629317D01*
X110760785Y-61816910D01*
X110780000Y-62012000D01*
X110760785Y-62207090D01*
X110703880Y-62394683D01*
X110611470Y-62567570D01*
X110487107Y-62719107D01*
X110335570Y-62843470D01*
X110162683Y-62935880D01*
X109975090Y-62992785D01*
X109780000Y-63012000D01*
X109584910Y-62992785D01*
X109397317Y-62935880D01*
X109224430Y-62843470D01*
X109072893Y-62719107D01*
X108948530Y-62567570D01*
X108856120Y-62394683D01*
X108799215Y-62207090D01*
X108780000Y-62012000D01*
X108799215Y-61816910D01*
X108856120Y-61629317D01*
X108948530Y-61456430D01*
X109072893Y-61304893D01*
X109224430Y-61180530D01*
X109397317Y-61088120D01*
X109584910Y-61031215D01*
X109780000Y-61012000D01*
X109975090Y-61031215D01*
G37*
G36*
X116475090Y-61031215D02*
G01*
X116662683Y-61088120D01*
X116835570Y-61180530D01*
X116987107Y-61304893D01*
X117111470Y-61456430D01*
X117203880Y-61629317D01*
X117260785Y-61816910D01*
X117280000Y-62012000D01*
X117260785Y-62207090D01*
X117203880Y-62394683D01*
X117111470Y-62567570D01*
X116987107Y-62719107D01*
X116835570Y-62843470D01*
X116662683Y-62935880D01*
X116475090Y-62992785D01*
X116280000Y-63012000D01*
X116084910Y-62992785D01*
X115897317Y-62935880D01*
X115724430Y-62843470D01*
X115572893Y-62719107D01*
X115448530Y-62567570D01*
X115356120Y-62394683D01*
X115299215Y-62207090D01*
X115280000Y-62012000D01*
X115299215Y-61816910D01*
X115356120Y-61629317D01*
X115448530Y-61456430D01*
X115572893Y-61304893D01*
X115724430Y-61180530D01*
X115897317Y-61088120D01*
X116084910Y-61031215D01*
X116280000Y-61012000D01*
X116475090Y-61031215D01*
G37*
G36*
X122162090Y-61031215D02*
G01*
X122349683Y-61088120D01*
X122522570Y-61180530D01*
X122674107Y-61304893D01*
X122798470Y-61456430D01*
X122890880Y-61629317D01*
X122947785Y-61816910D01*
X122967000Y-62012000D01*
X122947785Y-62207090D01*
X122890880Y-62394683D01*
X122798470Y-62567570D01*
X122674107Y-62719107D01*
X122522570Y-62843470D01*
X122349683Y-62935880D01*
X122162090Y-62992785D01*
X121967000Y-63012000D01*
X121771910Y-62992785D01*
X121584317Y-62935880D01*
X121411430Y-62843470D01*
X121259893Y-62719107D01*
X121135530Y-62567570D01*
X121043120Y-62394683D01*
X120986215Y-62207090D01*
X120967000Y-62012000D01*
X120986215Y-61816910D01*
X121043120Y-61629317D01*
X121135530Y-61456430D01*
X121259893Y-61304893D01*
X121411430Y-61180530D01*
X121584317Y-61088120D01*
X121771910Y-61031215D01*
X121967000Y-61012000D01*
X122162090Y-61031215D01*
G37*
G36*
X128662090Y-61031215D02*
G01*
X128849683Y-61088120D01*
X129022570Y-61180530D01*
X129174107Y-61304893D01*
X129298470Y-61456430D01*
X129390880Y-61629317D01*
X129447785Y-61816910D01*
X129467000Y-62012000D01*
X129447785Y-62207090D01*
X129390880Y-62394683D01*
X129298470Y-62567570D01*
X129174107Y-62719107D01*
X129022570Y-62843470D01*
X128849683Y-62935880D01*
X128662090Y-62992785D01*
X128467000Y-63012000D01*
X128271910Y-62992785D01*
X128084317Y-62935880D01*
X127911430Y-62843470D01*
X127759893Y-62719107D01*
X127635530Y-62567570D01*
X127543120Y-62394683D01*
X127486215Y-62207090D01*
X127467000Y-62012000D01*
X127486215Y-61816910D01*
X127543120Y-61629317D01*
X127635530Y-61456430D01*
X127759893Y-61304893D01*
X127911430Y-61180530D01*
X128084317Y-61088120D01*
X128271910Y-61031215D01*
X128467000Y-61012000D01*
X128662090Y-61031215D01*
G37*
G36*
X134354090Y-61031215D02*
G01*
X134541683Y-61088120D01*
X134714570Y-61180530D01*
X134866107Y-61304893D01*
X134990470Y-61456430D01*
X135082880Y-61629317D01*
X135139785Y-61816910D01*
X135159000Y-62012000D01*
X135139785Y-62207090D01*
X135082880Y-62394683D01*
X134990470Y-62567570D01*
X134866107Y-62719107D01*
X134714570Y-62843470D01*
X134541683Y-62935880D01*
X134354090Y-62992785D01*
X134159000Y-63012000D01*
X133963910Y-62992785D01*
X133776317Y-62935880D01*
X133603430Y-62843470D01*
X133451893Y-62719107D01*
X133327530Y-62567570D01*
X133235120Y-62394683D01*
X133178215Y-62207090D01*
X133159000Y-62012000D01*
X133178215Y-61816910D01*
X133235120Y-61629317D01*
X133327530Y-61456430D01*
X133451893Y-61304893D01*
X133603430Y-61180530D01*
X133776317Y-61088120D01*
X133963910Y-61031215D01*
X134159000Y-61012000D01*
X134354090Y-61031215D01*
G37*
G36*
X140854090Y-61031215D02*
G01*
X141041683Y-61088120D01*
X141214570Y-61180530D01*
X141366107Y-61304893D01*
X141490470Y-61456430D01*
X141582880Y-61629317D01*
X141639785Y-61816910D01*
X141659000Y-62012000D01*
X141639785Y-62207090D01*
X141582880Y-62394683D01*
X141490470Y-62567570D01*
X141366107Y-62719107D01*
X141214570Y-62843470D01*
X141041683Y-62935880D01*
X140854090Y-62992785D01*
X140659000Y-63012000D01*
X140463910Y-62992785D01*
X140276317Y-62935880D01*
X140103430Y-62843470D01*
X139951893Y-62719107D01*
X139827530Y-62567570D01*
X139735120Y-62394683D01*
X139678215Y-62207090D01*
X139659000Y-62012000D01*
X139678215Y-61816910D01*
X139735120Y-61629317D01*
X139827530Y-61456430D01*
X139951893Y-61304893D01*
X140103430Y-61180530D01*
X140276317Y-61088120D01*
X140463910Y-61031215D01*
X140659000Y-61012000D01*
X140854090Y-61031215D01*
G37*
G36*
X104418900Y-58774550D02*
G01*
X101418900Y-58774550D01*
X101418900Y-56774550D01*
X104418900Y-56774550D01*
X104418900Y-58774550D01*
G37*
G36*
X129787664Y-53288602D02*
G01*
X129950000Y-53360878D01*
X130093761Y-53465327D01*
X130212664Y-53597383D01*
X130301514Y-53751274D01*
X130356425Y-53920275D01*
X130375000Y-54097000D01*
X130356425Y-54273725D01*
X130301514Y-54442726D01*
X130212664Y-54596617D01*
X130093761Y-54728673D01*
X129950000Y-54833122D01*
X129787664Y-54905398D01*
X129613849Y-54942344D01*
X129436151Y-54942344D01*
X129262336Y-54905398D01*
X129100000Y-54833122D01*
X128956239Y-54728673D01*
X128837336Y-54596617D01*
X128748486Y-54442726D01*
X128693575Y-54273725D01*
X128675000Y-54097000D01*
X128693575Y-53920275D01*
X128748486Y-53751274D01*
X128837336Y-53597383D01*
X128956239Y-53465327D01*
X129100000Y-53360878D01*
X129262336Y-53288602D01*
X129436151Y-53251656D01*
X129613849Y-53251656D01*
X129787664Y-53288602D01*
G37*
G36*
X132327664Y-53288602D02*
G01*
X132490000Y-53360878D01*
X132633761Y-53465327D01*
X132752664Y-53597383D01*
X132841514Y-53751274D01*
X132896425Y-53920275D01*
X132915000Y-54097000D01*
X132896425Y-54273725D01*
X132841514Y-54442726D01*
X132752664Y-54596617D01*
X132633761Y-54728673D01*
X132490000Y-54833122D01*
X132327664Y-54905398D01*
X132153849Y-54942344D01*
X131976151Y-54942344D01*
X131802336Y-54905398D01*
X131640000Y-54833122D01*
X131496239Y-54728673D01*
X131377336Y-54596617D01*
X131288486Y-54442726D01*
X131233575Y-54273725D01*
X131215000Y-54097000D01*
X131233575Y-53920275D01*
X131288486Y-53751274D01*
X131377336Y-53597383D01*
X131496239Y-53465327D01*
X131640000Y-53360878D01*
X131802336Y-53288602D01*
X131976151Y-53251656D01*
X132153849Y-53251656D01*
X132327664Y-53288602D01*
G37*
G36*
X134867664Y-53288602D02*
G01*
X135030000Y-53360878D01*
X135173761Y-53465327D01*
X135292664Y-53597383D01*
X135381514Y-53751274D01*
X135436425Y-53920275D01*
X135455000Y-54097000D01*
X135436425Y-54273725D01*
X135381514Y-54442726D01*
X135292664Y-54596617D01*
X135173761Y-54728673D01*
X135030000Y-54833122D01*
X134867664Y-54905398D01*
X134693849Y-54942344D01*
X134516151Y-54942344D01*
X134342336Y-54905398D01*
X134180000Y-54833122D01*
X134036239Y-54728673D01*
X133917336Y-54596617D01*
X133828486Y-54442726D01*
X133773575Y-54273725D01*
X133755000Y-54097000D01*
X133773575Y-53920275D01*
X133828486Y-53751274D01*
X133917336Y-53597383D01*
X134036239Y-53465327D01*
X134180000Y-53360878D01*
X134342336Y-53288602D01*
X134516151Y-53251656D01*
X134693849Y-53251656D01*
X134867664Y-53288602D01*
G37*
G36*
X110868850Y-50687964D02*
G01*
X110919040Y-50693787D01*
X110936189Y-50701359D01*
X110959671Y-50706030D01*
X110984810Y-50722827D01*
X111004696Y-50731608D01*
X111018277Y-50745189D01*
X111040777Y-50760223D01*
X111055810Y-50782722D01*
X111069391Y-50796303D01*
X111078170Y-50816186D01*
X111094970Y-50841329D01*
X111099641Y-50864812D01*
X111107212Y-50881959D01*
X111113033Y-50932139D01*
X111114000Y-50937000D01*
X111114000Y-52187000D01*
X111113032Y-52191863D01*
X111107212Y-52242040D01*
X111099641Y-52259185D01*
X111094970Y-52282671D01*
X111078169Y-52307815D01*
X111069391Y-52327696D01*
X111055812Y-52341274D01*
X111040777Y-52363777D01*
X111018274Y-52378812D01*
X111004696Y-52392391D01*
X110984815Y-52401169D01*
X110959671Y-52417970D01*
X110936185Y-52422641D01*
X110919040Y-52430212D01*
X110868861Y-52436032D01*
X110864000Y-52437000D01*
X110064000Y-52437000D01*
X110059138Y-52436032D01*
X110008959Y-52430212D01*
X109991812Y-52422641D01*
X109968329Y-52417970D01*
X109943186Y-52401170D01*
X109923303Y-52392391D01*
X109909722Y-52378810D01*
X109887223Y-52363777D01*
X109872189Y-52341277D01*
X109858608Y-52327696D01*
X109849827Y-52307810D01*
X109833030Y-52282671D01*
X109828359Y-52259189D01*
X109820787Y-52242040D01*
X109814964Y-52191849D01*
X109814000Y-52187000D01*
X109814000Y-50937000D01*
X109814964Y-50932150D01*
X109820787Y-50881959D01*
X109828359Y-50864808D01*
X109833030Y-50841329D01*
X109849826Y-50816191D01*
X109858608Y-50796303D01*
X109872191Y-50782719D01*
X109887223Y-50760223D01*
X109909719Y-50745191D01*
X109923303Y-50731608D01*
X109943191Y-50722826D01*
X109968329Y-50706030D01*
X109991808Y-50701359D01*
X110008959Y-50693787D01*
X110059151Y-50687964D01*
X110064000Y-50687000D01*
X110864000Y-50687000D01*
X110868850Y-50687964D01*
G37*
G36*
X113968850Y-50687964D02*
G01*
X114019040Y-50693787D01*
X114036189Y-50701359D01*
X114059671Y-50706030D01*
X114084810Y-50722827D01*
X114104696Y-50731608D01*
X114118277Y-50745189D01*
X114140777Y-50760223D01*
X114155810Y-50782722D01*
X114169391Y-50796303D01*
X114178170Y-50816186D01*
X114194970Y-50841329D01*
X114199641Y-50864812D01*
X114207212Y-50881959D01*
X114213033Y-50932139D01*
X114214000Y-50937000D01*
X114214000Y-52187000D01*
X114213032Y-52191863D01*
X114207212Y-52242040D01*
X114199641Y-52259185D01*
X114194970Y-52282671D01*
X114178169Y-52307815D01*
X114169391Y-52327696D01*
X114155812Y-52341274D01*
X114140777Y-52363777D01*
X114118274Y-52378812D01*
X114104696Y-52392391D01*
X114084815Y-52401169D01*
X114059671Y-52417970D01*
X114036185Y-52422641D01*
X114019040Y-52430212D01*
X113968861Y-52436032D01*
X113964000Y-52437000D01*
X113164000Y-52437000D01*
X113159138Y-52436032D01*
X113108959Y-52430212D01*
X113091812Y-52422641D01*
X113068329Y-52417970D01*
X113043186Y-52401170D01*
X113023303Y-52392391D01*
X113009722Y-52378810D01*
X112987223Y-52363777D01*
X112972189Y-52341277D01*
X112958608Y-52327696D01*
X112949827Y-52307810D01*
X112933030Y-52282671D01*
X112928359Y-52259189D01*
X112920787Y-52242040D01*
X112914964Y-52191849D01*
X112914000Y-52187000D01*
X112914000Y-50937000D01*
X112914964Y-50932150D01*
X112920787Y-50881959D01*
X112928359Y-50864808D01*
X112933030Y-50841329D01*
X112949826Y-50816191D01*
X112958608Y-50796303D01*
X112972191Y-50782719D01*
X112987223Y-50760223D01*
X113009719Y-50745191D01*
X113023303Y-50731608D01*
X113043191Y-50722826D01*
X113068329Y-50706030D01*
X113091808Y-50701359D01*
X113108959Y-50693787D01*
X113159151Y-50687964D01*
X113164000Y-50687000D01*
X113964000Y-50687000D01*
X113968850Y-50687964D01*
G37*
G36*
X135455000Y-52407000D02*
G01*
X133755000Y-52407000D01*
X133755000Y-50707000D01*
X135455000Y-50707000D01*
X135455000Y-52407000D01*
G37*
G36*
X129787664Y-50748602D02*
G01*
X129950000Y-50820878D01*
X130093761Y-50925327D01*
X130212664Y-51057383D01*
X130301514Y-51211274D01*
X130356425Y-51380275D01*
X130375000Y-51557000D01*
X130356425Y-51733725D01*
X130301514Y-51902726D01*
X130212664Y-52056617D01*
X130093761Y-52188673D01*
X129950000Y-52293122D01*
X129787664Y-52365398D01*
X129613849Y-52402344D01*
X129436151Y-52402344D01*
X129262336Y-52365398D01*
X129100000Y-52293122D01*
X128956239Y-52188673D01*
X128837336Y-52056617D01*
X128748486Y-51902726D01*
X128693575Y-51733725D01*
X128675000Y-51557000D01*
X128693575Y-51380275D01*
X128748486Y-51211274D01*
X128837336Y-51057383D01*
X128956239Y-50925327D01*
X129100000Y-50820878D01*
X129262336Y-50748602D01*
X129436151Y-50711656D01*
X129613849Y-50711656D01*
X129787664Y-50748602D01*
G37*
G36*
X132327664Y-50748602D02*
G01*
X132490000Y-50820878D01*
X132633761Y-50925327D01*
X132752664Y-51057383D01*
X132841514Y-51211274D01*
X132896425Y-51380275D01*
X132915000Y-51557000D01*
X132896425Y-51733725D01*
X132841514Y-51902726D01*
X132752664Y-52056617D01*
X132633761Y-52188673D01*
X132490000Y-52293122D01*
X132327664Y-52365398D01*
X132153849Y-52402344D01*
X131976151Y-52402344D01*
X131802336Y-52365398D01*
X131640000Y-52293122D01*
X131496239Y-52188673D01*
X131377336Y-52056617D01*
X131288486Y-51902726D01*
X131233575Y-51733725D01*
X131215000Y-51557000D01*
X131233575Y-51380275D01*
X131288486Y-51211274D01*
X131377336Y-51057383D01*
X131496239Y-50925327D01*
X131640000Y-50820878D01*
X131802336Y-50748602D01*
X131976151Y-50711656D01*
X132153849Y-50711656D01*
X132327664Y-50748602D01*
G37*
G36*
X104406300Y-51190550D02*
G01*
X101406300Y-51190550D01*
X101406300Y-49190550D01*
X104406300Y-49190550D01*
X104406300Y-51190550D01*
G37*
G36*
X144534664Y-48975602D02*
G01*
X144697000Y-49047878D01*
X144840761Y-49152327D01*
X144959664Y-49284383D01*
X145048514Y-49438274D01*
X145103425Y-49607275D01*
X145122000Y-49784000D01*
X145103425Y-49960725D01*
X145048514Y-50129726D01*
X144959664Y-50283617D01*
X144840761Y-50415673D01*
X144697000Y-50520122D01*
X144534664Y-50592398D01*
X144360849Y-50629344D01*
X144183151Y-50629344D01*
X144009336Y-50592398D01*
X143847000Y-50520122D01*
X143703239Y-50415673D01*
X143584336Y-50283617D01*
X143495486Y-50129726D01*
X143440575Y-49960725D01*
X143422000Y-49784000D01*
X143440575Y-49607275D01*
X143495486Y-49438274D01*
X143584336Y-49284383D01*
X143703239Y-49152327D01*
X143847000Y-49047878D01*
X144009336Y-48975602D01*
X144183151Y-48938656D01*
X144360849Y-48938656D01*
X144534664Y-48975602D01*
G37*
G36*
X110868850Y-46877964D02*
G01*
X110919040Y-46883787D01*
X110936189Y-46891359D01*
X110959671Y-46896030D01*
X110984810Y-46912827D01*
X111004696Y-46921608D01*
X111018277Y-46935189D01*
X111040777Y-46950223D01*
X111055810Y-46972722D01*
X111069391Y-46986303D01*
X111078170Y-47006186D01*
X111094970Y-47031329D01*
X111099641Y-47054812D01*
X111107212Y-47071959D01*
X111113033Y-47122139D01*
X111114000Y-47127000D01*
X111114000Y-48377000D01*
X111113032Y-48381863D01*
X111107212Y-48432040D01*
X111099641Y-48449185D01*
X111094970Y-48472671D01*
X111078169Y-48497815D01*
X111069391Y-48517696D01*
X111055812Y-48531274D01*
X111040777Y-48553777D01*
X111018274Y-48568812D01*
X111004696Y-48582391D01*
X110984815Y-48591169D01*
X110959671Y-48607970D01*
X110936185Y-48612641D01*
X110919040Y-48620212D01*
X110868861Y-48626032D01*
X110864000Y-48627000D01*
X110064000Y-48627000D01*
X110059138Y-48626032D01*
X110008959Y-48620212D01*
X109991812Y-48612641D01*
X109968329Y-48607970D01*
X109943186Y-48591170D01*
X109923303Y-48582391D01*
X109909722Y-48568810D01*
X109887223Y-48553777D01*
X109872189Y-48531277D01*
X109858608Y-48517696D01*
X109849827Y-48497810D01*
X109833030Y-48472671D01*
X109828359Y-48449189D01*
X109820787Y-48432040D01*
X109814964Y-48381849D01*
X109814000Y-48377000D01*
X109814000Y-47127000D01*
X109814964Y-47122150D01*
X109820787Y-47071959D01*
X109828359Y-47054808D01*
X109833030Y-47031329D01*
X109849826Y-47006191D01*
X109858608Y-46986303D01*
X109872191Y-46972719D01*
X109887223Y-46950223D01*
X109909719Y-46935191D01*
X109923303Y-46921608D01*
X109943191Y-46912826D01*
X109968329Y-46896030D01*
X109991808Y-46891359D01*
X110008959Y-46883787D01*
X110059151Y-46877964D01*
X110064000Y-46877000D01*
X110864000Y-46877000D01*
X110868850Y-46877964D01*
G37*
G36*
X113968850Y-46877964D02*
G01*
X114019040Y-46883787D01*
X114036189Y-46891359D01*
X114059671Y-46896030D01*
X114084810Y-46912827D01*
X114104696Y-46921608D01*
X114118277Y-46935189D01*
X114140777Y-46950223D01*
X114155810Y-46972722D01*
X114169391Y-46986303D01*
X114178170Y-47006186D01*
X114194970Y-47031329D01*
X114199641Y-47054812D01*
X114207212Y-47071959D01*
X114213033Y-47122139D01*
X114214000Y-47127000D01*
X114214000Y-48377000D01*
X114213032Y-48381863D01*
X114207212Y-48432040D01*
X114199641Y-48449185D01*
X114194970Y-48472671D01*
X114178169Y-48497815D01*
X114169391Y-48517696D01*
X114155812Y-48531274D01*
X114140777Y-48553777D01*
X114118274Y-48568812D01*
X114104696Y-48582391D01*
X114084815Y-48591169D01*
X114059671Y-48607970D01*
X114036185Y-48612641D01*
X114019040Y-48620212D01*
X113968861Y-48626032D01*
X113964000Y-48627000D01*
X113164000Y-48627000D01*
X113159138Y-48626032D01*
X113108959Y-48620212D01*
X113091812Y-48612641D01*
X113068329Y-48607970D01*
X113043186Y-48591170D01*
X113023303Y-48582391D01*
X113009722Y-48568810D01*
X112987223Y-48553777D01*
X112972189Y-48531277D01*
X112958608Y-48517696D01*
X112949827Y-48497810D01*
X112933030Y-48472671D01*
X112928359Y-48449189D01*
X112920787Y-48432040D01*
X112914964Y-48381849D01*
X112914000Y-48377000D01*
X112914000Y-47127000D01*
X112914964Y-47122150D01*
X112920787Y-47071959D01*
X112928359Y-47054808D01*
X112933030Y-47031329D01*
X112949826Y-47006191D01*
X112958608Y-46986303D01*
X112972191Y-46972719D01*
X112987223Y-46950223D01*
X113009719Y-46935191D01*
X113023303Y-46921608D01*
X113043191Y-46912826D01*
X113068329Y-46896030D01*
X113091808Y-46891359D01*
X113108959Y-46883787D01*
X113159151Y-46877964D01*
X113164000Y-46877000D01*
X113964000Y-46877000D01*
X113968850Y-46877964D01*
G37*
G36*
X144534664Y-46435602D02*
G01*
X144697000Y-46507878D01*
X144840761Y-46612327D01*
X144959664Y-46744383D01*
X145048514Y-46898274D01*
X145103425Y-47067275D01*
X145122000Y-47244000D01*
X145103425Y-47420725D01*
X145048514Y-47589726D01*
X144959664Y-47743617D01*
X144840761Y-47875673D01*
X144697000Y-47980122D01*
X144534664Y-48052398D01*
X144360849Y-48089344D01*
X144183151Y-48089344D01*
X144009336Y-48052398D01*
X143847000Y-47980122D01*
X143703239Y-47875673D01*
X143584336Y-47743617D01*
X143495486Y-47589726D01*
X143440575Y-47420725D01*
X143422000Y-47244000D01*
X143440575Y-47067275D01*
X143495486Y-46898274D01*
X143584336Y-46744383D01*
X143703239Y-46612327D01*
X143847000Y-46507878D01*
X144009336Y-46435602D01*
X144183151Y-46398656D01*
X144360849Y-46398656D01*
X144534664Y-46435602D01*
G37*
G36*
X122108000Y-47382000D02*
G01*
X121208000Y-47382000D01*
X121208000Y-45382000D01*
X122108000Y-45382000D01*
X122108000Y-47382000D01*
G37*
G36*
X123378000Y-47382000D02*
G01*
X122478000Y-47382000D01*
X122478000Y-45382000D01*
X123378000Y-45382000D01*
X123378000Y-47382000D01*
G37*
G36*
X124648000Y-47382000D02*
G01*
X123748000Y-47382000D01*
X123748000Y-45382000D01*
X124648000Y-45382000D01*
X124648000Y-47382000D01*
G37*
G36*
X125918000Y-47382000D02*
G01*
X125018000Y-47382000D01*
X125018000Y-45382000D01*
X125918000Y-45382000D01*
X125918000Y-47382000D01*
G37*
G36*
X127188000Y-47382000D02*
G01*
X126288000Y-47382000D01*
X126288000Y-45382000D01*
X127188000Y-45382000D01*
X127188000Y-47382000D01*
G37*
G36*
X128458000Y-47382000D02*
G01*
X127558000Y-47382000D01*
X127558000Y-45382000D01*
X128458000Y-45382000D01*
X128458000Y-47382000D01*
G37*
G36*
X129728000Y-47382000D02*
G01*
X128828000Y-47382000D01*
X128828000Y-45382000D01*
X129728000Y-45382000D01*
X129728000Y-47382000D01*
G37*
G36*
X144534664Y-43895602D02*
G01*
X144697000Y-43967878D01*
X144840761Y-44072327D01*
X144959664Y-44204383D01*
X145048514Y-44358274D01*
X145103425Y-44527275D01*
X145122000Y-44704000D01*
X145103425Y-44880725D01*
X145048514Y-45049726D01*
X144959664Y-45203617D01*
X144840761Y-45335673D01*
X144697000Y-45440122D01*
X144534664Y-45512398D01*
X144360849Y-45549344D01*
X144183151Y-45549344D01*
X144009336Y-45512398D01*
X143847000Y-45440122D01*
X143703239Y-45335673D01*
X143584336Y-45203617D01*
X143495486Y-45049726D01*
X143440575Y-44880725D01*
X143422000Y-44704000D01*
X143440575Y-44527275D01*
X143495486Y-44358274D01*
X143584336Y-44204383D01*
X143703239Y-44072327D01*
X143847000Y-43967878D01*
X144009336Y-43895602D01*
X144183151Y-43858656D01*
X144360849Y-43858656D01*
X144534664Y-43895602D01*
G37*
G36*
X108940000Y-45298000D02*
G01*
X107440000Y-45298000D01*
X107440000Y-43298000D01*
X108940000Y-43298000D01*
X108940000Y-45298000D01*
G37*
G36*
X111240000Y-45298000D02*
G01*
X109740000Y-45298000D01*
X109740000Y-43298000D01*
X111240000Y-43298000D01*
X111240000Y-45298000D01*
G37*
G36*
X113540000Y-45298000D02*
G01*
X112040000Y-45298000D01*
X112040000Y-43298000D01*
X113540000Y-43298000D01*
X113540000Y-45298000D01*
G37*
G36*
X120248000Y-45172000D02*
G01*
X117948000Y-45172000D01*
X117948000Y-42872000D01*
X120248000Y-42872000D01*
X120248000Y-45172000D01*
G37*
G36*
X132988000Y-45172000D02*
G01*
X130688000Y-45172000D01*
X130688000Y-42872000D01*
X132988000Y-42872000D01*
X132988000Y-45172000D01*
G37*
G36*
X145122000Y-43014000D02*
G01*
X143422000Y-43014000D01*
X143422000Y-41314000D01*
X145122000Y-41314000D01*
X145122000Y-43014000D01*
G37*
G36*
X102917029Y-37041992D02*
G01*
X103106312Y-37115320D01*
X103278898Y-37222181D01*
X103428910Y-37358935D01*
X103551239Y-37520925D01*
X103641719Y-37702634D01*
X103697270Y-37897876D01*
X103716000Y-38100000D01*
X103697270Y-38302124D01*
X103641719Y-38497366D01*
X103551239Y-38679075D01*
X103428910Y-38841065D01*
X103278898Y-38977819D01*
X103106312Y-39084680D01*
X102917029Y-39158008D01*
X102717495Y-39195308D01*
X102514505Y-39195308D01*
X102314971Y-39158008D01*
X102125688Y-39084680D01*
X101953102Y-38977819D01*
X101803090Y-38841065D01*
X101680761Y-38679075D01*
X101590281Y-38497366D01*
X101534730Y-38302124D01*
X101516000Y-38100000D01*
X101534730Y-37897876D01*
X101590281Y-37702634D01*
X101680761Y-37520925D01*
X101803090Y-37358935D01*
X101953102Y-37222181D01*
X102125688Y-37115320D01*
X102314971Y-37041992D01*
X102514505Y-37004692D01*
X102717495Y-37004692D01*
X102917029Y-37041992D01*
G37*
G36*
X147875029Y-37041992D02*
G01*
X148064312Y-37115320D01*
X148236898Y-37222181D01*
X148386910Y-37358935D01*
X148509239Y-37520925D01*
X148599719Y-37702634D01*
X148655270Y-37897876D01*
X148674000Y-38100000D01*
X148655270Y-38302124D01*
X148599719Y-38497366D01*
X148509239Y-38679075D01*
X148386910Y-38841065D01*
X148236898Y-38977819D01*
X148064312Y-39084680D01*
X147875029Y-39158008D01*
X147675495Y-39195308D01*
X147472505Y-39195308D01*
X147272971Y-39158008D01*
X147083688Y-39084680D01*
X146911102Y-38977819D01*
X146761090Y-38841065D01*
X146638761Y-38679075D01*
X146548281Y-38497366D01*
X146492730Y-38302124D01*
X146474000Y-38100000D01*
X146492730Y-37897876D01*
X146548281Y-37702634D01*
X146638761Y-37520925D01*
X146761090Y-37358935D01*
X146911102Y-37222181D01*
X147083688Y-37115320D01*
X147272971Y-37041992D01*
X147472505Y-37004692D01*
X147675495Y-37004692D01*
X147875029Y-37041992D01*
G37*
G36*
X112390000Y-38998000D02*
G01*
X108590000Y-38998000D01*
X108590000Y-36998000D01*
X112390000Y-36998000D01*
X112390000Y-38998000D01*
G37*
M02*
