M48
; DRILL file {KiCad (6.0.5)} date Mon Jan  2 12:33:04 2023
; FORMAT={-:-/ absolute / inch / decimal}
; #@! TF.CreationDate,2023-01-02T12:33:04-06:00
; #@! TF.GenerationSoftware,Kicad,Pcbnew,(6.0.5)
; #@! TF.FileFunction,Plated,1,2,PTH
FMAT,2
INCH
; #@! TA.AperFunction,Plated,PTH,ViaDrill
T1C0.0118
; #@! TA.AperFunction,Plated,PTH,ComponentDrill
T2C0.0354
; #@! TA.AperFunction,Plated,PTH,ComponentDrill
T3C0.0394
; #@! TA.AperFunction,Plated,PTH,ComponentDrill
T4C0.0402
; #@! TA.AperFunction,Plated,PTH,ComponentDrill
T5C0.0591
%
G90
G05
T1
X4.06Y-4.38
X4.105Y-3.695
X4.11Y-3.89
X4.1548Y-4.2848
X4.155Y-3.695
X4.205Y-3.695
X4.205Y-4.285
X4.255Y-3.695
X4.255Y-4.285
X4.305Y-3.695
X4.305Y-4.285
X4.355Y-3.695
X4.355Y-4.285
X4.4048Y-3.6952
X4.405Y-4.285
X4.455Y-3.695
X4.455Y-4.285
X4.505Y-3.695
X4.505Y-4.285
X4.55Y-4.03
X4.55Y-4.505
X4.575Y-4.075
X4.61Y-4.37
X4.63Y-4.02
X4.64Y-4.14
X4.68Y-4.15
X4.73Y-4.22
X4.73Y-4.37
X4.78Y-4.17
X4.98Y-4.46
X5.06Y-4.46
X5.2574Y-4.4626
X5.34Y-4.63
X5.3625Y-2.9925
X5.43Y-4.63
X5.435Y-2.745
X5.695Y-2.995
X5.745Y-2.785
X5.775Y-3.1
X5.775Y-3.235
X5.8Y-2.675
X5.805Y-2.53
X5.915Y-4.69
X5.95Y-4.26
X5.95Y-4.57
X5.955Y-4.785
X6.0Y-3.5
X6.0Y-3.53
X6.0Y-3.56
X6.0Y-4.24
X6.01Y-2.99
X6.06Y-2.78
X6.07Y-4.465
X6.07Y-4.525
X6.07Y-4.64
X6.21Y-4.715
X6.345Y-4.39
X6.4Y-4.495
X6.41Y-4.66
X6.41Y-4.695
X6.42Y-4.625
X6.47Y-4.73
X6.475Y-4.515
X6.5Y-4.25
X6.55Y-4.375
X6.575Y-4.64
X6.6Y-4.365
X6.65Y-4.25
X6.65Y-4.36
X6.655Y-2.66
X6.655Y-2.81
X6.66Y-3.5
X6.66Y-3.53
X6.66Y-3.56
X6.67Y-2.9603
X6.675Y-4.625
X6.7Y-4.355
X6.75Y-4.35
X6.79Y-2.91
X6.8Y-4.345
X6.85Y-4.34
X6.9Y-4.335
X6.93Y-4.25
X6.95Y-4.33
X6.99Y-4.755
X7.005Y-4.8
X7.03Y-4.25
T2
X6.2762Y-2.6538
X6.2762Y-2.7538
X6.5264Y-2.6542
X6.5264Y-2.7542
T3
X7.075Y-4.4594
X7.075Y-4.5594
X7.075Y-4.6594
T4
X5.18Y-3.385
X5.18Y-4.085
X5.1891Y-3.635
X5.1891Y-3.735
X5.1891Y-3.835
X5.28Y-3.385
X5.28Y-4.085
X5.38Y-3.385
X5.38Y-4.085
X5.48Y-3.385
X5.48Y-4.085
X5.58Y-3.385
X5.58Y-4.085
X5.68Y-3.385
X5.68Y-4.085
X5.78Y-3.385
X5.78Y-4.085
X5.88Y-3.385
X5.88Y-4.085
X5.98Y-3.385
X5.98Y-4.085
X6.08Y-3.385
X6.08Y-4.085
X6.18Y-3.385
X6.18Y-4.085
X6.28Y-3.385
X6.28Y-4.085
X6.38Y-3.385
X6.38Y-4.085
X6.48Y-3.385
X6.48Y-4.085
X6.58Y-3.385
X6.58Y-4.085
X6.68Y-3.385
X6.68Y-4.085
X6.78Y-3.385
X6.78Y-4.085
X6.88Y-3.385
X6.88Y-4.085
X6.98Y-3.385
X6.98Y-4.085
X7.08Y-3.385
X7.08Y-4.085
T5
X6.8269Y-2.5595
X6.8269Y-3.0611
T0
M30
