%TF.GenerationSoftware,KiCad,Pcbnew,(6.0.5)*%
%TF.CreationDate,2022-11-12T13:49:09-06:00*%
%TF.ProjectId,remote,72656d6f-7465-42e6-9b69-6361645f7063,rev?*%
%TF.SameCoordinates,Original*%
%TF.FileFunction,Copper,L2,Bot*%
%TF.FilePolarity,Positive*%
%FSLAX46Y46*%
G04 Gerber Fmt 4.6, Leading zero omitted, Abs format (unit mm)*
G04 Created by KiCad (PCBNEW (6.0.5)) date 2022-11-12 13:49:09*
%MOMM*%
%LPD*%
G01*
G04 APERTURE LIST*
%TA.AperFunction,ComponentPad*%
%ADD10R,1.700000X1.700000*%
%TD*%
%TA.AperFunction,ComponentPad*%
%ADD11O,1.700000X1.700000*%
%TD*%
%TA.AperFunction,ComponentPad*%
%ADD12C,2.000000*%
%TD*%
%TA.AperFunction,ViaPad*%
%ADD13C,0.600000*%
%TD*%
%TA.AperFunction,Conductor*%
%ADD14C,0.127000*%
%TD*%
G04 APERTURE END LIST*
D10*
%TO.P,J4,1,Pin_1*%
%TO.N,Net-(J3-Pad8)*%
X101854000Y-135382000D03*
D11*
%TO.P,J4,2,Pin_2*%
%TO.N,Net-(J3-Pad7)*%
X99314000Y-135382000D03*
%TO.P,J4,3,Pin_3*%
%TO.N,/remote_GND*%
X96774000Y-135382000D03*
%TO.P,J4,4,Pin_4*%
%TO.N,Net-(J3-Pad5)*%
X94234000Y-135382000D03*
%TO.P,J4,5,Pin_5*%
%TO.N,Net-(J3-Pad4)*%
X91694000Y-135382000D03*
%TD*%
D12*
%TO.P,SW2,1,1*%
%TO.N,Net-(R13-Pad1)*%
X97572000Y-115876000D03*
X97572000Y-122376000D03*
%TO.P,SW2,2,2*%
%TO.N,Net-(J3-Pad2)*%
X102072000Y-122376000D03*
X102072000Y-115876000D03*
%TD*%
%TO.P,SW3,1,1*%
%TO.N,Net-(R13-Pad1)*%
X91222000Y-104700000D03*
X91222000Y-111200000D03*
%TO.P,SW3,2,2*%
%TO.N,Net-(J3-Pad3)*%
X95722000Y-111200000D03*
X95722000Y-104700000D03*
%TD*%
D10*
%TO.P,J3,1,Pin_1*%
%TO.N,Net-(J3-Pad1)*%
X84074000Y-130302000D03*
D11*
%TO.P,J3,2,Pin_2*%
%TO.N,Net-(J3-Pad2)*%
X86614000Y-130302000D03*
%TO.P,J3,3,Pin_3*%
%TO.N,Net-(J3-Pad3)*%
X89154000Y-130302000D03*
%TO.P,J3,4,Pin_4*%
%TO.N,Net-(J3-Pad4)*%
X91694000Y-130302000D03*
%TO.P,J3,5,Pin_5*%
%TO.N,Net-(J3-Pad5)*%
X94234000Y-130302000D03*
%TO.P,J3,6,Pin_6*%
%TO.N,/remote_GND*%
X96774000Y-130302000D03*
%TO.P,J3,7,Pin_7*%
%TO.N,Net-(J3-Pad7)*%
X99314000Y-130302000D03*
%TO.P,J3,8,Pin_8*%
%TO.N,Net-(J3-Pad8)*%
X101854000Y-130302000D03*
%TD*%
D12*
%TO.P,SW1,1,1*%
%TO.N,Net-(R13-Pad1)*%
X84872000Y-115876000D03*
X84872000Y-122376000D03*
%TO.P,SW1,2,2*%
%TO.N,Net-(J3-Pad1)*%
X89372000Y-115876000D03*
X89372000Y-122376000D03*
%TD*%
D13*
%TO.N,Net-(R13-Pad1)*%
X91948000Y-127762000D03*
%TD*%
D14*
%TO.N,Net-(R13-Pad1)*%
X84872000Y-122376000D02*
X84872000Y-115876000D01*
X97572000Y-122376000D02*
X97572000Y-115876000D01*
X92186000Y-127762000D02*
X97572000Y-122376000D01*
X91948000Y-127762000D02*
X92186000Y-127762000D01*
X97572000Y-115876000D02*
X95898000Y-115876000D01*
X86562000Y-122376000D02*
X84872000Y-122376000D01*
X95898000Y-115876000D02*
X91222000Y-111200000D01*
X91948000Y-127762000D02*
X86562000Y-122376000D01*
X91222000Y-111200000D02*
X91222000Y-104700000D01*
%TD*%
%TA.AperFunction,Conductor*%
%TO.N,/remote_GND*%
G36*
X105604208Y-102128502D02*
G01*
X105650701Y-102182158D01*
X105662085Y-102235132D01*
X105488814Y-136716025D01*
X105411909Y-152020133D01*
X105391565Y-152088153D01*
X105337677Y-152134375D01*
X105285911Y-152145500D01*
X79374500Y-152145500D01*
X79306379Y-152125498D01*
X79259886Y-152071842D01*
X79248500Y-152019500D01*
X79248500Y-135348695D01*
X90331251Y-135348695D01*
X90344110Y-135571715D01*
X90345247Y-135576761D01*
X90345248Y-135576767D01*
X90366275Y-135670069D01*
X90393222Y-135789639D01*
X90477266Y-135996616D01*
X90514685Y-136057678D01*
X90591291Y-136182688D01*
X90593987Y-136187088D01*
X90740250Y-136355938D01*
X90912126Y-136498632D01*
X91105000Y-136611338D01*
X91313692Y-136691030D01*
X91318760Y-136692061D01*
X91318763Y-136692062D01*
X91413862Y-136711410D01*
X91532597Y-136735567D01*
X91537772Y-136735757D01*
X91537774Y-136735757D01*
X91750673Y-136743564D01*
X91750677Y-136743564D01*
X91755837Y-136743753D01*
X91760957Y-136743097D01*
X91760959Y-136743097D01*
X91972288Y-136716025D01*
X91972289Y-136716025D01*
X91977416Y-136715368D01*
X91982366Y-136713883D01*
X92186429Y-136652661D01*
X92186434Y-136652659D01*
X92191384Y-136651174D01*
X92391994Y-136552896D01*
X92573860Y-136423173D01*
X92732096Y-136265489D01*
X92791594Y-136182689D01*
X92862453Y-136084077D01*
X92863776Y-136085028D01*
X92910645Y-136041857D01*
X92980580Y-136029625D01*
X93046026Y-136057144D01*
X93073875Y-136088994D01*
X93133987Y-136187088D01*
X93280250Y-136355938D01*
X93452126Y-136498632D01*
X93645000Y-136611338D01*
X93853692Y-136691030D01*
X93858760Y-136692061D01*
X93858763Y-136692062D01*
X93953862Y-136711410D01*
X94072597Y-136735567D01*
X94077772Y-136735757D01*
X94077774Y-136735757D01*
X94290673Y-136743564D01*
X94290677Y-136743564D01*
X94295837Y-136743753D01*
X94300957Y-136743097D01*
X94300959Y-136743097D01*
X94512288Y-136716025D01*
X94512289Y-136716025D01*
X94517416Y-136715368D01*
X94522366Y-136713883D01*
X94726429Y-136652661D01*
X94726434Y-136652659D01*
X94731384Y-136651174D01*
X94931994Y-136552896D01*
X95113860Y-136423173D01*
X95272096Y-136265489D01*
X95331594Y-136182689D01*
X95402453Y-136084077D01*
X95403640Y-136084930D01*
X95450960Y-136041362D01*
X95520897Y-136029145D01*
X95586338Y-136056678D01*
X95614166Y-136088511D01*
X95671694Y-136182388D01*
X95677777Y-136190699D01*
X95817213Y-136351667D01*
X95824580Y-136358883D01*
X95988434Y-136494916D01*
X95996881Y-136500831D01*
X96180756Y-136608279D01*
X96190042Y-136612729D01*
X96389001Y-136688703D01*
X96398899Y-136691579D01*
X96502250Y-136712606D01*
X96516299Y-136711410D01*
X96520000Y-136701065D01*
X96520000Y-136700517D01*
X97028000Y-136700517D01*
X97032064Y-136714359D01*
X97045478Y-136716393D01*
X97052184Y-136715534D01*
X97062262Y-136713392D01*
X97266255Y-136652191D01*
X97275842Y-136648433D01*
X97467095Y-136554739D01*
X97475945Y-136549464D01*
X97649328Y-136425792D01*
X97657200Y-136419139D01*
X97808052Y-136268812D01*
X97814730Y-136260965D01*
X97942022Y-136083819D01*
X97943279Y-136084722D01*
X97990373Y-136041362D01*
X98060311Y-136029145D01*
X98125751Y-136056678D01*
X98153579Y-136088511D01*
X98213987Y-136187088D01*
X98360250Y-136355938D01*
X98532126Y-136498632D01*
X98725000Y-136611338D01*
X98933692Y-136691030D01*
X98938760Y-136692061D01*
X98938763Y-136692062D01*
X99033862Y-136711410D01*
X99152597Y-136735567D01*
X99157772Y-136735757D01*
X99157774Y-136735757D01*
X99370673Y-136743564D01*
X99370677Y-136743564D01*
X99375837Y-136743753D01*
X99380957Y-136743097D01*
X99380959Y-136743097D01*
X99592288Y-136716025D01*
X99592289Y-136716025D01*
X99597416Y-136715368D01*
X99602366Y-136713883D01*
X99806429Y-136652661D01*
X99806434Y-136652659D01*
X99811384Y-136651174D01*
X100011994Y-136552896D01*
X100193860Y-136423173D01*
X100302091Y-136315319D01*
X100364462Y-136281404D01*
X100435268Y-136286592D01*
X100492030Y-136329238D01*
X100509012Y-136360341D01*
X100553385Y-136478705D01*
X100640739Y-136595261D01*
X100757295Y-136682615D01*
X100893684Y-136733745D01*
X100955866Y-136740500D01*
X102752134Y-136740500D01*
X102814316Y-136733745D01*
X102950705Y-136682615D01*
X103067261Y-136595261D01*
X103154615Y-136478705D01*
X103205745Y-136342316D01*
X103212500Y-136280134D01*
X103212500Y-134483866D01*
X103205745Y-134421684D01*
X103154615Y-134285295D01*
X103067261Y-134168739D01*
X102950705Y-134081385D01*
X102814316Y-134030255D01*
X102752134Y-134023500D01*
X100955866Y-134023500D01*
X100893684Y-134030255D01*
X100757295Y-134081385D01*
X100640739Y-134168739D01*
X100553385Y-134285295D01*
X100550233Y-134293703D01*
X100508919Y-134403907D01*
X100466277Y-134460671D01*
X100399716Y-134485371D01*
X100330367Y-134470163D01*
X100297743Y-134444476D01*
X100247151Y-134388875D01*
X100247142Y-134388866D01*
X100243670Y-134385051D01*
X100239619Y-134381852D01*
X100239615Y-134381848D01*
X100072414Y-134249800D01*
X100072410Y-134249798D01*
X100068359Y-134246598D01*
X100032028Y-134226542D01*
X100016136Y-134217769D01*
X99872789Y-134138638D01*
X99867920Y-134136914D01*
X99867916Y-134136912D01*
X99667087Y-134065795D01*
X99667083Y-134065794D01*
X99662212Y-134064069D01*
X99657119Y-134063162D01*
X99657116Y-134063161D01*
X99447373Y-134025800D01*
X99447367Y-134025799D01*
X99442284Y-134024894D01*
X99368452Y-134023992D01*
X99224081Y-134022228D01*
X99224079Y-134022228D01*
X99218911Y-134022165D01*
X98998091Y-134055955D01*
X98785756Y-134125357D01*
X98587607Y-134228507D01*
X98583474Y-134231610D01*
X98583471Y-134231612D01*
X98413100Y-134359530D01*
X98408965Y-134362635D01*
X98383541Y-134389240D01*
X98315280Y-134460671D01*
X98254629Y-134524138D01*
X98147204Y-134681618D01*
X98146898Y-134682066D01*
X98091987Y-134727069D01*
X98021462Y-134735240D01*
X97957715Y-134703986D01*
X97937018Y-134679502D01*
X97856426Y-134554926D01*
X97850136Y-134546757D01*
X97706806Y-134389240D01*
X97699273Y-134382215D01*
X97532139Y-134250222D01*
X97523552Y-134244517D01*
X97337117Y-134141599D01*
X97327705Y-134137369D01*
X97126959Y-134066280D01*
X97116988Y-134063646D01*
X97045837Y-134050972D01*
X97032540Y-134052432D01*
X97028000Y-134066989D01*
X97028000Y-136700517D01*
X96520000Y-136700517D01*
X96520000Y-134065102D01*
X96516082Y-134051758D01*
X96501806Y-134049771D01*
X96463324Y-134055660D01*
X96453288Y-134058051D01*
X96250868Y-134124212D01*
X96241359Y-134128209D01*
X96052463Y-134226542D01*
X96043738Y-134232036D01*
X95873433Y-134359905D01*
X95865726Y-134366748D01*
X95718590Y-134520717D01*
X95712109Y-134528722D01*
X95607498Y-134682074D01*
X95552587Y-134727076D01*
X95482062Y-134735247D01*
X95418315Y-134703993D01*
X95397618Y-134679509D01*
X95316822Y-134554617D01*
X95316820Y-134554614D01*
X95314014Y-134550277D01*
X95163670Y-134385051D01*
X95159619Y-134381852D01*
X95159615Y-134381848D01*
X94992414Y-134249800D01*
X94992410Y-134249798D01*
X94988359Y-134246598D01*
X94952028Y-134226542D01*
X94936136Y-134217769D01*
X94792789Y-134138638D01*
X94787920Y-134136914D01*
X94787916Y-134136912D01*
X94587087Y-134065795D01*
X94587083Y-134065794D01*
X94582212Y-134064069D01*
X94577119Y-134063162D01*
X94577116Y-134063161D01*
X94367373Y-134025800D01*
X94367367Y-134025799D01*
X94362284Y-134024894D01*
X94288452Y-134023992D01*
X94144081Y-134022228D01*
X94144079Y-134022228D01*
X94138911Y-134022165D01*
X93918091Y-134055955D01*
X93705756Y-134125357D01*
X93507607Y-134228507D01*
X93503474Y-134231610D01*
X93503471Y-134231612D01*
X93333100Y-134359530D01*
X93328965Y-134362635D01*
X93303541Y-134389240D01*
X93235280Y-134460671D01*
X93174629Y-134524138D01*
X93067201Y-134681621D01*
X93012293Y-134726621D01*
X92941768Y-134734792D01*
X92878021Y-134703538D01*
X92857324Y-134679054D01*
X92776822Y-134554617D01*
X92776820Y-134554614D01*
X92774014Y-134550277D01*
X92623670Y-134385051D01*
X92619619Y-134381852D01*
X92619615Y-134381848D01*
X92452414Y-134249800D01*
X92452410Y-134249798D01*
X92448359Y-134246598D01*
X92412028Y-134226542D01*
X92396136Y-134217769D01*
X92252789Y-134138638D01*
X92247920Y-134136914D01*
X92247916Y-134136912D01*
X92047087Y-134065795D01*
X92047083Y-134065794D01*
X92042212Y-134064069D01*
X92037119Y-134063162D01*
X92037116Y-134063161D01*
X91827373Y-134025800D01*
X91827367Y-134025799D01*
X91822284Y-134024894D01*
X91748452Y-134023992D01*
X91604081Y-134022228D01*
X91604079Y-134022228D01*
X91598911Y-134022165D01*
X91378091Y-134055955D01*
X91165756Y-134125357D01*
X90967607Y-134228507D01*
X90963474Y-134231610D01*
X90963471Y-134231612D01*
X90793100Y-134359530D01*
X90788965Y-134362635D01*
X90763541Y-134389240D01*
X90695280Y-134460671D01*
X90634629Y-134524138D01*
X90508743Y-134708680D01*
X90414688Y-134911305D01*
X90354989Y-135126570D01*
X90331251Y-135348695D01*
X79248500Y-135348695D01*
X79248500Y-131200134D01*
X82715500Y-131200134D01*
X82722255Y-131262316D01*
X82773385Y-131398705D01*
X82860739Y-131515261D01*
X82977295Y-131602615D01*
X83113684Y-131653745D01*
X83175866Y-131660500D01*
X84972134Y-131660500D01*
X85034316Y-131653745D01*
X85170705Y-131602615D01*
X85287261Y-131515261D01*
X85374615Y-131398705D01*
X85396799Y-131339529D01*
X85418598Y-131281382D01*
X85461240Y-131224618D01*
X85527802Y-131199918D01*
X85597150Y-131215126D01*
X85631817Y-131243114D01*
X85660250Y-131275938D01*
X85832126Y-131418632D01*
X86025000Y-131531338D01*
X86233692Y-131611030D01*
X86238760Y-131612061D01*
X86238763Y-131612062D01*
X86333862Y-131631410D01*
X86452597Y-131655567D01*
X86457772Y-131655757D01*
X86457774Y-131655757D01*
X86670673Y-131663564D01*
X86670677Y-131663564D01*
X86675837Y-131663753D01*
X86680957Y-131663097D01*
X86680959Y-131663097D01*
X86892288Y-131636025D01*
X86892289Y-131636025D01*
X86897416Y-131635368D01*
X86902366Y-131633883D01*
X87106429Y-131572661D01*
X87106434Y-131572659D01*
X87111384Y-131571174D01*
X87311994Y-131472896D01*
X87493860Y-131343173D01*
X87652096Y-131185489D01*
X87782453Y-131004077D01*
X87783776Y-131005028D01*
X87830645Y-130961857D01*
X87900580Y-130949625D01*
X87966026Y-130977144D01*
X87993875Y-131008994D01*
X88053987Y-131107088D01*
X88200250Y-131275938D01*
X88372126Y-131418632D01*
X88565000Y-131531338D01*
X88773692Y-131611030D01*
X88778760Y-131612061D01*
X88778763Y-131612062D01*
X88873862Y-131631410D01*
X88992597Y-131655567D01*
X88997772Y-131655757D01*
X88997774Y-131655757D01*
X89210673Y-131663564D01*
X89210677Y-131663564D01*
X89215837Y-131663753D01*
X89220957Y-131663097D01*
X89220959Y-131663097D01*
X89432288Y-131636025D01*
X89432289Y-131636025D01*
X89437416Y-131635368D01*
X89442366Y-131633883D01*
X89646429Y-131572661D01*
X89646434Y-131572659D01*
X89651384Y-131571174D01*
X89851994Y-131472896D01*
X90033860Y-131343173D01*
X90192096Y-131185489D01*
X90322453Y-131004077D01*
X90323776Y-131005028D01*
X90370645Y-130961857D01*
X90440580Y-130949625D01*
X90506026Y-130977144D01*
X90533875Y-131008994D01*
X90593987Y-131107088D01*
X90740250Y-131275938D01*
X90912126Y-131418632D01*
X91105000Y-131531338D01*
X91313692Y-131611030D01*
X91318760Y-131612061D01*
X91318763Y-131612062D01*
X91413862Y-131631410D01*
X91532597Y-131655567D01*
X91537772Y-131655757D01*
X91537774Y-131655757D01*
X91750673Y-131663564D01*
X91750677Y-131663564D01*
X91755837Y-131663753D01*
X91760957Y-131663097D01*
X91760959Y-131663097D01*
X91972288Y-131636025D01*
X91972289Y-131636025D01*
X91977416Y-131635368D01*
X91982366Y-131633883D01*
X92186429Y-131572661D01*
X92186434Y-131572659D01*
X92191384Y-131571174D01*
X92391994Y-131472896D01*
X92573860Y-131343173D01*
X92732096Y-131185489D01*
X92862453Y-131004077D01*
X92863776Y-131005028D01*
X92910645Y-130961857D01*
X92980580Y-130949625D01*
X93046026Y-130977144D01*
X93073875Y-131008994D01*
X93133987Y-131107088D01*
X93280250Y-131275938D01*
X93452126Y-131418632D01*
X93645000Y-131531338D01*
X93853692Y-131611030D01*
X93858760Y-131612061D01*
X93858763Y-131612062D01*
X93953862Y-131631410D01*
X94072597Y-131655567D01*
X94077772Y-131655757D01*
X94077774Y-131655757D01*
X94290673Y-131663564D01*
X94290677Y-131663564D01*
X94295837Y-131663753D01*
X94300957Y-131663097D01*
X94300959Y-131663097D01*
X94512288Y-131636025D01*
X94512289Y-131636025D01*
X94517416Y-131635368D01*
X94522366Y-131633883D01*
X94726429Y-131572661D01*
X94726434Y-131572659D01*
X94731384Y-131571174D01*
X94931994Y-131472896D01*
X95113860Y-131343173D01*
X95272096Y-131185489D01*
X95402453Y-131004077D01*
X95403640Y-131004930D01*
X95450960Y-130961362D01*
X95520897Y-130949145D01*
X95586338Y-130976678D01*
X95614166Y-131008511D01*
X95671694Y-131102388D01*
X95677777Y-131110699D01*
X95817213Y-131271667D01*
X95824580Y-131278883D01*
X95988434Y-131414916D01*
X95996881Y-131420831D01*
X96180756Y-131528279D01*
X96190042Y-131532729D01*
X96389001Y-131608703D01*
X96398899Y-131611579D01*
X96502250Y-131632606D01*
X96516299Y-131631410D01*
X96520000Y-131621065D01*
X96520000Y-131620517D01*
X97028000Y-131620517D01*
X97032064Y-131634359D01*
X97045478Y-131636393D01*
X97052184Y-131635534D01*
X97062262Y-131633392D01*
X97266255Y-131572191D01*
X97275842Y-131568433D01*
X97467095Y-131474739D01*
X97475945Y-131469464D01*
X97649328Y-131345792D01*
X97657200Y-131339139D01*
X97808052Y-131188812D01*
X97814730Y-131180965D01*
X97942022Y-131003819D01*
X97943279Y-131004722D01*
X97990373Y-130961362D01*
X98060311Y-130949145D01*
X98125751Y-130976678D01*
X98153579Y-131008511D01*
X98213987Y-131107088D01*
X98360250Y-131275938D01*
X98532126Y-131418632D01*
X98725000Y-131531338D01*
X98933692Y-131611030D01*
X98938760Y-131612061D01*
X98938763Y-131612062D01*
X99033862Y-131631410D01*
X99152597Y-131655567D01*
X99157772Y-131655757D01*
X99157774Y-131655757D01*
X99370673Y-131663564D01*
X99370677Y-131663564D01*
X99375837Y-131663753D01*
X99380957Y-131663097D01*
X99380959Y-131663097D01*
X99592288Y-131636025D01*
X99592289Y-131636025D01*
X99597416Y-131635368D01*
X99602366Y-131633883D01*
X99806429Y-131572661D01*
X99806434Y-131572659D01*
X99811384Y-131571174D01*
X100011994Y-131472896D01*
X100193860Y-131343173D01*
X100352096Y-131185489D01*
X100482453Y-131004077D01*
X100483776Y-131005028D01*
X100530645Y-130961857D01*
X100600580Y-130949625D01*
X100666026Y-130977144D01*
X100693875Y-131008994D01*
X100753987Y-131107088D01*
X100900250Y-131275938D01*
X101072126Y-131418632D01*
X101265000Y-131531338D01*
X101473692Y-131611030D01*
X101478760Y-131612061D01*
X101478763Y-131612062D01*
X101573862Y-131631410D01*
X101692597Y-131655567D01*
X101697772Y-131655757D01*
X101697774Y-131655757D01*
X101910673Y-131663564D01*
X101910677Y-131663564D01*
X101915837Y-131663753D01*
X101920957Y-131663097D01*
X101920959Y-131663097D01*
X102132288Y-131636025D01*
X102132289Y-131636025D01*
X102137416Y-131635368D01*
X102142366Y-131633883D01*
X102346429Y-131572661D01*
X102346434Y-131572659D01*
X102351384Y-131571174D01*
X102551994Y-131472896D01*
X102733860Y-131343173D01*
X102892096Y-131185489D01*
X103022453Y-131004077D01*
X103035995Y-130976678D01*
X103119136Y-130808453D01*
X103119137Y-130808451D01*
X103121430Y-130803811D01*
X103186370Y-130590069D01*
X103215529Y-130368590D01*
X103217156Y-130302000D01*
X103198852Y-130079361D01*
X103144431Y-129862702D01*
X103055354Y-129657840D01*
X102934014Y-129470277D01*
X102783670Y-129305051D01*
X102779619Y-129301852D01*
X102779615Y-129301848D01*
X102612414Y-129169800D01*
X102612410Y-129169798D01*
X102608359Y-129166598D01*
X102572028Y-129146542D01*
X102556136Y-129137769D01*
X102412789Y-129058638D01*
X102407920Y-129056914D01*
X102407916Y-129056912D01*
X102207087Y-128985795D01*
X102207083Y-128985794D01*
X102202212Y-128984069D01*
X102197119Y-128983162D01*
X102197116Y-128983161D01*
X101987373Y-128945800D01*
X101987367Y-128945799D01*
X101982284Y-128944894D01*
X101908452Y-128943992D01*
X101764081Y-128942228D01*
X101764079Y-128942228D01*
X101758911Y-128942165D01*
X101538091Y-128975955D01*
X101325756Y-129045357D01*
X101127607Y-129148507D01*
X101123474Y-129151610D01*
X101123471Y-129151612D01*
X100953100Y-129279530D01*
X100948965Y-129282635D01*
X100945393Y-129286373D01*
X100837729Y-129399037D01*
X100794629Y-129444138D01*
X100687201Y-129601621D01*
X100632293Y-129646621D01*
X100561768Y-129654792D01*
X100498021Y-129623538D01*
X100477324Y-129599054D01*
X100396822Y-129474617D01*
X100396820Y-129474614D01*
X100394014Y-129470277D01*
X100243670Y-129305051D01*
X100239619Y-129301852D01*
X100239615Y-129301848D01*
X100072414Y-129169800D01*
X100072410Y-129169798D01*
X100068359Y-129166598D01*
X100032028Y-129146542D01*
X100016136Y-129137769D01*
X99872789Y-129058638D01*
X99867920Y-129056914D01*
X99867916Y-129056912D01*
X99667087Y-128985795D01*
X99667083Y-128985794D01*
X99662212Y-128984069D01*
X99657119Y-128983162D01*
X99657116Y-128983161D01*
X99447373Y-128945800D01*
X99447367Y-128945799D01*
X99442284Y-128944894D01*
X99368452Y-128943992D01*
X99224081Y-128942228D01*
X99224079Y-128942228D01*
X99218911Y-128942165D01*
X98998091Y-128975955D01*
X98785756Y-129045357D01*
X98587607Y-129148507D01*
X98583474Y-129151610D01*
X98583471Y-129151612D01*
X98413100Y-129279530D01*
X98408965Y-129282635D01*
X98405393Y-129286373D01*
X98297729Y-129399037D01*
X98254629Y-129444138D01*
X98147204Y-129601618D01*
X98146898Y-129602066D01*
X98091987Y-129647069D01*
X98021462Y-129655240D01*
X97957715Y-129623986D01*
X97937018Y-129599502D01*
X97856426Y-129474926D01*
X97850136Y-129466757D01*
X97706806Y-129309240D01*
X97699273Y-129302215D01*
X97532139Y-129170222D01*
X97523552Y-129164517D01*
X97337117Y-129061599D01*
X97327705Y-129057369D01*
X97126959Y-128986280D01*
X97116988Y-128983646D01*
X97045837Y-128970972D01*
X97032540Y-128972432D01*
X97028000Y-128986989D01*
X97028000Y-131620517D01*
X96520000Y-131620517D01*
X96520000Y-128985102D01*
X96516082Y-128971758D01*
X96501806Y-128969771D01*
X96463324Y-128975660D01*
X96453288Y-128978051D01*
X96250868Y-129044212D01*
X96241359Y-129048209D01*
X96052463Y-129146542D01*
X96043738Y-129152036D01*
X95873433Y-129279905D01*
X95865726Y-129286748D01*
X95718590Y-129440717D01*
X95712109Y-129448722D01*
X95607498Y-129602074D01*
X95552587Y-129647076D01*
X95482062Y-129655247D01*
X95418315Y-129623993D01*
X95397618Y-129599509D01*
X95316822Y-129474617D01*
X95316820Y-129474614D01*
X95314014Y-129470277D01*
X95163670Y-129305051D01*
X95159619Y-129301852D01*
X95159615Y-129301848D01*
X94992414Y-129169800D01*
X94992410Y-129169798D01*
X94988359Y-129166598D01*
X94952028Y-129146542D01*
X94936136Y-129137769D01*
X94792789Y-129058638D01*
X94787920Y-129056914D01*
X94787916Y-129056912D01*
X94587087Y-128985795D01*
X94587083Y-128985794D01*
X94582212Y-128984069D01*
X94577119Y-128983162D01*
X94577116Y-128983161D01*
X94367373Y-128945800D01*
X94367367Y-128945799D01*
X94362284Y-128944894D01*
X94288452Y-128943992D01*
X94144081Y-128942228D01*
X94144079Y-128942228D01*
X94138911Y-128942165D01*
X93918091Y-128975955D01*
X93705756Y-129045357D01*
X93507607Y-129148507D01*
X93503474Y-129151610D01*
X93503471Y-129151612D01*
X93333100Y-129279530D01*
X93328965Y-129282635D01*
X93325393Y-129286373D01*
X93217729Y-129399037D01*
X93174629Y-129444138D01*
X93067201Y-129601621D01*
X93012293Y-129646621D01*
X92941768Y-129654792D01*
X92878021Y-129623538D01*
X92857324Y-129599054D01*
X92776822Y-129474617D01*
X92776820Y-129474614D01*
X92774014Y-129470277D01*
X92623670Y-129305051D01*
X92619619Y-129301852D01*
X92619615Y-129301848D01*
X92452414Y-129169800D01*
X92452410Y-129169798D01*
X92448359Y-129166598D01*
X92412028Y-129146542D01*
X92396136Y-129137769D01*
X92252789Y-129058638D01*
X92247920Y-129056914D01*
X92247916Y-129056912D01*
X92047087Y-128985795D01*
X92047083Y-128985794D01*
X92042212Y-128984069D01*
X92037119Y-128983162D01*
X92037116Y-128983161D01*
X91827373Y-128945800D01*
X91827367Y-128945799D01*
X91822284Y-128944894D01*
X91748452Y-128943992D01*
X91604081Y-128942228D01*
X91604079Y-128942228D01*
X91598911Y-128942165D01*
X91378091Y-128975955D01*
X91165756Y-129045357D01*
X90967607Y-129148507D01*
X90963474Y-129151610D01*
X90963471Y-129151612D01*
X90793100Y-129279530D01*
X90788965Y-129282635D01*
X90785393Y-129286373D01*
X90677729Y-129399037D01*
X90634629Y-129444138D01*
X90527201Y-129601621D01*
X90472293Y-129646621D01*
X90401768Y-129654792D01*
X90338021Y-129623538D01*
X90317324Y-129599054D01*
X90236822Y-129474617D01*
X90236820Y-129474614D01*
X90234014Y-129470277D01*
X90083670Y-129305051D01*
X90079619Y-129301852D01*
X90079615Y-129301848D01*
X89912414Y-129169800D01*
X89912410Y-129169798D01*
X89908359Y-129166598D01*
X89872028Y-129146542D01*
X89856136Y-129137769D01*
X89712789Y-129058638D01*
X89707920Y-129056914D01*
X89707916Y-129056912D01*
X89507087Y-128985795D01*
X89507083Y-128985794D01*
X89502212Y-128984069D01*
X89497119Y-128983162D01*
X89497116Y-128983161D01*
X89287373Y-128945800D01*
X89287367Y-128945799D01*
X89282284Y-128944894D01*
X89208452Y-128943992D01*
X89064081Y-128942228D01*
X89064079Y-128942228D01*
X89058911Y-128942165D01*
X88838091Y-128975955D01*
X88625756Y-129045357D01*
X88427607Y-129148507D01*
X88423474Y-129151610D01*
X88423471Y-129151612D01*
X88253100Y-129279530D01*
X88248965Y-129282635D01*
X88245393Y-129286373D01*
X88137729Y-129399037D01*
X88094629Y-129444138D01*
X87987201Y-129601621D01*
X87932293Y-129646621D01*
X87861768Y-129654792D01*
X87798021Y-129623538D01*
X87777324Y-129599054D01*
X87696822Y-129474617D01*
X87696820Y-129474614D01*
X87694014Y-129470277D01*
X87543670Y-129305051D01*
X87539619Y-129301852D01*
X87539615Y-129301848D01*
X87372414Y-129169800D01*
X87372410Y-129169798D01*
X87368359Y-129166598D01*
X87332028Y-129146542D01*
X87316136Y-129137769D01*
X87172789Y-129058638D01*
X87167920Y-129056914D01*
X87167916Y-129056912D01*
X86967087Y-128985795D01*
X86967083Y-128985794D01*
X86962212Y-128984069D01*
X86957119Y-128983162D01*
X86957116Y-128983161D01*
X86747373Y-128945800D01*
X86747367Y-128945799D01*
X86742284Y-128944894D01*
X86668452Y-128943992D01*
X86524081Y-128942228D01*
X86524079Y-128942228D01*
X86518911Y-128942165D01*
X86298091Y-128975955D01*
X86085756Y-129045357D01*
X85887607Y-129148507D01*
X85883474Y-129151610D01*
X85883471Y-129151612D01*
X85713100Y-129279530D01*
X85708965Y-129282635D01*
X85652537Y-129341684D01*
X85628283Y-129367064D01*
X85566759Y-129402494D01*
X85495846Y-129399037D01*
X85438060Y-129357791D01*
X85419207Y-129324243D01*
X85377767Y-129213703D01*
X85374615Y-129205295D01*
X85287261Y-129088739D01*
X85170705Y-129001385D01*
X85034316Y-128950255D01*
X84972134Y-128943500D01*
X83175866Y-128943500D01*
X83113684Y-128950255D01*
X82977295Y-129001385D01*
X82860739Y-129088739D01*
X82773385Y-129205295D01*
X82722255Y-129341684D01*
X82715500Y-129403866D01*
X82715500Y-131200134D01*
X79248500Y-131200134D01*
X79248500Y-122376000D01*
X83358835Y-122376000D01*
X83377465Y-122612711D01*
X83378619Y-122617518D01*
X83378620Y-122617524D01*
X83392753Y-122676391D01*
X83432895Y-122843594D01*
X83434788Y-122848165D01*
X83434789Y-122848167D01*
X83503197Y-123013318D01*
X83523760Y-123062963D01*
X83526346Y-123067183D01*
X83645241Y-123261202D01*
X83645245Y-123261208D01*
X83647824Y-123265416D01*
X83802031Y-123445969D01*
X83982584Y-123600176D01*
X83986792Y-123602755D01*
X83986798Y-123602759D01*
X84180817Y-123721654D01*
X84185037Y-123724240D01*
X84189607Y-123726133D01*
X84189611Y-123726135D01*
X84351020Y-123792992D01*
X84404406Y-123815105D01*
X84484609Y-123834360D01*
X84630476Y-123869380D01*
X84630482Y-123869381D01*
X84635289Y-123870535D01*
X84872000Y-123889165D01*
X85108711Y-123870535D01*
X85113518Y-123869381D01*
X85113524Y-123869380D01*
X85259391Y-123834360D01*
X85339594Y-123815105D01*
X85392980Y-123792992D01*
X85554389Y-123726135D01*
X85554393Y-123726133D01*
X85558963Y-123724240D01*
X85563183Y-123721654D01*
X85757202Y-123602759D01*
X85757208Y-123602755D01*
X85761416Y-123600176D01*
X85941969Y-123445969D01*
X86096176Y-123265416D01*
X86098755Y-123261208D01*
X86098759Y-123261202D01*
X86220240Y-123062963D01*
X86222835Y-123058906D01*
X86222837Y-123058903D01*
X86277266Y-123013318D01*
X86347700Y-123004396D01*
X86416770Y-123039700D01*
X91103295Y-127726225D01*
X91137321Y-127788537D01*
X91139599Y-127803024D01*
X91152163Y-127931160D01*
X91209418Y-128103273D01*
X91213065Y-128109295D01*
X91213066Y-128109297D01*
X91223978Y-128127314D01*
X91303380Y-128258424D01*
X91429382Y-128388902D01*
X91581159Y-128488222D01*
X91587763Y-128490678D01*
X91587765Y-128490679D01*
X91744558Y-128548990D01*
X91744560Y-128548990D01*
X91751168Y-128551448D01*
X91834995Y-128562633D01*
X91923980Y-128574507D01*
X91923984Y-128574507D01*
X91930961Y-128575438D01*
X91937972Y-128574800D01*
X91937976Y-128574800D01*
X92080459Y-128561832D01*
X92111600Y-128558998D01*
X92118302Y-128556820D01*
X92118304Y-128556820D01*
X92277409Y-128505124D01*
X92277412Y-128505123D01*
X92284108Y-128502947D01*
X92439912Y-128410069D01*
X92571266Y-128284982D01*
X92671643Y-128133902D01*
X92691832Y-128080756D01*
X92720524Y-128036406D01*
X96929912Y-123827018D01*
X96992224Y-123792992D01*
X97067225Y-123799704D01*
X97104406Y-123815105D01*
X97184609Y-123834360D01*
X97330476Y-123869380D01*
X97330482Y-123869381D01*
X97335289Y-123870535D01*
X97572000Y-123889165D01*
X97808711Y-123870535D01*
X97813518Y-123869381D01*
X97813524Y-123869380D01*
X97959391Y-123834360D01*
X98039594Y-123815105D01*
X98092980Y-123792992D01*
X98254389Y-123726135D01*
X98254393Y-123726133D01*
X98258963Y-123724240D01*
X98263183Y-123721654D01*
X98457202Y-123602759D01*
X98457208Y-123602755D01*
X98461416Y-123600176D01*
X98641969Y-123445969D01*
X98796176Y-123265416D01*
X98798755Y-123261208D01*
X98798759Y-123261202D01*
X98917654Y-123067183D01*
X98920240Y-123062963D01*
X98940804Y-123013318D01*
X99009211Y-122848167D01*
X99009212Y-122848165D01*
X99011105Y-122843594D01*
X99051247Y-122676391D01*
X99065380Y-122617524D01*
X99065381Y-122617518D01*
X99066535Y-122612711D01*
X99085165Y-122376000D01*
X100558835Y-122376000D01*
X100577465Y-122612711D01*
X100578619Y-122617518D01*
X100578620Y-122617524D01*
X100592753Y-122676391D01*
X100632895Y-122843594D01*
X100634788Y-122848165D01*
X100634789Y-122848167D01*
X100703197Y-123013318D01*
X100723760Y-123062963D01*
X100726346Y-123067183D01*
X100845241Y-123261202D01*
X100845245Y-123261208D01*
X100847824Y-123265416D01*
X101002031Y-123445969D01*
X101182584Y-123600176D01*
X101186792Y-123602755D01*
X101186798Y-123602759D01*
X101380817Y-123721654D01*
X101385037Y-123724240D01*
X101389607Y-123726133D01*
X101389611Y-123726135D01*
X101551020Y-123792992D01*
X101604406Y-123815105D01*
X101684609Y-123834360D01*
X101830476Y-123869380D01*
X101830482Y-123869381D01*
X101835289Y-123870535D01*
X102072000Y-123889165D01*
X102308711Y-123870535D01*
X102313518Y-123869381D01*
X102313524Y-123869380D01*
X102459391Y-123834360D01*
X102539594Y-123815105D01*
X102592980Y-123792992D01*
X102754389Y-123726135D01*
X102754393Y-123726133D01*
X102758963Y-123724240D01*
X102763183Y-123721654D01*
X102957202Y-123602759D01*
X102957208Y-123602755D01*
X102961416Y-123600176D01*
X103141969Y-123445969D01*
X103296176Y-123265416D01*
X103298755Y-123261208D01*
X103298759Y-123261202D01*
X103417654Y-123067183D01*
X103420240Y-123062963D01*
X103440804Y-123013318D01*
X103509211Y-122848167D01*
X103509212Y-122848165D01*
X103511105Y-122843594D01*
X103551247Y-122676391D01*
X103565380Y-122617524D01*
X103565381Y-122617518D01*
X103566535Y-122612711D01*
X103585165Y-122376000D01*
X103566535Y-122139289D01*
X103511105Y-121908406D01*
X103475267Y-121821884D01*
X103422135Y-121693611D01*
X103422133Y-121693607D01*
X103420240Y-121689037D01*
X103417654Y-121684817D01*
X103298759Y-121490798D01*
X103298755Y-121490792D01*
X103296176Y-121486584D01*
X103141969Y-121306031D01*
X102961416Y-121151824D01*
X102957208Y-121149245D01*
X102957202Y-121149241D01*
X102763183Y-121030346D01*
X102758963Y-121027760D01*
X102754393Y-121025867D01*
X102754389Y-121025865D01*
X102544167Y-120938789D01*
X102544165Y-120938788D01*
X102539594Y-120936895D01*
X102459391Y-120917640D01*
X102313524Y-120882620D01*
X102313518Y-120882619D01*
X102308711Y-120881465D01*
X102072000Y-120862835D01*
X101835289Y-120881465D01*
X101830482Y-120882619D01*
X101830476Y-120882620D01*
X101684609Y-120917640D01*
X101604406Y-120936895D01*
X101599835Y-120938788D01*
X101599833Y-120938789D01*
X101389611Y-121025865D01*
X101389607Y-121025867D01*
X101385037Y-121027760D01*
X101380817Y-121030346D01*
X101186798Y-121149241D01*
X101186792Y-121149245D01*
X101182584Y-121151824D01*
X101002031Y-121306031D01*
X100847824Y-121486584D01*
X100845245Y-121490792D01*
X100845241Y-121490798D01*
X100726346Y-121684817D01*
X100723760Y-121689037D01*
X100721867Y-121693607D01*
X100721865Y-121693611D01*
X100668733Y-121821884D01*
X100632895Y-121908406D01*
X100577465Y-122139289D01*
X100558835Y-122376000D01*
X99085165Y-122376000D01*
X99066535Y-122139289D01*
X99011105Y-121908406D01*
X98975267Y-121821884D01*
X98922135Y-121693611D01*
X98922133Y-121693607D01*
X98920240Y-121689037D01*
X98917654Y-121684817D01*
X98798759Y-121490798D01*
X98798755Y-121490792D01*
X98796176Y-121486584D01*
X98641969Y-121306031D01*
X98461416Y-121151824D01*
X98457208Y-121149245D01*
X98457202Y-121149241D01*
X98263183Y-121030346D01*
X98258963Y-121027760D01*
X98221783Y-121012359D01*
X98166501Y-120967810D01*
X98144000Y-120895950D01*
X98144000Y-117356050D01*
X98164002Y-117287929D01*
X98221782Y-117239641D01*
X98254388Y-117226135D01*
X98258963Y-117224240D01*
X98263183Y-117221654D01*
X98457202Y-117102759D01*
X98457208Y-117102755D01*
X98461416Y-117100176D01*
X98641969Y-116945969D01*
X98796176Y-116765416D01*
X98798755Y-116761208D01*
X98798759Y-116761202D01*
X98917654Y-116567183D01*
X98920240Y-116562963D01*
X98965815Y-116452936D01*
X99009211Y-116348167D01*
X99009212Y-116348165D01*
X99011105Y-116343594D01*
X99066535Y-116112711D01*
X99085165Y-115876000D01*
X100558835Y-115876000D01*
X100577465Y-116112711D01*
X100632895Y-116343594D01*
X100634788Y-116348165D01*
X100634789Y-116348167D01*
X100678186Y-116452936D01*
X100723760Y-116562963D01*
X100726346Y-116567183D01*
X100845241Y-116761202D01*
X100845245Y-116761208D01*
X100847824Y-116765416D01*
X101002031Y-116945969D01*
X101182584Y-117100176D01*
X101186792Y-117102755D01*
X101186798Y-117102759D01*
X101380817Y-117221654D01*
X101385037Y-117224240D01*
X101389607Y-117226133D01*
X101389611Y-117226135D01*
X101599833Y-117313211D01*
X101604406Y-117315105D01*
X101684609Y-117334360D01*
X101830476Y-117369380D01*
X101830482Y-117369381D01*
X101835289Y-117370535D01*
X102072000Y-117389165D01*
X102308711Y-117370535D01*
X102313518Y-117369381D01*
X102313524Y-117369380D01*
X102459391Y-117334360D01*
X102539594Y-117315105D01*
X102544167Y-117313211D01*
X102754389Y-117226135D01*
X102754393Y-117226133D01*
X102758963Y-117224240D01*
X102763183Y-117221654D01*
X102957202Y-117102759D01*
X102957208Y-117102755D01*
X102961416Y-117100176D01*
X103141969Y-116945969D01*
X103296176Y-116765416D01*
X103298755Y-116761208D01*
X103298759Y-116761202D01*
X103417654Y-116567183D01*
X103420240Y-116562963D01*
X103465815Y-116452936D01*
X103509211Y-116348167D01*
X103509212Y-116348165D01*
X103511105Y-116343594D01*
X103566535Y-116112711D01*
X103585165Y-115876000D01*
X103566535Y-115639289D01*
X103511105Y-115408406D01*
X103429028Y-115210253D01*
X103422135Y-115193611D01*
X103422133Y-115193607D01*
X103420240Y-115189037D01*
X103414162Y-115179119D01*
X103298759Y-114990798D01*
X103298755Y-114990792D01*
X103296176Y-114986584D01*
X103141969Y-114806031D01*
X102961416Y-114651824D01*
X102957208Y-114649245D01*
X102957202Y-114649241D01*
X102763183Y-114530346D01*
X102758963Y-114527760D01*
X102754393Y-114525867D01*
X102754389Y-114525865D01*
X102544167Y-114438789D01*
X102544165Y-114438788D01*
X102539594Y-114436895D01*
X102459391Y-114417640D01*
X102313524Y-114382620D01*
X102313518Y-114382619D01*
X102308711Y-114381465D01*
X102072000Y-114362835D01*
X101835289Y-114381465D01*
X101830482Y-114382619D01*
X101830476Y-114382620D01*
X101684609Y-114417640D01*
X101604406Y-114436895D01*
X101599835Y-114438788D01*
X101599833Y-114438789D01*
X101389611Y-114525865D01*
X101389607Y-114525867D01*
X101385037Y-114527760D01*
X101380817Y-114530346D01*
X101186798Y-114649241D01*
X101186792Y-114649245D01*
X101182584Y-114651824D01*
X101002031Y-114806031D01*
X100847824Y-114986584D01*
X100845245Y-114990792D01*
X100845241Y-114990798D01*
X100729838Y-115179119D01*
X100723760Y-115189037D01*
X100721867Y-115193607D01*
X100721865Y-115193611D01*
X100714972Y-115210253D01*
X100632895Y-115408406D01*
X100577465Y-115639289D01*
X100558835Y-115876000D01*
X99085165Y-115876000D01*
X99066535Y-115639289D01*
X99011105Y-115408406D01*
X98929028Y-115210253D01*
X98922135Y-115193611D01*
X98922133Y-115193607D01*
X98920240Y-115189037D01*
X98914162Y-115179119D01*
X98798759Y-114990798D01*
X98798755Y-114990792D01*
X98796176Y-114986584D01*
X98641969Y-114806031D01*
X98461416Y-114651824D01*
X98457208Y-114649245D01*
X98457202Y-114649241D01*
X98263183Y-114530346D01*
X98258963Y-114527760D01*
X98254393Y-114525867D01*
X98254389Y-114525865D01*
X98044167Y-114438789D01*
X98044165Y-114438788D01*
X98039594Y-114436895D01*
X97959391Y-114417640D01*
X97813524Y-114382620D01*
X97813518Y-114382619D01*
X97808711Y-114381465D01*
X97572000Y-114362835D01*
X97335289Y-114381465D01*
X97330482Y-114382619D01*
X97330476Y-114382620D01*
X97184609Y-114417640D01*
X97104406Y-114436895D01*
X97099835Y-114438788D01*
X97099833Y-114438789D01*
X96889611Y-114525865D01*
X96889607Y-114525867D01*
X96885037Y-114527760D01*
X96880817Y-114530346D01*
X96686798Y-114649241D01*
X96686792Y-114649245D01*
X96682584Y-114651824D01*
X96502031Y-114806031D01*
X96347824Y-114986584D01*
X96345242Y-114990797D01*
X96345235Y-114990807D01*
X96229836Y-115179119D01*
X96177189Y-115226751D01*
X96107147Y-115238357D01*
X96041950Y-115210253D01*
X96033309Y-115202379D01*
X92673018Y-111842088D01*
X92638992Y-111779776D01*
X92645704Y-111704775D01*
X92659211Y-111672167D01*
X92659212Y-111672165D01*
X92661105Y-111667594D01*
X92716535Y-111436711D01*
X92735165Y-111200000D01*
X94208835Y-111200000D01*
X94227465Y-111436711D01*
X94282895Y-111667594D01*
X94373760Y-111886963D01*
X94376346Y-111891183D01*
X94495241Y-112085202D01*
X94495245Y-112085208D01*
X94497824Y-112089416D01*
X94652031Y-112269969D01*
X94832584Y-112424176D01*
X94836792Y-112426755D01*
X94836798Y-112426759D01*
X95030817Y-112545654D01*
X95035037Y-112548240D01*
X95039607Y-112550133D01*
X95039611Y-112550135D01*
X95217224Y-112623704D01*
X95254406Y-112639105D01*
X95334609Y-112658360D01*
X95480476Y-112693380D01*
X95480482Y-112693381D01*
X95485289Y-112694535D01*
X95722000Y-112713165D01*
X95958711Y-112694535D01*
X95963518Y-112693381D01*
X95963524Y-112693380D01*
X96109391Y-112658360D01*
X96189594Y-112639105D01*
X96226776Y-112623704D01*
X96404389Y-112550135D01*
X96404393Y-112550133D01*
X96408963Y-112548240D01*
X96413183Y-112545654D01*
X96607202Y-112426759D01*
X96607208Y-112426755D01*
X96611416Y-112424176D01*
X96791969Y-112269969D01*
X96946176Y-112089416D01*
X96948755Y-112085208D01*
X96948759Y-112085202D01*
X97067654Y-111891183D01*
X97070240Y-111886963D01*
X97161105Y-111667594D01*
X97216535Y-111436711D01*
X97235165Y-111200000D01*
X97216535Y-110963289D01*
X97161105Y-110732406D01*
X97070240Y-110513037D01*
X97067654Y-110508817D01*
X96948759Y-110314798D01*
X96948755Y-110314792D01*
X96946176Y-110310584D01*
X96791969Y-110130031D01*
X96611416Y-109975824D01*
X96607208Y-109973245D01*
X96607202Y-109973241D01*
X96413183Y-109854346D01*
X96408963Y-109851760D01*
X96404393Y-109849867D01*
X96404389Y-109849865D01*
X96194167Y-109762789D01*
X96194165Y-109762788D01*
X96189594Y-109760895D01*
X96109391Y-109741640D01*
X95963524Y-109706620D01*
X95963518Y-109706619D01*
X95958711Y-109705465D01*
X95722000Y-109686835D01*
X95485289Y-109705465D01*
X95480482Y-109706619D01*
X95480476Y-109706620D01*
X95334609Y-109741640D01*
X95254406Y-109760895D01*
X95249835Y-109762788D01*
X95249833Y-109762789D01*
X95039611Y-109849865D01*
X95039607Y-109849867D01*
X95035037Y-109851760D01*
X95030817Y-109854346D01*
X94836798Y-109973241D01*
X94836792Y-109973245D01*
X94832584Y-109975824D01*
X94652031Y-110130031D01*
X94497824Y-110310584D01*
X94495245Y-110314792D01*
X94495241Y-110314798D01*
X94376346Y-110508817D01*
X94373760Y-110513037D01*
X94282895Y-110732406D01*
X94227465Y-110963289D01*
X94208835Y-111200000D01*
X92735165Y-111200000D01*
X92716535Y-110963289D01*
X92661105Y-110732406D01*
X92570240Y-110513037D01*
X92567654Y-110508817D01*
X92448759Y-110314798D01*
X92448755Y-110314792D01*
X92446176Y-110310584D01*
X92291969Y-110130031D01*
X92111416Y-109975824D01*
X92107208Y-109973245D01*
X92107202Y-109973241D01*
X91913183Y-109854346D01*
X91908963Y-109851760D01*
X91871783Y-109836359D01*
X91816501Y-109791810D01*
X91794000Y-109719950D01*
X91794000Y-106180050D01*
X91814002Y-106111929D01*
X91871782Y-106063641D01*
X91904388Y-106050135D01*
X91908963Y-106048240D01*
X91913183Y-106045654D01*
X92107202Y-105926759D01*
X92107208Y-105926755D01*
X92111416Y-105924176D01*
X92291969Y-105769969D01*
X92446176Y-105589416D01*
X92448755Y-105585208D01*
X92448759Y-105585202D01*
X92567654Y-105391183D01*
X92570240Y-105386963D01*
X92661105Y-105167594D01*
X92716535Y-104936711D01*
X92735165Y-104700000D01*
X94208835Y-104700000D01*
X94227465Y-104936711D01*
X94282895Y-105167594D01*
X94373760Y-105386963D01*
X94376346Y-105391183D01*
X94495241Y-105585202D01*
X94495245Y-105585208D01*
X94497824Y-105589416D01*
X94652031Y-105769969D01*
X94832584Y-105924176D01*
X94836792Y-105926755D01*
X94836798Y-105926759D01*
X95030817Y-106045654D01*
X95035037Y-106048240D01*
X95039607Y-106050133D01*
X95039611Y-106050135D01*
X95249833Y-106137211D01*
X95254406Y-106139105D01*
X95334609Y-106158360D01*
X95480476Y-106193380D01*
X95480482Y-106193381D01*
X95485289Y-106194535D01*
X95722000Y-106213165D01*
X95958711Y-106194535D01*
X95963518Y-106193381D01*
X95963524Y-106193380D01*
X96109391Y-106158360D01*
X96189594Y-106139105D01*
X96194167Y-106137211D01*
X96404389Y-106050135D01*
X96404393Y-106050133D01*
X96408963Y-106048240D01*
X96413183Y-106045654D01*
X96607202Y-105926759D01*
X96607208Y-105926755D01*
X96611416Y-105924176D01*
X96791969Y-105769969D01*
X96946176Y-105589416D01*
X96948755Y-105585208D01*
X96948759Y-105585202D01*
X97067654Y-105391183D01*
X97070240Y-105386963D01*
X97161105Y-105167594D01*
X97216535Y-104936711D01*
X97235165Y-104700000D01*
X97216535Y-104463289D01*
X97161105Y-104232406D01*
X97070240Y-104013037D01*
X97067654Y-104008817D01*
X96948759Y-103814798D01*
X96948755Y-103814792D01*
X96946176Y-103810584D01*
X96791969Y-103630031D01*
X96611416Y-103475824D01*
X96607208Y-103473245D01*
X96607202Y-103473241D01*
X96413183Y-103354346D01*
X96408963Y-103351760D01*
X96404393Y-103349867D01*
X96404389Y-103349865D01*
X96194167Y-103262789D01*
X96194165Y-103262788D01*
X96189594Y-103260895D01*
X96109391Y-103241640D01*
X95963524Y-103206620D01*
X95963518Y-103206619D01*
X95958711Y-103205465D01*
X95722000Y-103186835D01*
X95485289Y-103205465D01*
X95480482Y-103206619D01*
X95480476Y-103206620D01*
X95334609Y-103241640D01*
X95254406Y-103260895D01*
X95249835Y-103262788D01*
X95249833Y-103262789D01*
X95039611Y-103349865D01*
X95039607Y-103349867D01*
X95035037Y-103351760D01*
X95030817Y-103354346D01*
X94836798Y-103473241D01*
X94836792Y-103473245D01*
X94832584Y-103475824D01*
X94652031Y-103630031D01*
X94497824Y-103810584D01*
X94495245Y-103814792D01*
X94495241Y-103814798D01*
X94376346Y-104008817D01*
X94373760Y-104013037D01*
X94282895Y-104232406D01*
X94227465Y-104463289D01*
X94208835Y-104700000D01*
X92735165Y-104700000D01*
X92716535Y-104463289D01*
X92661105Y-104232406D01*
X92570240Y-104013037D01*
X92567654Y-104008817D01*
X92448759Y-103814798D01*
X92448755Y-103814792D01*
X92446176Y-103810584D01*
X92291969Y-103630031D01*
X92111416Y-103475824D01*
X92107208Y-103473245D01*
X92107202Y-103473241D01*
X91913183Y-103354346D01*
X91908963Y-103351760D01*
X91904393Y-103349867D01*
X91904389Y-103349865D01*
X91694167Y-103262789D01*
X91694165Y-103262788D01*
X91689594Y-103260895D01*
X91609391Y-103241640D01*
X91463524Y-103206620D01*
X91463518Y-103206619D01*
X91458711Y-103205465D01*
X91222000Y-103186835D01*
X90985289Y-103205465D01*
X90980482Y-103206619D01*
X90980476Y-103206620D01*
X90834609Y-103241640D01*
X90754406Y-103260895D01*
X90749835Y-103262788D01*
X90749833Y-103262789D01*
X90539611Y-103349865D01*
X90539607Y-103349867D01*
X90535037Y-103351760D01*
X90530817Y-103354346D01*
X90336798Y-103473241D01*
X90336792Y-103473245D01*
X90332584Y-103475824D01*
X90152031Y-103630031D01*
X89997824Y-103810584D01*
X89995245Y-103814792D01*
X89995241Y-103814798D01*
X89876346Y-104008817D01*
X89873760Y-104013037D01*
X89782895Y-104232406D01*
X89727465Y-104463289D01*
X89708835Y-104700000D01*
X89727465Y-104936711D01*
X89782895Y-105167594D01*
X89873760Y-105386963D01*
X89876346Y-105391183D01*
X89995241Y-105585202D01*
X89995245Y-105585208D01*
X89997824Y-105589416D01*
X90152031Y-105769969D01*
X90332584Y-105924176D01*
X90336792Y-105926755D01*
X90336798Y-105926759D01*
X90530817Y-106045654D01*
X90535037Y-106048240D01*
X90539612Y-106050135D01*
X90572218Y-106063641D01*
X90627499Y-106108190D01*
X90650000Y-106180050D01*
X90650000Y-109719950D01*
X90629998Y-109788071D01*
X90572218Y-109836359D01*
X90535037Y-109851760D01*
X90530817Y-109854346D01*
X90336798Y-109973241D01*
X90336792Y-109973245D01*
X90332584Y-109975824D01*
X90152031Y-110130031D01*
X89997824Y-110310584D01*
X89995245Y-110314792D01*
X89995241Y-110314798D01*
X89876346Y-110508817D01*
X89873760Y-110513037D01*
X89782895Y-110732406D01*
X89727465Y-110963289D01*
X89708835Y-111200000D01*
X89727465Y-111436711D01*
X89782895Y-111667594D01*
X89873760Y-111886963D01*
X89876346Y-111891183D01*
X89995241Y-112085202D01*
X89995245Y-112085208D01*
X89997824Y-112089416D01*
X90152031Y-112269969D01*
X90332584Y-112424176D01*
X90336792Y-112426755D01*
X90336798Y-112426759D01*
X90530817Y-112545654D01*
X90535037Y-112548240D01*
X90539607Y-112550133D01*
X90539611Y-112550135D01*
X90717224Y-112623704D01*
X90754406Y-112639105D01*
X90834609Y-112658360D01*
X90980476Y-112693380D01*
X90980482Y-112693381D01*
X90985289Y-112694535D01*
X91222000Y-112713165D01*
X91458711Y-112694535D01*
X91463518Y-112693381D01*
X91463524Y-112693380D01*
X91609391Y-112658360D01*
X91689594Y-112639105D01*
X91726775Y-112623704D01*
X91797364Y-112616115D01*
X91864088Y-112651018D01*
X95461184Y-116248114D01*
X95472051Y-116260505D01*
X95490045Y-116283955D01*
X95609532Y-116375641D01*
X95652363Y-116393382D01*
X95748678Y-116433277D01*
X95898000Y-116452936D01*
X95906188Y-116451858D01*
X95927304Y-116449078D01*
X95943751Y-116448000D01*
X96091950Y-116448000D01*
X96160071Y-116468002D01*
X96208359Y-116525782D01*
X96223760Y-116562963D01*
X96226346Y-116567183D01*
X96345241Y-116761202D01*
X96345245Y-116761208D01*
X96347824Y-116765416D01*
X96502031Y-116945969D01*
X96682584Y-117100176D01*
X96686792Y-117102755D01*
X96686798Y-117102759D01*
X96880817Y-117221654D01*
X96885037Y-117224240D01*
X96889612Y-117226135D01*
X96922218Y-117239641D01*
X96977499Y-117284190D01*
X97000000Y-117356050D01*
X97000000Y-120895950D01*
X96979998Y-120964071D01*
X96922218Y-121012359D01*
X96885037Y-121027760D01*
X96880817Y-121030346D01*
X96686798Y-121149241D01*
X96686792Y-121149245D01*
X96682584Y-121151824D01*
X96502031Y-121306031D01*
X96347824Y-121486584D01*
X96345245Y-121490792D01*
X96345241Y-121490798D01*
X96226346Y-121684817D01*
X96223760Y-121689037D01*
X96221867Y-121693607D01*
X96221865Y-121693611D01*
X96168733Y-121821884D01*
X96132895Y-121908406D01*
X96077465Y-122139289D01*
X96058835Y-122376000D01*
X96077465Y-122612711D01*
X96078619Y-122617518D01*
X96078620Y-122617524D01*
X96092753Y-122676391D01*
X96132895Y-122843594D01*
X96134788Y-122848165D01*
X96134789Y-122848167D01*
X96148296Y-122880775D01*
X96155885Y-122951364D01*
X96120982Y-123018088D01*
X92208681Y-126930389D01*
X92146369Y-126964415D01*
X92104667Y-126966408D01*
X91985256Y-126952169D01*
X91919983Y-126924241D01*
X91911080Y-126916150D01*
X89083919Y-124088989D01*
X89049893Y-124026677D01*
X89054958Y-123955862D01*
X89097505Y-123899026D01*
X89164025Y-123874215D01*
X89182898Y-123874282D01*
X89372000Y-123889165D01*
X89608711Y-123870535D01*
X89613518Y-123869381D01*
X89613524Y-123869380D01*
X89759391Y-123834360D01*
X89839594Y-123815105D01*
X89892980Y-123792992D01*
X90054389Y-123726135D01*
X90054393Y-123726133D01*
X90058963Y-123724240D01*
X90063183Y-123721654D01*
X90257202Y-123602759D01*
X90257208Y-123602755D01*
X90261416Y-123600176D01*
X90441969Y-123445969D01*
X90596176Y-123265416D01*
X90598755Y-123261208D01*
X90598759Y-123261202D01*
X90717654Y-123067183D01*
X90720240Y-123062963D01*
X90740804Y-123013318D01*
X90809211Y-122848167D01*
X90809212Y-122848165D01*
X90811105Y-122843594D01*
X90851247Y-122676391D01*
X90865380Y-122617524D01*
X90865381Y-122617518D01*
X90866535Y-122612711D01*
X90885165Y-122376000D01*
X90866535Y-122139289D01*
X90811105Y-121908406D01*
X90775267Y-121821884D01*
X90722135Y-121693611D01*
X90722133Y-121693607D01*
X90720240Y-121689037D01*
X90717654Y-121684817D01*
X90598759Y-121490798D01*
X90598755Y-121490792D01*
X90596176Y-121486584D01*
X90441969Y-121306031D01*
X90261416Y-121151824D01*
X90257208Y-121149245D01*
X90257202Y-121149241D01*
X90063183Y-121030346D01*
X90058963Y-121027760D01*
X90054393Y-121025867D01*
X90054389Y-121025865D01*
X89844167Y-120938789D01*
X89844165Y-120938788D01*
X89839594Y-120936895D01*
X89759391Y-120917640D01*
X89613524Y-120882620D01*
X89613518Y-120882619D01*
X89608711Y-120881465D01*
X89372000Y-120862835D01*
X89135289Y-120881465D01*
X89130482Y-120882619D01*
X89130476Y-120882620D01*
X88984609Y-120917640D01*
X88904406Y-120936895D01*
X88899835Y-120938788D01*
X88899833Y-120938789D01*
X88689611Y-121025865D01*
X88689607Y-121025867D01*
X88685037Y-121027760D01*
X88680817Y-121030346D01*
X88486798Y-121149241D01*
X88486792Y-121149245D01*
X88482584Y-121151824D01*
X88302031Y-121306031D01*
X88147824Y-121486584D01*
X88145245Y-121490792D01*
X88145241Y-121490798D01*
X88026346Y-121684817D01*
X88023760Y-121689037D01*
X88021867Y-121693607D01*
X88021865Y-121693611D01*
X87968733Y-121821884D01*
X87932895Y-121908406D01*
X87877465Y-122139289D01*
X87858835Y-122376000D01*
X87859223Y-122380930D01*
X87873718Y-122565100D01*
X87859122Y-122634580D01*
X87809280Y-122685139D01*
X87740015Y-122700726D01*
X87673319Y-122676391D01*
X87659011Y-122664081D01*
X86998816Y-122003886D01*
X86987949Y-121991495D01*
X86974981Y-121974595D01*
X86969955Y-121968045D01*
X86850468Y-121876359D01*
X86711322Y-121818723D01*
X86680625Y-121814682D01*
X86599503Y-121804001D01*
X86599494Y-121804000D01*
X86599491Y-121804000D01*
X86599479Y-121803999D01*
X86570189Y-121800143D01*
X86570188Y-121800143D01*
X86562000Y-121799065D01*
X86553812Y-121800143D01*
X86553811Y-121800143D01*
X86532702Y-121802922D01*
X86516256Y-121804000D01*
X86352050Y-121804000D01*
X86283929Y-121783998D01*
X86235641Y-121726218D01*
X86222135Y-121693612D01*
X86220240Y-121689037D01*
X86217654Y-121684817D01*
X86098759Y-121490798D01*
X86098755Y-121490792D01*
X86096176Y-121486584D01*
X85941969Y-121306031D01*
X85761416Y-121151824D01*
X85757208Y-121149245D01*
X85757202Y-121149241D01*
X85563183Y-121030346D01*
X85558963Y-121027760D01*
X85521783Y-121012359D01*
X85466501Y-120967810D01*
X85444000Y-120895950D01*
X85444000Y-117356050D01*
X85464002Y-117287929D01*
X85521782Y-117239641D01*
X85554388Y-117226135D01*
X85558963Y-117224240D01*
X85563183Y-117221654D01*
X85757202Y-117102759D01*
X85757208Y-117102755D01*
X85761416Y-117100176D01*
X85941969Y-116945969D01*
X86096176Y-116765416D01*
X86098755Y-116761208D01*
X86098759Y-116761202D01*
X86217654Y-116567183D01*
X86220240Y-116562963D01*
X86265815Y-116452936D01*
X86309211Y-116348167D01*
X86309212Y-116348165D01*
X86311105Y-116343594D01*
X86366535Y-116112711D01*
X86385165Y-115876000D01*
X87858835Y-115876000D01*
X87877465Y-116112711D01*
X87932895Y-116343594D01*
X87934788Y-116348165D01*
X87934789Y-116348167D01*
X87978186Y-116452936D01*
X88023760Y-116562963D01*
X88026346Y-116567183D01*
X88145241Y-116761202D01*
X88145245Y-116761208D01*
X88147824Y-116765416D01*
X88302031Y-116945969D01*
X88482584Y-117100176D01*
X88486792Y-117102755D01*
X88486798Y-117102759D01*
X88680817Y-117221654D01*
X88685037Y-117224240D01*
X88689607Y-117226133D01*
X88689611Y-117226135D01*
X88899833Y-117313211D01*
X88904406Y-117315105D01*
X88984609Y-117334360D01*
X89130476Y-117369380D01*
X89130482Y-117369381D01*
X89135289Y-117370535D01*
X89372000Y-117389165D01*
X89608711Y-117370535D01*
X89613518Y-117369381D01*
X89613524Y-117369380D01*
X89759391Y-117334360D01*
X89839594Y-117315105D01*
X89844167Y-117313211D01*
X90054389Y-117226135D01*
X90054393Y-117226133D01*
X90058963Y-117224240D01*
X90063183Y-117221654D01*
X90257202Y-117102759D01*
X90257208Y-117102755D01*
X90261416Y-117100176D01*
X90441969Y-116945969D01*
X90596176Y-116765416D01*
X90598755Y-116761208D01*
X90598759Y-116761202D01*
X90717654Y-116567183D01*
X90720240Y-116562963D01*
X90765815Y-116452936D01*
X90809211Y-116348167D01*
X90809212Y-116348165D01*
X90811105Y-116343594D01*
X90866535Y-116112711D01*
X90885165Y-115876000D01*
X90866535Y-115639289D01*
X90811105Y-115408406D01*
X90729028Y-115210253D01*
X90722135Y-115193611D01*
X90722133Y-115193607D01*
X90720240Y-115189037D01*
X90714162Y-115179119D01*
X90598759Y-114990798D01*
X90598755Y-114990792D01*
X90596176Y-114986584D01*
X90441969Y-114806031D01*
X90261416Y-114651824D01*
X90257208Y-114649245D01*
X90257202Y-114649241D01*
X90063183Y-114530346D01*
X90058963Y-114527760D01*
X90054393Y-114525867D01*
X90054389Y-114525865D01*
X89844167Y-114438789D01*
X89844165Y-114438788D01*
X89839594Y-114436895D01*
X89759391Y-114417640D01*
X89613524Y-114382620D01*
X89613518Y-114382619D01*
X89608711Y-114381465D01*
X89372000Y-114362835D01*
X89135289Y-114381465D01*
X89130482Y-114382619D01*
X89130476Y-114382620D01*
X88984609Y-114417640D01*
X88904406Y-114436895D01*
X88899835Y-114438788D01*
X88899833Y-114438789D01*
X88689611Y-114525865D01*
X88689607Y-114525867D01*
X88685037Y-114527760D01*
X88680817Y-114530346D01*
X88486798Y-114649241D01*
X88486792Y-114649245D01*
X88482584Y-114651824D01*
X88302031Y-114806031D01*
X88147824Y-114986584D01*
X88145245Y-114990792D01*
X88145241Y-114990798D01*
X88029838Y-115179119D01*
X88023760Y-115189037D01*
X88021867Y-115193607D01*
X88021865Y-115193611D01*
X88014972Y-115210253D01*
X87932895Y-115408406D01*
X87877465Y-115639289D01*
X87858835Y-115876000D01*
X86385165Y-115876000D01*
X86366535Y-115639289D01*
X86311105Y-115408406D01*
X86229028Y-115210253D01*
X86222135Y-115193611D01*
X86222133Y-115193607D01*
X86220240Y-115189037D01*
X86214162Y-115179119D01*
X86098759Y-114990798D01*
X86098755Y-114990792D01*
X86096176Y-114986584D01*
X85941969Y-114806031D01*
X85761416Y-114651824D01*
X85757208Y-114649245D01*
X85757202Y-114649241D01*
X85563183Y-114530346D01*
X85558963Y-114527760D01*
X85554393Y-114525867D01*
X85554389Y-114525865D01*
X85344167Y-114438789D01*
X85344165Y-114438788D01*
X85339594Y-114436895D01*
X85259391Y-114417640D01*
X85113524Y-114382620D01*
X85113518Y-114382619D01*
X85108711Y-114381465D01*
X84872000Y-114362835D01*
X84635289Y-114381465D01*
X84630482Y-114382619D01*
X84630476Y-114382620D01*
X84484609Y-114417640D01*
X84404406Y-114436895D01*
X84399835Y-114438788D01*
X84399833Y-114438789D01*
X84189611Y-114525865D01*
X84189607Y-114525867D01*
X84185037Y-114527760D01*
X84180817Y-114530346D01*
X83986798Y-114649241D01*
X83986792Y-114649245D01*
X83982584Y-114651824D01*
X83802031Y-114806031D01*
X83647824Y-114986584D01*
X83645245Y-114990792D01*
X83645241Y-114990798D01*
X83529838Y-115179119D01*
X83523760Y-115189037D01*
X83521867Y-115193607D01*
X83521865Y-115193611D01*
X83514972Y-115210253D01*
X83432895Y-115408406D01*
X83377465Y-115639289D01*
X83358835Y-115876000D01*
X83377465Y-116112711D01*
X83432895Y-116343594D01*
X83434788Y-116348165D01*
X83434789Y-116348167D01*
X83478186Y-116452936D01*
X83523760Y-116562963D01*
X83526346Y-116567183D01*
X83645241Y-116761202D01*
X83645245Y-116761208D01*
X83647824Y-116765416D01*
X83802031Y-116945969D01*
X83982584Y-117100176D01*
X83986792Y-117102755D01*
X83986798Y-117102759D01*
X84180817Y-117221654D01*
X84185037Y-117224240D01*
X84189612Y-117226135D01*
X84222218Y-117239641D01*
X84277499Y-117284190D01*
X84300000Y-117356050D01*
X84300000Y-120895950D01*
X84279998Y-120964071D01*
X84222218Y-121012359D01*
X84185037Y-121027760D01*
X84180817Y-121030346D01*
X83986798Y-121149241D01*
X83986792Y-121149245D01*
X83982584Y-121151824D01*
X83802031Y-121306031D01*
X83647824Y-121486584D01*
X83645245Y-121490792D01*
X83645241Y-121490798D01*
X83526346Y-121684817D01*
X83523760Y-121689037D01*
X83521867Y-121693607D01*
X83521865Y-121693611D01*
X83468733Y-121821884D01*
X83432895Y-121908406D01*
X83377465Y-122139289D01*
X83358835Y-122376000D01*
X79248500Y-122376000D01*
X79248500Y-102234500D01*
X79268502Y-102166379D01*
X79322158Y-102119886D01*
X79374500Y-102108500D01*
X105536087Y-102108500D01*
X105604208Y-102128502D01*
G37*
%TD.AperFunction*%
%TD*%
M02*
