%TF.GenerationSoftware,KiCad,Pcbnew,(6.0.5)*%
%TF.CreationDate,2023-01-02T12:27:37-06:00*%
%TF.ProjectId,remote,72656d6f-7465-42e6-9b69-6361645f7063,rev?*%
%TF.SameCoordinates,Original*%
%TF.FileFunction,Legend,Top*%
%TF.FilePolarity,Positive*%
%FSLAX46Y46*%
G04 Gerber Fmt 4.6, Leading zero omitted, Abs format (unit mm)*
G04 Created by KiCad (PCBNEW (6.0.5)) date 2023-01-02 12:27:37*
%MOMM*%
%LPD*%
G01*
G04 APERTURE LIST*
%ADD10C,0.152400*%
%ADD11C,0.200000*%
%ADD12C,0.150000*%
%ADD13C,0.300000*%
%ADD14C,0.120000*%
G04 APERTURE END LIST*
D10*
X130144761Y-57009695D02*
X130144761Y-56196895D01*
X130454400Y-56196895D01*
X130531809Y-56235600D01*
X130570514Y-56274304D01*
X130609219Y-56351714D01*
X130609219Y-56467828D01*
X130570514Y-56545238D01*
X130531809Y-56583942D01*
X130454400Y-56622647D01*
X130144761Y-56622647D01*
X130957561Y-57009695D02*
X130957561Y-56467828D01*
X130957561Y-56196895D02*
X130918857Y-56235600D01*
X130957561Y-56274304D01*
X130996266Y-56235600D01*
X130957561Y-56196895D01*
X130957561Y-56274304D01*
X131499428Y-56196895D02*
X131654247Y-56196895D01*
X131731657Y-56235600D01*
X131809066Y-56313009D01*
X131847771Y-56467828D01*
X131847771Y-56738761D01*
X131809066Y-56893580D01*
X131731657Y-56970990D01*
X131654247Y-57009695D01*
X131499428Y-57009695D01*
X131422019Y-56970990D01*
X131344609Y-56893580D01*
X131305904Y-56738761D01*
X131305904Y-56467828D01*
X131344609Y-56313009D01*
X131422019Y-56235600D01*
X131499428Y-56196895D01*
X132583161Y-57009695D02*
X132196114Y-57009695D01*
X132196114Y-56196895D01*
X132854095Y-56583942D02*
X133125028Y-56583942D01*
X133241142Y-57009695D02*
X132854095Y-57009695D01*
X132854095Y-56196895D01*
X133241142Y-56196895D01*
X133589485Y-57009695D02*
X133589485Y-56196895D01*
X133783009Y-56196895D01*
X133899123Y-56235600D01*
X133976533Y-56313009D01*
X134015238Y-56390419D01*
X134053942Y-56545238D01*
X134053942Y-56661352D01*
X134015238Y-56816171D01*
X133976533Y-56893580D01*
X133899123Y-56970990D01*
X133783009Y-57009695D01*
X133589485Y-57009695D01*
D11*
X114737857Y-39183571D02*
X115023571Y-39183571D01*
X115166428Y-39255000D01*
X115309285Y-39397857D01*
X115380714Y-39683571D01*
X115380714Y-40183571D01*
X115309285Y-40469285D01*
X115166428Y-40612142D01*
X115023571Y-40683571D01*
X114737857Y-40683571D01*
X114595000Y-40612142D01*
X114452142Y-40469285D01*
X114380714Y-40183571D01*
X114380714Y-39683571D01*
X114452142Y-39397857D01*
X114595000Y-39255000D01*
X114737857Y-39183571D01*
X116737857Y-40683571D02*
X116023571Y-40683571D01*
X116023571Y-39183571D01*
X117237857Y-39897857D02*
X117737857Y-39897857D01*
X117952142Y-40683571D02*
X117237857Y-40683571D01*
X117237857Y-39183571D01*
X117952142Y-39183571D01*
X118595000Y-40683571D02*
X118595000Y-39183571D01*
X118952142Y-39183571D01*
X119166428Y-39255000D01*
X119309285Y-39397857D01*
X119380714Y-39540714D01*
X119452142Y-39826428D01*
X119452142Y-40040714D01*
X119380714Y-40326428D01*
X119309285Y-40469285D01*
X119166428Y-40612142D01*
X118952142Y-40683571D01*
X118595000Y-40683571D01*
X122023571Y-39255000D02*
X121880714Y-39183571D01*
X121666428Y-39183571D01*
X121452142Y-39255000D01*
X121309285Y-39397857D01*
X121237857Y-39540714D01*
X121166428Y-39826428D01*
X121166428Y-40040714D01*
X121237857Y-40326428D01*
X121309285Y-40469285D01*
X121452142Y-40612142D01*
X121666428Y-40683571D01*
X121809285Y-40683571D01*
X122023571Y-40612142D01*
X122095000Y-40540714D01*
X122095000Y-40040714D01*
X121809285Y-40040714D01*
X122952142Y-40683571D02*
X122809285Y-40612142D01*
X122737857Y-40540714D01*
X122666428Y-40397857D01*
X122666428Y-39969285D01*
X122737857Y-39826428D01*
X122809285Y-39755000D01*
X122952142Y-39683571D01*
X123166428Y-39683571D01*
X123309285Y-39755000D01*
X123380714Y-39826428D01*
X123452142Y-39969285D01*
X123452142Y-40397857D01*
X123380714Y-40540714D01*
X123309285Y-40612142D01*
X123166428Y-40683571D01*
X122952142Y-40683571D01*
X124666428Y-40612142D02*
X124523571Y-40683571D01*
X124237857Y-40683571D01*
X124095000Y-40612142D01*
X124023571Y-40469285D01*
X124023571Y-39897857D01*
X124095000Y-39755000D01*
X124237857Y-39683571D01*
X124523571Y-39683571D01*
X124666428Y-39755000D01*
X124737857Y-39897857D01*
X124737857Y-40040714D01*
X124023571Y-40183571D01*
X125309285Y-40612142D02*
X125452142Y-40683571D01*
X125737857Y-40683571D01*
X125880714Y-40612142D01*
X125952142Y-40469285D01*
X125952142Y-40397857D01*
X125880714Y-40255000D01*
X125737857Y-40183571D01*
X125523571Y-40183571D01*
X125380714Y-40112142D01*
X125309285Y-39969285D01*
X125309285Y-39897857D01*
X125380714Y-39755000D01*
X125523571Y-39683571D01*
X125737857Y-39683571D01*
X125880714Y-39755000D01*
X128380714Y-39683571D02*
X128380714Y-40683571D01*
X127737857Y-39683571D02*
X127737857Y-40469285D01*
X127809285Y-40612142D01*
X127952142Y-40683571D01*
X128166428Y-40683571D01*
X128309285Y-40612142D01*
X128380714Y-40540714D01*
X129095000Y-39683571D02*
X129095000Y-41183571D01*
X129095000Y-39755000D02*
X129237857Y-39683571D01*
X129523571Y-39683571D01*
X129666428Y-39755000D01*
X129737857Y-39826428D01*
X129809285Y-39969285D01*
X129809285Y-40397857D01*
X129737857Y-40540714D01*
X129666428Y-40612142D01*
X129523571Y-40683571D01*
X129237857Y-40683571D01*
X129095000Y-40612142D01*
X131595000Y-40683571D02*
X131595000Y-39183571D01*
X132237857Y-40683571D02*
X132237857Y-39897857D01*
X132166428Y-39755000D01*
X132023571Y-39683571D01*
X131809285Y-39683571D01*
X131666428Y-39755000D01*
X131595000Y-39826428D01*
X133523571Y-40612142D02*
X133380714Y-40683571D01*
X133095000Y-40683571D01*
X132952142Y-40612142D01*
X132880714Y-40469285D01*
X132880714Y-39897857D01*
X132952142Y-39755000D01*
X133095000Y-39683571D01*
X133380714Y-39683571D01*
X133523571Y-39755000D01*
X133595000Y-39897857D01*
X133595000Y-40040714D01*
X132880714Y-40183571D01*
X134237857Y-40683571D02*
X134237857Y-39683571D01*
X134237857Y-39969285D02*
X134309285Y-39826428D01*
X134380714Y-39755000D01*
X134523571Y-39683571D01*
X134666428Y-39683571D01*
X135737857Y-40612142D02*
X135595000Y-40683571D01*
X135309285Y-40683571D01*
X135166428Y-40612142D01*
X135095000Y-40469285D01*
X135095000Y-39897857D01*
X135166428Y-39755000D01*
X135309285Y-39683571D01*
X135595000Y-39683571D01*
X135737857Y-39755000D01*
X135809285Y-39897857D01*
X135809285Y-40040714D01*
X135095000Y-40183571D01*
D12*
X140978000Y-50005714D02*
X140930380Y-50100952D01*
X140930380Y-50243809D01*
X140978000Y-50386666D01*
X141073238Y-50481904D01*
X141168476Y-50529523D01*
X141358952Y-50577142D01*
X141501809Y-50577142D01*
X141692285Y-50529523D01*
X141787523Y-50481904D01*
X141882761Y-50386666D01*
X141930380Y-50243809D01*
X141930380Y-50148571D01*
X141882761Y-50005714D01*
X141835142Y-49958095D01*
X141501809Y-49958095D01*
X141501809Y-50148571D01*
X141882761Y-49148571D02*
X141930380Y-49243809D01*
X141930380Y-49434285D01*
X141882761Y-49529523D01*
X141787523Y-49577142D01*
X141406571Y-49577142D01*
X141311333Y-49529523D01*
X141263714Y-49434285D01*
X141263714Y-49243809D01*
X141311333Y-49148571D01*
X141406571Y-49100952D01*
X141501809Y-49100952D01*
X141597047Y-49577142D01*
X141263714Y-48672380D02*
X141930380Y-48672380D01*
X141358952Y-48672380D02*
X141311333Y-48624761D01*
X141263714Y-48529523D01*
X141263714Y-48386666D01*
X141311333Y-48291428D01*
X141406571Y-48243809D01*
X141930380Y-48243809D01*
X141882761Y-47386666D02*
X141930380Y-47481904D01*
X141930380Y-47672380D01*
X141882761Y-47767619D01*
X141787523Y-47815238D01*
X141406571Y-47815238D01*
X141311333Y-47767619D01*
X141263714Y-47672380D01*
X141263714Y-47481904D01*
X141311333Y-47386666D01*
X141406571Y-47339047D01*
X141501809Y-47339047D01*
X141597047Y-47815238D01*
X141930380Y-46910476D02*
X141263714Y-46910476D01*
X141454190Y-46910476D02*
X141358952Y-46862857D01*
X141311333Y-46815238D01*
X141263714Y-46720000D01*
X141263714Y-46624761D01*
X141930380Y-46291428D02*
X141263714Y-46291428D01*
X140930380Y-46291428D02*
X140978000Y-46339047D01*
X141025619Y-46291428D01*
X140978000Y-46243809D01*
X140930380Y-46291428D01*
X141025619Y-46291428D01*
X141882761Y-45386666D02*
X141930380Y-45481904D01*
X141930380Y-45672380D01*
X141882761Y-45767619D01*
X141835142Y-45815238D01*
X141739904Y-45862857D01*
X141454190Y-45862857D01*
X141358952Y-45815238D01*
X141311333Y-45767619D01*
X141263714Y-45672380D01*
X141263714Y-45481904D01*
X141311333Y-45386666D01*
X140930380Y-44005714D02*
X140930380Y-43815238D01*
X140978000Y-43720000D01*
X141073238Y-43624761D01*
X141263714Y-43577142D01*
X141597047Y-43577142D01*
X141787523Y-43624761D01*
X141882761Y-43720000D01*
X141930380Y-43815238D01*
X141930380Y-44005714D01*
X141882761Y-44100952D01*
X141787523Y-44196190D01*
X141597047Y-44243809D01*
X141263714Y-44243809D01*
X141073238Y-44196190D01*
X140978000Y-44100952D01*
X140930380Y-44005714D01*
X141930380Y-42672380D02*
X141930380Y-43148571D01*
X140930380Y-43148571D01*
X141406571Y-42339047D02*
X141406571Y-42005714D01*
X141930380Y-41862857D02*
X141930380Y-42339047D01*
X140930380Y-42339047D01*
X140930380Y-41862857D01*
X141930380Y-41434285D02*
X140930380Y-41434285D01*
X140930380Y-41196190D01*
X140978000Y-41053333D01*
X141073238Y-40958095D01*
X141168476Y-40910476D01*
X141358952Y-40862857D01*
X141501809Y-40862857D01*
X141692285Y-40910476D01*
X141787523Y-40958095D01*
X141882761Y-41053333D01*
X141930380Y-41196190D01*
X141930380Y-41434285D01*
D11*
X111487857Y-69251285D02*
X111669285Y-69311761D01*
X111729761Y-69372238D01*
X111790238Y-69493190D01*
X111790238Y-69674619D01*
X111729761Y-69795571D01*
X111669285Y-69856047D01*
X111548333Y-69916523D01*
X111064523Y-69916523D01*
X111064523Y-68646523D01*
X111487857Y-68646523D01*
X111608809Y-68707000D01*
X111669285Y-68767476D01*
X111729761Y-68888428D01*
X111729761Y-69009380D01*
X111669285Y-69130333D01*
X111608809Y-69190809D01*
X111487857Y-69251285D01*
X111064523Y-69251285D01*
X112878809Y-69916523D02*
X112878809Y-69251285D01*
X112818333Y-69130333D01*
X112697380Y-69069857D01*
X112455476Y-69069857D01*
X112334523Y-69130333D01*
X112878809Y-69856047D02*
X112757857Y-69916523D01*
X112455476Y-69916523D01*
X112334523Y-69856047D01*
X112274047Y-69735095D01*
X112274047Y-69614142D01*
X112334523Y-69493190D01*
X112455476Y-69432714D01*
X112757857Y-69432714D01*
X112878809Y-69372238D01*
X114027857Y-69856047D02*
X113906904Y-69916523D01*
X113665000Y-69916523D01*
X113544047Y-69856047D01*
X113483571Y-69795571D01*
X113423095Y-69674619D01*
X113423095Y-69311761D01*
X113483571Y-69190809D01*
X113544047Y-69130333D01*
X113665000Y-69069857D01*
X113906904Y-69069857D01*
X114027857Y-69130333D01*
X114572142Y-69916523D02*
X114572142Y-68646523D01*
X114693095Y-69432714D02*
X115055952Y-69916523D01*
X115055952Y-69069857D02*
X114572142Y-69553666D01*
D10*
X106908600Y-83025391D02*
X106908600Y-82212591D01*
X107218238Y-82212591D01*
X107295647Y-82251296D01*
X107334352Y-82290000D01*
X107373057Y-82367410D01*
X107373057Y-82483524D01*
X107334352Y-82560934D01*
X107295647Y-82599638D01*
X107218238Y-82638343D01*
X106908600Y-82638343D01*
X107721400Y-83025391D02*
X107721400Y-82483524D01*
X107721400Y-82212591D02*
X107682695Y-82251296D01*
X107721400Y-82290000D01*
X107760104Y-82251296D01*
X107721400Y-82212591D01*
X107721400Y-82290000D01*
X108456790Y-82986686D02*
X108379380Y-83025391D01*
X108224561Y-83025391D01*
X108147152Y-82986686D01*
X108108447Y-82947981D01*
X108069742Y-82870572D01*
X108069742Y-82638343D01*
X108108447Y-82560934D01*
X108147152Y-82522229D01*
X108224561Y-82483524D01*
X108379380Y-82483524D01*
X108456790Y-82522229D01*
X108921247Y-83025391D02*
X108843838Y-82986686D01*
X108805133Y-82947981D01*
X108766428Y-82870572D01*
X108766428Y-82638343D01*
X108805133Y-82560934D01*
X108843838Y-82522229D01*
X108921247Y-82483524D01*
X109037361Y-82483524D01*
X109114771Y-82522229D01*
X109153476Y-82560934D01*
X109192180Y-82638343D01*
X109192180Y-82870572D01*
X109153476Y-82947981D01*
X109114771Y-82986686D01*
X109037361Y-83025391D01*
X108921247Y-83025391D01*
X109540523Y-83025391D02*
X109540523Y-82212591D01*
X109850161Y-82212591D01*
X109927571Y-82251296D01*
X109966276Y-82290000D01*
X110004980Y-82367410D01*
X110004980Y-82483524D01*
X109966276Y-82560934D01*
X109927571Y-82599638D01*
X109850161Y-82638343D01*
X109540523Y-82638343D01*
X110508142Y-82212591D02*
X110662961Y-82212591D01*
X110740371Y-82251296D01*
X110817780Y-82328705D01*
X110856485Y-82483524D01*
X110856485Y-82754457D01*
X110817780Y-82909276D01*
X110740371Y-82986686D01*
X110662961Y-83025391D01*
X110508142Y-83025391D01*
X110430733Y-82986686D01*
X110353323Y-82909276D01*
X110314619Y-82754457D01*
X110314619Y-82483524D01*
X110353323Y-82328705D01*
X110430733Y-82251296D01*
X110508142Y-82212591D01*
X111166123Y-82986686D02*
X111282238Y-83025391D01*
X111475761Y-83025391D01*
X111553171Y-82986686D01*
X111591876Y-82947981D01*
X111630580Y-82870572D01*
X111630580Y-82793162D01*
X111591876Y-82715753D01*
X111553171Y-82677048D01*
X111475761Y-82638343D01*
X111320942Y-82599638D01*
X111243533Y-82560934D01*
X111204828Y-82522229D01*
X111166123Y-82444819D01*
X111166123Y-82367410D01*
X111204828Y-82290000D01*
X111243533Y-82251296D01*
X111320942Y-82212591D01*
X111514466Y-82212591D01*
X111630580Y-82251296D01*
X111862809Y-82212591D02*
X112327266Y-82212591D01*
X112095038Y-83025391D02*
X112095038Y-82212591D01*
X113217476Y-83025391D02*
X113217476Y-82212591D01*
X113565819Y-82290000D02*
X113604523Y-82251296D01*
X113681933Y-82212591D01*
X113875457Y-82212591D01*
X113952866Y-82251296D01*
X113991571Y-82290000D01*
X114030276Y-82367410D01*
X114030276Y-82444819D01*
X113991571Y-82560934D01*
X113527114Y-83025391D01*
X114030276Y-83025391D01*
X114843076Y-82947981D02*
X114804371Y-82986686D01*
X114688257Y-83025391D01*
X114610847Y-83025391D01*
X114494733Y-82986686D01*
X114417323Y-82909276D01*
X114378619Y-82831867D01*
X114339914Y-82677048D01*
X114339914Y-82560934D01*
X114378619Y-82406115D01*
X114417323Y-82328705D01*
X114494733Y-82251296D01*
X114610847Y-82212591D01*
X114688257Y-82212591D01*
X114804371Y-82251296D01*
X114843076Y-82290000D01*
X116275152Y-83025391D02*
X116004219Y-82638343D01*
X115810695Y-83025391D02*
X115810695Y-82212591D01*
X116120333Y-82212591D01*
X116197742Y-82251296D01*
X116236447Y-82290000D01*
X116275152Y-82367410D01*
X116275152Y-82483524D01*
X116236447Y-82560934D01*
X116197742Y-82599638D01*
X116120333Y-82638343D01*
X115810695Y-82638343D01*
X116933133Y-82986686D02*
X116855723Y-83025391D01*
X116700904Y-83025391D01*
X116623495Y-82986686D01*
X116584790Y-82909276D01*
X116584790Y-82599638D01*
X116623495Y-82522229D01*
X116700904Y-82483524D01*
X116855723Y-82483524D01*
X116933133Y-82522229D01*
X116971838Y-82599638D01*
X116971838Y-82677048D01*
X116584790Y-82754457D01*
X117320180Y-83025391D02*
X117320180Y-82483524D01*
X117320180Y-82560934D02*
X117358885Y-82522229D01*
X117436295Y-82483524D01*
X117552409Y-82483524D01*
X117629819Y-82522229D01*
X117668523Y-82599638D01*
X117668523Y-83025391D01*
X117668523Y-82599638D02*
X117707228Y-82522229D01*
X117784638Y-82483524D01*
X117900752Y-82483524D01*
X117978161Y-82522229D01*
X118016866Y-82599638D01*
X118016866Y-83025391D01*
X118520028Y-83025391D02*
X118442619Y-82986686D01*
X118403914Y-82947981D01*
X118365209Y-82870572D01*
X118365209Y-82638343D01*
X118403914Y-82560934D01*
X118442619Y-82522229D01*
X118520028Y-82483524D01*
X118636142Y-82483524D01*
X118713552Y-82522229D01*
X118752257Y-82560934D01*
X118790961Y-82638343D01*
X118790961Y-82870572D01*
X118752257Y-82947981D01*
X118713552Y-82986686D01*
X118636142Y-83025391D01*
X118520028Y-83025391D01*
X119023190Y-82483524D02*
X119332828Y-82483524D01*
X119139304Y-82212591D02*
X119139304Y-82909276D01*
X119178009Y-82986686D01*
X119255419Y-83025391D01*
X119332828Y-83025391D01*
X119913400Y-82986686D02*
X119835990Y-83025391D01*
X119681171Y-83025391D01*
X119603761Y-82986686D01*
X119565057Y-82909276D01*
X119565057Y-82599638D01*
X119603761Y-82522229D01*
X119681171Y-82483524D01*
X119835990Y-82483524D01*
X119913400Y-82522229D01*
X119952104Y-82599638D01*
X119952104Y-82677048D01*
X119565057Y-82754457D01*
X107179533Y-83792132D02*
X107373057Y-84333999D01*
X107566580Y-83792132D01*
X108031038Y-83521199D02*
X108108447Y-83521199D01*
X108185857Y-83559904D01*
X108224561Y-83598608D01*
X108263266Y-83676018D01*
X108301971Y-83830837D01*
X108301971Y-84024361D01*
X108263266Y-84179180D01*
X108224561Y-84256589D01*
X108185857Y-84295294D01*
X108108447Y-84333999D01*
X108031038Y-84333999D01*
X107953628Y-84295294D01*
X107914923Y-84256589D01*
X107876219Y-84179180D01*
X107837514Y-84024361D01*
X107837514Y-83830837D01*
X107876219Y-83676018D01*
X107914923Y-83598608D01*
X107953628Y-83559904D01*
X108031038Y-83521199D01*
X108650314Y-84256589D02*
X108689019Y-84295294D01*
X108650314Y-84333999D01*
X108611609Y-84295294D01*
X108650314Y-84256589D01*
X108650314Y-84333999D01*
X109463114Y-84333999D02*
X108998657Y-84333999D01*
X109230885Y-84333999D02*
X109230885Y-83521199D01*
X109153476Y-83637313D01*
X109076066Y-83714723D01*
X108998657Y-83753427D01*
X110430733Y-84024361D02*
X111050009Y-84024361D01*
X112017628Y-83598608D02*
X112056333Y-83559904D01*
X112133742Y-83521199D01*
X112327266Y-83521199D01*
X112404676Y-83559904D01*
X112443380Y-83598608D01*
X112482085Y-83676018D01*
X112482085Y-83753427D01*
X112443380Y-83869542D01*
X111978923Y-84333999D01*
X112482085Y-84333999D01*
X112985247Y-83521199D02*
X113062657Y-83521199D01*
X113140066Y-83559904D01*
X113178771Y-83598608D01*
X113217476Y-83676018D01*
X113256180Y-83830837D01*
X113256180Y-84024361D01*
X113217476Y-84179180D01*
X113178771Y-84256589D01*
X113140066Y-84295294D01*
X113062657Y-84333999D01*
X112985247Y-84333999D01*
X112907838Y-84295294D01*
X112869133Y-84256589D01*
X112830428Y-84179180D01*
X112791723Y-84024361D01*
X112791723Y-83830837D01*
X112830428Y-83676018D01*
X112869133Y-83598608D01*
X112907838Y-83559904D01*
X112985247Y-83521199D01*
X113565819Y-83598608D02*
X113604523Y-83559904D01*
X113681933Y-83521199D01*
X113875457Y-83521199D01*
X113952866Y-83559904D01*
X113991571Y-83598608D01*
X114030276Y-83676018D01*
X114030276Y-83753427D01*
X113991571Y-83869542D01*
X113527114Y-84333999D01*
X114030276Y-84333999D01*
X114301209Y-83521199D02*
X114804371Y-83521199D01*
X114533438Y-83830837D01*
X114649552Y-83830837D01*
X114726961Y-83869542D01*
X114765666Y-83908246D01*
X114804371Y-83985656D01*
X114804371Y-84179180D01*
X114765666Y-84256589D01*
X114726961Y-84295294D01*
X114649552Y-84333999D01*
X114417323Y-84333999D01*
X114339914Y-84295294D01*
X114301209Y-84256589D01*
X115733285Y-83482494D02*
X115036600Y-84527523D01*
X116159038Y-83521199D02*
X116236447Y-83521199D01*
X116313857Y-83559904D01*
X116352561Y-83598608D01*
X116391266Y-83676018D01*
X116429971Y-83830837D01*
X116429971Y-84024361D01*
X116391266Y-84179180D01*
X116352561Y-84256589D01*
X116313857Y-84295294D01*
X116236447Y-84333999D01*
X116159038Y-84333999D01*
X116081628Y-84295294D01*
X116042923Y-84256589D01*
X116004219Y-84179180D01*
X115965514Y-84024361D01*
X115965514Y-83830837D01*
X116004219Y-83676018D01*
X116042923Y-83598608D01*
X116081628Y-83559904D01*
X116159038Y-83521199D01*
X117204066Y-84333999D02*
X116739609Y-84333999D01*
X116971838Y-84333999D02*
X116971838Y-83521199D01*
X116894428Y-83637313D01*
X116817019Y-83714723D01*
X116739609Y-83753427D01*
X118132980Y-83482494D02*
X117436295Y-84527523D01*
X118558733Y-83521199D02*
X118636142Y-83521199D01*
X118713552Y-83559904D01*
X118752257Y-83598608D01*
X118790961Y-83676018D01*
X118829666Y-83830837D01*
X118829666Y-84024361D01*
X118790961Y-84179180D01*
X118752257Y-84256589D01*
X118713552Y-84295294D01*
X118636142Y-84333999D01*
X118558733Y-84333999D01*
X118481323Y-84295294D01*
X118442619Y-84256589D01*
X118403914Y-84179180D01*
X118365209Y-84024361D01*
X118365209Y-83830837D01*
X118403914Y-83676018D01*
X118442619Y-83598608D01*
X118481323Y-83559904D01*
X118558733Y-83521199D01*
X119603761Y-84333999D02*
X119139304Y-84333999D01*
X119371533Y-84333999D02*
X119371533Y-83521199D01*
X119294123Y-83637313D01*
X119216714Y-83714723D01*
X119139304Y-83753427D01*
D11*
X124284619Y-68646523D02*
X124284619Y-69674619D01*
X124345095Y-69795571D01*
X124405571Y-69856047D01*
X124526523Y-69916523D01*
X124768428Y-69916523D01*
X124889380Y-69856047D01*
X124949857Y-69795571D01*
X125010333Y-69674619D01*
X125010333Y-68646523D01*
X125615095Y-69069857D02*
X125615095Y-70339857D01*
X125615095Y-69130333D02*
X125736047Y-69069857D01*
X125977952Y-69069857D01*
X126098904Y-69130333D01*
X126159380Y-69190809D01*
X126219857Y-69311761D01*
X126219857Y-69674619D01*
X126159380Y-69795571D01*
X126098904Y-69856047D01*
X125977952Y-69916523D01*
X125736047Y-69916523D01*
X125615095Y-69856047D01*
D10*
X141014800Y-56477504D02*
X140976096Y-56554914D01*
X140898686Y-56632323D01*
X140782572Y-56748438D01*
X140743867Y-56825847D01*
X140743867Y-56903257D01*
X140937391Y-56864552D02*
X140898686Y-56941961D01*
X140821276Y-57019371D01*
X140666457Y-57058076D01*
X140395524Y-57058076D01*
X140240705Y-57019371D01*
X140163296Y-56941961D01*
X140124591Y-56864552D01*
X140124591Y-56709733D01*
X140163296Y-56632323D01*
X140240705Y-56554914D01*
X140395524Y-56516209D01*
X140666457Y-56516209D01*
X140821276Y-56554914D01*
X140898686Y-56632323D01*
X140937391Y-56709733D01*
X140937391Y-56864552D01*
X140395524Y-56245276D02*
X140937391Y-56090457D01*
X140550343Y-55935638D01*
X140937391Y-55780819D01*
X140395524Y-55626000D01*
X140937391Y-55316361D02*
X140395524Y-55316361D01*
X140124591Y-55316361D02*
X140163296Y-55355066D01*
X140202000Y-55316361D01*
X140163296Y-55277657D01*
X140124591Y-55316361D01*
X140202000Y-55316361D01*
X140937391Y-54929314D02*
X140395524Y-54929314D01*
X140124591Y-54929314D02*
X140163296Y-54968019D01*
X140202000Y-54929314D01*
X140163296Y-54890609D01*
X140124591Y-54929314D01*
X140202000Y-54929314D01*
X140898686Y-54193923D02*
X140937391Y-54271333D01*
X140937391Y-54426152D01*
X140898686Y-54503561D01*
X140859981Y-54542266D01*
X140782572Y-54580971D01*
X140550343Y-54580971D01*
X140472934Y-54542266D01*
X140434229Y-54503561D01*
X140395524Y-54426152D01*
X140395524Y-54271333D01*
X140434229Y-54193923D01*
X142555637Y-58896552D02*
X142516932Y-58935257D01*
X142400818Y-59012666D01*
X142323408Y-59051371D01*
X142207294Y-59090076D01*
X142013770Y-59128780D01*
X141858951Y-59128780D01*
X141665427Y-59090076D01*
X141549313Y-59051371D01*
X141471904Y-59012666D01*
X141355789Y-58935257D01*
X141317084Y-58896552D01*
X142207294Y-58625619D02*
X142245999Y-58509504D01*
X142245999Y-58315980D01*
X142207294Y-58238571D01*
X142168589Y-58199866D01*
X142091180Y-58161161D01*
X142013770Y-58161161D01*
X141936361Y-58199866D01*
X141897656Y-58238571D01*
X141858951Y-58315980D01*
X141820246Y-58470800D01*
X141781542Y-58548209D01*
X141742837Y-58586914D01*
X141665427Y-58625619D01*
X141588018Y-58625619D01*
X141510608Y-58586914D01*
X141471904Y-58548209D01*
X141433199Y-58470800D01*
X141433199Y-58277276D01*
X141471904Y-58161161D01*
X141704132Y-57928933D02*
X141704132Y-57619295D01*
X141433199Y-57812819D02*
X142129884Y-57812819D01*
X142207294Y-57774114D01*
X142245999Y-57696704D01*
X142245999Y-57619295D01*
X142207294Y-57038723D02*
X142245999Y-57116133D01*
X142245999Y-57270952D01*
X142207294Y-57348361D01*
X142129884Y-57387066D01*
X141820246Y-57387066D01*
X141742837Y-57348361D01*
X141704132Y-57270952D01*
X141704132Y-57116133D01*
X141742837Y-57038723D01*
X141820246Y-57000019D01*
X141897656Y-57000019D01*
X141975065Y-57387066D01*
X142245999Y-56651676D02*
X141704132Y-56651676D01*
X141781542Y-56651676D02*
X141742837Y-56612971D01*
X141704132Y-56535561D01*
X141704132Y-56419447D01*
X141742837Y-56342038D01*
X141820246Y-56303333D01*
X142245999Y-56303333D01*
X141820246Y-56303333D02*
X141742837Y-56264628D01*
X141704132Y-56187219D01*
X141704132Y-56071104D01*
X141742837Y-55993695D01*
X141820246Y-55954990D01*
X142245999Y-55954990D01*
X142245999Y-55567942D02*
X141704132Y-55567942D01*
X141781542Y-55567942D02*
X141742837Y-55529238D01*
X141704132Y-55451828D01*
X141704132Y-55335714D01*
X141742837Y-55258304D01*
X141820246Y-55219600D01*
X142245999Y-55219600D01*
X141820246Y-55219600D02*
X141742837Y-55180895D01*
X141704132Y-55103485D01*
X141704132Y-54987371D01*
X141742837Y-54909961D01*
X141820246Y-54871257D01*
X142245999Y-54871257D01*
X142245999Y-54135866D02*
X141820246Y-54135866D01*
X141742837Y-54174571D01*
X141704132Y-54251980D01*
X141704132Y-54406800D01*
X141742837Y-54484209D01*
X142207294Y-54135866D02*
X142245999Y-54213276D01*
X142245999Y-54406800D01*
X142207294Y-54484209D01*
X142129884Y-54522914D01*
X142052475Y-54522914D01*
X141975065Y-54484209D01*
X141936361Y-54406800D01*
X141936361Y-54213276D01*
X141897656Y-54135866D01*
X142323408Y-53206952D02*
X142284704Y-53284361D01*
X142207294Y-53361771D01*
X142091180Y-53477885D01*
X142052475Y-53555295D01*
X142052475Y-53632704D01*
X142245999Y-53594000D02*
X142207294Y-53671409D01*
X142129884Y-53748819D01*
X141975065Y-53787523D01*
X141704132Y-53787523D01*
X141549313Y-53748819D01*
X141471904Y-53671409D01*
X141433199Y-53594000D01*
X141433199Y-53439180D01*
X141471904Y-53361771D01*
X141549313Y-53284361D01*
X141704132Y-53245657D01*
X141975065Y-53245657D01*
X142129884Y-53284361D01*
X142207294Y-53361771D01*
X142245999Y-53439180D01*
X142245999Y-53594000D01*
X141433199Y-53013428D02*
X141433199Y-52548971D01*
X142245999Y-52781200D02*
X141433199Y-52781200D01*
X142555637Y-52355447D02*
X142516932Y-52316742D01*
X142400818Y-52239333D01*
X142323408Y-52200628D01*
X142207294Y-52161923D01*
X142013770Y-52123219D01*
X141858951Y-52123219D01*
X141665427Y-52161923D01*
X141549313Y-52200628D01*
X141471904Y-52239333D01*
X141355789Y-52316742D01*
X141317084Y-52355447D01*
D11*
X134722809Y-69856047D02*
X134904238Y-69916523D01*
X135206619Y-69916523D01*
X135327571Y-69856047D01*
X135388047Y-69795571D01*
X135448523Y-69674619D01*
X135448523Y-69553666D01*
X135388047Y-69432714D01*
X135327571Y-69372238D01*
X135206619Y-69311761D01*
X134964714Y-69251285D01*
X134843761Y-69190809D01*
X134783285Y-69130333D01*
X134722809Y-69009380D01*
X134722809Y-68888428D01*
X134783285Y-68767476D01*
X134843761Y-68707000D01*
X134964714Y-68646523D01*
X135267095Y-68646523D01*
X135448523Y-68707000D01*
X136476619Y-69856047D02*
X136355666Y-69916523D01*
X136113761Y-69916523D01*
X135992809Y-69856047D01*
X135932333Y-69735095D01*
X135932333Y-69251285D01*
X135992809Y-69130333D01*
X136113761Y-69069857D01*
X136355666Y-69069857D01*
X136476619Y-69130333D01*
X136537095Y-69251285D01*
X136537095Y-69372238D01*
X135932333Y-69493190D01*
X137262809Y-69916523D02*
X137141857Y-69856047D01*
X137081380Y-69735095D01*
X137081380Y-68646523D01*
X138230428Y-69856047D02*
X138109476Y-69916523D01*
X137867571Y-69916523D01*
X137746619Y-69856047D01*
X137686142Y-69735095D01*
X137686142Y-69251285D01*
X137746619Y-69130333D01*
X137867571Y-69069857D01*
X138109476Y-69069857D01*
X138230428Y-69130333D01*
X138290904Y-69251285D01*
X138290904Y-69372238D01*
X137686142Y-69493190D01*
X139379476Y-69856047D02*
X139258523Y-69916523D01*
X139016619Y-69916523D01*
X138895666Y-69856047D01*
X138835190Y-69795571D01*
X138774714Y-69674619D01*
X138774714Y-69311761D01*
X138835190Y-69190809D01*
X138895666Y-69130333D01*
X139016619Y-69069857D01*
X139258523Y-69069857D01*
X139379476Y-69130333D01*
X139742333Y-69069857D02*
X140226142Y-69069857D01*
X139923761Y-68646523D02*
X139923761Y-69735095D01*
X139984238Y-69856047D01*
X140105190Y-69916523D01*
X140226142Y-69916523D01*
X123075095Y-81854523D02*
X123075095Y-80584523D01*
X123377476Y-80584523D01*
X123558904Y-80645000D01*
X123679857Y-80765952D01*
X123740333Y-80886904D01*
X123800809Y-81128809D01*
X123800809Y-81310238D01*
X123740333Y-81552142D01*
X123679857Y-81673095D01*
X123558904Y-81794047D01*
X123377476Y-81854523D01*
X123075095Y-81854523D01*
X124526523Y-81854523D02*
X124405571Y-81794047D01*
X124345095Y-81733571D01*
X124284619Y-81612619D01*
X124284619Y-81249761D01*
X124345095Y-81128809D01*
X124405571Y-81068333D01*
X124526523Y-81007857D01*
X124707952Y-81007857D01*
X124828904Y-81068333D01*
X124889380Y-81128809D01*
X124949857Y-81249761D01*
X124949857Y-81612619D01*
X124889380Y-81733571D01*
X124828904Y-81794047D01*
X124707952Y-81854523D01*
X124526523Y-81854523D01*
X125373190Y-81007857D02*
X125615095Y-81854523D01*
X125857000Y-81249761D01*
X126098904Y-81854523D01*
X126340809Y-81007857D01*
X126824619Y-81007857D02*
X126824619Y-81854523D01*
X126824619Y-81128809D02*
X126885095Y-81068333D01*
X127006047Y-81007857D01*
X127187476Y-81007857D01*
X127308428Y-81068333D01*
X127368904Y-81189285D01*
X127368904Y-81854523D01*
D12*
%TO.C,H3*%
X101854095Y-38679380D02*
X101854095Y-37679380D01*
X101854095Y-38155571D02*
X102425523Y-38155571D01*
X102425523Y-38679380D02*
X102425523Y-37679380D01*
X102806476Y-37679380D02*
X103425523Y-37679380D01*
X103092190Y-38060333D01*
X103235047Y-38060333D01*
X103330285Y-38107952D01*
X103377904Y-38155571D01*
X103425523Y-38250809D01*
X103425523Y-38488904D01*
X103377904Y-38584142D01*
X103330285Y-38631761D01*
X103235047Y-38679380D01*
X102949333Y-38679380D01*
X102854095Y-38631761D01*
X102806476Y-38584142D01*
%TO.C,SW3*%
X136075666Y-60416761D02*
X136218523Y-60464380D01*
X136456619Y-60464380D01*
X136551857Y-60416761D01*
X136599476Y-60369142D01*
X136647095Y-60273904D01*
X136647095Y-60178666D01*
X136599476Y-60083428D01*
X136551857Y-60035809D01*
X136456619Y-59988190D01*
X136266142Y-59940571D01*
X136170904Y-59892952D01*
X136123285Y-59845333D01*
X136075666Y-59750095D01*
X136075666Y-59654857D01*
X136123285Y-59559619D01*
X136170904Y-59512000D01*
X136266142Y-59464380D01*
X136504238Y-59464380D01*
X136647095Y-59512000D01*
X136980428Y-59464380D02*
X137218523Y-60464380D01*
X137409000Y-59750095D01*
X137599476Y-60464380D01*
X137837571Y-59464380D01*
X138123285Y-59464380D02*
X138742333Y-59464380D01*
X138409000Y-59845333D01*
X138551857Y-59845333D01*
X138647095Y-59892952D01*
X138694714Y-59940571D01*
X138742333Y-60035809D01*
X138742333Y-60273904D01*
X138694714Y-60369142D01*
X138647095Y-60416761D01*
X138551857Y-60464380D01*
X138266142Y-60464380D01*
X138170904Y-60416761D01*
X138123285Y-60369142D01*
%TO.C,SW4*%
X123883666Y-72100761D02*
X124026523Y-72148380D01*
X124264619Y-72148380D01*
X124359857Y-72100761D01*
X124407476Y-72053142D01*
X124455095Y-71957904D01*
X124455095Y-71862666D01*
X124407476Y-71767428D01*
X124359857Y-71719809D01*
X124264619Y-71672190D01*
X124074142Y-71624571D01*
X123978904Y-71576952D01*
X123931285Y-71529333D01*
X123883666Y-71434095D01*
X123883666Y-71338857D01*
X123931285Y-71243619D01*
X123978904Y-71196000D01*
X124074142Y-71148380D01*
X124312238Y-71148380D01*
X124455095Y-71196000D01*
X124788428Y-71148380D02*
X125026523Y-72148380D01*
X125217000Y-71434095D01*
X125407476Y-72148380D01*
X125645571Y-71148380D01*
X126455095Y-71481714D02*
X126455095Y-72148380D01*
X126217000Y-71100761D02*
X125978904Y-71815047D01*
X126597952Y-71815047D01*
%TO.C,H1*%
X101854095Y-83637380D02*
X101854095Y-82637380D01*
X101854095Y-83113571D02*
X102425523Y-83113571D01*
X102425523Y-83637380D02*
X102425523Y-82637380D01*
X103425523Y-83637380D02*
X102854095Y-83637380D01*
X103139809Y-83637380D02*
X103139809Y-82637380D01*
X103044571Y-82780238D01*
X102949333Y-82875476D01*
X102854095Y-82923095D01*
%TO.C,J4*%
X146478666Y-60158380D02*
X146478666Y-60872666D01*
X146431047Y-61015523D01*
X146335809Y-61110761D01*
X146192952Y-61158380D01*
X146097714Y-61158380D01*
X147383428Y-60491714D02*
X147383428Y-61158380D01*
X147145333Y-60110761D02*
X146907238Y-60825047D01*
X147526285Y-60825047D01*
%TO.C,H2*%
X146812095Y-83510380D02*
X146812095Y-82510380D01*
X146812095Y-82986571D02*
X147383523Y-82986571D01*
X147383523Y-83510380D02*
X147383523Y-82510380D01*
X147812095Y-82605619D02*
X147859714Y-82558000D01*
X147954952Y-82510380D01*
X148193047Y-82510380D01*
X148288285Y-82558000D01*
X148335904Y-82605619D01*
X148383523Y-82700857D01*
X148383523Y-82796095D01*
X148335904Y-82938952D01*
X147764476Y-83510380D01*
X148383523Y-83510380D01*
%TO.C,SW2*%
X111696666Y-60416761D02*
X111839523Y-60464380D01*
X112077619Y-60464380D01*
X112172857Y-60416761D01*
X112220476Y-60369142D01*
X112268095Y-60273904D01*
X112268095Y-60178666D01*
X112220476Y-60083428D01*
X112172857Y-60035809D01*
X112077619Y-59988190D01*
X111887142Y-59940571D01*
X111791904Y-59892952D01*
X111744285Y-59845333D01*
X111696666Y-59750095D01*
X111696666Y-59654857D01*
X111744285Y-59559619D01*
X111791904Y-59512000D01*
X111887142Y-59464380D01*
X112125238Y-59464380D01*
X112268095Y-59512000D01*
X112601428Y-59464380D02*
X112839523Y-60464380D01*
X113030000Y-59750095D01*
X113220476Y-60464380D01*
X113458571Y-59464380D01*
X113791904Y-59559619D02*
X113839523Y-59512000D01*
X113934761Y-59464380D01*
X114172857Y-59464380D01*
X114268095Y-59512000D01*
X114315714Y-59559619D01*
X114363333Y-59654857D01*
X114363333Y-59750095D01*
X114315714Y-59892952D01*
X113744285Y-60464380D01*
X114363333Y-60464380D01*
%TO.C,SW1*%
X123883666Y-60416761D02*
X124026523Y-60464380D01*
X124264619Y-60464380D01*
X124359857Y-60416761D01*
X124407476Y-60369142D01*
X124455095Y-60273904D01*
X124455095Y-60178666D01*
X124407476Y-60083428D01*
X124359857Y-60035809D01*
X124264619Y-59988190D01*
X124074142Y-59940571D01*
X123978904Y-59892952D01*
X123931285Y-59845333D01*
X123883666Y-59750095D01*
X123883666Y-59654857D01*
X123931285Y-59559619D01*
X123978904Y-59512000D01*
X124074142Y-59464380D01*
X124312238Y-59464380D01*
X124455095Y-59512000D01*
X124788428Y-59464380D02*
X125026523Y-60464380D01*
X125217000Y-59750095D01*
X125407476Y-60464380D01*
X125645571Y-59464380D01*
X126550333Y-60464380D02*
X125978904Y-60464380D01*
X126264619Y-60464380D02*
X126264619Y-59464380D01*
X126169380Y-59607238D01*
X126074142Y-59702476D01*
X125978904Y-59750095D01*
%TO.C,J3*%
X136387380Y-53160333D02*
X137101666Y-53160333D01*
X137244523Y-53207952D01*
X137339761Y-53303190D01*
X137387380Y-53446047D01*
X137387380Y-53541285D01*
X136387380Y-52779380D02*
X136387380Y-52160333D01*
X136768333Y-52493666D01*
X136768333Y-52350809D01*
X136815952Y-52255571D01*
X136863571Y-52207952D01*
X136958809Y-52160333D01*
X137196904Y-52160333D01*
X137292142Y-52207952D01*
X137339761Y-52255571D01*
X137387380Y-52350809D01*
X137387380Y-52636523D01*
X137339761Y-52731761D01*
X137292142Y-52779380D01*
%TO.C,H4*%
X146812095Y-38552380D02*
X146812095Y-37552380D01*
X146812095Y-38028571D02*
X147383523Y-38028571D01*
X147383523Y-38552380D02*
X147383523Y-37552380D01*
X148288285Y-37885714D02*
X148288285Y-38552380D01*
X148050190Y-37504761D02*
X147812095Y-38219047D01*
X148431142Y-38219047D01*
%TO.C,J2*%
X143938666Y-39286380D02*
X143938666Y-40000666D01*
X143891047Y-40143523D01*
X143795809Y-40238761D01*
X143652952Y-40286380D01*
X143557714Y-40286380D01*
X144367238Y-39381619D02*
X144414857Y-39334000D01*
X144510095Y-39286380D01*
X144748190Y-39286380D01*
X144843428Y-39334000D01*
X144891047Y-39381619D01*
X144938666Y-39476857D01*
X144938666Y-39572095D01*
X144891047Y-39714952D01*
X144319619Y-40286380D01*
X144938666Y-40286380D01*
D13*
%TO.C,G\u002A\u002A\u002A*%
X108585000Y-78304571D02*
X108512428Y-78449714D01*
X108512428Y-78667428D01*
X108585000Y-78885142D01*
X108730142Y-79030285D01*
X108875285Y-79102857D01*
X109165571Y-79175428D01*
X109383285Y-79175428D01*
X109673571Y-79102857D01*
X109818714Y-79030285D01*
X109963857Y-78885142D01*
X110036428Y-78667428D01*
X110036428Y-78522285D01*
X109963857Y-78304571D01*
X109891285Y-78232000D01*
X109383285Y-78232000D01*
X109383285Y-78522285D01*
X108512428Y-77361142D02*
X108875285Y-77361142D01*
X108730142Y-77724000D02*
X108875285Y-77361142D01*
X108730142Y-76998285D01*
X109165571Y-77578857D02*
X108875285Y-77361142D01*
X109165571Y-77143428D01*
X108512428Y-76200000D02*
X108875285Y-76200000D01*
X108730142Y-76562857D02*
X108875285Y-76200000D01*
X108730142Y-75837142D01*
X109165571Y-76417714D02*
X108875285Y-76200000D01*
X109165571Y-75982285D01*
X108512428Y-75038857D02*
X108875285Y-75038857D01*
X108730142Y-75401714D02*
X108875285Y-75038857D01*
X108730142Y-74676000D01*
X109165571Y-75256571D02*
X108875285Y-75038857D01*
X109165571Y-74821142D01*
D14*
%TO.C,SW3*%
X139659000Y-61012000D02*
X135159000Y-61012000D01*
X135159000Y-67512000D02*
X139659000Y-67512000D01*
X140909000Y-65012000D02*
X140909000Y-63512000D01*
X133909000Y-63512000D02*
X133909000Y-65012000D01*
%TO.C,SW4*%
X122967000Y-79196000D02*
X127467000Y-79196000D01*
X127467000Y-72696000D02*
X122967000Y-72696000D01*
X128717000Y-76696000D02*
X128717000Y-75196000D01*
X121717000Y-75196000D02*
X121717000Y-76696000D01*
%TO.C,J4*%
X144773000Y-57686000D02*
X143783000Y-57686000D01*
X147273000Y-58736000D02*
X144773000Y-58736000D01*
X147273000Y-52516000D02*
X144773000Y-52516000D01*
X144773000Y-58736000D02*
X144773000Y-57686000D01*
X144773000Y-52516000D02*
X144773000Y-53566000D01*
X149243000Y-57566000D02*
X149243000Y-53686000D01*
%TO.C,SW2*%
X115280000Y-61012000D02*
X110780000Y-61012000D01*
X110780000Y-67512000D02*
X115280000Y-67512000D01*
X116530000Y-65012000D02*
X116530000Y-63512000D01*
X109530000Y-63512000D02*
X109530000Y-65012000D01*
%TO.C,SW1*%
X121717000Y-63512000D02*
X121717000Y-65012000D01*
X127467000Y-61012000D02*
X122967000Y-61012000D01*
X128717000Y-65012000D02*
X128717000Y-63512000D01*
X122967000Y-67512000D02*
X127467000Y-67512000D01*
%TO.C,J3*%
X133335000Y-50227000D02*
X133335000Y-52827000D01*
X135935000Y-52827000D02*
X135935000Y-55427000D01*
X135935000Y-55427000D02*
X128195000Y-55427000D01*
X128195000Y-50227000D02*
X128195000Y-55427000D01*
X135935000Y-50227000D02*
X135935000Y-51557000D01*
X133335000Y-52827000D02*
X135935000Y-52827000D01*
X133335000Y-50227000D02*
X128195000Y-50227000D01*
X134605000Y-50227000D02*
X135935000Y-50227000D01*
%TO.C,J2*%
X142942000Y-43434000D02*
X145602000Y-43434000D01*
X142942000Y-51114000D02*
X145602000Y-51114000D01*
X142942000Y-40834000D02*
X144272000Y-40834000D01*
X142942000Y-42164000D02*
X142942000Y-40834000D01*
X142942000Y-43434000D02*
X142942000Y-51114000D01*
X145602000Y-43434000D02*
X145602000Y-51114000D01*
%TO.C,G\u002A\u002A\u002A*%
G36*
X112643052Y-73284074D02*
G01*
X112692832Y-73277876D01*
X112786750Y-73238140D01*
X112805221Y-73165486D01*
X112824071Y-73091957D01*
X112900258Y-73059460D01*
X113030000Y-73053097D01*
X113177058Y-73062522D01*
X113242052Y-73100616D01*
X113254779Y-73165486D01*
X113294514Y-73259405D01*
X113367168Y-73277876D01*
X113440697Y-73296726D01*
X113473194Y-73372913D01*
X113479557Y-73502655D01*
X113479557Y-73727433D01*
X113142389Y-73727433D01*
X112954074Y-73731534D01*
X112852318Y-73749548D01*
X112811420Y-73790043D01*
X112805221Y-73839823D01*
X112817524Y-73902594D01*
X112871566Y-73936513D01*
X112993051Y-73950146D01*
X113142389Y-73952212D01*
X113330705Y-73956313D01*
X113432460Y-73974327D01*
X113473359Y-74014822D01*
X113479557Y-74064601D01*
X113467255Y-74127373D01*
X113413212Y-74161292D01*
X113291727Y-74174925D01*
X113142389Y-74176991D01*
X112954074Y-74172890D01*
X112852318Y-74154876D01*
X112811420Y-74114381D01*
X112805221Y-74064601D01*
X112765486Y-73970683D01*
X112692832Y-73952212D01*
X112630060Y-73939910D01*
X112596141Y-73885867D01*
X112582509Y-73764382D01*
X112580442Y-73615044D01*
X112584543Y-73426729D01*
X112590998Y-73390265D01*
X112805221Y-73390265D01*
X112824071Y-73463794D01*
X112900258Y-73496291D01*
X113030000Y-73502655D01*
X113177058Y-73493230D01*
X113242052Y-73455136D01*
X113254779Y-73390265D01*
X113235929Y-73316736D01*
X113159742Y-73284239D01*
X113030000Y-73277876D01*
X112882942Y-73287301D01*
X112817947Y-73325394D01*
X112805221Y-73390265D01*
X112590998Y-73390265D01*
X112602557Y-73324973D01*
X112643052Y-73284074D01*
G37*
G36*
X111519159Y-76430977D02*
G01*
X111568938Y-76424778D01*
X111662857Y-76385043D01*
X111681327Y-76312389D01*
X111700177Y-76238860D01*
X111776364Y-76206363D01*
X111906106Y-76200000D01*
X112053165Y-76209425D01*
X112118159Y-76247518D01*
X112130885Y-76312389D01*
X112170621Y-76406308D01*
X112243274Y-76424778D01*
X112316803Y-76443628D01*
X112349301Y-76519815D01*
X112355664Y-76649557D01*
X112355664Y-76874336D01*
X112018496Y-76874336D01*
X111830180Y-76878437D01*
X111728425Y-76896451D01*
X111687526Y-76936946D01*
X111681327Y-76986725D01*
X111693630Y-77049497D01*
X111747672Y-77083416D01*
X111869158Y-77097049D01*
X112018496Y-77099115D01*
X112206811Y-77103216D01*
X112308566Y-77121230D01*
X112349465Y-77161725D01*
X112355664Y-77211504D01*
X112343361Y-77274276D01*
X112289319Y-77308194D01*
X112167834Y-77321827D01*
X112018496Y-77323894D01*
X111830180Y-77319793D01*
X111728425Y-77301778D01*
X111687526Y-77261283D01*
X111681327Y-77211504D01*
X111641592Y-77117586D01*
X111568938Y-77099115D01*
X111506166Y-77086812D01*
X111472248Y-77032770D01*
X111458615Y-76911285D01*
X111456549Y-76761947D01*
X111460649Y-76573631D01*
X111467105Y-76537168D01*
X111681327Y-76537168D01*
X111700177Y-76610697D01*
X111776364Y-76643194D01*
X111906106Y-76649557D01*
X112053165Y-76640132D01*
X112118159Y-76602039D01*
X112130885Y-76537168D01*
X112112035Y-76463639D01*
X112035848Y-76431142D01*
X111906106Y-76424778D01*
X111759048Y-76434203D01*
X111694054Y-76472297D01*
X111681327Y-76537168D01*
X111467105Y-76537168D01*
X111478664Y-76471876D01*
X111519159Y-76430977D01*
G37*
G36*
X111519159Y-74857526D02*
G01*
X111568938Y-74851327D01*
X111662857Y-74811591D01*
X111681327Y-74738938D01*
X111700177Y-74665409D01*
X111776364Y-74632911D01*
X111906106Y-74626548D01*
X112053165Y-74635973D01*
X112118159Y-74674067D01*
X112130885Y-74738938D01*
X112170621Y-74832856D01*
X112243274Y-74851327D01*
X112316803Y-74870177D01*
X112349301Y-74946364D01*
X112355664Y-75076106D01*
X112355664Y-75300885D01*
X112018496Y-75300885D01*
X111830180Y-75304985D01*
X111728425Y-75323000D01*
X111687526Y-75363495D01*
X111681327Y-75413274D01*
X111693630Y-75476046D01*
X111747672Y-75509964D01*
X111869158Y-75523597D01*
X112018496Y-75525663D01*
X112206811Y-75529764D01*
X112308566Y-75547778D01*
X112349465Y-75588273D01*
X112355664Y-75638053D01*
X112343361Y-75700825D01*
X112289319Y-75734743D01*
X112167834Y-75748376D01*
X112018496Y-75750442D01*
X111830180Y-75746341D01*
X111728425Y-75728327D01*
X111687526Y-75687832D01*
X111681327Y-75638053D01*
X111641592Y-75544134D01*
X111568938Y-75525663D01*
X111506166Y-75513361D01*
X111472248Y-75459318D01*
X111458615Y-75337833D01*
X111456549Y-75188495D01*
X111460649Y-75000180D01*
X111467104Y-74963717D01*
X111681327Y-74963717D01*
X111700177Y-75037246D01*
X111776364Y-75069743D01*
X111906106Y-75076106D01*
X112053165Y-75066681D01*
X112118159Y-75028587D01*
X112130885Y-74963717D01*
X112112035Y-74890187D01*
X112035848Y-74857690D01*
X111906106Y-74851327D01*
X111759048Y-74860752D01*
X111694054Y-74898846D01*
X111681327Y-74963717D01*
X111467104Y-74963717D01*
X111478664Y-74898424D01*
X111519159Y-74857526D01*
G37*
G36*
X114827440Y-77101461D02*
G01*
X114961682Y-77112268D01*
X115028784Y-77137188D01*
X115051355Y-77181872D01*
X115053009Y-77211504D01*
X115043623Y-77267501D01*
X115000395Y-77301062D01*
X114900716Y-77317837D01*
X114721981Y-77323480D01*
X114603451Y-77323894D01*
X114379462Y-77321547D01*
X114245220Y-77310740D01*
X114178118Y-77285820D01*
X114155548Y-77241136D01*
X114153894Y-77211504D01*
X114163279Y-77155507D01*
X114206508Y-77121946D01*
X114306186Y-77105171D01*
X114484922Y-77099528D01*
X114603451Y-77099115D01*
X114827440Y-77101461D01*
G37*
G36*
X108099268Y-78676963D02*
G01*
X108094292Y-78356068D01*
X108090534Y-77958907D01*
X108087854Y-77478292D01*
X108086110Y-76907040D01*
X108085161Y-76237966D01*
X108084867Y-75463883D01*
X108084867Y-75441371D01*
X108084884Y-75188495D01*
X109433540Y-75188495D01*
X109433646Y-75794104D01*
X109434240Y-76296888D01*
X109435739Y-76706410D01*
X109438559Y-77032235D01*
X109443115Y-77283927D01*
X109449822Y-77471049D01*
X109459098Y-77603167D01*
X109471358Y-77689844D01*
X109487017Y-77740644D01*
X109506491Y-77765131D01*
X109530197Y-77772869D01*
X109545929Y-77773451D01*
X109639848Y-77813187D01*
X109658319Y-77885840D01*
X109660353Y-77909146D01*
X109672040Y-77928985D01*
X109701755Y-77945636D01*
X109757873Y-77959378D01*
X109848770Y-77970491D01*
X109982822Y-77979253D01*
X110168402Y-77985944D01*
X110413888Y-77990843D01*
X110727654Y-77994229D01*
X111118076Y-77996381D01*
X111593529Y-77997579D01*
X112162388Y-77998101D01*
X112833030Y-77998227D01*
X113030000Y-77998230D01*
X113729180Y-77998162D01*
X114324345Y-77997772D01*
X114823872Y-77996782D01*
X115236136Y-77994911D01*
X115569513Y-77991881D01*
X115832376Y-77987413D01*
X116033103Y-77981227D01*
X116180068Y-77973044D01*
X116281647Y-77962585D01*
X116346216Y-77949571D01*
X116382148Y-77933723D01*
X116397821Y-77914761D01*
X116401610Y-77892406D01*
X116401681Y-77885840D01*
X116441417Y-77791922D01*
X116514071Y-77773451D01*
X116540402Y-77771018D01*
X116562262Y-77757344D01*
X116580067Y-77722864D01*
X116594233Y-77658015D01*
X116605176Y-77553232D01*
X116613312Y-77398951D01*
X116619056Y-77185609D01*
X116622825Y-76903640D01*
X116625034Y-76543482D01*
X116626098Y-76095570D01*
X116626435Y-75550340D01*
X116626460Y-75188495D01*
X116626354Y-74582886D01*
X116625760Y-74080103D01*
X116624261Y-73670581D01*
X116621441Y-73344756D01*
X116616885Y-73093064D01*
X116610178Y-72905941D01*
X116600902Y-72773823D01*
X116588642Y-72687147D01*
X116572983Y-72636347D01*
X116553509Y-72611860D01*
X116529803Y-72604122D01*
X116514071Y-72603540D01*
X116420152Y-72563804D01*
X116401681Y-72491150D01*
X116399647Y-72467844D01*
X116387960Y-72448005D01*
X116358245Y-72431354D01*
X116302127Y-72417612D01*
X116211229Y-72406500D01*
X116077178Y-72397738D01*
X115891598Y-72391047D01*
X115646112Y-72386148D01*
X115332346Y-72382762D01*
X114941924Y-72380610D01*
X114466471Y-72379412D01*
X113897612Y-72378889D01*
X113226970Y-72378763D01*
X113030000Y-72378761D01*
X112330820Y-72378829D01*
X111735655Y-72379218D01*
X111236127Y-72380209D01*
X110823864Y-72382079D01*
X110490487Y-72385109D01*
X110227624Y-72389578D01*
X110026897Y-72395764D01*
X109879932Y-72403946D01*
X109778353Y-72414405D01*
X109713784Y-72427419D01*
X109677851Y-72443268D01*
X109662179Y-72462230D01*
X109658390Y-72484584D01*
X109658319Y-72491150D01*
X109618583Y-72585069D01*
X109545929Y-72603540D01*
X109519598Y-72605972D01*
X109497738Y-72619646D01*
X109479933Y-72654126D01*
X109465767Y-72718976D01*
X109454823Y-72823759D01*
X109446688Y-72978040D01*
X109440943Y-73191382D01*
X109437175Y-73473350D01*
X109434966Y-73833509D01*
X109433902Y-74281421D01*
X109433565Y-74826651D01*
X109433540Y-75188495D01*
X108084884Y-75188495D01*
X108084919Y-74678999D01*
X108085221Y-74021290D01*
X108085992Y-73460516D01*
X108087451Y-72988950D01*
X108089818Y-72598866D01*
X108093312Y-72282536D01*
X108098151Y-72032233D01*
X108104556Y-71840232D01*
X108112745Y-71698803D01*
X108122938Y-71600221D01*
X108135353Y-71536759D01*
X108150211Y-71500690D01*
X108167730Y-71484285D01*
X108188129Y-71479820D01*
X108197257Y-71479646D01*
X108291175Y-71439910D01*
X108309646Y-71367256D01*
X108349382Y-71273338D01*
X108422035Y-71254867D01*
X108515954Y-71215131D01*
X108534425Y-71142478D01*
X108536110Y-71122087D01*
X108546002Y-71104325D01*
X108571353Y-71089011D01*
X108619420Y-71075962D01*
X108697454Y-71064997D01*
X108812710Y-71055935D01*
X108972443Y-71048595D01*
X109183905Y-71042795D01*
X109454351Y-71038354D01*
X109791035Y-71035091D01*
X110201211Y-71032824D01*
X110692132Y-71031372D01*
X111271053Y-71030553D01*
X111945227Y-71030187D01*
X112721909Y-71030091D01*
X113030000Y-71030088D01*
X113845609Y-71030130D01*
X114556083Y-71030378D01*
X115168676Y-71031011D01*
X115690641Y-71032213D01*
X116129232Y-71034164D01*
X116491703Y-71037045D01*
X116785309Y-71041039D01*
X117017303Y-71046325D01*
X117194938Y-71053086D01*
X117325470Y-71061503D01*
X117416152Y-71071758D01*
X117474237Y-71084031D01*
X117506980Y-71098504D01*
X117521635Y-71115358D01*
X117525455Y-71134775D01*
X117525575Y-71142478D01*
X117565311Y-71236396D01*
X117637965Y-71254867D01*
X117731883Y-71294603D01*
X117750354Y-71367256D01*
X117790090Y-71461175D01*
X117862743Y-71479646D01*
X117884443Y-71481484D01*
X117903152Y-71492167D01*
X117919094Y-71519451D01*
X117932489Y-71571090D01*
X117943559Y-71654838D01*
X117952526Y-71778449D01*
X117959612Y-71949679D01*
X117965037Y-72176281D01*
X117969023Y-72466011D01*
X117971792Y-72826623D01*
X117973566Y-73265871D01*
X117974566Y-73791509D01*
X117975013Y-74411293D01*
X117975129Y-75132977D01*
X117975133Y-75413274D01*
X117975080Y-76172748D01*
X117974775Y-76827587D01*
X117973995Y-77385545D01*
X117972520Y-77854378D01*
X117970127Y-78241840D01*
X117966595Y-78555684D01*
X117961703Y-78803666D01*
X117955229Y-78993541D01*
X117946951Y-79133062D01*
X117936648Y-79229985D01*
X117924098Y-79292063D01*
X117909079Y-79327052D01*
X117891371Y-79342705D01*
X117870752Y-79346778D01*
X117862743Y-79346902D01*
X117768825Y-79386638D01*
X117750354Y-79459292D01*
X117710618Y-79553210D01*
X117637965Y-79571681D01*
X117544046Y-79611417D01*
X117525575Y-79684070D01*
X117519739Y-79728545D01*
X117490716Y-79759431D01*
X117421235Y-79779197D01*
X117294024Y-79790310D01*
X117091811Y-79795238D01*
X116797324Y-79796447D01*
X116738849Y-79796460D01*
X116427530Y-79797294D01*
X116211325Y-79801440D01*
X116072963Y-79811366D01*
X115995172Y-79829539D01*
X115960680Y-79858426D01*
X115952217Y-79900496D01*
X115952124Y-79908849D01*
X115933274Y-79982378D01*
X115857087Y-80014876D01*
X115727345Y-80021239D01*
X115582524Y-80028907D01*
X115518156Y-80065075D01*
X115502647Y-80149491D01*
X115502566Y-80161725D01*
X115494543Y-80242185D01*
X115452139Y-80284080D01*
X115347851Y-80299911D01*
X115193496Y-80302212D01*
X115016805Y-80305043D01*
X114924838Y-80323595D01*
X114889933Y-80372957D01*
X114884425Y-80468218D01*
X114884425Y-80470796D01*
X114889458Y-80566575D01*
X114922846Y-80616789D01*
X115012021Y-80636153D01*
X115184417Y-80639379D01*
X115198756Y-80639380D01*
X115383465Y-80645350D01*
X115485029Y-80669560D01*
X115532349Y-80721460D01*
X115542479Y-80751770D01*
X115597060Y-80834019D01*
X115721520Y-80863283D01*
X115761996Y-80864159D01*
X115892152Y-80875530D01*
X115944230Y-80926081D01*
X115952124Y-81004646D01*
X115964393Y-81095159D01*
X116022262Y-81135389D01*
X116157327Y-81145082D01*
X116176903Y-81145132D01*
X116323961Y-81154557D01*
X116388955Y-81192651D01*
X116401681Y-81257522D01*
X116399647Y-81280828D01*
X116387960Y-81300667D01*
X116358245Y-81317318D01*
X116302127Y-81331060D01*
X116211229Y-81342172D01*
X116077178Y-81350934D01*
X115891598Y-81357625D01*
X115646112Y-81362524D01*
X115332346Y-81365910D01*
X114941924Y-81368062D01*
X114466471Y-81369260D01*
X113897612Y-81369783D01*
X113226970Y-81369909D01*
X113030000Y-81369911D01*
X112330820Y-81369843D01*
X111735655Y-81369454D01*
X111236127Y-81368463D01*
X110823864Y-81366593D01*
X110490487Y-81363563D01*
X110227624Y-81359094D01*
X110026897Y-81352908D01*
X109879932Y-81344726D01*
X109778353Y-81334267D01*
X109713784Y-81321253D01*
X109677851Y-81305404D01*
X109662179Y-81286442D01*
X109658390Y-81264087D01*
X109658319Y-81257522D01*
X109677168Y-81183993D01*
X109753356Y-81151496D01*
X109883097Y-81145132D01*
X110027918Y-81137464D01*
X110092286Y-81101296D01*
X110107796Y-81016880D01*
X110107876Y-81004646D01*
X110123265Y-80908472D01*
X110191678Y-80869992D01*
X110298003Y-80864159D01*
X110442256Y-80844609D01*
X110509817Y-80775561D01*
X110517521Y-80751770D01*
X110551343Y-80686285D01*
X110627958Y-80652235D01*
X110776266Y-80640168D01*
X110861243Y-80639380D01*
X111039826Y-80636681D01*
X111133454Y-80618774D01*
X111169558Y-80570947D01*
X111175572Y-80478487D01*
X111175575Y-80470796D01*
X111170385Y-80374419D01*
X111136373Y-80324256D01*
X111045876Y-80305217D01*
X110871231Y-80302212D01*
X110866504Y-80302212D01*
X110689493Y-80298565D01*
X110597325Y-80279291D01*
X110562497Y-80231887D01*
X110557434Y-80161725D01*
X110545165Y-80071212D01*
X110487295Y-80030982D01*
X110352230Y-80021289D01*
X110332655Y-80021239D01*
X110185596Y-80011814D01*
X110120602Y-79973720D01*
X110107876Y-79908849D01*
X110102201Y-79865030D01*
X110073860Y-79834370D01*
X110005875Y-79814529D01*
X109881271Y-79803165D01*
X109683071Y-79797936D01*
X109394298Y-79796501D01*
X109293053Y-79796460D01*
X108969404Y-79794855D01*
X108742255Y-79788948D01*
X108595751Y-79777098D01*
X108514034Y-79757664D01*
X108481247Y-79729007D01*
X108478230Y-79712168D01*
X108432845Y-79638914D01*
X108388677Y-79627876D01*
X108303517Y-79580700D01*
X108269734Y-79515486D01*
X108213286Y-79424161D01*
X108162605Y-79403097D01*
X108147358Y-79388914D01*
X108134175Y-79341576D01*
X108122916Y-79253897D01*
X108113439Y-79118692D01*
X108108943Y-79009734D01*
X112130885Y-79009734D01*
X112149735Y-79083263D01*
X112225922Y-79115760D01*
X112355664Y-79122124D01*
X112502722Y-79112699D01*
X112567716Y-79074605D01*
X112580442Y-79009734D01*
X112805221Y-79009734D01*
X112824071Y-79083263D01*
X112900258Y-79115760D01*
X113030000Y-79122124D01*
X113177058Y-79112699D01*
X113242052Y-79074605D01*
X113254779Y-79009734D01*
X113479557Y-79009734D01*
X113498407Y-79083263D01*
X113574594Y-79115760D01*
X113704336Y-79122124D01*
X115727345Y-79122124D01*
X116401681Y-79122124D01*
X116401681Y-78447787D01*
X115727345Y-78447787D01*
X115727345Y-79122124D01*
X113704336Y-79122124D01*
X113851395Y-79112699D01*
X113916389Y-79074605D01*
X113929115Y-79009734D01*
X113910265Y-78936205D01*
X113834078Y-78903708D01*
X113704336Y-78897345D01*
X113557278Y-78906770D01*
X113492284Y-78944863D01*
X113479557Y-79009734D01*
X113254779Y-79009734D01*
X113235929Y-78936205D01*
X113159742Y-78903708D01*
X113030000Y-78897345D01*
X112882942Y-78906770D01*
X112817947Y-78944863D01*
X112805221Y-79009734D01*
X112580442Y-79009734D01*
X112561593Y-78936205D01*
X112485405Y-78903708D01*
X112355664Y-78897345D01*
X112208605Y-78906770D01*
X112143611Y-78944863D01*
X112130885Y-79009734D01*
X108108943Y-79009734D01*
X108105603Y-78928776D01*
X108099268Y-78676963D01*
G37*
G36*
X111642467Y-72847168D02*
G01*
X111674964Y-72923355D01*
X111681327Y-73053097D01*
X111681327Y-73277876D01*
X111906106Y-73277876D01*
X112053165Y-73287301D01*
X112118159Y-73325394D01*
X112130885Y-73390265D01*
X112170621Y-73484184D01*
X112243274Y-73502655D01*
X112306046Y-73514957D01*
X112339965Y-73569000D01*
X112353597Y-73690485D01*
X112355664Y-73839823D01*
X112351563Y-74028138D01*
X112333549Y-74129894D01*
X112293054Y-74170792D01*
X112243274Y-74176991D01*
X112180503Y-74164688D01*
X112146584Y-74110646D01*
X112132951Y-73989161D01*
X112130885Y-73839823D01*
X112130885Y-73502655D01*
X111681327Y-73502655D01*
X111681327Y-73839823D01*
X111677227Y-74028138D01*
X111659212Y-74129894D01*
X111618717Y-74170792D01*
X111568938Y-74176991D01*
X111521495Y-74170375D01*
X111489679Y-74138110D01*
X111470385Y-74061572D01*
X111460509Y-73922137D01*
X111456948Y-73701180D01*
X111456549Y-73502655D01*
X111457651Y-73217998D01*
X111463029Y-73027101D01*
X111475785Y-72911337D01*
X111499024Y-72852083D01*
X111535850Y-72830715D01*
X111568938Y-72828318D01*
X111642467Y-72847168D01*
G37*
G36*
X111175378Y-75984607D02*
G01*
X111208938Y-76027835D01*
X111225714Y-76127513D01*
X111231356Y-76306249D01*
X111231770Y-76424778D01*
X111229423Y-76648767D01*
X111218616Y-76783009D01*
X111193697Y-76850112D01*
X111149013Y-76872682D01*
X111119380Y-76874336D01*
X111045851Y-76893186D01*
X111013354Y-76969373D01*
X111006991Y-77099115D01*
X110997566Y-77246173D01*
X110959473Y-77311167D01*
X110894602Y-77323894D01*
X110821072Y-77305044D01*
X110788575Y-77228856D01*
X110782212Y-77099115D01*
X110772787Y-76952056D01*
X110734694Y-76887062D01*
X110669823Y-76874336D01*
X110596294Y-76893186D01*
X110563797Y-76969373D01*
X110557434Y-77099115D01*
X110548009Y-77246173D01*
X110509915Y-77311167D01*
X110445044Y-77323894D01*
X110371515Y-77305044D01*
X110339018Y-77228856D01*
X110332655Y-77099115D01*
X110323230Y-76952056D01*
X110285136Y-76887062D01*
X110220265Y-76874336D01*
X110164268Y-76864950D01*
X110130708Y-76821722D01*
X110113932Y-76722044D01*
X110108290Y-76543308D01*
X110107876Y-76424778D01*
X110110222Y-76200790D01*
X110121030Y-76066548D01*
X110145949Y-75999445D01*
X110190633Y-75976875D01*
X110220265Y-75975221D01*
X110276263Y-75984607D01*
X110309823Y-76027835D01*
X110326599Y-76127513D01*
X110332241Y-76306249D01*
X110332655Y-76424778D01*
X110335001Y-76648767D01*
X110345808Y-76783009D01*
X110370728Y-76850112D01*
X110415412Y-76872682D01*
X110445044Y-76874336D01*
X110538963Y-76834600D01*
X110557434Y-76761947D01*
X110597169Y-76668028D01*
X110669823Y-76649557D01*
X110763742Y-76689293D01*
X110782212Y-76761947D01*
X110821948Y-76855865D01*
X110894602Y-76874336D01*
X110950599Y-76864950D01*
X110984159Y-76821722D01*
X111000935Y-76722044D01*
X111006578Y-76543308D01*
X111006991Y-76424778D01*
X111009337Y-76200790D01*
X111020145Y-76066548D01*
X111045064Y-75999445D01*
X111089748Y-75976875D01*
X111119380Y-75975221D01*
X111175378Y-75984607D01*
G37*
G36*
X114300952Y-74635973D02*
G01*
X114365946Y-74674067D01*
X114378673Y-74738938D01*
X114359823Y-74812467D01*
X114283635Y-74844964D01*
X114153894Y-74851327D01*
X114006835Y-74860752D01*
X113941841Y-74898846D01*
X113929115Y-74963717D01*
X113889379Y-75057635D01*
X113816726Y-75076106D01*
X113753954Y-75088408D01*
X113720035Y-75142451D01*
X113706402Y-75263936D01*
X113704336Y-75413274D01*
X113700235Y-75601589D01*
X113682221Y-75703345D01*
X113641726Y-75744244D01*
X113591947Y-75750442D01*
X113540794Y-75742730D01*
X113508048Y-75706031D01*
X113489641Y-75620003D01*
X113481503Y-75464303D01*
X113479567Y-75218591D01*
X113479557Y-75188495D01*
X113481100Y-74932732D01*
X113488440Y-74769003D01*
X113505645Y-74676965D01*
X113536785Y-74636276D01*
X113585928Y-74626594D01*
X113591947Y-74626548D01*
X113685865Y-74666284D01*
X113704336Y-74738938D01*
X113744072Y-74832856D01*
X113816726Y-74851327D01*
X113910644Y-74811591D01*
X113929115Y-74738938D01*
X113947965Y-74665409D01*
X114024152Y-74632911D01*
X114153894Y-74626548D01*
X114300952Y-74635973D01*
G37*
G36*
X110925586Y-72829861D02*
G01*
X111089316Y-72837201D01*
X111181354Y-72854406D01*
X111222042Y-72885546D01*
X111231724Y-72934689D01*
X111231770Y-72940708D01*
X111212920Y-73014237D01*
X111136733Y-73046734D01*
X111006991Y-73053097D01*
X110782212Y-73053097D01*
X110782212Y-73615044D01*
X110780670Y-73870807D01*
X110773330Y-74034537D01*
X110756124Y-74126575D01*
X110724985Y-74167263D01*
X110675842Y-74176945D01*
X110669823Y-74176991D01*
X110618670Y-74169278D01*
X110585924Y-74132579D01*
X110567517Y-74046551D01*
X110559379Y-73890852D01*
X110557443Y-73645140D01*
X110557434Y-73615044D01*
X110557434Y-73053097D01*
X110332655Y-73053097D01*
X110185596Y-73043672D01*
X110120602Y-73005579D01*
X110107876Y-72940708D01*
X110115589Y-72889555D01*
X110152288Y-72856809D01*
X110238316Y-72838402D01*
X110394015Y-72830264D01*
X110639727Y-72828327D01*
X110669823Y-72828318D01*
X110925586Y-72829861D01*
G37*
G36*
X112581545Y-76364901D02*
G01*
X112586923Y-76174003D01*
X112599679Y-76058240D01*
X112622918Y-75998986D01*
X112659744Y-75977617D01*
X112692832Y-75975221D01*
X112766361Y-75994071D01*
X112798858Y-76070258D01*
X112805221Y-76200000D01*
X112805221Y-76424778D01*
X113030000Y-76424778D01*
X113177058Y-76434203D01*
X113242052Y-76472297D01*
X113254779Y-76537168D01*
X113294514Y-76631086D01*
X113367168Y-76649557D01*
X113440697Y-76668407D01*
X113473194Y-76744594D01*
X113479557Y-76874336D01*
X113470133Y-77021394D01*
X113432039Y-77086389D01*
X113367168Y-77099115D01*
X113273249Y-77138850D01*
X113254779Y-77211504D01*
X113242476Y-77274276D01*
X113188434Y-77308194D01*
X113066949Y-77321827D01*
X112917611Y-77323894D01*
X112580442Y-77323894D01*
X112580442Y-77099115D01*
X112805221Y-77099115D01*
X113254779Y-77099115D01*
X113254779Y-76649557D01*
X112805221Y-76649557D01*
X112805221Y-77099115D01*
X112580442Y-77099115D01*
X112580442Y-76649557D01*
X112581545Y-76364901D01*
G37*
G36*
X112766361Y-74420619D02*
G01*
X112798858Y-74496807D01*
X112805221Y-74626548D01*
X112805221Y-74851327D01*
X113030000Y-74851327D01*
X113177058Y-74860752D01*
X113242052Y-74898846D01*
X113254779Y-74963717D01*
X113235929Y-75037246D01*
X113159742Y-75069743D01*
X113030000Y-75076106D01*
X112805221Y-75076106D01*
X112805221Y-75525663D01*
X113030000Y-75525663D01*
X113177058Y-75535088D01*
X113242052Y-75573182D01*
X113254779Y-75638053D01*
X113235929Y-75711582D01*
X113159742Y-75744079D01*
X113030000Y-75750442D01*
X112882942Y-75741017D01*
X112817947Y-75702924D01*
X112805221Y-75638053D01*
X112765486Y-75544134D01*
X112692832Y-75525663D01*
X112641679Y-75517951D01*
X112608933Y-75481252D01*
X112590526Y-75395224D01*
X112582388Y-75239525D01*
X112580452Y-74993812D01*
X112580442Y-74963717D01*
X112581985Y-74707953D01*
X112589325Y-74544224D01*
X112606530Y-74452186D01*
X112637670Y-74411497D01*
X112686813Y-74401816D01*
X112692832Y-74401770D01*
X112766361Y-74420619D01*
G37*
G36*
X110557434Y-74401770D02*
G01*
X110781422Y-74404116D01*
X110915664Y-74414923D01*
X110982767Y-74439843D01*
X111005337Y-74484527D01*
X111006991Y-74514159D01*
X111046727Y-74608078D01*
X111119380Y-74626548D01*
X111192910Y-74645398D01*
X111225407Y-74721585D01*
X111231770Y-74851327D01*
X111222345Y-74998386D01*
X111184251Y-75063380D01*
X111119380Y-75076106D01*
X111045851Y-75094956D01*
X111013354Y-75171143D01*
X111006991Y-75300885D01*
X111016416Y-75447943D01*
X111054510Y-75512937D01*
X111119380Y-75525663D01*
X111213299Y-75565399D01*
X111231770Y-75638053D01*
X111192034Y-75731971D01*
X111119380Y-75750442D01*
X111025462Y-75710707D01*
X111006991Y-75638053D01*
X110967255Y-75544134D01*
X110894602Y-75525663D01*
X110800683Y-75485928D01*
X110782212Y-75413274D01*
X110763363Y-75339745D01*
X110687175Y-75307248D01*
X110557434Y-75300885D01*
X110332655Y-75300885D01*
X110332655Y-75525663D01*
X110323230Y-75672722D01*
X110285136Y-75737716D01*
X110220265Y-75750442D01*
X110172823Y-75743826D01*
X110141006Y-75711562D01*
X110121713Y-75635024D01*
X110111837Y-75495588D01*
X110108275Y-75274631D01*
X110107876Y-75076106D01*
X110332655Y-75076106D01*
X111006991Y-75076106D01*
X111006991Y-74626548D01*
X110332655Y-74626548D01*
X110332655Y-75076106D01*
X110107876Y-75076106D01*
X110107876Y-74401770D01*
X110557434Y-74401770D01*
G37*
G36*
X114619150Y-75459318D02*
G01*
X114605517Y-75337833D01*
X114603451Y-75188495D01*
X114607552Y-75000180D01*
X114625566Y-74898424D01*
X114666061Y-74857526D01*
X114715841Y-74851327D01*
X114809759Y-74811591D01*
X114828230Y-74738938D01*
X114847080Y-74665409D01*
X114923267Y-74632911D01*
X115053009Y-74626548D01*
X115200067Y-74635973D01*
X115265061Y-74674067D01*
X115277788Y-74738938D01*
X115317523Y-74832856D01*
X115390177Y-74851327D01*
X115452949Y-74863630D01*
X115486867Y-74917672D01*
X115500500Y-75039157D01*
X115502566Y-75188495D01*
X115498465Y-75376811D01*
X115480451Y-75478566D01*
X115439956Y-75519465D01*
X115390177Y-75525663D01*
X115296258Y-75565399D01*
X115277788Y-75638053D01*
X115258938Y-75711582D01*
X115182751Y-75744079D01*
X115053009Y-75750442D01*
X114905950Y-75741017D01*
X114840956Y-75702924D01*
X114828230Y-75638053D01*
X114788494Y-75544134D01*
X114715841Y-75525663D01*
X114828230Y-75525663D01*
X115277788Y-75525663D01*
X115277788Y-74851327D01*
X114828230Y-74851327D01*
X114828230Y-75525663D01*
X114715841Y-75525663D01*
X114653069Y-75513361D01*
X114619150Y-75459318D01*
G37*
%TD*%
M02*
