%TF.GenerationSoftware,KiCad,Pcbnew,(6.0.5)*%
%TF.CreationDate,2022-10-23T12:56:42-05:00*%
%TF.ProjectId,ISA rev4,49534120-7265-4763-942e-6b696361645f,rev?*%
%TF.SameCoordinates,Original*%
%TF.FileFunction,Other,User*%
%FSLAX46Y46*%
G04 Gerber Fmt 4.6, Leading zero omitted, Abs format (unit mm)*
G04 Created by KiCad (PCBNEW (6.0.5)) date 2022-10-23 12:56:42*
%MOMM*%
%LPD*%
G01*
G04 APERTURE LIST*
%ADD10C,0.150000*%
%ADD11C,0.100000*%
G04 APERTURE END LIST*
D10*
X102235523Y-99274380D02*
X102568857Y-100274380D01*
X102902190Y-99274380D01*
X103235523Y-99893428D02*
X103997428Y-99893428D01*
X105045047Y-100179142D02*
X104997428Y-100226761D01*
X104854571Y-100274380D01*
X104759333Y-100274380D01*
X104616476Y-100226761D01*
X104521238Y-100131523D01*
X104473619Y-100036285D01*
X104426000Y-99845809D01*
X104426000Y-99702952D01*
X104473619Y-99512476D01*
X104521238Y-99417238D01*
X104616476Y-99322000D01*
X104759333Y-99274380D01*
X104854571Y-99274380D01*
X104997428Y-99322000D01*
X105045047Y-99369619D01*
X105902190Y-99607714D02*
X105902190Y-100274380D01*
X105473619Y-99607714D02*
X105473619Y-100131523D01*
X105521238Y-100226761D01*
X105616476Y-100274380D01*
X105759333Y-100274380D01*
X105854571Y-100226761D01*
X105902190Y-100179142D01*
X106235523Y-99607714D02*
X106616476Y-99607714D01*
X106378380Y-99274380D02*
X106378380Y-100131523D01*
X106426000Y-100226761D01*
X106521238Y-100274380D01*
X106616476Y-100274380D01*
X107711714Y-100274380D02*
X107711714Y-99274380D01*
X108140285Y-100274380D02*
X108140285Y-99750571D01*
X108092666Y-99655333D01*
X107997428Y-99607714D01*
X107854571Y-99607714D01*
X107759333Y-99655333D01*
X107711714Y-99702952D01*
X108997428Y-100226761D02*
X108902190Y-100274380D01*
X108711714Y-100274380D01*
X108616476Y-100226761D01*
X108568857Y-100131523D01*
X108568857Y-99750571D01*
X108616476Y-99655333D01*
X108711714Y-99607714D01*
X108902190Y-99607714D01*
X108997428Y-99655333D01*
X109045047Y-99750571D01*
X109045047Y-99845809D01*
X108568857Y-99941047D01*
X109473619Y-100274380D02*
X109473619Y-99607714D01*
X109473619Y-99798190D02*
X109521238Y-99702952D01*
X109568857Y-99655333D01*
X109664095Y-99607714D01*
X109759333Y-99607714D01*
X110473619Y-100226761D02*
X110378380Y-100274380D01*
X110187904Y-100274380D01*
X110092666Y-100226761D01*
X110045047Y-100131523D01*
X110045047Y-99750571D01*
X110092666Y-99655333D01*
X110187904Y-99607714D01*
X110378380Y-99607714D01*
X110473619Y-99655333D01*
X110521238Y-99750571D01*
X110521238Y-99845809D01*
X110045047Y-99941047D01*
D11*
X105918000Y-101600000D02*
X105918000Y-100838000D01*
X105918000Y-152654000D02*
X105918000Y-101600000D01*
M02*
